<svg width="438" height="236" viewBox="0 0 438 236" fill="none" xmlns="http://www.w3.org/2000/svg">
<path d="M228.189 172.343V235.96" stroke="#18181B" stroke-width="0.748571"/>
<path d="M1.18945 173.96H191.189" stroke="#18181B" stroke-width="0.748571"/>
<path d="M45.3828 44.9602L192 45.5" stroke="#18181B" stroke-width="0.748571"/>
<path d="M269.5 145L436.19 144.96" stroke="#18181B" stroke-width="0.748571"/>
<path d="M1.18945 109.96L143.189 109.96" stroke="#18181B" stroke-width="0.748571"/>
<path d="M45.1895 142.96H124.189" stroke="#18181B" stroke-width="0.748571"/>
<path d="M272 109.96L417.189 109.96" stroke="#18181B" stroke-width="0.748571"/>
<path d="M316.189 173.96L225.5 174" stroke="#18181B" stroke-width="0.748571"/>
<path d="M352.189 27.9602V108.767V214.96" stroke="#18181B" stroke-width="0.748571"/>
<path d="M316.189 0.960693V225.961" stroke="#18181B" stroke-width="0.748571"/>
<path d="M245.189 57.9605L416.189 57.9602" stroke="#18181B" stroke-width="0.748571"/>
<path d="M77.1895 225.96L77.1895 6.9602" stroke="#18181B" stroke-width="0.748571"/>
<path d="M153.189 17.9602V69.5" stroke="#18181B" stroke-width="0.748571"/>
<path d="M45.1895 28.9602L45.1895 212.96" stroke="#18181B" stroke-width="0.748571"/>
<path d="M124.189 44.9602V234.96" stroke="#18181B" stroke-width="0.748571"/>
<path d="M176.189 173.96V219.96" stroke="#18181B" stroke-width="0.748571"/>
<path d="M78.1895 204.96H393.189" stroke="#18181B" stroke-width="0.748571"/>
<circle opacity="0.14" cx="124.189" cy="109.96" r="3.5" fill="#AB66FF"/>
<circle opacity="0.14" cx="45.189" cy="173.96" r="3.5" fill="#AB66FF"/>
<circle opacity="0.14" cx="77.189" cy="44.9602" r="3.5" fill="#AB66FF"/>
<circle opacity="0.14" cx="352.189" cy="57.9604" r="3.5" fill="#AB66FF"/>
<circle opacity="0.14" cx="316.189" cy="109.961" r="3.5" fill="#AB66FF"/>
<circle opacity="0.14" cx="176.189" cy="204.96" r="3.5" fill="#AB66FF"/>
<g filter="url(#filter0_d_1224_57158)">
<path d="M150.058 71.4524L150.061 71.4502L198.547 41.3638C198.547 41.3634 198.548 41.363 198.548 41.3627C202.76 38.8146 207.995 38.7089 212.279 41.0837L212.282 41.0849L264.268 69.4685C264.269 69.4687 264.269 69.4688 264.269 69.469C268.527 71.8293 271.206 76.2849 271.307 81.1758C271.307 81.1768 271.307 81.1778 271.307 81.1788L271.618 136.695L271.619 136.701C271.718 141.575 269.247 146.144 265.114 148.73L215.895 179.528C211.658 182.179 206.336 182.327 201.987 179.916L151.163 151.745C146.755 149.302 143.342 144.652 143.375 139.659L143.375 139.657L143.375 83.2182C143.375 83.2178 143.375 83.2174 143.375 83.217C143.407 78.4042 145.94 73.944 150.058 71.4524Z" stroke="#AB66FF" stroke-opacity="0.1" stroke-width="0.748571" shape-rendering="crispEdges"/>
</g>
<g filter="url(#filter1_d_1224_57158)">
<path d="M174.937 87.1502L202.753 69.6861C205.235 68.1664 208.32 68.1029 210.846 69.5194L240.669 85.9945C243.179 87.4024 244.758 90.0604 244.817 92.977L244.996 125.203C245.054 128.109 243.599 130.832 241.164 132.374L212.93 150.25C210.434 151.83 207.297 151.918 204.733 150.481L175.579 134.129C173 132.683 170.981 129.92 171 126.923L171 94.1637C171.019 91.2945 172.511 88.6356 174.937 87.1502Z" fill="#18181B"/>
<path d="M175.328 87.7886L175.328 87.7886L175.335 87.7841L203.144 70.3245C203.145 70.3238 203.146 70.323 203.147 70.3223C205.399 68.9454 208.193 68.8899 210.48 70.1723L210.484 70.1747L240.303 86.6474C240.303 86.6478 240.304 86.6481 240.305 86.6485C242.577 87.9239 244.013 90.334 244.068 92.9869C244.068 92.9886 244.068 92.9903 244.069 92.9921L244.247 125.207L244.247 125.218C244.301 127.865 242.975 130.341 240.763 131.741L212.529 149.617C210.264 151.051 207.422 151.13 205.099 149.828L175.945 133.477C173.543 132.129 171.731 129.588 171.749 126.928H171.749V126.923L171.749 94.1685C171.749 94.1678 171.749 94.167 171.749 94.1662C171.767 91.554 173.126 89.137 175.328 87.7886Z" stroke="url(#paint0_linear_1224_57158)" stroke-width="1.49714"/>
</g>
<g filter="url(#filter2_d_1224_57158)">
<path d="M166.189 81.6892L166.189 81.6893L166.192 81.6871L201.522 59.8066C201.522 59.8062 201.523 59.8058 201.524 59.8055C204.562 57.9712 208.337 57.8955 211.427 59.6049L211.429 59.606L249.311 80.2484C249.311 80.2486 249.311 80.2488 249.312 80.249C252.382 81.9479 254.314 85.1546 254.387 88.6746C254.387 88.6756 254.387 88.6766 254.387 88.6776L254.614 129.052L254.614 129.057C254.686 132.566 252.904 135.855 249.922 137.717L214.057 160.116C211.001 162.024 207.162 162.13 204.025 160.395L166.991 139.907C163.803 138.143 161.345 134.791 161.368 131.207H161.368V131.205L161.368 90.1594C161.368 90.159 161.368 90.1586 161.368 90.1582C161.391 86.6939 163.219 83.4831 166.189 81.6892Z" stroke="#AB66FF" stroke-opacity="0.5" stroke-width="0.748571" shape-rendering="crispEdges"/>
</g>
<g filter="url(#filter3_d_1224_57158)">
<path d="M157.2 76.408L157.2 76.408L157.203 76.4058L199.674 50.1067C199.675 50.1063 199.676 50.106 199.676 50.1056C203.352 47.8868 207.92 47.795 211.658 49.8628L211.66 49.8639L257.199 74.6747C257.199 74.675 257.2 74.6752 257.2 74.6754C260.915 76.7307 263.252 80.6098 263.34 84.8675C263.34 84.8686 263.34 84.8696 263.34 84.8706L263.613 133.398L263.613 133.404C263.7 137.648 261.544 141.626 257.937 143.878L214.823 170.799C211.126 173.108 206.481 173.236 202.686 171.137L158.167 146.512C154.316 144.382 151.34 140.331 151.368 135.989L151.368 135.986L151.368 86.6526C151.368 86.6522 151.368 86.6518 151.368 86.6514C151.396 82.4612 153.607 78.5776 157.2 76.408Z" stroke="#AB66FF" stroke-opacity="0.15" stroke-width="0.748571" shape-rendering="crispEdges"/>
</g>
<path d="M204.594 97C203.823 97 203.084 97.3039 202.539 97.8449C201.994 98.3859 201.688 99.1196 201.688 99.8846V100.846H194.906C194.135 100.846 193.396 101.15 192.851 101.691C192.306 102.232 192 102.966 192 103.731V119.115C192 119.88 192.306 120.614 192.851 121.155C193.396 121.696 194.135 122 194.906 122H220.094C220.865 122 221.604 121.696 222.149 121.155C222.694 120.614 223 119.88 223 119.115V103.731C223 102.966 222.694 102.232 222.149 101.691C221.604 101.15 220.865 100.846 220.094 100.846H213.312V99.8846C213.312 99.1196 213.006 98.3859 212.461 97.8449C211.916 97.3039 211.177 97 210.406 97H204.594ZM204.594 98.9231H210.406C210.663 98.9231 210.91 99.0244 211.091 99.2047C211.273 99.385 211.375 99.6296 211.375 99.8846V100.846H203.625V99.8846C203.625 99.6296 203.727 99.385 203.909 99.2047C204.09 99.0244 204.337 98.9231 204.594 98.9231ZM208.248 112.219L221.062 108.829V119.115C221.062 119.37 220.96 119.615 220.779 119.795C220.597 119.976 220.351 120.077 220.094 120.077H194.906C194.649 120.077 194.403 119.976 194.221 119.795C194.04 119.615 193.938 119.37 193.938 119.115V108.827L206.752 112.219C207.242 112.349 207.758 112.349 208.248 112.219ZM194.906 102.769H220.094C220.351 102.769 220.597 102.871 220.779 103.051C220.96 103.231 221.062 103.476 221.062 103.731V106.838L207.75 110.362C207.586 110.405 207.414 110.405 207.25 110.362L193.938 106.838V103.731C193.938 103.476 194.04 103.231 194.221 103.051C194.403 102.871 194.649 102.769 194.906 102.769Z" fill="url(#paint1_linear_1224_57158)"/>
<defs>
<filter id="filter0_d_1224_57158" x="124.263" y="20.2631" width="166.469" height="180.474" filterUnits="userSpaceOnUse" color-interpolation-filters="sRGB">
<feFlood flood-opacity="0" result="BackgroundImageFix"/>
<feColorMatrix in="SourceAlpha" type="matrix" values="0 0 0 0 0 0 0 0 0 0 0 0 0 0 0 0 0 0 127 0" result="hardAlpha"/>
<feOffset/>
<feGaussianBlur stdDeviation="9.36846"/>
<feComposite in2="hardAlpha" operator="out"/>
<feColorMatrix type="matrix" values="0 0 0 0 1 0 0 0 0 1 0 0 0 0 1 0 0 0 0.52 0"/>
<feBlend mode="normal" in2="BackgroundImageFix" result="effect1_dropShadow_1224_57158"/>
<feBlend mode="normal" in="SourceGraphic" in2="effect1_dropShadow_1224_57158" result="shape"/>
</filter>
<filter id="filter1_d_1224_57158" x="152.263" y="49.7631" width="111.471" height="120.474" filterUnits="userSpaceOnUse" color-interpolation-filters="sRGB">
<feFlood flood-opacity="0" result="BackgroundImageFix"/>
<feColorMatrix in="SourceAlpha" type="matrix" values="0 0 0 0 0 0 0 0 0 0 0 0 0 0 0 0 0 0 127 0" result="hardAlpha"/>
<feOffset/>
<feGaussianBlur stdDeviation="9.36846"/>
<feComposite in2="hardAlpha" operator="out"/>
<feColorMatrix type="matrix" values="0 0 0 0 1 0 0 0 0 1 0 0 0 0 1 0 0 0 0.07 0"/>
<feBlend mode="normal" in2="BackgroundImageFix" result="effect1_dropShadow_1224_57158"/>
<feBlend mode="normal" in="SourceGraphic" in2="effect1_dropShadow_1224_57158" result="shape"/>
</filter>
<filter id="filter2_d_1224_57158" x="141.617" y="38.6229" width="132.751" height="142.754" filterUnits="userSpaceOnUse" color-interpolation-filters="sRGB">
<feFlood flood-opacity="0" result="BackgroundImageFix"/>
<feColorMatrix in="SourceAlpha" type="matrix" values="0 0 0 0 0 0 0 0 0 0 0 0 0 0 0 0 0 0 127 0" result="hardAlpha"/>
<feOffset/>
<feGaussianBlur stdDeviation="9.68854"/>
<feComposite in2="hardAlpha" operator="out"/>
<feColorMatrix type="matrix" values="0 0 0 0 1 0 0 0 0 1 0 0 0 0 1 0 0 0 1 0"/>
<feBlend mode="normal" in2="BackgroundImageFix" result="effect1_dropShadow_1224_57158"/>
<feBlend mode="normal" in="SourceGraphic" in2="effect1_dropShadow_1224_57158" result="shape"/>
</filter>
<filter id="filter3_d_1224_57158" x="132.257" y="29.2631" width="150.47" height="162.474" filterUnits="userSpaceOnUse" color-interpolation-filters="sRGB">
<feFlood flood-opacity="0" result="BackgroundImageFix"/>
<feColorMatrix in="SourceAlpha" type="matrix" values="0 0 0 0 0 0 0 0 0 0 0 0 0 0 0 0 0 0 127 0" result="hardAlpha"/>
<feOffset/>
<feGaussianBlur stdDeviation="9.36846"/>
<feComposite in2="hardAlpha" operator="out"/>
<feColorMatrix type="matrix" values="0 0 0 0 1 0 0 0 0 1 0 0 0 0 1 0 0 0 1 0"/>
<feBlend mode="normal" in2="BackgroundImageFix" result="effect1_dropShadow_1224_57158"/>
<feBlend mode="normal" in="SourceGraphic" in2="effect1_dropShadow_1224_57158" result="shape"/>
</filter>
<linearGradient id="paint0_linear_1224_57158" x1="171.726" y1="93.9557" x2="245.054" y2="130.193" gradientUnits="userSpaceOnUse">
<stop stop-color="#AB66FF"/>
<stop offset="1" stop-color="#4C00A9"/>
</linearGradient>
<linearGradient id="paint1_linear_1224_57158" x1="191.914" y1="102.343" x2="219.661" y2="120.851" gradientUnits="userSpaceOnUse">
<stop stop-color="#AB66FF"/>
<stop offset="1" stop-color="#4C00A9"/>
</linearGradient>
</defs>
</svg>
