<svg width="438" height="236" viewBox="0 0 438 236" fill="none" xmlns="http://www.w3.org/2000/svg">
<path d="M228.189 172.5V235.96" stroke="#E4E4E7" stroke-width="0.748571"/>
<path d="M1.18945 173.96H190" stroke="#E4E4E7" stroke-width="0.748571"/>
<path d="M45.5 44.9602H194.189" stroke="#E4E4E7" stroke-width="0.748571"/>
<path d="M269.5 144.5H436" stroke="#E4E4E7" stroke-width="0.748571"/>
<path d="M1.18945 109.96L143.189 109.96" stroke="#E4E4E7" stroke-width="0.748571"/>
<path d="M45.1895 142.96H124.189" stroke="#E4E4E7" stroke-width="0.748571"/>
<path d="M272 109.96L417.189 109.96" stroke="#E4E4E7" stroke-width="0.748571"/>
<path d="M316.189 173.96L225.5 173.96" stroke="#E4E4E7" stroke-width="0.748571"/>
<path d="M352.189 27.9602V108.767V214.96" stroke="#E4E4E7" stroke-width="0.748571"/>
<path d="M316.189 0.960693V225.961" stroke="#E4E4E7" stroke-width="0.748571"/>
<path d="M245.189 57.9605L416.189 57.9602" stroke="#E4E4E7" stroke-width="0.748571"/>
<path d="M77.1895 225.96L77.1895 6.9602" stroke="#E4E4E7" stroke-width="0.748571"/>
<path d="M153.189 17.9602V69.9602" stroke="#E4E4E7" stroke-width="0.748571"/>
<path d="M45.1895 28.9602L45.1895 212.96" stroke="#E4E4E7" stroke-width="0.748571"/>
<path d="M124.189 44.9602V234.96" stroke="#E4E4E7" stroke-width="0.748571"/>
<path d="M176.189 173.96V219.96" stroke="#E4E4E7" stroke-width="0.748571"/>
<path d="M78.1895 204.96H393.189" stroke="#E4E4E7" stroke-width="0.748571"/>
<circle opacity="0.7" cx="124.189" cy="109.96" r="3.5" fill="#AB66FF"/>
<circle opacity="0.7" cx="45.189" cy="173.96" r="3.5" fill="#AB66FF"/>
<circle opacity="0.7" cx="77.189" cy="44.9602" r="3.5" fill="#AB66FF"/>
<circle opacity="0.7" cx="352.189" cy="57.9604" r="3.5" fill="#AB66FF"/>
<circle opacity="0.7" cx="316.189" cy="109.961" r="3.5" fill="#AB66FF"/>
<circle opacity="0.7" cx="176.189" cy="204.96" r="3.5" fill="#AB66FF"/>
<g filter="url(#filter0_d_1214_57112)">
<path d="M150.052 71.4524L150.055 71.4502L198.541 41.3638C198.541 41.3634 198.542 41.363 198.543 41.3627C202.755 38.8146 207.989 38.7089 212.274 41.0837L212.276 41.0849L264.262 69.4685C264.263 69.4687 264.263 69.4688 264.263 69.469C268.521 71.8293 271.2 76.2849 271.301 81.1758C271.301 81.1768 271.301 81.1778 271.301 81.1788L271.613 136.695L271.613 136.701C271.712 141.575 269.241 146.144 265.108 148.73L215.889 179.528C211.653 182.179 206.33 182.327 201.981 179.916L151.157 151.745C146.75 149.302 143.336 144.652 143.369 139.659L143.369 139.657L143.369 83.2182C143.369 83.2178 143.369 83.2174 143.369 83.217C143.401 78.4042 145.934 73.944 150.052 71.4524Z" stroke="#AB66FF" stroke-opacity="0.25" stroke-width="0.748571" shape-rendering="crispEdges"/>
</g>
<g filter="url(#filter1_d_1214_57112)">
<path d="M174.937 86.6502L202.753 69.1861C205.235 67.6664 208.32 67.6029 210.846 69.0194L240.669 85.4945C243.179 86.9024 244.758 89.5604 244.817 92.477L244.996 124.703C245.054 127.609 243.599 130.332 241.164 131.874L212.93 149.75C210.434 151.33 207.297 151.418 204.733 149.981L175.579 133.629C173 132.183 170.981 129.42 171 126.423L171 93.6637C171.019 90.7945 172.511 88.1356 174.937 86.6502Z" fill="white"/>
<path d="M175.328 87.2886L175.328 87.2886L175.335 87.2841L203.144 69.8245C203.145 69.8238 203.146 69.823 203.147 69.8223C205.399 68.4454 208.193 68.3899 210.48 69.6723L210.484 69.6747L240.303 86.1474C240.303 86.1478 240.304 86.1481 240.305 86.1485C242.577 87.4239 244.013 89.834 244.068 92.4869C244.068 92.4886 244.068 92.4903 244.069 92.4921L244.247 124.707L244.247 124.718C244.301 127.365 242.975 129.841 240.763 131.241L212.529 149.117C210.264 150.551 207.422 150.63 205.099 149.328L175.945 132.977C173.543 131.629 171.731 129.088 171.749 126.428H171.749V126.423L171.749 93.6685C171.749 93.6678 171.749 93.667 171.749 93.6662C171.767 91.054 173.126 88.637 175.328 87.2886Z" stroke="url(#paint0_linear_1214_57112)" stroke-width="1.49714"/>
</g>
<path d="M204.594 97C203.823 97 203.084 97.3039 202.539 97.8449C201.994 98.3859 201.688 99.1196 201.688 99.8846V100.846H194.906C194.135 100.846 193.396 101.15 192.851 101.691C192.306 102.232 192 102.966 192 103.731V119.115C192 119.88 192.306 120.614 192.851 121.155C193.396 121.696 194.135 122 194.906 122H220.094C220.865 122 221.604 121.696 222.149 121.155C222.694 120.614 223 119.88 223 119.115V103.731C223 102.966 222.694 102.232 222.149 101.691C221.604 101.15 220.865 100.846 220.094 100.846H213.312V99.8846C213.312 99.1196 213.006 98.3859 212.461 97.8449C211.916 97.3039 211.177 97 210.406 97H204.594ZM204.594 98.9231H210.406C210.663 98.9231 210.91 99.0244 211.091 99.2047C211.273 99.385 211.375 99.6296 211.375 99.8846V100.846H203.625V99.8846C203.625 99.6296 203.727 99.385 203.909 99.2047C204.09 99.0244 204.337 98.9231 204.594 98.9231ZM208.248 112.219L221.062 108.829V119.115C221.062 119.37 220.96 119.615 220.779 119.795C220.597 119.976 220.351 120.077 220.094 120.077H194.906C194.649 120.077 194.403 119.976 194.221 119.795C194.04 119.615 193.938 119.37 193.938 119.115V108.827L206.752 112.219C207.242 112.349 207.758 112.349 208.248 112.219ZM194.906 102.769H220.094C220.351 102.769 220.597 102.871 220.779 103.051C220.96 103.231 221.062 103.476 221.062 103.731V106.838L207.75 110.362C207.586 110.405 207.414 110.405 207.25 110.362L193.938 106.838V103.731C193.938 103.476 194.04 103.231 194.221 103.051C194.403 102.871 194.649 102.769 194.906 102.769Z" fill="url(#paint1_linear_1214_57112)"/>
<g filter="url(#filter2_d_1214_57112)">
<path d="M166.189 81.6892L166.189 81.6893L166.192 81.6871L201.522 59.8066C201.522 59.8062 201.523 59.8058 201.524 59.8055C204.562 57.9712 208.337 57.8955 211.427 59.6049L211.429 59.606L249.311 80.2484C249.311 80.2486 249.311 80.2488 249.312 80.249C252.382 81.9479 254.314 85.1546 254.387 88.6746C254.387 88.6756 254.387 88.6766 254.387 88.6776L254.614 129.052L254.614 129.057C254.686 132.566 252.904 135.855 249.922 137.717L214.057 160.116C211.001 162.024 207.162 162.13 204.025 160.395L166.991 139.907C163.803 138.143 161.345 134.791 161.368 131.207H161.368V131.205L161.368 90.1594C161.368 90.159 161.368 90.1586 161.368 90.1582C161.391 86.6939 163.219 83.4831 166.189 81.6892Z" stroke="#AB66FF" stroke-width="0.748571" shape-rendering="crispEdges"/>
</g>
<g filter="url(#filter3_d_1214_57112)">
<path d="M157.2 76.408L157.2 76.408L157.203 76.4058L199.674 50.1067C199.675 50.1063 199.676 50.106 199.676 50.1056C203.352 47.8868 207.92 47.795 211.658 49.8628L211.66 49.8639L257.199 74.6747C257.199 74.675 257.2 74.6752 257.2 74.6754C260.915 76.7307 263.252 80.6098 263.34 84.8675C263.34 84.8686 263.34 84.8696 263.34 84.8706L263.613 133.398L263.613 133.404C263.7 137.648 261.544 141.626 257.937 143.878L214.823 170.799C211.126 173.108 206.481 173.236 202.686 171.137L158.167 146.512C154.316 144.382 151.34 140.331 151.368 135.989L151.368 135.986L151.368 86.6526C151.368 86.6522 151.368 86.6518 151.368 86.6514C151.396 82.4612 153.607 78.5776 157.2 76.408Z" stroke="#AB66FF" stroke-opacity="0.3" stroke-width="0.748571" shape-rendering="crispEdges"/>
</g>
<defs>
<filter id="filter0_d_1214_57112" x="124.257" y="20.2631" width="166.469" height="180.474" filterUnits="userSpaceOnUse" color-interpolation-filters="sRGB">
<feFlood flood-opacity="0" result="BackgroundImageFix"/>
<feColorMatrix in="SourceAlpha" type="matrix" values="0 0 0 0 0 0 0 0 0 0 0 0 0 0 0 0 0 0 127 0" result="hardAlpha"/>
<feOffset/>
<feGaussianBlur stdDeviation="9.36846"/>
<feComposite in2="hardAlpha" operator="out"/>
<feColorMatrix type="matrix" values="0 0 0 0 0.501961 0 0 0 0 0.435294 0 0 0 0 0.941176 0 0 0 0.54 0"/>
<feBlend mode="normal" in2="BackgroundImageFix" result="effect1_dropShadow_1214_57112"/>
<feBlend mode="normal" in="SourceGraphic" in2="effect1_dropShadow_1214_57112" result="shape"/>
</filter>
<filter id="filter1_d_1214_57112" x="152.263" y="49.2631" width="111.471" height="120.474" filterUnits="userSpaceOnUse" color-interpolation-filters="sRGB">
<feFlood flood-opacity="0" result="BackgroundImageFix"/>
<feColorMatrix in="SourceAlpha" type="matrix" values="0 0 0 0 0 0 0 0 0 0 0 0 0 0 0 0 0 0 127 0" result="hardAlpha"/>
<feOffset/>
<feGaussianBlur stdDeviation="9.36846"/>
<feComposite in2="hardAlpha" operator="out"/>
<feColorMatrix type="matrix" values="0 0 0 0 0.501961 0 0 0 0 0.435294 0 0 0 0 0.941176 0 0 0 0.07 0"/>
<feBlend mode="normal" in2="BackgroundImageFix" result="effect1_dropShadow_1214_57112"/>
<feBlend mode="normal" in="SourceGraphic" in2="effect1_dropShadow_1214_57112" result="shape"/>
</filter>
<filter id="filter2_d_1214_57112" x="141.617" y="38.6229" width="132.751" height="142.754" filterUnits="userSpaceOnUse" color-interpolation-filters="sRGB">
<feFlood flood-opacity="0" result="BackgroundImageFix"/>
<feColorMatrix in="SourceAlpha" type="matrix" values="0 0 0 0 0 0 0 0 0 0 0 0 0 0 0 0 0 0 127 0" result="hardAlpha"/>
<feOffset/>
<feGaussianBlur stdDeviation="9.68854"/>
<feComposite in2="hardAlpha" operator="out"/>
<feColorMatrix type="matrix" values="0 0 0 0 0.501961 0 0 0 0 0.435294 0 0 0 0 0.941176 0 0 0 0.54 0"/>
<feBlend mode="normal" in2="BackgroundImageFix" result="effect1_dropShadow_1214_57112"/>
<feBlend mode="normal" in="SourceGraphic" in2="effect1_dropShadow_1214_57112" result="shape"/>
</filter>
<filter id="filter3_d_1214_57112" x="132.257" y="29.2631" width="150.47" height="162.474" filterUnits="userSpaceOnUse" color-interpolation-filters="sRGB">
<feFlood flood-opacity="0" result="BackgroundImageFix"/>
<feColorMatrix in="SourceAlpha" type="matrix" values="0 0 0 0 0 0 0 0 0 0 0 0 0 0 0 0 0 0 127 0" result="hardAlpha"/>
<feOffset/>
<feGaussianBlur stdDeviation="9.36846"/>
<feComposite in2="hardAlpha" operator="out"/>
<feColorMatrix type="matrix" values="0 0 0 0 0.501961 0 0 0 0 0.435294 0 0 0 0 0.941176 0 0 0 0.54 0"/>
<feBlend mode="normal" in2="BackgroundImageFix" result="effect1_dropShadow_1214_57112"/>
<feBlend mode="normal" in="SourceGraphic" in2="effect1_dropShadow_1214_57112" result="shape"/>
</filter>
<linearGradient id="paint0_linear_1214_57112" x1="171.726" y1="93.4557" x2="245.054" y2="129.693" gradientUnits="userSpaceOnUse">
<stop stop-color="#AB66FF"/>
<stop offset="1" stop-color="#4C00A9"/>
</linearGradient>
<linearGradient id="paint1_linear_1214_57112" x1="191.914" y1="102.343" x2="219.661" y2="120.851" gradientUnits="userSpaceOnUse">
<stop stop-color="#AB66FF"/>
<stop offset="1" stop-color="#4C00A9"/>
</linearGradient>
</defs>
</svg>
