<svg width="342" height="164" viewBox="0 0 342 164" fill="none" xmlns="http://www.w3.org/2000/svg">
<g clip-path="url(#clip0_790_46674)">
<path d="M-18 139.764H156.582" stroke="#18181B" stroke-width="2"/>
<path d="M225.516 113.912H377.263" stroke="#18181B" stroke-width="2"/>
<path d="M-18 81.2568L113.502 81.2568" stroke="#18181B" stroke-width="2"/>
<path d="M228.498 81.2568L359 81.2568" stroke="#18181B" stroke-width="2"/>
<path d="M299.506 8.15918V80.9991" stroke="#18181B" stroke-width="2"/>
<path d="M267.697 36.3789V113.912" stroke="#18181B" stroke-width="2"/>
<path d="M203.762 35.7639L358.999 35.7637" stroke="#18181B" stroke-width="2"/>
<path d="M-16 45.7188H122" stroke="#18181B" stroke-width="2"/>
<path d="M120.984 13.5488V45.181" stroke="#18181B" stroke-width="2"/>
<line x1="23.2852" y1="0.235352" x2="23.2852" y2="155.636" stroke="#18181B" stroke-width="2"/>
<path d="M67.8086 77.999V151.962" stroke="#18181B" stroke-width="2"/>
<circle opacity="0.14" cx="67.8081" cy="80.6206" r="3.93506" fill="#00DC82"/>
<circle opacity="0.14" cx="23.6479" cy="139.763" r="3.93506" fill="#00DC82"/>
<circle opacity="0.14" cx="299.449" cy="35.144" r="3.93506" fill="#00DC82"/>
<circle opacity="0.14" cx="267.697" cy="81.2573" r="3.93506" fill="#00DC82"/>
<g filter="url(#filter0_d_790_46674)">
<path d="M139.948 61.8257L165.481 45.9814C167.76 44.6027 170.592 44.545 172.91 45.8301L200.286 60.7772C202.591 62.0545 204.04 64.466 204.094 67.1121L204.258 96.3491C204.312 98.9854 202.976 101.456 200.741 102.855L174.823 119.073C172.532 120.506 169.653 120.587 167.299 119.282L140.537 104.448C138.17 103.136 136.316 100.629 136.334 97.9097L136.334 68.1887C136.351 65.5856 137.721 63.1733 139.948 61.8257Z" fill="#18181B"/>
<path d="M200.082 61.1464C200.082 61.1466 200.082 61.1468 200.083 61.147C202.252 62.35 203.62 64.6351 203.672 67.1174C203.672 67.1185 203.672 67.1196 203.672 67.1207L203.836 96.3515L203.836 96.3577C203.839 96.5131 203.837 96.6679 203.831 96.8218C203.726 99.1313 202.493 101.261 200.517 102.497L174.599 118.715C172.449 120.061 169.721 120.142 167.504 118.913L140.742 104.079C138.474 102.822 136.74 100.426 136.756 97.9124L136.756 97.9097L136.756 68.1915C136.756 68.191 136.756 68.1906 136.756 68.1901C136.773 65.7342 138.066 63.4582 140.167 62.1868L140.167 62.1868L140.171 62.1843L165.7 46.3425C165.701 46.3421 165.701 46.3417 165.702 46.3413C165.703 46.3404 165.705 46.3396 165.706 46.3387C167.844 45.0481 170.524 44.9898 172.706 46.1993L172.708 46.2006L200.082 61.1464Z" stroke="#00DC82" stroke-width="0.844184"/>
</g>
<g filter="url(#filter1_d_790_46674)">
<path d="M212.481 99.8753C212.485 100.072 212.483 100.269 212.474 100.464C212.341 103.393 210.778 106.093 208.271 107.661L175.745 128.015C173.017 129.722 169.558 129.825 166.746 128.266L133.158 109.648C130.291 108.059 128.088 105.024 128.109 101.828H128.109V101.825L128.109 64.5276C128.109 64.5271 128.109 64.5267 128.109 64.5262C128.13 61.4115 129.769 58.525 132.434 56.9125L132.434 56.9125L132.438 56.9099L164.478 37.0277C164.479 37.0273 164.48 37.0268 164.48 37.0264C167.192 35.3862 170.594 35.3108 173.364 36.8462L173.366 36.8476L207.721 55.605C207.722 55.6052 207.722 55.6054 207.723 55.6056C210.475 57.1317 212.21 60.0306 212.275 63.1792C212.275 63.1803 212.275 63.1814 212.275 63.1824L212.481 99.8689L212.481 99.8753Z" stroke="#00DC82" stroke-opacity="0.5" stroke-width="0.873025" shape-rendering="crispEdges"/>
</g>
<g filter="url(#filter2_d_790_46674)">
<path d="M216.214 113.162C219.578 111.053 221.592 107.326 221.511 103.356M125.42 115.569C121.852 113.591 119.055 109.789 119.082 105.709M177.124 137.623C173.686 139.774 169.325 139.905 165.778 137.939M215.522 49.7141C218.995 51.6395 221.183 55.2963 221.264 59.2669M174.239 27.174C170.744 25.2368 166.455 25.3332 163.036 27.402M221.089 103.365C221.094 103.604 221.091 103.842 221.08 104.079C220.92 107.625 219.03 110.895 215.999 112.799C215.994 112.802 215.988 112.806 215.983 112.809L176.9 137.265C173.591 139.336 169.394 139.461 165.982 137.57L125.625 115.2C122.156 113.277 119.479 109.6 119.504 105.712H119.504V105.709L119.504 60.8933C119.504 60.8928 119.504 60.8924 119.505 60.8919C119.53 57.1137 121.519 53.6122 124.751 51.6562L124.751 51.6562L124.755 51.6537L163.255 27.7632C163.255 27.7628 163.256 27.7624 163.257 27.7619C163.261 27.7594 163.265 27.7569 163.269 27.7544C166.557 25.7717 170.678 25.6826 174.034 27.5432L174.037 27.5445L215.317 50.0832C215.317 50.0834 215.318 50.0836 215.318 50.0839C218.658 51.9354 220.763 55.4524 220.842 59.2723C220.842 59.2733 220.842 59.2744 220.842 59.2755L221.089 103.359L221.089 103.365Z" stroke="#00DC82" stroke-opacity="0.15" stroke-width="0.844184" shape-rendering="crispEdges"/>
</g>
<g filter="url(#filter3_d_790_46674)">
<path d="M222.934 117.651C226.796 115.234 229.108 110.958 229.015 106.404M118.843 120.406C114.752 118.138 111.546 113.779 111.576 109.102M178.123 145.692C174.181 148.158 169.181 148.309 165.114 146.054M222.148 44.901C226.13 47.1086 228.638 51.3012 228.731 55.8537M174.815 19.0581C170.808 16.837 165.89 16.9475 161.971 19.3195M228.593 106.412C228.682 110.813 226.451 114.946 222.723 117.285C222.718 117.288 222.714 117.291 222.709 117.294L177.899 145.334C174.086 147.72 169.25 147.864 165.319 145.685L119.048 120.037C115.056 117.824 111.969 113.59 111.998 109.104L111.998 109.102L111.999 57.718C111.999 57.7175 111.999 57.7171 111.999 57.7166C112.028 53.3632 114.319 49.3286 118.044 47.0748L118.044 47.0749L118.048 47.0724L162.189 19.6806C162.19 19.6802 162.191 19.6798 162.191 19.6794C162.196 19.6765 162.201 19.6735 162.206 19.6706C165.995 17.386 170.743 17.2832 174.611 19.4272L174.613 19.4285L221.943 45.2702C221.943 45.2704 221.944 45.2707 221.944 45.271C225.793 47.4047 228.218 51.4575 228.309 55.859C228.309 55.8601 228.309 55.8612 228.309 55.8623L228.593 106.406L228.593 106.412Z" stroke="#00DC82" stroke-opacity="0.1" stroke-width="0.844184" shape-rendering="crispEdges"/>
</g>
<g filter="url(#filter4_b_790_46674)">
<g filter="url(#filter5_d_790_46674)">
<path d="M181.37 77.7722C181.266 77.5312 181.095 77.3244 180.879 77.1752C180.663 77.026 180.409 76.9404 180.146 76.928H173.702L175.489 70.259C175.546 70.0503 175.554 69.8313 175.513 69.619C175.471 69.4067 175.381 69.2068 175.25 69.0349C175.119 68.8646 174.951 68.7266 174.758 68.6315C174.565 68.5364 174.353 68.4867 174.139 68.4862H164.29C163.972 68.4753 163.66 68.5723 163.405 68.7613C163.149 68.9504 162.965 69.2204 162.883 69.5273L159.112 83.5971C159.055 83.8058 159.047 84.0248 159.089 84.2371C159.13 84.4493 159.22 84.6492 159.351 84.8211C159.484 84.9933 159.654 85.1324 159.85 85.2276C160.045 85.3228 160.26 85.3715 160.477 85.3699H165.922L163.375 94.8529C163.292 95.1586 163.314 95.4836 163.438 95.7752C163.563 96.0668 163.782 96.3078 164.06 96.4592C164.339 96.6107 164.66 96.6636 164.973 96.6096C165.285 96.5555 165.57 96.3976 165.781 96.1613L181.117 79.2777C181.3 79.0777 181.421 78.8293 181.466 78.5623C181.511 78.2952 181.478 78.0209 181.37 77.7722V77.7722ZM167.596 89.9847L169.102 84.3568C169.158 84.1481 169.167 83.9291 169.125 83.7169C169.084 83.5046 168.994 83.3047 168.862 83.1328C168.731 82.9625 168.563 82.8245 168.37 82.7294C168.178 82.6343 167.966 82.5846 167.751 82.584H162.348L165.359 71.3001H172.295L170.509 77.9692C170.451 78.1817 170.444 78.4047 170.489 78.6203C170.534 78.8359 170.628 79.0381 170.765 79.2105C170.902 79.3829 171.077 79.5208 171.277 79.6131C171.477 79.7054 171.696 79.7496 171.916 79.742H176.938L167.596 89.9847Z" fill="#00DC82"/>
</g>
</g>
</g>
<defs>
<filter id="filter0_d_790_46674" x="119.45" y="28.0216" width="101.693" height="109.069" filterUnits="userSpaceOnUse" color-interpolation-filters="sRGB">
<feFlood flood-opacity="0" result="BackgroundImageFix"/>
<feColorMatrix in="SourceAlpha" type="matrix" values="0 0 0 0 0 0 0 0 0 0 0 0 0 0 0 0 0 0 127 0" result="hardAlpha"/>
<feOffset/>
<feGaussianBlur stdDeviation="8.44184"/>
<feComposite in2="hardAlpha" operator="out"/>
<feColorMatrix type="matrix" values="0 0 0 0 1 0 0 0 0 1 0 0 0 0 1 0 0 0 0.07 0"/>
<feBlend mode="normal" in2="BackgroundImageFix" result="effect1_dropShadow_790_46674"/>
<feBlend mode="normal" in="SourceGraphic" in2="effect1_dropShadow_790_46674" result="shape"/>
</filter>
<filter id="filter1_d_790_46674" x="110.211" y="17.8432" width="120.169" height="129.426" filterUnits="userSpaceOnUse" color-interpolation-filters="sRGB">
<feFlood flood-opacity="0" result="BackgroundImageFix"/>
<feColorMatrix in="SourceAlpha" type="matrix" values="0 0 0 0 0 0 0 0 0 0 0 0 0 0 0 0 0 0 127 0" result="hardAlpha"/>
<feOffset/>
<feGaussianBlur stdDeviation="8.73025"/>
<feComposite in2="hardAlpha" operator="out"/>
<feColorMatrix type="matrix" values="0 0 0 0 1 0 0 0 0 1 0 0 0 0 1 0 0 0 1 0"/>
<feBlend mode="normal" in2="BackgroundImageFix" result="effect1_dropShadow_790_46674"/>
<feBlend mode="normal" in="SourceGraphic" in2="effect1_dropShadow_790_46674" result="shape"/>
</filter>
<filter id="filter2_d_790_46674" x="102.198" y="8.89562" width="136.199" height="147.322" filterUnits="userSpaceOnUse" color-interpolation-filters="sRGB">
<feFlood flood-opacity="0" result="BackgroundImageFix"/>
<feColorMatrix in="SourceAlpha" type="matrix" values="0 0 0 0 0 0 0 0 0 0 0 0 0 0 0 0 0 0 127 0" result="hardAlpha"/>
<feOffset/>
<feGaussianBlur stdDeviation="8.44184"/>
<feComposite in2="hardAlpha" operator="out"/>
<feColorMatrix type="matrix" values="0 0 0 0 1 0 0 0 0 1 0 0 0 0 1 0 0 0 1 0"/>
<feBlend mode="normal" in2="BackgroundImageFix" result="effect1_dropShadow_790_46674"/>
<feBlend mode="normal" in="SourceGraphic" in2="effect1_dropShadow_790_46674" result="shape"/>
</filter>
<filter id="filter3_d_790_46674" x="94.6925" y="0.575304" width="151.209" height="163.962" filterUnits="userSpaceOnUse" color-interpolation-filters="sRGB">
<feFlood flood-opacity="0" result="BackgroundImageFix"/>
<feColorMatrix in="SourceAlpha" type="matrix" values="0 0 0 0 0 0 0 0 0 0 0 0 0 0 0 0 0 0 127 0" result="hardAlpha"/>
<feOffset/>
<feGaussianBlur stdDeviation="8.44184"/>
<feComposite in2="hardAlpha" operator="out"/>
<feColorMatrix type="matrix" values="0 0 0 0 1 0 0 0 0 1 0 0 0 0 1 0 0 0 1 0"/>
<feBlend mode="normal" in2="BackgroundImageFix" result="effect1_dropShadow_790_46674"/>
<feBlend mode="normal" in="SourceGraphic" in2="effect1_dropShadow_790_46674" result="shape"/>
</filter>
<filter id="filter4_b_790_46674" x="45.3579" y="-42.3824" width="249.878" height="249.878" filterUnits="userSpaceOnUse" color-interpolation-filters="sRGB">
<feFlood flood-opacity="0" result="BackgroundImageFix"/>
<feGaussianBlur in="BackgroundImageFix" stdDeviation="48.9627"/>
<feComposite in2="SourceAlpha" operator="in" result="effect1_backgroundBlur_790_46674"/>
<feBlend mode="normal" in="SourceGraphic" in2="effect1_backgroundBlur_790_46674" result="shape"/>
</filter>
<filter id="filter5_d_790_46674" x="126.984" y="36.4064" width="86.5799" height="92.3025" filterUnits="userSpaceOnUse" color-interpolation-filters="sRGB">
<feFlood flood-opacity="0" result="BackgroundImageFix"/>
<feColorMatrix in="SourceAlpha" type="matrix" values="0 0 0 0 0 0 0 0 0 0 0 0 0 0 0 0 0 0 127 0" result="hardAlpha"/>
<feOffset/>
<feGaussianBlur stdDeviation="16.0395"/>
<feComposite in2="hardAlpha" operator="out"/>
<feColorMatrix type="matrix" values="0 0 0 0 1 0 0 0 0 1 0 0 0 0 1 0 0 0 1 0"/>
<feBlend mode="normal" in2="BackgroundImageFix" result="effect1_dropShadow_790_46674"/>
<feBlend mode="normal" in="SourceGraphic" in2="effect1_dropShadow_790_46674" result="shape"/>
</filter>
<clipPath id="clip0_790_46674">
<rect width="341.333" height="164" fill="white"/>
</clipPath>
</defs>
</svg>
