<svg width="76" height="76" viewBox="0 0 76 76" fill="none" xmlns="http://www.w3.org/2000/svg">
<rect width="76" height="76" rx="4" fill="#3F3F46"/>
<path d="M23.3813 36.6378H19.2883C19.1827 36.6378 19.097 36.7236 19.097 36.8292V38.8303C19.097 38.9359 19.1827 39.0218 19.2883 39.0218H20.885V41.5081C20.885 41.5081 20.5264 41.6303 19.5352 41.6303C18.3658 41.6303 16.7322 41.203 16.7322 37.6108C16.7322 34.0178 18.4333 33.5451 20.0303 33.5451C21.4127 33.5451 22.0082 33.7885 22.3871 33.9058C22.5062 33.9423 22.6163 33.8237 22.6163 33.718L23.073 31.7845C23.073 31.7351 23.0562 31.6756 22.9998 31.6351C22.846 31.5254 21.9071 31 19.5352 31C16.8028 31 14 32.1625 14 37.7509C14 43.3395 17.209 44.1722 19.9131 44.1722C22.1521 44.1722 23.5104 43.2154 23.5104 43.2154C23.5664 43.1845 23.5725 43.1063 23.5725 43.0704V36.8292C23.5725 36.7236 23.4869 36.6378 23.3813 36.6378ZM44.4638 31.6995C44.4638 31.593 44.3794 31.5071 44.2738 31.5071H41.9692C41.8639 31.5071 41.7783 31.593 41.7783 31.6995C41.7783 31.7 41.7789 36.1533 41.7789 36.1533H38.1866V31.6995C38.1866 31.593 38.1018 31.5071 37.9965 31.5071H35.6919C35.5871 31.5071 35.5016 31.593 35.5016 31.6995V43.7589C35.5016 43.8653 35.5871 43.952 35.6919 43.952H37.9965C38.1018 43.952 38.1866 43.8653 38.1866 43.7589V38.6007H41.7789C41.7789 38.6007 41.7726 43.7585 41.7726 43.7589C41.7726 43.8653 41.8581 43.952 41.9635 43.952H44.2736C44.3792 43.952 44.4636 43.8653 44.4638 43.7589V31.6995ZM27.7228 33.3118C27.7228 32.482 27.0574 31.8114 26.2366 31.8114C25.4166 31.8114 24.7508 32.482 24.7508 33.3118C24.7508 34.1408 25.4166 34.8132 26.2366 34.8132C27.0574 34.8132 27.7228 34.1408 27.7228 33.3118ZM27.5399 41.2214V35.6547C27.5399 35.549 27.4546 35.4626 27.3492 35.4626H25.0519C24.9465 35.4626 24.8522 35.5713 24.8522 35.677V43.6524C24.8522 43.8867 24.9983 43.9564 25.1873 43.9564H27.2571C27.4842 43.9564 27.5399 43.845 27.5399 43.6486V41.2214ZM53.2719 35.4626H50.9849C50.8801 35.4626 50.7947 35.549 50.7947 35.6554V41.5685C50.7947 41.5685 50.2137 41.9936 49.389 41.9936C48.5645 41.9936 48.3456 41.6194 48.3456 40.812V35.6554C48.3456 35.549 48.2604 35.4626 48.1554 35.4626H45.8344C45.7296 35.4626 45.6438 35.549 45.6438 35.6554V41.2025C45.6438 43.6007 46.9805 44.1875 48.8193 44.1875C50.3277 44.1875 51.544 43.3541 51.544 43.3541C51.544 43.3541 51.6019 43.7932 51.628 43.8454C51.6543 43.8973 51.7226 43.9497 51.7963 43.9497L53.2729 43.9432C53.3777 43.9432 53.4635 43.8566 53.4635 43.7507L53.4628 35.6554C53.4628 35.549 53.3773 35.4626 53.2719 35.4626ZM58.5411 41.9982C57.7479 41.974 57.2098 41.6141 57.2098 41.6141V37.7951C57.2098 37.7951 57.7407 37.4697 58.3919 37.4115C59.2155 37.3378 60.009 37.5866 60.009 39.5511C60.009 41.6228 59.6509 42.0316 58.5411 41.9982ZM59.4432 35.2036C58.1442 35.2036 57.2607 35.7831 57.2607 35.7831V31.6995C57.2607 31.593 57.1757 31.5071 57.0706 31.5071H54.7595C54.6544 31.5071 54.569 31.593 54.569 31.6995V43.7589C54.569 43.8653 54.6544 43.952 54.7598 43.952H56.3633C56.4355 43.952 56.4901 43.9147 56.5305 43.8495C56.5704 43.7847 56.6279 43.2935 56.6279 43.2935C56.6279 43.2935 57.5729 44.1891 59.3619 44.1891C61.4622 44.1891 62.6667 43.1237 62.6667 39.4065C62.6667 35.6893 60.743 35.2036 59.4432 35.2036ZM34.1728 35.4419H32.4441C32.4441 35.4419 32.4414 33.1586 32.4414 33.1581C32.4414 33.0717 32.3969 33.0285 32.297 33.0285H29.9412C29.8496 33.0285 29.8004 33.0687 29.8004 33.1567V35.5169C29.8004 35.5169 28.6198 35.8018 28.54 35.8249C28.4605 35.8479 28.402 35.9212 28.402 36.0086V37.4917C28.402 37.5984 28.4872 37.6845 28.5926 37.6845H29.8004V41.2523C29.8004 43.9024 31.6593 44.1627 32.9137 44.1627C33.4868 44.1627 34.1724 43.9786 34.2856 43.9368C34.3541 43.9117 34.3938 43.8408 34.3938 43.7639L34.3958 42.1324C34.3958 42.026 34.3059 41.9399 34.2047 41.9399C34.104 41.9399 33.8463 41.9809 33.5809 41.9809C32.7318 41.9809 32.4441 41.5861 32.4441 41.075C32.4441 40.5643 32.444 37.6845 32.444 37.6845H34.1728C34.2782 37.6845 34.3635 37.5984 34.3635 37.4917V35.6341C34.3635 35.5277 34.2782 35.4419 34.1728 35.4419Z" fill="white"/>
</svg>
