<svg width="53" height="57" viewBox="0 0 53 57" fill="none" xmlns="http://www.w3.org/2000/svg">
<path d="M49.7123 42.8386C49.6265 42.9 49.5382 42.9587 49.4477 43.0148L29.6069 55.2908C28.1656 56.1826 26.3363 56.2355 24.8539 55.423L4.36621 44.1939C2.7867 43.3282 1.65752 41.7157 1.66804 40.1285L1.66807 40.1218L1.66814 17.6311C1.66815 17.63 1.66815 17.629 1.66816 17.6279C1.67999 16.0116 2.54125 14.508 3.94833 13.666L3.94836 13.6661L3.95782 13.6603L23.4995 1.66994C24.932 0.814935 26.729 0.777342 28.188 1.57701L28.188 1.57703L28.1936 1.58004L49.1455 12.8912C49.1464 12.8917 49.1473 12.8922 49.1482 12.8928C50.5949 13.6869 51.5049 15.1923 51.5411 16.8229L51.6668 38.9463L51.6668 38.9537L51.667 38.9612C51.6985 40.4929 50.9642 41.9426 49.7123 42.8386Z" fill="#18181B" stroke="url(#paint0_linear_1108_50569)" stroke-width="2"/>
<path d="M36 32C35.1169 31.9997 34.259 32.2945 33.5625 32.8375L30.675 30.5875C30.8915 30.0864 31.0022 29.5459 31 29C31.0021 28.9082 30.9979 28.8163 30.9875 28.725L32.65 28.175C33.1743 28.977 33.9699 29.5634 34.8912 29.8268C35.8125 30.0902 36.7978 30.0131 37.6669 29.6096C38.5359 29.206 39.2306 28.503 39.6238 27.6292C40.017 26.7554 40.0824 25.7693 39.808 24.8512C39.5337 23.9331 38.9379 23.1445 38.1297 22.6298C37.3216 22.115 36.355 21.9085 35.4071 22.0479C34.4591 22.1874 33.593 22.6636 32.9674 23.3893C32.3417 24.1151 31.9983 25.0418 32 26C31.9979 26.0918 32.0021 26.1837 32.0125 26.275L30.35 26.825C29.9886 26.2651 29.4926 25.8047 28.9074 25.4859C28.3222 25.1671 27.6664 25 27 25C26.7784 25.0037 26.5572 25.0204 26.3375 25.05L25.4875 23.125C25.9603 22.7531 26.3422 22.2784 26.6042 21.737C26.8663 21.1955 27.0016 20.6015 27 20C27 19.2089 26.7654 18.4355 26.3259 17.7777C25.8864 17.1199 25.2616 16.6072 24.5307 16.3045C23.7998 16.0017 22.9956 15.9225 22.2196 16.0769C21.4437 16.2312 20.731 16.6122 20.1716 17.1716C19.6122 17.731 19.2312 18.4437 19.0769 19.2196C18.9225 19.9956 19.0017 20.7998 19.3045 21.5307C19.6072 22.2616 20.1199 22.8864 20.7777 23.3259C21.4355 23.7654 22.2089 24 23 24C23.2216 23.9963 23.4428 23.9796 23.6625 23.95L24.5125 25.875C24.0397 26.2469 23.6578 26.7216 23.3958 27.263C23.1337 27.8045 22.9984 28.3985 23 29C23.0009 29.6342 23.1508 30.2593 23.4375 30.825L20.225 33.675C19.4839 33.1789 18.5982 32.9447 17.7087 33.0097C16.8192 33.0746 15.977 33.435 15.3158 34.0335C14.6545 34.6319 14.2123 35.4342 14.0593 36.3129C13.9063 37.1915 14.0513 38.096 14.4713 38.8828C14.8913 39.6696 15.5622 40.2934 16.3774 40.6552C17.1926 41.0169 18.1052 41.0959 18.9704 40.8796C19.8357 40.6632 20.6037 40.1639 21.1526 39.461C21.7015 38.758 21.9998 37.8918 22 37C21.9991 36.3658 21.8492 35.7407 21.5625 35.175L24.775 32.325C25.4708 32.7909 26.2956 33.026 27.1325 32.9968C27.9694 32.9676 28.7758 32.6757 29.4375 32.1625L32.325 34.4125C32.1085 34.9136 31.9978 35.4541 32 36C32 36.7911 32.2346 37.5645 32.6741 38.2223C33.1137 38.8801 33.7384 39.3928 34.4693 39.6955C35.2002 39.9983 36.0044 40.0775 36.7804 39.9231C37.5563 39.7688 38.269 39.3878 38.8284 38.8284C39.3878 38.269 39.7688 37.5563 39.9231 36.7804C40.0775 36.0044 39.9983 35.2002 39.6955 34.4693C39.3928 33.7384 38.8801 33.1136 38.2223 32.6741C37.5645 32.2346 36.7911 32 36 32ZM36 24C36.3956 24 36.7822 24.1173 37.1111 24.3371C37.44 24.5568 37.6964 24.8692 37.8478 25.2346C37.9991 25.6001 38.0387 26.0022 37.9616 26.3902C37.8844 26.7781 37.6939 27.1345 37.4142 27.4142C37.1345 27.6939 36.7781 27.8844 36.3902 27.9616C36.0022 28.0387 35.6001 27.9991 35.2346 27.8478C34.8692 27.6964 34.5568 27.44 34.3371 27.1111C34.1173 26.7822 34 26.3956 34 26C34 25.4696 34.2107 24.9609 34.5858 24.5858C34.9609 24.2107 35.4696 24 36 24V24ZM21 20C21 19.6044 21.1173 19.2178 21.3371 18.8889C21.5568 18.56 21.8692 18.3036 22.2346 18.1522C22.6001 18.0009 23.0022 17.9613 23.3902 18.0384C23.7781 18.1156 24.1345 18.3061 24.4142 18.5858C24.6939 18.8655 24.8844 19.2219 24.9616 19.6098C25.0387 19.9978 24.9991 20.3999 24.8478 20.7654C24.6964 21.1308 24.44 21.4432 24.1111 21.6629C23.7822 21.8827 23.3956 22 23 22C22.4696 22 21.9609 21.7893 21.5858 21.4142C21.2107 21.0391 21 20.5304 21 20ZM18 39C17.6044 39 17.2178 38.8827 16.8889 38.6629C16.56 38.4432 16.3036 38.1308 16.1522 37.7654C16.0009 37.3999 15.9613 36.9978 16.0384 36.6098C16.1156 36.2219 16.3061 35.8655 16.5858 35.5858C16.8655 35.3061 17.2219 35.1156 17.6098 35.0384C17.9978 34.9613 18.3999 35.0009 18.7654 35.1522C19.1308 35.3036 19.4432 35.56 19.6629 35.8889C19.8827 36.2178 20 36.6044 20 37C20 37.5304 19.7893 38.0391 19.4142 38.4142C19.0391 38.7893 18.5304 39 18 39ZM25 29C25 28.6044 25.1173 28.2178 25.3371 27.8889C25.5568 27.56 25.8692 27.3036 26.2346 27.1522C26.6001 27.0009 27.0022 26.9613 27.3902 27.0384C27.7781 27.1156 28.1345 27.3061 28.4142 27.5858C28.6939 27.8655 28.8844 28.2219 28.9616 28.6098C29.0387 28.9978 28.9991 29.3999 28.8478 29.7654C28.6964 30.1308 28.44 30.4432 28.1111 30.6629C27.7822 30.8827 27.3956 31 27 31C26.4696 31 25.9609 30.7893 25.5858 30.4142C25.2107 30.0391 25 29.5304 25 29V29ZM36 38C35.6044 38 35.2178 37.8827 34.8889 37.6629C34.56 37.4432 34.3036 37.1308 34.1522 36.7654C34.0009 36.3999 33.9613 35.9978 34.0384 35.6098C34.1156 35.2219 34.3061 34.8655 34.5858 34.5858C34.8655 34.3061 35.2219 34.1156 35.6098 34.0384C35.9978 33.9613 36.3999 34.0009 36.7654 34.1522C37.1308 34.3036 37.4432 34.56 37.6629 34.8889C37.8827 35.2178 38 35.6044 38 36C38 36.5304 37.7893 37.0391 37.4142 37.4142C37.0391 37.7893 36.5304 38 36 38Z" fill="url(#paint1_linear_1108_50569)"/>
<defs>
<linearGradient id="paint0_linear_1108_50569" x1="1.17783" y1="17.4816" x2="52.236" y2="43.3003" gradientUnits="userSpaceOnUse">
<stop stop-color="white"/>
<stop offset="1" stop-color="#71717A"/>
</linearGradient>
<linearGradient id="paint1_linear_1108_50569" x1="13.9275" y1="21.3424" x2="39.5378" y2="35.6708" gradientUnits="userSpaceOnUse">
<stop stop-color="white"/>
<stop offset="1" stop-color="#71717A"/>
</linearGradient>
</defs>
</svg>
