<svg width="53" height="57" viewBox="0 0 53 57" fill="none" xmlns="http://www.w3.org/2000/svg">
<path d="M3.61239 13.666L3.61242 13.6661L3.62189 13.6603L23.1636 1.66994C24.6038 0.810257 26.3916 0.776518 27.8521 1.57701L27.8521 1.57703L27.8576 1.58004L48.8095 12.8912C48.8105 12.8917 48.8114 12.8922 48.8123 12.8928C50.2604 13.6877 51.1688 15.1834 51.2052 16.8229L51.3309 38.9463L51.3309 38.9537L51.3311 38.9612C51.3648 40.5994 50.5252 42.1402 49.1117 43.0148L29.271 55.2908C27.8216 56.1876 26.0019 56.2363 24.5179 55.423L4.03027 44.1939C2.44904 43.3272 1.32152 41.7251 1.33213 40.1285V40.1218L1.3322 17.6311C1.33221 17.63 1.33222 17.629 1.33222 17.6279C1.34405 16.0116 2.20531 14.508 3.61239 13.666Z" fill="#18181B" stroke="url(#paint0_linear_1108_50662)" stroke-width="2"/>
<path d="M38.8378 20.6799C38.7923 20.5096 38.7135 20.3501 38.6059 20.2105C38.4984 20.0709 38.3642 19.954 38.2112 19.8666L31.2778 15.8666C31.1265 15.7778 30.9591 15.7199 30.7852 15.696C30.6114 15.6721 30.4346 15.6828 30.2649 15.7274C30.0952 15.772 29.9359 15.8496 29.7963 15.9559C29.6567 16.0621 29.5394 16.1949 29.4512 16.3466L26.3312 21.7599L23.2112 16.3466C23.123 16.1949 23.0057 16.0621 22.866 15.9559C22.7264 15.8496 22.5672 15.772 22.3975 15.7274C22.2278 15.6828 22.051 15.6721 21.8771 15.696C21.7033 15.7199 21.5359 15.7778 21.3845 15.8666L14.4512 19.8666C14.2982 19.954 14.164 20.0709 14.0564 20.2105C13.9489 20.3501 13.87 20.5096 13.8245 20.6799C13.7363 21.0178 13.7841 21.3769 13.9578 21.6799L19.2912 30.7866C18.6962 31.8766 18.3672 33.0919 18.3312 34.3332C18.328 35.5443 18.5998 36.7402 19.1261 37.8309C19.6525 38.9216 20.4195 39.8786 21.3695 40.6297C22.3195 41.3808 23.4276 41.9064 24.6103 42.1669C25.793 42.4274 27.0195 42.416 28.1971 42.1335C29.3747 41.8511 30.4729 41.3049 31.4087 40.5363C32.3446 39.7676 33.0937 38.7965 33.5996 37.6962C34.1056 36.5959 34.3551 35.3951 34.3293 34.1843C34.3036 32.9735 34.0034 31.7844 33.4512 30.7066L38.6512 21.6932C38.748 21.5451 38.8143 21.3793 38.8464 21.2053C38.8784 21.0313 38.8755 20.8527 38.8378 20.6799ZM16.9978 21.5066L21.6112 18.8399L25.9045 26.3332C24.0744 26.4463 22.3402 27.1909 20.9978 28.4399L16.9978 21.5066ZM26.3312 39.6666C24.9167 39.6666 23.5601 39.1047 22.5599 38.1045C21.5597 37.1043 20.9978 35.7477 20.9978 34.3332C20.9978 32.9187 21.5597 31.5622 22.5599 30.562C23.5601 29.5618 24.9167 28.9999 26.3312 28.9999C27.7457 28.9999 29.1022 29.5618 30.1024 30.562C31.1026 31.5622 31.6645 32.9187 31.6645 34.3332C31.6645 35.7477 31.1026 37.1043 30.1024 38.1045C29.1022 39.1047 27.7457 39.6666 26.3312 39.6666ZM31.6645 28.3999C30.9406 27.7387 30.0995 27.2187 29.1845 26.8666L27.8778 24.4266L31.1045 18.8399L35.7178 21.5066L31.6645 28.3999Z" fill="url(#paint1_linear_1108_50662)"/>
<defs>
<linearGradient id="paint0_linear_1108_50662" x1="0.841894" y1="17.4816" x2="51.9001" y2="43.3003" gradientUnits="userSpaceOnUse">
<stop stop-color="white"/>
<stop offset="1" stop-color="#71717A"/>
</linearGradient>
<linearGradient id="paint1_linear_1108_50662" x1="13.7113" y1="21.3832" x2="39.5434" y2="34.4543" gradientUnits="userSpaceOnUse">
<stop stop-color="white"/>
<stop offset="1" stop-color="#71717A"/>
</linearGradient>
</defs>
</svg>
