<svg width="52" height="58" viewBox="0 0 52 58" fill="none" xmlns="http://www.w3.org/2000/svg">
<g clip-path="url(#clip0_1185_59225)">
<g filter="url(#filter0_d_1185_59225)">
<path d="M3.28695 13.8868L3.28698 13.8868L3.29647 13.8809L22.8381 1.6802C24.2755 0.80723 26.0568 0.773251 27.5136 1.58573L27.5136 1.58574L27.5192 1.58883L48.4711 13.0985C48.4719 13.0989 48.4728 13.0994 48.4736 13.0999C49.9203 13.9079 50.8366 15.4345 50.8732 17.1176L50.9988 39.6293L50.9989 39.6367L50.999 39.644C51.0331 41.3256 50.1858 42.899 48.7731 43.7885L28.9323 56.2799C27.4857 57.1907 25.6725 57.2398 24.1923 56.4143L3.70468 44.9882C2.12693 44.1082 0.989375 42.4741 1.0001 40.8323V40.8257L1.00017 17.9402C1.00018 17.9392 1.00018 17.9381 1.00019 17.9371C1.01208 16.278 1.88082 14.7429 3.28695 13.8868Z" stroke="url(#paint0_linear_1185_59225)" stroke-width="2" shape-rendering="crispEdges"/>
</g>
<path d="M41.4115 26.4L38.3365 20.5125C38.0937 20.049 37.679 19.6991 37.1812 19.5379C36.6835 19.3767 36.1424 19.4169 35.674 19.65L32.7615 21.1125H30.7115L26.5865 19.2375C26.1529 19.0484 25.6678 19.0131 25.2115 19.1375L19.124 20.9125L16.324 19.5125C15.8535 19.2836 15.3124 19.247 14.8154 19.4103C14.3184 19.5737 13.9045 19.9241 13.6615 20.3875L10.5865 26.275C10.4628 26.5093 10.387 26.766 10.3634 27.0299C10.3398 27.2938 10.3689 27.5598 10.449 27.8125C10.6184 28.3223 10.9823 28.7446 11.4615 28.9875L14.4615 30.4875L21.2115 35.7625C21.4316 35.9373 21.6877 36.0611 21.9615 36.125L29.2115 37.9375C29.3667 37.9775 29.5262 37.9985 29.6865 38C30.2196 37.9956 30.7303 37.7851 31.1115 37.4125L35.7115 32.8125H35.724C35.724 32.8 35.7365 32.8 35.7365 32.7875H35.7615L37.624 30.575L40.5365 29.1125C40.7746 28.9965 40.9869 28.8338 41.1608 28.6341C41.3348 28.4344 41.4668 28.2017 41.549 27.95C41.6294 27.6953 41.6587 27.4272 41.6351 27.1612C41.6115 26.8952 41.5355 26.6365 41.4115 26.4V26.4ZM34.8365 30.75L30.0865 27.3C29.9132 27.1749 29.7044 27.1086 29.4907 27.1108C29.277 27.1131 29.0696 27.1837 28.899 27.3125L27.299 28.5125C26.7773 28.8962 26.1466 29.1032 25.499 29.1032C24.8513 29.1032 24.2207 28.8962 23.699 28.5125L23.024 28L27.9115 23.1125H32.399L35.799 29.6375L34.8365 30.75ZM15.4365 21.3125L17.6365 22.4125L14.5615 28.3L12.3615 27.2L15.4365 21.3125ZM29.6865 36L22.449 34.1875L16.274 29.3625L19.674 22.8375L25.7615 21.0625L26.724 21.5L26.499 21.6875L21.6115 26.5875C21.4071 26.7889 21.2488 27.0322 21.1475 27.3007C21.0461 27.5691 21.0041 27.8564 21.0243 28.1426C21.0445 28.4289 21.1264 28.7073 21.2644 28.9589C21.4025 29.2105 21.5934 29.4292 21.824 29.6L22.499 30.1125C23.3661 30.7577 24.4181 31.1062 25.499 31.1062C26.5798 31.1062 27.6319 30.7577 28.499 30.1125L29.5115 29.35L33.4615 32.225L29.6865 36ZM39.6365 27.325L37.4365 28.4375L34.3615 22.55L36.5615 21.4375L39.6365 27.325ZM24.974 39.85C24.9187 40.067 24.793 40.2596 24.6166 40.3975C24.4401 40.5355 24.2229 40.6111 23.999 40.6125C23.9184 40.6122 23.8383 40.5995 23.7615 40.575L19.9865 39.6375C19.6803 39.5601 19.3973 39.41 19.1615 39.2L16.349 36.75C16.2505 36.6646 16.1698 36.5607 16.1114 36.4441C16.0531 36.3276 16.0183 36.2007 16.009 36.0707C15.9997 35.9407 16.0162 35.8101 16.0573 35.6864C16.0985 35.5628 16.1636 35.4484 16.249 35.35C16.3343 35.2515 16.4383 35.1707 16.5548 35.1124C16.6714 35.0541 16.7983 35.0193 16.9283 35.01C17.0583 35.0007 17.1888 35.0171 17.3125 35.0583C17.4361 35.0995 17.5505 35.1646 17.649 35.25L20.474 37.7L24.2365 38.6375C24.4938 38.7025 24.7153 38.8661 24.8532 39.0929C24.9911 39.3196 25.0345 39.5915 24.974 39.85V39.85Z" fill="url(#paint1_linear_1185_59225)"/>
</g>
<defs>
<filter id="filter0_d_1185_59225" x="-31" y="-31" width="114" height="120" filterUnits="userSpaceOnUse" color-interpolation-filters="sRGB">
<feFlood flood-opacity="0" result="BackgroundImageFix"/>
<feColorMatrix in="SourceAlpha" type="matrix" values="0 0 0 0 0 0 0 0 0 0 0 0 0 0 0 0 0 0 127 0" result="hardAlpha"/>
<feOffset/>
<feGaussianBlur stdDeviation="15.5"/>
<feComposite in2="hardAlpha" operator="out"/>
<feColorMatrix type="matrix" values="0 0 0 0 1 0 0 0 0 1 0 0 0 0 1 0 0 0 0.07 0"/>
<feBlend mode="normal" in2="BackgroundImageFix" result="effect1_dropShadow_1185_59225"/>
<feBlend mode="normal" in="SourceGraphic" in2="effect1_dropShadow_1185_59225" result="shape"/>
</filter>
<linearGradient id="paint0_linear_1185_59225" x1="0.509863" y1="17.7883" x2="51.926" y2="43.3398" gradientUnits="userSpaceOnUse">
<stop stop-color="#E4E4E7"/>
<stop offset="1" stop-color="#71717A"/>
</linearGradient>
<linearGradient id="paint1_linear_1185_59225" x1="10.2683" y1="23.6693" x2="35.4004" y2="43.2997" gradientUnits="userSpaceOnUse">
<stop stop-color="#E4E4E7"/>
<stop offset="1" stop-color="#71717A"/>
</linearGradient>
<clipPath id="clip0_1185_59225">
<rect width="52" height="58" fill="white"/>
</clipPath>
</defs>
</svg>
