<svg width="557" height="323" viewBox="0 0 557 323" fill="none" xmlns="http://www.w3.org/2000/svg">
<rect width="519" height="272" rx="12" fill="#18181B"/>
<g filter="url(#filter0_b_2121_2443)">
<path d="M468.518 242.449L503.377 220.816C506.504 218.932 510.394 218.859 513.581 220.626L551.216 241.15C554.381 242.904 556.377 246.209 556.46 249.832C556.46 249.835 556.46 249.839 556.46 249.842L556.752 289.944C556.752 289.948 556.752 289.951 556.752 289.955C556.828 293.562 554.997 296.945 551.935 298.854L516.373 321.026C516.372 321.027 516.371 321.027 516.37 321.028C513.226 322.986 509.273 323.089 506.039 321.296L469.247 300.902C465.993 299.098 463.982 295.661 464 291.934L463.569 251.163C463.586 247.595 465.463 244.291 468.518 242.449Z" fill="white" fill-opacity="0.1"/>
</g>
<defs>
<filter id="filter0_b_2121_2443" x="447.568" y="203.352" width="125.187" height="135.219" filterUnits="userSpaceOnUse" color-interpolation-filters="sRGB">
<feFlood flood-opacity="0" result="BackgroundImageFix"/>
<feGaussianBlur in="BackgroundImage" stdDeviation="8"/>
<feComposite in2="SourceAlpha" operator="in" result="effect1_backgroundBlur_2121_2443"/>
<feBlend mode="normal" in="SourceGraphic" in2="effect1_backgroundBlur_2121_2443" result="shape"/>
</filter>
</defs>
</svg>
