<svg width="629" height="883" viewBox="0 0 629 883" fill="none" xmlns="http://www.w3.org/2000/svg">
<g opacity="0.3" filter="url(#filter0_f_2121_2443)">
<ellipse rx="337.971" ry="409.534" transform="matrix(-0.258819 0.965926 0.965926 0.258819 97.6542 441.575)" fill="url(#paint0_linear_2121_2443)"/>
</g>
<rect width="213.115" height="133.197" rx="10.4931" transform="matrix(0.865864 -0.50028 0.865864 0.50028 -74 580.617)" fill="#87EFE9"/>
<path d="M92.0792 560.554L75.2476 544.345M86.4687 544.345H97.6898V550.829M80.8582 560.554H69.6371V554.07" stroke="#16A79E" stroke-width="3.23985" stroke-linecap="round" stroke-linejoin="round"/>
<rect width="213.115" height="133.197" rx="10.4931" transform="matrix(0.865864 0.50028 -0.865864 0.50028 276.33 374)" fill="#8DD6FF"/>
<g clip-path="url(#clip0_2121_2443)">
<path d="M315.22 463.911L296.286 452.972C295.928 452.764 295.726 452.483 295.726 452.19C295.726 451.897 295.928 451.616 296.286 451.409C296.645 451.202 297.131 451.085 297.639 451.085C298.146 451.085 298.632 451.202 298.991 451.409L313.11 459.567C314.015 460.089 315.195 460.422 316.464 460.513C317.733 460.603 319.019 460.446 320.116 460.067L331.125 456.285C331.375 456.199 331.588 456.081 331.747 455.94C331.906 455.799 332.008 455.639 332.044 455.472C332.079 455.3 332.044 455.125 331.94 454.962C331.837 454.799 331.669 454.653 331.449 454.534L312.191 443.407C312.701 442.79 312.868 442.097 312.67 441.423C312.471 440.748 311.916 440.126 311.082 439.641L309.81 438.906C309.452 438.699 308.965 438.583 308.458 438.583C307.951 438.583 307.464 438.699 307.106 438.906C306.747 439.114 306.545 439.395 306.545 439.688C306.545 439.981 306.747 440.262 307.106 440.469L308.377 441.204C308.695 441.377 308.9 441.608 308.959 441.858C309.019 442.108 308.927 442.363 308.701 442.579L308.133 443.001L301.331 449.635C300.206 449.041 298.72 448.73 297.198 448.77C295.676 448.809 294.244 449.196 293.216 449.846C292.189 450.496 291.65 451.355 291.718 452.234C291.787 453.113 292.457 453.941 293.581 454.534L293.825 454.675C292.99 454.901 292.261 455.239 291.7 455.662C291.139 456.085 290.763 456.58 290.603 457.104C290.444 457.629 290.505 458.168 290.783 458.676C291.06 459.184 291.545 459.646 292.197 460.023C292.849 460.399 293.649 460.68 294.528 460.84C295.407 461 296.34 461.036 297.248 460.944C298.156 460.851 299.012 460.634 299.744 460.31C300.476 459.986 301.062 459.565 301.452 459.082L304.644 460.926C303.809 461.152 303.08 461.49 302.519 461.913C301.959 462.336 301.582 462.831 301.423 463.355C301.263 463.88 301.324 464.419 301.602 464.927C301.879 465.435 302.365 465.897 303.017 466.274C303.668 466.65 304.468 466.931 305.347 467.091C306.226 467.251 307.16 467.287 308.068 467.195C308.976 467.102 309.832 466.885 310.564 466.561C311.295 466.237 311.881 465.816 312.272 465.333L312.515 465.474C312.874 465.681 313.36 465.798 313.868 465.798C314.375 465.798 314.861 465.681 315.22 465.474C315.579 465.267 315.78 464.986 315.78 464.693C315.78 464.4 315.579 464.118 315.22 463.911ZM327.013 455.097L318.155 458.168C317.781 458.299 317.34 458.351 316.907 458.317C316.474 458.283 316.075 458.164 315.775 457.98L304.103 451.237L310.189 445.376L327.013 455.097ZM294.934 458.441C294.666 458.287 294.484 458.09 294.41 457.876C294.337 457.661 294.374 457.439 294.519 457.237C294.664 457.035 294.909 456.863 295.224 456.741C295.538 456.62 295.908 456.555 296.286 456.555C296.665 456.555 297.034 456.62 297.349 456.741C297.663 456.863 297.909 457.035 298.053 457.237C298.198 457.439 298.236 457.661 298.162 457.876C298.088 458.09 297.906 458.287 297.639 458.441C297.28 458.649 296.794 458.765 296.286 458.765C295.779 458.765 295.293 458.649 294.934 458.441ZM305.753 464.693C305.486 464.538 305.304 464.341 305.23 464.127C305.156 463.912 305.194 463.69 305.339 463.488C305.483 463.286 305.728 463.114 306.043 462.992C306.358 462.871 306.727 462.806 307.106 462.806C307.484 462.806 307.854 462.871 308.168 462.992C308.483 463.114 308.728 463.286 308.873 463.488C309.017 463.69 309.055 463.912 308.981 464.127C308.908 464.341 308.725 464.538 308.458 464.693C308.099 464.9 307.613 465.016 307.106 465.016C306.598 465.016 306.112 464.9 305.753 464.693Z" fill="#006CA9"/>
</g>
<rect width="213.115" height="133.197" rx="10.4931" transform="matrix(0.865864 -0.50028 0.865864 0.50028 96 296.617)" fill="#ACFFDD"/>
<g clip-path="url(#clip1_2121_2443)">
<path d="M249.751 259.132C248.82 259.512 247.945 259.936 247.135 260.4C244.382 261.988 242.477 264 241.648 266.196C237.86 266.69 234.398 267.802 231.671 269.399C230.868 269.867 230.134 270.372 229.476 270.91C229.261 271.087 229.161 271.302 229.196 271.517C229.231 271.732 229.397 271.932 229.665 272.083L242.967 279.768C243.128 279.864 243.323 279.938 243.538 279.985C243.754 280.032 243.984 280.051 244.214 280.04C244.444 280.03 244.667 279.99 244.867 279.925C245.067 279.859 245.24 279.768 245.373 279.66C246.686 278.583 248.359 277.669 250.294 276.971C252.228 276.274 254.384 275.807 256.635 275.599L256.846 275.567L256.968 275.496C257.142 275.455 257.3 275.394 257.433 275.317C257.567 275.24 257.672 275.149 257.744 275.048L257.866 274.978L257.921 274.856C258.252 273.548 259.033 272.292 260.22 271.162C261.406 270.032 262.973 269.052 264.827 268.278C265.016 268.201 265.172 268.102 265.286 267.986C265.4 267.87 265.468 267.741 265.486 267.609C265.504 267.476 265.472 267.343 265.39 267.218C265.309 267.094 265.181 266.981 265.016 266.888L251.713 259.202C251.449 259.063 251.111 258.98 250.754 258.967C250.397 258.955 250.043 259.013 249.751 259.132ZM253.21 274.158C250.08 274.719 247.234 275.713 244.918 277.053C244.552 277.264 244.186 277.476 243.81 277.693L232.724 271.288C233.072 271.063 233.442 270.849 233.833 270.648C236.195 269.28 239.202 268.344 242.479 267.958L253.21 274.158ZM261.59 267.471C261.213 267.689 260.848 267.9 260.482 268.112C258.163 269.45 256.443 271.094 255.471 272.902L244.696 266.677C245.365 264.784 246.985 263.046 249.352 261.681C249.7 261.455 250.07 261.242 250.461 261.041L261.59 267.471ZM267.488 269.38C266.556 269.76 265.681 270.184 264.872 270.648C262.118 272.236 260.214 274.248 259.384 276.444C255.583 276.923 252.101 278.024 249.352 279.615C248.549 280.083 247.815 280.588 247.157 281.126C247.036 281.223 246.949 281.332 246.901 281.449C246.853 281.565 246.845 281.685 246.878 281.803C246.911 281.921 246.984 282.034 247.093 282.135C247.202 282.237 247.344 282.325 247.512 282.394C247.856 282.528 248.278 282.578 248.685 282.532C249.093 282.486 249.452 282.349 249.685 282.151C250.998 281.074 252.671 280.16 254.606 279.463C256.54 278.766 258.696 278.299 260.947 278.09C261.269 278.059 261.565 277.971 261.796 277.838C262.026 277.704 262.179 277.533 262.233 277.347C262.594 276.047 263.402 274.801 264.609 273.683C265.816 272.566 267.398 271.599 269.261 270.84C269.605 270.706 269.842 270.498 269.921 270.263C270 270.027 269.914 269.784 269.683 269.585C269.562 269.488 269.41 269.405 269.234 269.343C269.058 269.28 268.863 269.238 268.659 269.218C268.455 269.199 268.247 269.204 268.046 269.232C267.845 269.259 267.655 269.31 267.488 269.38Z" fill="#007E4A"/>
</g>
<rect width="213.115" height="133.197" rx="10.4931" transform="matrix(0.865864 0.50028 -0.865864 0.50028 -14.6699 288)" fill="#00DC82"/>
<g clip-path="url(#clip2_2121_2443)">
<path d="M28.8812 364.744C27.5534 363.977 25.977 363.369 24.2422 362.953C22.5073 362.538 20.6478 362.325 18.77 362.325C14.9776 362.325 11.3405 363.195 8.65883 364.744L1.58099 368.834C1.31282 368.989 1.16217 369.199 1.16217 369.418C1.16217 369.637 1.31282 369.847 1.58099 370.002L4.61435 371.755C5.41884 372.22 6.50998 372.481 7.64771 372.481C8.78544 372.481 9.87657 372.22 10.6811 371.755L12.7033 370.586C13.5078 370.122 13.9598 369.491 13.9598 368.834C13.9598 368.176 13.5078 367.546 12.7033 367.081L10.6811 365.913C12.8264 364.673 15.7361 363.977 18.77 363.977C21.804 363.977 24.7137 364.673 26.859 365.913C29.0043 367.152 30.2095 368.833 30.2095 370.586C30.2095 372.339 29.0043 374.021 26.859 375.26L24.8367 374.092C24.0322 373.627 22.9411 373.366 21.8034 373.366C20.6656 373.366 19.5745 373.627 18.77 374.092L16.7478 375.26C15.9433 375.725 15.4913 376.355 15.4913 377.013C15.4913 377.67 15.9433 378.301 16.7478 378.765L19.7811 380.518C20.0493 380.673 20.413 380.76 20.7923 380.76C21.1715 380.76 21.5352 380.673 21.8034 380.518L28.8812 376.429C31.5629 374.879 33.0694 372.778 33.0694 370.586C33.0694 368.395 31.5629 366.294 28.8812 364.744ZM10.6811 368.25C10.9492 368.405 11.0999 368.615 11.0999 368.834C11.0999 369.053 10.9492 369.263 10.6811 369.418L8.65882 370.586C8.39066 370.741 8.02695 370.828 7.64771 370.828C7.26846 370.828 6.90475 370.741 6.63659 370.586L4.61435 369.418L8.65883 367.081L10.6811 368.25ZM20.7923 378.765L18.77 377.597C18.5019 377.442 18.3512 377.232 18.3512 377.013C18.3512 376.794 18.5019 376.583 18.77 376.429L20.7923 375.26C21.0604 375.105 21.4241 375.018 21.8034 375.018C22.1826 375.018 22.5463 375.105 22.8145 375.26L24.8367 376.429L20.7923 378.765Z" fill="#005E38"/>
</g>
<rect width="213.115" height="133.197" rx="10.4931" transform="matrix(0.865864 -0.500279 0.865864 0.500279 329 345.617)" fill="#B3CBFF"/>
<g clip-path="url(#clip3_2121_2443)">
<path d="M477.121 305.968C476.971 306.055 476.852 306.158 476.77 306.271C476.689 306.384 476.647 306.506 476.647 306.628C476.647 306.751 476.689 306.872 476.77 306.985C476.852 307.099 476.971 307.202 477.121 307.288L477.848 307.708C478.079 308.955 477.826 310.216 477.108 311.399C476.389 312.582 475.223 313.658 473.694 314.548L466.841 318.507C465.933 319.033 465.424 319.745 465.424 320.487C465.424 321.23 465.933 321.942 466.841 322.467L469.125 323.787C470.035 324.311 471.267 324.606 472.552 324.606C473.837 324.606 475.069 324.311 475.979 323.787L476.531 323.468L480.191 328.753C480.29 328.897 480.449 329.024 480.654 329.123C480.859 329.222 481.103 329.29 481.365 329.321C481.627 329.352 481.898 329.345 482.154 329.301C482.41 329.256 482.643 329.176 482.832 329.067L487.401 326.427C487.625 326.298 487.778 326.133 487.841 325.954C487.905 325.776 487.876 325.59 487.758 325.42L483.609 319.428C485.118 318.676 486.878 318.11 488.78 317.766C490.683 317.422 492.687 317.306 494.669 317.427L495.396 317.847C495.699 318.022 496.11 318.121 496.539 318.121C496.967 318.121 497.378 318.022 497.681 317.847C497.984 317.672 498.154 317.435 498.154 317.188C498.154 316.94 497.984 316.703 497.681 316.528L479.405 305.968C479.255 305.882 479.077 305.813 478.881 305.766C478.685 305.719 478.475 305.695 478.263 305.695C478.051 305.695 477.841 305.719 477.645 305.766C477.449 305.813 477.271 305.882 477.121 305.968ZM473.694 322.467C473.391 322.642 472.98 322.74 472.552 322.74C472.124 322.74 471.713 322.642 471.41 322.467L469.125 321.147C468.823 320.972 468.653 320.735 468.653 320.487C468.653 320.24 468.823 320.002 469.125 319.827L470.268 319.167L474.836 321.807L473.694 322.467ZM484.363 325.542L482.28 326.746L479.016 322.032L481.1 320.828L484.363 325.542ZM491.424 315.552C487.316 315.781 483.473 316.826 480.547 318.507L477.121 320.487L472.552 317.847L475.979 315.868C478.889 314.177 480.696 311.957 481.093 309.583L491.424 315.552Z" fill="#0035A9"/>
</g>
<defs>
<filter id="filter0_f_2121_2443" x="-405.492" y="0.325996" width="1006.29" height="882.496" filterUnits="userSpaceOnUse" color-interpolation-filters="sRGB">
<feFlood flood-opacity="0" result="BackgroundImageFix"/>
<feBlend mode="normal" in="SourceGraphic" in2="BackgroundImageFix" result="shape"/>
<feGaussianBlur stdDeviation="48.962" result="effect1_foregroundBlur_2121_2443"/>
</filter>
<linearGradient id="paint0_linear_2121_2443" x1="337.971" y1="0" x2="337.971" y2="914.053" gradientUnits="userSpaceOnUse">
<stop stop-color="#407CFF"/>
<stop offset="0.225209" stop-color="#407CFF"/>
<stop offset="1" stop-color="#407CFF" stop-opacity="0"/>
</linearGradient>
<clipPath id="clip0_2121_2443">
<rect width="37.4863" height="37.4863" fill="white" transform="matrix(0.865864 0.50028 -0.865864 0.50028 308.458 435)"/>
</clipPath>
<clipPath id="clip1_2121_2443">
<rect width="30.7263" height="30.7263" fill="white" transform="matrix(0.865864 -0.50028 0.865864 0.50028 224 271.371)"/>
</clipPath>
<clipPath id="clip2_2121_2443">
<rect width="28.0262" height="28.0262" fill="white" transform="matrix(0.865864 0.50028 -0.865864 0.50028 19.7808 355.984)"/>
</clipPath>
<clipPath id="clip3_2121_2443">
<rect width="31.66" height="31.66" fill="white" transform="matrix(0.865864 -0.500279 0.865864 0.500279 452 317.84)"/>
</clipPath>
</defs>
</svg>
