<svg width="341" height="164" viewBox="0 0 341 164" fill="none" xmlns="http://www.w3.org/2000/svg">
<g clip-path="url(#clip0_1108_49400)">
<path d="M-18 143H156" stroke="#18181B" stroke-width="2"/>
<path d="M186 113H318" stroke="#18181B" stroke-width="2"/>
<path d="M-18 81L207.5 81" stroke="#18181B" stroke-width="2"/>
<path d="M-21 113L204.5 113" stroke="#18181B" stroke-width="2"/>
<path d="M204.5 81L358 81" stroke="#18181B" stroke-width="2"/>
<path d="M299 8V154" stroke="#18181B" stroke-width="2"/>
<path d="M267 36V155.5" stroke="#18181B" stroke-width="2"/>
<path d="M224 7.5L224 113" stroke="#18181B" stroke-width="2"/>
<path d="M-16 45H327" stroke="#18181B" stroke-width="2"/>
<path d="M112 14L112 112" stroke="#18181B" stroke-width="2"/>
<path d="M155 45V143" stroke="#18181B" stroke-width="2"/>
<line x1="23" x2="23" y2="155" stroke="#18181B" stroke-width="2"/>
<path d="M67 45.999V150.999" stroke="#18181B" stroke-width="2"/>
<circle opacity="0.14" cx="67" cy="81" r="3.5" fill="#407CFF"/>
<circle opacity="0.14" cx="23.0195" cy="45" r="3.5" fill="#407CFF"/>
<circle opacity="0.14" cx="22.9727" cy="143" r="3.5" fill="#407CFF"/>
<circle opacity="0.14" cx="299" cy="45" r="3.5" fill="#407CFF"/>
<circle opacity="0.14" cx="267" cy="81" r="3.5" fill="#407CFF"/>
<g filter="url(#filter0_d_1108_49400)">
<path d="M140.565 61.8525L165.75 46.0718C167.997 44.6986 170.791 44.6412 173.078 45.9212L200.081 60.8083C202.354 62.0805 203.783 64.4823 203.836 67.1178L203.998 96.2376C204.051 98.8633 202.733 101.324 200.529 102.717L174.965 118.87C172.705 120.298 169.864 120.378 167.543 119.079L141.146 104.304C138.811 102.997 136.983 100.5 137 97.7919L137 68.1901C137.017 65.5974 138.369 63.1948 140.565 61.8525Z" fill="#18181B"/>
<path d="M165.75 46.0718L140.565 61.8525C138.369 63.1948 137.017 65.5974 137 68.1901L137 97.7919M165.75 46.0718C167.997 44.6986 170.791 44.6412 173.078 45.9212M165.75 46.0718C167.986 44.7054 170.792 44.6417 173.078 45.9212M137 97.7919C136.983 100.5 138.811 102.997 141.146 104.304M137 97.7919C136.983 100.486 138.812 102.997 141.146 104.304M141.146 104.304L167.543 119.079M167.543 119.079C169.864 120.378 172.705 120.298 174.965 118.87M167.543 119.079C169.863 120.377 172.716 120.291 174.965 118.87M174.965 118.87L200.529 102.717M200.529 102.717C202.732 101.325 204.051 98.8613 203.998 96.2376M200.529 102.717C202.733 101.324 204.051 98.8633 203.998 96.2376M203.998 96.2376L203.836 67.1178M203.836 67.1178C203.783 64.4823 202.354 62.0805 200.081 60.8083M203.836 67.1178C203.784 64.4952 202.353 62.08 200.081 60.8083M200.081 60.8083L173.078 45.9212" stroke="url(#paint0_linear_1108_49400)" stroke-width="2"/>
</g>
<path d="M182.649 77.1838C182.544 76.9412 182.372 76.733 182.154 76.5827C181.936 76.4325 181.681 76.3463 181.417 76.3338H174.928L176.727 69.6188C176.785 69.4087 176.793 69.1882 176.751 68.9744C176.709 68.7607 176.619 68.5594 176.487 68.3863C176.355 68.2149 176.185 68.076 175.991 67.9802C175.797 67.8844 175.584 67.8344 175.367 67.8338H165.451C165.131 67.8229 164.817 67.9205 164.56 68.1109C164.302 68.3013 164.117 68.5731 164.034 68.8822L160.237 83.0488C160.18 83.259 160.172 83.4795 160.214 83.6932C160.256 83.907 160.346 84.1082 160.478 84.2813C160.612 84.4547 160.783 84.5948 160.98 84.6906C161.177 84.7865 161.393 84.8355 161.612 84.8338H167.094L164.53 94.3822C164.446 94.6901 164.468 95.0173 164.594 95.3109C164.719 95.6044 164.939 95.8471 165.22 95.9996C165.5 96.1521 165.824 96.2054 166.138 96.151C166.453 96.0966 166.74 95.9375 166.952 95.6997L182.394 78.6997C182.578 78.4983 182.7 78.2482 182.745 77.9793C182.79 77.7105 182.757 77.4342 182.649 77.1838V77.1838ZM168.78 89.4805L170.296 83.8138C170.353 83.6037 170.361 83.3832 170.319 83.1694C170.278 82.9557 170.187 82.7544 170.055 82.5813C169.923 82.4099 169.753 82.271 169.559 82.1752C169.365 82.0794 169.152 82.0294 168.936 82.0288H163.496L166.527 70.6672H173.512L171.712 77.3822C171.655 77.5962 171.648 77.8207 171.693 78.0378C171.738 78.2549 171.833 78.4584 171.97 78.632C172.108 78.8057 172.285 78.9445 172.486 79.0375C172.687 79.1304 172.908 79.1748 173.129 79.1672H178.187L168.78 89.4805Z" fill="url(#paint1_linear_1108_49400)"/>
</g>
<defs>
<filter id="filter0_d_1108_49400" x="119.116" y="27.1163" width="102.767" height="110.767" filterUnits="userSpaceOnUse" color-interpolation-filters="sRGB">
<feFlood flood-opacity="0" result="BackgroundImageFix"/>
<feColorMatrix in="SourceAlpha" type="matrix" values="0 0 0 0 0 0 0 0 0 0 0 0 0 0 0 0 0 0 127 0" result="hardAlpha"/>
<feOffset/>
<feGaussianBlur stdDeviation="8.44184"/>
<feComposite in2="hardAlpha" operator="out"/>
<feColorMatrix type="matrix" values="0 0 0 0 1 0 0 0 0 1 0 0 0 0 1 0 0 0 0.07 0"/>
<feBlend mode="normal" in2="BackgroundImageFix" result="effect1_dropShadow_1108_49400"/>
<feBlend mode="normal" in="SourceGraphic" in2="effect1_dropShadow_1108_49400" result="shape"/>
</filter>
<linearGradient id="paint0_linear_1108_49400" x1="137.657" y1="68.0021" x2="203.999" y2="100.853" gradientUnits="userSpaceOnUse">
<stop stop-color="#407CFF"/>
<stop offset="1" stop-color="#0035A9"/>
</linearGradient>
<linearGradient id="paint1_linear_1108_49400" x1="160.125" y1="73.8891" x2="184.793" y2="84.4614" gradientUnits="userSpaceOnUse">
<stop stop-color="#407CFF"/>
<stop offset="1" stop-color="#0035A9"/>
</linearGradient>
<clipPath id="clip0_1108_49400">
<rect width="341" height="164" fill="white"/>
</clipPath>
</defs>
</svg>
