<svg width="341" height="164" viewBox="0 0 341 164" fill="none" xmlns="http://www.w3.org/2000/svg">
<g clip-path="url(#clip0_1185_58534)">
<g filter="url(#filter0_d_1185_58534)">
<rect x="273.5" y="97.5" width="44" height="44" rx="22" fill="white" stroke="#F4F4F5"/>
<path d="M297.383 134L296.486 132.625C296.976 131.95 297.199 131.102 297.111 130.257C297.023 129.412 296.629 128.636 296.013 128.089C294.976 127.175 294.265 125.915 293.999 124.518C291.358 128.5 292.729 130.696 293.999 132.643L293.068 134C291.3 133.649 289.713 132.634 288.599 131.144C287.486 129.654 286.921 127.788 287.009 125.893C287.009 125.893 286.654 122.036 290.868 118.268C290.868 118.268 295.64 113.607 293.982 110.161L295.183 109C297.016 110.356 298.419 112.265 299.207 114.476C299.995 116.687 300.132 119.098 299.6 121.393C300.002 120.98 300.324 120.489 300.548 119.946L302.021 119.821C302.139 120.036 305.135 125.054 303.527 129.286C302.954 130.548 302.093 131.64 301.02 132.463C299.948 133.286 298.698 133.814 297.383 134ZM293.999 121.589L295.471 122.286C295.393 123.1 295.492 123.923 295.762 124.691C296.032 125.459 296.465 126.151 297.028 126.714C297.753 127.272 298.303 128.047 298.605 128.939C298.907 129.831 298.947 130.798 298.72 131.714C299.42 131.456 300.062 131.05 300.609 130.522C301.156 129.994 301.596 129.355 301.902 128.643C302.477 126.469 302.228 124.145 301.208 122.161C300.888 122.709 300.422 123.147 299.869 123.42C299.316 123.693 298.699 123.789 298.094 123.696L297.502 122.482C298.243 120.791 298.496 118.906 298.228 117.064C297.96 115.222 297.184 113.504 295.996 112.125C295.759 115.911 292.086 119.411 291.968 119.607C288.464 122.75 288.701 125.661 288.701 125.786C288.635 126.889 288.85 127.99 289.323 128.976C289.796 129.962 290.511 130.796 291.392 131.393C290.394 128.893 290.394 125.893 294.049 121.589H293.999Z" fill="#18181B"/>
</g>
<path fill-rule="evenodd" clip-rule="evenodd" d="M164.747 96.3002C164.747 99.5823 161.947 102.243 158.494 102.243H132.829V102.22H114.675C114.415 102.22 114.156 102.228 113.899 102.243H113.524V102.27C107.158 102.822 102.171 107.91 102.171 114.106L102.17 120.406H102.181C102.021 123.553 99.286 126.057 95.9358 126.057H46V132H95.9358C102.842 132 108.44 126.679 108.44 120.115L108.441 113.815H108.43C108.581 110.841 111.031 108.441 114.127 108.186H158.494C165.4 108.186 170.999 102.864 170.999 96.3002L171 90.0002L164.747 90V96.3002Z" fill="url(#paint0_linear_1185_58534)"/>
<path fill-rule="evenodd" clip-rule="evenodd" d="M205.507 40.7446C205.347 37.5857 202.604 35.0714 199.243 35.0714H180.037V34.9656H179.544C176.081 34.9656 173.273 37.6364 173.273 40.9311V51.2556L167 51.2554L167.001 40.9311C167.001 34.3418 172.617 29 179.544 29H194.766V29.1058H199.243C206.17 29.1058 211.786 34.4476 211.786 41.037L211.787 47.3612H211.776C211.936 50.5201 214.68 53.0344 218.04 53.0344H235.234V53.0127H250.456C253.919 53.0127 256.727 50.3418 256.727 47.0471V40.7227L263 40.7229L262.999 47.0471C262.999 53.6365 257.383 58.9783 250.456 58.9783H236.25V59H218.04C211.113 59 205.497 53.6582 205.497 47.0689L205.496 40.7446H205.507Z" fill="url(#paint1_linear_1185_58534)"/>
<path fill-rule="evenodd" clip-rule="evenodd" d="M80.2534 60.3002C80.2534 63.5823 83.0526 66.2429 86.5056 66.2429H112.171V66.2204H130.325C130.585 66.2204 130.844 66.228 131.101 66.2429H131.476V66.2701C137.842 66.8222 142.829 71.9105 142.829 78.1058L142.83 84.4058H142.819C142.979 87.5526 145.714 90.0573 149.064 90.0573H199V96H149.064C142.158 96 136.56 90.6787 136.56 84.1146L136.559 77.8146H136.57C136.419 74.8413 133.969 72.4413 130.873 72.1857H86.5056C79.5997 72.1857 74.0013 66.8644 74.0013 60.3002L74.0001 54.0002L80.2534 54V60.3002Z" fill="url(#paint2_linear_1185_58534)"/>
<path d="M291.752 90.7641C291.752 87.5155 288.956 84.882 285.506 84.882H186V79H285.506C292.405 79 297.999 84.267 297.999 90.7641L298 96.9998L291.752 97V90.7641Z" fill="url(#paint3_linear_1185_58534)"/>
<g filter="url(#filter1_d_1185_58534)">
<g filter="url(#filter2_d_1185_58534)">
<path d="M139.565 60.8525L164.75 45.0718C166.997 43.6986 169.791 43.6412 172.078 44.9212L199.081 59.8083C201.354 61.0805 202.783 63.4823 202.836 66.1178L202.998 95.2376C203.051 97.8633 201.734 100.324 199.529 101.717L173.965 117.87C171.705 119.298 168.864 119.378 166.543 118.079L140.146 103.304C137.811 101.997 135.983 99.4998 136 96.7919L136 67.1901C136.017 64.5974 137.369 62.1948 139.565 60.8525Z" fill="white"/>
<path d="M140.086 61.7058L140.086 61.7059L140.096 61.6999L165.276 45.9223C167.216 44.7391 169.621 44.6922 171.589 45.7938L171.595 45.7969L198.592 60.6809C198.593 60.6814 198.594 60.6819 198.595 60.6824C200.55 61.778 201.788 63.8486 201.837 66.1307C201.837 66.1331 201.837 66.1355 201.837 66.1379L201.998 95.2432L201.999 95.2505L201.999 95.2578C202.045 97.5363 200.901 99.6675 198.995 100.872L173.431 117.025C171.478 118.258 169.031 118.325 167.032 117.206L140.634 102.431C138.534 101.256 136.985 99.0559 137 96.7984V96.7919L137 67.1966C137 67.1955 137 67.1945 137 67.1935C137.016 64.945 138.189 62.8655 140.086 61.7058Z" stroke="url(#paint4_linear_1185_58534)" stroke-width="2"/>
</g>
<path d="M188.422 82.5001C188.421 84.2141 187.911 85.8892 186.958 87.3139C186.005 88.7386 184.651 89.8489 183.068 90.5046C181.484 91.1604 179.742 91.3321 178.06 90.9981C176.379 90.6641 174.835 89.8394 173.622 88.6282L173.55 88.5559L164.892 78.7856C164.161 78.068 163.234 77.5824 162.227 77.3897C161.22 77.1971 160.179 77.3059 159.235 77.7027C158.29 78.0994 157.483 78.7663 156.916 79.6198C156.348 80.4733 156.046 81.4753 156.046 82.5001C156.046 83.5249 156.348 84.5269 156.916 85.3803C157.483 86.2338 158.29 86.9007 159.235 87.2975C160.179 87.6942 161.22 87.8031 162.227 87.6104C163.234 87.4178 164.161 86.9322 164.892 86.2145L165.34 85.7087C165.645 85.3637 166.074 85.1539 166.534 85.1254C166.993 85.097 167.445 85.2522 167.79 85.5569C168.135 85.8616 168.345 86.2909 168.373 86.7504C168.402 87.2098 168.247 87.6617 167.942 88.0067L167.451 88.5559L167.378 88.6282C166.574 89.434 165.619 90.0734 164.567 90.5096C163.516 90.9458 162.389 91.1703 161.25 91.1703C160.112 91.1703 158.984 90.9458 157.933 90.5096C156.881 90.0734 155.926 89.434 155.122 88.6282C153.911 87.4154 153.086 85.8709 152.752 84.1898C152.418 82.5086 152.59 80.7662 153.246 79.1825C153.901 77.5989 155.012 76.2451 156.436 75.2921C157.861 74.3391 159.536 73.8297 161.25 73.8282C162.389 73.8236 163.518 74.0462 164.57 74.483C165.623 74.9198 166.577 75.5619 167.378 76.3719L167.451 76.4442L176.108 86.2145C176.84 86.9322 177.767 87.4178 178.773 87.6104C179.78 87.8031 180.821 87.6942 181.766 87.2975C182.711 86.9007 183.517 86.2338 184.085 85.3803C184.652 84.5269 184.955 83.5249 184.955 82.5001C184.955 81.4753 184.652 80.4733 184.085 79.6198C183.517 78.7663 182.711 78.0994 181.766 77.7027C180.821 77.3059 179.78 77.1971 178.773 77.3897C177.767 77.5824 176.84 78.068 176.108 78.7856L175.66 79.2915C175.355 79.6365 174.926 79.8463 174.466 79.8747C174.007 79.9032 173.555 79.748 173.21 79.4432C172.865 79.1385 172.655 78.7092 172.627 78.2498C172.598 77.7903 172.754 77.3384 173.058 76.9934L173.55 76.4442L173.622 76.3719C174.835 75.1607 176.379 74.336 178.06 74.002C179.742 73.6681 181.484 73.8398 183.068 74.4955C184.651 75.1512 186.005 76.2615 186.958 77.6862C187.911 79.1109 188.421 80.786 188.422 82.5001Z" fill="url(#paint5_linear_1185_58534)"/>
</g>
<g filter="url(#filter3_d_1185_58534)">
<rect x="55.5" y="11.5" width="45" height="45" rx="22.5" fill="white" stroke="#F4F4F5"/>
<path d="M70 44.6663L75.5467 28.5463L74.4533 25.9997H72.6667V23.333H75.3333C75.8933 23.333 76.3733 23.6797 76.5733 24.173L84.2133 41.9997H86V44.6663H83.3333C82.76 44.6663 82.28 44.3063 82.0933 43.813L77.1067 32.1997L72.8267 44.6663H70Z" fill="#18181B"/>
</g>
<g filter="url(#filter4_d_1185_58534)">
<rect x="239.5" y="7.5" width="40" height="40" rx="20" fill="white" stroke="#F4F4F5"/>
</g>
<path d="M268.555 27.1352C268.748 27.2467 268.977 27.2779 269.192 27.2219C269.408 27.1659 269.592 27.0272 269.705 26.8364C269.818 26.6456 269.849 26.4183 269.792 26.2045C269.736 25.9907 269.596 25.808 269.404 25.6964L269.399 25.6946L267.531 24.625L269.509 23.4859C269.911 23.2531 269.066 21.8125 268.665 22.0454L266.687 23.1845V21.0435C266.687 20.5768 264.999 20.5768 264.999 21.0435V24.1304L262.315 25.6666L260.737 24.7884V21.7015L263.449 20.1517C263.851 19.9188 263.006 18.4783 262.605 18.7111L260.737 19.7807V17.517C260.737 17.0503 259.049 17.0503 259.049 17.517V19.7807L257.181 18.7111C256.779 18.4783 255.937 19.9324 256.337 20.1517L259.049 21.7015V24.7884L257.471 25.6666L254.8 24.1304V21.0155C254.8 20.5488 253.112 20.5488 253.112 21.0155V23.1565L251.133 22.0174C250.732 21.7845 249.889 23.2386 250.289 23.4579L252.268 24.597L250.399 25.6666C249.998 25.8995 250.843 27.3401 251.243 27.1072L253.956 25.5574L256.64 27.0937V28.8907L253.956 30.4405L251.243 28.8907C250.842 28.6579 250 30.112 250.399 30.3313L252.268 31.4009L250.289 32.54C249.888 32.7729 250.733 34.2134 251.133 33.9806L253.112 32.8415V34.9825C253.112 35.4491 254.8 35.4491 254.8 34.9825V31.8676L257.484 30.3313L259.062 31.2095V34.2965L256.349 35.8463C255.948 36.0791 256.793 37.5197 257.193 37.2868L259.062 36.2172V38.4837C259.062 38.9503 260.75 38.9503 260.75 38.4837V36.2199L262.618 37.2895C263.019 37.5224 263.862 36.0683 263.462 35.849L260.75 34.2992V31.2095L262.327 30.3313L265.012 31.8676V34.9825C265.012 35.4491 266.7 35.4491 266.7 34.9825V32.8415L268.678 33.9806C269.08 34.2134 269.922 32.7593 269.522 32.54L267.544 31.4009L269.412 30.3313C269.813 30.0984 268.968 28.6579 268.568 28.8907L265.842 30.4405L263.158 28.9043V27.1072L265.856 25.571L268.555 27.1352ZM261.76 29.0821L260.916 29.5487L260.736 29.6444L259.892 30.1111L259.048 29.6444L258.868 29.5487L258.024 29.0821V26.9294L258.868 26.4627L259.048 26.3671L259.892 25.9004L260.736 26.3671L260.916 26.4627L261.76 26.9294V28.1082V29.0821Z" fill="#18181B"/>
<g filter="url(#filter5_d_1185_58534)">
<rect x="16.5" y="106.5" width="39" height="39" rx="19.5" fill="white" stroke="#F4F4F5"/>
<path d="M35.9978 114.89C36.2925 114.89 36.5751 115.007 36.7835 115.215C36.9919 115.423 37.1089 115.706 37.1089 116.001V119.334C37.1089 119.629 36.9919 119.911 36.7835 120.12C36.5751 120.328 36.2925 120.445 35.9978 120.445C35.7031 120.445 35.4205 120.328 35.2122 120.12C35.0038 119.911 34.8867 119.629 34.8867 119.334V116.001C34.8867 115.706 35.0038 115.423 35.2122 115.215C35.4205 115.007 35.7031 114.89 35.9978 114.89ZM35.9978 131.556C36.2925 131.556 36.5751 131.673 36.7835 131.882C36.9919 132.09 37.1089 132.373 37.1089 132.667V136.001C37.1089 136.295 36.9919 136.578 36.7835 136.786C36.5751 136.995 36.2925 137.112 35.9978 137.112C35.7031 137.112 35.4205 136.995 35.2122 136.786C35.0038 136.578 34.8867 136.295 34.8867 136.001V132.667C34.8867 132.373 35.0038 132.09 35.2122 131.882C35.4205 131.673 35.7031 131.556 35.9978 131.556ZM47.1089 126.001C47.1089 126.295 46.9919 126.578 46.7835 126.786C46.5751 126.995 46.2925 127.112 45.9978 127.112H42.6645C42.3698 127.112 42.0872 126.995 41.8788 126.786C41.6704 126.578 41.5534 126.295 41.5534 126.001C41.5534 125.706 41.6704 125.423 41.8788 125.215C42.0872 125.007 42.3698 124.89 42.6645 124.89H45.9978C46.2925 124.89 46.5751 125.007 46.7835 125.215C46.9919 125.423 47.1089 125.706 47.1089 126.001ZM30.4423 126.001C30.4423 126.295 30.3252 126.578 30.1168 126.786C29.9085 126.995 29.6258 127.112 29.3312 127.112H25.9978C25.7031 127.112 25.4205 126.995 25.2122 126.786C25.0038 126.578 24.8867 126.295 24.8867 126.001C24.8867 125.706 25.0038 125.423 25.2122 125.215C25.4205 125.007 25.7031 124.89 25.9978 124.89H29.3312C29.6258 124.89 29.9085 125.007 30.1168 125.215C30.3252 125.423 30.4423 125.706 30.4423 126.001ZM43.8545 133.857C43.6461 134.066 43.3636 134.183 43.0689 134.183C42.7743 134.183 42.4917 134.066 42.2834 133.857L39.9267 131.501C39.7243 131.291 39.6123 131.011 39.6149 130.719C39.6174 130.428 39.7342 130.149 39.9403 129.943C40.1463 129.737 40.4249 129.62 40.7163 129.618C41.0076 129.615 41.2883 129.727 41.4978 129.93L43.8545 132.285C43.9578 132.388 44.0398 132.511 44.0957 132.646C44.1516 132.781 44.1804 132.925 44.1804 133.071C44.1804 133.217 44.1516 133.362 44.0957 133.497C44.0398 133.632 43.9578 133.754 43.8545 133.857ZM32.0689 122.072C31.8606 122.28 31.578 122.397 31.2834 122.397C30.9888 122.397 30.7062 122.28 30.4978 122.072L28.1423 119.716C27.9338 119.508 27.8166 119.225 27.8165 118.931C27.8164 118.636 27.9334 118.353 28.1417 118.145C28.3501 117.936 28.6327 117.819 28.9274 117.819C29.2222 117.819 29.5049 117.936 29.7134 118.144L32.0689 120.501C32.2772 120.709 32.3943 120.992 32.3943 121.286C32.3943 121.581 32.2772 121.864 32.0689 122.072ZM28.1423 133.857C27.934 133.649 27.817 133.366 27.817 133.072C27.817 132.777 27.934 132.495 28.1423 132.286L30.4989 129.93C30.6014 129.824 30.724 129.739 30.8596 129.681C30.9952 129.622 31.141 129.592 31.2885 129.59C31.436 129.589 31.5823 129.617 31.7189 129.673C31.8554 129.729 31.9795 129.812 32.0838 129.916C32.1881 130.02 32.2707 130.144 32.3265 130.281C32.3824 130.417 32.4105 130.564 32.4092 130.711C32.4079 130.859 32.3773 131.005 32.3191 131.14C32.2608 131.276 32.1762 131.398 32.0701 131.501L29.7145 133.857C29.6113 133.961 29.4888 134.043 29.3539 134.099C29.219 134.155 29.0744 134.183 28.9284 134.183C28.7824 134.183 28.6378 134.155 28.5029 134.099C28.368 134.043 28.2455 133.961 28.1423 133.857ZM39.9267 122.072C39.7184 121.864 39.6014 121.581 39.6014 121.286C39.6014 120.992 39.7184 120.709 39.9267 120.501L42.2823 118.144C42.4906 117.936 42.7732 117.818 43.068 117.818C43.3627 117.818 43.6454 117.935 43.8539 118.144C44.0624 118.352 44.1796 118.635 44.1797 118.929C44.1798 119.224 44.0628 119.507 43.8545 119.715L41.4978 122.072C41.2895 122.28 41.0069 122.397 40.7123 122.397C40.4176 122.397 40.1351 122.28 39.9267 122.072Z" fill="#18181B"/>
</g>
</g>
<defs>
<filter id="filter0_d_1185_58534" x="261" y="85" width="69" height="69" filterUnits="userSpaceOnUse" color-interpolation-filters="sRGB">
<feFlood flood-opacity="0" result="BackgroundImageFix"/>
<feColorMatrix in="SourceAlpha" type="matrix" values="0 0 0 0 0 0 0 0 0 0 0 0 0 0 0 0 0 0 127 0" result="hardAlpha"/>
<feOffset/>
<feGaussianBlur stdDeviation="6"/>
<feComposite in2="hardAlpha" operator="out"/>
<feColorMatrix type="matrix" values="0 0 0 0 0.0941176 0 0 0 0 0.0941176 0 0 0 0 0.0941176 0 0 0 0.05 0"/>
<feBlend mode="normal" in2="BackgroundImageFix" result="effect1_dropShadow_1185_58534"/>
<feBlend mode="normal" in="SourceGraphic" in2="effect1_dropShadow_1185_58534" result="shape"/>
</filter>
<filter id="filter1_d_1185_58534" x="105" y="13" width="129" height="137" filterUnits="userSpaceOnUse" color-interpolation-filters="sRGB">
<feFlood flood-opacity="0" result="BackgroundImageFix"/>
<feColorMatrix in="SourceAlpha" type="matrix" values="0 0 0 0 0 0 0 0 0 0 0 0 0 0 0 0 0 0 127 0" result="hardAlpha"/>
<feOffset/>
<feGaussianBlur stdDeviation="15.5"/>
<feComposite in2="hardAlpha" operator="out"/>
<feColorMatrix type="matrix" values="0 0 0 0 1 0 0 0 0 1 0 0 0 0 1 0 0 0 0.07 0"/>
<feBlend mode="normal" in2="BackgroundImageFix" result="effect1_dropShadow_1185_58534"/>
<feBlend mode="normal" in="SourceGraphic" in2="effect1_dropShadow_1185_58534" result="shape"/>
</filter>
<filter id="filter2_d_1185_58534" x="105.718" y="13.718" width="127.564" height="135.564" filterUnits="userSpaceOnUse" color-interpolation-filters="sRGB">
<feFlood flood-opacity="0" result="BackgroundImageFix"/>
<feColorMatrix in="SourceAlpha" type="matrix" values="0 0 0 0 0 0 0 0 0 0 0 0 0 0 0 0 0 0 127 0" result="hardAlpha"/>
<feOffset/>
<feGaussianBlur stdDeviation="15.141"/>
<feComposite in2="hardAlpha" operator="out"/>
<feColorMatrix type="matrix" values="0 0 0 0 0.211765 0 0 0 0 0.894118 0 0 0 0 0.854902 0 0 0 0.18 0"/>
<feBlend mode="normal" in2="BackgroundImageFix" result="effect1_dropShadow_1185_58534"/>
<feBlend mode="normal" in="SourceGraphic" in2="effect1_dropShadow_1185_58534" result="shape"/>
</filter>
<filter id="filter3_d_1185_58534" x="43" y="-1" width="70" height="70" filterUnits="userSpaceOnUse" color-interpolation-filters="sRGB">
<feFlood flood-opacity="0" result="BackgroundImageFix"/>
<feColorMatrix in="SourceAlpha" type="matrix" values="0 0 0 0 0 0 0 0 0 0 0 0 0 0 0 0 0 0 127 0" result="hardAlpha"/>
<feOffset/>
<feGaussianBlur stdDeviation="6"/>
<feComposite in2="hardAlpha" operator="out"/>
<feColorMatrix type="matrix" values="0 0 0 0 0.0941176 0 0 0 0 0.0941176 0 0 0 0 0.0941176 0 0 0 0.05 0"/>
<feBlend mode="normal" in2="BackgroundImageFix" result="effect1_dropShadow_1185_58534"/>
<feBlend mode="normal" in="SourceGraphic" in2="effect1_dropShadow_1185_58534" result="shape"/>
</filter>
<filter id="filter4_d_1185_58534" x="227" y="-5" width="65" height="65" filterUnits="userSpaceOnUse" color-interpolation-filters="sRGB">
<feFlood flood-opacity="0" result="BackgroundImageFix"/>
<feColorMatrix in="SourceAlpha" type="matrix" values="0 0 0 0 0 0 0 0 0 0 0 0 0 0 0 0 0 0 127 0" result="hardAlpha"/>
<feOffset/>
<feGaussianBlur stdDeviation="6"/>
<feComposite in2="hardAlpha" operator="out"/>
<feColorMatrix type="matrix" values="0 0 0 0 0.0941176 0 0 0 0 0.0941176 0 0 0 0 0.0941176 0 0 0 0.05 0"/>
<feBlend mode="normal" in2="BackgroundImageFix" result="effect1_dropShadow_1185_58534"/>
<feBlend mode="normal" in="SourceGraphic" in2="effect1_dropShadow_1185_58534" result="shape"/>
</filter>
<filter id="filter5_d_1185_58534" x="4" y="94" width="64" height="64" filterUnits="userSpaceOnUse" color-interpolation-filters="sRGB">
<feFlood flood-opacity="0" result="BackgroundImageFix"/>
<feColorMatrix in="SourceAlpha" type="matrix" values="0 0 0 0 0 0 0 0 0 0 0 0 0 0 0 0 0 0 127 0" result="hardAlpha"/>
<feOffset/>
<feGaussianBlur stdDeviation="6"/>
<feComposite in2="hardAlpha" operator="out"/>
<feColorMatrix type="matrix" values="0 0 0 0 0.0941176 0 0 0 0 0.0941176 0 0 0 0 0.0941176 0 0 0 0.05 0"/>
<feBlend mode="normal" in2="BackgroundImageFix" result="effect1_dropShadow_1185_58534"/>
<feBlend mode="normal" in="SourceGraphic" in2="effect1_dropShadow_1185_58534" result="shape"/>
</filter>
<linearGradient id="paint0_linear_1185_58534" x1="134.566" y1="99.6483" x2="52.1798" y2="130.015" gradientUnits="userSpaceOnUse">
<stop stop-color="#F4F4F5"/>
<stop offset="0.541667" stop-color="#F4F4F5"/>
<stop offset="0.973958" stop-color="#F4F4F5" stop-opacity="0.34"/>
</linearGradient>
<linearGradient id="paint1_linear_1185_58534" x1="178.2" y1="53.1548" x2="264.902" y2="35.7713" gradientUnits="userSpaceOnUse">
<stop stop-color="#F4F4F5"/>
<stop offset="0.541667" stop-color="#F4F4F5"/>
<stop offset="0.973958" stop-color="#F4F4F5" stop-opacity="0.34"/>
</linearGradient>
<linearGradient id="paint2_linear_1185_58534" x1="129.814" y1="81.2429" x2="72.1068" y2="60.0332" gradientUnits="userSpaceOnUse">
<stop stop-color="#F4F4F5"/>
<stop offset="0.541667" stop-color="#F4F4F5"/>
<stop offset="0.973958" stop-color="#F4F4F5" stop-opacity="0.34"/>
</linearGradient>
<linearGradient id="paint3_linear_1185_58534" x1="247.991" y1="85.3245" x2="284.893" y2="113.68" gradientUnits="userSpaceOnUse">
<stop stop-color="#F4F4F5"/>
<stop offset="0.541667" stop-color="#F4F4F5"/>
<stop offset="0.973958" stop-color="#F4F4F5" stop-opacity="0.34"/>
</linearGradient>
<linearGradient id="paint4_linear_1185_58534" x1="136.657" y1="67.0021" x2="202.999" y2="99.8526" gradientUnits="userSpaceOnUse">
<stop stop-color="#36E4DA"/>
<stop offset="1" stop-color="#117D77"/>
</linearGradient>
<linearGradient id="paint5_linear_1185_58534" x1="152.486" y1="77.5342" x2="173.217" y2="100.579" gradientUnits="userSpaceOnUse">
<stop stop-color="#36E4DA"/>
<stop offset="1" stop-color="#117D77"/>
</linearGradient>
<clipPath id="clip0_1185_58534">
<rect width="341" height="164" fill="white"/>
</clipPath>
</defs>
</svg>
