<svg width="341" height="164" viewBox="0 0 341 164" fill="none" xmlns="http://www.w3.org/2000/svg">
<g opacity="0.62">
<rect x="22" y="12.998" width="290" height="142" rx="6" stroke="#27272A"/>
<rect opacity="0.55" x="250.213" y="36.998" width="45.8419" height="44" rx="3" fill="#27272A"/>
<rect opacity="0.55" x="250.213" y="93.998" width="45.8419" height="44" rx="3" fill="#27272A"/>
<rect opacity="0.55" x="34" y="61.998" width="196" height="6" rx="3" fill="#27272A"/>
<rect opacity="0.55" x="34" y="51.998" width="45" height="6" rx="3" fill="#27272A"/>
<rect opacity="0.55" x="34" y="120.998" width="185" height="6" rx="3" fill="#27272A"/>
<rect opacity="0.55" x="34" y="132.998" width="104" height="6" rx="3" fill="#27272A"/>
<rect opacity="0.55" x="34" y="109.998" width="45" height="6" rx="3" fill="#27272A"/>
<rect opacity="0.55" x="34" y="75.998" width="80" height="6" rx="3" fill="#27272A"/>
<rect opacity="0.55" x="34" y="86.998" width="172" height="6" rx="3" fill="#27272A"/>
<rect opacity="0.55" x="34" y="96.998" width="97" height="6" rx="3" fill="#27272A"/>
<rect opacity="0.55" x="34" y="36.998" width="185" height="8" rx="4" fill="#27272A"/>
<rect opacity="0.55" x="35" y="23.998" width="3.99559" height="4" rx="1.9978" fill="#3F3F46"/>
<rect opacity="0.55" x="43" y="23.998" width="3.99559" height="4" rx="1.9978" fill="#3F3F46"/>
<rect opacity="0.55" x="51" y="23.998" width="3.99559" height="4" rx="1.9978" fill="#3F3F46"/>
<path opacity="0.43" d="M15.2839 139.661L18.6272 137.509L18.641 137.5C18.9315 137.318 19.2977 137.309 19.5976 137.475L23.1486 139.41C23.4467 139.576 23.6328 139.889 23.6354 140.23L23.6356 140.246C23.6356 140.246 23.6356 140.246 23.6356 140.246L23.6098 144.138C23.6125 144.49 23.4351 144.819 23.1398 145.01L19.729 147.216C19.729 147.216 19.729 147.216 19.729 147.216L19.7148 147.225C19.4228 147.414 19.0505 147.426 18.7461 147.258L15.2751 145.334C14.9689 145.164 14.7814 144.838 14.7879 144.488L14.7882 144.471L14.8017 140.514C14.8081 140.167 14.9895 139.845 15.2839 139.661Z" fill="#00DC82"/>
<path opacity="0.43" d="M303.429 16.7587L310.8 12.3863C311.463 12.0045 312.278 11.9981 312.948 12.3695L312.986 12.3908L321.151 16.8467L321.189 16.8678C321.855 17.2369 322.281 17.926 322.316 18.6873L322.567 27.0754C322.602 27.8309 322.225 28.5315 321.577 28.9178L314.058 33.4C313.391 33.7976 312.563 33.8104 311.884 33.4337L311.844 33.4117L303.861 28.9865L303.82 28.9641C303.137 28.5853 302.707 27.87 302.694 27.0882L302.409 18.5596C302.396 17.8134 302.783 17.1307 303.429 16.7587Z" fill="#00DC82"/>
</g>
<g filter="url(#filter0_d_790_46734)">
<path d="M140.81 61.9204L166.318 46.0761C168.594 44.6974 171.424 44.6397 173.74 45.9249L201.089 60.8719C203.391 62.1493 204.839 64.5608 204.893 67.2068L205.057 96.4439C205.111 99.0802 203.776 101.551 201.543 102.95L175.651 119.167C173.362 120.601 170.485 120.681 168.134 119.377L141.398 104.542C139.033 103.23 137.182 100.723 137.199 98.0044L137.199 68.2834C137.217 65.6803 138.585 63.268 140.81 61.9204Z" fill="#18181B"/>
<path d="M141.328 62.7757L141.328 62.7757L141.338 62.7698L166.841 46.9286C168.811 45.7374 171.255 45.69 173.255 46.7993L173.26 46.8024L200.604 61.7464C200.605 61.7468 200.606 61.7473 200.607 61.7478C202.592 62.8504 203.844 64.9315 203.893 67.2201C203.893 67.2224 203.893 67.2248 203.893 67.2271L204.057 96.4495L204.057 96.4568L204.057 96.4642C204.104 98.7491 202.947 100.89 201.012 102.102L175.12 118.32C173.138 119.562 170.65 119.629 168.62 118.503L141.883 103.668C139.752 102.485 138.184 100.275 138.199 98.0109V98.0044L138.199 68.29C138.199 68.2889 138.199 68.2879 138.199 68.2868C138.215 66.032 139.402 63.9426 141.328 62.7757Z" stroke="url(#paint0_linear_790_46734)" stroke-width="2"/>
</g>
<path d="M182.742 73.8631C182.027 73.1485 180.955 73.1485 180.241 73.8631L166.843 87.2614L161.305 81.7234C160.59 81.0089 159.518 81.0089 158.804 81.7234C158.089 82.438 158.089 83.5099 158.804 84.2244L165.592 91.0129C165.949 91.3702 166.307 91.5489 166.843 91.5489C167.378 91.5489 167.736 91.3702 168.093 91.0129L182.742 76.3641C183.456 75.6495 183.456 74.5777 182.742 73.8631Z" fill="url(#paint1_linear_790_46734)"/>
<defs>
<filter id="filter0_d_790_46734" x="106.199" y="14" width="129.859" height="137.302" filterUnits="userSpaceOnUse" color-interpolation-filters="sRGB">
<feFlood flood-opacity="0" result="BackgroundImageFix"/>
<feColorMatrix in="SourceAlpha" type="matrix" values="0 0 0 0 0 0 0 0 0 0 0 0 0 0 0 0 0 0 127 0" result="hardAlpha"/>
<feOffset/>
<feGaussianBlur stdDeviation="15.5"/>
<feComposite in2="hardAlpha" operator="out"/>
<feColorMatrix type="matrix" values="0 0 0 0 1 0 0 0 0 1 0 0 0 0 1 0 0 0 0.07 0"/>
<feBlend mode="normal" in2="BackgroundImageFix" result="effect1_dropShadow_790_46734"/>
<feBlend mode="normal" in="SourceGraphic" in2="effect1_dropShadow_790_46734" result="shape"/>
</filter>
<linearGradient id="paint0_linear_790_46734" x1="137.865" y1="68.0947" x2="204.825" y2="101.542" gradientUnits="userSpaceOnUse">
<stop stop-color="#00DC82"/>
<stop offset="1" stop-color="#003F25"/>
</linearGradient>
<linearGradient id="paint1_linear_790_46734" x1="158.198" y1="77.2212" x2="179.132" y2="92.6779" gradientUnits="userSpaceOnUse">
<stop stop-color="#00DC82"/>
<stop offset="1" stop-color="#003F25"/>
</linearGradient>
</defs>
</svg>
