<svg width="341" height="164" viewBox="0 0 341 164" fill="none" xmlns="http://www.w3.org/2000/svg">
<g opacity="0.62">
<rect x="22" y="12.998" width="290" height="142" rx="6" stroke="#E4E4E7"/>
<rect x="250.211" y="36.998" width="45.8419" height="44" rx="3" fill="#E4E4E7"/>
<rect x="250.211" y="93.998" width="45.8419" height="44" rx="3" fill="#E4E4E7"/>
<rect x="34" y="61.998" width="196" height="6" rx="3" fill="#E4E4E7"/>
<rect x="34" y="51.998" width="45" height="6" rx="3" fill="#E4E4E7"/>
<rect x="34" y="120.998" width="185" height="6" rx="3" fill="#E4E4E7"/>
<rect x="34" y="132.998" width="104" height="6" rx="3" fill="#E4E4E7"/>
<rect x="34" y="109.998" width="45" height="6" rx="3" fill="#E4E4E7"/>
<rect x="34" y="75.998" width="80" height="6" rx="3" fill="#E4E4E7"/>
<rect x="34" y="86.998" width="172" height="6" rx="3" fill="#E4E4E7"/>
<rect x="34" y="96.998" width="97" height="6" rx="3" fill="#E4E4E7"/>
<rect x="34" y="36.998" width="185" height="8" rx="4" fill="#E4E4E7"/>
<rect opacity="0.55" x="35" y="23.998" width="3.99559" height="4" rx="1.9978" fill="#3F3F46"/>
<rect opacity="0.55" x="43" y="23.998" width="3.99559" height="4" rx="1.9978" fill="#3F3F46"/>
<rect opacity="0.55" x="51" y="23.998" width="3.99559" height="4" rx="1.9978" fill="#3F3F46"/>
<path d="M15.2839 139.661L18.6272 137.509L18.641 137.5C18.9315 137.318 19.2977 137.309 19.5976 137.475L23.1486 139.41C23.4467 139.576 23.6328 139.889 23.6354 140.23L23.6356 140.246C23.6356 140.246 23.6356 140.246 23.6356 140.246L23.6098 144.138C23.6125 144.49 23.4351 144.819 23.1398 145.01L19.729 147.216C19.729 147.216 19.729 147.216 19.729 147.216L19.7148 147.225C19.4228 147.414 19.0505 147.426 18.7461 147.258L15.2751 145.334C14.9689 145.164 14.7814 144.838 14.7879 144.488L14.7882 144.471L14.8017 140.514C14.8081 140.167 14.9895 139.845 15.2839 139.661Z" fill="#00DC82"/>
<path d="M303.429 16.7587L310.8 12.3863C311.463 12.0045 312.278 11.9981 312.948 12.3695L312.986 12.3908L321.151 16.8467L321.189 16.8678C321.855 17.2369 322.281 17.926 322.316 18.6873L322.567 27.0754C322.602 27.8309 322.225 28.5315 321.577 28.9178L314.058 33.4C313.391 33.7976 312.563 33.8104 311.884 33.4337L311.844 33.4117L303.861 28.9865L303.82 28.9641C303.137 28.5853 302.707 27.87 302.694 27.0882L302.409 18.5596C302.396 17.8134 302.783 17.1307 303.429 16.7587Z" fill="#00DC82"/>
</g>
<g filter="url(#filter0_d_1185_58579)">
<path d="M140.565 61.8525L165.75 46.0718C167.997 44.6986 170.791 44.6412 173.078 45.9212L200.081 60.8083C202.354 62.0805 203.783 64.4823 203.836 67.1178L203.998 96.2376C204.051 98.8633 202.734 101.324 200.529 102.717L174.965 118.87C172.705 120.298 169.864 120.378 167.543 119.079L141.146 104.304C138.811 102.997 136.983 100.5 137 97.7919L137 68.1901C137.017 65.5974 138.369 63.1948 140.565 61.8525Z" fill="white"/>
<path d="M141.086 62.7058L141.086 62.7059L141.096 62.6999L166.276 46.9223C168.216 45.7391 170.621 45.6922 172.589 46.7938L172.595 46.7969L199.592 61.6809C199.593 61.6814 199.594 61.6819 199.595 61.6824C201.55 62.778 202.788 64.8486 202.837 67.1307C202.837 67.1331 202.837 67.1355 202.837 67.1379L202.998 96.2432L202.999 96.2505L202.999 96.2578C203.045 98.5363 201.901 100.667 199.995 101.872L174.431 118.025C172.478 119.258 170.031 119.325 168.032 118.206L141.634 103.431C139.534 102.256 137.985 100.056 138 97.7984V97.7919L138 68.1966C138 68.1955 138 68.1945 138 68.1935C138.016 65.945 139.189 63.8655 141.086 62.7058Z" stroke="url(#paint0_linear_1185_58579)" stroke-width="2"/>
</g>
<rect x="150" y="62" width="42" height="42" rx="7.65432" fill="white"/>
<path d="M183.404 74.8631C182.689 74.1485 181.618 74.1485 180.903 74.8631L167.505 88.2614L161.967 82.7234C161.252 82.0089 160.18 82.0089 159.466 82.7234C158.751 83.438 158.751 84.5099 159.466 85.2244L166.254 92.0129C166.611 92.3702 166.969 92.5489 167.505 92.5489C168.041 92.5489 168.398 92.3702 168.755 92.0129L183.404 77.3641C184.119 76.6495 184.119 75.5777 183.404 74.8631Z" fill="url(#paint1_linear_1185_58579)"/>
<defs>
<filter id="filter0_d_1185_58579" x="106" y="14" width="129" height="137" filterUnits="userSpaceOnUse" color-interpolation-filters="sRGB">
<feFlood flood-opacity="0" result="BackgroundImageFix"/>
<feColorMatrix in="SourceAlpha" type="matrix" values="0 0 0 0 0 0 0 0 0 0 0 0 0 0 0 0 0 0 127 0" result="hardAlpha"/>
<feOffset/>
<feGaussianBlur stdDeviation="15.5"/>
<feComposite in2="hardAlpha" operator="out"/>
<feColorMatrix type="matrix" values="0 0 0 0 0 0 0 0 0 0.862745 0 0 0 0 0.509804 0 0 0 0.18 0"/>
<feBlend mode="normal" in2="BackgroundImageFix" result="effect1_dropShadow_1185_58579"/>
<feBlend mode="normal" in="SourceGraphic" in2="effect1_dropShadow_1185_58579" result="shape"/>
</filter>
<linearGradient id="paint0_linear_1185_58579" x1="137.657" y1="68.0021" x2="203.999" y2="100.853" gradientUnits="userSpaceOnUse">
<stop stop-color="#00DC82"/>
<stop offset="1" stop-color="#003F25"/>
</linearGradient>
<linearGradient id="paint1_linear_1185_58579" x1="158.86" y1="78.2212" x2="179.794" y2="93.6779" gradientUnits="userSpaceOnUse">
<stop stop-color="#00DC82"/>
<stop offset="1" stop-color="#003F25"/>
</linearGradient>
</defs>
</svg>
