<svg width="44" height="44" viewBox="0 0 44 44" fill="none" xmlns="http://www.w3.org/2000/svg">
<rect x="0.5" y="0.5" width="43" height="43" rx="5.5" fill="#18181B" stroke="#27272A"/>
<path d="M28.2612 16.1824C28.2562 16.1725 28.2479 16.1647 28.2378 16.1605C27.0708 15.6139 25.8392 15.2241 24.5739 15.001C24.5624 14.9988 24.5506 15.0003 24.54 15.0055C24.5294 15.0106 24.5207 15.0189 24.5151 15.0294C24.3474 15.3401 24.1951 15.6593 24.059 15.9856C22.6951 15.7743 21.3077 15.7743 19.9439 15.9856C19.8068 15.6584 19.6521 15.3392 19.4805 15.0294C19.4747 15.0192 19.4659 15.011 19.4554 15.0059C19.4449 15.0008 19.4331 14.9991 19.4216 15.001C18.1562 15.2237 16.9246 15.6135 15.7577 16.1606C15.7477 16.1649 15.7393 16.1723 15.7336 16.1817C13.4 19.7391 12.7608 23.2091 13.0744 26.6361C13.0753 26.6445 13.0778 26.6526 13.0818 26.66C13.0858 26.6674 13.0913 26.6739 13.0978 26.6791C14.4566 27.7061 15.9764 28.4901 17.5925 28.9975C17.6038 29.001 17.616 29.0008 17.6273 28.997C17.6386 28.9933 17.6485 28.9861 17.6556 28.9764C18.0027 28.4943 18.3102 27.9838 18.5751 27.4501C18.5788 27.4427 18.5808 27.4347 18.5812 27.4265C18.5816 27.4183 18.5803 27.4101 18.5773 27.4025C18.5744 27.3948 18.5699 27.3879 18.5641 27.3822C18.5584 27.3764 18.5515 27.372 18.5439 27.3692C18.0589 27.1798 17.5894 26.9514 17.1398 26.6863C17.1316 26.6814 17.1248 26.6745 17.1198 26.6662C17.1149 26.658 17.112 26.6486 17.1114 26.639C17.1109 26.6293 17.1127 26.6197 17.1166 26.6109C17.1206 26.6021 17.1266 26.5944 17.1341 26.5886C17.2285 26.5164 17.3229 26.4414 17.413 26.3656C17.421 26.3588 17.4307 26.3545 17.4409 26.3531C17.4512 26.3517 17.4617 26.3532 17.4711 26.3576C20.4169 27.73 23.6062 27.73 26.5171 26.3576C26.5266 26.3529 26.5372 26.3512 26.5476 26.3525C26.558 26.3538 26.5679 26.3581 26.576 26.3648C26.6661 26.4406 26.7605 26.5164 26.8555 26.5886C26.8631 26.5944 26.8692 26.602 26.8732 26.6107C26.8772 26.6195 26.8791 26.6291 26.8786 26.6388C26.8781 26.6484 26.8753 26.6578 26.8704 26.6661C26.8655 26.6744 26.8587 26.6813 26.8506 26.6863C26.402 26.9536 25.932 27.1818 25.4458 27.3685C25.4382 27.3714 25.4314 27.3759 25.4257 27.3817C25.4199 27.3876 25.4155 27.3946 25.4126 27.4023C25.4097 27.41 25.4084 27.4182 25.4089 27.4264C25.4093 27.4347 25.4115 27.4427 25.4152 27.4501C25.6845 27.9808 25.9916 28.4907 26.334 28.9755C26.3409 28.9855 26.3508 28.9929 26.3621 28.9969C26.3734 29.0008 26.3857 29.001 26.3971 28.9974C28.016 28.4917 29.5385 27.7077 30.899 26.6791C30.9057 26.6741 30.9112 26.6678 30.9152 26.6605C30.9193 26.6533 30.9217 26.6452 30.9225 26.6368C31.2979 22.6749 30.2939 19.2333 28.2612 16.1824ZM19.015 24.5494C18.1281 24.5494 17.3974 23.7186 17.3974 22.6982C17.3974 21.6778 18.114 20.8469 19.015 20.8469C19.9232 20.8469 20.6469 21.685 20.6327 22.6981C20.6327 23.7186 19.9161 24.5494 19.015 24.5494ZM24.9961 24.5494C24.1092 24.5494 23.3784 23.7186 23.3784 22.6982C23.3784 21.6778 24.095 20.8469 24.9961 20.8469C25.9043 20.8469 26.6279 21.685 26.6138 22.6981C26.6138 23.7186 25.9043 24.5494 24.9961 24.5494Z" fill="white"/>
</svg>
