<svg width="596" height="475" viewBox="0 0 596 475" fill="none" xmlns="http://www.w3.org/2000/svg">
<g clip-path="url(#clip0_4673_38191)">
<path d="M173.269 352.995L201.752 335.996C204.293 334.518 207.432 334.509 209.986 335.972L240.144 352.995C240.144 352.995 240.144 352.995 240.145 352.995C242.682 354.45 244.259 357.139 244.287 360.06L244.119 392.334C244.123 392.744 244.097 393.15 244.041 393.549C243.751 395.627 242.674 397.52 241.031 398.83C240.751 399.053 240.455 399.26 240.143 399.447L211.23 416.851C210.985 416.998 210.734 417.131 210.479 417.251C208.234 418.304 205.623 418.289 203.382 417.198C203.216 417.117 203.052 417.031 202.89 416.938L173.411 400.051C173.41 400.05 173.41 400.05 173.409 400.049C170.803 398.555 169.216 395.763 169.268 392.763L169.188 359.949C169.238 357.076 170.785 354.439 173.269 352.995Z" fill="#ACFFDD"/>
<path d="M72.6978 99.7592L108.125 78.6167C111.286 76.7783 115.19 76.7667 118.366 78.5863L155.876 99.7592C159.033 101.568 160.994 104.913 161.029 108.547L160.82 148.688C160.825 149.149 160.798 149.606 160.742 150.056C160.411 152.697 159.06 155.108 156.979 156.769C156.631 157.046 156.263 157.303 155.875 157.536L119.913 179.182C119.644 179.344 119.37 179.492 119.091 179.627C116.275 180.989 112.977 180.989 110.153 179.614C109.946 179.514 109.741 179.406 109.54 179.29L72.8748 158.286C69.632 156.429 67.6571 152.955 67.7222 149.223L67.622 108.408C67.6843 104.835 69.6086 101.556 72.6978 99.7592Z" fill="#D6FFEE"/>
<path d="M291.67 63.6186L317.898 47.9666C320.237 46.6056 323.128 46.597 325.479 47.9441L353.248 63.6186C355.585 64.9575 357.037 67.434 357.063 70.1242L356.909 99.8414C356.912 100.239 356.885 100.632 356.828 101.018C356.549 102.909 355.562 104.629 354.065 105.823C353.807 106.029 353.534 106.219 353.248 106.391L326.624 122.416C326.385 122.56 326.14 122.69 325.89 122.805C323.833 123.754 321.448 123.733 319.399 122.736C319.245 122.662 319.094 122.582 318.945 122.496L291.802 106.947C289.401 105.572 287.939 103 287.987 100.237L287.913 70.0217C287.959 67.3765 289.383 64.9489 291.67 63.6186Z" fill="#D9E5FF"/>
<path d="M194.327 177.129L253.271 141.952C258.529 138.893 265.025 138.874 270.31 141.901L332.717 177.129C337.97 180.138 341.234 185.703 341.292 191.749L340.945 258.537C340.953 259.392 340.897 260.239 340.78 261.072C340.175 265.364 337.948 269.273 334.553 271.98C333.974 272.442 333.361 272.869 332.717 273.257L272.883 309.272C272.387 309.57 271.879 309.842 271.362 310.085C266.71 312.279 261.292 312.253 256.644 309.991C256.3 309.824 255.959 309.644 255.624 309.452L194.621 274.506C194.62 274.505 194.618 274.504 194.617 274.503C189.224 271.412 185.94 265.633 186.048 259.426L185.882 191.519C185.985 185.574 189.187 180.119 194.327 177.129Z" fill="#407CFF"/>
<path d="M266.5 226.884H245.5C244.572 226.884 243.682 227.252 243.025 227.909C242.369 228.565 242 229.455 242 230.384C242 231.312 242.369 232.202 243.025 232.858C243.682 233.515 244.572 233.884 245.5 233.884H266.5C267.428 233.884 268.318 233.515 268.975 232.858C269.631 232.202 270 231.312 270 230.384C270 229.455 269.631 228.565 268.975 227.909C268.318 227.252 267.428 226.884 266.5 226.884ZM280.5 212.884H245.5C244.572 212.884 243.682 213.252 243.025 213.909C242.369 214.565 242 215.455 242 216.384C242 217.312 242.369 218.202 243.025 218.858C243.682 219.515 244.572 219.884 245.5 219.884H280.5C281.428 219.884 282.318 219.515 282.975 218.858C283.631 218.202 284 217.312 284 216.384C284 215.455 283.631 214.565 282.975 213.909C282.318 213.252 281.428 212.884 280.5 212.884ZM287.5 195.384H238.5C235.715 195.384 233.045 196.49 231.075 198.459C229.106 200.428 228 203.099 228 205.884V240.884C228 243.668 229.106 246.339 231.075 248.308C233.045 250.277 235.715 251.384 238.5 251.384H279.065L292.015 264.369C292.342 264.693 292.73 264.95 293.156 265.124C293.583 265.298 294.039 265.386 294.5 265.384C294.959 265.395 295.415 265.299 295.83 265.104C296.469 264.841 297.016 264.395 297.402 263.822C297.789 263.249 297.997 262.575 298 261.884V205.884C298 203.099 296.894 200.428 294.925 198.459C292.955 196.49 290.285 195.384 287.5 195.384ZM291 253.449L282.985 245.399C282.658 245.074 282.27 244.818 281.844 244.643C281.417 244.469 280.961 244.381 280.5 244.384H238.5C237.572 244.384 236.682 244.015 236.025 243.358C235.369 242.702 235 241.812 235 240.884V205.884C235 204.955 235.369 204.065 236.025 203.409C236.682 202.752 237.572 202.384 238.5 202.384H287.5C288.428 202.384 289.318 202.752 289.975 203.409C290.631 204.065 291 204.955 291 205.884V253.449Z" fill="white"/>
<path d="M516.93 451.574L422.884 397.266L417.705 394.276C412.318 391.165 409 385.417 409 379.196L409 373.198L409 151.448L409 145.492C409 139.309 412.278 133.59 417.614 130.466L422.738 127.465L516.788 72.3874L521.867 69.413C527.188 66.2966 533.761 66.2273 539.148 69.2309L544.288 72.0975L643.754 127.566L649.068 130.529C654.582 133.604 658 139.424 658 145.737L658 151.84L658 372.808L658 378.952C658 385.303 654.542 391.15 648.977 394.21L643.61 397.161L544.14 451.859L539.055 454.655C533.716 457.59 527.232 457.522 521.957 454.476L516.93 451.574Z" fill="#D7FAF8"/>
<path d="M16.2014 238.476L35.6455 226.872C37.3801 225.863 39.5231 225.856 41.2664 226.855L61.8531 238.476C63.5858 239.468 64.6626 241.304 64.6818 243.299L64.5671 265.33C64.5672 265.338 64.5672 265.345 64.5673 265.352C64.5785 267.329 63.5479 269.166 61.853 270.186L42.1151 282.066C41.9756 282.15 41.8333 282.228 41.6887 282.299C40.1374 283.058 38.3167 283.062 36.7583 282.304C36.6447 282.249 36.5325 282.189 36.4219 282.126L16.2986 270.598C14.5188 269.578 13.4349 267.672 13.4706 265.623L13.4156 243.223C13.4498 241.262 14.5059 239.462 16.2014 238.476Z" fill="#AFF4F0"/>
</g>
<defs>
<clipPath id="clip0_4673_38191">
<rect width="596" height="475" fill="white"/>
</clipPath>
</defs>
</svg>
