<svg width="44" height="44" viewBox="0 0 44 44" fill="none" xmlns="http://www.w3.org/2000/svg">
<rect x="0.5" y="0.5" width="43" height="43" rx="5.5" fill="#18181B" stroke="#27272A"/>
<path d="M22 12.2471C19.6255 12.2472 17.3285 13.0922 15.52 14.6309C13.7115 16.1697 12.5095 18.3017 12.1292 20.6456C11.7488 22.9894 12.2148 25.3921 13.4439 27.4238C14.673 29.4555 16.5849 30.9836 18.8375 31.7346C19.3375 31.8221 19.525 31.5221 19.525 31.2596C19.525 31.0221 19.5125 30.2346 19.5125 29.3971C17 29.8596 16.35 28.7846 16.15 28.2221C15.9281 27.675 15.5763 27.1902 15.125 26.8096C14.775 26.6221 14.275 26.1596 15.1125 26.1471C15.4323 26.1818 15.739 26.2931 16.0067 26.4715C16.2743 26.6499 16.495 26.8902 16.65 27.1721C16.7868 27.4178 16.9707 27.6341 17.1912 27.8086C17.4117 27.9831 17.6645 28.1123 17.9351 28.189C18.2056 28.2656 18.4886 28.2881 18.7679 28.2552C19.0472 28.2222 19.3172 28.1345 19.5625 27.9971C19.6058 27.4887 19.8324 27.0134 20.2 26.6596C17.975 26.4096 15.65 25.5471 15.65 21.7221C15.636 20.7282 16.0027 19.7667 16.675 19.0346C16.3693 18.1708 16.4051 17.2229 16.775 16.3846C16.775 16.3846 17.6125 16.1221 19.525 17.4096C21.1613 16.9596 22.8887 16.9596 24.525 17.4096C26.4375 16.1096 27.275 16.3846 27.275 16.3846C27.645 17.2229 27.6808 18.1708 27.375 19.0346C28.0494 19.7654 28.4164 20.7278 28.4 21.7221C28.4 25.5596 26.0625 26.4096 23.8375 26.6596C24.0762 26.9015 24.26 27.1919 24.3764 27.5111C24.4929 27.8303 24.5393 28.1709 24.5125 28.5096C24.5125 29.8471 24.5 30.9221 24.5 31.2596C24.5 31.5221 24.6875 31.8346 25.1875 31.7346C27.4362 30.9775 29.3426 29.4458 30.5664 27.4131C31.7903 25.3804 32.2519 22.9789 31.8689 20.6373C31.4859 18.2957 30.2832 16.1664 28.4755 14.6296C26.6678 13.0927 24.3727 12.2483 22 12.2471Z" fill="white"/>
</svg>
