<svg width="44" height="44" viewBox="0 0 44 44" fill="none" xmlns="http://www.w3.org/2000/svg">
<rect x="0.5" y="0.5" width="43" height="43" rx="5.5" fill="#18181B" stroke="#27272A"/>
<path d="M21.29 25.29C21.247 25.3375 21.2069 25.3876 21.17 25.44C21.1322 25.4957 21.1019 25.5563 21.08 25.62C21.0512 25.6767 21.031 25.7374 21.02 25.8C21.0151 25.8666 21.0151 25.9334 21.02 26C21.0166 26.1312 21.044 26.2613 21.1 26.38C21.1449 26.5041 21.2166 26.6168 21.3099 26.7101C21.4032 26.8034 21.5159 26.8751 21.64 26.92C21.7597 26.9729 21.8891 27.0002 22.02 27.0002C22.1509 27.0002 22.2803 26.9729 22.4 26.92C22.5241 26.8751 22.6368 26.8034 22.7301 26.7101C22.8234 26.6168 22.8951 26.5041 22.94 26.38C22.9844 26.2584 23.0048 26.1294 23 26C23.0008 25.8684 22.9755 25.7379 22.9258 25.6161C22.876 25.4943 22.8027 25.3834 22.71 25.29C22.617 25.1963 22.5064 25.1219 22.3846 25.0711C22.2627 25.0203 22.132 24.9942 22 24.9942C21.868 24.9942 21.7373 25.0203 21.6154 25.0711C21.4936 25.1219 21.383 25.1963 21.29 25.29ZM22 12C20.0222 12 18.0888 12.5865 16.4443 13.6853C14.7998 14.7841 13.5181 16.3459 12.7612 18.1732C12.0043 20.0004 11.8063 22.0111 12.1922 23.9509C12.578 25.8907 13.5304 27.6725 14.9289 29.0711C16.3275 30.4696 18.1093 31.422 20.0491 31.8079C21.9889 32.1937 23.9996 31.9957 25.8268 31.2388C27.6541 30.4819 29.2159 29.2002 30.3147 27.5557C31.4135 25.9112 32 23.9778 32 22C32 20.6868 31.7413 19.3864 31.2388 18.1732C30.7363 16.9599 29.9997 15.8575 29.0711 14.9289C28.1425 14.0003 27.0401 13.2638 25.8268 12.7612C24.6136 12.2587 23.3132 12 22 12ZM22 30C20.4178 30 18.871 29.5308 17.5554 28.6518C16.2398 27.7727 15.2145 26.5233 14.609 25.0615C14.0035 23.5997 13.845 21.9911 14.1537 20.4393C14.4624 18.8874 15.2243 17.462 16.3432 16.3431C17.462 15.2243 18.8874 14.4624 20.4393 14.1537C21.9911 13.845 23.5997 14.0035 25.0615 14.609C26.5233 15.2145 27.7727 16.2398 28.6518 17.5554C29.5308 18.871 30 20.4177 30 22C30 24.1217 29.1572 26.1566 27.6569 27.6569C26.1566 29.1571 24.1217 30 22 30ZM22 17C21.4731 16.9997 20.9553 17.1381 20.4989 17.4014C20.0425 17.6648 19.6635 18.0437 19.4 18.5C19.3277 18.6138 19.2791 18.7411 19.2572 18.8742C19.2353 19.0073 19.2405 19.1434 19.2726 19.2744C19.3047 19.4054 19.363 19.5285 19.4439 19.6364C19.5248 19.7443 19.6267 19.8348 19.7435 19.9022C19.8602 19.9697 19.9895 20.0129 20.1233 20.0292C20.2572 20.0454 20.393 20.0345 20.5225 19.9969C20.6521 19.9593 20.7727 19.8959 20.8771 19.8105C20.9814 19.7251 21.0675 19.6195 21.13 19.5C21.2181 19.3474 21.345 19.2208 21.4978 19.133C21.6505 19.0452 21.8238 18.9993 22 19C22.2652 19 22.5196 19.1054 22.7071 19.2929C22.8946 19.4804 23 19.7348 23 20C23 20.2652 22.8946 20.5196 22.7071 20.7071C22.5196 20.8946 22.2652 21 22 21C21.7348 21 21.4804 21.1054 21.2929 21.2929C21.1054 21.4804 21 21.7348 21 22V23C21 23.2652 21.1054 23.5196 21.2929 23.7071C21.4804 23.8946 21.7348 24 22 24C22.2652 24 22.5196 23.8946 22.7071 23.7071C22.8946 23.5196 23 23.2652 23 23V22.82C23.6614 22.58 24.2174 22.1152 24.5708 21.5069C24.9242 20.8985 25.0525 20.1853 24.9334 19.4919C24.8143 18.7985 24.4552 18.169 23.919 17.7135C23.3828 17.258 22.7035 17.0055 22 17Z" fill="white"/>
</svg>
