<svg width="40" height="27" viewBox="0 0 40 27" fill="none" xmlns="http://www.w3.org/2000/svg">
<path d="M16.4051 9.64286C14.9873 9.64286 13.8397 10.1504 12.962 11.1654C12.1519 12.1128 11.7468 13.4323 11.7468 15.1241V27H0V14.109C0 9.91354 1.24895 6.53008 3.74684 3.95864C6.24473 1.31955 9.48523 0 13.4684 0H18.2278V9.64286H16.4051ZM38.1772 9.64286C36.827 9.64286 35.7131 10.1504 34.8354 11.1654C34.0253 12.1128 33.6203 13.4323 33.6203 15.1241V27H21.8734V14.109C21.8734 9.91354 23.0886 6.53008 25.519 3.95864C28.0169 1.31955 31.2574 0 35.2405 0H40V9.64286H38.1772Z" fill="#E4E4E7"/>
</svg>
