<svg width="247" height="58" viewBox="0 0 247 58" fill="none" xmlns="http://www.w3.org/2000/svg">
  <path d="M93.6443 16.6997L106.612 37.4333V16.6997H113.598V48.8385H106.381L93.3686 28.1429V48.8385H86.3818V16.6997H93.6443Z" fill="#003543"/>
  <path d="M124.71 25.417V38.6408C124.71 40.0402 125.135 41.2324 125.9 42.0681C126.644 42.8808 127.706 43.3451 128.973 43.3451C130.379 43.3451 131.576 42.8135 132.421 41.9069C133.286 40.9783 133.78 39.6651 133.78 38.1516V25.417H140.359V48.8385H133.78V46.4839C133.204 47.1489 132.508 47.7004 131.711 48.1287C130.43 48.817 128.886 49.1863 127.16 49.1863C124.439 49.1863 122.198 48.2233 120.626 46.5841C119.041 44.93 118.131 42.5769 118.131 39.7886V25.417H124.71Z" fill="#003543"/>
  <path d="M149.597 25.408L153.918 31.4935L158.195 25.408H165.552L157.526 36.6315L166.133 48.8295H159.016L153.92 41.7145L148.824 48.8295H141.66L150.269 36.6307L142.292 25.408H149.597Z" fill="#003543"/>
  <path d="M177.008 18.6558V25.4166H183.359V30.9992H177.008V41.6295C177.008 41.8696 177.106 42.0995 177.28 42.2699C177.456 42.4433 177.696 42.54 177.945 42.5404H183.359V48.8295H179.184C176.509 48.8295 174.311 48.0399 172.787 46.5949C171.292 45.1776 170.429 43.1219 170.429 40.5035V31.0036H165.939V25.4166H169.256C169.755 25.4166 170.161 25.2893 170.435 25.0208C170.708 24.7537 170.835 24.3589 170.835 23.8797V18.6558H177.008Z" fill="#003543"/>
  <path d="M203.407 16.6997V39.4408C203.407 42.5466 202.636 44.8477 201.255 46.3955C199.807 48.019 197.678 48.8385 194.97 48.8385H187.503V42.5494H195.125C195.47 42.5494 195.802 42.4157 196.046 42.1763C196.287 41.9402 196.422 41.6204 196.422 41.2864V16.6997H203.407Z" fill="#003543"/>
  <path d="M220.387 16.3472C223.88 16.3472 226.798 17.3428 228.885 19.0819C231.115 20.9411 232.408 23.6527 232.427 26.9558H225.709C225.689 25.527 225.117 24.3332 224.095 23.534C223.177 22.8168 221.908 22.4189 220.376 22.4189C218.944 22.4189 217.774 22.7281 216.964 23.3022C216.215 23.8333 215.796 24.5957 215.796 25.5211C215.796 26.6031 216.303 27.3312 217.116 27.8713C218.351 28.6923 220.23 29.111 222.244 29.576C225.15 30.2474 228.32 31.004 230.463 32.9178C232.037 34.3237 233.085 36.3403 233.085 39.4014C233.085 42.4219 231.831 44.8557 229.676 46.5481C227.51 48.249 224.415 49.1991 220.746 49.1991C217.015 49.1991 213.933 48.0864 211.734 46.1448C209.39 44.075 208.035 41.0577 207.985 37.3887L214.725 37.3837C214.792 39.2057 215.424 40.6964 216.558 41.692C217.581 42.5893 219.002 43.0774 220.744 43.0774C222.378 43.0774 223.761 42.7649 224.712 42.0902C225.537 41.5043 226.007 40.6369 226.007 39.4862C226.007 38.6786 225.711 38.0672 225.201 37.5835C224.526 36.9434 223.511 36.5163 222.332 36.146C221.581 35.9099 220.763 35.7005 219.915 35.487C218.969 35.2486 218.487 35.1262 218 34.9946C215.311 34.2379 212.823 33.2783 211.144 31.5416C209.79 30.1398 208.94 28.2376 208.94 25.5163C208.943 22.7995 210.135 20.496 212.185 18.8724C214.191 17.2839 217.031 16.3472 220.387 16.3472Z" fill="#003543"/>
  <path d="M40.3001 10.9602C38.6255 8.08096 34.4391 8.08096 32.7645 10.9602L14.5142 42.3402C12.8396 45.2196 14.9328 48.8187 18.282 48.8187H32.5292C31.0981 47.568 30.5681 45.4043 31.6511 43.5479L45.4731 19.8548L40.3001 10.9602Z" fill="#80EEC0"/>
  <path d="M51.8639 17.8435C53.2498 15.4877 56.7144 15.4877 58.1003 17.8435L73.2041 43.518C74.59 45.8738 72.8577 48.8186 70.0858 48.8186H39.8784C37.1067 48.8186 35.3743 45.8738 36.7602 43.518L51.8639 17.8435Z" fill="#00DC82"/>
</svg>
