<svg width="308" height="209" viewBox="0 0 308 209" fill="none" xmlns="http://www.w3.org/2000/svg">
<path d="M172.791 209H287.287C290.924 209 294.497 208.035 297.646 206.2C300.795 204.366 303.41 201.727 305.228 198.55C307.046 195.372 308.002 191.768 308 188.099C307.998 184.43 307.039 180.827 305.219 177.651L228.326 43.2938C226.509 40.117 223.894 37.4789 220.746 35.6447C217.597 33.8105 214.025 32.8448 210.389 32.8448C206.753 32.8448 203.181 33.8105 200.033 35.6447C196.884 37.4789 194.269 40.117 192.452 43.2938L172.791 77.671L134.35 10.4475C132.531 7.27095 129.915 4.63321 126.766 2.79932C123.616 0.96544 120.044 0 116.407 0C112.771 0 109.198 0.96544 106.049 2.79932C102.899 4.63321 100.284 7.27095 98.4645 10.4475L2.78107 177.651C0.960764 180.827 0.00158427 184.43 1.96086e-06 188.099C-0.00158035 191.768 0.95449 195.372 2.77205 198.55C4.58961 201.727 7.20458 204.366 10.3539 206.2C13.5033 208.035 17.076 209 20.7126 209H92.584C121.06 209 142.06 196.382 156.511 171.764L191.593 110.472L210.384 77.671L266.778 176.199H191.593L172.791 209ZM91.4682 176.154H41.2553L116.441 44.791L153.955 110.472L128.838 154.372C119.242 170.345 108.34 176.165 91.4124 176.165" fill="black"/>
</svg>
