<svg width="132" height="32" viewBox="0 0 132 32" fill="none" xmlns="http://www.w3.org/2000/svg">
<g clip-path="url(#clip0_3438_33993)">
<path d="M26.5438 31.4227H44.1325C44.6911 31.4228 45.24 31.2802 45.7237 31.0092C46.2075 30.7382 46.6093 30.3485 46.8885 29.8791C47.1677 29.4098 47.3145 28.8774 47.3143 28.3355C47.3141 27.7936 47.1667 27.2614 46.8871 26.7922L35.075 6.94689C34.7958 6.47766 34.3942 6.08799 33.9105 5.81706C33.4268 5.54614 32.8781 5.4035 32.3195 5.4035C31.761 5.4035 31.2123 5.54614 30.7286 5.81706C30.2449 6.08799 29.8432 6.47766 29.5641 6.94689L26.5438 12.0246L20.6386 2.09529C20.3591 1.62609 19.9573 1.23648 19.4735 0.965601C18.9897 0.694725 18.4409 0.552124 17.8822 0.552124C17.3236 0.552124 16.7748 0.694725 16.291 0.965601C15.8071 1.23648 15.4053 1.62609 15.1259 2.09529L0.427221 26.7922C0.14759 27.2614 0.000243372 27.7936 3.01223e-07 28.3355C-0.000242769 28.8774 0.146627 29.4098 0.425837 29.8791C0.705046 30.3485 1.10675 30.7382 1.59055 31.0092C2.07434 31.2802 2.62317 31.4228 3.18183 31.4227H14.2226C18.597 31.4227 21.823 29.5589 24.0428 25.9227L29.4321 16.8696L32.3187 12.0246L40.9819 26.5778H29.4321L26.5438 31.4227ZM14.0426 26.5728L6.33755 26.5711L17.8874 7.16802L23.6503 16.8696L19.7918 23.3539C18.3176 25.7132 16.6429 26.5728 14.0426 26.5728Z" fill="white"/>
<path d="M60.3644 31.1321V19.5774C60.3644 16.2709 60.0202 12.9644 60.0202 12.9644C60.0202 12.9644 61.3284 15.9802 62.981 18.8144L70.0388 31.1321H75.5818V5.69727H70.3831V17.2519C70.3831 20.5585 70.7274 23.9013 70.7274 23.9013C70.7274 23.9013 69.4191 20.8491 67.801 18.015L60.7087 5.69727H55.2002V31.1321H60.3644Z" fill="white"/>
<path d="M91.9602 12.819V22.8476C91.9602 25.1731 90.4798 26.9172 88.3797 26.9172C86.4173 26.9172 85.0401 25.3184 85.0401 23.1019V12.819H80.2546V24.2283C80.2546 28.4069 82.8023 31.4228 86.6927 31.4228C89.0682 31.4228 90.9962 30.3327 91.9602 28.5886V31.1321H96.7802V12.819H91.9602Z" fill="white"/>
<path d="M110.797 21.6122L116.615 12.819H111.348L108.18 17.6516L105.013 12.819H99.7797L105.598 21.5759L99.3322 31.1321H104.462L108.215 25.5001L111.933 31.1321H117.028L110.797 21.6122Z" fill="white"/>
<path d="M121.995 12.819H118.656V17.0339H121.995V24.4827C121.995 28.7339 124.578 31.1321 128.571 31.1321H131.429V26.8808H129.225C127.676 26.8808 126.781 26.0451 126.781 24.2647V17.0339H131.429V12.819H126.781V7.40503H121.995V12.819Z" fill="white"/>
</g>
<defs>
<clipPath id="clip0_3438_33993">
<rect width="131.429" height="32" fill="white"/>
</clipPath>
</defs>
</svg>
