<?xml version="1.0" encoding="utf-8"?>
<!-- Generator: Adobe Illustrator 27.0.0, SVG Export Plug-In . SVG Version: 6.00 Build 0)  -->
<svg version="1.1" id="Layer_1" xmlns="http://www.w3.org/2000/svg" xmlns:xlink="http://www.w3.org/1999/xlink" x="0px" y="0px"
	 viewBox="0 0 1276.51 230" style="enable-background:new 0 0 1276.51 230;" xml:space="preserve">
<style type="text/css">
	.st0{fill:#FFFFFF;}
</style>
<g>
	<path class="st0" d="M52.72,163.91c0.3-1.78-0.7-3.39-0.69-5.15c0.01-0.87-0.11-1.64,1.17-2.05c0.85,2.59,2.57,4.72,3.71,7.19
		c3.01,6.48,8.31,10.43,15.06,12.08c5.8,1.43,10.34-1.42,14.08-5.67c0.88-1,1.79-2,2.48-3.12c2.18-3.56,5.85-4.94,9.37-6.57
		c0.38-0.18,0.76-0.29,1.1,0.23c-0.32,1.3-2.06,1.27-2.53,3.03c0.09,0.22,1.11,0.2,1.2,1.31c-1.42,3-4.44,5.37-5.96,8.71
		c-0.25,1.2,0.66,2.03,0.82,3.24c0.96-1.4-0.87-3.35,1.33-4.31c1.13,1.54,2.35,2.88,2.91,4.84c0.62,2.2,4.09,4.13,6.42,4.03
		c2.74-0.12,5.55-2.14,5.97-4.89c0.54-3.58,2.48-5.9,5.58-7.82c0.45,1.28-0.69,1.98-0.65,3c0.17,0.76,1.01,0.82,1.53,1.27
		c0.44,9.42-2.84,13.43-10.89,15.75c-7.2,2.08-13.2-2.21-16.37-10.82c-0.71-0.15-1.13,0.39-1.59,0.75
		c-9.12,6.96-18.67,5.86-27.49,0.07c-5.81-3.81-9.44-9.34-11.26-16.03c-0.18-0.68-0.13-1.42-0.18-2.14l-0.07,0.06
		c1.17-1.28,0.62-3.03,1.14-4.59c1.95,2.28,2.58,5.09,3.9,7.54c0,0,0.16,0.13,0.16,0.13c0,0-0.16,0.13-0.16,0.13
		C52.8,164.1,52.72,163.91,52.72,163.91z"/>
	<path class="st0" d="M123.33,27.91c0.88,0.99,2.07,0.75,3.17,0.75c6.98,0.02,13.97,0.01,20.95,0.01c1.12,0,2.24,0,3.44,0
		c10.25,13.72,20.44,27.35,30.77,41.19c-2.3,7.21-4.6,14.42-6.91,21.67c0.01,0.72,0.61,1.23,0.86,1.89
		c0.82,2.19,0.32,4.24-1.34,5.54c-1.94,1.52-4.91,1.54-6.88,0.06c-1.68-1.26-2.07-2.98-1.22-5.46c0.02-0.07,0.18-0.09,0.27-0.13
		c1.04,0.93-0.35,2.38,0.55,3.03c-0.39-0.66-0.24-1.61,0.07-2.53c-0.03,0.03-0.06-0.17-0.09-0.13c-0.25-0.02-0.46-0.11-0.64-0.26
		c0.45-2.67,2.92-2.47,4.93-3.42c2.04-6.3,4.15-12.81,6.32-19.51c-9.5-12.73-19.01-25.46-28.51-38.17c-8.35,0-16.56,0-24.71,0
		c-3.57,3.49-6.5,3.87-9.13,1.24c-1.82-1.81-1.68-4.18,0.38-6.43c0.11,0.08,0.23,0.16,0.34,0.24c-0.17,1.35-1.07,2.59-0.66,3.97
		c-0.02-0.06-0.03-0.01-0.05-0.06c-0.12-1.55,0.3-2.89,1.27-4.05c0.2-0.21,0.43-0.38,0.69-0.5c1.14-0.38,2.28-0.5,3.44-0.14
		c0.28,0.06,0.55,0.15,0.81,0.26c0.47,0.3,0.9,0.67,1.44,0.87C123.05,27.86,123.19,27.89,123.33,27.91z"/>
	<path class="st0" d="M60.91,69.47c1.36,0.17,3.09-1.02,4.08,1.18c-1.33,1.02-2.68,1.85-4.19,2.6c-5.59,2.79-8.32,7.63-9.12,13.67
		c-0.08,0.58,0.08,1.24,0.3,1.79c0.94,2.27,1,4.54,0.09,6.89c-0.99,0.41-0.98-0.75-1.52-1.03c-0.77-0.47-1.59,0.52-2.7-0.39
		c-2-2.89-3.12-6.41-2.52-10.37c0.44-2.93,0.94-5.83,2.28-8.57c2.12-4.36,5.31-7.49,9.77-9.35c0.56-0.24,1.09-0.54,1.64-0.82
		c0,0-0.04-0.22-0.04-0.22c0,0,0.15-0.14,0.15-0.14s-0.19-0.08-0.19-0.09c0,0,0.08-0.21,0.08-0.21c-0.17-3.41,1.67-5.79,3.89-8.1
		c2.81-2.93,6.28-4.49,10.11-5.46c0.79-0.2,1.61-0.39,2.42-0.44c2.47-0.14,4.57-1.05,6.2-2.98c1.02-0.14,2.01-0.28,2.93-0.4
		c0.75,0.7,0.07,1.18-0.07,1.9c0.3,0.55,0.69,1.25,1.06,1.93c-0.15,0.37-0.21,0.68-0.38,0.92c-2.02,2.85-4.49,4.82-8.16,5.43
		c-3.53,0.59-6.24,2.96-8.81,5.36c-1.03,0.97-2,2-3,3l0.07-0.1c-0.02,0.29-0.04,0.59-0.06,0.99c-1.34,0.98-2.79,2.02-4.23,3.07
		c-0.13,0.09-0.26,0.19-0.4,0.28C60.7,69.71,60.81,69.59,60.91,69.47z"/>
	<path class="st0" d="M128.12,157.06c-2.42,1.65-3.05,1.65-5.6,0c0.48-1.01-0.49-1.49-0.81-2.2c-0.3-1.01-0.28-2.02,0.02-3.03
		c0.25-0.35,0.57-0.65,0.89-0.94c0.76-0.45,1.43-1.16,2.44-0.82c-0.02-0.01,0.02-0.28,0-0.28c-0.8,0.26-1.61,0.42-2.27,0.96
		c-0.32,0.24-0.59,0.53-0.86,0.82c-0.66,1.29-0.63,2.55,0.13,3.79c0.24,0.58,1,1,0.56,1.79c-2.34-1.46-3.01-3.1-2.14-5.25
		c0.93-2.29,3.28-3.64,5.67-3.21c1.79,0.32,3.23,1.22,4.24,2.86c19.39,0,38.68,0,58.32,0c-2.77,9.57-5.46,18.86-8.13,28.09
		c2.38,4.09,1.98,6.8-1.17,8.37c-2.88,1.44-5.74,0.36-6.9-2.6c2.04,0.09,3.03,2.81,5.37,2.15c0.39-0.37,0.89-0.51,1.36-0.73
		c0.28-0.22,0.53-0.48,0.77-0.72c0.21-0.21,0.42-0.43,0.64-0.63c0,0,0.05-0.25,0.05-0.25s-0.07,0.27-0.07,0.27
		c-0.23,0.22-0.45,0.44-0.67,0.67c-0.26,0.26-0.51,0.52-0.81,0.74c-0.52,0.14-0.99,0.4-1.42,0.72c-2.66-0.13-4.28-1.46-4.87-3.6
		c0,0.01,0.11,0.51,0.04,1c-0.03,0.2-0.14,0.37-0.3,0.51c-1.2-2.43-0.74-4.41,1.39-5.65c0.79-0.46,1.7-0.71,2.97-1.23
		c2.18-7.47,4.45-15.21,6.69-22.89c-0.97-0.8-1.93-0.51-2.81-0.51c-15.95-0.02-31.9-0.02-47.85,0c-1.2,0-2.49-0.3-3.48,0.74
		c-0.11,0-0.22,0.01-0.33,0.01c-0.45,0.11-0.77,0.38-1,0.77C128.18,156.86,128.15,156.96,128.12,157.06z"/>
	<path class="st0" d="M156.52,136.69c2.54-1.56,5.31-1.12,6.88,1.11c1.3,1.83,0.91,4.62-0.84,6.14c-2.56,2.22-5.41,1.72-8.63-1.55
		c-10.09-0.74-20.26-0.67-30.78-0.88c-1.11-18.9-0.99-37.59-1.89-56.2c-0.75-0.92-2.19-0.96-2.49-2.24
		c0.01-0.11,0.03-0.22,0.04-0.33c-0.01-0.11-0.01-0.22-0.02-0.35c-0.07-0.25-0.15-0.49-0.24-0.74c-0.62-2.38,0.4-4.12,2.51-4.87
		c1.81-0.65,3.86-0.75,4.98,1.51c0.63,0.66,0.69,1.45,0.46,2.28c0-0.01,0.23-0.07,0.22-0.09c-0.29-0.55,0.05-1.19-0.33-1.7
		c-0.25-0.32-0.45-0.67-0.36-1.1c0.09-0.1,0.18-0.19,0.27-0.29c1.27,1.07,1.3,1.06,1.75,2.91c-0.15,2.01-1.35,3.37-3.04,4.52
		c0.51,17.53,1.01,35.04,1.53,52.88c9.14,0.3,18.11,0.6,26.68,0.88c1.62-0.43,1.9-2.19,3.41-2.01c1.24,0.92,2.72,0.07,4.01,0.55
		c0.41,0.41,1.02,0.45,1.47,0.79c0.34,0.44,0.38,1.05,0.79,1.46c0.3,1.11,0.19,2.15-0.51,3.09c-0.19,0.29-0.43,0.54-0.67,0.78
		c0.01-0.01-0.21,0.16-0.21,0.16s0.2-0.16,0.21-0.17c0.23-0.24,0.46-0.47,0.65-0.74c0.69-1.02,0.95-2.1,0.41-3.27
		c-0.38-0.41-0.34-1.05-0.8-1.41c-0.52-0.23-1.06-0.42-1.51-0.8C159.16,136.8,157.78,137.39,156.52,136.69z"/>
	<path class="st0" d="M46.71,104.68c1.1-0.15,1.56-1.22,2.58-1.76c0.52,0,1.19,0,1.86,0c-2.17,1.59-1.95,4.92-4.57,6.1l0.08-0.08
		c-2.14,2.71-4.79,4.99-6.75,7.87c-1.86,2.73-3.25,5.7-4.3,8.78c-0.87,2.56,0.05,5.03,1.43,7.31c1.93,3.19,4.3,6.05,7.36,8.11
		c2.94,1.97,4.24,5.1,6.77,7.69c-1.77,0.46-2.42-1.07-3.7-1.02c-0.25,0.39-0.63,0.98-1.17,1.81c-5.15-2.73-9.88-5.98-13.49-10.67
		c-1-1.3-1.92-2.67-2.74-4.09c-1.8-3.1-2.75-6.44-2.03-10.03c1.94-9.73,7.04-17.31,15.49-22.58c0,0,0.28-0.06,0.28-0.06
		c0.15-0.13,0.31-0.24,0.48-0.35c0.18-0.11,0.36-0.22,0.54-0.33c0.27-0.19,0.55-0.37,0.87-0.45c0.11-0.01,0.22-0.02,0.34-0.02
		c1.07,0.12,1.4-1.34,2.5-1.16l-0.07-0.07c-0.03,1.02-0.92,1.59-1.28,2.43c0,0-0.02,0.27-0.02,0.27c0,0-0.26,0.02-0.26,0.02
		s0.25,0.05,0.26,0.05c0,0,0.02,0.26,0.02,0.26c-0.2,0.61-0.4,1.23-0.59,1.84c-0.2,0.26-0.44,0.49-0.65,0.71
		c-0.06,0.07-0.14,0.15-0.19,0.17c0.04-0.05,0.03,0,0.07-0.03c0.04-0.04,0.24-0.26,0.26-0.27
		C46.28,104.93,46.45,104.75,46.71,104.68z"/>
	<path class="st0" d="M150.99,89.76c1.34,1.43,1.34,1.43,1.15,4.31c-0.64,1.51-1.89,2.38-3.55,3.11c0.28,7.54,0.57,15.08,0.85,22.69
		c7.78,0.27,15.17,0.53,22.42,0.78c3.9-3.54,5.42-3.86,8.21-1.83c-1.03,0.73-2.16-0.01-3.01,0.17c0.62-0.07,1.42,0.21,2.08,0.15
		c1.07,0.6,1.65,1.42,2.21,2.27c0.31,0.7,0.27,1.41,0.04,2.12c-0.52,0.89-1.21,1.6-2.1,2.12c-0.79,0.38-1.61,0.29-2.42,0.14
		c0.02,0,0.02,0.23,0.04,0.22c0.76-0.36,1.63,0.14,2.35-0.35c0.83-0.46,1.48-1.12,1.97-1.93c0.51-0.9,0.46-1.77-0.1-2.62
		c-0.26-0.86-1.59-1.19-1.18-2.39c2.26,1.15,3.09,2.93,2.42,5.12c-0.61,1.98-3.06,3.61-5.27,3.44c-0.9-0.07-1.79-0.32-2.69-0.48
		c0,0-0.3,0.04-0.3,0.04c-0.21,0.01-0.39-0.05-0.56-0.17c0,0-0.21-0.22-0.21-0.22c-0.12-0.17-0.16-0.36-0.14-0.57
		c0,0,0.04-0.29,0.04-0.29c-0.62-1.69-2.09-1.34-3.38-1.37c-7.06-0.17-14.13-0.32-21.19-0.5c-0.8-0.02-1.64,0.18-2.71-0.48
		c-0.39-8.58-0.79-17.35-1.18-26.08c-3.3-3.67-3.57-6.56-0.84-8.59c2.11-1.57,5.65-0.93,7.13,1.29c-1.85-0.07-3.46-1.73-5.46-0.86
		c-1.07,0.69-2.09,1.43-2.49,2.71c0-0.01,0.25-0.04,0.25-0.05c0.07-1.56,1.45-1.97,2.38-2.76c2.07-0.26,3.9,0.08,5.13,1.98
		c0.61,0.69,0.31,1.54,0.39,2.31c0.04,0.2-0.01,0.39-0.12,0.55c0.01-0.01-0.04,0.25-0.03,0.24c0.01-0.01-0.22-0.1-0.21-0.11
		c0.01-0.02,0.24-0.02,0.25-0.04c0.08-0.2,0.11-0.39,0.1-0.59c-0.06-0.84,0.21-1.72-0.45-2.43
		C150.65,90.42,150.61,90.06,150.99,89.76z"/>
	<path class="st0" d="M114.52,48.37c1.43-3.05,4.77-3.96,7.54-1.95c0.72,0.52,1.2,1.37,1.71,1.96c7.99,0,15.68,0,23.59,0
		c4.25,6.09,8.53,12.21,12.77,18.29c2.17,0.74,4.9,0.36,5.77,3.25c-0.08,0.08-0.16,0.17-0.21,0.25c0.11,1.54,0.22,3.08-1.18,4.2
		c-0.5,0.29-1.09,0.41-1.51,0.82c-1.5,0.42-2.92,0.26-4.23-0.6c-0.29-0.19-0.52-0.44-0.69-0.75c0.09,0.18,0.21,0.35,0.35,0.5
		c1.49,1.08,3.07,1.47,4.81,0.66c0.39-0.38,1.02-0.33,1.38-0.76c0.23-0.34,0.47-0.64,0.91-0.7c0.11,0.07,0.22,0.15,0.33,0.22
		c-1.34,2.72-3.68,3.62-6.51,2.49c-2.97-1.18-3.69-3.39-2.35-7.53c-3.73-5.39-7.52-10.85-11.38-16.43c-7.16,0-14.31,0-21.52,0
		c-4.18,3.78-7.76,3.72-9.54-0.21c0.13-0.05,0.27-0.09,0.4-0.14c0.89,0.25,1.31,1.15,2.46,1.65c0.41,0.15,1.2-0.03,1.95,0.04
		c-0.02,0,0.27-0.08,0.25-0.08c-0.02,0.01,0.07,0.25,0.04,0.25c-0.04,0.01-0.24-0.2-0.24-0.2s-0.29,0.01-0.31,0.01
		c-2.54,0.31-3.65-1.3-4.59-3.23c0.66-2.25,2.02-3.54,4.24-3.8c-0.07,0,0-0.03-0.06-0.02c-1.62,0.03-2.52,1.35-3.79,1.95
		C114.77,48.49,114.64,48.43,114.52,48.37z"/>
	<path class="st0" d="M80.59,144.15c0.55-0.33,1.37,0.22,1.77-0.56l-0.04,0.08c0.94-1.06,2.3-0.69,3.61-1.05c-1.48-0.72-3.97,0.49-4.31-2.37
		c1.83-0.46,3.39-0.96,5.09-1.26c6.17-1.1,12.11-2.82,17.03-7.1c1.8-1.57,2.67-3.57,3.78-5.77c0.93-0.75,2.02-1.62,3.07-2.45
		c1.04,0.66,0.17,1.43,0.46,2.12c0.49,0.37,1.04,0.78,1.57,1.18c0.04,0.38,0.13,0.69,0.1,0.99c-0.29,2.83-1.32,5.47-3.17,7.52
		c-4.68,5.19-10.2,9.24-17.19,10.77c-3.39,0.74-6.85,1.29-10.29,0.1c0.17-0.21,0.35-0.43,0.52-0.65c-0.43-0.79-1.73-0.55-1.93-1.62
		L80.59,144.15z"/>
	<path class="st0" d="M157.19,190.06c-2.8,1.64-5.52,3.24-8.49,4.98c-5.92-6.96-11.75-13.83-17.66-20.77c-3.4,0.03-6.35-0.73-7.14-4.66
		c0.88-3.78,3.33-5.71,6.4-5.05c3.14,0.67,4.47,3.19,3.74,7.4c5,5.89,10.1,11.91,15.08,17.78c1.43,0.31,2.11-0.64,2.98-1.11
		c0.81-0.44,1.59-0.93,2.32-1.37c1.06-4.69,3.58-6.83,6.96-5.98c2.86,0.72,4.5,3.39,3.74,6.1
		C164.34,190.16,161.17,191.31,157.19,190.06z"/>
	<path class="st0" d="M82.98,72.42c-0.29-0.41,0.05-0.57,0.2-0.83c-0.99-0.6-1.99-1.2-3.03-1.83c1.72-0.93,3.44-1.42,5.38-1.06
		c-1.16-1.54-4-0.16-4.29-2.95c1.76-0.71,3.48-0.86,5.39-0.94c4.8-0.21,9.59-1.01,13.37-4.54c1.24-1.16,2.29-2.38,2.45-4.11
		c0.18-1.98,1.45-3.22,2.57-4.54c1.02,0.3,0.75,1.06,0.98,1.68c0.64,0.44,1.65,0.37,2.24,1.21c0.05,0.22,0.15,0.52,0.16,0.82
		c0.33,5.31-2.19,9.2-6.16,12.38c-5.23,4.17-11.05,6.13-17.77,4.85C83.96,72.44,83.44,72.45,82.98,72.42z"/>
	<path class="st0" d="M57.75,109.04c-0.75-0.13-0.79-0.8-1.01-1.31c0.16-0.41,0.53-0.08,0.77-0.27c0.26-0.33,0.09-0.71,0.02-1.09
		c-0.07-0.38-0.16-0.75-0.29-1.31c1.35,0.46,2.52,0.86,3.69,1.26c0,0-0.08,0.06-0.08,0.06c-0.21-0.65-0.41-1.29-0.62-1.94
		c1.13-1.47,2.11-0.93,3.07,0.12l0-0.03c1.67,1.31,3.31,2.68,5.03,3.93c3.03,2.18,6.4,3.57,10.37,4.07
		c0.95-0.29,2.13-0.65,3.52-1.07c0.88,0.22,1.96,0.48,3.25,0.8c-0.56,1.31-1.59,2.48-1.03,3.98c-2.89,2.16-5.92,3.03-9.36,2.6
		c-6.06-0.76-11.62-2.55-15.78-7.35c-0.64-0.74-1.63-1.31-1.51-2.52L57.75,109.04z"/>
	<path class="st0" d="M92.98,47.76c-0.99-1.18-1.44,0.65-2.35,0.21c-0.35-0.92-0.6-2.04-0.08-3.2l0.09,0.07c-1.2-0.25-1.27,1.22-2.39,1.45
		c-0.27-0.11-0.73-0.28-1.32-0.51c0.62-1.08,0.06-2.27,0.66-3.42c2.89-5.47,6.48-10.17,12.4-12.7c1.77-0.76,3.33-2,5.04-2.92
		c1.75-0.94,3.57-0.6,4.83,0.73c1.43,1.51,3.27,3.07,2.32,6.1c-1.05-0.98-0.96-2.34-2.2-3c-5.27,3.56-10.5,7.28-13.76,13.19
		c-0.81,1.47-1.67,3.06-3.27,3.96L92.98,47.76z"/>
	<path class="st0" d="M131.92,149.78c-1.65-0.18-2.05-1.3-1.64-2.62c0.41-1.33,1.57-1.8,2.94-1.71c0.98,0.07,1.55,0.96,2.46,1.39
		c20.51,0,41.02,0,61.46,0c0.42,1.2-0.02,2.04-0.28,2.92c-2.54,8.66-5.06,17.31-7.55,25.98c-0.28,0.97-0.73,1.93-0.59,2.99
		c-0.22,0.17-0.43,0.37-0.64,0.56c0.18-0.21,0.38-0.42,0.54-0.65c1.36,0.83,0.95,1.93,0.28,2.87c-0.65,0.91-1.75,1.15-2.79,0.76
		c-1.43-0.54-2.08-1.61-1.68-3.01c0.49-1.23,1.61-1.46,2.53-2.2c2.66-9.19,5.36-18.51,8.16-28.16c-20.01,0-39.53,0-59.04,0
		c-1.45,0.03-2.4,2.51-4.25,0.81l0.23-0.14L131.92,149.78z"/>
	<path class="st0" d="M112.89,37.61c1.74-1.83,3.3-0.85,4.89,0.03c9.43-0.45,18.88-0.36,28.49-0.45c8.88,11.43,17.75,22.85,26.79,34.5
		c-3,8-6.02,16.04-9.08,24.19c0.31,0.77,0.64,1.61,0.94,2.38c-1.33,2.7-1.81,2.84-4.42,1.38c-0.46-0.74-0.36-1.54-0.19-2.32
		c0.59-0.98,1.73-1.1,2.66-1.79c2.93-7.76,5.89-15.61,8.9-23.61c-8.69-11.22-17.37-22.41-26.29-33.91
		c-9.08,0.51-18.3,0.53-27.63,0.61c-0.9,1.38-1.76,2.99-3.82,2.17C112.73,40.22,112.45,39.1,112.89,37.61z"/>
	<path class="st0" d="M164.64,108.71c-3.03,2.03-3.72,1.92-5.4-0.81c1.1-3.29,2.15-3.52,5.71-1.23c9.69,0.74,19.49,0.1,29.53,1.17
		c0.67,9.67,0.04,19.35,1.1,29.4c0.16,0.7,1.68,1.06,1.61,2.41c-0.06,1.42-0.95,2.14-2.24,2.55c-1.61-0.04-2.77-0.65-3.06-2.27
		c-0.01-1.37,1.19-1.97,1.62-3.1c-0.29-8.96-0.58-17.99-0.88-27.15C183.16,109.06,174.03,108.84,164.64,108.71z"/>
	<path class="st0" d="M102.42,79c0.79-0.12,1.69,0.51,2.56-0.12c2.67,1.88,4.41,4.39,5.49,7.47c0.94,2.67,1.57,5.54,3.94,7.31
		c0.26,1.06,0.25,1.95-0.22,3c-1.31-0.75-2.66-0.2-4.33-0.03c-4.63-3.08-7.81-7.27-8.61-13c0.65-1.22,1.45-1.68,2.7-1.02
		C103.86,81.2,101.3,80.95,102.42,79z"/>
	<path class="st0" d="M169.48,187.75c0.34,0.98,1.16,1.47,1.18,2.37c-1.15,2.07-2.01,2.59-3.43,2.08c-1.24-0.45-1.45-1.03-1.14-3.26
		c0.55-0.83,1.66-0.82,2.42-1.68c2.51-8.67,5.08-17.5,7.73-26.63c-19.35,0-38.44,0-57.76,0c-1.23,1.08-2.65,2.44-4.63,0.92
		c-0.79-2.6-0.79-2.6,1.76-3.75c1.32-0.08,1.89,1.18,3.22,1.71c19.24,0,38.78,0,58.79,0C174.87,169.07,172.19,178.35,169.48,187.75z
		"/>
	<path class="st0" d="M165.32,131.53c0.65,1.01,0.6,1.81,0.32,2.62c-0.56,0.84-1.44,1.08-2.06,1.2c-1.67-0.22-2.25-1.41-3.14-2.57
		c-9.13,0-18.26,0-27.78,0c-0.53-13.74-1.35-27.13-1.59-40.49c-0.59-1.08-1.97-1.34-2.29-2.96c-0.12-0.94,0.42-1.83,1.73-2.14
		c1.55-0.37,2.58,0.28,3.11,1.68c0.16,1.39-0.93,2.05-1.61,3.03c0.52,13.08,1.05,26.22,1.57,39.14c1.03,0.92,2,0.64,2.9,0.66
		c7.3,0.13,14.61,0.09,21.91,0.47c1.19,0.06,2.42,0.22,3.51-0.73C162.94,130.54,164.16,130.76,165.32,131.53z"/>
	<path class="st0" d="M56.47,150.91c-0.33-0.9-1.21-1.73-0.17-2.95c2.69-0.88,5.56,1.95,8.23,0.24c1.38-0.47,1.14-2.89,3.38-1.98
		c0.6,1,0.53,2.57,1.56,3.3c-0.8,6.52-8.57,9.12-14.62,5.04c0.3-0.88-0.12-1.77-0.49-2.67c0.71-0.45,1.36-0.92,2.18-1.06
		L56.47,150.91z"/>
	<path class="st0" d="M164.42,181.16c-1.38-0.61-2.44-1.34-2.23-3.05c3.27-3.75,3.59-8.69,5.53-13.36c-9.5,0-18.6,0-27.89,0
		c-3.06,1.86-3.83,1.74-5.39-0.99c1.22-3.03,2.31-3.26,5.85-0.96c9.64,0,19.58,0,29.98,0c-1.48,4.54-2.85,8.77-4.27,13.14
		c0.18,0.9,1.39,1.39,1.4,2.88C167.24,180.1,166.32,181,164.42,181.16z"/>
	<path class="st0" d="M126.08,181.62c-1.21-0.34-2.31,0.02-3.66-1.11c-0.62-0.65-0.99-1.9,0.23-3.04c1.22-1.15,2.61-0.9,4.06,0.09
		c0.17,2.22,1.62,3.8,3.02,5.44c4.61,5.38,9.17,10.8,13.76,16.19c0.72,0.85,1.34,1.81,2.56,2.48c3-1.77,6.09-3.58,9.17-5.39
		c0.86-0.56,0.61-1.76,1.2-2.22c1.31-1.15,2.32-1.06,4.25,0.21c0.49,3.34,0.08,3.68-4.44,3.58c-3.43,2.05-6.94,4.16-10.83,6.49
		C138.98,196.79,132.56,189.24,126.08,181.62z"/>
	<path class="st0" d="M174.42,126.8c0.07,0.91,0.33,1.84-0.17,2.71c-2.41,1.56-2.81,1.51-5.24-0.7c-10.12-0.26-20.28-0.52-30.85-0.79
		c-0.6-14.27-1.21-28.48-1.81-42.64c-0.71-0.77-1.33-1.44-1.91-2.07c-0.2-1.57-0.06-2.8,1.82-2.94c0.21,0.35-0.02-0.2,0.12,0.19
		c0.03,0.07-0.04,0.04-0.21-0.1c2.01-0.63,2.06-0.6,3.47,1.8c-0.08,1.4-1.2,2.05-2.25,2.98c0.6,13.82,1.2,27.74,1.82,42.05
		c10.02,0,19.74,0,30.15,0c0.72-0.61,1.99-1.88,3.91-1.7l-0.09-0.07c0.21,0.27,0.47,0.48,0.7,0.72l-0.08-0.07
		c0.25,0.23,0.46,0.49,0.71,0.72L174.42,126.8z"/>
	<path class="st0" d="M112.72,68.83c-1.1-2.26-0.94-2.58,2.05-3.74c1.76,1.6,4.07,1.25,6.3,1.25c5.34,0.01,10.67,0,16.15,0
		c3.65,5.23,7.28,10.43,10.94,15.69c1.37,0.63,3.38,0.58,3.43,2.84c0.03,1.19-0.63,2-1.68,2.3c-1.09,0.31-2.3,0.41-2.69-1.14
		c0.41-0.27,0.72-0.69,1.17-0.91c-0.45,0.24-0.75,0.63-1.08,1.01c-1.48-0.69-0.32-2.04-1-3.44c-3.11-4.46-6.5-9.34-9.93-14.25
		c-6.37,0-12.61,0-18.9,0c-2.63,2.15-3.2,2.19-4.85,0.28l0.24-0.13L112.72,68.83z"/>
	<path class="st0" d="M197.31,135.77c0.93-1.73,0.93-1.73,2.26-2.77c-0.67-9.2-0.27-18.55-1.17-28.17c-9.29-0.32-18.52-0.1-27.45-0.98
		c-2.74,2.17-3.9,2.48-5.02,1.4c-1.22-1.18-0.98-2.36,0.21-3.5c1.19-0.4,2.33-0.53,3.35,0.55c0.87,0.92,2.09,0.8,3.19,0.84
		c3.49,0.11,6.99,0.17,10.48,0.2c5.43,0.05,10.83,0.38,16.5,0.79c-0.05,9.69,1.03,19.19,0.72,28.63c2.11,2.41,2.32,3.59,0.89,4.65
		C199.95,138.37,198.81,137.94,197.31,135.77z"/>
	<path class="st0" d="M188.44,116.34c-1.78,2.57-2.55,2.65-5.3,0.6c-9.14-0.18-18.36-0.37-27.77-0.56c-0.97-8.83-0.84-17.45-1.59-26.23
		c-0.47-0.57-1.05-1.26-1.51-1.81c-0.17-1.05-0.17-1.86,0.79-2.67c0.68-0.53,1.68-0.33,2.66-0.1c0.67,0.42,1,1.05,1.25,1.54
		c0.07,1.67-1.27,2.16-2.13,3.15c0.45,8.21,0.9,16.48,1.37,25.21c9.08,0.21,17.96,0.23,26.77,0.25
		C186.08,113.16,186.8,113.24,188.44,116.34z"/>
	<path class="st0" d="M186.11,126.22c2.17-1.85,2.88-1.68,4.41,1.06c0.19,1.21-0.89,1.82-1.34,3.14c0,4.25,0,8.85,0,13.8
		c-6.14,0.19-12.17,0.37-18.25,0.56c-2.17,1.31-2.17,1.31-4.45,0.94c-1.22-1.16-1.57-2.51-0.22-3.7c1.71-1.52,3.22-0.31,4.27,0.53
		c5.74,0,11.07,0,16.86,0c0.15-4.16-0.03-8.11-0.03-11.99c-2.38-2.47-2.38-2.47-1.14-4.43c0.17,0.23,0.36,0.44,0.55,0.65
		C186.55,126.59,186.34,126.39,186.11,126.22z"/>
	<path class="st0" d="M141.82,60.67c-7.27-0.4-14.45-0.49-21.58-0.51c-0.93,0.6-1.55,1.5-2.62,1.69c-2.46-0.91-2.46-0.91-2.35-3.34
		c1.21-0.85,1.21-0.85,2.63-1.1c1.07,0.12,1.46,1.13,2.27,1.6c7.26,0.62,14.57,0.31,22.16,0.56c4.06,6.5,8.19,13.1,12.37,19.79
		c1.44,0.24,3.16,0.16,3.61,2.23c-0.09,1.52-1.06,2.24-2.51,2.43c-1.02-0.16-1.78-0.61-2.24-1.5c-0.52-0.94,0.42-1.78,0.15-2.74
		C149.83,73.54,145.93,67.27,141.82,60.67z"/>
	<path class="st0" d="M154.13,177.78c1.3-0.66,2.58-0.77,3.58,0.49c0.54,0.68,0.56,1.54,0.07,2.32c-1.11,1.72-2.64,1.07-4.04,0.65
		c-1.5,0.85-2.91,1.65-4.52,2.56c-3.33-3.9-6.59-7.71-9.97-11.67c-1.35-0.28-3.37,0.2-3.67-2.25c0.14-1.36,1.08-2,2.32-2.24
		c0.98,0.02,1.61,0.51,1.69,0.59c1.12,1.38,0.6,2.36,0.89,3.58c2.84,3.36,5.88,6.96,8.97,10.61c1.2-0.72,2.24-1.35,3.04-1.83
		C153.62,179.78,153.08,178.37,154.13,177.78z"/>
	<path class="st0" d="M183.47,139.15c-3.82,0-7.31,0-10.56,0c-1.46,0.47-2.34,1.98-3.94,1.1c-1.51-2.16-1.43-2.41,1.17-3.35
		c1.05,0.06,1.49,1.07,2.5,1.53c3.09-0.19,6.36,0.09,9.7-0.4c0-2.46,0-4.7,0-6.99c-0.39-0.8-1.6-0.97-1.69-2.06
		c0.97-2.32,1.09-2.37,3.46-1.49c0.97,1.45-0.22,2.48-0.64,3.35C183.47,133.69,183.47,136.24,183.47,139.15z"/>
	<path class="st0" d="M150.98,166.39c1.73-0.9,2.93-0.43,3.68,1.37c0.09,0.23,0.47,0.34,0.72,0.51l-0.08-0.07c-0.02,0.91,0.82,1.02,1.34,1.43
		l0.02-0.09c-0.09,0.46-0.19,0.92,0.45,1.07l-0.07-0.09c0.95,0.9,0.49,1.98,0.29,3.05c-1.03,0.23-1.81,0.98-2.47,1.89l-0.04-0.09
		c-0.37,0.14-0.83,0.2-1.1,0.45c-1.79,1.62-2.36,1.6-3.82-0.3c-0.2-0.25-0.36-0.47-0.68-0.52l0.08,0.07
		c-0.14-0.9-1.27-1.1-1.47-1.52c-0.61-1.26-1.86-2.53-0.93-4.19c1.76-0.46,2.71-2.1,4.17-3.05L150.98,166.39z"/>
	<path class="st0" d="M115.63,27.24c3.05-2.29,5.3-2.09,7.7,0.68c-0.12,0.08-0.23,0.15-0.35,0.23c-0.68-0.02-1.18-0.43-1.7-0.79l0.13,0.09
		c-1.49-0.55-2.97-0.55-4.46,0l0.13-0.09c-0.33,0.36-0.72,0.41-1.15,0.21C115.82,27.45,115.73,27.34,115.63,27.24z"/>
	<path class="st0" d="M118.26,78.66c1.26-3.25,4.15-4,7.46-1.92c-0.09,0.11-0.18,0.21-0.27,0.32c-2.53-0.44-4.89-0.24-6.81,1.74
		C118.52,78.75,118.39,78.7,118.26,78.66z"/>
	<path class="st0" d="M118.76,83.08c-1.41-1.33-1.84-2.78-0.5-4.42l-0.01-0.01c0.47,1.37,0.71,2.78,0.73,4.23L118.76,83.08z"/>
	<path class="st0" d="M165.9,69.93c0.97,1.29,0.99,2.57-0.03,3.84l-0.09-0.08c-0.46-1.21-0.43-2.42-0.02-3.64L165.9,69.93z"/>
	<path class="st0" d="M114.55,52.1c-1.1-1.23-1.09-2.47-0.03-3.73l0.06,0.04C115.13,49.65,115.16,50.88,114.55,52.1L114.55,52.1z"/>
	<path class="st0" d="M47.83,160.83c-0.67-0.66-0.5-1.42-0.25-2.28c0.18,0.84,0.36,1.57,0.18,2.34L47.83,160.83z"/>
	<path class="st0" d="M129.53,155.97c-0.2,0.72-0.61,1.17-1.42,1.09l0.05,0.05c-0.37-1.03,0.29-1.25,1.08-1.35
		C129.34,155.83,129.44,155.9,129.53,155.97z"/>
	<path class="st0" d="M44.8,100.91c0.41-0.83,0.83-0.03,1.24,0l0.03-0.06c-0.29,0.24-0.61,0.38-1,0.31C44.98,101.08,44.89,101,44.8,100.91z"/>
	<path class="st0" d="M151.05,166.33c-0.07-0.03-0.15-0.06-0.22-0.09c0.05,0.05,0.1,0.1,0.16,0.16L151.05,166.33z"/>
	<path class="st0" d="M155.38,168.28c-0.12-0.23-0.08-0.4,0.17-0.55c0.41,0.41-0.01,0.4-0.25,0.48L155.38,168.28z"/>
	<polygon class="st0" points="82.36,143.6 82.35,143.49 82.32,143.67 	"/>
	<polygon class="st0" points="156.64,169.63 156.64,169.39 156.66,169.55 	"/>
	<polygon class="st0" points="80.65,144.09 80.52,144.05 80.59,144.15 	"/>
	<path class="st0" d="M157.11,170.62c0.11-0.12,0.23-0.24,0.36-0.39c0.15,0.58-0.17,0.4-0.43,0.31L157.11,170.62z"/>
	<path class="st0" d="M149.2,175.02c0.03,0.02,0.05,0.05,0.08,0.07L149.2,175.02z"/>
	<polygon class="st0" points="154.84,175.47 154.79,175.63 154.8,175.38 	"/>
	<polygon class="st0" points="92.95,47.73 92.86,47.86 92.98,47.76 	"/>
	<path class="st0" d="M59.02,65.07c-0.05-0.14-0.12-0.28-0.14-0.43c-0.01-0.07,0.09-0.15,0.14-0.22l-0.06-0.03c0.16,0.16,0.21,0.33,0.16,0.49
		c-0.05,0.16-0.1,0.24-0.16,0.24L59.02,65.07z"/>
	<path class="st0" d="M47.19,102.12c0.16,0.11,0.32,0.21,0.47,0.32c-0.16,0.1-0.32,0.19-0.48,0.29l0.07,0.07c-0.16-0.16-0.22-0.32-0.16-0.48
		c0.05-0.16,0.11-0.24,0.16-0.24L47.19,102.12z"/>
	<path class="st0" d="M43.53,102.12c-0.02-0.43,0.2-0.62,0.62-0.61c0.08,0.11,0.16,0.23,0.24,0.34c-0.1,0.1-0.19,0.2-0.29,0.3l0.09-0.05
		c-0.23,0.21-0.46,0.22-0.69,0.01L43.53,102.12z"/>
	<path class="st0" d="M44.16,101.51c0-0.43,0.22-0.62,0.64-0.6c0,0-0.07-0.06-0.07-0.06c0.21,0.61,0.07,0.89-0.61,0.62L44.16,101.51z"/>
	<path class="st0" d="M125.72,76.74c0.4,0.04,0.66,0.21,0.57,0.67c0,0-0.02,0.01-0.02,0.01c-0.53,0.23-0.69-0.04-0.71-0.51L125.72,76.74z"/>
	<path class="st0" d="M48.53,99.76c0.01-0.08,0.02-0.15,0.03-0.23c-0.03,0.05-0.06,0.11-0.09,0.16L48.53,99.76z"/>
	<path class="st0" d="M150.38,172.48c-0.58-0.94-0.36-1.25,1.27-1.76c0.04,0.14,0.09,0.28,0.13,0.41c-0.05,0.64-0.38,1.07-0.97,1.3
		C150.67,172.45,150.53,172.47,150.38,172.48z"/>
	<path class="st0" d="M154.06,170.72c0.98,1.08-0.14,0.93-0.66,1.13c-0.03-0.12-0.06-0.25-0.09-0.37c0.07-0.25,0.19-0.47,0.39-0.64
		C153.82,170.8,153.94,170.76,154.06,170.72z"/>
	<path class="st0" d="M152.18,173.11c-0.39,0.67-0.77,1.05-1.16,0c0.08-0.08,0.17-0.15,0.25-0.23c0.22-0.07,0.44-0.07,0.66,0
		C152.02,172.95,152.1,173.03,152.18,173.11z"/>
	<path class="st0" d="M152.27,170.08c0.02-0.47,0.32-0.66,0.73-0.61c0.3,0.04,0.43,0.29,0.4,0.6c-0.08,0.08-0.16,0.15-0.24,0.23
		c-0.22,0.07-0.43,0.07-0.65,0C152.43,170.23,152.35,170.16,152.27,170.08z"/>
	<path class="st0" d="M151.66,170.72c-0.12-0.52,0.19-0.63,0.61-0.64c0,0-0.08-0.08-0.08-0.08c0.22,0.62-0.02,0.8-0.61,0.62L151.66,170.72z"/>
	<path class="st0" d="M153.4,170.08c0.4,0.02,0.58,0.28,0.66,0.64c0,0,0.06-0.08,0.06-0.08c-0.65,0.23-0.81-0.03-0.64-0.63L153.4,170.08z"/>
	<path class="st0" d="M153.4,171.85c0.08,0.48-0.21,0.6-0.6,0.63c-0.03-0.11-0.05-0.23-0.08-0.34c0.19-0.29,0.38-0.59,0.76-0.2L153.4,171.85z"/>
	<path class="st0" d="M151.02,173.1c-0.44,0.02-0.62-0.21-0.64-0.62c0,0-0.07,0.07-0.07,0.07c0.65-0.24,0.81,0.02,0.64,0.62L151.02,173.1z"/>
	<path class="st0" d="M152.8,172.48c0.03,0.44-0.18,0.64-0.62,0.63c0,0,0.08,0.07,0.08,0.07c-0.22-0.62,0.01-0.8,0.61-0.62L152.8,172.48z"/>
</g>
<g>
	<path class="st0" d="M254.15,184.61V61.37h57.67v13.71h13.52v35.06h-13.52v13.71h13.52v47.09h-13.52v13.67H254.15z M298.28,110.14V75.08h-17.06
		v35.06H298.28z M298.28,170.94v-47.09h-17.06v47.09H298.28z"/>
	<path class="st0" d="M382.05,116.14V88.76h27.06v27.38H382.05z M382.05,184.61v-27.38h27.06v27.38H382.05z"/>
	<path class="st0" d="M509.92,184.61v-27.38h-13.55v-27.38h-13.51v-27.38h-13.55V75.08h-13.51V61.37h27.06v13.71h13.51v27.38h13.55v27.38h13.55
		v27.38h13.52v27.38H509.92z"/>
	<polygon class="st0" points="651.36,102.46 651.36,88.76 610.75,88.76 610.75,101.9 597.2,101.9 597.2,88.76 573.69,88.76 573.69,112.02
		585.08,112.02 584.13,171.67 573.94,171.67 573.69,184.61 620.75,184.61 620.75,171.67 609.2,171.67 610.27,123.95 623.56,123.95
		623.56,112.22 637.82,112.22 637.82,135.39 664.88,135.39 664.88,102.46 	"/>
	<path class="st0" d="M735.26,170.94v13.67h-35.53v-13.67h-12.82v-34.99h12.82v-13.71h35.53v-10.85h-35.53V88.76h51.38v13.71h10.82v68.47h12
		v13.67h-22.82v-13.67H735.26z M735.26,170.94v-34.99h-22.67v34.99H735.26z"/>
	<path class="st0" d="M839.48,79.57V59.48h21.56v20.09H839.48z M821.48,184.61v-13.5h18v-59.65h-18v-22.7h39.06l0.65,83.47h9.35v12.39H821.48z"
		/>
	<path class="st0" d="M923,184.61v-72.67h-9.78V88.76h20.03v16.49h13.42V88.76h34.22v13.71h13.52v82.15h-27.06v-72.67h-20.91v72.67H923z"/>
	<path class="st0" d="M1041.12,185.62v-16.2h13.51v-16.16h13.55v-16.2h13.51v-16.2h-13.51v-16.16h-13.55v-16.2h-13.51V72.32h27.06v16.16h13.51
		v16.2h13.55v16.16h13.55v16.2h-13.55v16.2h-13.55v16.16h-13.51v16.2H1041.12z"/>
	<path class="st0" d="M1137.05,187.96v-13.67h96.19v13.67H1137.05z"/>
</g>
</svg>
