<svg id="Layer_2" data-name="Layer 2" xmlns="http://www.w3.org/2000/svg" viewBox="0 0 277 77"><defs><style>.cls-1{fill:none;}.cls-2{fill:#f6bdd6;}.cls-3{fill:#e95495;}.cls-4{fill:#f195bd;}.cls-5{fill:#777475;}.cls-6{fill:#aba9a9;}.cls-7{fill:#fff;}</style></defs><path class="cls-1" d="M55.35,21,78.51,32.36l5.7-2.8L54.69,15.07,25.18,29.56l5.69,2.8L54,21A1.53,1.53,0,0,1,55.35,21Z"/><polygon class="cls-1" points="30.87 35.7 25.18 38.5 30.87 41.3 36.57 38.5 30.87 35.7"/><polygon class="cls-1" points="78.51 41.3 84.21 38.5 78.51 35.7 72.81 38.5 78.51 41.3"/><path class="cls-1" d="M54,29.93a1.46,1.46,0,0,1,1.32,0l14.06,6.9L75.1,34,54.69,24,34.28,34,40,36.83Z"/><polygon class="cls-2" points="43.38 38.5 54.69 44.05 66 38.5 54.69 32.95 43.38 38.5"/><path class="cls-3" d="M54.69,56.16A1.52,1.52,0,0,1,54,56L30.87,44.64l-5.69,2.8L54.69,61.93,84.21,47.44l-5.7-2.8L55.35,56A1.52,1.52,0,0,1,54.69,56.16Z"/><path class="cls-4" d="M54.69,47.22a1.52,1.52,0,0,1-.66-.15L40,40.17,34.28,43,54.69,53,75.1,43l-5.69-2.8-14.06,6.9A1.52,1.52,0,0,1,54.69,47.22Z"/><polygon class="cls-5" points="38.27 39.34 36.57 38.5 30.87 41.3 32.58 42.13 34.28 42.97 39.98 40.17 38.27 39.34"/><path class="cls-6" d="M55.35,29.93a1.46,1.46,0,0,0-1.32,0L40,36.83l1.71.83,1.7.84L54.69,33,66,38.5l1.71-.84,1.7-.83Z"/><polygon class="cls-5" points="72.81 38.5 71.11 39.34 69.41 40.17 75.1 42.97 76.81 42.13 78.51 41.3 72.81 38.5"/><path class="cls-5" d="M75.1,34l3.41-1.67L55.35,21A1.53,1.53,0,0,0,54,21L30.87,32.36,34.28,34,54.69,24Z"/><path class="cls-7" d="M89.11,38.5a1.52,1.52,0,0,0-.84-1.35L81.91,34l6.36-3.12a1.5,1.5,0,0,0,0-2.69L55.35,12.06a1.46,1.46,0,0,0-1.32,0L21.11,28.22a1.5,1.5,0,0,0,0,2.69L27.47,34l-6.36,3.12a1.5,1.5,0,0,0,0,2.7L27.47,43l-6.36,3.12a1.5,1.5,0,0,0,0,2.69L54,64.94a1.44,1.44,0,0,0,1.32,0L88.27,48.78a1.5,1.5,0,0,0,0-2.69L81.91,43l6.36-3.12A1.52,1.52,0,0,0,89.11,38.5ZM25.18,29.56,54.69,15.07,84.21,29.56l-5.7,2.8L75.1,34l-5.69,2.8-1.7.83L66,38.5,54.69,44.05,43.38,38.5l-1.7-.84L40,36.83,34.28,34l-3.41-1.67Zm0,17.88,5.69-2.8L54,56a1.53,1.53,0,0,0,1.32,0L78.51,44.64l5.7,2.8L54.69,61.93ZM78.51,41.3l-1.7.83L75.1,43,54.69,53,34.28,43l-1.7-.84-1.71-.83-5.69-2.8,5.69-2.8,5.7,2.8,1.7.84,1.7.83L54,47.07a1.53,1.53,0,0,0,1.32,0l14.06-6.9,1.7-.83,1.7-.84,5.7-2.8,5.7,2.8Z"/><path class="cls-7" d="M107.72,51.29V18.55h5.93V46.32h14.42v5Z"/><path class="cls-7" d="M140,51.79a10.1,10.1,0,0,1-4.2-.84,6.75,6.75,0,0,1-2.94-2.49,7.25,7.25,0,0,1-1.08-4.06,7,7,0,0,1,.77-3.44,6,6,0,0,1,2.09-2.17,10.89,10.89,0,0,1,3-1.24,25.77,25.77,0,0,1,3.46-.62c1.44-.14,2.61-.28,3.5-.4a5.2,5.2,0,0,0,2-.58,1.35,1.35,0,0,0,.62-1.22v-.1a3.66,3.66,0,0,0-1.07-2.8,4.41,4.41,0,0,0-3.09-1,5.45,5.45,0,0,0-3.36.93A4.53,4.53,0,0,0,138,34l-5.41-.77a8.76,8.76,0,0,1,2.11-3.75,9.28,9.28,0,0,1,3.6-2.26,13.79,13.79,0,0,1,4.7-.76,15.13,15.13,0,0,1,3.53.41,9.89,9.89,0,0,1,3.21,1.37,7,7,0,0,1,2.35,2.58,8.5,8.5,0,0,1,.88,4.08V51.29h-5.56V47.92h-.19a7,7,0,0,1-3.86,3.33A9.49,9.49,0,0,1,140,51.79Zm1.5-4.26a6.26,6.26,0,0,0,3-.69,5.13,5.13,0,0,0,2-1.85,4.79,4.79,0,0,0,.69-2.51V39.59a2.49,2.49,0,0,1-.92.41,14,14,0,0,1-1.44.34c-.54.1-1.06.18-1.59.26l-1.35.19a10,10,0,0,0-2.32.57A4,4,0,0,0,138,42.47a2.81,2.81,0,0,0-.59,1.83,2.76,2.76,0,0,0,1.17,2.42A5.1,5.1,0,0,0,141.51,47.53Z"/><path class="cls-7" d="M161.51,60.45a12.25,12.25,0,0,1-2.18-.18,7.92,7.92,0,0,1-1.59-.44l1.34-4.5a5.8,5.8,0,0,0,3.17.19,3.63,3.63,0,0,0,2.12-2.39l.5-1.33L156,26.73h6.14l5.66,18.55H168l5.67-18.55,6.19,0L170,54.26a11,11,0,0,1-1.83,3.31,7.55,7.55,0,0,1-2.77,2.14A9.5,9.5,0,0,1,161.51,60.45Z"/><path class="cls-7" d="M193.9,51.77a12.52,12.52,0,0,1-6.37-1.54,10.32,10.32,0,0,1-4.12-4.38A14.63,14.63,0,0,1,182,39.16a14.52,14.52,0,0,1,1.45-6.66A10.86,10.86,0,0,1,187.47,28a11.45,11.45,0,0,1,6.12-1.6,12.73,12.73,0,0,1,4.3.72,10,10,0,0,1,3.58,2.25,10.57,10.57,0,0,1,2.45,3.86,15.52,15.52,0,0,1,.9,5.57V40.6H184.69V36.69h14.58a6.26,6.26,0,0,0-.72-3,5.22,5.22,0,0,0-2-2,5.48,5.48,0,0,0-2.92-.76,5.65,5.65,0,0,0-3.11.86A6,6,0,0,0,188.47,34a6.48,6.48,0,0,0-.76,3v3.4a8,8,0,0,0,.78,3.67,5.51,5.51,0,0,0,2.2,2.33,6.45,6.45,0,0,0,3.29.81,6.82,6.82,0,0,0,2.28-.36A4.91,4.91,0,0,0,198,45.84a4.42,4.42,0,0,0,1.13-1.74l5.41.6a8.36,8.36,0,0,1-2,3.74A9.42,9.42,0,0,1,199,50.9,13.83,13.83,0,0,1,193.9,51.77Z"/><path class="cls-7" d="M209.71,51.29V26.73h5.61v4.1h.25a6.13,6.13,0,0,1,2.32-3.29,6.33,6.33,0,0,1,3.74-1.16c.32,0,.68,0,1.08,0a9.17,9.17,0,0,1,1,.12v5.33a5.28,5.28,0,0,0-1.16-.23,11.45,11.45,0,0,0-1.52-.11,5.9,5.9,0,0,0-2.84.68,5,5,0,0,0-2,1.88,5.25,5.25,0,0,0-.71,2.76V51.29Z"/><path class="cls-3" d="M243.17,53.43h-.73A12.14,12.14,0,0,1,230.32,41.3v-10a12.14,12.14,0,0,1,12.12-12.13h.73A12.14,12.14,0,0,1,255.3,31.3v10A12.14,12.14,0,0,1,243.17,53.43Zm-.73-28.26a6.13,6.13,0,0,0-6.12,6.13v10a6.13,6.13,0,0,0,6.12,6.13h.73a6.14,6.14,0,0,0,6.13-6.13v-10a6.14,6.14,0,0,0-6.13-6.13Z"/><rect class="cls-3" x="230.55" y="33.33" width="24.53" height="6" transform="translate(44.03 180.43) rotate(-44.45)"/></svg>