<svg viewBox="0 0 120 42.858" fill="#57349a" xmlns="http://www.w3.org/2000/svg">
  <path d="M14.614 25.875c-3.719-.985-6.931-1.836-6.931-5.164a4.266 4.266 0 014.546-4.149c3.139 0 4.083 2.026 5 3.986.756 1.622 1.47 3.154 3.39 3.154a2.68 2.68 0 002.822-2.651c0-3.421-4.321-6.958-11.549-6.958-6.564 0-11.325 3.474-11.325 8.261 0 6.389 5.108 7.711 9.613 8.878 3.691.955 6.878 1.78 6.878 5.064 0 2.6-1.869 4.149-5 4.149-3.546 0-4.535-2.07-5.491-4.072-.768-1.607-1.494-3.125-3.519-3.125C1.139 33.248 0 34.3 0 36.069 0 39.378 4.511 42.8 12.058 42.8c7.134 0 12.117-3.328 12.117-8.092 0-6.3-5.08-7.647-9.561-8.834M61.758 14.093a3.07 3.07 0 00-3.331 3.218c0 1.89 1.086 3.018 2.236 4.214 1.269 1.318 2.58 2.683 2.58 5.25 0 7.164-4.688 12.933-8.568 12.933a2.869 2.869 0 01-2.134-.818c-.846-.86-1.258-2.381-1.223-4.52l.114-18.7a1.539 1.539 0 00-.493-1.253 1.993 1.993 0 00-1.692-.261l-5.547 1.13a1.3 1.3 0 00-1.2 1.232v.169c0 .562.419.944.863 1.348a3.073 3.073 0 011.291 2.45v7.82c0 7.138-3.637 11.4-7.153 11.4a2.75 2.75 0 01-2.044-.816c-.856-.87-1.29-2.393-1.255-4.409l.113-18.815a1.362 1.362 0 00-.4-1.095 2.287 2.287 0 00-1.772-.251l-6.015.965a1.3 1.3 0 00-1.137 1.231v.169c0 .562.42.944.864 1.348a3.072 3.072 0 011.29 2.45v11.5c0 9.81 6.333 10.869 9.055 10.869a10.917 10.917 0 009.469-5.01 7.7 7.7 0 007.646 5.01c7.035 0 14.156-6.712 14.156-19.54 0-5.69-2.188-9.225-5.712-9.225M82.966 27.528a35.408 35.408 0 01-7.879.349 20.7 20.7 0 01-.147-2.519c0-4.965 2.723-8.569 6.474-8.569a5.464 5.464 0 015.4 5.229c.06 4.1-1.915 5.085-3.851 5.51m11 5.617a1.357 1.357 0 00-1.548.468l-.023.036c-1.184 2.367-4.417 4.02-7.864 4.02-4.078 0-7.255-2.493-8.76-6.853A28.192 28.192 0 0084.3 30.5c5.819-1.252 9.294-4.423 9.294-8.485a6.9 6.9 0 00-2.054-5.093c-1.876-1.859-4.928-2.866-8.59-2.828-8.07.059-13.928 6.012-13.928 14.156 0 8.738 5.758 14.609 14.326 14.609a11.694 11.694 0 008.136-2.969 9.913 9.913 0 003.127-5.544v-.011a1.085 1.085 0 00-.648-1.189M106.122 39.572a2.652 2.652 0 01-1.309-2.2V1.363A1.333 1.333 0 00104.219.2a1.808 1.808 0 00-1.756.066L96.739 3.1c-.508.254-1.083.541-1.083 1.212v.168c0 .494.367.846.791 1.254.582.557 1.306.426 1.306 1.773v29.866a2.709 2.709 0 01-1.181 2.206 2 2 0 00-.916 1.477v.171c0 .646.552 1.064 1.405 1.064h8.614c.86 0 1.462-.438 1.462-1.064v-.171c0-.669-.494-1.065-1.015-1.484M118.985 39.572a2.653 2.653 0 01-1.308-2.2V1.363a1.334 1.334 0 00-.6-1.166 1.809 1.809 0 00-1.755.066L109.6 3.1c-.507.254-1.081.541-1.081 1.212v.168c0 .494.366.846.791 1.254.582.557 1.306.426 1.306 1.773v29.866a2.707 2.707 0 01-1.182 2.206 2 2 0 00-.915 1.477v.171c0 .646.551 1.064 1.405 1.064h8.613c.861 0 1.462-.438 1.462-1.064v-.171c0-.669-.493-1.065-1.015-1.484" fill-rule="nonzero"></path>
</svg>