<svg fill="none" height="896" viewBox="0 0 1420 896" width="1420" xmlns="http://www.w3.org/2000/svg" xmlns:xlink="http://www.w3.org/1999/xlink"><clipPath id="a"><rect height="416" rx="6" width="352" x="1004.43" y="336.417"/></clipPath><clipPath id="b"><rect height="416" rx="6" width="352" x="63" y="336"/></clipPath><clipPath id="c"><rect height="416" rx="6" width="352" x="534" y="336"/></clipPath><rect fill="#fcfcfd" height="213.045" rx="8" stroke="#ededee" stroke-width="2" width="352.857" x="62" y="77.5825"/><path d="m104.382 159v-16.406h-5.4337v-1.794h13.0517v1.794h-5.434v16.406zm10.155 0v-18.72h2.184v8.034c.433-.797 1.049-1.413 1.846-1.846.797-.451 1.664-.676 2.6-.676 1.491 0 2.687.468 3.588 1.404.901.919 1.352 2.34 1.352 4.264v7.54h-2.158v-7.306c0-2.687-1.083-4.03-3.25-4.03-1.127 0-2.071.407-2.834 1.222-.763.797-1.144 1.941-1.144 3.432v6.682zm20.677.312c-1.231 0-2.323-.277-3.276-.832-.953-.572-1.707-1.361-2.262-2.366-.537-1.005-.806-2.193-.806-3.562 0-1.352.269-2.531.806-3.536.537-1.023 1.283-1.811 2.236-2.366.971-.572 2.089-.858 3.354-.858 1.248 0 2.323.286 3.224.858.919.555 1.621 1.291 2.106 2.21s.728 1.907.728 2.964c0 .191-.009.381-.026.572v.65h-10.27c.052.988.277 1.811.676 2.47.416.641.927 1.127 1.534 1.456.624.329 1.283.494 1.976.494.901 0 1.655-.208 2.262-.624s1.049-.979 1.326-1.69h2.158c-.347 1.196-1.014 2.193-2.002 2.99-.971.78-2.219 1.17-3.744 1.17zm0-11.674c-1.04 0-1.967.321-2.782.962-.797.624-1.257 1.543-1.378 2.756h8.112c-.052-1.161-.451-2.071-1.196-2.73s-1.664-.988-2.756-.988zm16.588 11.362v-11.05h-1.95v-1.846h1.95v-2.236c0-1.248.312-2.158.936-2.73s1.534-.858 2.73-.858h1.3v1.872h-.962c-.659 0-1.127.139-1.404.416-.278.26-.416.711-.416 1.352v2.184h3.172v1.846h-3.172v11.05zm12.662.312c-1.525 0-2.739-.459-3.64-1.378-.901-.936-1.352-2.366-1.352-4.29v-7.54h2.184v7.306c0 2.687 1.101 4.03 3.302 4.03 1.127 0 2.054-.399 2.782-1.196.745-.815 1.118-1.967 1.118-3.458v-6.682h2.184v12.896h-1.976l-.156-2.314c-.399.815-.997 1.456-1.794 1.924-.78.468-1.664.702-2.652.702zm10.173-.312v-18.72h2.184v18.72zm5.763 0v-18.72h2.184v18.72zm12.775 0v-18.2h2.184v8.034h9.438v-8.034h2.184v18.2h-2.184v-8.372h-9.438v8.372zm21.91 0v-16.406h-5.434v-1.794h13.052v1.794h-5.434v16.406zm10.285 0v-18.2h2.548l6.552 12.688 6.5-12.688h2.574v18.2h-2.184v-14.3l-6.084 11.7h-1.638l-6.084-11.674v14.274zm22.014 0v-18.2h2.184v16.458h8.476v1.742zm21.737-15.756c-.433 0-.797-.139-1.092-.416-.277-.295-.416-.659-.416-1.092 0-.416.139-.763.416-1.04.295-.277.659-.416 1.092-.416.416 0 .771.139 1.066.416s.442.624.442 1.04c0 .433-.147.797-.442 1.092-.295.277-.65.416-1.066.416zm-1.092 15.756v-12.896h2.184v12.896zm10.927.312c-1.543 0-2.826-.39-3.848-1.17-1.023-.78-1.621-1.837-1.794-3.172h2.236c.138.676.494 1.265 1.066 1.768.589.485 1.378.728 2.366.728.918 0 1.594-.191 2.028-.572.433-.399.65-.867.65-1.404 0-.78-.286-1.3-.858-1.56-.555-.26-1.344-.494-2.366-.702-.694-.139-1.387-.338-2.08-.598-.694-.26-1.274-.624-1.742-1.092-.468-.485-.702-1.118-.702-1.898 0-1.127.416-2.045 1.248-2.756.849-.728 1.993-1.092 3.432-1.092 1.369 0 2.487.347 3.354 1.04.884.676 1.395 1.647 1.534 2.912h-2.158c-.087-.659-.373-1.17-.858-1.534-.468-.381-1.101-.572-1.898-.572-.78 0-1.387.165-1.82.494-.416.329-.624.763-.624 1.3 0 .52.268.927.806 1.222.554.295 1.3.546 2.236.754.797.173 1.551.39 2.262.65.728.243 1.317.615 1.768 1.118.468.485.702 1.196.702 2.132.017 1.161-.425 2.123-1.326 2.886-.884.745-2.089 1.118-3.614 1.118zm19.881 0c-1.543 0-2.826-.39-3.848-1.17-1.023-.78-1.621-1.837-1.794-3.172h2.236c.138.676.494 1.265 1.066 1.768.589.485 1.378.728 2.366.728.918 0 1.594-.191 2.028-.572.433-.399.65-.867.65-1.404 0-.78-.286-1.3-.858-1.56-.555-.26-1.344-.494-2.366-.702-.694-.139-1.387-.338-2.08-.598-.694-.26-1.274-.624-1.742-1.092-.468-.485-.702-1.118-.702-1.898 0-1.127.416-2.045 1.248-2.756.849-.728 1.993-1.092 3.432-1.092 1.369 0 2.487.347 3.354 1.04.884.676 1.395 1.647 1.534 2.912h-2.158c-.087-.659-.373-1.17-.858-1.534-.468-.381-1.101-.572-1.898-.572-.78 0-1.387.165-1.82.494-.416.329-.624.763-.624 1.3 0 .52.268.927.806 1.222.554.295 1.3.546 2.236.754.797.173 1.551.39 2.262.65.728.243 1.317.615 1.768 1.118.468.485.702 1.196.702 2.132.017 1.161-.425 2.123-1.326 2.886-.884.745-2.089 1.118-3.614 1.118zm13.858 0c-1.231 0-2.323-.277-3.276-.832-.954-.572-1.708-1.361-2.262-2.366-.538-1.005-.806-2.193-.806-3.562 0-1.352.268-2.531.806-3.536.537-1.023 1.282-1.811 2.236-2.366.97-.572 2.088-.858 3.354-.858 1.248 0 2.322.286 3.224.858.918.555 1.62 1.291 2.106 2.21.485.919.728 1.907.728 2.964 0 .191-.009.381-.026.572v.65h-10.27c.052.988.277 1.811.676 2.47.416.641.927 1.127 1.534 1.456.624.329 1.282.494 1.976.494.901 0 1.655-.208 2.262-.624.606-.416 1.048-.979 1.326-1.69h2.158c-.347 1.196-1.014 2.193-2.002 2.99-.971.78-2.219 1.17-3.744 1.17zm0-11.674c-1.04 0-1.968.321-2.782.962-.798.624-1.257 1.543-1.378 2.756h8.112c-.052-1.161-.451-2.071-1.196-2.73-.746-.659-1.664-.988-2.756-.988zm9.004 11.362v-12.896h1.976l.13 2.314c.416-.815 1.014-1.456 1.794-1.924s1.664-.702 2.652-.702c1.526 0 2.739.468 3.64 1.404.919.919 1.378 2.34 1.378 4.264v7.54h-2.184v-7.306c0-2.687-1.109-4.03-3.328-4.03-1.109 0-2.036.407-2.782 1.222-.728.797-1.092 1.941-1.092 3.432v6.682zm19.975 0c-1.178 0-2.106-.286-2.782-.858s-1.014-1.603-1.014-3.094v-7.098h-2.236v-1.846h2.236l.286-3.094h1.898v3.094h3.796v1.846h-3.796v7.098c0 .815.165 1.369.494 1.664.33.277.91.416 1.742.416h1.352v1.872zm16.936 0c-1.179 0-2.106-.286-2.782-.858s-1.014-1.603-1.014-3.094v-7.098h-2.236v-1.846h2.236l.286-3.094h1.898v3.094h3.796v1.846h-3.796v7.098c0 .815.164 1.369.494 1.664.329.277.91.416 1.742.416h1.352v1.872zm10.479.312c-1.213 0-2.305-.277-3.276-.832s-1.742-1.335-2.314-2.34c-.555-1.023-.832-2.219-.832-3.588s.286-2.557.858-3.562c.572-1.023 1.343-1.811 2.314-2.366.988-.555 2.089-.832 3.302-.832s2.305.277 3.276.832 1.733 1.343 2.288 2.366c.572 1.005.858 2.193.858 3.562s-.286 2.565-.858 3.588c-.572 1.005-1.352 1.785-2.34 2.34-.971.555-2.063.832-3.276.832zm0-1.872c.745 0 1.439-.182 2.08-.546s1.161-.91 1.56-1.638.598-1.629.598-2.704-.199-1.976-.598-2.704c-.381-.728-.893-1.274-1.534-1.638s-1.326-.546-2.054-.546c-.745 0-1.439.182-2.08.546s-1.161.91-1.56 1.638-.598 1.629-.598 2.704.199 1.976.598 2.704.91 1.274 1.534 1.638c.641.364 1.326.546 2.054.546zm-222.605 35.56c-1.179 0-2.106-.286-2.782-.858s-1.014-1.603-1.014-3.094v-7.098h-2.236v-1.846h2.236l.286-3.094h1.898v3.094h3.796v1.846h-3.796v7.098c0 .815.164 1.369.494 1.664.329.277.91.416 1.742.416h1.352v1.872zm4.958 0v-18.72h2.184v8.034c.434-.797 1.049-1.413 1.846-1.846.798-.451 1.664-.676 2.6-.676 1.491 0 2.687.468 3.588 1.404.902.919 1.352 2.34 1.352 4.264v7.54h-2.158v-7.306c0-2.687-1.083-4.03-3.25-4.03-1.126 0-2.071.407-2.834 1.222-.762.797-1.144 1.941-1.144 3.432v6.682zm20.677.312c-1.23 0-2.322-.277-3.276-.832-.953-.572-1.707-1.361-2.262-2.366-.537-1.005-.806-2.193-.806-3.562 0-1.352.269-2.531.806-3.536.538-1.023 1.283-1.811 2.236-2.366.971-.572 2.089-.858 3.354-.858 1.248 0 2.323.286 3.224.858.919.555 1.621 1.291 2.106 2.21.486.919.728 1.907.728 2.964 0 .191-.008.381-.026.572v.65h-10.27c.052.988.278 1.811.676 2.47.416.641.928 1.127 1.534 1.456.624.329 1.283.494 1.976.494.902 0 1.656-.208 2.262-.624.607-.416 1.049-.979 1.326-1.69h2.158c-.346 1.196-1.014 2.193-2.002 2.99-.97.78-2.218 1.17-3.744 1.17zm0-11.674c-1.04 0-1.967.321-2.782.962-.797.624-1.256 1.543-1.378 2.756h8.112c-.052-1.161-.45-2.071-1.196-2.73-.745-.659-1.664-.988-2.756-.988zm22.776 11.674c-1.057 0-2.002-.217-2.834-.65-.815-.433-1.439-1.04-1.872-1.82l-.208 2.158h-1.976v-18.72h2.184v7.956c.416-.624 1.005-1.187 1.768-1.69.78-.503 1.768-.754 2.964-.754 1.283 0 2.401.295 3.354.884s1.69 1.395 2.21 2.418c.537 1.023.806 2.184.806 3.484s-.269 2.461-.806 3.484c-.52 1.005-1.265 1.803-2.236 2.392-.953.572-2.071.858-3.354.858zm-.234-1.898c.867 0 1.629-.199 2.288-.598.659-.416 1.179-.988 1.56-1.716s.572-1.577.572-2.548-.191-1.82-.572-2.548-.901-1.291-1.56-1.69c-.659-.416-1.421-.624-2.288-.624s-1.629.208-2.288.624c-.659.399-1.179.962-1.56 1.69s-.572 1.577-.572 2.548.191 1.82.572 2.548.901 1.3 1.56 1.716c.659.399 1.421.598 2.288.598zm9.67 1.586v-12.896h1.976l.182 2.47c.399-.849 1.005-1.525 1.82-2.028s1.82-.754 3.016-.754v2.288h-.598c-.763 0-1.465.139-2.106.416-.641.26-1.153.711-1.534 1.352s-.572 1.525-.572 2.652v6.5zm14.839.312c-1.213 0-2.305-.277-3.276-.832s-1.742-1.335-2.314-2.34c-.555-1.023-.832-2.219-.832-3.588s.286-2.557.858-3.562c.572-1.023 1.343-1.811 2.314-2.366.988-.555 2.089-.832 3.302-.832s2.305.277 3.276.832 1.733 1.343 2.288 2.366c.572 1.005.858 2.193.858 3.562s-.286 2.565-.858 3.588c-.572 1.005-1.352 1.785-2.34 2.34-.971.555-2.063.832-3.276.832zm0-1.872c.745 0 1.439-.182 2.08-.546s1.161-.91 1.56-1.638.598-1.629.598-2.704-.199-1.976-.598-2.704c-.381-.728-.893-1.274-1.534-1.638s-1.326-.546-2.054-.546c-.745 0-1.439.182-2.08.546s-1.161.91-1.56 1.638-.598 1.629-.598 2.704.199 1.976.598 2.704.91 1.274 1.534 1.638c.641.364 1.326.546 2.054.546zm11.628 1.56-3.77-12.896h2.184l2.73 10.114 3.016-10.114h2.47l3.042 10.114 2.704-10.114h2.21l-3.77 12.896h-2.236l-3.172-10.634-3.172 10.634zm21.942.312c-1.543 0-2.825-.39-3.848-1.17s-1.621-1.837-1.794-3.172h2.236c.139.676.494 1.265 1.066 1.768.589.485 1.378.728 2.366.728.919 0 1.595-.191 2.028-.572.433-.399.65-.867.65-1.404 0-.78-.286-1.3-.858-1.56-.555-.26-1.343-.494-2.366-.702-.693-.139-1.387-.338-2.08-.598s-1.274-.624-1.742-1.092c-.468-.485-.702-1.118-.702-1.898 0-1.127.416-2.045 1.248-2.756.849-.728 1.993-1.092 3.432-1.092 1.369 0 2.487.347 3.354 1.04.884.676 1.395 1.647 1.534 2.912h-2.158c-.087-.659-.373-1.17-.858-1.534-.468-.381-1.101-.572-1.898-.572-.78 0-1.387.165-1.82.494-.416.329-.624.763-.624 1.3 0 .52.269.927.806 1.222.555.295 1.3.546 2.236.754.797.173 1.551.39 2.262.65.728.243 1.317.615 1.768 1.118.468.485.702 1.196.702 2.132.017 1.161-.425 2.123-1.326 2.886-.884.745-2.089 1.118-3.614 1.118zm13.858 0c-1.231 0-2.323-.277-3.276-.832-.953-.572-1.707-1.361-2.262-2.366-.537-1.005-.806-2.193-.806-3.562 0-1.352.269-2.531.806-3.536.537-1.023 1.283-1.811 2.236-2.366.971-.572 2.089-.858 3.354-.858 1.248 0 2.323.286 3.224.858.919.555 1.621 1.291 2.106 2.21s.728 1.907.728 2.964c0 .191-.009.381-.026.572v.65h-10.27c.052.988.277 1.811.676 2.47.416.641.927 1.127 1.534 1.456.624.329 1.283.494 1.976.494.901 0 1.655-.208 2.262-.624s1.049-.979 1.326-1.69h2.158c-.347 1.196-1.014 2.193-2.002 2.99-.971.78-2.219 1.17-3.744 1.17zm0-11.674c-1.04 0-1.967.321-2.782.962-.797.624-1.257 1.543-1.378 2.756h8.112c-.052-1.161-.451-2.071-1.196-2.73s-1.664-.988-2.756-.988zm9.005 11.362v-12.896h1.976l.182 2.47c.398-.849 1.005-1.525 1.82-2.028.814-.503 1.82-.754 3.016-.754v2.288h-.598c-.763 0-1.465.139-2.106.416-.642.26-1.153.711-1.534 1.352-.382.641-.572 1.525-.572 2.652v6.5zm20.616.312c-1.075 0-1.968-.182-2.678-.546-.711-.364-1.24-.849-1.586-1.456-.347-.607-.52-1.265-.52-1.976 0-1.317.502-2.331 1.508-3.042 1.005-.711 2.374-1.066 4.108-1.066h3.484v-.156c0-1.127-.295-1.976-.884-2.548-.59-.589-1.378-.884-2.366-.884-.85 0-1.586.217-2.21.65-.607.416-.988 1.031-1.144 1.846h-2.236c.086-.936.398-1.725.936-2.366.554-.641 1.239-1.127 2.054-1.456.814-.347 1.681-.52 2.6-.52 1.802 0 3.154.485 4.056 1.456.918.953 1.378 2.227 1.378 3.822v7.93h-1.95l-.13-2.314c-.364.728-.902 1.352-1.612 1.872-.694.503-1.63.754-2.808.754zm.338-1.846c.832 0 1.542-.217 2.132-.65.606-.433 1.066-.997 1.378-1.69s.468-1.421.468-2.184v-.026h-3.302c-1.283 0-2.193.225-2.73.676-.52.433-.78.979-.78 1.638 0 .676.242 1.222.728 1.638.502.399 1.204.598 2.106.598zm9.438 1.534v-12.896h1.976l.13 2.314c.416-.815 1.014-1.456 1.794-1.924s1.664-.702 2.652-.702c1.526 0 2.739.468 3.64 1.404.919.919 1.378 2.34 1.378 4.264v7.54h-2.184v-7.306c0-2.687-1.109-4.03-3.328-4.03-1.109 0-2.036.407-2.782 1.222-.728.797-1.092 1.941-1.092 3.432v6.682zm20.729.312c-1.283 0-2.409-.295-3.38-.884-.953-.589-1.699-1.395-2.236-2.418-.52-1.023-.78-2.184-.78-3.484s.269-2.453.806-3.458c.537-1.023 1.283-1.82 2.236-2.392.953-.589 2.08-.884 3.38-.884 1.057 0 1.993.217 2.808.65s1.447 1.04 1.898 1.82v-7.982h2.184v18.72h-1.976l-.208-2.132c-.416.624-1.014 1.187-1.794 1.69s-1.759.754-2.938.754zm.234-1.898c.867 0 1.629-.199 2.288-.598.676-.416 1.196-.988 1.56-1.716.381-.728.572-1.577.572-2.548s-.191-1.82-.572-2.548c-.364-.728-.884-1.291-1.56-1.69-.659-.416-1.421-.624-2.288-.624-.849 0-1.612.208-2.288.624-.659.399-1.179.962-1.56 1.69-.364.728-.546 1.577-.546 2.548s.182 1.82.546 2.548c.381.728.901 1.3 1.56 1.716.676.399 1.439.598 2.288.598zm-145.136 35.586v-12.896h1.976l.182 2.47c.399-.849 1.006-1.525 1.82-2.028.815-.503 1.82-.754 3.016-.754v2.288h-.598c-.762 0-1.464.139-2.106.416-.641.26-1.152.711-1.534 1.352-.381.641-.572 1.525-.572 2.652v6.5zm14.761.312c-1.23 0-2.322-.277-3.276-.832-.953-.572-1.707-1.361-2.262-2.366-.537-1.005-.806-2.193-.806-3.562 0-1.352.269-2.531.806-3.536.538-1.023 1.283-1.811 2.236-2.366.971-.572 2.089-.858 3.354-.858 1.248 0 2.323.286 3.224.858.919.555 1.621 1.291 2.106 2.21.486.919.728 1.907.728 2.964 0 .191-.008.381-.026.572v.65h-10.27c.052.988.278 1.811.676 2.47.416.641.928 1.127 1.534 1.456.624.329 1.283.494 1.976.494.902 0 1.656-.208 2.262-.624.607-.416 1.049-.979 1.326-1.69h2.158c-.346 1.196-1.014 2.193-2.002 2.99-.97.78-2.218 1.17-3.744 1.17zm0-11.674c-1.04 0-1.967.321-2.782.962-.797.624-1.256 1.543-1.378 2.756h8.112c-.052-1.161-.45-2.071-1.196-2.73-.745-.659-1.664-.988-2.756-.988zm9.005 11.362v-12.896h1.976l.13 2.314c.416-.815 1.014-1.456 1.794-1.924s1.664-.702 2.652-.702c1.525 0 2.739.468 3.64 1.404.919.919 1.378 2.34 1.378 4.264v7.54h-2.184v-7.306c0-2.687-1.109-4.03-3.328-4.03-1.109 0-2.037.407-2.782 1.222-.728.797-1.092 1.941-1.092 3.432v6.682zm20.729.312c-1.283 0-2.409-.295-3.38-.884-.953-.589-1.699-1.395-2.236-2.418-.52-1.023-.78-2.184-.78-3.484s.269-2.453.806-3.458c.537-1.023 1.283-1.82 2.236-2.392.953-.589 2.08-.884 3.38-.884 1.057 0 1.993.217 2.808.65s1.447 1.04 1.898 1.82v-7.982h2.184v18.72h-1.976l-.208-2.132c-.416.624-1.014 1.187-1.794 1.69s-1.759.754-2.938.754zm.234-1.898c.867 0 1.629-.199 2.288-.598.676-.416 1.196-.988 1.56-1.716.381-.728.572-1.577.572-2.548s-.191-1.82-.572-2.548c-.364-.728-.884-1.291-1.56-1.69-.659-.416-1.421-.624-2.288-.624-.849 0-1.612.208-2.288.624-.659.399-1.179.962-1.56 1.69-.364.728-.546 1.577-.546 2.548s.182 1.82.546 2.548c.381.728.901 1.3 1.56 1.716.676.399 1.439.598 2.288.598zm16.04 1.898c-1.231 0-2.323-.277-3.276-.832-.953-.572-1.707-1.361-2.262-2.366-.537-1.005-.806-2.193-.806-3.562 0-1.352.269-2.531.806-3.536.537-1.023 1.283-1.811 2.236-2.366.971-.572 2.089-.858 3.354-.858 1.248 0 2.323.286 3.224.858.919.555 1.621 1.291 2.106 2.21s.728 1.907.728 2.964c0 .191-.009.381-.026.572v.65h-10.27c.052.988.277 1.811.676 2.47.416.641.927 1.127 1.534 1.456.624.329 1.283.494 1.976.494.901 0 1.655-.208 2.262-.624s1.049-.979 1.326-1.69h2.158c-.347 1.196-1.014 2.193-2.002 2.99-.971.78-2.219 1.17-3.744 1.17zm0-11.674c-1.04 0-1.967.321-2.782.962-.797.624-1.257 1.543-1.378 2.756h8.112c-.052-1.161-.451-2.071-1.196-2.73s-1.664-.988-2.756-.988zm9.005 11.362v-12.896h1.976l.182 2.47c.398-.849 1.005-1.525 1.82-2.028.814-.503 1.82-.754 3.016-.754v2.288h-.598c-.763 0-1.465.139-2.106.416-.642.26-1.153.711-1.534 1.352-.382.641-.572 1.525-.572 2.652v6.5zm14.761.312c-1.231 0-2.323-.277-3.276-.832-.954-.572-1.708-1.361-2.262-2.366-.538-1.005-.806-2.193-.806-3.562 0-1.352.268-2.531.806-3.536.537-1.023 1.282-1.811 2.236-2.366.97-.572 2.088-.858 3.354-.858 1.248 0 2.322.286 3.224.858.918.555 1.62 1.291 2.106 2.21.485.919.728 1.907.728 2.964 0 .191-.009.381-.026.572v.65h-10.27c.052.988.277 1.811.676 2.47.416.641.927 1.127 1.534 1.456.624.329 1.282.494 1.976.494.901 0 1.655-.208 2.262-.624.606-.416 1.048-.979 1.326-1.69h2.158c-.347 1.196-1.014 2.193-2.002 2.99-.971.78-2.219 1.17-3.744 1.17zm0-11.674c-1.04 0-1.968.321-2.782.962-.798.624-1.257 1.543-1.378 2.756h8.112c-.052-1.161-.451-2.071-1.196-2.73-.746-.659-1.664-.988-2.756-.988zm14.854 11.674c-1.282 0-2.409-.295-3.38-.884-.953-.589-1.698-1.395-2.236-2.418-.52-1.023-.78-2.184-.78-3.484s.269-2.453.806-3.458c.538-1.023 1.283-1.82 2.236-2.392.954-.589 2.08-.884 3.38-.884 1.058 0 1.994.217 2.808.65.815.433 1.448 1.04 1.898 1.82v-7.982h2.184v18.72h-1.976l-.208-2.132c-.416.624-1.014 1.187-1.794 1.69s-1.759.754-2.938.754zm.234-1.898c.867 0 1.63-.199 2.288-.598.676-.416 1.196-.988 1.56-1.716.382-.728.572-1.577.572-2.548s-.19-1.82-.572-2.548c-.364-.728-.884-1.291-1.56-1.69-.658-.416-1.421-.624-2.288-.624-.849 0-1.612.208-2.288.624-.658.399-1.178.962-1.56 1.69-.364.728-.546 1.577-.546 2.548s.182 1.82.546 2.548c.382.728.902 1.3 1.56 1.716.676.399 1.439.598 2.288.598zm10.997 1.716c-.434 0-.798-.139-1.092-.416-.278-.295-.416-.65-.416-1.066s.138-.763.416-1.04c.294-.295.658-.442 1.092-.442.416 0 .762.147 1.04.442.294.277.442.624.442 1.04s-.148.771-.442 1.066c-.278.277-.624.416-1.04.416z" fill="#0a0a0b"/><rect fill="#fcfcfd" height="213.045" rx="8" stroke="#ededee" stroke-width="2" width="352.857" x="534.857" y="77.5825"/><path d="m595.178 160v-18.2h6.396c1.283 0 2.34.208 3.172.624.849.399 1.482.953 1.898 1.664.416.693.624 1.473.624 2.34 0 1.179-.321 2.106-.962 2.782-.624.676-1.378 1.144-2.262 1.404.676.121 1.291.39 1.846.806s.988.936 1.3 1.56c.329.624.494 1.309.494 2.054 0 .919-.225 1.759-.676 2.522-.451.745-1.118 1.343-2.002 1.794-.884.433-1.959.65-3.224.65zm2.184-10.244h4.056c1.161 0 2.054-.269 2.678-.806.624-.555.936-1.317.936-2.288 0-.919-.312-1.655-.936-2.21-.607-.555-1.525-.832-2.756-.832h-3.978zm0 8.424h4.186c1.248 0 2.21-.286 2.886-.858.676-.589 1.014-1.404 1.014-2.444 0-1.023-.355-1.837-1.066-2.444-.711-.624-1.673-.936-2.886-.936h-4.134zm13.327 1.82v-12.896h1.976l.182 2.47c.398-.849 1.005-1.525 1.82-2.028.814-.503 1.82-.754 3.016-.754v2.288h-.598c-.763 0-1.465.139-2.106.416-.642.26-1.153.711-1.534 1.352-.382.641-.572 1.525-.572 2.652v6.5zm14.838.312c-1.213 0-2.305-.277-3.276-.832-.97-.555-1.742-1.335-2.314-2.34-.554-1.023-.832-2.219-.832-3.588s.286-2.557.858-3.562c.572-1.023 1.344-1.811 2.314-2.366.988-.555 2.089-.832 3.302-.832 1.214 0 2.306.277 3.276.832.971.555 1.734 1.343 2.288 2.366.572 1.005.858 2.193.858 3.562s-.286 2.565-.858 3.588c-.572 1.005-1.352 1.785-2.34 2.34-.97.555-2.062.832-3.276.832zm0-1.872c.746 0 1.439-.182 2.08-.546.642-.364 1.162-.91 1.56-1.638.399-.728.598-1.629.598-2.704s-.199-1.976-.598-2.704c-.381-.728-.892-1.274-1.534-1.638-.641-.364-1.326-.546-2.054-.546-.745 0-1.438.182-2.08.546-.641.364-1.161.91-1.56 1.638-.398.728-.598 1.629-.598 2.704s.2 1.976.598 2.704c.399.728.91 1.274 1.534 1.638.642.364 1.326.546 2.054.546zm11.629 1.56-3.77-12.896h2.184l2.73 10.114 3.016-10.114h2.47l3.042 10.114 2.704-10.114h2.21l-3.77 12.896h-2.236l-3.172-10.634-3.172 10.634zm21.941.312c-1.542 0-2.825-.39-3.848-1.17-1.022-.78-1.62-1.837-1.794-3.172h2.236c.139.676.494 1.265 1.066 1.768.59.485 1.378.728 2.366.728.919 0 1.595-.191 2.028-.572.434-.399.65-.867.65-1.404 0-.78-.286-1.3-.858-1.56-.554-.26-1.343-.494-2.366-.702-.693-.139-1.386-.338-2.08-.598-.693-.26-1.274-.624-1.742-1.092-.468-.485-.702-1.118-.702-1.898 0-1.127.416-2.045 1.248-2.756.85-.728 1.994-1.092 3.432-1.092 1.37 0 2.488.347 3.354 1.04.884.676 1.396 1.647 1.534 2.912h-2.158c-.086-.659-.372-1.17-.858-1.534-.468-.381-1.1-.572-1.898-.572-.78 0-1.386.165-1.82.494-.416.329-.624.763-.624 1.3 0 .52.269.927.806 1.222.555.295 1.3.546 2.236.754.798.173 1.552.39 2.262.65.728.243 1.318.615 1.768 1.118.468.485.702 1.196.702 2.132.018 1.161-.424 2.123-1.326 2.886-.884.745-2.088 1.118-3.614 1.118zm13.858 0c-1.23 0-2.322-.277-3.276-.832-.953-.572-1.707-1.361-2.262-2.366-.537-1.005-.806-2.193-.806-3.562 0-1.352.269-2.531.806-3.536.538-1.023 1.283-1.811 2.236-2.366.971-.572 2.089-.858 3.354-.858 1.248 0 2.323.286 3.224.858.919.555 1.621 1.291 2.106 2.21.486.919.728 1.907.728 2.964 0 .191-.008.381-.026.572v.65h-10.27c.052.988.278 1.811.676 2.47.416.641.928 1.127 1.534 1.456.624.329 1.283.494 1.976.494.902 0 1.656-.208 2.262-.624.607-.416 1.049-.979 1.326-1.69h2.158c-.346 1.196-1.014 2.193-2.002 2.99-.97.78-2.218 1.17-3.744 1.17zm0-11.674c-1.04 0-1.967.321-2.782.962-.797.624-1.256 1.543-1.378 2.756h8.112c-.052-1.161-.45-2.071-1.196-2.73-.745-.659-1.664-.988-2.756-.988zm9.005 11.362v-12.896h1.976l.182 2.47c.399-.849 1.005-1.525 1.82-2.028s1.82-.754 3.016-.754v2.288h-.598c-.763 0-1.465.139-2.106.416-.641.26-1.153.711-1.534 1.352s-.572 1.525-.572 2.652v6.5zm22.176.312c-1.282 0-2.409-.295-3.38-.884-.953-.589-1.698-1.395-2.236-2.418-.52-1.023-.78-2.184-.78-3.484s.269-2.453.806-3.458c.538-1.023 1.283-1.82 2.236-2.392.954-.589 2.08-.884 3.38-.884 1.058 0 1.994.217 2.808.65.815.433 1.448 1.04 1.898 1.82v-7.982h2.184v18.72h-1.976l-.208-2.132c-.416.624-1.014 1.187-1.794 1.69s-1.759.754-2.938.754zm.234-1.898c.867 0 1.63-.199 2.288-.598.676-.416 1.196-.988 1.56-1.716.382-.728.572-1.577.572-2.548s-.19-1.82-.572-2.548c-.364-.728-.884-1.291-1.56-1.69-.658-.416-1.421-.624-2.288-.624-.849 0-1.612.208-2.288.624-.658.399-1.178.962-1.56 1.69-.364.728-.546 1.577-.546 2.548s.182 1.82.546 2.548c.382.728.902 1.3 1.56 1.716.676.399 1.439.598 2.288.598zm16.118 1.898c-1.213 0-2.305-.277-3.276-.832-.97-.555-1.742-1.335-2.314-2.34-.554-1.023-.832-2.219-.832-3.588s.286-2.557.858-3.562c.572-1.023 1.344-1.811 2.314-2.366.988-.555 2.089-.832 3.302-.832 1.214 0 2.306.277 3.276.832.971.555 1.734 1.343 2.288 2.366.572 1.005.858 2.193.858 3.562s-.286 2.565-.858 3.588c-.572 1.005-1.352 1.785-2.34 2.34-.97.555-2.062.832-3.276.832zm0-1.872c.746 0 1.439-.182 2.08-.546.642-.364 1.162-.91 1.56-1.638.399-.728.598-1.629.598-2.704s-.199-1.976-.598-2.704c-.381-.728-.892-1.274-1.534-1.638-.641-.364-1.326-.546-2.054-.546-.745 0-1.438.182-2.08.546-.641.364-1.161.91-1.56 1.638-.398.728-.598 1.629-.598 2.704s.2 1.976.598 2.704c.399.728.91 1.274 1.534 1.638.642.364 1.326.546 2.054.546zm11.629 1.56-3.77-12.896h2.184l2.73 10.114 3.016-10.114h2.47l3.042 10.114 2.704-10.114h2.21l-3.77 12.896h-2.236l-3.172-10.634-3.172 10.634zm17.001 0v-12.896h1.976l.13 2.314c.416-.815 1.014-1.456 1.794-1.924s1.664-.702 2.652-.702c1.526 0 2.739.468 3.64 1.404.919.919 1.378 2.34 1.378 4.264v7.54h-2.184v-7.306c0-2.687-1.109-4.03-3.328-4.03-1.109 0-2.036.407-2.782 1.222-.728.797-1.092 1.941-1.092 3.432v6.682zm14.879 0v-18.72h2.184v18.72zm11.64.312c-1.214 0-2.306-.277-3.276-.832-.971-.555-1.742-1.335-2.314-2.34-.555-1.023-.832-2.219-.832-3.588s.286-2.557.858-3.562c.572-1.023 1.343-1.811 2.314-2.366.988-.555 2.088-.832 3.302-.832 1.213 0 2.305.277 3.276.832.97.555 1.733 1.343 2.288 2.366.572 1.005.858 2.193.858 3.562s-.286 2.565-.858 3.588c-.572 1.005-1.352 1.785-2.34 2.34-.971.555-2.063.832-3.276.832zm0-1.872c.745 0 1.438-.182 2.08-.546.641-.364 1.161-.91 1.56-1.638.398-.728.598-1.629.598-2.704s-.2-1.976-.598-2.704c-.382-.728-.893-1.274-1.534-1.638-.642-.364-1.326-.546-2.054-.546-.746 0-1.439.182-2.08.546-.642.364-1.162.91-1.56 1.638-.399.728-.598 1.629-.598 2.704s.199 1.976.598 2.704c.398.728.91 1.274 1.534 1.638.641.364 1.326.546 2.054.546zm13.801 1.872c-1.075 0-1.968-.182-2.678-.546-.711-.364-1.24-.849-1.586-1.456-.347-.607-.52-1.265-.52-1.976 0-1.317.502-2.331 1.508-3.042 1.005-.711 2.374-1.066 4.108-1.066h3.484v-.156c0-1.127-.295-1.976-.884-2.548-.59-.589-1.378-.884-2.366-.884-.85 0-1.586.217-2.21.65-.607.416-.988 1.031-1.144 1.846h-2.236c.086-.936.398-1.725.936-2.366.554-.641 1.239-1.127 2.054-1.456.814-.347 1.681-.52 2.6-.52 1.802 0 3.154.485 4.056 1.456.918.953 1.378 2.227 1.378 3.822v7.93h-1.95l-.13-2.314c-.364.728-.902 1.352-1.612 1.872-.694.503-1.63.754-2.808.754zm.338-1.846c.832 0 1.542-.217 2.132-.65.606-.433 1.066-.997 1.378-1.69s.468-1.421.468-2.184v-.026h-3.302c-1.283 0-2.193.225-2.73.676-.52.433-.78.979-.78 1.638 0 .676.242 1.222.728 1.638.502.399 1.204.598 2.106.598zm15.288 1.846c-1.283 0-2.409-.295-3.38-.884-.953-.589-1.699-1.395-2.236-2.418-.52-1.023-.78-2.184-.78-3.484s.269-2.453.806-3.458c.537-1.023 1.283-1.82 2.236-2.392.953-.589 2.08-.884 3.38-.884 1.057 0 1.993.217 2.808.65s1.447 1.04 1.898 1.82v-7.982h2.184v18.72h-1.976l-.208-2.132c-.416.624-1.014 1.187-1.794 1.69s-1.759.754-2.938.754zm.234-1.898c.867 0 1.629-.199 2.288-.598.676-.416 1.196-.988 1.56-1.716.381-.728.572-1.577.572-2.548s-.191-1.82-.572-2.548c-.364-.728-.884-1.291-1.56-1.69-.659-.416-1.421-.624-2.288-.624-.849 0-1.612.208-2.288.624-.659.399-1.179.962-1.56 1.69-.364.728-.546 1.577-.546 2.548s.182 1.82.546 2.548c.381.728.901 1.3 1.56 1.716.676.399 1.439.598 2.288.598zm15.182 1.898c-1.543 0-2.825-.39-3.848-1.17s-1.621-1.837-1.794-3.172h2.236c.139.676.494 1.265 1.066 1.768.589.485 1.378.728 2.366.728.919 0 1.595-.191 2.028-.572.433-.399.65-.867.65-1.404 0-.78-.286-1.3-.858-1.56-.555-.26-1.343-.494-2.366-.702-.693-.139-1.387-.338-2.08-.598s-1.274-.624-1.742-1.092c-.468-.485-.702-1.118-.702-1.898 0-1.127.416-2.045 1.248-2.756.849-.728 1.993-1.092 3.432-1.092 1.369 0 2.487.347 3.354 1.04.884.676 1.395 1.647 1.534 2.912h-2.158c-.087-.659-.373-1.17-.858-1.534-.468-.381-1.101-.572-1.898-.572-.78 0-1.387.165-1.82.494-.416.329-.624.763-.624 1.3 0 .52.269.927.806 1.222.555.295 1.3.546 2.236.754.797.173 1.551.39 2.262.65.728.243 1.317.615 1.768 1.118.468.485.702 1.196.702 2.132.017 1.161-.425 2.123-1.326 2.886-.884.745-2.089 1.118-3.614 1.118zm-211.316 34c-1.075 0-1.967-.182-2.678-.546s-1.239-.849-1.586-1.456-.52-1.265-.52-1.976c0-1.317.503-2.331 1.508-3.042s2.375-1.066 4.108-1.066h3.484v-.156c0-1.127-.295-1.976-.884-2.548-.589-.589-1.378-.884-2.366-.884-.849 0-1.586.217-2.21.65-.607.416-.988 1.031-1.144 1.846h-2.236c.087-.936.399-1.725.936-2.366.555-.641 1.239-1.127 2.054-1.456.815-.347 1.681-.52 2.6-.52 1.803 0 3.155.485 4.056 1.456.919.953 1.378 2.227 1.378 3.822v7.93h-1.95l-.13-2.314c-.364.728-.901 1.352-1.612 1.872-.693.503-1.629.754-2.808.754zm.338-1.846c.832 0 1.543-.217 2.132-.65.607-.433 1.066-.997 1.378-1.69s.468-1.421.468-2.184v-.026h-3.302c-1.283 0-2.193.225-2.73.676-.52.433-.78.979-.78 1.638 0 .676.243 1.222.728 1.638.503.399 1.205.598 2.106.598zm9.438 1.534v-12.896h1.976l.13 2.314c.416-.815 1.014-1.456 1.794-1.924s1.664-.702 2.652-.702c1.526 0 2.739.468 3.64 1.404.919.919 1.378 2.34 1.378 4.264v7.54h-2.184v-7.306c0-2.687-1.109-4.03-3.328-4.03-1.109 0-2.036.407-2.782 1.222-.728.797-1.092 1.941-1.092 3.432v6.682zm20.729.312c-1.282 0-2.409-.295-3.38-.884-.953-.589-1.698-1.395-2.236-2.418-.52-1.023-.78-2.184-.78-3.484s.269-2.453.806-3.458c.538-1.023 1.283-1.82 2.236-2.392.954-.589 2.08-.884 3.38-.884 1.058 0 1.994.217 2.808.65.815.433 1.448 1.04 1.898 1.82v-7.982h2.184v18.72h-1.976l-.208-2.132c-.416.624-1.014 1.187-1.794 1.69s-1.759.754-2.938.754zm.234-1.898c.867 0 1.63-.199 2.288-.598.676-.416 1.196-.988 1.56-1.716.382-.728.572-1.577.572-2.548s-.19-1.82-.572-2.548c-.364-.728-.884-1.291-1.56-1.69-.658-.416-1.421-.624-2.288-.624-.849 0-1.612.208-2.288.624-.658.399-1.178.962-1.56 1.69-.364.728-.546 1.577-.546 2.548s.182 1.82.546 2.548c.382.728.902 1.3 1.56 1.716.676.399 1.439.598 2.288.598zm17.123 1.586v-12.896h1.976l.182 2.47c.399-.849 1.006-1.525 1.82-2.028.815-.503 1.82-.754 3.016-.754v2.288h-.598c-.762 0-1.464.139-2.106.416-.641.26-1.152.711-1.534 1.352-.381.641-.572 1.525-.572 2.652v6.5zm14.152.312c-1.526 0-2.739-.459-3.64-1.378-.902-.936-1.352-2.366-1.352-4.29v-7.54h2.184v7.306c0 2.687 1.1 4.03 3.302 4.03 1.126 0 2.054-.399 2.782-1.196.745-.815 1.118-1.967 1.118-3.458v-6.682h2.184v12.896h-1.976l-.156-2.314c-.399.815-.997 1.456-1.794 1.924-.78.468-1.664.702-2.652.702zm10.173-.312v-12.896h1.976l.13 2.314c.416-.815 1.014-1.456 1.794-1.924s1.664-.702 2.652-.702c1.525 0 2.738.468 3.64 1.404.918.919 1.378 2.34 1.378 4.264v7.54h-2.184v-7.306c0-2.687-1.11-4.03-3.328-4.03-1.11 0-2.037.407-2.782 1.222-.728.797-1.092 1.941-1.092 3.432v6.682zm19.819.312c-1.543 0-2.826-.39-3.848-1.17-1.023-.78-1.621-1.837-1.794-3.172h2.236c.138.676.494 1.265 1.066 1.768.589.485 1.378.728 2.366.728.918 0 1.594-.191 2.028-.572.433-.399.65-.867.65-1.404 0-.78-.286-1.3-.858-1.56-.555-.26-1.344-.494-2.366-.702-.694-.139-1.387-.338-2.08-.598-.694-.26-1.274-.624-1.742-1.092-.468-.485-.702-1.118-.702-1.898 0-1.127.416-2.045 1.248-2.756.849-.728 1.993-1.092 3.432-1.092 1.369 0 2.487.347 3.354 1.04.884.676 1.395 1.647 1.534 2.912h-2.158c-.087-.659-.373-1.17-.858-1.534-.468-.381-1.101-.572-1.898-.572-.78 0-1.387.165-1.82.494-.416.329-.624.763-.624 1.3 0 .52.268.927.806 1.222.554.295 1.3.546 2.236.754.797.173 1.551.39 2.262.65.728.243 1.317.615 1.768 1.118.468.485.702 1.196.702 2.132.017 1.161-.425 2.123-1.326 2.886-.884.745-2.089 1.118-3.614 1.118zm20.036-.312c-1.178 0-2.106-.286-2.782-.858s-1.014-1.603-1.014-3.094v-7.098h-2.236v-1.846h2.236l.286-3.094h1.898v3.094h3.796v1.846h-3.796v7.098c0 .815.165 1.369.494 1.664.33.277.91.416 1.742.416h1.352v1.872zm4.959 0v-18.72h2.184v8.034c.433-.797 1.049-1.413 1.846-1.846.797-.451 1.664-.676 2.6-.676 1.491 0 2.687.468 3.588 1.404.901.919 1.352 2.34 1.352 4.264v7.54h-2.158v-7.306c0-2.687-1.083-4.03-3.25-4.03-1.127 0-2.071.407-2.834 1.222-.763.797-1.144 1.941-1.144 3.432v6.682zm20.677.312c-1.231 0-2.323-.277-3.276-.832-.953-.572-1.707-1.361-2.262-2.366-.537-1.005-.806-2.193-.806-3.562 0-1.352.269-2.531.806-3.536.537-1.023 1.283-1.811 2.236-2.366.971-.572 2.089-.858 3.354-.858 1.248 0 2.323.286 3.224.858.919.555 1.621 1.291 2.106 2.21s.728 1.907.728 2.964c0 .191-.009.381-.026.572v.65h-10.27c.052.988.277 1.811.676 2.47.416.641.927 1.127 1.534 1.456.624.329 1.283.494 1.976.494.901 0 1.655-.208 2.262-.624s1.049-.979 1.326-1.69h2.158c-.347 1.196-1.014 2.193-2.002 2.99-.971.78-2.219 1.17-3.744 1.17zm0-11.674c-1.04 0-1.967.321-2.782.962-.797.624-1.257 1.543-1.378 2.756h8.112c-.052-1.161-.451-2.071-1.196-2.73s-1.664-.988-2.756-.988zm20.072 11.674c-1.647 0-2.938-.459-3.874-1.378s-1.404-2.193-1.404-3.822h2.21c0 .919.225 1.69.676 2.314.45.624 1.239.936 2.366.936 1.092 0 1.846-.303 2.262-.91.433-.607.65-1.361.65-2.262v-13.39h2.184v13.39c0 1.612-.451 2.869-1.352 3.77-.884.901-2.124 1.352-3.718 1.352zm14.716 0c-1.334 0-2.496-.243-3.484-.728s-1.75-1.161-2.288-2.028c-.537-.867-.806-1.872-.806-3.016h2.288c0 .711.165 1.369.494 1.976.33.589.806 1.066 1.43 1.43.642.347 1.43.52 2.366.52 1.231 0 2.184-.295 2.86-.884s1.014-1.326 1.014-2.21c0-.728-.156-1.309-.468-1.742-.312-.451-.736-.815-1.274-1.092-.52-.277-1.126-.52-1.82-.728-.676-.208-1.386-.442-2.132-.702-1.404-.485-2.444-1.083-3.12-1.794-.676-.728-1.014-1.673-1.014-2.834-.017-.971.208-1.829.676-2.574.468-.763 1.127-1.352 1.976-1.768.867-.433 1.89-.65 3.068-.65 1.162 0 2.167.217 3.016.65.867.433 1.534 1.031 2.002 1.794.486.763.737 1.629.754 2.6h-2.288c0-.503-.13-.997-.39-1.482-.26-.503-.658-.91-1.196-1.222-.52-.312-1.178-.468-1.976-.468-.988-.017-1.802.234-2.444.754-.624.52-.936 1.239-.936 2.158 0 .78.217 1.378.65 1.794.451.416 1.075.763 1.872 1.04.798.26 1.716.563 2.756.91.867.312 1.647.676 2.34 1.092.694.416 1.231.953 1.612 1.612.399.659.598 1.499.598 2.522 0 .867-.225 1.69-.676 2.47-.45.763-1.135 1.387-2.054 1.872-.901.485-2.036.728-3.406.728zm17.31-16.068c-.433 0-.797-.139-1.092-.416-.277-.295-.416-.659-.416-1.092 0-.416.139-.763.416-1.04.295-.277.659-.416 1.092-.416.416 0 .772.139 1.066.416.295.277.442.624.442 1.04 0 .433-.147.797-.442 1.092-.294.277-.65.416-1.066.416zm-1.092 15.756v-12.896h2.184v12.896zm5.987 0v-12.896h1.976l.13 2.314c.416-.815 1.014-1.456 1.794-1.924s1.664-.702 2.652-.702c1.525 0 2.739.468 3.64 1.404.919.919 1.378 2.34 1.378 4.264v7.54h-2.184v-7.306c0-2.687-1.109-4.03-3.328-4.03-1.109 0-2.037.407-2.782 1.222-.728.797-1.092 1.941-1.092 3.432v6.682zm-159.241 34.312c-1.057 0-2.002-.217-2.834-.65-.815-.433-1.439-1.04-1.872-1.82l-.208 2.158h-1.976v-18.72h2.184v7.956c.416-.624 1.005-1.187 1.768-1.69.78-.503 1.768-.754 2.964-.754 1.283 0 2.401.295 3.354.884s1.69 1.395 2.21 2.418c.537 1.023.806 2.184.806 3.484s-.269 2.461-.806 3.484c-.52 1.005-1.265 1.803-2.236 2.392-.953.572-2.071.858-3.354.858zm-.234-1.898c.867 0 1.629-.199 2.288-.598.659-.416 1.179-.988 1.56-1.716s.572-1.577.572-2.548-.191-1.82-.572-2.548-.901-1.291-1.56-1.69c-.659-.416-1.421-.624-2.288-.624s-1.629.208-2.288.624c-.659.399-1.179.962-1.56 1.69s-.572 1.577-.572 2.548.191 1.82.572 2.548.901 1.3 1.56 1.716c.659.399 1.421.598 2.288.598zm13.96 1.898c-1.074 0-1.967-.182-2.678-.546-.71-.364-1.239-.849-1.586-1.456-.346-.607-.52-1.265-.52-1.976 0-1.317.503-2.331 1.508-3.042 1.006-.711 2.375-1.066 4.108-1.066h3.484v-.156c0-1.127-.294-1.976-.884-2.548-.589-.589-1.378-.884-2.366-.884-.849 0-1.586.217-2.21.65-.606.416-.988 1.031-1.144 1.846h-2.236c.087-.936.399-1.725.936-2.366.555-.641 1.24-1.127 2.054-1.456.815-.347 1.682-.52 2.6-.52 1.803 0 3.155.485 4.056 1.456.919.953 1.378 2.227 1.378 3.822v7.93h-1.95l-.13-2.314c-.364.728-.901 1.352-1.612 1.872-.693.503-1.629.754-2.808.754zm.338-1.846c.832 0 1.543-.217 2.132-.65.607-.433 1.066-.997 1.378-1.69s.468-1.421.468-2.184v-.026h-3.302c-1.282 0-2.192.225-2.73.676-.52.433-.78.979-.78 1.638 0 .676.243 1.222.728 1.638.503.399 1.205.598 2.106.598zm15.367 1.846c-1.231 0-2.34-.277-3.328-.832-.971-.572-1.742-1.361-2.314-2.366-.555-1.023-.832-2.21-.832-3.562s.277-2.531.832-3.536c.572-1.023 1.343-1.811 2.314-2.366.988-.572 2.097-.858 3.328-.858 1.525 0 2.808.399 3.848 1.196 1.057.797 1.724 1.863 2.002 3.198h-2.236c-.174-.797-.598-1.413-1.274-1.846-.676-.451-1.465-.676-2.366-.676-.728 0-1.413.182-2.054.546-.642.364-1.162.91-1.56 1.638-.399.728-.598 1.629-.598 2.704s.199 1.976.598 2.704c.398.728.918 1.283 1.56 1.664.641.364 1.326.546 2.054.546.901 0 1.69-.217 2.366-.65.676-.451 1.1-1.083 1.274-1.898h2.236c-.26 1.3-.919 2.357-1.976 3.172-1.058.815-2.349 1.222-3.874 1.222zm8.9-.312v-18.72h2.184v11.258l5.278-5.434h2.678l-5.72 5.824 6.448 7.072h-2.782l-5.902-6.682v6.682zm18.197-4.056c-.728 0-1.395-.095-2.002-.286l-1.3 1.222c.191.139.425.26.702.364.295.087.711.173 1.248.26.538.069 1.292.147 2.262.234 1.734.121 2.973.52 3.718 1.196.746.676 1.118 1.56 1.118 2.652 0 .745-.208 1.456-.624 2.132-.398.676-1.022 1.231-1.872 1.664-.832.433-1.906.65-3.224.65-1.161 0-2.192-.156-3.094-.468-.901-.295-1.603-.754-2.106-1.378-.502-.607-.754-1.378-.754-2.314 0-.485.13-1.014.39-1.586.26-.555.746-1.083 1.456-1.586-.381-.156-.71-.321-.988-.494-.26-.191-.502-.399-.728-.624v-.598l2.21-2.184c-1.022-.867-1.534-2.011-1.534-3.432 0-.849.2-1.621.598-2.314.399-.693.98-1.239 1.742-1.638.763-.416 1.69-.624 2.782-.624.746 0 1.422.104 2.028.312h4.758v1.638l-2.418.104c.503.728.754 1.569.754 2.522 0 .849-.208 1.621-.624 2.314-.398.693-.979 1.248-1.742 1.664-.745.399-1.664.598-2.756.598zm0-1.794c.919 0 1.647-.234 2.184-.702.555-.485.832-1.179.832-2.08 0-.884-.277-1.56-.832-2.028-.537-.485-1.265-.728-2.184-.728-.936 0-1.681.243-2.236.728-.537.468-.806 1.144-.806 2.028 0 .901.269 1.595.806 2.08.555.468 1.3.702 2.236.702zm-3.796 7.514c0 .867.364 1.508 1.092 1.924.728.433 1.638.65 2.73.65 1.075 0 1.933-.234 2.574-.702.659-.468.988-1.092.988-1.872 0-.555-.225-1.04-.676-1.456-.45-.399-1.282-.633-2.496-.702-.953-.069-1.776-.156-2.47-.26-.71.381-1.178.789-1.404 1.222-.225.451-.338.849-.338 1.196zm13.046-1.664v-12.896h1.976l.182 2.47c.399-.849 1.005-1.525 1.82-2.028s1.82-.754 3.016-.754v2.288h-.598c-.763 0-1.465.139-2.106.416-.641.26-1.153.711-1.534 1.352s-.572 1.525-.572 2.652v6.5zm14.839.312c-1.213 0-2.305-.277-3.276-.832s-1.742-1.335-2.314-2.34c-.555-1.023-.832-2.219-.832-3.588s.286-2.557.858-3.562c.572-1.023 1.343-1.811 2.314-2.366.988-.555 2.089-.832 3.302-.832s2.305.277 3.276.832 1.733 1.343 2.288 2.366c.572 1.005.858 2.193.858 3.562s-.286 2.565-.858 3.588c-.572 1.005-1.352 1.785-2.34 2.34-.971.555-2.063.832-3.276.832zm0-1.872c.745 0 1.439-.182 2.08-.546s1.161-.91 1.56-1.638.598-1.629.598-2.704-.199-1.976-.598-2.704c-.381-.728-.893-1.274-1.534-1.638s-1.326-.546-2.054-.546c-.745 0-1.439.182-2.08.546s-1.161.91-1.56 1.638-.598 1.629-.598 2.704.199 1.976.598 2.704.91 1.274 1.534 1.638c.641.364 1.326.546 2.054.546zm14.217 1.872c-1.526 0-2.739-.459-3.64-1.378-.902-.936-1.352-2.366-1.352-4.29v-7.54h2.184v7.306c0 2.687 1.1 4.03 3.302 4.03 1.126 0 2.054-.399 2.782-1.196.745-.815 1.118-1.967 1.118-3.458v-6.682h2.184v12.896h-1.976l-.156-2.314c-.399.815-.997 1.456-1.794 1.924-.78.468-1.664.702-2.652.702zm10.173-.312v-12.896h1.976l.13 2.314c.416-.815 1.014-1.456 1.794-1.924s1.664-.702 2.652-.702c1.525 0 2.738.468 3.64 1.404.918.919 1.378 2.34 1.378 4.264v7.54h-2.184v-7.306c0-2.687-1.11-4.03-3.328-4.03-1.11 0-2.037.407-2.782 1.222-.728.797-1.092 1.941-1.092 3.432v6.682zm20.729.312c-1.283 0-2.41-.295-3.38-.884-.954-.589-1.699-1.395-2.236-2.418-.52-1.023-.78-2.184-.78-3.484s.268-2.453.806-3.458c.537-1.023 1.282-1.82 2.236-2.392.953-.589 2.08-.884 3.38-.884 1.057 0 1.993.217 2.808.65.814.433 1.447 1.04 1.898 1.82v-7.982h2.184v18.72h-1.976l-.208-2.132c-.416.624-1.014 1.187-1.794 1.69s-1.76.754-2.938.754zm.234-1.898c.866 0 1.629-.199 2.288-.598.676-.416 1.196-.988 1.56-1.716.381-.728.572-1.577.572-2.548s-.191-1.82-.572-2.548c-.364-.728-.884-1.291-1.56-1.69-.659-.416-1.422-.624-2.288-.624-.85 0-1.612.208-2.288.624-.659.399-1.179.962-1.56 1.69-.364.728-.546 1.577-.546 2.548s.182 1.82.546 2.548c.381.728.901 1.3 1.56 1.716.676.399 1.438.598 2.288.598zm10.996 1.716c-.434 0-.798-.139-1.092-.416-.278-.295-.416-.65-.416-1.066s.138-.763.416-1.04c.294-.295.658-.442 1.092-.442.416 0 .762.147 1.04.442.294.277.442.624.442 1.04s-.148.771-.442 1.066c-.278.277-.624.416-1.04.416z" fill="#0a0a0b"/><rect fill="#fcfcfd" height="213.045" rx="8" stroke="#ededee" stroke-width="2" width="352.857" x="1004" y="78"/><path d="m1086.36 159v-18.2h2.19v8.034h9.43v-8.034h2.19v18.2h-2.19v-8.372h-9.43v8.372zm18.92 5.72 3.2-6.968h-.75l-5.13-11.648h2.37l4.26 10.036 4.53-10.036h2.26l-8.45 18.616zm17.68-5.408c-1.29 0-2.41-.295-3.38-.884-.96-.589-1.7-1.395-2.24-2.418-.52-1.023-.78-2.184-.78-3.484s.27-2.453.81-3.458c.53-1.023 1.28-1.82 2.23-2.392.96-.589 2.08-.884 3.38-.884 1.06 0 2 .217 2.81.65.82.433 1.45 1.04 1.9 1.82v-7.982h2.18v18.72h-1.97l-.21-2.132c-.42.624-1.02 1.187-1.8 1.69s-1.75.754-2.93.754zm.23-1.898c.87 0 1.63-.199 2.29-.598.67-.416 1.19-.988 1.56-1.716.38-.728.57-1.577.57-2.548s-.19-1.82-.57-2.548c-.37-.728-.89-1.291-1.56-1.69-.66-.416-1.42-.624-2.29-.624-.85 0-1.61.208-2.29.624-.66.399-1.18.962-1.56 1.69-.36.728-.54 1.577-.54 2.548s.18 1.82.54 2.548c.38.728.9 1.3 1.56 1.716.68.399 1.44.598 2.29.598zm10.24 1.586v-12.896h1.98l.18 2.47c.4-.849 1.01-1.525 1.82-2.028.82-.503 1.82-.754 3.02-.754v2.288h-.6c-.76 0-1.47.139-2.11.416-.64.26-1.15.711-1.53 1.352s-.57 1.525-.57 2.652v6.5zm13.74.312c-1.08 0-1.97-.182-2.68-.546s-1.24-.849-1.59-1.456c-.34-.607-.52-1.265-.52-1.976 0-1.317.51-2.331 1.51-3.042 1.01-.711 2.38-1.066 4.11-1.066h3.48v-.156c0-1.127-.29-1.976-.88-2.548-.59-.589-1.38-.884-2.37-.884-.85 0-1.58.217-2.21.65-.6.416-.98 1.031-1.14 1.846h-2.24c.09-.936.4-1.725.94-2.366.55-.641 1.24-1.127 2.05-1.456.82-.347 1.69-.52 2.6-.52 1.81 0 3.16.485 4.06 1.456.92.953 1.38 2.227 1.38 3.822v7.93h-1.95l-.13-2.314c-.37.728-.9 1.352-1.61 1.872-.7.503-1.63.754-2.81.754zm.34-1.846c.83 0 1.54-.217 2.13-.65.6-.433 1.06-.997 1.38-1.69.31-.693.46-1.421.46-2.184v-.026h-3.3c-1.28 0-2.19.225-2.73.676-.52.433-.78.979-.78 1.638 0 .676.24 1.222.73 1.638.5.399 1.2.598 2.11.598zm14.17 1.534c-1.17 0-2.1-.286-2.78-.858-.67-.572-1.01-1.603-1.01-3.094v-7.098h-2.24v-1.846h2.24l.28-3.094h1.9v3.094h3.8v1.846h-3.8v7.098c0 .815.17 1.369.5 1.664.33.277.91.416 1.74.416h1.35v1.872zm6.29-15.756c-.43 0-.8-.139-1.09-.416-.28-.295-.42-.659-.42-1.092 0-.416.14-.763.42-1.04.29-.277.66-.416 1.09-.416.42 0 .77.139 1.07.416.29.277.44.624.44 1.04 0 .433-.15.797-.44 1.092-.3.277-.65.416-1.07.416zm-1.09 15.756v-12.896h2.18v12.896zm11.86.312c-1.21 0-2.31-.277-3.28-.832s-1.74-1.335-2.31-2.34c-.55-1.023-.83-2.219-.83-3.588s.28-2.557.86-3.562c.57-1.023 1.34-1.811 2.31-2.366.99-.555 2.09-.832 3.3-.832 1.22 0 2.31.277 3.28.832s1.73 1.343 2.29 2.366c.57 1.005.85 2.193.85 3.562s-.28 2.565-.85 3.588c-.58 1.005-1.36 1.785-2.34 2.34-.97.555-2.07.832-3.28.832zm0-1.872c.75 0 1.44-.182 2.08-.546s1.16-.91 1.56-1.638.6-1.629.6-2.704-.2-1.976-.6-2.704c-.38-.728-.89-1.274-1.53-1.638-.65-.364-1.33-.546-2.06-.546-.74 0-1.44.182-2.08.546s-1.16.91-1.56 1.638-.6 1.629-.6 2.704.2 1.976.6 2.704.91 1.274 1.54 1.638c.64.364 1.32.546 2.05.546zm9.51 1.56v-12.896h1.98l.13 2.314c.41-.815 1.01-1.456 1.79-1.924s1.67-.702 2.65-.702c1.53 0 2.74.468 3.64 1.404.92.919 1.38 2.34 1.38 4.264v7.54h-2.18v-7.306c0-2.687-1.11-4.03-3.33-4.03-1.11 0-2.04.407-2.78 1.222-.73.797-1.09 1.941-1.09 3.432v6.682zm26.7.312c-1.54 0-2.82-.39-3.85-1.17-1.02-.78-1.62-1.837-1.79-3.172h2.23c.14.676.5 1.265 1.07 1.768.59.485 1.38.728 2.37.728.92 0 1.59-.191 2.02-.572.44-.399.65-.867.65-1.404 0-.78-.28-1.3-.85-1.56-.56-.26-1.35-.494-2.37-.702-.69-.139-1.39-.338-2.08-.598s-1.27-.624-1.74-1.092c-.47-.485-.7-1.118-.7-1.898 0-1.127.41-2.045 1.24-2.756.85-.728 2-1.092 3.44-1.092 1.37 0 2.48.347 3.35 1.04.88.676 1.4 1.647 1.53 2.912h-2.15c-.09-.659-.38-1.17-.86-1.534-.47-.381-1.1-.572-1.9-.572-.78 0-1.39.165-1.82.494-.42.329-.62.763-.62 1.3 0 .52.27.927.8 1.222.56.295 1.3.546 2.24.754.8.173 1.55.39 2.26.65.73.243 1.32.615 1.77 1.118.47.485.7 1.196.7 2.132.02 1.161-.42 2.123-1.33 2.886-.88.745-2.08 1.118-3.61 1.118zm12.57-.312c-1.18 0-2.1-.286-2.78-.858s-1.01-1.603-1.01-3.094v-7.098h-2.24v-1.846h2.24l.28-3.094h1.9v3.094h3.8v1.846h-3.8v7.098c0 .815.17 1.369.49 1.664.33.277.91.416 1.75.416h1.35v1.872zm10.4.312c-1.23 0-2.32-.277-3.27-.832-.96-.572-1.71-1.361-2.26-2.366-.54-1.005-.81-2.193-.81-3.562 0-1.352.27-2.531.81-3.536.53-1.023 1.28-1.811 2.23-2.366.97-.572 2.09-.858 3.36-.858 1.24 0 2.32.286 3.22.858.92.555 1.62 1.291 2.11 2.21.48.919.72 1.907.72 2.964 0 .191 0 .381-.02.572v.65h-10.27c.05.988.28 1.811.67 2.47.42.641.93 1.127 1.54 1.456.62.329 1.28.494 1.97.494.91 0 1.66-.208 2.27-.624.6-.416 1.04-.979 1.32-1.69h2.16c-.35 1.196-1.01 2.193-2 2.99-.97.78-2.22 1.17-3.75 1.17zm0-11.674c-1.04 0-1.96.321-2.78.962-.8.624-1.25 1.543-1.38 2.756h8.12c-.06-1.161-.45-2.071-1.2-2.73s-1.66-.988-2.76-.988zm9.01 17.082v-18.616h1.97l.21 2.132c.42-.624 1.01-1.187 1.77-1.69.78-.503 1.77-.754 2.96-.754 1.29 0 2.41.295 3.36.884s1.69 1.395 2.21 2.418c.54 1.023.8 2.184.8 3.484s-.26 2.461-.8 3.484c-.52 1.005-1.27 1.803-2.24 2.392-.95.572-2.07.858-3.35.858-1.06 0-2-.217-2.84-.65-.81-.433-1.43-1.04-1.87-1.82v7.878zm6.65-7.306c.87 0 1.63-.199 2.29-.598.66-.416 1.18-.988 1.56-1.716s.57-1.577.57-2.548-.19-1.82-.57-2.548-.9-1.291-1.56-1.69c-.66-.416-1.42-.624-2.29-.624-.86 0-1.62.208-2.28.624-.66.399-1.18.962-1.56 1.69s-.58 1.577-.58 2.548.2 1.82.58 2.548.9 1.3 1.56 1.716c.66.399 1.42.598 2.28.598zm17.88-14.17c-.43 0-.8-.139-1.09-.416-.28-.295-.42-.659-.42-1.092 0-.416.14-.763.42-1.04.29-.277.66-.416 1.09-.416.42 0 .77.139 1.07.416.29.277.44.624.44 1.04 0 .433-.15.797-.44 1.092-.3.277-.65.416-1.07.416zm-1.09 15.756v-12.896h2.18v12.896zm10.93.312c-1.55 0-2.83-.39-3.85-1.17s-1.62-1.837-1.8-3.172h2.24c.14.676.49 1.265 1.07 1.768.59.485 1.37.728 2.36.728.92 0 1.6-.191 2.03-.572.43-.399.65-.867.65-1.404 0-.78-.29-1.3-.86-1.56-.55-.26-1.34-.494-2.36-.702-.7-.139-1.39-.338-2.08-.598-.7-.26-1.28-.624-1.75-1.092-.46-.485-.7-1.118-.7-1.898 0-1.127.42-2.045 1.25-2.756.85-.728 1.99-1.092 3.43-1.092 1.37 0 2.49.347 3.36 1.04.88.676 1.39 1.647 1.53 2.912h-2.16c-.08-.659-.37-1.17-.86-1.534-.46-.381-1.1-.572-1.89-.572-.78 0-1.39.165-1.82.494-.42.329-.63.763-.63 1.3 0 .52.27.927.81 1.222.55.295 1.3.546 2.23.754.8.173 1.56.39 2.27.65.72.243 1.31.615 1.76 1.118.47.485.71 1.196.71 2.132.01 1.161-.43 2.123-1.33 2.886-.88.745-2.09 1.118-3.61 1.118zm-234.03 34c-1.23 0-2.34-.277-3.33-.832-.97-.572-1.74-1.361-2.31-2.366-.56-1.023-.84-2.21-.84-3.562s.28-2.531.84-3.536c.57-1.023 1.34-1.811 2.31-2.366.99-.572 2.1-.858 3.33-.858 1.52 0 2.81.399 3.85 1.196 1.05.797 1.72 1.863 2 3.198h-2.24c-.17-.797-.6-1.413-1.27-1.846-.68-.451-1.47-.676-2.37-.676-.73 0-1.41.182-2.05.546s-1.16.91-1.56 1.638-.6 1.629-.6 2.704.2 1.976.6 2.704.92 1.283 1.56 1.664c.64.364 1.32.546 2.05.546.9 0 1.69-.217 2.37-.65.67-.451 1.1-1.083 1.27-1.898h2.24c-.26 1.3-.92 2.357-1.98 3.172-1.05.815-2.35 1.222-3.87 1.222zm14.78 0c-1.22 0-2.31-.277-3.28-.832s-1.74-1.335-2.31-2.34c-.56-1.023-.84-2.219-.84-3.588s.29-2.557.86-3.562c.57-1.023 1.34-1.811 2.32-2.366s2.08-.832 3.3-.832c1.21 0 2.3.277 3.27.832s1.74 1.343 2.29 2.366c.57 1.005.86 2.193.86 3.562s-.29 2.565-.86 3.588c-.57 1.005-1.35 1.785-2.34 2.34-.97.555-2.06.832-3.27.832zm0-1.872c.74 0 1.43-.182 2.08-.546.64-.364 1.16-.91 1.56-1.638.39-.728.59-1.629.59-2.704s-.2-1.976-.59-2.704-.9-1.274-1.54-1.638-1.32-.546-2.05-.546c-.75 0-1.44.182-2.08.546s-1.16.91-1.56 1.638-.6 1.629-.6 2.704.2 1.976.6 2.704.91 1.274 1.53 1.638c.64.364 1.33.546 2.06.546zm9.51 1.56v-12.896h1.97l.16 1.872c.41-.693.97-1.231 1.66-1.612.7-.381 1.48-.572 2.34-.572 1.02 0 1.9.208 2.63.624.74.416 1.32 1.049 1.71 1.898.45-.78 1.07-1.395 1.85-1.846.8-.451 1.66-.676 2.57-.676 1.55 0 2.78.468 3.7 1.404.91.919 1.37 2.34 1.37 4.264v7.54h-2.15v-7.306c0-1.335-.27-2.34-.81-3.016s-1.31-1.014-2.31-1.014c-1.04 0-1.91.407-2.6 1.222-.68.797-1.02 1.941-1.02 3.432v6.682h-2.18v-7.306c0-1.335-.27-2.34-.81-3.016s-1.31-1.014-2.31-1.014c-1.02 0-1.88.407-2.58 1.222-.67.797-1.01 1.941-1.01 3.432v6.682zm23.25 5.72v-18.616h1.98l.21 2.132c.41-.624 1-1.187 1.77-1.69.78-.503 1.76-.754 2.96-.754 1.28 0 2.4.295 3.35.884.96.589 1.69 1.395 2.21 2.418.54 1.023.81 2.184.81 3.484s-.27 2.461-.81 3.484c-.52 1.005-1.26 1.803-2.23 2.392-.96.572-2.07.858-3.36.858-1.05 0-2-.217-2.83-.65-.82-.433-1.44-1.04-1.87-1.82v7.878zm6.66-7.306c.87 0 1.63-.199 2.29-.598.66-.416 1.18-.988 1.56-1.716s.57-1.577.57-2.548-.19-1.82-.57-2.548-.9-1.291-1.56-1.69c-.66-.416-1.42-.624-2.29-.624s-1.63.208-2.29.624c-.66.399-1.18.962-1.56 1.69s-.57 1.577-.57 2.548.19 1.82.57 2.548.9 1.3 1.56 1.716c.66.399 1.42.598 2.29.598zm9.67 1.586v-18.72h2.18v18.72zm11.56.312c-1.23 0-2.32-.277-3.27-.832-.96-.572-1.71-1.361-2.27-2.366-.53-1.005-.8-2.193-.8-3.562 0-1.352.27-2.531.8-3.536.54-1.023 1.29-1.811 2.24-2.366.97-.572 2.09-.858 3.35-.858 1.25 0 2.33.286 3.23.858.92.555 1.62 1.291 2.1 2.21.49.919.73 1.907.73 2.964 0 .191-.01.381-.02.572v.65h-10.27c.05.988.27 1.811.67 2.47.42.641.93 1.127 1.54 1.456.62.329 1.28.494 1.97.494.9 0 1.66-.208 2.26-.624.61-.416 1.05-.979 1.33-1.69h2.16c-.35 1.196-1.02 2.193-2 2.99-.98.78-2.22 1.17-3.75 1.17zm0-11.674c-1.04 0-1.97.321-2.78.962-.8.624-1.26 1.543-1.38 2.756h8.11c-.05-1.161-.45-2.071-1.19-2.73-.75-.659-1.67-.988-2.76-.988zm13.67 11.362c-1.18 0-2.11-.286-2.78-.858-.68-.572-1.02-1.603-1.02-3.094v-7.098h-2.23v-1.846h2.23l.29-3.094h1.9v3.094h3.79v1.846h-3.79v7.098c0 .815.16 1.369.49 1.664.33.277.91.416 1.74.416h1.36v1.872zm10.4.312c-1.23 0-2.32-.277-3.27-.832-.96-.572-1.71-1.361-2.27-2.366-.53-1.005-.8-2.193-.8-3.562 0-1.352.27-2.531.8-3.536.54-1.023 1.29-1.811 2.24-2.366.97-.572 2.09-.858 3.35-.858 1.25 0 2.33.286 3.23.858.92.555 1.62 1.291 2.1 2.21.49.919.73 1.907.73 2.964 0 .191-.01.381-.02.572v.65h-10.27c.05.988.27 1.811.67 2.47.42.641.93 1.127 1.54 1.456.62.329 1.28.494 1.97.494.9 0 1.66-.208 2.26-.624.61-.416 1.05-.979 1.33-1.69h2.16c-.35 1.196-1.02 2.193-2 2.99-.97.78-2.22 1.17-3.75 1.17zm0-11.674c-1.04 0-1.97.321-2.78.962-.8.624-1.26 1.543-1.38 2.756h8.11c-.05-1.161-.45-2.071-1.19-2.73-.75-.659-1.67-.988-2.76-.988zm20.18 11.674c-1.08 0-1.97-.182-2.68-.546s-1.24-.849-1.59-1.456c-.34-.607-.52-1.265-.52-1.976 0-1.317.51-2.331 1.51-3.042 1.01-.711 2.38-1.066 4.11-1.066h3.48v-.156c0-1.127-.29-1.976-.88-2.548-.59-.589-1.38-.884-2.37-.884-.85 0-1.58.217-2.21.65-.6.416-.98 1.031-1.14 1.846h-2.24c.09-.936.4-1.725.94-2.366.55-.641 1.24-1.127 2.05-1.456.82-.347 1.68-.52 2.6-.52 1.81 0 3.16.485 4.06 1.456.92.953 1.38 2.227 1.38 3.822v7.93h-1.95l-.13-2.314c-.37.728-.9 1.352-1.61 1.872-.7.503-1.63.754-2.81.754zm.34-1.846c.83 0 1.54-.217 2.13-.65.6-.433 1.06-.997 1.38-1.69.31-.693.46-1.421.46-2.184v-.026h-3.3c-1.28 0-2.19.225-2.73.676-.52.433-.78.979-.78 1.638 0 .676.24 1.222.73 1.638.5.399 1.2.598 2.11.598zm9.43 1.534v-12.896h1.98l.13 2.314c.42-.815 1.01-1.456 1.79-1.924s1.67-.702 2.66-.702c1.52 0 2.73.468 3.64 1.404.91.919 1.37 2.34 1.37 4.264v7.54h-2.18v-7.306c0-2.687-1.11-4.03-3.33-4.03-1.11 0-2.03.407-2.78 1.222-.73.797-1.09 1.941-1.09 3.432v6.682zm20.73.312c-1.28 0-2.41-.295-3.38-.884-.95-.589-1.7-1.395-2.23-2.418-.52-1.023-.78-2.184-.78-3.484s.27-2.453.8-3.458c.54-1.023 1.29-1.82 2.24-2.392.95-.589 2.08-.884 3.38-.884 1.06 0 1.99.217 2.81.65.81.433 1.44 1.04 1.89 1.82v-7.982h2.19v18.72h-1.98l-.21-2.132c-.41.624-1.01 1.187-1.79 1.69s-1.76.754-2.94.754zm.24-1.898c.86 0 1.63-.199 2.28-.598.68-.416 1.2-.988 1.56-1.716.39-.728.58-1.577.58-2.548s-.19-1.82-.58-2.548c-.36-.728-.88-1.291-1.56-1.69-.65-.416-1.42-.624-2.28-.624-.85 0-1.62.208-2.29.624-.66.399-1.18.962-1.56 1.69-.37.728-.55 1.577-.55 2.548s.18 1.82.55 2.548c.38.728.9 1.3 1.56 1.716.67.399 1.44.598 2.29.598zm22.22 1.586c-1.18 0-2.11-.286-2.79-.858-.67-.572-1.01-1.603-1.01-3.094v-7.098h-2.24v-1.846h2.24l.29-3.094h1.89v3.094h3.8v1.846h-3.8v7.098c0 .815.17 1.369.5 1.664.33.277.91.416 1.74.416h1.35v1.872zm4.95 0v-18.72h2.19v8.034c.43-.797 1.05-1.413 1.84-1.846.8-.451 1.67-.676 2.6-.676 1.49 0 2.69.468 3.59 1.404.9.919 1.35 2.34 1.35 4.264v7.54h-2.15v-7.306c0-2.687-1.09-4.03-3.25-4.03-1.13 0-2.08.407-2.84 1.222-.76.797-1.14 1.941-1.14 3.432v6.682zm20.68.312c-1.23 0-2.32-.277-3.27-.832-.96-.572-1.71-1.361-2.27-2.366-.53-1.005-.8-2.193-.8-3.562 0-1.352.27-2.531.8-3.536.54-1.023 1.29-1.811 2.24-2.366.97-.572 2.09-.858 3.35-.858 1.25 0 2.33.286 3.23.858.92.555 1.62 1.291 2.1 2.21.49.919.73 1.907.73 2.964 0 .191-.01.381-.02.572v.65h-10.27c.05.988.27 1.811.67 2.47.42.641.93 1.127 1.54 1.456.62.329 1.28.494 1.97.494.9 0 1.66-.208 2.26-.624.61-.416 1.05-.979 1.33-1.69h2.16c-.35 1.196-1.02 2.193-2 2.99-.98.78-2.22 1.17-3.75 1.17zm0-11.674c-1.04 0-1.97.321-2.78.962-.8.624-1.26 1.543-1.38 2.756h8.11c-.05-1.161-.45-2.071-1.19-2.73-.75-.659-1.67-.988-2.76-.988zm20.18 11.674c-1.08 0-1.97-.182-2.68-.546s-1.24-.849-1.59-1.456c-.34-.607-.52-1.265-.52-1.976 0-1.317.51-2.331 1.51-3.042 1.01-.711 2.38-1.066 4.11-1.066h3.48v-.156c0-1.127-.29-1.976-.88-2.548-.59-.589-1.38-.884-2.37-.884-.85 0-1.58.217-2.21.65-.6.416-.99 1.031-1.14 1.846h-2.24c.09-.936.4-1.725.94-2.366.55-.641 1.24-1.127 2.05-1.456.82-.347 1.68-.52 2.6-.52 1.81 0 3.16.485 4.06 1.456.92.953 1.38 2.227 1.38 3.822v7.93h-1.95l-.13-2.314c-.37.728-.9 1.352-1.62 1.872-.69.503-1.62.754-2.8.754zm.33-1.846c.84 0 1.55-.217 2.14-.65.6-.433 1.06-.997 1.37-1.69.32-.693.47-1.421.47-2.184v-.026h-3.3c-1.28 0-2.19.225-2.73.676-.52.433-.78.979-.78 1.638 0 .676.24 1.222.73 1.638.5.399 1.2.598 2.1.598zm9.44 7.254v-18.616h1.98l.21 2.132c.41-.624 1-1.187 1.77-1.69.78-.503 1.76-.754 2.96-.754 1.28 0 2.4.295 3.35.884.96.589 1.69 1.395 2.21 2.418.54 1.023.81 2.184.81 3.484s-.27 2.461-.81 3.484c-.52 1.005-1.26 1.803-2.23 2.392-.96.572-2.07.858-3.36.858-1.05 0-2-.217-2.83-.65-.82-.433-1.44-1.04-1.87-1.82v7.878zm6.66-7.306c.87 0 1.63-.199 2.29-.598.66-.416 1.18-.988 1.56-1.716s.57-1.577.57-2.548-.19-1.82-.57-2.548-.9-1.291-1.56-1.69c-.66-.416-1.42-.624-2.29-.624s-1.63.208-2.29.624c-.66.399-1.18.962-1.56 1.69s-.57 1.577-.57 2.548.19 1.82.57 2.548.9 1.3 1.56 1.716c.66.399 1.42.598 2.29.598zm9.67 7.306v-18.616h1.98l.2 2.132c.42-.624 1.01-1.187 1.77-1.69.78-.503 1.77-.754 2.97-.754 1.28 0 2.4.295 3.35.884s1.69 1.395 2.21 2.418c.54 1.023.81 2.184.81 3.484s-.27 2.461-.81 3.484c-.52 1.005-1.27 1.803-2.24 2.392-.95.572-2.07.858-3.35.858-1.06 0-2-.217-2.83-.65-.82-.433-1.44-1.04-1.88-1.82v7.878zm6.66-7.306c.86 0 1.62-.199 2.28-.598.66-.416 1.18-.988 1.56-1.716s.58-1.577.58-2.548-.2-1.82-.58-2.548-.9-1.291-1.56-1.69c-.66-.416-1.42-.624-2.28-.624-.87 0-1.63.208-2.29.624-.66.399-1.18.962-1.56 1.69s-.57 1.577-.57 2.548.19 1.82.57 2.548.9 1.3 1.56 1.716c.66.399 1.42.598 2.29.598zm17.87-14.17c-.43 0-.79-.139-1.09-.416-.28-.295-.42-.659-.42-1.092 0-.416.14-.763.42-1.04.3-.277.66-.416 1.09-.416.42 0 .77.139 1.07.416.29.277.44.624.44 1.04 0 .433-.15.797-.44 1.092-.3.277-.65.416-1.07.416zm-1.09 15.756v-12.896h2.18v12.896zm10.93.312c-1.55 0-2.83-.39-3.85-1.17s-1.62-1.837-1.79-3.172h2.23c.14.676.5 1.265 1.07 1.768.59.485 1.38.728 2.36.728.92 0 1.6-.191 2.03-.572.43-.399.65-.867.65-1.404 0-.78-.28-1.3-.86-1.56-.55-.26-1.34-.494-2.36-.702-.7-.139-1.39-.338-2.08-.598-.7-.26-1.28-.624-1.74-1.092-.47-.485-.71-1.118-.71-1.898 0-1.127.42-2.045 1.25-2.756.85-.728 1.99-1.092 3.43-1.092 1.37 0 2.49.347 3.36 1.04.88.676 1.39 1.647 1.53 2.912h-2.16c-.08-.659-.37-1.17-.85-1.534-.47-.381-1.11-.572-1.9-.572-.78 0-1.39.165-1.82.494-.42.329-.63.763-.63 1.3 0 .52.27.927.81 1.222.55.295 1.3.546 2.24.754.79.173 1.55.39 2.26.65.73.243 1.31.615 1.77 1.118.46.485.7 1.196.7 2.132.01 1.161-.43 2.123-1.33 2.886-.88.745-2.09 1.118-3.61 1.118zm-232.21 33.688v-11.05h-1.95v-1.846h1.95v-2.236c0-1.248.31-2.158.94-2.73.62-.572 1.53-.858 2.73-.858h1.3v1.872h-.97c-.66 0-1.12.139-1.4.416-.28.26-.42.711-.42 1.352v2.184h3.18v1.846h-3.18v11.05zm12.66.312c-1.52 0-2.74-.459-3.64-1.378-.9-.936-1.35-2.366-1.35-4.29v-7.54h2.18v7.306c0 2.687 1.1 4.03 3.31 4.03 1.12 0 2.05-.399 2.78-1.196.74-.815 1.12-1.967 1.12-3.458v-6.682h2.18v12.896h-1.98l-.15-2.314c-.4.815-1 1.456-1.8 1.924-.78.468-1.66.702-2.65.702zm10.17-.312v-18.72h2.19v18.72zm5.77 0v-18.72h2.18v18.72zm7.17 5.72 3.19-6.968h-.75l-5.12-11.648h2.36l4.27 10.036 4.52-10.036h2.26l-8.45 18.616zm21.25-21.476c-.44 0-.8-.139-1.1-.416-.27-.295-.41-.659-.41-1.092 0-.416.14-.763.41-1.04.3-.277.66-.416 1.1-.416.41 0 .77.139 1.06.416.3.277.44.624.44 1.04 0 .433-.14.797-.44 1.092-.29.277-.65.416-1.06.416zm-1.1 15.756v-12.896h2.19v12.896zm5.99 0v-12.896h1.98l.13 2.314c.41-.815 1.01-1.456 1.79-1.924s1.66-.702 2.65-.702c1.53 0 2.74.468 3.64 1.404.92.919 1.38 2.34 1.38 4.264v7.54h-2.18v-7.306c0-2.687-1.11-4.03-3.33-4.03-1.11 0-2.04.407-2.78 1.222-.73.797-1.1 1.941-1.1 3.432v6.682zm19.98 0c-1.18 0-2.11-.286-2.79-.858-.67-.572-1.01-1.603-1.01-3.094v-7.098h-2.24v-1.846h2.24l.29-3.094h1.89v3.094h3.8v1.846h-3.8v7.098c0 .815.17 1.369.5 1.664.33.277.91.416 1.74.416h1.35v1.872zm10.4.312c-1.23 0-2.33-.277-3.28-.832-.95-.572-1.71-1.361-2.26-2.366-.54-1.005-.81-2.193-.81-3.562 0-1.352.27-2.531.81-3.536.54-1.023 1.28-1.811 2.23-2.366.98-.572 2.09-.858 3.36-.858 1.25 0 2.32.286 3.22.858.92.555 1.62 1.291 2.11 2.21.48.919.73 1.907.73 2.964 0 .191-.01.381-.03.572v.65h-10.27c.05.988.28 1.811.68 2.47.41.641.92 1.127 1.53 1.456.62.329 1.28.494 1.98.494.9 0 1.65-.208 2.26-.624s1.05-.979 1.32-1.69h2.16c-.34 1.196-1.01 2.193-2 2.99-.97.78-2.22 1.17-3.74 1.17zm0-11.674c-1.04 0-1.97.321-2.79.962-.79.624-1.25 1.543-1.37 2.756h8.11c-.05-1.161-.45-2.071-1.2-2.73-.74-.659-1.66-.988-2.75-.988zm9 11.362v-12.896h1.98l.18 2.47c.4-.849 1-1.525 1.82-2.028.81-.503 1.82-.754 3.02-.754v2.288h-.6c-.77 0-1.47.139-2.11.416-.64.26-1.15.711-1.53 1.352s-.57 1.525-.57 2.652v6.5zm13.74.312c-1.08 0-1.97-.182-2.68-.546s-1.24-.849-1.59-1.456c-.34-.607-.52-1.265-.52-1.976 0-1.317.51-2.331 1.51-3.042 1.01-.711 2.38-1.066 4.11-1.066h3.48v-.156c0-1.127-.29-1.976-.88-2.548-.59-.589-1.38-.884-2.37-.884-.85 0-1.58.217-2.21.65-.6.416-.99 1.031-1.14 1.846h-2.24c.09-.936.4-1.725.94-2.366.55-.641 1.24-1.127 2.05-1.456.82-.347 1.68-.52 2.6-.52 1.81 0 3.16.485 4.06 1.456.92.953 1.38 2.227 1.38 3.822v7.93h-1.95l-.13-2.314c-.37.728-.9 1.352-1.62 1.872-.69.503-1.62.754-2.8.754zm.33-1.846c.84 0 1.55-.217 2.14-.65.6-.433 1.06-.997 1.37-1.69.32-.693.47-1.421.47-2.184v-.026h-3.3c-1.28 0-2.19.225-2.73.676-.52.433-.78.979-.78 1.638 0 .676.24 1.222.73 1.638.5.399 1.2.598 2.1.598zm15.37 1.846c-1.23 0-2.34-.277-3.33-.832-.97-.572-1.74-1.361-2.31-2.366-.56-1.023-.83-2.21-.83-3.562s.27-2.531.83-3.536c.57-1.023 1.34-1.811 2.31-2.366.99-.572 2.1-.858 3.33-.858 1.53 0 2.81.399 3.85 1.196 1.06.797 1.72 1.863 2 3.198h-2.23c-.18-.797-.6-1.413-1.28-1.846-.67-.451-1.46-.676-2.36-.676-.73 0-1.42.182-2.06.546s-1.16.91-1.56 1.638-.6 1.629-.6 2.704.2 1.976.6 2.704.92 1.283 1.56 1.664c.64.364 1.33.546 2.06.546.9 0 1.69-.217 2.36-.65.68-.451 1.1-1.083 1.28-1.898h2.23c-.26 1.3-.92 2.357-1.97 3.172-1.06.815-2.35 1.222-3.88 1.222zm13.64-.312c-1.18 0-2.1-.286-2.78-.858s-1.01-1.603-1.01-3.094v-7.098h-2.24v-1.846h2.24l.28-3.094h1.9v3.094h3.8v1.846h-3.8v7.098c0 .815.16 1.369.49 1.664.33.277.91.416 1.75.416h1.35v1.872zm6.29-15.756c-.44 0-.8-.139-1.1-.416-.27-.295-.41-.659-.41-1.092 0-.416.14-.763.41-1.04.3-.277.66-.416 1.1-.416.41 0 .77.139 1.06.416.3.277.44.624.44 1.04 0 .433-.14.797-.44 1.092-.29.277-.65.416-1.06.416zm-1.1 15.756v-12.896h2.19v12.896zm9.71 0-4.89-12.896h2.29l3.87 10.79 3.9-10.79h2.24l-4.89 12.896zm14.98.312c-1.23 0-2.32-.277-3.28-.832-.95-.572-1.71-1.361-2.26-2.366-.54-1.005-.81-2.193-.81-3.562 0-1.352.27-2.531.81-3.536.54-1.023 1.28-1.811 2.24-2.366.97-.572 2.08-.858 3.35-.858 1.25 0 2.32.286 3.22.858.92.555 1.62 1.291 2.11 2.21s.73 1.907.73 2.964c0 .191-.01.381-.03.572v.65h-10.27c.05.988.28 1.811.68 2.47.41.641.93 1.127 1.53 1.456.63.329 1.28.494 1.98.494.9 0 1.65-.208 2.26-.624s1.05-.979 1.33-1.69h2.15c-.34 1.196-1.01 2.193-2 2.99-.97.78-2.22 1.17-3.74 1.17zm0-11.674c-1.04 0-1.97.321-2.78.962-.8.624-1.26 1.543-1.38 2.756h8.11c-.05-1.161-.45-2.071-1.2-2.73-.74-.659-1.66-.988-2.75-.988zm9.76 11.492c-.44 0-.8-.139-1.1-.416-.27-.295-.41-.65-.41-1.066s.14-.763.41-1.04c.3-.295.66-.442 1.1-.442.41 0 .76.147 1.04.442.29.277.44.624.44 1.04s-.15.771-.44 1.066c-.28.277-.63.416-1.04.416z" fill="#0a0a0b"/><g clip-path="url(#a)"><rect fill="#fff" height="416.104" rx="8" stroke="#ededee" stroke-width="2" width="352.857" x="1004" y="336.143"/><g fill="#acffdd" stroke="#00dc82" stroke-width="3"><rect height="11.0029" rx="5.50143" width="61.7549" x="1020.25" y="493.146"/><rect height="11.0029" rx="5.50143" width="136.707" x="1020.25" y="515.995"/><rect height="95.1772" rx="4.5" width="319.944" x="1020.25" y="378.801"/><rect height="95.1772" rx="4.5" width="152.281" x="1020.25" y="548.175"/><rect height="95.1772" rx="4.5" width="152.281" x="1187.91" y="548.175"/><rect height="95.1772" rx="4.5" width="152.281" x="1020.25" y="662.52"/><rect height="95.1772" rx="4.5" width="152.281" x="1187.91" y="662.52"/></g><circle cx="1023.09" cy="354.78" fill="#7f7f8b" r="4.34369"/><circle cx="1038.73" cy="354.78" fill="#94949e" r="4.34369"/><circle cx="1054.37" cy="354.78" fill="#bfbfc5" r="4.34369"/></g><rect height="416" rx="6" stroke="#44444b" stroke-width="2" width="352" x="1004.43" y="336.417"/><g clip-path="url(#b)"><rect fill="#fff" height="416.104" rx="8" stroke="#ededee" stroke-width="2" width="352.857" x="62.5708" y="335.725"/><g fill="#ededee"><rect height="14.0029" rx="7.00143" width="64.7549" x="77.3193" y="491.229"/><rect height="14.0029" rx="7.00143" width="139.707" x="77.3193" y="514.078"/><rect height="98.1772" rx="6" width="322.944" x="77.3193" y="376.883"/><rect height="98.1772" rx="6" width="155.281" x="77.3193" y="546.257"/><rect height="98.1772" rx="6" width="155.281" x="244.982" y="546.257"/><rect height="98.1772" rx="6" width="155.281" x="77.3193" y="660.603"/><rect height="98.1772" rx="6" width="155.281" x="244.982" y="660.603"/></g><circle cx="81.663" cy="354.363" fill="#7f7f8b" r="4.34369"/><circle cx="97.2997" cy="354.363" fill="#94949e" r="4.34369"/><circle cx="112.936" cy="354.363" fill="#bfbfc5" r="4.34369"/></g><rect height="416" rx="6" stroke="#44444b" stroke-width="2" width="352" x="63" y="336"/><g clip-path="url(#c)"><rect fill="#fff" height="416.104" rx="8" stroke="#ededee" stroke-width="2" width="352.857" x="533.571" y="335.725"/><g fill="#ededee"><rect height="14.0029" rx="7.00143" width="64.7549" x="548.319" y="491.229"/><rect height="14.0029" rx="7.00143" width="139.707" x="548.319" y="514.078"/><rect height="98.1772" rx="6" width="322.944" x="548.319" y="376.883"/><rect height="98.1772" rx="6" width="155.281" x="548.319" y="546.257"/><rect height="98.1772" rx="6" width="155.281" x="715.982" y="546.257"/><rect height="98.1772" rx="6" width="155.281" x="548.319" y="660.603"/><rect height="98.1772" rx="6" width="155.281" x="715.982" y="660.603"/></g><circle cx="552.663" cy="354.363" fill="#7f7f8b" r="4.34369"/><circle cx="568.3" cy="354.363" fill="#94949e" r="4.34369"/><circle cx="583.936" cy="354.363" fill="#bfbfc5" r="4.34369"/></g><g stroke-width="2"><rect height="416" rx="6" stroke="#44444b" width="352" x="534" y="336"/><path d="m440.422 183.822h73.777" stroke="#bfbfc5"/><path d="m908.611 183.822h73.777" stroke="#bfbfc5"/><circle cx="414.857" cy="290.628" fill="#fff" r="20.9285" stroke="#ededee"/></g><path d="m414.699 297.628v-12.12l-2.26.5v-1.16l2.82-1.22h1.14v14z" fill="#0a0a0b"/><circle cx="887.714" cy="290.628" fill="#fff" r="20.9285" stroke="#ededee" stroke-width="2"/><path d="m882.751 297.628v-1.18c.947-.747 1.84-1.5 2.68-2.26.854-.773 1.607-1.533 2.26-2.28.667-.747 1.187-1.48 1.56-2.2.387-.72.58-1.413.58-2.08 0-.493-.086-.953-.26-1.38-.16-.427-.426-.767-.8-1.02-.373-.267-.88-.4-1.52-.4-.613 0-1.126.14-1.54.42-.413.267-.726.627-.94 1.08-.2.453-.3.94-.3 1.46h-1.62c0-.92.194-1.707.58-2.36.387-.667.914-1.173 1.58-1.52.667-.347 1.42-.52 2.26-.52 1.24 0 2.254.353 3.04 1.06.8.693 1.2 1.733 1.2 3.12 0 .827-.206 1.647-.62 2.46-.413.8-.94 1.58-1.58 2.34-.64.747-1.326 1.447-2.06 2.1-.72.653-1.393 1.24-2.02 1.76h6.76v1.4z" fill="#0a0a0b"/><circle cx="1356.93" cy="290.929" fill="#fff" r="20.9285" stroke="#ededee" stroke-width="2"/><path d="m1356.39 298.169c-.89 0-1.7-.16-2.42-.48-.72-.334-1.3-.827-1.74-1.48-.43-.654-.65-1.467-.68-2.44h1.7c.01.8.29 1.493.84 2.08.55.573 1.31.86 2.3.86s1.73-.274 2.22-.82c.51-.547.76-1.207.76-1.98 0-.654-.16-1.187-.48-1.6-.31-.414-.73-.72-1.26-.92-.52-.2-1.09-.3-1.72-.3h-1.04v-1.42h1.04c.91 0 1.61-.207 2.12-.62.52-.414.78-.994.78-1.74 0-.627-.21-1.14-.62-1.54-.4-.414-1-.62-1.8-.62-.77 0-1.39.233-1.86.7-.47.453-.73 1.026-.78 1.72h-1.7c.04-.76.24-1.434.6-2.02.37-.587.88-1.04 1.52-1.36.64-.334 1.38-.5 2.22-.5.91 0 1.66.16 2.26.48.61.32 1.07.746 1.38 1.28.32.533.48 1.12.48 1.76 0 .706-.19 1.353-.58 1.94-.39.573-.97.96-1.74 1.16.83.173 1.51.566 2.06 1.18.55.613.82 1.42.82 2.42 0 .773-.18 1.486-.54 2.14-.35.64-.87 1.153-1.56 1.54-.69.386-1.55.58-2.58.58z" fill="#0a0a0b"/><path d="m64 797 819.984-5.062" stroke="#888" stroke-width="3"/><path d="m255.113 831-6.312-16.8h2.184l5.304 14.664 5.352-14.664h2.136l-6.312 16.8zm12.072-14.544c-.4 0-.736-.128-1.008-.384-.256-.272-.384-.608-.384-1.008 0-.384.128-.704.384-.96.272-.256.608-.384 1.008-.384.384 0 .712.128.984.384s.408.576.408.96c0 .4-.136.736-.408 1.008-.272.256-.6.384-.984.384zm-1.008 14.544v-11.904h2.016v11.904zm10.086.288c-1.424 0-2.608-.36-3.552-1.08s-1.496-1.696-1.656-2.928h2.064c.128.624.456 1.168.984 1.632.544.448 1.272.672 2.184.672.848 0 1.472-.176 1.872-.528.4-.368.6-.8.6-1.296 0-.72-.264-1.2-.792-1.44-.512-.24-1.24-.456-2.184-.648-.64-.128-1.28-.312-1.92-.552s-1.176-.576-1.608-1.008c-.432-.448-.648-1.032-.648-1.752 0-1.04.384-1.888 1.152-2.544.784-.672 1.84-1.008 3.168-1.008 1.264 0 2.296.32 3.096.96.816.624 1.288 1.52 1.416 2.688h-1.992c-.08-.608-.344-1.08-.792-1.416-.432-.352-1.016-.528-1.752-.528-.72 0-1.28.152-1.68.456-.384.304-.576.704-.576 1.2 0 .48.248.856.744 1.128.512.272 1.2.504 2.064.696.736.16 1.432.36 2.088.6.672.224 1.216.568 1.632 1.032.432.448.648 1.104.648 1.968.016 1.072-.392 1.96-1.224 2.664-.816.688-1.928 1.032-3.336 1.032zm8.664-14.832c-.4 0-.736-.128-1.008-.384-.256-.272-.384-.608-.384-1.008 0-.384.128-.704.384-.96.272-.256.608-.384 1.008-.384.384 0 .712.128.984.384s.408.576.408.96c0 .4-.136.736-.408 1.008-.272.256-.6.384-.984.384zm-1.008 14.544v-11.904h2.016v11.904zm10.23 0c-1.088 0-1.944-.264-2.568-.792s-.936-1.48-.936-2.856v-6.552h-2.064v-1.704h2.064l.264-2.856h1.752v2.856h3.504v1.704h-3.504v6.552c0 .752.152 1.264.456 1.536.304.256.84.384 1.608.384h1.248v1.728zm9.673.288c-1.12 0-2.128-.256-3.024-.768s-1.608-1.232-2.136-2.16c-.512-.944-.768-2.048-.768-3.312s.264-2.36.792-3.288c.528-.944 1.24-1.672 2.136-2.184.912-.512 1.928-.768 3.048-.768s2.128.256 3.024.768 1.6 1.24 2.112 2.184c.528.928.792 2.024.792 3.288s-.264 2.368-.792 3.312c-.528.928-1.248 1.648-2.16 2.16-.896.512-1.904.768-3.024.768zm0-1.728c.688 0 1.328-.168 1.92-.504s1.072-.84 1.44-1.512.552-1.504.552-2.496-.184-1.824-.552-2.496c-.352-.672-.824-1.176-1.416-1.512s-1.224-.504-1.896-.504c-.688 0-1.328.168-1.92.504s-1.072.84-1.44 1.512-.552 1.504-.552 2.496.184 1.824.552 2.496.84 1.176 1.416 1.512c.592.336 1.224.504 1.896.504zm8.779 1.44v-11.904h1.824l.168 2.28c.368-.784.928-1.408 1.68-1.872s1.68-.696 2.784-.696v2.112h-.552c-.704 0-1.352.128-1.944.384-.592.24-1.064.656-1.416 1.248s-.528 1.408-.528 2.448v6zm13.279.288c-1.424 0-2.608-.36-3.552-1.08s-1.496-1.696-1.656-2.928h2.064c.128.624.456 1.168.984 1.632.544.448 1.272.672 2.184.672.848 0 1.472-.176 1.872-.528.4-.368.6-.8.6-1.296 0-.72-.264-1.2-.792-1.44-.512-.24-1.24-.456-2.184-.648-.64-.128-1.28-.312-1.92-.552s-1.176-.576-1.608-1.008c-.432-.448-.648-1.032-.648-1.752 0-1.04.384-1.888 1.152-2.544.784-.672 1.84-1.008 3.168-1.008 1.264 0 2.296.32 3.096.96.816.624 1.288 1.52 1.416 2.688h-1.992c-.08-.608-.344-1.08-.792-1.416-.432-.352-1.016-.528-1.752-.528-.72 0-1.28.152-1.68.456-.384.304-.576.704-.576 1.2 0 .48.248.856.744 1.128.512.272 1.2.504 2.064.696.736.16 1.432.36 2.088.6.672.224 1.216.568 1.632 1.032.432.448.648 1.104.648 1.968.016 1.072-.392 1.96-1.224 2.664-.816.688-1.928 1.032-3.336 1.032zm19.264 0c-1.136 0-2.16-.256-3.072-.768-.896-.528-1.608-1.256-2.136-2.184-.512-.944-.768-2.04-.768-3.288s.256-2.336.768-3.264c.528-.944 1.24-1.672 2.136-2.184.912-.528 1.936-.792 3.072-.792 1.408 0 2.592.368 3.552 1.104.976.736 1.592 1.72 1.848 2.952h-2.064c-.16-.736-.552-1.304-1.176-1.704-.624-.416-1.352-.624-2.184-.624-.672 0-1.304.168-1.896.504s-1.072.84-1.44 1.512-.552 1.504-.552 2.496.184 1.824.552 2.496.848 1.184 1.44 1.536c.592.336 1.224.504 1.896.504.832 0 1.56-.2 2.184-.6.624-.416 1.016-1 1.176-1.752h2.064c-.24 1.2-.848 2.176-1.824 2.928s-2.168 1.128-3.576 1.128zm12.175 0c-.992 0-1.816-.168-2.472-.504s-1.144-.784-1.464-1.344-.48-1.168-.48-1.824c0-1.216.464-2.152 1.392-2.808s2.192-.984 3.792-.984h3.216v-.144c0-1.04-.272-1.824-.816-2.352-.544-.544-1.272-.816-2.184-.816-.784 0-1.464.2-2.04.6-.56.384-.912.952-1.056 1.704h-2.064c.08-.864.368-1.592.864-2.184.512-.592 1.144-1.04 1.896-1.344.752-.32 1.552-.48 2.4-.48 1.664 0 2.912.448 3.744 1.344.848.88 1.272 2.056 1.272 3.528v7.32h-1.8l-.12-2.136c-.336.672-.832 1.248-1.488 1.728-.64.464-1.504.696-2.592.696zm.312-1.704c.768 0 1.424-.2 1.968-.6.56-.4.984-.92 1.272-1.56s.432-1.312.432-2.016v-.024h-3.048c-1.184 0-2.024.208-2.52.624-.48.4-.72.904-.72 1.512 0 .624.224 1.128.672 1.512.464.368 1.112.552 1.944.552zm8.713 1.416v-11.904h1.824l.12 2.136c.384-.752.936-1.344 1.656-1.776s1.536-.648 2.448-.648c1.408 0 2.528.432 3.36 1.296.848.848 1.271 2.16 1.271 3.936v6.96h-2.015v-6.744c0-2.48-1.024-3.72-3.072-3.72-1.024 0-1.88.376-2.568 1.128-.672.736-1.008 1.792-1.008 3.168v6.168zm20.085 0v-11.904h1.824l.168 2.28c.368-.784.928-1.408 1.68-1.872s1.68-.696 2.784-.696v2.112h-.552c-.704 0-1.352.128-1.944.384-.592.24-1.064.656-1.416 1.248s-.528 1.408-.528 2.448v6zm13.626.288c-1.136 0-2.144-.256-3.024-.768-.88-.528-1.576-1.256-2.088-2.184-.496-.928-.744-2.024-.744-3.288 0-1.248.248-2.336.744-3.264.496-.944 1.184-1.672 2.064-2.184.896-.528 1.928-.792 3.096-.792 1.152 0 2.144.264 2.976.792.848.512 1.496 1.192 1.944 2.04s.672 1.76.672 2.736c0 .176-.008.352-.024.528v.6h-9.48c.048.912.256 1.672.624 2.28.384.592.856 1.04 1.416 1.344.576.304 1.184.456 1.824.456.832 0 1.528-.192 2.088-.576s.968-.904 1.224-1.56h1.992c-.32 1.104-.936 2.024-1.848 2.76-.896.72-2.048 1.08-3.456 1.08zm0-10.776c-.96 0-1.816.296-2.568.888-.736.576-1.16 1.424-1.272 2.544h7.488c-.048-1.072-.416-1.912-1.104-2.52s-1.536-.912-2.544-.912zm12.272 10.776c-.992 0-1.816-.168-2.472-.504s-1.144-.784-1.464-1.344-.48-1.168-.48-1.824c0-1.216.464-2.152 1.392-2.808s2.192-.984 3.792-.984h3.216v-.144c0-1.04-.272-1.824-.816-2.352-.544-.544-1.272-.816-2.184-.816-.784 0-1.464.2-2.04.6-.56.384-.912.952-1.056 1.704h-2.064c.08-.864.368-1.592.864-2.184.512-.592 1.144-1.04 1.896-1.344.752-.32 1.552-.48 2.4-.48 1.664 0 2.912.448 3.744 1.344.848.88 1.272 2.056 1.272 3.528v7.32h-1.8l-.12-2.136c-.336.672-.832 1.248-1.488 1.728-.64.464-1.504.696-2.592.696zm.312-1.704c.768 0 1.424-.2 1.968-.6.56-.4.984-.92 1.272-1.56s.432-1.312.432-2.016v-.024h-3.048c-1.184 0-2.024.208-2.52.624-.48.4-.72.904-.72 1.512 0 .624.224 1.128.672 1.512.464.368 1.112.552 1.944.552zm14.112 1.704c-1.184 0-2.224-.272-3.12-.816-.88-.544-1.568-1.288-2.064-2.232-.48-.944-.72-2.016-.72-3.216s.248-2.264.744-3.192c.496-.944 1.184-1.68 2.064-2.208.88-.544 1.92-.816 3.12-.816.976 0 1.84.2 2.592.6s1.336.96 1.752 1.68v-7.368h2.016v17.28h-1.824l-.192-1.968c-.384.576-.936 1.096-1.656 1.56s-1.624.696-2.712.696zm.216-1.752c.8 0 1.504-.184 2.112-.552.624-.384 1.104-.912 1.44-1.584.352-.672.528-1.456.528-2.352s-.176-1.68-.528-2.352c-.336-.672-.816-1.192-1.44-1.56-.608-.384-1.312-.576-2.112-.576-.784 0-1.488.192-2.112.576-.608.368-1.088.888-1.44 1.56-.336.672-.504 1.456-.504 2.352s.168 1.68.504 2.352c.352.672.832 1.2 1.44 1.584.624.368 1.328.552 2.112.552zm7.847 4.32 1.392-5.304h2.088l-2.088 5.304zm16.785-2.568c-1.424 0-2.608-.36-3.552-1.08s-1.496-1.696-1.656-2.928h2.064c.128.624.456 1.168.984 1.632.544.448 1.272.672 2.184.672.848 0 1.472-.176 1.872-.528.4-.368.6-.8.6-1.296 0-.72-.264-1.2-.792-1.44-.512-.24-1.24-.456-2.184-.648-.64-.128-1.28-.312-1.92-.552s-1.176-.576-1.608-1.008c-.432-.448-.648-1.032-.648-1.752 0-1.04.384-1.888 1.152-2.544.784-.672 1.84-1.008 3.168-1.008 1.264 0 2.296.32 3.096.96.816.624 1.288 1.52 1.416 2.688h-1.992c-.08-.608-.344-1.08-.792-1.416-.432-.352-1.016-.528-1.752-.528-.72 0-1.28.152-1.68.456-.384.304-.576.704-.576 1.2 0 .48.248.856.744 1.128.512.272 1.2.504 2.064.696.736.16 1.432.36 2.088.6.672.224 1.216.568 1.632 1.032.432.448.648 1.104.648 1.968.016 1.072-.392 1.96-1.224 2.664-.816.688-1.928 1.032-3.336 1.032zm12.912 0c-1.136 0-2.16-.256-3.072-.768-.896-.528-1.608-1.256-2.136-2.184-.512-.944-.768-2.04-.768-3.288s.256-2.336.768-3.264c.528-.944 1.24-1.672 2.136-2.184.912-.528 1.936-.792 3.072-.792 1.408 0 2.592.368 3.552 1.104.976.736 1.592 1.72 1.848 2.952h-2.064c-.16-.736-.552-1.304-1.176-1.704-.624-.416-1.352-.624-2.184-.624-.672 0-1.304.168-1.896.504s-1.072.84-1.44 1.512-.552 1.504-.552 2.496.184 1.824.552 2.496.848 1.184 1.44 1.536c.592.336 1.224.504 1.896.504.832 0 1.56-.2 2.184-.6.624-.416 1.016-1 1.176-1.752h2.064c-.24 1.2-.848 2.176-1.824 2.928s-2.168 1.128-3.576 1.128zm8.215-.288v-11.904h1.824l.168 2.28c.368-.784.928-1.408 1.68-1.872s1.68-.696 2.784-.696v2.112h-.552c-.704 0-1.352.128-1.944.384-.592.24-1.064.656-1.416 1.248s-.528 1.408-.528 2.448v6zm13.698.288c-1.12 0-2.128-.256-3.024-.768s-1.608-1.232-2.136-2.16c-.512-.944-.768-2.048-.768-3.312s.264-2.36.792-3.288c.528-.944 1.24-1.672 2.136-2.184.912-.512 1.928-.768 3.048-.768s2.128.256 3.024.768 1.6 1.24 2.112 2.184c.528.928.792 2.024.792 3.288s-.264 2.368-.792 3.312c-.528.928-1.248 1.648-2.16 2.16-.896.512-1.904.768-3.024.768zm0-1.728c.688 0 1.328-.168 1.92-.504s1.072-.84 1.44-1.512.552-1.504.552-2.496-.184-1.824-.552-2.496c-.352-.672-.824-1.176-1.416-1.512s-1.224-.504-1.896-.504c-.688 0-1.328.168-1.92.504s-1.072.84-1.44 1.512-.552 1.504-.552 2.496.184 1.824.552 2.496.84 1.176 1.416 1.512c.592.336 1.224.504 1.896.504zm8.779 1.44v-17.28h2.016v17.28zm5.32 0v-17.28h2.016v17.28zm15.632.288c-.992 0-1.816-.168-2.472-.504s-1.144-.784-1.464-1.344-.48-1.168-.48-1.824c0-1.216.464-2.152 1.392-2.808s2.192-.984 3.792-.984h3.216v-.144c0-1.04-.272-1.824-.816-2.352-.544-.544-1.272-.816-2.184-.816-.784 0-1.464.2-2.04.6-.56.384-.912.952-1.056 1.704h-2.064c.08-.864.368-1.592.864-2.184.512-.592 1.144-1.04 1.896-1.344.752-.32 1.552-.48 2.4-.48 1.664 0 2.912.448 3.744 1.344.848.88 1.272 2.056 1.272 3.528v7.32h-1.8l-.12-2.136c-.336.672-.832 1.248-1.488 1.728-.64.464-1.504.696-2.592.696zm.312-1.704c.768 0 1.424-.2 1.968-.6.56-.4.984-.92 1.272-1.56s.432-1.312.432-2.016v-.024h-3.048c-1.184 0-2.024.208-2.52.624-.48.4-.72.904-.72 1.512 0 .624.224 1.128.672 1.512.464.368 1.112.552 1.944.552zm8.712 1.416v-11.904h1.824l.12 2.136c.384-.752.936-1.344 1.656-1.776s1.536-.648 2.448-.648c1.408 0 2.528.432 3.36 1.296.848.848 1.272 2.16 1.272 3.936v6.96h-2.016v-6.744c0-2.48-1.024-3.72-3.072-3.72-1.024 0-1.88.376-2.568 1.128-.672.736-1.008 1.792-1.008 3.168v6.168zm19.135.288c-1.184 0-2.224-.272-3.12-.816-.88-.544-1.568-1.288-2.064-2.232-.48-.944-.72-2.016-.72-3.216s.248-2.264.744-3.192c.496-.944 1.184-1.68 2.064-2.208.88-.544 1.92-.816 3.12-.816.976 0 1.84.2 2.592.6s1.336.96 1.752 1.68v-7.368h2.016v17.28h-1.824l-.192-1.968c-.384.576-.936 1.096-1.656 1.56s-1.624.696-2.712.696zm.216-1.752c.8 0 1.504-.184 2.112-.552.624-.384 1.104-.912 1.44-1.584.352-.672.528-1.456.528-2.352s-.176-1.68-.528-2.352c-.336-.672-.816-1.192-1.44-1.56-.608-.384-1.312-.576-2.112-.576-.784 0-1.488.192-2.112.576-.608.368-1.088.888-1.44 1.56-.336.672-.504 1.456-.504 2.352s.168 1.68.504 2.352c.352.672.832 1.2 1.44 1.584.624.368 1.328.552 2.112.552zm21.278 1.752c-1.136 0-2.16-.256-3.072-.768-.896-.528-1.608-1.256-2.136-2.184-.512-.944-.768-2.04-.768-3.288s.256-2.336.768-3.264c.528-.944 1.24-1.672 2.136-2.184.912-.528 1.936-.792 3.072-.792 1.408 0 2.592.368 3.552 1.104.976.736 1.592 1.72 1.848 2.952h-2.064c-.16-.736-.552-1.304-1.176-1.704-.624-.416-1.352-.624-2.184-.624-.672 0-1.304.168-1.896.504s-1.072.84-1.44 1.512-.552 1.504-.552 2.496.184 1.824.552 2.496.848 1.184 1.44 1.536c.592.336 1.224.504 1.896.504.832 0 1.56-.2 2.184-.6.624-.416 1.016-1 1.176-1.752h2.064c-.24 1.2-.848 2.176-1.824 2.928s-2.168 1.128-3.576 1.128zm8.215-.288v-17.28h2.016v17.28zm6.545-14.544c-.4 0-.736-.128-1.008-.384-.256-.272-.384-.608-.384-1.008 0-.384.128-.704.384-.96.272-.256.608-.384 1.008-.384.384 0 .712.128.984.384s.408.576.408.96c0 .4-.136.736-.408 1.008-.272.256-.6.384-.984.384zm-1.008 14.544v-11.904h2.016v11.904zm10.998.288c-1.136 0-2.16-.256-3.072-.768-.896-.528-1.608-1.256-2.136-2.184-.512-.944-.768-2.04-.768-3.288s.256-2.336.768-3.264c.528-.944 1.24-1.672 2.136-2.184.912-.528 1.936-.792 3.072-.792 1.408 0 2.592.368 3.552 1.104.976.736 1.592 1.72 1.848 2.952h-2.064c-.16-.736-.552-1.304-1.176-1.704-.624-.416-1.352-.624-2.184-.624-.672 0-1.304.168-1.896.504s-1.072.84-1.44 1.512-.552 1.504-.552 2.496.184 1.824.552 2.496.848 1.184 1.44 1.536c.592.336 1.224.504 1.896.504.832 0 1.56-.2 2.184-.6.624-.416 1.016-1 1.176-1.752h2.064c-.24 1.2-.848 2.176-1.824 2.928s-2.168 1.128-3.576 1.128zm8.215-.288v-17.28h2.016v10.392l4.872-5.016h2.472l-5.28 5.376 5.952 6.528h-2.568l-5.448-6.168v6.168zm23.87.288c-1.12 0-2.128-.256-3.024-.768s-1.608-1.232-2.136-2.16c-.512-.944-.768-2.048-.768-3.312s.264-2.36.792-3.288c.528-.944 1.24-1.672 2.136-2.184.912-.512 1.928-.768 3.048-.768s2.128.256 3.024.768 1.6 1.24 2.112 2.184c.528.928.792 2.024.792 3.288s-.264 2.368-.792 3.312c-.528.928-1.248 1.648-2.16 2.16-.896.512-1.904.768-3.024.768zm0-1.728c.688 0 1.328-.168 1.92-.504s1.072-.84 1.44-1.512.552-1.504.552-2.496-.184-1.824-.552-2.496c-.352-.672-.824-1.176-1.416-1.512s-1.224-.504-1.896-.504c-.688 0-1.328.168-1.92.504s-1.072.84-1.44 1.512-.552 1.504-.552 2.496.184 1.824.552 2.496.84 1.176 1.416 1.512c.592.336 1.224.504 1.896.504zm8.779 1.44v-11.904h1.824l.12 2.136c.384-.752.936-1.344 1.656-1.776s1.536-.648 2.448-.648c1.408 0 2.528.432 3.36 1.296.848.848 1.272 2.16 1.272 3.936v6.96h-2.016v-6.744c0-2.48-1.024-3.72-3.072-3.72-1.024 0-1.88.376-2.568 1.128-.672.736-1.008 1.792-1.008 3.168v6.168zm20.086 0v-17.28h2.016v17.28zm6.544-14.544c-.4 0-.736-.128-1.008-.384-.256-.272-.384-.608-.384-1.008 0-.384.128-.704.384-.96.272-.256.608-.384 1.008-.384.384 0 .712.128.984.384s.408.576.408.96c0 .4-.136.736-.408 1.008-.272.256-.6.384-.984.384zm-1.008 14.544v-11.904h2.016v11.904zm5.526 0v-11.904h1.824l.12 2.136c.384-.752.936-1.344 1.656-1.776s1.536-.648 2.448-.648c1.408 0 2.528.432 3.36 1.296.848.848 1.272 2.16 1.272 3.936v6.96h-2.016v-6.744c0-2.48-1.024-3.72-3.072-3.72-1.024 0-1.88.376-2.568 1.128-.672.736-1.008 1.792-1.008 3.168v6.168zm13.734 0v-17.28h2.016v10.392l4.872-5.016h2.472l-5.28 5.376 5.952 6.528h-2.568l-5.448-6.168v6.168zm15.951.288c-1.424 0-2.608-.36-3.552-1.08s-1.496-1.696-1.656-2.928h2.064c.128.624.456 1.168.984 1.632.544.448 1.272.672 2.184.672.848 0 1.472-.176 1.872-.528.4-.368.6-.8.6-1.296 0-.72-.264-1.2-.792-1.44-.512-.24-1.24-.456-2.184-.648-.64-.128-1.28-.312-1.92-.552s-1.176-.576-1.608-1.008c-.432-.448-.648-1.032-.648-1.752 0-1.04.384-1.888 1.152-2.544.784-.672 1.84-1.008 3.168-1.008 1.264 0 2.296.32 3.096.96.816.624 1.288 1.52 1.416 2.688h-1.992c-.08-.608-.344-1.08-.792-1.416-.432-.352-1.016-.528-1.752-.528-.72 0-1.28.152-1.68.456-.384.304-.576.704-.576 1.2 0 .48.248.856.744 1.128.512.272 1.2.504 2.064.696.736.16 1.432.36 2.088.6.672.224 1.216.568 1.632 1.032.432.448.648 1.104.648 1.968.016 1.072-.392 1.96-1.224 2.664-.816.688-1.928 1.032-3.336 1.032zm8.136-.168c-.4 0-.736-.128-1.008-.384-.256-.272-.384-.6-.384-.984s.128-.704.384-.96c.272-.272.608-.408 1.008-.408.384 0 .704.136.96.408.272.256.408.576.408.96s-.136.712-.408.984c-.256.256-.576.384-.96.384z" fill="#444"/><path d="m63 782h2v30h-2z" fill="#888"/><path d="m884 779h3v30h-3z" fill="#888"/></svg>