<svg fill="none" height="830" viewBox="0 0 1425 830" width="1425" xmlns="http://www.w3.org/2000/svg" xmlns:xlink="http://www.w3.org/1999/xlink"><clipPath id="a"><rect height="416" rx="6" width="352" x="1014" y="331"/></clipPath><rect fill="#fff" height="213.045" rx="8" stroke="#ededee" stroke-width="2" width="352.857" x="62" y="77.585"/><path d="m123.606 159.108v-18.2h6.396c1.283 0 2.34.208 3.172.624.85.399 1.482.953 1.898 1.664.416.693.624 1.473.624 2.34 0 1.179-.32 2.106-.962 2.782-.624.676-1.378 1.144-2.262 1.404.676.121 1.292.39 1.846.806.555.416.988.936 1.3 1.56.33.624.494 1.309.494 2.054 0 .919-.225 1.759-.676 2.522-.45.745-1.118 1.343-2.002 1.794-.884.433-1.958.65-3.224.65zm2.184-10.244h4.056c1.162 0 2.054-.269 2.678-.806.624-.555.936-1.317.936-2.288 0-.919-.312-1.655-.936-2.21-.606-.555-1.525-.832-2.756-.832h-3.978zm0 8.424h4.186c1.248 0 2.21-.286 2.886-.858.676-.589 1.014-1.404 1.014-2.444 0-1.023-.355-1.837-1.066-2.444-.71-.624-1.672-.936-2.886-.936h-4.134zm13.327 1.82v-12.896h1.976l.182 2.47c.399-.849 1.005-1.525 1.82-2.028s1.82-.754 3.016-.754v2.288h-.598c-.763 0-1.465.139-2.106.416-.641.26-1.153.711-1.534 1.352s-.572 1.525-.572 2.652v6.5zm14.839.312c-1.214 0-2.306-.277-3.276-.832-.971-.555-1.742-1.335-2.314-2.34-.555-1.023-.832-2.219-.832-3.588s.286-2.557.858-3.562c.572-1.023 1.343-1.811 2.314-2.366.988-.555 2.088-.832 3.302-.832 1.213 0 2.305.277 3.276.832.97.555 1.733 1.343 2.288 2.366.572 1.005.858 2.193.858 3.562s-.286 2.565-.858 3.588c-.572 1.005-1.352 1.785-2.34 2.34-.971.555-2.063.832-3.276.832zm0-1.872c.745 0 1.438-.182 2.08-.546.641-.364 1.161-.91 1.56-1.638.398-.728.598-1.629.598-2.704s-.2-1.976-.598-2.704c-.382-.728-.893-1.274-1.534-1.638-.642-.364-1.326-.546-2.054-.546-.746 0-1.439.182-2.08.546-.642.364-1.162.91-1.56 1.638-.399.728-.598 1.629-.598 2.704s.199 1.976.598 2.704c.398.728.91 1.274 1.534 1.638.641.364 1.326.546 2.054.546zm11.628 1.56-3.77-12.896h2.184l2.73 10.114 3.016-10.114h2.47l3.042 10.114 2.704-10.114h2.21l-3.77 12.896h-2.236l-3.172-10.634-3.172 10.634zm21.942.312c-1.543 0-2.826-.39-3.848-1.17-1.023-.78-1.621-1.837-1.794-3.172h2.236c.138.676.494 1.265 1.066 1.768.589.485 1.378.728 2.366.728.918 0 1.594-.191 2.028-.572.433-.399.65-.867.65-1.404 0-.78-.286-1.3-.858-1.56-.555-.26-1.344-.494-2.366-.702-.694-.139-1.387-.338-2.08-.598-.694-.26-1.274-.624-1.742-1.092-.468-.485-.702-1.118-.702-1.898 0-1.127.416-2.045 1.248-2.756.849-.728 1.993-1.092 3.432-1.092 1.369 0 2.487.347 3.354 1.04.884.676 1.395 1.647 1.534 2.912h-2.158c-.087-.659-.373-1.17-.858-1.534-.468-.381-1.101-.572-1.898-.572-.78 0-1.387.165-1.82.494-.416.329-.624.763-.624 1.3 0 .52.268.927.806 1.222.554.295 1.3.546 2.236.754.797.173 1.551.39 2.262.65.728.243 1.317.615 1.768 1.118.468.485.702 1.196.702 2.132.017 1.161-.425 2.123-1.326 2.886-.884.745-2.089 1.118-3.614 1.118zm13.858 0c-1.231 0-2.323-.277-3.276-.832-.954-.572-1.708-1.361-2.262-2.366-.538-1.005-.806-2.193-.806-3.562 0-1.352.268-2.531.806-3.536.537-1.023 1.282-1.811 2.236-2.366.97-.572 2.088-.858 3.354-.858 1.248 0 2.322.286 3.224.858.918.555 1.62 1.291 2.106 2.21.485.919.728 1.907.728 2.964 0 .191-.009.381-.026.572v.65h-10.27c.052.988.277 1.811.676 2.47.416.641.927 1.127 1.534 1.456.624.329 1.282.494 1.976.494.901 0 1.655-.208 2.262-.624.606-.416 1.048-.979 1.326-1.69h2.158c-.347 1.196-1.014 2.193-2.002 2.99-.971.78-2.219 1.17-3.744 1.17zm0-11.674c-1.04 0-1.968.321-2.782.962-.798.624-1.257 1.543-1.378 2.756h8.112c-.052-1.161-.451-2.071-1.196-2.73-.746-.659-1.664-.988-2.756-.988zm9.004 11.362v-12.896h1.976l.182 2.47c.399-.849 1.006-1.525 1.82-2.028.815-.503 1.82-.754 3.016-.754v2.288h-.598c-.762 0-1.464.139-2.106.416-.641.26-1.152.711-1.534 1.352-.381.641-.572 1.525-.572 2.652v6.5zm22.177.312c-1.283 0-2.41-.295-3.38-.884-.954-.589-1.699-1.395-2.236-2.418-.52-1.023-.78-2.184-.78-3.484s.268-2.453.806-3.458c.537-1.023 1.282-1.82 2.236-2.392.953-.589 2.08-.884 3.38-.884 1.057 0 1.993.217 2.808.65.814.433 1.447 1.04 1.898 1.82v-7.982h2.184v18.72h-1.976l-.208-2.132c-.416.624-1.014 1.187-1.794 1.69s-1.76.754-2.938.754zm.234-1.898c.866 0 1.629-.199 2.288-.598.676-.416 1.196-.988 1.56-1.716.381-.728.572-1.577.572-2.548s-.191-1.82-.572-2.548c-.364-.728-.884-1.291-1.56-1.69-.659-.416-1.422-.624-2.288-.624-.85 0-1.612.208-2.288.624-.659.399-1.179.962-1.56 1.69-.364.728-.546 1.577-.546 2.548s.182 1.82.546 2.548c.381.728.901 1.3 1.56 1.716.676.399 1.438.598 2.288.598zm16.118 1.898c-1.214 0-2.306-.277-3.276-.832-.971-.555-1.742-1.335-2.314-2.34-.555-1.023-.832-2.219-.832-3.588s.286-2.557.858-3.562c.572-1.023 1.343-1.811 2.314-2.366.988-.555 2.088-.832 3.302-.832 1.213 0 2.305.277 3.276.832.97.555 1.733 1.343 2.288 2.366.572 1.005.858 2.193.858 3.562s-.286 2.565-.858 3.588c-.572 1.005-1.352 1.785-2.34 2.34-.971.555-2.063.832-3.276.832zm0-1.872c.745 0 1.438-.182 2.08-.546.641-.364 1.161-.91 1.56-1.638.398-.728.598-1.629.598-2.704s-.2-1.976-.598-2.704c-.382-.728-.893-1.274-1.534-1.638-.642-.364-1.326-.546-2.054-.546-.746 0-1.439.182-2.08.546-.642.364-1.162.91-1.56 1.638-.399.728-.598 1.629-.598 2.704s.199 1.976.598 2.704c.398.728.91 1.274 1.534 1.638.641.364 1.326.546 2.054.546zm11.628 1.56-3.77-12.896h2.184l2.73 10.114 3.016-10.114h2.47l3.042 10.114 2.704-10.114h2.21l-3.77 12.896h-2.236l-3.172-10.634-3.172 10.634zm17.002 0v-12.896h1.976l.13 2.314c.416-.815 1.014-1.456 1.794-1.924s1.664-.702 2.652-.702c1.525 0 2.738.468 3.64 1.404.918.919 1.378 2.34 1.378 4.264v7.54h-2.184v-7.306c0-2.687-1.11-4.03-3.328-4.03-1.11 0-2.037.407-2.782 1.222-.728.797-1.092 1.941-1.092 3.432v6.682zm14.878 0v-18.72h2.184v18.72zm11.64.312c-1.213 0-2.305-.277-3.276-.832s-1.742-1.335-2.314-2.34c-.555-1.023-.832-2.219-.832-3.588s.286-2.557.858-3.562c.572-1.023 1.343-1.811 2.314-2.366.988-.555 2.089-.832 3.302-.832s2.305.277 3.276.832 1.733 1.343 2.288 2.366c.572 1.005.858 2.193.858 3.562s-.286 2.565-.858 3.588c-.572 1.005-1.352 1.785-2.34 2.34-.971.555-2.063.832-3.276.832zm0-1.872c.745 0 1.439-.182 2.08-.546s1.161-.91 1.56-1.638.598-1.629.598-2.704-.199-1.976-.598-2.704c-.381-.728-.893-1.274-1.534-1.638s-1.326-.546-2.054-.546c-.745 0-1.439.182-2.08.546s-1.161.91-1.56 1.638-.598 1.629-.598 2.704.199 1.976.598 2.704.91 1.274 1.534 1.638c.641.364 1.326.546 2.054.546zm13.801 1.872c-1.075 0-1.967-.182-2.678-.546s-1.239-.849-1.586-1.456-.52-1.265-.52-1.976c0-1.317.503-2.331 1.508-3.042s2.375-1.066 4.108-1.066h3.484v-.156c0-1.127-.295-1.976-.884-2.548-.589-.589-1.378-.884-2.366-.884-.849 0-1.586.217-2.21.65-.607.416-.988 1.031-1.144 1.846h-2.236c.087-.936.399-1.725.936-2.366.555-.641 1.239-1.127 2.054-1.456.815-.347 1.681-.52 2.6-.52 1.803 0 3.155.485 4.056 1.456.919.953 1.378 2.227 1.378 3.822v7.93h-1.95l-.13-2.314c-.364.728-.901 1.352-1.612 1.872-.693.503-1.629.754-2.808.754zm.338-1.846c.832 0 1.543-.217 2.132-.65.607-.433 1.066-.997 1.378-1.69s.468-1.421.468-2.184v-.026h-3.302c-1.283 0-2.193.225-2.73.676-.52.433-.78.979-.78 1.638 0 .676.243 1.222.728 1.638.503.399 1.205.598 2.106.598zm15.288 1.846c-1.282 0-2.409-.295-3.38-.884-.953-.589-1.698-1.395-2.236-2.418-.52-1.023-.78-2.184-.78-3.484s.269-2.453.806-3.458c.538-1.023 1.283-1.82 2.236-2.392.954-.589 2.08-.884 3.38-.884 1.058 0 1.994.217 2.808.65.815.433 1.448 1.04 1.898 1.82v-7.982h2.184v18.72h-1.976l-.208-2.132c-.416.624-1.014 1.187-1.794 1.69s-1.759.754-2.938.754zm.234-1.898c.867 0 1.63-.199 2.288-.598.676-.416 1.196-.988 1.56-1.716.382-.728.572-1.577.572-2.548s-.19-1.82-.572-2.548c-.364-.728-.884-1.291-1.56-1.69-.658-.416-1.421-.624-2.288-.624-.849 0-1.612.208-2.288.624-.658.399-1.178.962-1.56 1.69-.364.728-.546 1.577-.546 2.548s.182 1.82.546 2.548c.382.728.902 1.3 1.56 1.716.676.399 1.439.598 2.288.598zm15.182 1.898c-1.542 0-2.825-.39-3.848-1.17-1.022-.78-1.62-1.837-1.794-3.172h2.236c.139.676.494 1.265 1.066 1.768.59.485 1.378.728 2.366.728.919 0 1.595-.191 2.028-.572.434-.399.65-.867.65-1.404 0-.78-.286-1.3-.858-1.56-.554-.26-1.343-.494-2.366-.702-.693-.139-1.386-.338-2.08-.598-.693-.26-1.274-.624-1.742-1.092-.468-.485-.702-1.118-.702-1.898 0-1.127.416-2.045 1.248-2.756.85-.728 1.994-1.092 3.432-1.092 1.37 0 2.488.347 3.354 1.04.884.676 1.396 1.647 1.534 2.912h-2.158c-.086-.659-.372-1.17-.858-1.534-.468-.381-1.1-.572-1.898-.572-.78 0-1.386.165-1.82.494-.416.329-.624.763-.624 1.3 0 .52.269.927.806 1.222.555.295 1.3.546 2.236.754.798.173 1.552.39 2.262.65.728.243 1.318.615 1.768 1.118.468.485.702 1.196.702 2.132.018 1.161-.424 2.123-1.326 2.886-.884.745-2.088 1.118-3.614 1.118zm-198.874 34c-1.075 0-1.967-.182-2.678-.546s-1.239-.849-1.586-1.456-.52-1.265-.52-1.976c0-1.317.503-2.331 1.508-3.042s2.375-1.066 4.108-1.066h3.484v-.156c0-1.127-.295-1.976-.884-2.548-.589-.589-1.378-.884-2.366-.884-.849 0-1.586.217-2.21.65-.607.416-.988 1.031-1.144 1.846h-2.236c.087-.936.399-1.725.936-2.366.555-.641 1.239-1.127 2.054-1.456.815-.347 1.681-.52 2.6-.52 1.803 0 3.155.485 4.056 1.456.919.953 1.378 2.227 1.378 3.822v7.93h-1.95l-.13-2.314c-.364.728-.901 1.352-1.612 1.872-.693.503-1.629.754-2.808.754zm.338-1.846c.832 0 1.543-.217 2.132-.65.607-.433 1.066-.997 1.378-1.69s.468-1.421.468-2.184v-.026h-3.302c-1.283 0-2.193.225-2.73.676-.52.433-.78.979-.78 1.638 0 .676.243 1.222.728 1.638.503.399 1.205.598 2.106.598zm9.438 1.534v-12.896h1.976l.13 2.314c.416-.815 1.014-1.456 1.794-1.924s1.664-.702 2.652-.702c1.526 0 2.739.468 3.64 1.404.919.919 1.378 2.34 1.378 4.264v7.54h-2.184v-7.306c0-2.687-1.109-4.03-3.328-4.03-1.109 0-2.036.407-2.782 1.222-.728.797-1.092 1.941-1.092 3.432v6.682zm27.558.312c-1.231 0-2.323-.277-3.276-.832-.953-.572-1.707-1.361-2.262-2.366-.537-1.005-.806-2.193-.806-3.562 0-1.352.269-2.531.806-3.536.537-1.023 1.283-1.811 2.236-2.366.971-.572 2.089-.858 3.354-.858 1.248 0 2.323.286 3.224.858.919.555 1.621 1.291 2.106 2.21s.728 1.907.728 2.964c0 .191-.009.381-.026.572v.65h-10.27c.052.988.277 1.811.676 2.47.416.641.927 1.127 1.534 1.456.624.329 1.283.494 1.976.494.901 0 1.655-.208 2.262-.624s1.049-.979 1.326-1.69h2.158c-.347 1.196-1.014 2.193-2.002 2.99-.971.78-2.219 1.17-3.744 1.17zm0-11.674c-1.04 0-1.967.321-2.782.962-.797.624-1.257 1.543-1.378 2.756h8.112c-.052-1.161-.451-2.071-1.196-2.73s-1.664-.988-2.756-.988zm9.005 11.362v-12.896h1.976l.156 1.872c.416-.693.97-1.231 1.664-1.612.693-.381 1.473-.572 2.34-.572 1.022 0 1.898.208 2.626.624.745.416 1.317 1.049 1.716 1.898.45-.78 1.066-1.395 1.846-1.846.797-.451 1.655-.676 2.574-.676 1.542 0 2.773.468 3.692 1.404.918.919 1.378 2.34 1.378 4.264v7.54h-2.158v-7.306c0-1.335-.269-2.34-.806-3.016-.538-.676-1.309-1.014-2.314-1.014-1.04 0-1.907.407-2.6 1.222-.676.797-1.014 1.941-1.014 3.432v6.682h-2.184v-7.306c0-1.335-.269-2.34-.806-3.016-.538-.676-1.309-1.014-2.314-1.014-1.023 0-1.881.407-2.574 1.222-.676.797-1.014 1.941-1.014 3.432v6.682zm23.258 5.72v-18.616h1.976l.208 2.132c.416-.624 1.005-1.187 1.768-1.69.78-.503 1.768-.754 2.964-.754 1.282 0 2.4.295 3.354.884.953.589 1.69 1.395 2.21 2.418.537 1.023.806 2.184.806 3.484s-.269 2.461-.806 3.484c-.52 1.005-1.266 1.803-2.236 2.392-.954.572-2.072.858-3.354.858-1.058 0-2.002-.217-2.834-.65-.815-.433-1.439-1.04-1.872-1.82v7.878zm6.656-7.306c.866 0 1.629-.199 2.288-.598.658-.416 1.178-.988 1.56-1.716.381-.728.572-1.577.572-2.548s-.191-1.82-.572-2.548c-.382-.728-.902-1.291-1.56-1.69-.659-.416-1.422-.624-2.288-.624-.867 0-1.63.208-2.288.624-.659.399-1.179.962-1.56 1.69-.382.728-.572 1.577-.572 2.548s.19 1.82.572 2.548c.381.728.901 1.3 1.56 1.716.658.399 1.421.598 2.288.598zm14.258 1.586c-1.179 0-2.106-.286-2.782-.858s-1.014-1.603-1.014-3.094v-7.098h-2.236v-1.846h2.236l.286-3.094h1.898v3.094h3.796v1.846h-3.796v7.098c0 .815.165 1.369.494 1.664.329.277.91.416 1.742.416h1.352v1.872zm6.363 5.72 3.198-6.968h-.754l-5.122-11.648h2.366l4.264 10.036 4.524-10.036h2.262l-8.45 18.616zm20.054-5.72v-18.2h2.184v8.034h9.438v-8.034h2.184v18.2h-2.184v-8.372h-9.438v8.372zm21.91 0v-16.406h-5.434v-1.794h13.052v1.794h-5.434v16.406zm10.285 0v-18.2h2.548l6.552 12.688 6.5-12.688h2.574v18.2h-2.184v-14.3l-6.084 11.7h-1.638l-6.084-11.674v14.274zm22.014 0v-18.2h2.184v16.458h8.476v1.742zm-146.453 34v-18.2h5.59c3.206 0 5.564.815 7.072 2.444 1.525 1.629 2.288 3.865 2.288 6.708 0 2.791-.763 5.001-2.288 6.63-1.508 1.612-3.866 2.418-7.072 2.418zm2.184-1.82h3.354c1.768 0 3.172-.286 4.212-.858 1.057-.589 1.811-1.421 2.262-2.496.45-1.092.676-2.383.676-3.874 0-1.525-.226-2.834-.676-3.926-.451-1.092-1.205-1.933-2.262-2.522-1.04-.589-2.444-.884-4.212-.884h-3.354zm21.665 2.132c-1.213 0-2.305-.277-3.276-.832s-1.742-1.335-2.314-2.34c-.555-1.023-.832-2.219-.832-3.588s.286-2.557.858-3.562c.572-1.023 1.343-1.811 2.314-2.366.988-.555 2.089-.832 3.302-.832s2.305.277 3.276.832 1.733 1.343 2.288 2.366c.572 1.005.858 2.193.858 3.562s-.286 2.565-.858 3.588c-.572 1.005-1.352 1.785-2.34 2.34-.971.555-2.063.832-3.276.832zm0-1.872c.745 0 1.439-.182 2.08-.546s1.161-.91 1.56-1.638.598-1.629.598-2.704-.199-1.976-.598-2.704c-.381-.728-.893-1.274-1.534-1.638s-1.326-.546-2.054-.546c-.745 0-1.439.182-2.08.546s-1.161.91-1.56 1.638-.598 1.629-.598 2.704.199 1.976.598 2.704.91 1.274 1.534 1.638c.641.364 1.326.546 2.054.546zm15.439 1.872c-1.231 0-2.34-.277-3.328-.832-.971-.572-1.742-1.361-2.314-2.366-.555-1.023-.832-2.21-.832-3.562s.277-2.531.832-3.536c.572-1.023 1.343-1.811 2.314-2.366.988-.572 2.097-.858 3.328-.858 1.525 0 2.808.399 3.848 1.196 1.057.797 1.724 1.863 2.002 3.198h-2.236c-.174-.797-.598-1.413-1.274-1.846-.676-.451-1.465-.676-2.366-.676-.728 0-1.413.182-2.054.546-.642.364-1.162.91-1.56 1.638-.399.728-.598 1.629-.598 2.704s.199 1.976.598 2.704c.398.728.918 1.283 1.56 1.664.641.364 1.326.546 2.054.546.901 0 1.69-.217 2.366-.65.676-.451 1.1-1.083 1.274-1.898h2.236c-.26 1.3-.919 2.357-1.976 3.172-1.058.815-2.349 1.222-3.874 1.222zm13.606 0c-1.525 0-2.739-.459-3.64-1.378-.901-.936-1.352-2.366-1.352-4.29v-7.54h2.184v7.306c0 2.687 1.101 4.03 3.302 4.03 1.127 0 2.054-.399 2.782-1.196.745-.815 1.118-1.967 1.118-3.458v-6.682h2.184v12.896h-1.976l-.156-2.314c-.399.815-.997 1.456-1.794 1.924-.78.468-1.664.702-2.652.702zm10.173-.312v-12.896h1.976l.156 1.872c.416-.693.971-1.231 1.664-1.612s1.473-.572 2.34-.572c1.023 0 1.898.208 2.626.624.745.416 1.317 1.049 1.716 1.898.451-.78 1.066-1.395 1.846-1.846.797-.451 1.655-.676 2.574-.676 1.543 0 2.773.468 3.692 1.404.919.919 1.378 2.34 1.378 4.264v7.54h-2.158v-7.306c0-1.335-.269-2.34-.806-3.016s-1.309-1.014-2.314-1.014c-1.04 0-1.907.407-2.6 1.222-.676.797-1.014 1.941-1.014 3.432v6.682h-2.184v-7.306c0-1.335-.269-2.34-.806-3.016s-1.309-1.014-2.314-1.014c-1.023 0-1.881.407-2.574 1.222-.676.797-1.014 1.941-1.014 3.432v6.682zm29.056.312c-1.231 0-2.323-.277-3.276-.832-.954-.572-1.708-1.361-2.262-2.366-.538-1.005-.806-2.193-.806-3.562 0-1.352.268-2.531.806-3.536.537-1.023 1.282-1.811 2.236-2.366.97-.572 2.088-.858 3.354-.858 1.248 0 2.322.286 3.224.858.918.555 1.62 1.291 2.106 2.21.485.919.728 1.907.728 2.964 0 .191-.009.381-.026.572v.65h-10.27c.052.988.277 1.811.676 2.47.416.641.927 1.127 1.534 1.456.624.329 1.282.494 1.976.494.901 0 1.655-.208 2.262-.624.606-.416 1.048-.979 1.326-1.69h2.158c-.347 1.196-1.014 2.193-2.002 2.99-.971.78-2.219 1.17-3.744 1.17zm0-11.674c-1.04 0-1.968.321-2.782.962-.798.624-1.257 1.543-1.378 2.756h8.112c-.052-1.161-.451-2.071-1.196-2.73-.746-.659-1.664-.988-2.756-.988zm9.004 11.362v-12.896h1.976l.13 2.314c.416-.815 1.014-1.456 1.794-1.924s1.664-.702 2.652-.702c1.526 0 2.739.468 3.64 1.404.919.919 1.378 2.34 1.378 4.264v7.54h-2.184v-7.306c0-2.687-1.109-4.03-3.328-4.03-1.109 0-2.036.407-2.782 1.222-.728.797-1.092 1.941-1.092 3.432v6.682zm19.975 0c-1.178 0-2.106-.286-2.782-.858s-1.014-1.603-1.014-3.094v-7.098h-2.236v-1.846h2.236l.286-3.094h1.898v3.094h3.796v1.846h-3.796v7.098c0 .815.165 1.369.494 1.664.33.277.91.416 1.742.416h1.352v1.872zm5.713.13c-.433 0-.797-.139-1.092-.416-.277-.295-.416-.65-.416-1.066s.139-.763.416-1.04c.295-.295.659-.442 1.092-.442.416 0 .763.147 1.04.442.295.277.442.624.442 1.04s-.147.771-.442 1.066c-.277.277-.624.416-1.04.416z" fill="#0a0a0b"/><rect fill="#fff" height="213.045" rx="8" stroke="#ededee" stroke-width="2" width="352.857" x="541" y="77"/><path d="m602.106 176v-18.2h6.396c1.283 0 2.34.208 3.172.624.85.399 1.482.953 1.898 1.664.416.693.624 1.473.624 2.34 0 1.179-.32 2.106-.962 2.782-.624.676-1.378 1.144-2.262 1.404.676.121 1.292.39 1.846.806.555.416.988.936 1.3 1.56.33.624.494 1.309.494 2.054 0 .919-.225 1.759-.676 2.522-.45.745-1.118 1.343-2.002 1.794-.884.433-1.958.65-3.224.65zm2.184-10.244h4.056c1.162 0 2.054-.269 2.678-.806.624-.555.936-1.317.936-2.288 0-.919-.312-1.655-.936-2.21-.606-.555-1.525-.832-2.756-.832h-3.978zm0 8.424h4.186c1.248 0 2.21-.286 2.886-.858.676-.589 1.014-1.404 1.014-2.444 0-1.023-.355-1.837-1.066-2.444-.71-.624-1.672-.936-2.886-.936h-4.134zm13.327 1.82v-12.896h1.976l.182 2.47c.399-.849 1.005-1.525 1.82-2.028s1.82-.754 3.016-.754v2.288h-.598c-.763 0-1.465.139-2.106.416-.641.26-1.153.711-1.534 1.352s-.572 1.525-.572 2.652v6.5zm14.839.312c-1.214 0-2.306-.277-3.276-.832-.971-.555-1.742-1.335-2.314-2.34-.555-1.023-.832-2.219-.832-3.588s.286-2.557.858-3.562c.572-1.023 1.343-1.811 2.314-2.366.988-.555 2.088-.832 3.302-.832 1.213 0 2.305.277 3.276.832.97.555 1.733 1.343 2.288 2.366.572 1.005.858 2.193.858 3.562s-.286 2.565-.858 3.588c-.572 1.005-1.352 1.785-2.34 2.34-.971.555-2.063.832-3.276.832zm0-1.872c.745 0 1.438-.182 2.08-.546.641-.364 1.161-.91 1.56-1.638.398-.728.598-1.629.598-2.704s-.2-1.976-.598-2.704c-.382-.728-.893-1.274-1.534-1.638-.642-.364-1.326-.546-2.054-.546-.746 0-1.439.182-2.08.546-.642.364-1.162.91-1.56 1.638-.399.728-.598 1.629-.598 2.704s.199 1.976.598 2.704c.398.728.91 1.274 1.534 1.638.641.364 1.326.546 2.054.546zm11.628 1.56-3.77-12.896h2.184l2.73 10.114 3.016-10.114h2.47l3.042 10.114 2.704-10.114h2.21l-3.77 12.896h-2.236l-3.172-10.634-3.172 10.634zm21.942.312c-1.543 0-2.826-.39-3.848-1.17-1.023-.78-1.621-1.837-1.794-3.172h2.236c.138.676.494 1.265 1.066 1.768.589.485 1.378.728 2.366.728.918 0 1.594-.191 2.028-.572.433-.399.65-.867.65-1.404 0-.78-.286-1.3-.858-1.56-.555-.26-1.344-.494-2.366-.702-.694-.139-1.387-.338-2.08-.598-.694-.26-1.274-.624-1.742-1.092-.468-.485-.702-1.118-.702-1.898 0-1.127.416-2.045 1.248-2.756.849-.728 1.993-1.092 3.432-1.092 1.369 0 2.487.347 3.354 1.04.884.676 1.395 1.647 1.534 2.912h-2.158c-.087-.659-.373-1.17-.858-1.534-.468-.381-1.101-.572-1.898-.572-.78 0-1.387.165-1.82.494-.416.329-.624.763-.624 1.3 0 .52.268.927.806 1.222.554.295 1.3.546 2.236.754.797.173 1.551.39 2.262.65.728.243 1.317.615 1.768 1.118.468.485.702 1.196.702 2.132.017 1.161-.425 2.123-1.326 2.886-.884.745-2.089 1.118-3.614 1.118zm13.858 0c-1.231 0-2.323-.277-3.276-.832-.954-.572-1.708-1.361-2.262-2.366-.538-1.005-.806-2.193-.806-3.562 0-1.352.268-2.531.806-3.536.537-1.023 1.282-1.811 2.236-2.366.97-.572 2.088-.858 3.354-.858 1.248 0 2.322.286 3.224.858.918.555 1.62 1.291 2.106 2.21.485.919.728 1.907.728 2.964 0 .191-.009.381-.026.572v.65h-10.27c.052.988.277 1.811.676 2.47.416.641.927 1.127 1.534 1.456.624.329 1.282.494 1.976.494.901 0 1.655-.208 2.262-.624.606-.416 1.048-.979 1.326-1.69h2.158c-.347 1.196-1.014 2.193-2.002 2.99-.971.78-2.219 1.17-3.744 1.17zm0-11.674c-1.04 0-1.968.321-2.782.962-.798.624-1.257 1.543-1.378 2.756h8.112c-.052-1.161-.451-2.071-1.196-2.73-.746-.659-1.664-.988-2.756-.988zm9.004 11.362v-12.896h1.976l.182 2.47c.399-.849 1.006-1.525 1.82-2.028.815-.503 1.82-.754 3.016-.754v2.288h-.598c-.762 0-1.464.139-2.106.416-.641.26-1.152.711-1.534 1.352-.381.641-.572 1.525-.572 2.652v6.5zm22.177.312c-1.283 0-2.41-.295-3.38-.884-.954-.589-1.699-1.395-2.236-2.418-.52-1.023-.78-2.184-.78-3.484s.268-2.453.806-3.458c.537-1.023 1.282-1.82 2.236-2.392.953-.589 2.08-.884 3.38-.884 1.057 0 1.993.217 2.808.65.814.433 1.447 1.04 1.898 1.82v-7.982h2.184v18.72h-1.976l-.208-2.132c-.416.624-1.014 1.187-1.794 1.69s-1.76.754-2.938.754zm.234-1.898c.866 0 1.629-.199 2.288-.598.676-.416 1.196-.988 1.56-1.716.381-.728.572-1.577.572-2.548s-.191-1.82-.572-2.548c-.364-.728-.884-1.291-1.56-1.69-.659-.416-1.422-.624-2.288-.624-.85 0-1.612.208-2.288.624-.659.399-1.179.962-1.56 1.69-.364.728-.546 1.577-.546 2.548s.182 1.82.546 2.548c.381.728.901 1.3 1.56 1.716.676.399 1.438.598 2.288.598zm16.118 1.898c-1.214 0-2.306-.277-3.276-.832-.971-.555-1.742-1.335-2.314-2.34-.555-1.023-.832-2.219-.832-3.588s.286-2.557.858-3.562c.572-1.023 1.343-1.811 2.314-2.366.988-.555 2.088-.832 3.302-.832 1.213 0 2.305.277 3.276.832.97.555 1.733 1.343 2.288 2.366.572 1.005.858 2.193.858 3.562s-.286 2.565-.858 3.588c-.572 1.005-1.352 1.785-2.34 2.34-.971.555-2.063.832-3.276.832zm0-1.872c.745 0 1.438-.182 2.08-.546.641-.364 1.161-.91 1.56-1.638.398-.728.598-1.629.598-2.704s-.2-1.976-.598-2.704c-.382-.728-.893-1.274-1.534-1.638-.642-.364-1.326-.546-2.054-.546-.746 0-1.439.182-2.08.546-.642.364-1.162.91-1.56 1.638-.399.728-.598 1.629-.598 2.704s.199 1.976.598 2.704c.398.728.91 1.274 1.534 1.638.641.364 1.326.546 2.054.546zm11.628 1.56-3.77-12.896h2.184l2.73 10.114 3.016-10.114h2.47l3.042 10.114 2.704-10.114h2.21l-3.77 12.896h-2.236l-3.172-10.634-3.172 10.634zm17.002 0v-12.896h1.976l.13 2.314c.416-.815 1.014-1.456 1.794-1.924s1.664-.702 2.652-.702c1.525 0 2.738.468 3.64 1.404.918.919 1.378 2.34 1.378 4.264v7.54h-2.184v-7.306c0-2.687-1.11-4.03-3.328-4.03-1.11 0-2.037.407-2.782 1.222-.728.797-1.092 1.941-1.092 3.432v6.682zm14.878 0v-18.72h2.184v18.72zm11.64.312c-1.213 0-2.305-.277-3.276-.832s-1.742-1.335-2.314-2.34c-.555-1.023-.832-2.219-.832-3.588s.286-2.557.858-3.562c.572-1.023 1.343-1.811 2.314-2.366.988-.555 2.089-.832 3.302-.832s2.305.277 3.276.832 1.733 1.343 2.288 2.366c.572 1.005.858 2.193.858 3.562s-.286 2.565-.858 3.588c-.572 1.005-1.352 1.785-2.34 2.34-.971.555-2.063.832-3.276.832zm0-1.872c.745 0 1.439-.182 2.08-.546s1.161-.91 1.56-1.638.598-1.629.598-2.704-.199-1.976-.598-2.704c-.381-.728-.893-1.274-1.534-1.638s-1.326-.546-2.054-.546c-.745 0-1.439.182-2.08.546s-1.161.91-1.56 1.638-.598 1.629-.598 2.704.199 1.976.598 2.704.91 1.274 1.534 1.638c.641.364 1.326.546 2.054.546zm13.801 1.872c-1.075 0-1.967-.182-2.678-.546s-1.239-.849-1.586-1.456-.52-1.265-.52-1.976c0-1.317.503-2.331 1.508-3.042s2.375-1.066 4.108-1.066h3.484v-.156c0-1.127-.295-1.976-.884-2.548-.589-.589-1.378-.884-2.366-.884-.849 0-1.586.217-2.21.65-.607.416-.988 1.031-1.144 1.846h-2.236c.087-.936.399-1.725.936-2.366.555-.641 1.239-1.127 2.054-1.456.815-.347 1.681-.52 2.6-.52 1.803 0 3.155.485 4.056 1.456.919.953 1.378 2.227 1.378 3.822v7.93h-1.95l-.13-2.314c-.364.728-.901 1.352-1.612 1.872-.693.503-1.629.754-2.808.754zm.338-1.846c.832 0 1.543-.217 2.132-.65.607-.433 1.066-.997 1.378-1.69s.468-1.421.468-2.184v-.026h-3.302c-1.283 0-2.193.225-2.73.676-.52.433-.78.979-.78 1.638 0 .676.243 1.222.728 1.638.503.399 1.205.598 2.106.598zm15.288 1.846c-1.282 0-2.409-.295-3.38-.884-.953-.589-1.698-1.395-2.236-2.418-.52-1.023-.78-2.184-.78-3.484s.269-2.453.806-3.458c.538-1.023 1.283-1.82 2.236-2.392.954-.589 2.08-.884 3.38-.884 1.058 0 1.994.217 2.808.65.815.433 1.448 1.04 1.898 1.82v-7.982h2.184v18.72h-1.976l-.208-2.132c-.416.624-1.014 1.187-1.794 1.69s-1.759.754-2.938.754zm.234-1.898c.867 0 1.63-.199 2.288-.598.676-.416 1.196-.988 1.56-1.716.382-.728.572-1.577.572-2.548s-.19-1.82-.572-2.548c-.364-.728-.884-1.291-1.56-1.69-.658-.416-1.421-.624-2.288-.624-.849 0-1.612.208-2.288.624-.658.399-1.178.962-1.56 1.69-.364.728-.546 1.577-.546 2.548s.182 1.82.546 2.548c.382.728.902 1.3 1.56 1.716.676.399 1.439.598 2.288.598zm15.182 1.898c-1.542 0-2.825-.39-3.848-1.17-1.022-.78-1.62-1.837-1.794-3.172h2.236c.139.676.494 1.265 1.066 1.768.59.485 1.378.728 2.366.728.919 0 1.595-.191 2.028-.572.434-.399.65-.867.65-1.404 0-.78-.286-1.3-.858-1.56-.554-.26-1.343-.494-2.366-.702-.693-.139-1.386-.338-2.08-.598-.693-.26-1.274-.624-1.742-1.092-.468-.485-.702-1.118-.702-1.898 0-1.127.416-2.045 1.248-2.756.85-.728 1.994-1.092 3.432-1.092 1.37 0 2.488.347 3.354 1.04.884.676 1.396 1.647 1.534 2.912h-2.158c-.086-.659-.372-1.17-.858-1.534-.468-.381-1.1-.572-1.898-.572-.78 0-1.386.165-1.82.494-.416.329-.624.763-.624 1.3 0 .52.269.927.806 1.222.555.295 1.3.546 2.236.754.798.173 1.552.39 2.262.65.728.243 1.318.615 1.768 1.118.468.485.702 1.196.702 2.132.018 1.161-.424 2.123-1.326 2.886-.884.745-2.088 1.118-3.614 1.118zm-199.864 34c-1.075 0-1.968-.182-2.678-.546-.711-.364-1.24-.849-1.586-1.456-.347-.607-.52-1.265-.52-1.976 0-1.317.502-2.331 1.508-3.042 1.005-.711 2.374-1.066 4.108-1.066h3.484v-.156c0-1.127-.295-1.976-.884-2.548-.59-.589-1.378-.884-2.366-.884-.85 0-1.586.217-2.21.65-.607.416-.988 1.031-1.144 1.846h-2.236c.086-.936.398-1.725.936-2.366.554-.641 1.239-1.127 2.054-1.456.814-.347 1.681-.52 2.6-.52 1.802 0 3.154.485 4.056 1.456.918.953 1.378 2.227 1.378 3.822v7.93h-1.95l-.13-2.314c-.364.728-.902 1.352-1.612 1.872-.694.503-1.63.754-2.808.754zm.338-1.846c.832 0 1.542-.217 2.132-.65.606-.433 1.066-.997 1.378-1.69s.468-1.421.468-2.184v-.026h-3.302c-1.283 0-2.193.225-2.73.676-.52.433-.78.979-.78 1.638 0 .676.242 1.222.728 1.638.502.399 1.204.598 2.106.598zm9.438 1.534v-12.896h1.976l.13 2.314c.416-.815 1.014-1.456 1.794-1.924s1.664-.702 2.652-.702c1.525 0 2.739.468 3.64 1.404.919.919 1.378 2.34 1.378 4.264v7.54h-2.184v-7.306c0-2.687-1.109-4.03-3.328-4.03-1.109 0-2.037.407-2.782 1.222-.728.797-1.092 1.941-1.092 3.432v6.682zm20.729.312c-1.283 0-2.409-.295-3.38-.884-.953-.589-1.699-1.395-2.236-2.418-.52-1.023-.78-2.184-.78-3.484s.269-2.453.806-3.458c.537-1.023 1.283-1.82 2.236-2.392.953-.589 2.08-.884 3.38-.884 1.057 0 1.993.217 2.808.65s1.447 1.04 1.898 1.82v-7.982h2.184v18.72h-1.976l-.208-2.132c-.416.624-1.014 1.187-1.794 1.69s-1.759.754-2.938.754zm.234-1.898c.867 0 1.629-.199 2.288-.598.676-.416 1.196-.988 1.56-1.716.381-.728.572-1.577.572-2.548s-.191-1.82-.572-2.548c-.364-.728-.884-1.291-1.56-1.69-.659-.416-1.421-.624-2.288-.624-.849 0-1.612.208-2.288.624-.659.399-1.179.962-1.56 1.69-.364.728-.546 1.577-.546 2.548s.182 1.82.546 2.548c.381.728.901 1.3 1.56 1.716.676.399 1.439.598 2.288.598zm17.123 1.586v-12.896h1.976l.182 2.47c.399-.849 1.005-1.525 1.82-2.028s1.82-.754 3.016-.754v2.288h-.598c-.763 0-1.465.139-2.106.416-.641.26-1.153.711-1.534 1.352s-.572 1.525-.572 2.652v6.5zm14.151.312c-1.525 0-2.738-.459-3.64-1.378-.901-.936-1.352-2.366-1.352-4.29v-7.54h2.184v7.306c0 2.687 1.101 4.03 3.302 4.03 1.127 0 2.054-.399 2.782-1.196.746-.815 1.118-1.967 1.118-3.458v-6.682h2.184v12.896h-1.976l-.156-2.314c-.398.815-.996 1.456-1.794 1.924-.78.468-1.664.702-2.652.702zm10.173-.312v-12.896h1.976l.13 2.314c.416-.815 1.014-1.456 1.794-1.924s1.664-.702 2.652-.702c1.526 0 2.739.468 3.64 1.404.919.919 1.378 2.34 1.378 4.264v7.54h-2.184v-7.306c0-2.687-1.109-4.03-3.328-4.03-1.109 0-2.036.407-2.782 1.222-.728.797-1.092 1.941-1.092 3.432v6.682zm19.819.312c-1.543 0-2.825-.39-3.848-1.17s-1.621-1.837-1.794-3.172h2.236c.139.676.494 1.265 1.066 1.768.589.485 1.378.728 2.366.728.919 0 1.595-.191 2.028-.572.433-.399.65-.867.65-1.404 0-.78-.286-1.3-.858-1.56-.555-.26-1.343-.494-2.366-.702-.693-.139-1.387-.338-2.08-.598s-1.274-.624-1.742-1.092c-.468-.485-.702-1.118-.702-1.898 0-1.127.416-2.045 1.248-2.756.849-.728 1.993-1.092 3.432-1.092 1.369 0 2.487.347 3.354 1.04.884.676 1.395 1.647 1.534 2.912h-2.158c-.087-.659-.373-1.17-.858-1.534-.468-.381-1.101-.572-1.898-.572-.78 0-1.387.165-1.82.494-.416.329-.624.763-.624 1.3 0 .52.269.927.806 1.222.555.295 1.3.546 2.236.754.797.173 1.551.39 2.262.65.728.243 1.317.615 1.768 1.118.468.485.702 1.196.702 2.132.017 1.161-.425 2.123-1.326 2.886-.884.745-2.089 1.118-3.614 1.118zm20.037-.312c-1.179 0-2.106-.286-2.782-.858s-1.014-1.603-1.014-3.094v-7.098h-2.236v-1.846h2.236l.286-3.094h1.898v3.094h3.796v1.846h-3.796v7.098c0 .815.165 1.369.494 1.664.329.277.91.416 1.742.416h1.352v1.872zm4.959 0v-18.72h2.184v8.034c.433-.797 1.048-1.413 1.846-1.846.797-.451 1.664-.676 2.6-.676 1.49 0 2.686.468 3.588 1.404.901.919 1.352 2.34 1.352 4.264v7.54h-2.158v-7.306c0-2.687-1.084-4.03-3.25-4.03-1.127 0-2.072.407-2.834 1.222-.763.797-1.144 1.941-1.144 3.432v6.682zm20.677.312c-1.231 0-2.323-.277-3.276-.832-.954-.572-1.708-1.361-2.262-2.366-.538-1.005-.806-2.193-.806-3.562 0-1.352.268-2.531.806-3.536.537-1.023 1.282-1.811 2.236-2.366.97-.572 2.088-.858 3.354-.858 1.248 0 2.322.286 3.224.858.918.555 1.62 1.291 2.106 2.21.485.919.728 1.907.728 2.964 0 .191-.009.381-.026.572v.65h-10.27c.052.988.277 1.811.676 2.47.416.641.927 1.127 1.534 1.456.624.329 1.282.494 1.976.494.901 0 1.655-.208 2.262-.624.606-.416 1.048-.979 1.326-1.69h2.158c-.347 1.196-1.014 2.193-2.002 2.99-.971.78-2.219 1.17-3.744 1.17zm0-11.674c-1.04 0-1.968.321-2.782.962-.798.624-1.257 1.543-1.378 2.756h8.112c-.052-1.161-.451-2.071-1.196-2.73-.746-.659-1.664-.988-2.756-.988zm20.071 11.674c-1.647 0-2.938-.459-3.874-1.378s-1.404-2.193-1.404-3.822h2.21c0 .919.225 1.69.676 2.314s1.239.936 2.366.936c1.092 0 1.846-.303 2.262-.91.433-.607.65-1.361.65-2.262v-13.39h2.184v13.39c0 1.612-.451 2.869-1.352 3.77-.884.901-2.123 1.352-3.718 1.352zm14.717 0c-1.335 0-2.496-.243-3.484-.728s-1.751-1.161-2.288-2.028c-.538-.867-.806-1.872-.806-3.016h2.288c0 .711.164 1.369.494 1.976.329.589.806 1.066 1.43 1.43.641.347 1.43.52 2.366.52 1.23 0 2.184-.295 2.86-.884s1.014-1.326 1.014-2.21c0-.728-.156-1.309-.468-1.742-.312-.451-.737-.815-1.274-1.092-.52-.277-1.127-.52-1.82-.728-.676-.208-1.387-.442-2.132-.702-1.404-.485-2.444-1.083-3.12-1.794-.676-.728-1.014-1.673-1.014-2.834-.018-.971.208-1.829.676-2.574.468-.763 1.126-1.352 1.976-1.768.866-.433 1.889-.65 3.068-.65 1.161 0 2.166.217 3.016.65.866.433 1.534 1.031 2.002 1.794.485.763.736 1.629.754 2.6h-2.288c0-.503-.13-.997-.39-1.482-.26-.503-.659-.91-1.196-1.222-.52-.312-1.179-.468-1.976-.468-.988-.017-1.803.234-2.444.754-.624.52-.936 1.239-.936 2.158 0 .78.216 1.378.65 1.794.45.416 1.074.763 1.872 1.04.797.26 1.716.563 2.756.91.866.312 1.646.676 2.34 1.092.693.416 1.23.953 1.612 1.612.398.659.598 1.499.598 2.522 0 .867-.226 1.69-.676 2.47-.451.763-1.136 1.387-2.054 1.872-.902.485-2.037.728-3.406.728zm9.857-.182c-.433 0-.797-.139-1.092-.416-.277-.295-.416-.65-.416-1.066s.139-.763.416-1.04c.295-.295.659-.442 1.092-.442.416 0 .763.147 1.04.442.295.277.442.624.442 1.04s-.147.771-.442 1.066c-.277.277-.624.416-1.04.416z" fill="#0a0a0b"/><rect fill="#fff" height="213.045" rx="8" stroke="#ededee" stroke-width="2" width="352.857" x="1013.86" y="77"/><path d="m1106.37 158.523v-16.406h-5.43v-1.794h13.05v1.794h-5.43v16.406zm10.16 0v-18.72h2.18v8.034c.44-.797 1.05-1.413 1.85-1.846.8-.451 1.66-.676 2.6-.676 1.49 0 2.69.468 3.59 1.404.9.919 1.35 2.34 1.35 4.264v7.54h-2.16v-7.306c0-2.687-1.08-4.03-3.25-4.03-1.13 0-2.07.407-2.83 1.222-.77.797-1.15 1.941-1.15 3.432v6.682zm20.68.312c-1.23 0-2.33-.277-3.28-.832-.95-.572-1.71-1.361-2.26-2.366-.54-1.005-.81-2.193-.81-3.562 0-1.352.27-2.531.81-3.536.54-1.023 1.28-1.811 2.23-2.366.97-.572 2.09-.858 3.36-.858 1.25 0 2.32.286 3.22.858.92.555 1.62 1.291 2.11 2.21.48.919.73 1.907.73 2.964 0 .191-.01.381-.03.572v.65h-10.27c.05.988.28 1.811.68 2.47.41.641.92 1.127 1.53 1.456.62.329 1.28.494 1.98.494.9 0 1.65-.208 2.26-.624.6-.416 1.05-.979 1.32-1.69h2.16c-.34 1.196-1.01 2.193-2 2.99-.97.78-2.22 1.17-3.74 1.17zm0-11.674c-1.04 0-1.97.321-2.79.962-.79.624-1.25 1.543-1.37 2.756h8.11c-.05-1.161-.45-2.071-1.2-2.73-.74-.659-1.66-.988-2.75-.988zm20.17 11.674c-1.07 0-1.97-.182-2.68-.546s-1.24-.849-1.58-1.456c-.35-.607-.52-1.265-.52-1.976 0-1.317.5-2.331 1.51-3.042 1-.711 2.37-1.066 4.1-1.066h3.49v-.156c0-1.127-.3-1.976-.89-2.548-.59-.589-1.37-.884-2.36-.884-.85 0-1.59.217-2.21.65-.61.416-.99 1.031-1.15 1.846h-2.23c.08-.936.4-1.725.93-2.366.56-.641 1.24-1.127 2.06-1.456.81-.347 1.68-.52 2.6-.52 1.8 0 3.15.485 4.05 1.456.92.953 1.38 2.227 1.38 3.822v7.93h-1.95l-.13-2.314c-.36.728-.9 1.352-1.61 1.872-.69.503-1.63.754-2.81.754zm.34-1.846c.83 0 1.54-.217 2.13-.65.61-.433 1.07-.997 1.38-1.69s.47-1.421.47-2.184v-.026h-3.3c-1.29 0-2.2.225-2.73.676-.52.433-.78.979-.78 1.638 0 .676.24 1.222.72 1.638.51.399 1.21.598 2.11.598zm9.44 7.254v-18.616h1.97l.21 2.132c.42-.624 1.01-1.187 1.77-1.69.78-.503 1.77-.754 2.96-.754 1.29 0 2.4.295 3.36.884.95.589 1.69 1.395 2.21 2.418.54 1.023.8 2.184.8 3.484s-.26 2.461-.8 3.484c-.52 1.005-1.27 1.803-2.24 2.392-.95.572-2.07.858-3.35.858-1.06 0-2-.217-2.84-.65-.81-.433-1.43-1.04-1.87-1.82v7.878zm6.65-7.306c.87 0 1.63-.199 2.29-.598.66-.416 1.18-.988 1.56-1.716s.57-1.577.57-2.548-.19-1.82-.57-2.548-.9-1.291-1.56-1.69c-.66-.416-1.42-.624-2.29-.624-.86 0-1.63.208-2.28.624-.66.399-1.18.962-1.56 1.69-.39.728-.58 1.577-.58 2.548s.19 1.82.58 2.548c.38.728.9 1.3 1.56 1.716.65.399 1.42.598 2.28.598zm9.67 7.306v-18.616h1.98l.21 2.132c.41-.624 1-1.187 1.77-1.69.78-.503 1.76-.754 2.96-.754 1.28 0 2.4.295 3.35.884.96.589 1.69 1.395 2.21 2.418.54 1.023.81 2.184.81 3.484s-.27 2.461-.81 3.484c-.52 1.005-1.26 1.803-2.23 2.392-.96.572-2.07.858-3.36.858-1.05 0-2-.217-2.83-.65-.81-.433-1.44-1.04-1.87-1.82v7.878zm6.66-7.306c.87 0 1.63-.199 2.29-.598.66-.416 1.18-.988 1.56-1.716s.57-1.577.57-2.548-.19-1.82-.57-2.548-.9-1.291-1.56-1.69c-.66-.416-1.42-.624-2.29-.624s-1.63.208-2.29.624c-.66.399-1.18.962-1.56 1.69s-.57 1.577-.57 2.548.19 1.82.57 2.548.9 1.3 1.56 1.716c.66.399 1.42.598 2.29.598zm17.88-14.17c-.44 0-.8-.139-1.09-.416-.28-.295-.42-.659-.42-1.092 0-.416.14-.763.42-1.04.29-.277.65-.416 1.09-.416.41 0 .77.139 1.06.416.3.277.45.624.45 1.04 0 .433-.15.797-.45 1.092-.29.277-.65.416-1.06.416zm-1.09 15.756v-12.896h2.18v12.896zm10.92.312c-1.54 0-2.82-.39-3.85-1.17-1.02-.78-1.62-1.837-1.79-3.172h2.24c.13.676.49 1.265 1.06 1.768.59.485 1.38.728 2.37.728.92 0 1.59-.191 2.03-.572.43-.399.65-.867.65-1.404 0-.78-.29-1.3-.86-1.56-.56-.26-1.35-.494-2.37-.702-.69-.139-1.38-.338-2.08-.598-.69-.26-1.27-.624-1.74-1.092-.47-.485-.7-1.118-.7-1.898 0-1.127.41-2.045 1.25-2.756.85-.728 1.99-1.092 3.43-1.092 1.37 0 2.49.347 3.35 1.04.89.676 1.4 1.647 1.54 2.912h-2.16c-.09-.659-.37-1.17-.86-1.534-.47-.381-1.1-.572-1.9-.572-.78 0-1.38.165-1.82.494-.41.329-.62.763-.62 1.3 0 .52.27.927.8 1.222.56.295 1.3.546 2.24.754.8.173 1.55.39 2.26.65.73.243 1.32.615 1.77 1.118.47.485.7 1.196.7 2.132.02 1.161-.42 2.123-1.32 2.886-.89.745-2.09 1.118-3.62 1.118zm14.94-.312v-12.896h1.98l.13 2.314c.41-.815 1.01-1.456 1.79-1.924s1.67-.702 2.65-.702c1.53 0 2.74.468 3.64 1.404.92.919 1.38 2.34 1.38 4.264v7.54h-2.18v-7.306c0-2.687-1.11-4.03-3.33-4.03-1.11 0-2.04.407-2.78 1.222-.73.797-1.09 1.941-1.09 3.432v6.682zm20.76.312c-1.22 0-2.31-.277-3.28-.832s-1.74-1.335-2.31-2.34c-.56-1.023-.83-2.219-.83-3.588s.28-2.557.85-3.562c.58-1.023 1.35-1.811 2.32-2.366.99-.555 2.09-.832 3.3-.832s2.3.277 3.28.832c.97.555 1.73 1.343 2.28 2.366.58 1.005.86 2.193.86 3.562s-.28 2.565-.86 3.588c-.57 1.005-1.35 1.785-2.34 2.34-.97.555-2.06.832-3.27.832zm0-1.872c.74 0 1.44-.182 2.08-.546s1.16-.91 1.56-1.638.6-1.629.6-2.704-.2-1.976-.6-2.704c-.38-.728-.9-1.274-1.54-1.638s-1.32-.546-2.05-.546c-.75 0-1.44.182-2.08.546s-1.16.91-1.56 1.638-.6 1.629-.6 2.704.2 1.976.6 2.704.91 1.274 1.53 1.638c.64.364 1.33.546 2.06.546zm11.63 1.56-3.77-12.896h2.18l2.73 10.114 3.02-10.114h2.47l3.04 10.114 2.7-10.114h2.21l-3.77 12.896h-2.23l-3.18-10.634-3.17 10.634zm-154.11 34v-12.896h1.98l.18 2.47c.4-.849 1-1.525 1.82-2.028.81-.503 1.82-.754 3.01-.754v2.288h-.59c-.77 0-1.47.139-2.11.416-.64.26-1.15.711-1.53 1.352-.39.641-.58 1.525-.58 2.652v6.5zm14.76.312c-1.23 0-2.32-.277-3.28-.832-.95-.572-1.7-1.361-2.26-2.366-.53-1.005-.8-2.193-.8-3.562 0-1.352.27-2.531.8-3.536.54-1.023 1.29-1.811 2.24-2.366.97-.572 2.09-.858 3.35-.858 1.25 0 2.33.286 3.23.858.92.555 1.62 1.291 2.1 2.21.49.919.73 1.907.73 2.964 0 .191-.01.381-.03.572v.65h-10.27c.06.988.28 1.811.68 2.47.42.641.93 1.127 1.53 1.456.63.329 1.29.494 1.98.494.9 0 1.66-.208 2.26-.624.61-.416 1.05-.979 1.33-1.69h2.16c-.35 1.196-1.02 2.193-2.01 2.99-.97.78-2.21 1.17-3.74 1.17zm0-11.674c-1.04 0-1.97.321-2.78.962-.8.624-1.26 1.543-1.38 2.756h8.11c-.05-1.161-.45-2.071-1.19-2.73-.75-.659-1.67-.988-2.76-.988zm9.01 11.362v-12.896h1.97l.13 2.314c.42-.815 1.02-1.456 1.8-1.924s1.66-.702 2.65-.702c1.52 0 2.74.468 3.64 1.404.92.919 1.38 2.34 1.38 4.264v7.54h-2.19v-7.306c0-2.687-1.11-4.03-3.33-4.03-1.11 0-2.03.407-2.78 1.222-.73.797-1.09 1.941-1.09 3.432v6.682zm20.72.312c-1.28 0-2.4-.295-3.38-.884-.95-.589-1.69-1.395-2.23-2.418-.52-1.023-.78-2.184-.78-3.484s.27-2.453.8-3.458c.54-1.023 1.29-1.82 2.24-2.392.95-.589 2.08-.884 3.38-.884 1.06 0 1.99.217 2.81.65.81.433 1.45 1.04 1.9 1.82v-7.982h2.18v18.72h-1.98l-.2-2.132c-.42.624-1.02 1.187-1.8 1.69s-1.76.754-2.94.754zm.24-1.898c.87 0 1.63-.199 2.29-.598.67-.416 1.19-.988 1.56-1.716.38-.728.57-1.577.57-2.548s-.19-1.82-.57-2.548c-.37-.728-.89-1.291-1.56-1.69-.66-.416-1.42-.624-2.29-.624-.85 0-1.61.208-2.29.624-.66.399-1.18.962-1.56 1.69-.36.728-.55 1.577-.55 2.548s.19 1.82.55 2.548c.38.728.9 1.3 1.56 1.716.68.399 1.44.598 2.29.598zm16.04 1.898c-1.23 0-2.32-.277-3.28-.832-.95-.572-1.7-1.361-2.26-2.366-.54-1.005-.81-2.193-.81-3.562 0-1.352.27-2.531.81-3.536.54-1.023 1.28-1.811 2.24-2.366.97-.572 2.09-.858 3.35-.858 1.25 0 2.32.286 3.22.858.92.555 1.63 1.291 2.11 2.21.49.919.73 1.907.73 2.964 0 .191-.01.381-.03.572v.65h-10.27c.05.988.28 1.811.68 2.47.41.641.93 1.127 1.53 1.456.63.329 1.29.494 1.98.494.9 0 1.65-.208 2.26-.624s1.05-.979 1.33-1.69h2.15c-.34 1.196-1.01 2.193-2 2.99-.97.78-2.22 1.17-3.74 1.17zm0-11.674c-1.04 0-1.97.321-2.78.962-.8.624-1.26 1.543-1.38 2.756h8.11c-.05-1.161-.45-2.071-1.2-2.73-.74-.659-1.66-.988-2.75-.988zm9 11.362v-12.896h1.98l.18 2.47c.4-.849 1.01-1.525 1.82-2.028.82-.503 1.82-.754 3.02-.754v2.288h-.6c-.76 0-1.47.139-2.11.416-.64.26-1.15.711-1.53 1.352s-.57 1.525-.57 2.652v6.5zm14.76.312c-1.23 0-2.32-.277-3.27-.832-.95-.572-1.71-1.361-2.26-2.366-.54-1.005-.81-2.193-.81-3.562 0-1.352.27-2.531.81-3.536.53-1.023 1.28-1.811 2.23-2.366.97-.572 2.09-.858 3.36-.858 1.24 0 2.32.286 3.22.858.92.555 1.62 1.291 2.11 2.21.48.919.72 1.907.72 2.964 0 .191 0 .381-.02.572v.65h-10.27c.05.988.28 1.811.67 2.47.42.641.93 1.127 1.54 1.456.62.329 1.28.494 1.97.494.91 0 1.66-.208 2.27-.624.6-.416 1.05-.979 1.32-1.69h2.16c-.35 1.196-1.01 2.193-2 2.99-.97.78-2.22 1.17-3.75 1.17zm0-11.674c-1.04 0-1.96.321-2.78.962-.79.624-1.25 1.543-1.38 2.756h8.12c-.06-1.161-.45-2.071-1.2-2.73-.74-.659-1.66-.988-2.76-.988zm14.86 11.674c-1.28 0-2.41-.295-3.38-.884-.95-.589-1.7-1.395-2.24-2.418-.52-1.023-.78-2.184-.78-3.484s.27-2.453.81-3.458c.54-1.023 1.28-1.82 2.24-2.392.95-.589 2.08-.884 3.38-.884 1.05 0 1.99.217 2.8.65.82.433 1.45 1.04 1.9 1.82v-7.982h2.19v18.72h-1.98l-.21-2.132c-.41.624-1.01 1.187-1.79 1.69s-1.76.754-2.94.754zm.23-1.898c.87 0 1.63-.199 2.29-.598.68-.416 1.2-.988 1.56-1.716.38-.728.57-1.577.57-2.548s-.19-1.82-.57-2.548c-.36-.728-.88-1.291-1.56-1.69-.66-.416-1.42-.624-2.29-.624-.85 0-1.61.208-2.28.624-.66.399-1.18.962-1.56 1.69-.37.728-.55 1.577-.55 2.548s.18 1.82.55 2.548c.38.728.9 1.3 1.56 1.716.67.399 1.43.598 2.28.598zm21.42 1.898c-1.08 0-1.97-.182-2.68-.546s-1.24-.849-1.59-1.456c-.34-.607-.52-1.265-.52-1.976 0-1.317.5-2.331 1.51-3.042s2.37-1.066 4.11-1.066h3.48v-.156c0-1.127-.29-1.976-.88-2.548-.59-.589-1.38-.884-2.37-.884-.85 0-1.58.217-2.21.65-.6.416-.99 1.031-1.14 1.846h-2.24c.09-.936.4-1.725.94-2.366.55-.641 1.24-1.127 2.05-1.456.82-.347 1.68-.52 2.6-.52 1.8 0 3.16.485 4.06 1.456.92.953 1.38 2.227 1.38 3.822v7.93h-1.95l-.13-2.314c-.37.728-.91 1.352-1.62 1.872-.69.503-1.63.754-2.8.754zm.33-1.846c.84 0 1.55-.217 2.14-.65.6-.433 1.06-.997 1.37-1.69.32-.693.47-1.421.47-2.184v-.026h-3.3c-1.28 0-2.19.225-2.73.676-.52.433-.78.979-.78 1.638 0 .676.24 1.222.73 1.638.5.399 1.2.598 2.1.598zm9.44 1.534v-12.896h1.98l.13 2.314c.41-.815 1.01-1.456 1.79-1.924s1.67-.702 2.65-.702c1.53 0 2.74.468 3.64 1.404.92.919 1.38 2.34 1.38 4.264v7.54h-2.18v-7.306c0-2.687-1.11-4.03-3.33-4.03-1.11 0-2.04.407-2.78 1.222-.73.797-1.09 1.941-1.09 3.432v6.682zm20.73.312c-1.28 0-2.41-.295-3.38-.884-.95-.589-1.7-1.395-2.23-2.418-.52-1.023-.78-2.184-.78-3.484s.26-2.453.8-3.458c.54-1.023 1.28-1.82 2.24-2.392.95-.589 2.08-.884 3.38-.884 1.05 0 1.99.217 2.81.65.81.433 1.44 1.04 1.89 1.82v-7.982h2.19v18.72h-1.98l-.21-2.132c-.41.624-1.01 1.187-1.79 1.69s-1.76.754-2.94.754zm.24-1.898c.86 0 1.62-.199 2.28-.598.68-.416 1.2-.988 1.56-1.716.38-.728.58-1.577.58-2.548s-.2-1.82-.58-2.548c-.36-.728-.88-1.291-1.56-1.69-.66-.416-1.42-.624-2.28-.624-.85 0-1.62.208-2.29.624-.66.399-1.18.962-1.56 1.69-.37.728-.55 1.577-.55 2.548s.18 1.82.55 2.548c.38.728.9 1.3 1.56 1.716.67.399 1.44.598 2.29.598zm-135.77 19.83c-.43 0-.79-.139-1.09-.416-.27-.295-.41-.659-.41-1.092 0-.416.14-.763.41-1.04.3-.277.66-.416 1.09-.416.42 0 .78.139 1.07.416.3.277.44.624.44 1.04 0 .433-.14.797-.44 1.092-.29.277-.65.416-1.07.416zm-1.09 15.756v-12.896h2.19v12.896zm5.99 0v-12.896h1.98l.13 2.314c.41-.815 1.01-1.456 1.79-1.924s1.66-.702 2.65-.702c1.53 0 2.74.468 3.64 1.404.92.919 1.38 2.34 1.38 4.264v7.54h-2.18v-7.306c0-2.687-1.11-4.03-3.33-4.03-1.11 0-2.04.407-2.78 1.222-.73.797-1.1 1.941-1.1 3.432v6.682zm19.97 0c-1.17 0-2.1-.286-2.78-.858-.67-.572-1.01-1.603-1.01-3.094v-7.098h-2.24v-1.846h2.24l.28-3.094h1.9v3.094h3.8v1.846h-3.8v7.098c0 .815.17 1.369.5 1.664.33.277.91.416 1.74.416h1.35v1.872zm10.41.312c-1.24 0-2.33-.277-3.28-.832-.95-.572-1.71-1.361-2.26-2.366-.54-1.005-.81-2.193-.81-3.562 0-1.352.27-2.531.81-3.536.53-1.023 1.28-1.811 2.23-2.366.97-.572 2.09-.858 3.36-.858 1.25 0 2.32.286 3.22.858.92.555 1.62 1.291 2.11 2.21.48.919.73 1.907.73 2.964 0 .191-.01.381-.03.572v.65h-10.27c.05.988.28 1.811.68 2.47.41.641.92 1.127 1.53 1.456.62.329 1.28.494 1.98.494.9 0 1.65-.208 2.26-.624.6-.416 1.05-.979 1.32-1.69h2.16c-.35 1.196-1.01 2.193-2 2.99-.97.78-2.22 1.17-3.74 1.17zm0-11.674c-1.04 0-1.97.321-2.79.962-.79.624-1.25 1.543-1.37 2.756h8.11c-.05-1.161-.45-2.071-1.2-2.73-.74-.659-1.66-.988-2.75-.988zm9 11.362v-12.896h1.98l.18 2.47c.4-.849 1-1.525 1.82-2.028.81-.503 1.82-.754 3.01-.754v2.288h-.59c-.77 0-1.47.139-2.11.416-.64.26-1.15.711-1.53 1.352-.39.641-.58 1.525-.58 2.652v6.5zm13.74.312c-1.08 0-1.97-.182-2.68-.546s-1.24-.849-1.59-1.456-.52-1.265-.52-1.976c0-1.317.5-2.331 1.51-3.042 1-.711 2.37-1.066 4.11-1.066h3.48v-.156c0-1.127-.29-1.976-.88-2.548-.59-.589-1.38-.884-2.37-.884-.85 0-1.58.217-2.21.65-.61.416-.99 1.031-1.14 1.846h-2.24c.09-.936.4-1.725.94-2.366.55-.641 1.24-1.127 2.05-1.456.82-.347 1.68-.52 2.6-.52 1.8 0 3.16.485 4.06 1.456.92.953 1.38 2.227 1.38 3.822v7.93h-1.95l-.13-2.314c-.37.728-.91 1.352-1.62 1.872-.69.503-1.63.754-2.8.754zm.33-1.846c.84 0 1.55-.217 2.14-.65.6-.433 1.06-.997 1.37-1.69.32-.693.47-1.421.47-2.184v-.026h-3.3c-1.28 0-2.19.225-2.73.676-.52.433-.78.979-.78 1.638 0 .676.24 1.222.73 1.638.5.399 1.2.598 2.1.598zm15.37 1.846c-1.23 0-2.34-.277-3.33-.832-.97-.572-1.74-1.361-2.31-2.366-.56-1.023-.83-2.21-.83-3.562s.27-2.531.83-3.536c.57-1.023 1.34-1.811 2.31-2.366.99-.572 2.1-.858 3.33-.858 1.53 0 2.81.399 3.85 1.196 1.06.797 1.72 1.863 2 3.198h-2.24c-.17-.797-.59-1.413-1.27-1.846-.68-.451-1.46-.676-2.37-.676-.72 0-1.41.182-2.05.546s-1.16.91-1.56 1.638-.6 1.629-.6 2.704.2 1.976.6 2.704.92 1.283 1.56 1.664c.64.364 1.33.546 2.05.546.91 0 1.69-.217 2.37-.65.68-.451 1.1-1.083 1.27-1.898h2.24c-.26 1.3-.92 2.357-1.98 3.172-1.05.815-2.34 1.222-3.87 1.222zm13.64-.312c-1.18 0-2.11-.286-2.78-.858-.68-.572-1.02-1.603-1.02-3.094v-7.098h-2.23v-1.846h2.23l.29-3.094h1.9v3.094h3.79v1.846h-3.79v7.098c0 .815.16 1.369.49 1.664.33.277.91.416 1.74.416h1.36v1.872zm6.29-15.756c-.44 0-.8-.139-1.1-.416-.27-.295-.41-.659-.41-1.092 0-.416.14-.763.41-1.04.3-.277.66-.416 1.1-.416.41 0 .77.139 1.06.416.3.277.44.624.44 1.04 0 .433-.14.797-.44 1.092-.29.277-.65.416-1.06.416zm-1.1 15.756v-12.896h2.19v12.896zm9.71 0-4.89-12.896h2.29l3.87 10.79 3.9-10.79h2.24l-4.89 12.896zm14.98.312c-1.23 0-2.33-.277-3.28-.832-.95-.572-1.71-1.361-2.26-2.366-.54-1.005-.81-2.193-.81-3.562 0-1.352.27-2.531.81-3.536.54-1.023 1.28-1.811 2.23-2.366.97-.572 2.09-.858 3.36-.858 1.25 0 2.32.286 3.22.858.92.555 1.62 1.291 2.11 2.21.48.919.73 1.907.73 2.964 0 .191-.01.381-.03.572v.65h-10.27c.05.988.28 1.811.68 2.47.41.641.92 1.127 1.53 1.456.62.329 1.28.494 1.98.494.9 0 1.65-.208 2.26-.624.6-.416 1.05-.979 1.32-1.69h2.16c-.34 1.196-1.01 2.193-2 2.99-.97.78-2.22 1.17-3.74 1.17zm0-11.674c-1.04 0-1.97.321-2.79.962-.79.624-1.25 1.543-1.37 2.756h8.11c-.05-1.161-.45-2.071-1.2-2.73-.74-.659-1.66-.988-2.75-.988zm9.75 11.492c-.43 0-.79-.139-1.09-.416-.27-.295-.41-.65-.41-1.066s.14-.763.41-1.04c.3-.295.66-.442 1.09-.442.42 0 .77.147 1.04.442.3.277.45.624.45 1.04s-.15.771-.45 1.066c-.27.277-.62.416-1.04.416z" fill="#0a0a0b"/><rect fill="#fff" height="416.104" rx="8" stroke="#0a0a0b" stroke-width="2" width="352.857" x="541" y="335.555"/><path d="m675.729 581.153v-18.72h2.184v18.72zm11.639.312c-1.213 0-2.305-.277-3.276-.832-.97-.554-1.742-1.334-2.314-2.34-.554-1.022-.832-2.218-.832-3.588 0-1.369.286-2.556.858-3.562.572-1.022 1.344-1.811 2.314-2.366.988-.554 2.089-.832 3.302-.832 1.214 0 2.306.278 3.276.832.971.555 1.734 1.344 2.288 2.366.572 1.006.858 2.193.858 3.562 0 1.37-.286 2.566-.858 3.588-.572 1.006-1.352 1.786-2.34 2.34-.97.555-2.062.832-3.276.832zm0-1.872c.746 0 1.439-.182 2.08-.546.642-.364 1.162-.91 1.56-1.638.399-.728.598-1.629.598-2.704 0-1.074-.199-1.976-.598-2.704-.381-.728-.892-1.274-1.534-1.638-.641-.364-1.326-.546-2.054-.546-.745 0-1.438.182-2.08.546-.641.364-1.161.91-1.56 1.638-.398.728-.598 1.63-.598 2.704 0 1.075.2 1.976.598 2.704.399.728.91 1.274 1.534 1.638.642.364 1.326.546 2.054.546zm13.801 1.872c-1.075 0-1.967-.182-2.678-.546s-1.239-.849-1.586-1.456c-.347-.606-.52-1.265-.52-1.976 0-1.317.503-2.331 1.508-3.042 1.005-.71 2.375-1.066 4.108-1.066h3.484v-.156c0-1.126-.295-1.976-.884-2.548-.589-.589-1.378-.884-2.366-.884-.849 0-1.586.217-2.21.65-.607.416-.988 1.032-1.144 1.846h-2.236c.087-.936.399-1.724.936-2.366.555-.641 1.239-1.126 2.054-1.456.815-.346 1.681-.52 2.6-.52 1.803 0 3.155.486 4.056 1.456.919.954 1.378 2.228 1.378 3.822v7.93h-1.95l-.13-2.314c-.364.728-.901 1.352-1.612 1.872-.693.503-1.629.754-2.808.754zm.338-1.846c.832 0 1.543-.216 2.132-.65.607-.433 1.066-.996 1.378-1.69.312-.693.468-1.421.468-2.184v-.026h-3.302c-1.283 0-2.193.226-2.73.676-.52.434-.78.98-.78 1.638 0 .676.243 1.222.728 1.638.503.399 1.205.598 2.106.598zm15.288 1.846c-1.282 0-2.409-.294-3.38-.884-.953-.589-1.698-1.395-2.236-2.418-.52-1.022-.78-2.184-.78-3.484s.269-2.452.806-3.458c.538-1.022 1.283-1.82 2.236-2.392.954-.589 2.08-.884 3.38-.884 1.058 0 1.994.217 2.808.65.815.434 1.448 1.04 1.898 1.82v-7.982h2.184v18.72h-1.976l-.208-2.132c-.416.624-1.014 1.188-1.794 1.69-.78.503-1.759.754-2.938.754zm.234-1.898c.867 0 1.63-.199 2.288-.598.676-.416 1.196-.988 1.56-1.716.382-.728.572-1.577.572-2.548 0-.97-.19-1.82-.572-2.548-.364-.728-.884-1.291-1.56-1.69-.658-.416-1.421-.624-2.288-.624-.849 0-1.612.208-2.288.624-.658.399-1.178.962-1.56 1.69-.364.728-.546 1.578-.546 2.548 0 .971.182 1.82.546 2.548.382.728.902 1.3 1.56 1.716.676.399 1.439.598 2.288.598zm11.569-14.17c-.434 0-.798-.138-1.092-.416-.278-.294-.416-.658-.416-1.092 0-.416.138-.762.416-1.04.294-.277.658-.416 1.092-.416.416 0 .771.139 1.066.416.294.278.442.624.442 1.04 0 .434-.148.798-.442 1.092-.295.278-.65.416-1.066.416zm-1.092 15.756v-12.896h2.184v12.896zm5.986 0v-12.896h1.976l.13 2.314c.416-.814 1.014-1.456 1.794-1.924s1.664-.702 2.652-.702c1.526 0 2.739.468 3.64 1.404.919.919 1.378 2.34 1.378 4.264v7.54h-2.184v-7.306c0-2.686-1.109-4.03-3.328-4.03-1.109 0-2.036.408-2.782 1.222-.728.798-1.092 1.942-1.092 3.432v6.682zm19.975-4.056c-.728 0-1.395-.095-2.002-.286l-1.3 1.222c.191.139.425.26.702.364.295.087.711.174 1.248.26.537.07 1.291.148 2.262.234 1.733.122 2.973.52 3.718 1.196s1.118 1.56 1.118 2.652c0 .746-.208 1.456-.624 2.132-.399.676-1.023 1.231-1.872 1.664-.832.434-1.907.65-3.224.65-1.161 0-2.193-.156-3.094-.468-.901-.294-1.603-.754-2.106-1.378-.503-.606-.754-1.378-.754-2.314 0-.485.13-1.014.39-1.586.26-.554.745-1.083 1.456-1.586-.381-.156-.711-.32-.988-.494-.26-.19-.503-.398-.728-.624v-.598l2.21-2.184c-1.023-.866-1.534-2.01-1.534-3.432 0-.849.199-1.62.598-2.314.399-.693.979-1.239 1.742-1.638.763-.416 1.69-.624 2.782-.624.745 0 1.421.104 2.028.312h4.758v1.638l-2.418.104c.503.728.754 1.569.754 2.522 0 .85-.208 1.621-.624 2.314-.399.694-.979 1.248-1.742 1.664-.745.399-1.664.598-2.756.598zm0-1.794c.919 0 1.647-.234 2.184-.702.555-.485.832-1.178.832-2.08 0-.884-.277-1.56-.832-2.028-.537-.485-1.265-.728-2.184-.728-.936 0-1.681.243-2.236.728-.537.468-.806 1.144-.806 2.028 0 .902.269 1.595.806 2.08.555.468 1.3.702 2.236.702zm-3.796 7.514c0 .867.364 1.508 1.092 1.924.728.434 1.638.65 2.73.65 1.075 0 1.933-.234 2.574-.702.659-.468.988-1.092.988-1.872 0-.554-.225-1.04-.676-1.456-.451-.398-1.283-.632-2.496-.702-.953-.069-1.777-.156-2.47-.26-.711.382-1.179.789-1.404 1.222-.225.451-.338.85-.338 1.196z" fill="#94949e"/><circle cx="560.092" cy="354.193" fill="#7f7f8b" r="4.34369"/><circle cx="575.729" cy="354.193" fill="#94949e" r="4.34369"/><circle cx="591.366" cy="354.193" fill="#bfbfc5" r="4.34369"/><path d="m730.612 523.911h-7.55c-.442 0-.866.175-1.178.488-.313.312-.488.736-.488 1.178s.175.866.488 1.179c.312.312.736.488 1.178.488h4c-1.838 1.921-4.209 3.249-6.808 3.812-2.599.564-5.306.337-7.775-.65-2.47-.987-4.587-2.69-6.081-4.89s-2.295-4.796-2.302-7.455c0-.442-.176-.866-.489-1.179-.312-.312-.736-.488-1.178-.488s-.866.176-1.179.488c-.312.313-.488.737-.488 1.179.009 3.254.971 6.435 2.766 9.15 1.796 2.714 4.347 4.844 7.339 6.125 2.992 1.282 6.293 1.659 9.497 1.086s6.17-2.072 8.532-4.311v2.95c0 .442.175.866.488 1.178.312.313.736.488 1.178.488s.866-.175 1.179-.488c.312-.312.488-.736.488-1.178v-7.5c-.004-.431-.175-.843-.476-1.151-.302-.307-.71-.486-1.141-.499zm-13.183-22.517c-4.273.012-8.378 1.665-11.467 4.617v-2.95c0-.442-.175-.866-.488-1.179-.313-.312-.736-.488-1.178-.488s-.866.176-1.179.488c-.313.313-.488.737-.488 1.179v7.5c0 .442.175.866.488 1.178.313.313.737.488 1.179.488h7.5c.442 0 .865-.175 1.178-.488.313-.312.488-.736.488-1.178s-.175-.866-.488-1.179c-.313-.312-.736-.488-1.178-.488h-4c1.837-1.92 4.206-3.247 6.804-3.811 2.597-.564 5.303-.339 7.772.646 2.468.985 4.586 2.685 6.081 4.883 1.495 2.197 2.299 4.791 2.309 7.449 0 .442.176.866.488 1.178.313.313.737.488 1.179.488s.866-.175 1.178-.488c.313-.312.489-.736.489-1.178 0-2.189-.432-4.356-1.269-6.378-.838-2.022-2.065-3.86-3.613-5.407-1.548-1.548-3.385-2.776-5.407-3.613-2.022-.838-4.189-1.269-6.378-1.269z" fill="#6b6b76"/><rect fill="#fff" height="416.104" rx="8" stroke="#0a0a0b" stroke-width="2" width="352.857" x="61" y="336"/><path d="m195.729 581.598v-18.72h2.184v18.72zm11.639.312c-1.213 0-2.305-.277-3.276-.832-.97-.555-1.742-1.335-2.314-2.34-.554-1.023-.832-2.219-.832-3.588s.286-2.557.858-3.562c.572-1.023 1.344-1.811 2.314-2.366.988-.555 2.089-.832 3.302-.832 1.214 0 2.306.277 3.276.832.971.555 1.734 1.343 2.288 2.366.572 1.005.858 2.193.858 3.562s-.286 2.565-.858 3.588c-.572 1.005-1.352 1.785-2.34 2.34-.97.555-2.062.832-3.276.832zm0-1.872c.746 0 1.439-.182 2.08-.546.642-.364 1.162-.91 1.56-1.638.399-.728.598-1.629.598-2.704s-.199-1.976-.598-2.704c-.381-.728-.892-1.274-1.534-1.638-.641-.364-1.326-.546-2.054-.546-.745 0-1.438.182-2.08.546-.641.364-1.161.91-1.56 1.638-.398.728-.598 1.629-.598 2.704s.2 1.976.598 2.704c.399.728.91 1.274 1.534 1.638.642.364 1.326.546 2.054.546zm13.801 1.872c-1.075 0-1.967-.182-2.678-.546s-1.239-.849-1.586-1.456-.52-1.265-.52-1.976c0-1.317.503-2.331 1.508-3.042s2.375-1.066 4.108-1.066h3.484v-.156c0-1.127-.295-1.976-.884-2.548-.589-.589-1.378-.884-2.366-.884-.849 0-1.586.217-2.21.65-.607.416-.988 1.031-1.144 1.846h-2.236c.087-.936.399-1.725.936-2.366.555-.641 1.239-1.127 2.054-1.456.815-.347 1.681-.52 2.6-.52 1.803 0 3.155.485 4.056 1.456.919.953 1.378 2.227 1.378 3.822v7.93h-1.95l-.13-2.314c-.364.728-.901 1.352-1.612 1.872-.693.503-1.629.754-2.808.754zm.338-1.846c.832 0 1.543-.217 2.132-.65.607-.433 1.066-.997 1.378-1.69s.468-1.421.468-2.184v-.026h-3.302c-1.283 0-2.193.225-2.73.676-.52.433-.78.979-.78 1.638 0 .676.243 1.222.728 1.638.503.399 1.205.598 2.106.598zm15.288 1.846c-1.282 0-2.409-.295-3.38-.884-.953-.589-1.698-1.395-2.236-2.418-.52-1.023-.78-2.184-.78-3.484s.269-2.453.806-3.458c.538-1.023 1.283-1.82 2.236-2.392.954-.589 2.08-.884 3.38-.884 1.058 0 1.994.217 2.808.65.815.433 1.448 1.04 1.898 1.82v-7.982h2.184v18.72h-1.976l-.208-2.132c-.416.624-1.014 1.187-1.794 1.69s-1.759.754-2.938.754zm.234-1.898c.867 0 1.63-.199 2.288-.598.676-.416 1.196-.988 1.56-1.716.382-.728.572-1.577.572-2.548s-.19-1.82-.572-2.548c-.364-.728-.884-1.291-1.56-1.69-.658-.416-1.421-.624-2.288-.624-.849 0-1.612.208-2.288.624-.658.399-1.178.962-1.56 1.69-.364.728-.546 1.577-.546 2.548s.182 1.82.546 2.548c.382.728.902 1.3 1.56 1.716.676.399 1.439.598 2.288.598zm11.569-14.17c-.434 0-.798-.139-1.092-.416-.278-.295-.416-.659-.416-1.092 0-.416.138-.763.416-1.04.294-.277.658-.416 1.092-.416.416 0 .771.139 1.066.416.294.277.442.624.442 1.04 0 .433-.148.797-.442 1.092-.295.277-.65.416-1.066.416zm-1.092 15.756v-12.896h2.184v12.896zm5.986 0v-12.896h1.976l.13 2.314c.416-.815 1.014-1.456 1.794-1.924s1.664-.702 2.652-.702c1.526 0 2.739.468 3.64 1.404.919.919 1.378 2.34 1.378 4.264v7.54h-2.184v-7.306c0-2.687-1.109-4.03-3.328-4.03-1.109 0-2.036.407-2.782 1.222-.728.797-1.092 1.941-1.092 3.432v6.682zm19.975-4.056c-.728 0-1.395-.095-2.002-.286l-1.3 1.222c.191.139.425.26.702.364.295.087.711.173 1.248.26.537.069 1.291.147 2.262.234 1.733.121 2.973.52 3.718 1.196s1.118 1.56 1.118 2.652c0 .745-.208 1.456-.624 2.132-.399.676-1.023 1.231-1.872 1.664-.832.433-1.907.65-3.224.65-1.161 0-2.193-.156-3.094-.468-.901-.295-1.603-.754-2.106-1.378-.503-.607-.754-1.378-.754-2.314 0-.485.13-1.014.39-1.586.26-.555.745-1.083 1.456-1.586-.381-.156-.711-.321-.988-.494-.26-.191-.503-.399-.728-.624v-.598l2.21-2.184c-1.023-.867-1.534-2.011-1.534-3.432 0-.849.199-1.621.598-2.314s.979-1.239 1.742-1.638c.763-.416 1.69-.624 2.782-.624.745 0 1.421.104 2.028.312h4.758v1.638l-2.418.104c.503.728.754 1.569.754 2.522 0 .849-.208 1.621-.624 2.314-.399.693-.979 1.248-1.742 1.664-.745.399-1.664.598-2.756.598zm0-1.794c.919 0 1.647-.234 2.184-.702.555-.485.832-1.179.832-2.08 0-.884-.277-1.56-.832-2.028-.537-.485-1.265-.728-2.184-.728-.936 0-1.681.243-2.236.728-.537.468-.806 1.144-.806 2.028 0 .901.269 1.595.806 2.08.555.468 1.3.702 2.236.702zm-3.796 7.514c0 .867.364 1.508 1.092 1.924.728.433 1.638.65 2.73.65 1.075 0 1.933-.234 2.574-.702.659-.468.988-1.092.988-1.872 0-.555-.225-1.04-.676-1.456-.451-.399-1.283-.633-2.496-.702-.953-.069-1.777-.156-2.47-.26-.711.381-1.179.789-1.404 1.222-.225.451-.338.849-.338 1.196z" fill="#94949e"/><circle cx="80.0922" cy="354.638" fill="#7f7f8b" r="4.34369"/><circle cx="95.7289" cy="354.638" fill="#94949e" r="4.34369"/><circle cx="111.366" cy="354.638" fill="#bfbfc5" r="4.34369"/><path d="m250.612 524.356h-7.55c-.442 0-.866.175-1.178.488-.313.312-.488.736-.488 1.178s.175.866.488 1.179c.312.312.736.488 1.178.488h4c-1.838 1.921-4.209 3.249-6.808 3.812-2.599.564-5.306.337-7.775-.65-2.47-.987-4.587-2.69-6.081-4.89s-2.295-4.796-2.302-7.455c0-.442-.176-.866-.489-1.179-.312-.313-.736-.488-1.178-.488s-.866.175-1.179.488c-.312.313-.488.737-.488 1.179.009 3.254.971 6.435 2.766 9.15 1.796 2.714 4.347 4.843 7.339 6.125 2.992 1.281 6.293 1.659 9.497 1.086 3.204-.574 6.17-2.072 8.532-4.311v2.95c0 .442.175.865.488 1.178.312.313.736.488 1.178.488s.866-.175 1.179-.488c.312-.313.488-.736.488-1.178v-7.5c-.004-.431-.175-.843-.476-1.151-.302-.308-.71-.487-1.141-.499zm-13.183-22.517c-4.273.012-8.378 1.665-11.467 4.617v-2.95c0-.442-.175-.866-.488-1.179s-.736-.488-1.178-.488-.866.175-1.179.488-.488.737-.488 1.179v7.5c0 .442.175.865.488 1.178s.737.488 1.179.488h7.5c.442 0 .865-.175 1.178-.488s.488-.736.488-1.178-.175-.866-.488-1.179-.736-.488-1.178-.488h-4c1.837-1.92 4.206-3.248 6.804-3.812 2.597-.564 5.303-.339 7.772.647 2.468.985 4.586 2.685 6.081 4.883 1.495 2.197 2.299 4.791 2.309 7.449 0 .442.176.865.488 1.178.313.313.737.488 1.179.488s.866-.175 1.178-.488c.313-.313.489-.736.489-1.178 0-2.189-.432-4.356-1.269-6.379-.838-2.022-2.065-3.859-3.613-5.407-1.548-1.547-3.385-2.775-5.407-3.612-2.022-.838-4.189-1.269-6.378-1.269z" fill="#6b6b76"/><g clip-path="url(#a)"><rect fill="#fff" height="416.104" rx="8" stroke="#ededee" stroke-width="2" width="352.857" x="1013.57" y="330.725"/><g fill="#acffdd" stroke="#00dc82" stroke-width="3"><rect height="11.0029" rx="5.50143" width="61.7549" x="1029.82" y="487.729"/><rect height="11.0029" rx="5.50143" width="136.707" x="1029.82" y="510.578"/><rect height="95.1772" rx="4.5" width="319.944" x="1029.82" y="373.383"/><rect height="95.1772" rx="4.5" width="152.281" x="1029.82" y="542.757"/><rect height="95.1772" rx="4.5" width="152.281" x="1197.48" y="542.757"/><rect height="95.1772" rx="4.5" width="152.281" x="1029.82" y="657.103"/><rect height="95.1772" rx="4.5" width="152.281" x="1197.48" y="657.103"/></g><circle cx="1032.66" cy="349.363" fill="#7f7f8b" r="4.34369"/><circle cx="1048.3" cy="349.363" fill="#94949e" r="4.34369"/><circle cx="1063.94" cy="349.363" fill="#bfbfc5" r="4.34369"/></g><g stroke-width="2"><rect height="416" rx="6" stroke="#44444b" width="352" x="1014" y="331"/><path d="m440.422 183.825h73.777" stroke="#bfbfc5"/><path d="m916.968 183.24h73.777" stroke="#bfbfc5"/><circle cx="414.857" cy="290.63" fill="#fff" r="20.9285" stroke="#ededee"/></g><path d="m414.699 297.63v-12.12l-2.26.5v-1.16l2.82-1.22h1.14v14z" fill="#0a0a0b"/><circle cx="893.857" cy="290.045" fill="#fff" r="20.9285" stroke="#ededee" stroke-width="2"/><path d="m888.895 297.045v-1.18c.946-.746 1.84-1.5 2.68-2.26.853-.773 1.606-1.533 2.26-2.28.666-.746 1.186-1.48 1.56-2.2.386-.72.58-1.413.58-2.08 0-.493-.087-.953-.26-1.38-.16-.426-.427-.766-.8-1.02-.374-.266-.88-.4-1.52-.4-.614 0-1.127.14-1.54.42-.414.267-.727.627-.94 1.08-.2.454-.3.94-.3 1.46h-1.62c0-.92.193-1.706.58-2.36.386-.666.913-1.173 1.58-1.52.666-.346 1.42-.52 2.26-.52 1.24 0 2.253.354 3.04 1.06.8.694 1.2 1.734 1.2 3.12 0 .827-.207 1.647-.62 2.46-.414.8-.94 1.58-1.58 2.34-.64.747-1.327 1.447-2.06 2.1-.72.654-1.394 1.24-2.02 1.76h6.76v1.4z" fill="#0a0a0b"/><circle cx="1365.93" cy="281.929" fill="#fff" r="20.9285" stroke="#ededee" stroke-width="2"/><path d="m1365.39 289.169c-.89 0-1.7-.16-2.42-.48-.72-.334-1.3-.827-1.74-1.48-.43-.654-.65-1.467-.68-2.44h1.7c.01.8.29 1.493.84 2.08.55.573 1.31.86 2.3.86s1.73-.274 2.22-.82c.51-.547.76-1.207.76-1.98 0-.654-.16-1.187-.48-1.6-.31-.414-.73-.72-1.26-.92-.52-.2-1.09-.3-1.72-.3h-1.04v-1.42h1.04c.91 0 1.61-.207 2.12-.62.52-.414.78-.994.78-1.74 0-.627-.21-1.14-.62-1.54-.4-.414-1-.62-1.8-.62-.77 0-1.39.233-1.86.7-.47.453-.73 1.026-.78 1.72h-1.7c.04-.76.24-1.434.6-2.02.37-.587.88-1.04 1.52-1.36.64-.334 1.38-.5 2.22-.5.91 0 1.66.16 2.26.48.61.32 1.07.746 1.38 1.28.32.533.48 1.12.48 1.76 0 .706-.19 1.353-.58 1.94-.39.573-.97.96-1.74 1.16.83.173 1.51.566 2.06 1.18.55.613.82 1.42.82 2.42 0 .773-.18 1.486-.54 2.14-.35.64-.87 1.153-1.56 1.54-.69.386-1.55.58-2.58.58z" fill="#0a0a0b"/></svg>