<svg width="160" height="160" viewBox="0 0 160 160" fill="none" xmlns="http://www.w3.org/2000/svg">
<g clip-path="url(#clip0)">
<path d="M78.3351 105.809C88.9351 105.809 97.6917 97.5131 97.6917 86.9131H58.9785C58.9785 97.0523 67.7351 105.809 78.3351 105.809Z" fill="#F94345"/>
<path d="M131.333 56.0348V33.625C131.333 29.9661 128.367 27 124.708 27H31.4976C27.8387 27 24.8726 29.9661 24.8726 33.625V56.0348H14.9062C11.2474 56.0348 8.28125 59.0009 8.28125 62.6598V97.3403C8.28125 100.999 11.2474 103.965 14.9062 103.965H24.8726V126.375C24.8726 130.034 27.8387 133 31.4976 133H124.708C128.367 133 131.333 130.034 131.333 126.375V103.965H140.839C144.498 103.965 147.464 100.999 147.464 97.3403V62.6598C147.464 59.0009 144.498 56.0348 140.839 56.0348H131.333ZM24.8726 93.3653H21.8769C20.2225 93.3653 18.8813 92.0241 18.8813 90.3696V69.4001C18.8813 67.6183 20.3256 66.174 22.1073 66.174C23.8891 66.174 25.3334 67.6183 25.3334 69.4001V93.1348C25.3334 93.2621 25.2303 93.3653 25.103 93.3653H24.8726ZM114.569 122.4H42.0976C38.4387 122.4 35.4726 119.434 35.4726 115.775V43.7641C35.4726 40.1052 38.4387 37.1391 42.0976 37.1391H114.569C118.228 37.1391 121.194 40.1052 121.194 43.7641V115.775C121.194 119.434 118.228 122.4 114.569 122.4ZM134.56 93.3653C133.032 93.3653 131.794 92.1273 131.794 90.6002V68.9391C131.794 67.4119 133.032 66.174 134.56 66.174C136.087 66.174 137.325 67.4119 137.325 68.9391V90.6002C137.325 92.1273 136.087 93.3653 134.56 93.3653Z" fill="#F94345"/>
<path d="M105.066 69.3992C105.066 73.5471 101.379 77.2339 97.2317 77.2339C92.6227 77.2339 89.3966 73.5471 89.3966 69.3992C89.3966 65.2516 93.0838 61.5645 97.2317 61.5645C101.84 61.5645 105.066 64.7905 105.066 69.3992ZM66.814 69.3992C66.814 73.5471 63.1272 77.2339 58.9793 77.2339C54.3706 77.2339 51.1445 73.5471 51.1445 69.3992C51.1445 65.2516 54.8317 61.5645 58.9793 61.5645C63.5879 61.5645 66.814 64.7905 66.814 69.3992Z" fill="#F94345"/>
</g>
<defs>
<clipPath id="clip0">
<rect width="142.438" height="106" fill="white" transform="translate(8.28125 27)"/>
</clipPath>
</defs>
</svg>
