<svg width="3042" height="3042" viewBox="0 0 3042 3042" fill="none" xmlns="http://www.w3.org/2000/svg">
<path d="M995.981 531.224C989.368 522.297 977.134 510.525 961.262 497.101L863.191 415.43C850.295 404.717 843.285 397.905 823.512 376.942C833.101 392.417 847.253 416.753 850.758 423.498L902.605 523.355C913.516 544.384 920.129 555.626 928.131 566.538L885.543 588.691C881.046 575.598 875.491 563.364 864.91 542.995L785.554 390.168C775.303 370.395 768.029 357.896 759.763 346.39L815.378 317.425C823.05 326.947 833.63 337.727 845.468 347.779L985.664 466.681L968.735 283.764C967.082 265.711 964.767 254.535 960.866 241.838L1016.88 212.74C1022.63 228.281 1027.26 238.663 1037.84 259.032L1117.2 411.859C1128.7 434.079 1135.05 444.726 1142.72 455.042L1100.14 477.196C1095.51 463.771 1090.42 452.529 1079.5 431.5L1027.06 330.452C1014.56 303.339 1007.42 287.335 1005.31 282.64C1009.87 301.157 1012.98 321.194 1014.37 334.354L1024.35 465.226C1025.67 482.684 1029.05 502.59 1031.96 512.642L995.981 531.224Z" fill="white"/>
<path d="M1172.5 169.948C1174.08 183.042 1176.27 193.491 1181.82 213.264L1231.88 390.89C1237.37 410.332 1241.01 420.781 1246.5 432.751L1196.3 446.903C1194.72 433.809 1192.47 423.029 1186.91 403.587L1136.92 225.961C1131.16 205.526 1127.99 196.731 1122.3 184.1L1172.5 169.948Z" fill="white"/>
<path d="M1471.72 397.773C1470.2 389.639 1462.59 372.841 1448.31 345C1425.03 299.833 1411.74 288.459 1385.48 291.17L1334.63 296.461L1341.84 366.03C1343.95 386.53 1345.74 397.376 1349.18 410.47L1298.32 415.694C1298.92 401.145 1298.59 391.887 1296.47 371.056L1277.43 187.147C1275.58 169.093 1273.79 158.909 1270.09 143.104C1284.5 142.311 1295.08 141.583 1313.87 139.599L1395.73 131.135C1447.58 125.778 1479.98 148.659 1484.61 193.694C1486.86 215.517 1482.83 233.174 1472.45 246.334C1463.92 257.245 1455.52 262.602 1436.6 270.075C1458.82 274.638 1466.3 283.565 1508.29 359.88C1511.66 365.765 1522.11 383.29 1527.8 392.019L1471.72 397.773ZM1399.24 250.434C1411.87 249.111 1423.31 243.424 1430.39 234.827C1436.8 226.891 1439.51 216.641 1438.19 203.68C1435.68 179.145 1420.34 167.969 1392.36 170.813L1322.4 178.021L1330.6 257.51L1399.24 250.434Z" fill="white"/>
<path d="M1755.23 420.716C1754.76 409.209 1753.11 394.065 1750.8 383.683L1742.53 344.732L1633.88 329.257L1615.03 364.307C1606.57 379.715 1604.52 384.609 1599.75 398.496L1544.07 390.56C1550.49 382.096 1559.48 367.811 1567.81 353.064L1670.45 167.767C1679.31 151.697 1683.28 143.629 1686.19 135.032L1745.24 143.431C1745.77 151.829 1747.03 157.517 1751.92 179.406L1799.34 386.063C1804.69 409.011 1807.47 419.129 1810.91 428.585L1755.23 420.716ZM1713.83 198.253C1713.04 194.351 1712.57 190.119 1710.46 178.348C1702.72 193.558 1702.72 193.558 1701.26 196.467L1651.6 291.96L1735.78 303.996L1713.83 198.253Z" fill="white"/>
<path d="M2160.79 278.142C2153.45 290.31 2148.82 299.502 2141.21 317.555L2069.53 487.907C2061.79 506.225 2058.55 515.682 2054.91 529.768L2007.83 509.929C2014.9 498.422 2019.67 488.899 2027.54 470.25L2057.62 398.83L1930.59 345.33L1900.5 416.751C1892.76 435.069 1889.39 444.856 1885.88 458.611L1838.8 438.772C1845.74 427.596 1850.64 417.677 1858.51 399.028L1930.06 228.941C1937.93 210.292 1941.37 200.24 1944.67 187.08L1991.76 206.919C1984.29 219.418 1979.26 229.536 1972.18 246.333L1946.53 307.371L2073.56 360.871L2099.09 300.163C2106.69 282.176 2110.86 270.47 2113.7 258.303L2160.79 278.142Z" fill="white"/>
<path d="M2291.8 362.194C2282.94 371.981 2276.59 380.512 2265.35 397.772L2164.56 552.385C2153.52 569.314 2148.1 578.903 2142.67 590.939L2098.96 562.437C2107.82 552.649 2114.37 543.788 2125.41 526.858L2226.2 372.245C2237.84 354.456 2242.27 346.322 2248.09 333.691L2291.8 362.194Z" fill="white"/>
<path d="M1521 3042C1114.69 3042 732.791 2883.82 445.521 2596.48C158.184 2309.21 0 1927.31 0 1521C0 1114.69 158.184 732.791 445.521 445.521C732.791 158.184 1114.69 0 1521 0C1927.31 0 2309.21 158.184 2596.48 445.521C2883.82 732.791 3042 1114.69 3042 1521C3042 1927.31 2883.82 2309.21 2596.48 2596.48C2309.21 2883.82 1927.31 3042 1521 3042ZM1521 52.9043C1128.85 52.9043 760.169 205.599 482.884 482.884C205.599 760.169 52.9043 1128.85 52.9043 1521C52.9043 1913.15 205.599 2281.83 482.884 2559.12C760.169 2836.4 1128.85 2989.1 1521 2989.1C1913.15 2989.1 2281.83 2836.4 2559.12 2559.12C2836.4 2281.83 2989.1 1913.15 2989.1 1521C2989.1 1128.85 2836.4 760.169 2559.12 482.884C2281.83 205.599 1913.15 52.9043 1521 52.9043Z" fill="white"/>
<path d="M857.032 2686.42C838.78 2702.95 826.744 2710.56 811.402 2715.91C782.966 2725.04 749.371 2718.56 716.042 2696.94C685.82 2677.29 667.634 2652.5 662.079 2623.99C655.797 2591.13 665.386 2552.77 688.399 2517.32C712.206 2480.69 744.742 2456.15 778.998 2448.81C806.64 2442.73 837.722 2449.47 865.43 2467.53C887.055 2481.55 900.744 2496.36 910.002 2515.41C917.409 2531.28 920.782 2548.01 919.79 2564.74C919.327 2572.74 918.004 2578.96 914.499 2591.65L870.192 2575.52C874.226 2560.77 875.152 2553.89 873.763 2543.91C871.713 2526.38 861.661 2511.57 844.467 2500.39C805.053 2474.8 761.275 2490.08 728.077 2541.13C695.144 2591.85 698.98 2639.34 737.799 2664.53C757.241 2677.16 778.733 2680.47 796.06 2673.19C805.252 2669.36 811.27 2664.93 821.784 2653.62L857.032 2686.42Z" fill="white"/>
<path d="M1162.4 2643.77C1176.49 2674.85 1175.83 2713.14 1160.68 2753.34C1131.19 2831.64 1066.58 2865.24 996.349 2838.78C926.119 2812.33 899.932 2744.88 929.558 2666.32C944.569 2626.44 969.897 2596.75 1001.18 2583.06C1030.47 2570.1 1059.83 2569.83 1092.64 2582.2C1126.69 2595.03 1149.24 2614.8 1162.4 2643.77ZM1117.37 2737.01C1129.14 2705.73 1129.93 2677.43 1120.08 2655.73C1112.08 2638.61 1098.12 2625.91 1079.54 2618.9C1034.97 2602.1 993.572 2626.77 972.476 2682.78C960.837 2713.73 959.978 2743.09 970.03 2765.25C978.031 2782.37 991.985 2795.07 1010.9 2802.15C1055.07 2818.88 1095.88 2793.95 1117.37 2737.01Z" fill="white"/>
<path d="M1323.8 2914.84C1323.34 2904.13 1319.83 2888.12 1314.41 2868.81L1279.89 2750.77C1275.33 2735.29 1273.41 2726.1 1268.85 2698.59C1268.19 2716.18 1266.47 2743.23 1265.61 2750.44L1253.37 2858.23C1250.79 2880.91 1250.07 2893.48 1250.53 2906.51L1204.5 2901.28C1207.94 2888.39 1210.06 2875.62 1212.57 2853.6L1231.29 2688.67C1233.73 2667.31 1234.59 2653.42 1234.2 2639.74L1294.31 2646.55C1295.3 2658.32 1298.01 2672.6 1302.05 2687.02L1350.25 2857.57L1435.17 2702.16C1443.56 2686.82 1447.73 2676.64 1451.43 2664.4L1511.88 2671.28C1508.11 2686.82 1506.26 2697.6 1503.74 2719.62L1485.03 2884.55C1482.32 2908.56 1481.59 2920.46 1482.18 2932.83L1436.16 2927.6C1439.66 2914.38 1441.65 2902.6 1444.23 2879.92L1456.59 2770.87C1461.16 2742.44 1464.07 2725.77 1464.92 2720.88C1458.64 2738.14 1450.31 2755.79 1444.36 2767.1L1381.93 2877.14C1373.6 2891.83 1365.6 2909.55 1362.49 2919.2L1323.8 2914.84Z" fill="white"/>
<path d="M1581.7 2926.87C1582.1 2913.51 1581.31 2901.94 1579.19 2884.22L1557.5 2706.66C1555.58 2690.92 1553.47 2679.15 1549.7 2664.67C1563.91 2663.61 1574.1 2662.68 1591.49 2660.57L1660.07 2652.17C1691.88 2648.27 1715.16 2653.09 1732.81 2666.91C1747.89 2678.42 1757.15 2697.27 1760.06 2720.88C1763.1 2745.81 1758.01 2767.1 1745.44 2783.96C1731.29 2802.02 1709.93 2812.27 1678.39 2816.1L1615.7 2823.78L1622.37 2878.6C1624.56 2896.32 1626.74 2908.69 1630.18 2920.92L1581.7 2926.87ZM1673.89 2778.41C1704.11 2774.71 1718.53 2756.65 1715.02 2727.75C1713.44 2714.59 1708.48 2704.21 1700.34 2697.53C1691.81 2690.26 1680.5 2687.94 1663.11 2690.06L1600.42 2697.73L1611.2 2786.01L1673.89 2778.41Z" fill="white"/>
<path d="M2036.47 2827.02C2031.18 2817.3 2023.31 2804.87 2016.9 2796.93L1993.09 2766.78L1892.51 2799.71L1891.19 2838.07C1890.46 2855 1890.79 2860.15 1892.57 2874.17L1841.06 2891.04C1842.98 2880.98 1844.63 2864.78 1845.56 2848.51L1855.28 2644.57C1856.07 2626.91 1856.07 2618.25 1854.95 2609.52L1909.64 2591.6C1913.67 2598.61 1917.17 2603.04 1930.73 2619.83L2059.88 2778.28C2074.3 2795.81 2080.98 2803.41 2088.05 2810.09L2036.47 2827.02ZM1905.87 2652.3C1903.49 2649.26 1901.3 2645.82 1894.43 2636.57C1894.23 2652.97 1894.23 2652.97 1894.23 2656.14L1892.04 2759.83L1969.95 2734.31L1905.87 2652.3Z" fill="white"/>
<path d="M2304.31 2696.47C2293.99 2689.33 2284.14 2683.77 2268.73 2675.64L2132.04 2604.02C2121.72 2598.33 2107.64 2589.87 2093.22 2580.08C2095.73 2583.98 2095.73 2583.98 2102.48 2594.23C2105.79 2599.59 2113.52 2612.29 2117.23 2618.96L2169.47 2713.99C2180.12 2733.44 2188.51 2746.53 2195.66 2756.18L2153.33 2779.46C2149.5 2769.08 2142.42 2754.13 2131.58 2734.43L2049.38 2584.97C2041.11 2569.9 2034.76 2559.78 2026.49 2548.87L2071.66 2524C2078.27 2529.82 2088.26 2535.64 2106.25 2544.96L2240.23 2615C2252.93 2621.61 2270.45 2631.6 2283.21 2639.66C2275.87 2629.02 2265.42 2612.09 2258.75 2599.92L2205.18 2502.58C2195.79 2485.51 2188.65 2473.94 2180.84 2463.89L2223.17 2440.61C2227.8 2453.18 2233.09 2464.22 2242.81 2481.88L2327.12 2635.1C2336.05 2651.3 2342.67 2662.02 2350.01 2671.21L2304.31 2696.47Z" fill="white"/>
<path d="M2489.31 2566.99C2482.17 2556.54 2474.1 2545.96 2462.86 2533.39L2419.22 2484.59L2281.6 2445.18C2272.61 2442.6 2259.64 2439.49 2241.66 2435.19L2284.84 2396.64C2292.77 2401.53 2301.9 2405.3 2318.24 2410.26L2408.17 2438.96L2390.45 2346.18C2387.14 2330.04 2384.23 2319.4 2380.27 2311.39L2423.18 2273.04C2424.11 2281.04 2426.89 2303 2428.87 2313.64L2452.74 2455.03L2496.13 2503.64C2507.17 2516 2516.69 2525.66 2526.55 2533.66L2489.31 2566.99Z" fill="white"/>
<path d="M320.052 1342.44L254.587 1276.97L189.122 1342.44L254.587 1407.9L320.052 1342.44Z" fill="white"/>
<path d="M406.052 1428.41L340.587 1362.94L275.122 1428.41L340.587 1493.87L406.052 1428.41Z" fill="white"/>
<path d="M234.085 1428.42L168.62 1362.95L103.155 1428.42L168.62 1493.88L234.085 1428.42Z" fill="white"/>
<path d="M320.052 1514.37L254.587 1448.91L189.122 1514.37L254.587 1579.84L320.052 1514.37Z" fill="white"/>
<path d="M2852.83 1342.42L2787.37 1276.96L2721.9 1342.42L2787.37 1407.89L2852.83 1342.42Z" fill="white"/>
<path d="M2938.81 1428.39L2873.34 1362.92L2807.87 1428.39L2873.34 1493.85L2938.81 1428.39Z" fill="white"/>
<path d="M2766.86 1428.39L2701.4 1362.92L2635.93 1428.39L2701.4 1493.85L2766.86 1428.39Z" fill="white"/>
<path d="M2852.83 1514.36L2787.36 1448.89L2721.9 1514.36L2787.36 1579.82L2852.83 1514.36Z" fill="white"/>
<path d="M1520.99 2585.7C2109.01 2585.7 2585.69 2109.02 2585.69 1521C2585.69 932.985 2109.01 456.303 1520.99 456.303C932.971 456.303 456.288 932.985 456.288 1521C456.288 2109.02 932.971 2585.7 1520.99 2585.7Z" fill="#F83756"/>
<path d="M1520.99 2612.16C919.339 2612.16 429.841 2122.66 429.841 1521C429.841 919.35 919.339 429.853 1520.99 429.853C2122.65 429.853 2612.15 919.35 2612.15 1521C2612.15 2122.66 2122.65 2612.16 1520.99 2612.16ZM1520.99 482.757C948.503 482.757 482.746 948.513 482.746 1521C482.746 2093.5 948.503 2559.25 1520.99 2559.25C2093.49 2559.25 2559.24 2093.5 2559.24 1521C2559.24 948.513 2093.49 482.757 1520.99 482.757Z" fill="white"/>
<path d="M838.532 1559.43C861.017 1578.81 932.239 1638.66 1038.18 1651.49C1081.43 1656.71 1110.53 1651.82 1230.75 1626.95C1496.79 1571.93 1488.73 1568.43 1523.11 1568.43C1557.5 1568.43 1549.5 1571.93 1815.48 1626.95C1935.64 1651.82 1964.73 1656.78 2008.05 1651.49C2114.06 1638.66 2185.21 1578.81 2207.7 1559.43C2297.9 1481.66 2347.5 1330.82 2336.06 1197.3C2310.4 896.872 1976.11 686.445 1758.41 651.065C1716.28 644.187 1627.53 635.657 1528.87 635.326C1422.4 634.995 1329.48 644.32 1287.76 651.065C1068.27 686.577 735.766 898.128 710.107 1197.3C698.733 1330.69 748.33 1481.6 838.532 1559.43Z" fill="white"/>
<path opacity="0.2" d="M2366.01 1110.21C2288.57 812.689 1969.82 635.459 1758.47 601.799C1708.81 593.863 1619.53 586.324 1528.93 586.059C1439.32 585.795 1372.27 585.001 1287.82 601.799C1215.21 616.215 1099.74 640.485 986.265 728.306C899.369 795.561 846.002 875.05 813.797 937.741C840.91 905.271 877.414 866.32 924.697 826.841C982.297 778.698 1031.96 749.666 1047.9 740.606C1081.43 721.495 1167.13 675.931 1287.89 651.066C1371.94 633.74 1434.36 634.996 1529 635.327C1627.66 635.657 1716.41 644.188 1758.54 651.066C2000.38 690.347 2307.48 910.959 2336.19 1197.3C2338.04 1215.49 2338.83 1236.25 2337.91 1259.07C2337.57 1259.6 2337.24 1260.13 2336.98 1260.59C2336.85 1266.74 2336.45 1283.34 2333.54 1306.22C2330.17 1329.56 2324.88 1354.56 2316.81 1381.21C2314.69 1388.95 2312.58 1396.69 2310.46 1404.36C2292.08 1456.47 2260.86 1513.54 2207.76 1559.37C2185.28 1578.74 2114.05 1638.59 2008.11 1651.42C1964.86 1656.65 1935.77 1651.75 1815.54 1626.89C1549.5 1571.87 1557.57 1568.36 1523.18 1568.36C1488.79 1568.36 1496.79 1571.87 1230.82 1626.89C1110.66 1651.75 1081.56 1656.71 1038.24 1651.42C932.236 1638.59 861.08 1578.74 838.596 1559.37C762.479 1493.7 715.461 1375.99 709.443 1260.66C702.499 1390.4 751.568 1533.58 838.596 1608.64C861.08 1628.01 932.302 1687.86 1038.24 1700.69C1081.49 1705.91 1110.59 1701.02 1230.82 1676.15C1496.86 1621.13 1488.79 1617.63 1523.18 1617.63C1557.57 1617.63 1549.56 1621.13 1815.54 1676.15C1935.7 1701.02 1964.8 1705.98 2008.11 1700.69C2102.55 1689.25 2172.91 1636.08 2207.76 1608.64C2238.38 1584.56 2299.68 1535.3 2341.41 1455.08C2417.59 1308.47 2377.72 1155.24 2366.01 1110.21Z" fill="#39005D"/>
<path d="M1028.46 2010.57C1057.56 2035.97 1110.46 2064.54 1158.08 2079.88L1160.19 2085.17L1123.16 2155L1117.34 2156.59C1066.55 2137.02 1016.29 2110.03 980.318 2073.53V2068.24L1023.7 2010.57H1028.46ZM1034.28 2186.22C1082.95 2219.55 1146.44 2242.3 1230.03 2259.23L1232.14 2262.93L1196.7 2340.17L1191.41 2342.29C1113.11 2324.3 1033.75 2289.91 983.493 2253.41L982.964 2248.12L1028.99 2187.28L1034.28 2186.22ZM1084.01 1888.37C1135.86 1904.77 1184 1925.93 1230.56 1951.85V1957.14L1184.53 2021.16L1179.24 2022.74C1132.68 1993.65 1082.42 1970.37 1031.64 1952.91L1031.11 1948.68L1078.72 1888.89L1084.01 1888.37Z" fill="#39005D"/>
<path d="M1300.93 2096.28V2026.97L1305.69 2023.8L1378.17 2025.39H1581.32L1655.39 2023.8L1659.09 2028.03C1640.58 2195.74 1560.69 2284.62 1413.62 2335.41C1408.85 2336.99 1405.15 2338.05 1402.51 2338.05C1398.27 2338.05 1395.1 2336.46 1390.34 2332.23L1330.56 2282.5C1452.24 2245.47 1531.59 2189.92 1554.87 2098.92H1377.64L1304.63 2100.51L1300.93 2096.28ZM1538.47 1985.18H1416.26L1351.72 1986.77L1348.01 1982.53V1914.29L1352.78 1911.11L1416.79 1912.7H1536.35L1609.36 1911.11L1613.59 1914.82V1982.53L1609.89 1986.77L1538.47 1985.18Z" fill="#39005D"/>
<path d="M1829.44 2064.54C1881.29 2040.2 1943.72 2007.4 1999.27 1967.19H2004.03L2055.87 2029.62L2055.35 2034.91C1988.69 2078.29 1911.45 2114.27 1828.91 2144.95V2180.93C1828.91 2195.74 1829.44 2203.67 1833.68 2208.96C1840.02 2216.37 1851.13 2217.96 1873.35 2217.96C1933.14 2217.96 1982.34 2214.26 2054.29 2206.32L2058.52 2208.96L2061.69 2286.2L2058.52 2289.91C2002.44 2294.67 1924.67 2298.9 1877.06 2298.9C1825.74 2298.9 1785 2294.14 1762.25 2265.57C1747.44 2247.58 1746.38 2221.66 1746.38 2185.69L1747.97 1940.74L1751.67 1937.04H1826.27L1829.97 1940.74L1829.44 2064.54Z" fill="#39005D"/>
<path d="M1113.2 1349.34C1027.83 1349.34 958.391 1279.9 958.391 1194.53C958.391 1109.15 1027.83 1039.72 1113.2 1039.72C1198.58 1039.72 1268.01 1109.15 1268.01 1194.53C1268.08 1279.84 1198.58 1349.34 1113.2 1349.34ZM1113.2 1072.71C1046.08 1072.71 991.456 1127.34 991.456 1194.46C991.456 1261.58 1046.08 1316.21 1113.2 1316.21C1180.32 1316.21 1234.95 1261.58 1234.95 1194.46C1234.95 1127.34 1180.39 1072.71 1113.2 1072.71Z" fill="#39005D"/>
<path d="M1113.17 1283.14C1162.15 1283.14 1201.85 1243.44 1201.85 1194.46C1201.85 1145.49 1162.15 1105.78 1113.17 1105.78C1064.19 1105.78 1024.49 1145.49 1024.49 1194.46C1024.49 1243.44 1064.19 1283.14 1113.17 1283.14Z" fill="#39005D"/>
<path d="M1928.82 1349.34C1843.44 1349.34 1774 1279.9 1774 1194.53C1774 1109.15 1843.44 1039.72 1928.82 1039.72C2014.19 1039.72 2083.63 1109.15 2083.63 1194.53C2083.63 1279.84 2014.19 1349.34 1928.82 1349.34ZM1928.82 1072.71C1861.69 1072.71 1807.07 1127.34 1807.07 1194.46C1807.07 1261.58 1861.69 1316.21 1928.82 1316.21C1995.94 1316.21 2050.56 1261.58 2050.56 1194.46C2050.56 1127.34 1995.94 1072.71 1928.82 1072.71Z" fill="#39005D"/>
<path d="M1928.82 1283.14C1977.79 1283.14 2017.5 1243.44 2017.5 1194.46C2017.5 1145.49 1977.79 1105.78 1928.82 1105.78C1879.84 1105.78 1840.13 1145.49 1840.13 1194.46C1840.13 1243.44 1879.84 1283.14 1928.82 1283.14Z" fill="#39005D"/>
<path opacity="0.3" d="M1928.82 1349.6C1845.69 1349.6 1777.64 1283.67 1774.14 1201.4C1774.07 1203.59 1773.94 1205.77 1773.94 1208.02C1773.94 1293.39 1843.38 1362.83 1928.75 1362.83C2014.13 1362.83 2083.56 1293.39 2083.56 1208.02C2083.56 1205.77 2083.5 1203.59 2083.36 1201.4C2079.99 1283.67 2011.94 1349.6 1928.82 1349.6Z" fill="#39005D"/>
<path opacity="0.3" d="M1113.17 1349.6C1030.05 1349.6 961.998 1283.67 958.493 1201.4C958.427 1203.59 958.294 1205.77 958.294 1208.02C958.294 1293.39 1027.73 1362.83 1113.11 1362.83C1198.48 1362.83 1267.92 1293.39 1267.92 1208.02C1267.92 1205.77 1267.85 1203.59 1267.72 1201.4C1264.41 1283.67 1196.36 1349.6 1113.17 1349.6Z" fill="#39005D"/>
<path d="M1995.02 1472.54C1993.1 1464.87 1984.57 1460.1 1975.97 1461.76C1967.38 1463.48 1961.89 1471.02 1963.8 1478.69C1963.8 1478.75 1965.99 1487.75 1960.37 1492.51C1955.08 1497.01 1945.22 1495.88 1941.52 1495.48C1924.39 1493.57 1912.29 1481.6 1905.01 1474.45L1903.36 1472.87C1852.57 1423.6 1767.73 1396.42 1733.6 1393.11C1713.7 1391.2 1686.52 1388.02 1632.29 1393.11C1560.94 1399.79 1556.04 1417.91 1521 1417.91C1486.01 1417.91 1481.12 1399.79 1409.7 1393.11C1355.54 1388.02 1328.29 1391.2 1308.39 1393.11C1274.26 1396.42 1189.35 1423.6 1138.63 1472.87L1136.98 1474.45C1129.7 1481.6 1117.53 1493.57 1100.47 1495.48C1096.77 1495.88 1086.85 1497.01 1081.62 1492.51C1076 1487.75 1078.19 1478.75 1078.19 1478.69C1080.1 1471.02 1074.68 1463.48 1066.02 1461.76C1057.42 1460.1 1048.89 1464.87 1046.97 1472.54C1045.98 1476.64 1041.75 1497.87 1059.54 1512.94C1070.32 1522.13 1085.46 1525.71 1104.57 1523.52C1133.4 1520.28 1151.92 1502.1 1160.78 1493.37L1162.24 1491.91C1205.69 1449.79 1281.34 1438.35 1311.89 1435.44C1347.07 1432.07 1379.67 1438.28 1402.29 1441.92C1475.1 1453.56 1477.81 1469.43 1521.06 1469.43C1564.31 1469.43 1567.02 1453.56 1639.83 1441.92C1662.45 1438.28 1694.98 1432.07 1730.23 1435.44C1760.78 1438.41 1836.44 1449.79 1879.89 1491.91L1881.34 1493.37C1890.2 1502.1 1908.65 1520.28 1937.55 1523.52C1956.6 1525.71 1971.74 1522.13 1982.59 1512.94C2000.24 1497.87 1996.01 1476.64 1995.02 1472.54Z" fill="#39005D"/>
<path opacity="0.4" d="M1995.02 1485.76C1993.1 1478.09 1984.57 1473.33 1975.97 1474.99C1967.38 1476.7 1961.89 1484.24 1963.8 1491.91C1963.8 1491.98 1965.99 1500.97 1960.37 1505.74C1955.08 1510.23 1945.22 1509.11 1941.52 1508.71C1924.39 1506.79 1912.29 1494.82 1905.01 1487.68L1903.36 1486.1C1852.57 1436.83 1767.73 1409.65 1733.6 1406.34C1713.7 1404.42 1686.52 1401.25 1632.29 1406.34C1560.94 1413.02 1556.04 1431.14 1521 1431.14C1486.01 1431.14 1481.12 1413.02 1409.7 1406.34C1355.54 1401.25 1328.29 1404.42 1308.39 1406.34C1274.26 1409.65 1189.35 1436.83 1138.63 1486.1L1136.98 1487.68C1129.7 1494.82 1117.53 1506.79 1100.47 1508.71C1096.77 1509.11 1086.85 1510.23 1081.62 1505.74C1076 1500.97 1078.19 1491.98 1078.19 1491.91C1080.1 1484.24 1074.68 1476.7 1066.02 1474.99C1057.42 1473.33 1048.89 1478.09 1046.97 1485.76C1045.98 1489.86 1041.75 1511.09 1059.54 1526.17C1070.32 1535.36 1085.46 1538.93 1104.57 1536.75C1133.4 1533.51 1151.92 1515.33 1160.78 1506.6L1162.24 1505.14C1205.69 1463.02 1281.34 1451.58 1311.89 1448.67C1347.07 1445.29 1379.67 1451.51 1402.29 1455.15C1475.1 1466.79 1477.81 1482.66 1521.06 1482.66C1564.31 1482.66 1567.02 1466.79 1639.83 1455.15C1662.45 1451.51 1694.98 1445.29 1730.23 1448.67C1760.78 1451.64 1836.44 1463.02 1879.89 1505.14L1881.34 1506.6C1890.2 1515.33 1908.65 1533.51 1937.55 1536.75C1956.6 1538.93 1971.74 1535.36 1982.59 1526.17C2000.24 1511.09 1996.01 1489.86 1995.02 1485.76Z" fill="#39005D"/>
<path d="M948.571 847.006C949.166 823.398 1120.25 775.189 1265.93 846.477C1295.56 860.96 1364 895.612 1384.97 965.512C1389.66 981.119 1402.09 1022.52 1378.35 1058.09C1353.95 1094.73 1309.64 1097.64 1306.47 1097.84C1261.04 1100.09 1231.28 1066.69 1223.21 1057.63C1193.98 1024.83 1198.48 995.006 1186.57 965.578C1145.11 862.613 947.976 872.467 948.571 847.006Z" fill="#39005D"/>
<path d="M2093.41 847.006C2092.82 823.398 1921.74 775.189 1776.05 846.477C1746.43 860.96 1677.98 895.612 1657.02 965.512C1652.32 981.119 1639.89 1022.52 1663.63 1058.09C1688.03 1094.73 1732.34 1097.64 1735.51 1097.84C1780.95 1100.09 1810.7 1066.69 1818.77 1057.63C1848 1024.83 1843.51 995.006 1855.41 965.578C1896.87 862.613 2094.01 872.467 2093.41 847.006Z" fill="#39005D"/>
<path d="M1630.67 932.45C1621.48 921.869 1603.56 921.009 1590.99 925.837C1576.18 931.524 1569.3 944.948 1565.73 952.09C1549.46 985.023 1557.93 1028.6 1579.95 1058.49C1598.13 1083.23 1625.31 1098.04 1629.61 1093.94C1633.85 1089.84 1609.31 1073.04 1608.32 1044.28C1607.33 1013.72 1634.04 1002.75 1636.69 959.166C1637.55 945.477 1635.43 937.872 1630.67 932.45Z" fill="#39005D"/>
<path d="M1411.36 932.45C1420.55 921.869 1438.48 921.009 1451.04 925.837C1465.85 931.524 1472.73 944.948 1476.3 952.09C1492.57 985.023 1484.11 1028.6 1462.08 1058.49C1443.9 1083.23 1416.72 1098.04 1412.42 1093.94C1408.19 1089.84 1432.72 1073.04 1433.71 1044.28C1434.71 1013.72 1407.99 1002.75 1405.34 959.166C1404.49 945.477 1406.6 937.872 1411.36 932.45Z" fill="#39005D"/>
<path d="M1669.06 1173.03C1661.59 1173.03 1654.32 1173.96 1647.44 1175.74C1629.32 1180.37 1616.95 1189.83 1610.54 1195.52C1614.77 1198.36 1627.73 1207.75 1632.43 1225.14C1632.76 1226.4 1639.24 1251.53 1625.82 1264.82C1619.93 1270.71 1616.62 1267.8 1609.22 1274.21C1598.17 1283.8 1603.99 1292.79 1592.49 1303.64C1582.24 1313.3 1568.55 1319.31 1553.4 1319.31H1521H1488.53C1473.38 1319.31 1459.7 1313.3 1449.45 1303.64C1437.94 1292.79 1443.76 1283.8 1432.71 1274.21C1425.31 1267.8 1422.07 1270.71 1416.12 1264.82C1402.69 1251.53 1409.17 1226.4 1409.5 1225.14C1414.2 1207.75 1427.16 1198.36 1431.39 1195.52C1425.04 1189.83 1412.61 1180.37 1394.49 1175.74C1387.55 1173.96 1380.34 1173.03 1372.87 1173.03C1324.39 1173.03 1285.11 1212.31 1285.11 1260.79C1285.11 1309.26 1324.39 1348.54 1372.87 1348.54C1383.05 1348.54 1392.71 1346.76 1401.83 1343.58C1422.53 1353.77 1448.72 1369.18 1475.3 1392.45C1494.68 1409.38 1509.62 1426.38 1521 1441.19C1532.37 1426.38 1547.32 1409.32 1566.69 1392.45C1593.28 1369.18 1619.4 1353.77 1640.17 1343.58C1649.23 1346.76 1658.95 1348.54 1669.13 1348.54C1717.6 1348.54 1756.89 1309.26 1756.89 1260.79C1756.89 1212.31 1717.54 1173.03 1669.06 1173.03Z" fill="#39005D"/>
<path d="M1526.48 1515.26C1454.93 1513.54 1388.53 1596.46 1370.48 1671.26C1365.59 1691.49 1351.76 1748.76 1384.63 1798.89C1429.2 1866.81 1520.99 1863.24 1533.56 1862.71C1544.93 1862.24 1631.03 1857.68 1668.33 1798.89C1728.18 1704.46 1632.09 1517.83 1526.48 1515.26Z" fill="#39005D"/>
<path d="M1174.87 1388.56C1173.28 1378.84 1006.1 1354.37 912.46 1445.3C868.285 1488.22 856.051 1541.65 794.484 1560.7C773.917 1567.04 746.539 1569.95 721.74 1593.76C713.474 1601.7 693.833 1620.54 695.288 1646.67C697.206 1680.59 733.049 1698.64 734.966 1699.57C771.073 1717.09 811.148 1697.65 820.936 1692.96C904.591 1652.55 880.189 1553.95 955.048 1473.67C1040.03 1382.48 1176.32 1397.35 1174.87 1388.56Z" fill="#39005D"/>
<path d="M1872.36 1388.56C1873.94 1378.84 2041.12 1354.37 2134.76 1445.3C2178.94 1488.22 2191.17 1541.65 2252.74 1560.7C2273.3 1567.04 2300.68 1569.95 2325.48 1593.76C2333.75 1601.7 2353.39 1620.54 2351.93 1646.67C2350.02 1680.59 2314.17 1698.64 2312.25 1699.57C2276.15 1717.09 2236.07 1697.65 2226.29 1692.96C2142.63 1652.55 2167.03 1553.95 2092.17 1473.67C2007.2 1382.48 1870.9 1397.35 1872.36 1388.56Z" fill="#39005D"/>
<path d="M2095.59 1299.55C2085.07 1321.04 2152.79 1403.17 2237.24 1403.57C2301.52 1403.83 2341.33 1354.3 2343.51 1351.59C2349.59 1343.85 2391.59 1290.82 2367.78 1250.08C2349.53 1218.87 2302.05 1210.86 2270.11 1222.17C2235.98 1234.21 2239.02 1261.32 2201.86 1282.29C2150.67 1310.99 2103.66 1283.08 2095.59 1299.55Z" fill="#39005D"/>
<path d="M940.042 1326.72C950.556 1348.21 882.839 1430.34 798.39 1430.74C790.587 1430.81 725.977 1429.75 692.118 1378.76C670.097 1345.5 660.508 1289.95 688.812 1263.3C710.701 1242.73 745.353 1248.62 749.321 1249.34C788.603 1256.55 792.967 1288.16 833.77 1309.46C887.534 1337.5 931.775 1309.92 940.042 1326.72Z" fill="#39005D"/>
</svg>
