<svg width="160" height="160" viewBox="0 0 160 160" fill="none" xmlns="http://www.w3.org/2000/svg">
<path d="M111.45 57.4638C112.198 57.8304 112.87 58.3359 113.43 58.9534C113.496 59.0182 113.496 59.0182 113.562 59.0182H113.628L128.811 52.606C128.877 52.5417 128.943 52.4773 128.943 52.4121C128.943 52.3477 128.943 52.2829 128.877 52.2181L114.684 38.2945C114.618 38.2297 114.552 38.2297 114.552 38.2297H114.486C114.42 38.2297 114.354 38.2941 114.354 38.4237L111.252 57.2691C111.318 57.3339 111.383 57.4631 111.449 57.4631L111.45 57.4638ZM79.9616 44.8358C80.687 45.9367 81.1494 47.2319 81.2813 48.5272C81.2813 48.592 81.3472 48.6567 81.4132 48.7211L103.99 58.2412H104.055C104.121 58.2412 104.187 58.2412 104.187 58.1764C104.848 57.6578 105.64 57.2695 106.498 57.0104C106.564 57.0104 106.63 56.9456 106.63 56.8164L110.327 34.0849C110.327 34.0205 110.327 33.9558 110.261 33.891L96.1347 19.9677C96.0688 19.903 96.0688 19.903 96.0028 19.903C95.9369 19.903 95.871 19.9677 95.871 20.0325L79.9616 44.5119C79.8949 44.6415 79.8949 44.7711 79.9616 44.8358ZM157.064 79.871L132.838 56.0394C132.772 55.9746 132.706 55.9746 132.706 55.9746H132.64L116.202 62.9039C116.136 62.9687 116.071 63.0334 116.071 63.0978C116.071 63.163 116.136 63.2926 116.202 63.2926L156.735 80.3245H156.801C156.867 80.3245 156.933 80.3245 156.933 80.2597L157.065 80.1301C157.197 80.1301 157.197 79.9362 157.065 79.871H157.064ZM153.038 83.7567L114.156 67.4374H114.09C114.024 67.4374 113.958 67.4374 113.892 67.5018C112.835 68.9262 111.251 69.8331 109.403 70.0918C109.337 70.0918 109.205 70.1566 109.205 70.2858L105.047 95.6073C105.047 95.6721 105.047 95.7369 105.113 95.8013C106.564 96.903 107.423 98.5217 107.62 100.335C107.62 100.465 107.686 100.53 107.818 100.53L131.319 105.386H131.385C131.451 105.386 131.517 105.386 131.517 105.322L153.038 84.1458C153.103 84.0806 153.103 84.0158 153.103 83.9511C153.103 83.8863 153.103 83.8215 153.038 83.7571L153.038 83.7567ZM101.547 62.1269L80.291 53.1895H80.225C80.1591 53.1895 80.0931 53.2546 80.0272 53.3194C78.5745 55.5212 76.1318 56.8164 73.4909 56.8164C73.0952 56.8164 72.6996 56.7516 72.2372 56.6868H72.1712C72.1053 56.6868 72.0394 56.7512 71.9734 56.816L54.4795 83.6915C54.4135 83.7563 54.4135 83.8855 54.4795 83.9507C54.5454 84.0154 54.6114 84.0154 54.6773 84.0154H54.7433L101.415 64.2639C101.481 64.1991 101.547 64.1343 101.547 64.0699V63.4865C101.547 63.0974 101.613 62.7088 101.679 62.3848C101.679 62.2557 101.613 62.1909 101.547 62.1261V62.1269ZM127.16 109.143L106.498 104.934H106.432C106.366 104.934 106.3 104.998 106.234 104.998C105.442 105.97 104.452 106.747 103.263 107.2C103.197 107.2 103.131 107.33 103.131 107.394L98.1802 137.573C98.1802 137.702 98.2461 137.766 98.3121 137.832H98.444C98.5099 137.832 98.5758 137.832 98.5758 137.767L127.226 109.596C127.292 109.531 127.292 109.467 127.292 109.402C127.292 109.207 127.226 109.142 127.16 109.142L127.16 109.143ZM98.3128 107.07C96.3322 106.293 94.8798 104.545 94.3523 102.537C94.3523 102.473 94.2863 102.408 94.1537 102.343L55.8663 94.5068H55.8003C55.7344 94.5068 55.6684 94.5716 55.6025 94.6364C55.4046 94.9603 55.272 95.2194 55.0741 95.4782C55.0082 95.5429 55.0082 95.6721 55.0741 95.7373L89.929 145.732C89.9949 145.797 89.9949 145.797 90.0609 145.797C90.1268 145.797 90.1927 145.797 90.1927 145.733L92.3057 143.661C92.3057 143.596 92.3716 143.596 92.3716 143.531L98.3128 107.266C98.4447 107.266 98.4447 107.136 98.3128 107.072V107.07ZM56.6584 89.9093C56.6584 90.0385 56.7243 90.1033 56.8562 90.1033L94.8139 97.8743H94.8798C94.9458 97.8743 95.0117 97.8095 95.0777 97.7447C96.2003 95.8021 98.181 94.5068 100.425 94.3777C100.557 94.3777 100.623 94.3125 100.623 94.1829L104.716 69.2508C104.716 69.1861 104.716 69.0569 104.584 69.0569C104.32 68.8622 104.056 68.6678 103.726 68.3443C103.66 68.2795 103.594 68.2795 103.594 68.2795H103.528L56.5924 88.1606C56.4605 88.2254 56.4605 88.2902 56.4605 88.4198C56.5265 88.938 56.6584 89.3911 56.6584 89.9093ZM40.7494 96.1908C40.5516 95.9316 40.3538 95.6725 40.1551 95.349C40.0892 95.2838 40.0233 95.2194 39.9573 95.2194H39.8914L23.52 102.149C23.4541 102.149 23.3882 102.213 23.3882 102.278C23.3882 102.343 23.3882 102.408 23.4541 102.472L31.4412 110.308C31.4756 110.345 31.5225 110.368 31.573 110.373C31.639 110.373 31.7049 110.308 31.7717 110.244L40.8154 96.3203C40.8154 96.3203 40.8154 96.2559 40.7494 96.1911V96.1908ZM51.576 98.716C51.5093 98.6516 51.4433 98.5869 51.3774 98.5869H51.3114C50.1233 99.1047 48.9351 99.3639 47.6806 99.3639C46.6906 99.3639 45.7663 99.2343 44.7759 98.9108H44.71C44.644 98.9108 44.5781 98.9748 44.5121 99.0396L35.006 113.675L34.9401 113.74C34.8742 113.805 34.8742 113.934 34.9401 113.999L78.6408 156.935C78.7067 157 78.7727 157 78.7727 157C78.8386 157 78.9046 157 78.9046 156.935L86.5619 149.358C86.6279 149.293 86.6279 149.164 86.5619 149.099L51.5756 98.7157L51.576 98.716ZM45.4361 81.8141C45.5021 81.8785 45.568 81.9432 45.634 81.9432H45.6999C46.3605 81.8141 47.0867 81.6845 47.7465 81.6845C48.4727 81.6845 49.2648 81.8144 49.991 82.0084H50.0569C50.1229 82.0084 50.1888 81.9436 50.2548 81.8788L67.9465 54.6802C68.0125 54.6154 68.0125 54.4862 67.9465 54.4211C66.5605 52.9963 65.7684 51.1184 65.7684 49.1106C65.7684 48.528 65.8344 47.9449 65.9662 47.3623C65.9662 47.2323 65.9003 47.1676 65.8344 47.1024C63.5903 46.1315 43.7204 37.8418 43.7204 37.777H43.6545C43.5885 37.777 43.5226 37.777 43.5226 37.8418L26.6889 54.4211C26.6229 54.4855 26.6229 54.615 26.6889 54.6798L45.4365 81.8141H45.4361ZM47.3505 34.4096C47.3505 34.4096 67.419 42.828 68.277 43.2167H68.343C68.4089 43.2167 68.4089 43.2167 68.4749 43.1519C69.8616 42.051 71.6441 41.4036 73.4261 41.4036C74.2846 41.4036 75.143 41.5328 76.0011 41.7915H76.067C76.133 41.7915 76.1989 41.7271 76.2649 41.6623L92.5702 16.6003C92.6021 16.5645 92.6197 16.5183 92.6197 16.4704C92.6197 16.4224 92.6021 16.3762 92.5702 16.3404L79.0372 3.06576C78.9713 3.00098 78.9713 3.00098 78.9053 3.00098C78.8394 3.00098 78.7735 3.00098 78.7735 3.06576L47.3509 34.0209C47.2849 34.0861 47.2849 34.1509 47.2849 34.2149C47.219 34.3448 47.2849 34.3448 47.3509 34.4096H47.3505ZM39.5613 86.5407C39.6272 86.5407 39.6931 86.476 39.7591 86.4112C40.1555 85.6338 40.7498 84.9216 41.3437 84.2738C41.4096 84.2094 41.4096 84.0798 41.3437 84.0151C41.1459 83.7563 23.2563 58.1113 23.2563 58.0465C23.1903 57.9817 23.1903 57.9817 23.0584 57.9169C22.9925 57.9169 22.9265 57.9169 22.9265 57.9821L2.06594 78.4462C2 78.511 2 78.5758 2 78.6402C2 78.7054 2.06594 78.7701 2.19783 78.7701L39.5613 86.5415C39.4953 86.5415 39.4953 86.5415 39.5613 86.5415V86.5407ZM37.8451 91.0095C37.8451 90.8795 37.7792 90.8147 37.6473 90.8147L5.23439 84.1454H5.16767C5.10172 84.1454 5.03578 84.2102 4.96983 84.275C4.90389 84.339 4.96983 84.4689 5.03578 84.5333L19.4932 98.7812C19.5591 98.8456 19.625 98.8456 19.625 98.8456H19.691L37.6461 91.2686C37.778 91.1386 37.844 91.0738 37.844 91.0087L37.8451 91.0095Z" fill="url(#paint0_radial)"/>
<defs>
<radialGradient id="paint0_radial" cx="0" cy="0" r="1" gradientUnits="userSpaceOnUse" gradientTransform="translate(2 3.00098) scale(155.164 153.999)">
<stop stop-color="#20C6B7"/>
<stop offset="1" stop-color="#4D9ABF"/>
</radialGradient>
</defs>
</svg>
