<svg id="Group_27" data-name="Group 27" xmlns="http://www.w3.org/2000/svg" width="82" height="52.048" viewBox="0 0 82 52.048">
  <g id="Group_1" data-name="Group 1" transform="translate(54.78 0.976)">
    <rect id="Rectangle_1" data-name="Rectangle 1" width="8.927" height="2.878" fill="#fff"/>
  </g>
  <g id="Group_2" data-name="Group 2" transform="translate(42.195 0.976)">
    <path id="Path_2" data-name="Path 2" d="M89.378,16.244H86.5V2h9.951V4.829H89.378Z" transform="translate(-86.5 -2)" fill="#fff"/>
  </g>
  <g id="Group_3" data-name="Group 3" transform="translate(43.609 5.171)">
    <rect id="Rectangle_2" data-name="Rectangle 2" width="4.244" height="2.878" fill="#fff"/>
  </g>
  <g id="Group_4" data-name="Group 4" transform="translate(23.122)">
    <path id="Path_3" data-name="Path 3" d="M55.5,16.195a8.1,8.1,0,1,1,8.1-8.1A8.109,8.109,0,0,1,55.5,16.195Zm0-13.317a5.268,5.268,0,1,0,5.268,5.268A5.277,5.277,0,0,0,55.5,2.878Z" transform="translate(-47.4)" fill="#fff"/>
  </g>
  <g id="Group_5" data-name="Group 5" transform="translate(55.173 35.924)">
    <path id="Path_4" data-name="Path 4" d="M123.786,89.721h-2.634a8.023,8.023,0,0,1-6-2.683,8.2,8.2,0,0,1-2-6.293,8.026,8.026,0,0,1,6.927-7.024,7.908,7.908,0,0,1,6.732,2.293l-2,2.049a5.247,5.247,0,0,0-4.341-1.463,5.13,5.13,0,0,0-4.439,4.537,5.276,5.276,0,0,0,1.268,4.049,5.07,5.07,0,0,0,3.854,1.707h1.463l1.8-1.8V81.77h-4.732V78.892h7.61v7.366Z" transform="translate(-113.105 -73.646)" fill="#fff"/>
  </g>
  <g id="Group_6" data-name="Group 6" transform="translate(57.853 18.975)">
    <path id="Path_5" data-name="Path 5" d="M128.551,53.144H118.6V38.9h9.951v2.878h-7.122v8.488h7.122Z" transform="translate(-118.6 -38.9)" fill="#fff"/>
  </g>
  <g id="Group_7" data-name="Group 7" transform="translate(59.268 23.17)">
    <rect id="Rectangle_3" data-name="Rectangle 3" width="4.244" height="2.878" fill="#fff"/>
  </g>
  <g id="Group_8" data-name="Group 8" transform="translate(57.999 2.39)">
    <rect id="Rectangle_4" data-name="Rectangle 4" width="2.878" height="12.829" fill="#fff"/>
  </g>
  <g id="Group_9" data-name="Group 9" transform="translate(4.439 38.146)">
    <rect id="Rectangle_5" data-name="Rectangle 5" width="2.878" height="12.878" fill="#fff"/>
  </g>
  <g id="Group_10" data-name="Group 10" transform="translate(12.049 36.78)">
    <rect id="Rectangle_6" data-name="Rectangle 6" width="2.878" height="14.244" fill="#fff"/>
  </g>
  <g id="Group_11" data-name="Group 11" transform="translate(24.878 36.78)">
    <rect id="Rectangle_7" data-name="Rectangle 7" width="2.878" height="14.244" fill="#fff"/>
  </g>
  <g id="Group_12" data-name="Group 12" transform="translate(31.024 36.78)">
    <rect id="Rectangle_8" data-name="Rectangle 8" width="2.878" height="14.244" fill="#fff"/>
  </g>
  <g id="Group_13" data-name="Group 13" transform="translate(1.366 36.731)">
    <rect id="Rectangle_9" data-name="Rectangle 9" width="8.927" height="2.878" fill="#fff"/>
  </g>
  <g id="Group_14" data-name="Group 14" transform="translate(0 18.536)">
    <path id="Path_6" data-name="Path 6" d="M16.293,52.634H13.414L10.39,45.415,7.366,52.634H4.439L0,38.878,2.732,38,6.049,48.341l2.927-7.024h2.78l2.927,7.024L18.049,38l2.683.878Z" transform="translate(0 -38)" fill="#75fac9"/>
  </g>
  <g id="Group_15" data-name="Group 15" transform="translate(13.463 43.17)">
    <rect id="Rectangle_10" data-name="Rectangle 10" width="12.829" height="2.878" fill="#fff"/>
  </g>
  <g id="Group_16" data-name="Group 16" transform="translate(36 36.341)">
    <path id="Path_7" data-name="Path 7" d="M87.556,90.207l-2.439-1.024V80.451l-5.854,9.317-2.634-.78V78.841l-.829.829-2-2.049L77.068,74.5l2.439,1.024v8.536l5.854-9.317,2.634.78v10.2l.927-.878,2,2Z" transform="translate(-73.8 -74.5)" fill="#fff"/>
  </g>
  <g id="Group_17" data-name="Group 17" transform="translate(22.341 18.683)">
    <path id="Path_8" data-name="Path 8" d="M51.8,53.763A7.841,7.841,0,0,1,53.654,38.3a8.005,8.005,0,0,1,4.683,1.512l.537-.878,2.634.78V52.836H58.629V44.69l-5.317,8.439Zm1.8-12.585a4.991,4.991,0,0,0-2.1,9.512l5.268-8.39A4.936,4.936,0,0,0,53.6,41.178Z" transform="translate(-45.8 -38.3)" fill="#fff"/>
  </g>
  <g id="Group_21" data-name="Group 21" transform="translate(41.512 19.024)">
    <g id="Group_18" data-name="Group 18" transform="translate(0 1.415)">
      <rect id="Rectangle_11" data-name="Rectangle 11" width="2.878" height="12.829" fill="#fff"/>
    </g>
    <g id="Group_19" data-name="Group 19">
      <path id="Path_9" data-name="Path 9" d="M92.076,47.78H85.1V39h6.976a4.39,4.39,0,0,1,0,8.78Zm-4.146-2.829h4.146a1.561,1.561,0,0,0,0-3.122H87.929Z" transform="translate(-85.1 -39)" fill="#fff"/>
    </g>
    <g id="Group_20" data-name="Group 20" transform="translate(6.31 5.482)">
      <rect id="Rectangle_12" data-name="Rectangle 12" width="2.878" height="9.317" transform="translate(0 1.498) rotate(-31.365)" fill="#fff"/>
    </g>
  </g>
  <g id="Group_22" data-name="Group 22" transform="translate(71.56 5.171)">
    <rect id="Rectangle_13" data-name="Rectangle 13" width="10" height="2.878" fill="#fff"/>
  </g>
  <g id="Group_24" data-name="Group 24" transform="translate(10.146 0.146)">
    <g id="Group_23" data-name="Group 23">
      <path id="Path_10" data-name="Path 10" d="M28.371,4.312a2.86,2.86,0,0,0-.634-.927,2.18,2.18,0,0,0-1.561-.537A1.808,1.808,0,0,0,24.127,4.6c0,.439.146,1.219,1.561,1.756l1.463.585c2.683,1.073,3.415,2.634,3.415,4.293a4.482,4.482,0,0,1-4.683,4.683,4.18,4.18,0,0,1-3.415-1.463A4.65,4.65,0,0,1,21.2,11.629l2.2-.488a2.836,2.836,0,0,0,.634,1.854,2.425,2.425,0,0,0,4.293-1.561,2.721,2.721,0,0,0-2.1-2.488L24.81,8.361a4.084,4.084,0,0,1-2.976-3.707A3.934,3.934,0,0,1,26.078.8,4.3,4.3,0,0,1,29,1.776a4.462,4.462,0,0,1,1.122,1.463Z" transform="translate(-21.005 -0.556)" fill="#fff"/>
      <path id="Path_11" data-name="Path 11" d="M25.678,15.91a4.462,4.462,0,0,1-3.61-1.561A4.719,4.719,0,0,1,20.8,11.373v-.2l2.683-.585v.293a2.591,2.591,0,0,0,.585,1.707,1.981,1.981,0,0,0,1.707.78,2.088,2.088,0,0,0,2.146-2.2c0-1.317-.927-1.854-1.951-2.293L24.556,8.3c-2.049-.878-3.122-2.2-3.122-3.9A4.162,4.162,0,0,1,25.922.3,4.585,4.585,0,0,1,29,1.324a5.249,5.249,0,0,1,1.171,1.561l.146.2L28.068,4.4l-.1-.244a2.551,2.551,0,0,0-.585-.829,2,2,0,0,0-1.415-.488c-1.122,0-1.8.585-1.8,1.512,0,.244,0,.976,1.415,1.561l1.463.585c2.439.976,3.561,2.439,3.561,4.488A4.686,4.686,0,0,1,25.678,15.91Zm-4.39-4.341a4.323,4.323,0,0,0,1.122,2.488,3.983,3.983,0,0,0,3.268,1.366,4.225,4.225,0,0,0,4.439-4.439c0-1.171-.341-2.878-3.268-4.049l-1.463-.585c-1.122-.439-1.707-1.122-1.707-2a2.061,2.061,0,0,1,2.293-2,2.591,2.591,0,0,1,1.707.585,4.925,4.925,0,0,1,.634.78l1.366-.829A4.673,4.673,0,0,0,28.7,1.666a4.078,4.078,0,0,0-2.78-.927,3.676,3.676,0,0,0-4,3.61c0,1.561.927,2.683,2.829,3.463l1.415.585a3.024,3.024,0,0,1,2.244,2.732,2.576,2.576,0,0,1-2.634,2.683,2.615,2.615,0,0,1-2.1-.976,3.459,3.459,0,0,1-.634-1.707Z" transform="translate(-20.8 -0.3)" fill="#fff"/>
    </g>
  </g>
  <g id="Group_26" data-name="Group 26" transform="translate(72.243 36.244)">
    <g id="Group_25" data-name="Group 25">
      <path id="Path_12" data-name="Path 12" d="M155.722,78.312a2.86,2.86,0,0,0-.634-.927,2.18,2.18,0,0,0-1.561-.537,1.808,1.808,0,0,0-2.049,1.756c0,.439.146,1.219,1.561,1.756l1.463.585c2.683,1.073,3.415,2.634,3.415,4.293a4.482,4.482,0,0,1-4.683,4.683,4.18,4.18,0,0,1-3.415-1.463,4.868,4.868,0,0,1-1.219-2.829l2.2-.488a2.836,2.836,0,0,0,.634,1.854,2.425,2.425,0,0,0,4.293-1.561,2.721,2.721,0,0,0-2.1-2.488l-1.415-.585a4.084,4.084,0,0,1-2.976-3.707,3.934,3.934,0,0,1,4.244-3.854,4.3,4.3,0,0,1,2.927.976,4.463,4.463,0,0,1,1.122,1.463Z" transform="translate(-148.356 -74.556)" fill="#fff"/>
      <path id="Path_13" data-name="Path 13" d="M152.978,89.91a4.462,4.462,0,0,1-3.61-1.561,4.719,4.719,0,0,1-1.268-2.976v-.2l2.683-.585v.293a2.591,2.591,0,0,0,.585,1.707,1.981,1.981,0,0,0,1.707.78,2.088,2.088,0,0,0,2.146-2.2c0-1.317-.927-1.854-1.951-2.293l-1.415-.585c-2.049-.878-3.122-2.2-3.122-3.9a4.162,4.162,0,0,1,4.488-4.1,4.585,4.585,0,0,1,3.073,1.024,5.249,5.249,0,0,1,1.171,1.561l.1.2L155.319,78.4l-.1-.244a2.551,2.551,0,0,0-.585-.829,2,2,0,0,0-1.415-.488c-1.122,0-1.8.585-1.8,1.512,0,.244,0,.976,1.415,1.561l1.463.585c2.439.976,3.561,2.439,3.561,4.488A4.673,4.673,0,0,1,152.978,89.91Zm-4.439-4.341a4.322,4.322,0,0,0,1.122,2.488,3.983,3.983,0,0,0,3.268,1.366,4.225,4.225,0,0,0,4.439-4.439c0-1.171-.341-2.878-3.268-4.049l-1.463-.585c-1.122-.439-1.707-1.122-1.707-2a2.061,2.061,0,0,1,2.293-2,2.591,2.591,0,0,1,1.707.585,4.926,4.926,0,0,1,.634.78l1.366-.78a4.672,4.672,0,0,0-.976-1.219,4.078,4.078,0,0,0-2.78-.927,3.676,3.676,0,0,0-4,3.61c0,1.561.927,2.683,2.829,3.463l1.415.585a3.024,3.024,0,0,1,2.244,2.732,2.576,2.576,0,0,1-2.634,2.683,2.615,2.615,0,0,1-2.1-.976,3.459,3.459,0,0,1-.634-1.707Z" transform="translate(-148.1 -74.3)" fill="#fff"/>
    </g>
  </g>
</svg>
