<svg width="160" height="160" viewBox="0 0 160 160" fill="none" xmlns="http://www.w3.org/2000/svg">
<g clip-path="url(#clip0)">
<path fill-rule="evenodd" clip-rule="evenodd" d="M35.9004 25.375H124.1V116.725H35.9004V25.375Z" fill="white"/>
<path d="M90.1584 74.7263H61.0996V88.3753H89.4591C91.138 88.3753 92.6721 87.6917 93.9321 86.6018C95.0503 85.5088 95.7465 83.8708 95.7465 81.8233C95.7853 80.0613 95.2453 78.3351 94.2093 76.9093C93.0942 75.5453 91.8342 74.7263 90.1584 74.7263ZM91.1349 58.2077C92.3949 57.3887 92.9524 55.6153 92.9524 53.2937C92.9524 51.2462 92.3949 49.7468 91.4152 48.7892C90.4387 47.9702 89.1787 47.4253 87.7833 47.4253H61.0996V59.7103H87.2257C88.6212 59.7103 90.0198 59.0267 91.138 58.2077H91.1349Z" fill="#0AB3AF"/>
<path d="M137.346 6.4751H23.5205C19.9011 6.4751 17 9.3605 17 12.8255V126.238C17 129.703 19.898 131.867 23.3788 131.867H40.1998V154.525L61.0779 132.015H137.346C140.827 132.015 143 129.851 143 126.241V12.9672C143 9.5054 140.827 6.62 137.201 6.62L137.346 6.4751ZM118.206 98.3921C116.757 100.991 114.584 103.155 111.969 104.743C109.216 106.475 106.173 108.063 102.693 108.784C99.2119 109.647 95.4413 110.368 91.5259 110.368H40.1998V29.5646H98.4874C101.385 29.5646 103.852 30.1442 106.173 31.442C108.347 32.5949 110.375 34.1825 111.969 36.0599C115.217 39.9951 116.964 44.9537 116.902 50.0553C116.902 53.807 115.885 57.4169 114.001 60.8787C112.042 64.3668 108.983 67.1074 105.301 68.6719C109.941 69.9697 113.566 72.2786 116.32 75.5956C118.931 79.0606 120.235 83.5335 120.235 89.1626C120.235 92.7693 119.51 95.7997 118.061 98.3952H118.206V98.3921Z" fill="#0AB3AF"/>
</g>
<defs>
<clipPath id="clip0">
<rect width="126" height="148.05" fill="white" transform="translate(17 6.4751)"/>
</clipPath>
</defs>
</svg>
