<svg width="160" height="160" viewBox="0 0 160 160" fill="none" xmlns="http://www.w3.org/2000/svg">
<g clip-path="url(#clip0)">
<path d="M92.0902 23.4711C113.052 23.4711 126.017 32.9769 126.017 41.7857C126.018 42.293 125.904 42.794 125.683 43.2524C125.461 43.7108 125.139 44.1149 124.739 44.4353L111.058 57.9154L104.23 64.6273L113.18 68.1748C117.824 69.3679 121.901 72.1116 124.71 75.9345C127.518 79.7578 128.885 84.4218 128.574 89.1263C128.568 91.4815 128.072 93.8103 127.115 95.9699C126.159 98.129 124.763 100.074 123.012 101.684L97.9591 126.289C89.4529 133.562 78.3594 137.229 67.1072 136.486C43.8116 136.486 31.4031 126.302 31.4031 118.956C31.3505 118.416 31.4143 117.872 31.5906 117.358C31.7668 116.844 32.0515 116.372 32.426 115.974L32.5538 115.861L32.6817 115.767L47.1742 101.533L47.4299 101.326L47.8263 100.842L52.9406 94.7206L45.7167 91.2359C41.7753 89.6582 38.4505 86.8846 36.2275 83.3198C34.0044 79.7551 32.9995 75.5861 33.3593 71.4206C33.3733 68.8387 33.9243 66.2864 34.9785 63.921C36.0328 61.5552 37.568 59.4263 39.4901 57.6643L64.5116 33.0836C68.239 29.7788 72.5935 27.2286 77.3258 25.5791C82.0582 23.9296 87.0757 23.2133 92.0902 23.4711ZM92.0902 17.1925C86.2126 16.9169 80.3383 17.7962 74.8111 19.7789C69.284 21.7615 64.2155 24.8077 59.9024 28.7388L34.9703 53.2253C32.4455 55.5662 30.4335 58.3884 29.0573 61.519C27.6811 64.6497 26.9696 68.0232 26.9665 71.4332C26.5991 76.7686 27.9326 82.0839 30.7818 86.6407C33.631 91.1978 37.8544 94.7701 42.8655 96.8616L28.162 111.302C27.1075 112.281 26.2802 113.471 25.7363 114.792C25.1925 116.112 24.9448 117.533 25.0103 118.956C25.0103 130.66 40.7558 142.765 67.1072 142.765C73.5477 143.16 80.0035 142.29 86.0979 140.206C92.1923 138.122 97.8023 134.866 102.6 130.628L127.532 106.141C129.878 103.946 131.747 101.306 133.025 98.382C134.303 95.4576 134.963 92.3088 134.967 89.1263C135.267 83.1729 133.517 77.2934 129.999 72.4357C126.482 67.5781 121.402 64.0247 115.578 62.3484L129.29 48.8743C130.291 47.9758 131.087 46.8799 131.627 45.6584C132.167 44.4369 132.438 43.1172 132.423 41.7857C132.41 29.6994 117.336 17.1925 92.0902 17.1925Z" fill="#550088"/>
<path d="M92.0902 23.4711C113.052 23.4711 126.017 32.9769 126.017 41.7857C126.018 42.293 125.904 42.794 125.683 43.2524C125.461 43.7108 125.139 44.1149 124.739 44.4353L111.058 57.9154L104.23 64.6273L113.18 68.1748C117.824 69.3679 121.901 72.1116 124.71 75.9345C127.518 79.7578 128.885 84.4218 128.574 89.1263C128.568 91.4815 128.072 93.8103 127.115 95.9699C126.159 98.129 124.763 100.074 123.012 101.684L97.9591 126.289C89.4529 133.562 78.3594 137.229 67.1072 136.486C43.8116 136.486 31.4031 126.302 31.4031 118.956C31.3505 118.416 31.4143 117.872 31.5906 117.358C31.7668 116.844 32.0515 116.372 32.426 115.974L32.5538 115.861L32.6817 115.767L47.1742 101.533L47.4299 101.326L47.8263 100.842L52.9406 94.7206L45.7167 91.2359C41.7753 89.6582 38.4505 86.8846 36.2275 83.3198C34.0044 79.7551 32.9995 75.5861 33.3593 71.4206C33.3733 68.8387 33.9243 66.2864 34.9785 63.921C36.0328 61.5552 37.568 59.4263 39.4901 57.6643L64.5116 33.0836C68.239 29.7788 72.5935 27.2286 77.3258 25.5791C82.0582 23.9296 87.0757 23.2133 92.0902 23.4711ZM92.0902 17.1925C86.2126 16.9169 80.3383 17.7962 74.8111 19.7789C69.284 21.7615 64.2155 24.8077 59.9024 28.7388L34.9703 53.2253C32.4455 55.5662 30.4335 58.3884 29.0573 61.519C27.6811 64.6497 26.9696 68.0232 26.9665 71.4332C26.5991 76.7686 27.9326 82.0839 30.7818 86.6407C33.631 91.1978 37.8544 94.7701 42.8655 96.8616L28.162 111.302C27.1075 112.281 26.2802 113.471 25.7363 114.792C25.1925 116.112 24.9448 117.533 25.0103 118.956C25.0103 130.66 40.7558 142.765 67.1072 142.765C73.5477 143.16 80.0035 142.29 86.0979 140.206C92.1923 138.122 97.8023 134.866 102.6 130.628L127.532 106.141C129.878 103.946 131.747 101.306 133.025 98.382C134.303 95.4576 134.963 92.3088 134.967 89.1263C135.267 83.1729 133.517 77.2934 129.999 72.4357C126.482 67.5781 121.402 64.0247 115.578 62.3484L129.29 48.8743C130.291 47.9758 131.087 46.8799 131.627 45.6584C132.167 44.4369 132.438 43.1172 132.423 41.7857C132.41 29.6994 117.336 17.1925 92.0902 17.1925Z" fill="url(#paint0_linear)"/>
</g>
<defs>
<linearGradient id="paint0_linear" x1="80" y1="17.1431" x2="80" y2="142.857" gradientUnits="userSpaceOnUse">
<stop stop-color="#5B0488"/>
<stop offset="1" stop-color="#F87282"/>
</linearGradient>
<clipPath id="clip0">
<rect width="110" height="125.714" fill="white" transform="translate(25 17.1431)"/>
</clipPath>
</defs>
</svg>
