<svg xmlns="http://www.w3.org/2000/svg" xmlns:xlink="http://www.w3.org/1999/xlink" viewBox="0 0 1287 629"><defs><style>.cls-1{fill:none;clip-rule:evenodd;}.cls-2,.cls-5{fill:#fff;}.cls-3{fill:#00ecae;}.cls-3,.cls-5{fill-rule:evenodd;}.cls-4{clip-path:url(#clip-path);}</style><clipPath id="clip-path"><path class="cls-1" d="M837.58,168a26.21,26.21,0,0,1,11.57,2.58A29.39,29.39,0,0,1,864.4,185l.79,1.81a27.43,27.43,0,0,1,0,23.27,28.81,28.81,0,0,1-6.41,9.69,34.25,34.25,0,0,1-9.63,6.83,30.77,30.77,0,0,1-23.1,0,32.83,32.83,0,0,1-9.62-6.83,33.17,33.17,0,0,1-6.76-9.69,31.34,31.34,0,0,1,0-23.27,33.46,33.46,0,0,1,6.76-9.75,28.48,28.48,0,0,1,9.62-6.45A26.2,26.2,0,0,1,837.58,168Zm0,116.14a26.78,26.78,0,0,1,11.57,2.59,29.7,29.7,0,0,1,16,16.19,27.45,27.45,0,0,1,0,23.28,29.72,29.72,0,0,1-16,16.18,27,27,0,0,1-23.1,0,27.87,27.87,0,0,1-9.62-6.49,33.44,33.44,0,0,1-6.76-9.69,31.36,31.36,0,0,1,0-23.28,33.22,33.22,0,0,1,6.76-9.7,27.87,27.87,0,0,1,9.62-6.49A26.77,26.77,0,0,1,837.58,284.16ZM288.19,131v31a15.58,15.58,0,0,1-15.68,15.49h-52.9V347.6A19.49,19.49,0,0,1,200,367H171.84V177.53h-52.9A15.58,15.58,0,0,1,103.26,162V131Zm260.93,0a34.84,34.84,0,0,1,31.74,20.48l44.6,80.74a11.61,11.61,0,0,0,20.39-.12l43.07-80.21A34.82,34.82,0,0,1,720.84,131h22.89V367H712.88a15.48,15.48,0,0,1-15.49-15.49V268.2c.21-4.94.33-10,.33-15.16v-14.5l.2-4.46.12-4.32c0-.48,0-.92,0-1.33l-1.53,3.82q-3.13,7.31-46.81,104a15.48,15.48,0,0,1-28.16.13L571.6,228.43v10.11q.33,6.74.32,14.5V268.2l.19,4.64.09,2.77c0,1.75.07,3.32.07,4.72v71.14A15.49,15.49,0,0,1,556.78,367H526.91V131Zm-126.8-3.58a101.47,101.47,0,0,1,27.47,3.5l1.9.56a77.88,77.88,0,0,1,23.42,10.85,71.94,71.94,0,0,1,18.15,16.58,103.37,103.37,0,0,1,13.52,21l-23.54,11.15a27,27,0,0,1-30.8-5.49,31.86,31.86,0,0,0-5.05-4.3q-9.88-6.76-25.73-6.78a46.29,46.29,0,0,0-23.08,5.76,47.7,47.7,0,0,0-17.17,15.57,72.58,72.58,0,0,0-10.55,23.71,125.45,125.45,0,0,0,0,59.92,77.22,77.22,0,0,0,10.55,23.71,54,54,0,0,0,17.49,15.91,46.2,46.2,0,0,0,23.1,5.75q15.84,0,25.73-7.11a37.94,37.94,0,0,0,6-5.59,27,27,0,0,1,34-4.89l18.36,11.17q-11.89,25.38-33,39.61-20.76,13.88-52.45,13.87-22.77,0-41.24-8.46a95.4,95.4,0,0,1-32-24.72Q334.24,322.8,327,300.47q-7.26-22.71-7.26-50.8,0-27.07,7.58-49.43,7.59-22.68,21.13-38.59a92.74,92.74,0,0,1,32.32-25.06A93.9,93.9,0,0,1,422.32,127.44ZM1056.43,110a15.26,15.26,0,0,1,10.81,22.57L929,377.5a30.54,30.54,0,0,1-21.64-45.16l116.78-206.89A31.22,31.22,0,0,1,1056.43,110Zm104.7,0A15.27,15.27,0,0,1,1172,132.56L1033.73,377.5a30.55,30.55,0,0,1-21.65-45.17l116.79-206.89A31.22,31.22,0,0,1,1161.13,110Z"/></clipPath></defs><g id="sous-titre"><g id="TheCodingMachine"><polygon class="cls-2" points="1141.77 519.49 1141.77 514.05 1116.64 514.05 1116.64 497.48 1135.27 497.48 1135.27 492.18 1116.64 492.18 1116.64 476.72 1141.27 476.72 1141.27 471.29 1110.72 471.29 1110.72 519.49 1141.77 519.49"/><polygon class="cls-2" points="1052.62 519.49 1052.62 481.87 1078.45 519.49 1084.02 519.49 1084.02 471.29 1078.1 471.29 1078.1 509.25 1052.62 471.29 1046.69 471.29 1046.69 519.49 1052.62 519.49"/><rect class="cls-2" x="1013.36" y="471.29" width="5.92" height="48.2"/><polygon class="cls-2" points="955.47 519.49 955.47 497.55 980.02 497.55 980.02 519.49 986.02 519.49 986.02 471.29 980.02 471.29 980.02 492.11 955.47 492.11 955.47 471.29 949.54 471.29 949.54 519.49 955.47 519.49"/><path class="cls-2" d="M906.79,520.39c7.57,0,13.42-3.27,17.56-10.1l-4.43-3.13c-3.42,5.5-7.56,7.87-13.13,7.87-9.28,0-15.7-6.62-15.7-19.64s6.42-19.58,15.77-19.58c6.28,0,10.35,3.07,13.28,8.43l4.35-3.2c-3.07-6.2-8.71-10.66-17.63-10.66-12.49,0-21.7,8.71-21.7,25S894.44,520.39,906.79,520.39Z"/><path class="cls-2" d="M844.4,478l-9.7,25.36h19.55Zm3.22-6.68,19.27,48.2h-6.35l-4.29-10.94H832.7l-4.21,10.94h-6.36l19.13-48.2Z"/><polygon class="cls-2" points="759.75 519.49 759.75 484.87 775.67 519.49 778.31 519.49 794.3 484.94 794.3 519.49 800.22 519.49 800.22 471.29 794.3 471.29 777.09 509.39 759.96 471.29 753.83 471.29 753.83 519.49 759.75 519.49"/><path class="cls-2" d="M674.74,520.39c12.35,0,19.34-8.43,19.34-21v-5.3H676.17v5.09h12.2c0,10.38-5.35,15.81-13.7,15.81-9.21,0-15.64-6.62-15.64-19.57s6.43-19.65,15.78-19.65c6.28,0,10.56,3.07,13.28,8.43l4.35-3.2c-3.07-6.2-8.71-10.66-17.63-10.66-12.49,0-21.7,8.78-21.7,25.15S662.25,520.39,674.74,520.39Z"/><polygon class="cls-2" points="596.29 519.49 596.29 481.87 622.13 519.49 627.7 519.49 627.7 471.29 621.77 471.29 621.77 509.25 596.29 471.29 590.37 471.29 590.37 519.49 596.29 519.49"/><rect class="cls-2" x="557.03" y="471.29" width="5.92" height="48.2"/><path class="cls-2" d="M505.86,476.72h-8.21v37.4h8.21c10.56,0,19-7,19-18.8,0-11.58-8.24-18.45-18.71-18.6Zm0-5.43c14.06,0,25,9.12,25,24s-10.91,24-24.64,24.23H491.65v-48.2Z"/><path class="cls-2" d="M444.33,475.81c-8.92,0-15.06,6.69-15.06,19.65S435.41,515,444.33,515s15.27-6.69,15.27-19.57S453.39,475.81,444.33,475.81Zm0-5.43c12.42,0,21.2,8.64,21.2,25.08s-8.78,24.93-21.2,24.93-21-8.56-21-24.93S432.05,470.38,444.33,470.38Z"/><path class="cls-2" d="M382.94,520.39c7.57,0,13.42-3.27,17.56-10.1l-4.42-3.13c-3.43,5.5-7.57,7.87-13.14,7.87-9.28,0-15.7-6.62-15.7-19.64s6.42-19.58,15.77-19.58c6.29,0,10.35,3.07,13.28,8.43l4.35-3.2c-3.06-6.2-8.7-10.66-17.63-10.66-12.49,0-21.7,8.71-21.7,25S370.59,520.39,382.94,520.39Z"/><polygon class="cls-2" points="303.43 519.49 303.43 514.05 278.3 514.05 278.3 497.48 296.93 497.48 296.93 492.18 278.3 492.18 278.3 476.72 302.93 476.72 302.93 471.29 272.38 471.29 272.38 519.49 303.43 519.49"/><polygon class="cls-2" points="214.49 519.49 214.49 497.55 239.04 497.55 239.04 519.49 245.04 519.49 245.04 471.29 239.04 471.29 239.04 492.11 214.49 492.11 214.49 471.29 208.56 471.29 208.56 519.49 214.49 519.49"/><polygon class="cls-2" points="169.88 519.49 169.88 476.72 185.08 476.72 185.08 471.29 148.68 471.29 148.68 476.72 163.95 476.72 163.95 519.49 169.88 519.49"/></g></g><g id="TCM:_" data-name="TCM://"><g id="Vert"><path class="cls-3" d="M1171.85,131.43A15.28,15.28,0,0,1,1184.43,149a15.09,15.09,0,0,1-1.77,5l-81.77,144.92h-47.13l85.83-152A31.23,31.23,0,0,1,1171.85,131.43Z"/><path class="cls-3" d="M1062.71,181l-123,217.91a30.55,30.55,0,0,1-21.64-45.17L1015.6,181Z"/><path class="cls-3" d="M878.49,336a26.69,26.69,0,0,1-2.58,11.62,29.69,29.69,0,0,1-14.85,15.66l-1.19.53a27.18,27.18,0,0,1-21.89.54l-1.22-.54a28.35,28.35,0,0,1-9.62-6.49,33.32,33.32,0,0,1-6.75-9.7A29.78,29.78,0,0,1,818.14,336a31,31,0,0,1,1.16-8.55h57.86A27.34,27.34,0,0,1,878.49,336Z"/><path class="cls-3" d="M848.3,189.45A26.21,26.21,0,0,1,859.87,192c1,.41,1.92.86,2.84,1.36l-16.3,56.83a29.88,29.88,0,0,1-9.65-2.19,34.35,34.35,0,0,1-16.37-16.53,31.21,31.21,0,0,1,0-23.27,33.56,33.56,0,0,1,6.75-9.75,28.68,28.68,0,0,1,9.62-6.45A26.21,26.21,0,0,1,848.3,189.45Z"/><path class="cls-3" d="M760.05,150.91v236H729.2a15.48,15.48,0,0,1-15.48-15.49V288.1c.21-5,.33-10,.33-15.16v-14.5l.19-4.46.12-4.32v-1.33l-1.53,3.82-3.58,8.09q-9.6,21.45-43.23,95.89a15.49,15.49,0,0,1-28.16.13l-50-107.93V159.14a34.77,34.77,0,0,1,9.27,12.26l44.59,80.74a11.62,11.62,0,0,0,20.4-.12l43.06-80.21a34.86,34.86,0,0,1,31.93-20.9Z"/><path class="cls-3" d="M436,147.37v47.07a46,46,0,0,0-20.1,5.2l-1,.52a47.75,47.75,0,0,0-17.16,15.57,72.59,72.59,0,0,0-10.56,23.71,116.24,116.24,0,0,0-3.62,30.13,117.42,117.42,0,0,0,3.62,29.79,77.23,77.23,0,0,0,10.56,23.71A53.9,53.9,0,0,0,415.23,339a45.45,45.45,0,0,0,20.72,5.7v47.1h-.52q-21.84-.28-39.67-8.45a95.43,95.43,0,0,1-32-24.72q-13.18-15.92-20.46-38.25-7.26-22.69-7.25-50.79,0-27.09,7.58-49.43,7.32-21.87,20.16-37.45l1-1.14a92.83,92.83,0,0,1,31-24.42l1.34-.64A93.14,93.14,0,0,1,436,147.37Z"/><path class="cls-3" d="M188.17,150.91H304.52v31a15.58,15.58,0,0,1-15.68,15.49H235.93V367.5a19.48,19.48,0,0,1-19.6,19.36H188.17Z"/></g><g id="rayure"><g class="cls-4"><path class="cls-5" d="M1297.47,99.13l3.19,5.52L701.11,450.8l-3.19-5.52Zm22,0,3.19,5.52L723.16,450.8,720,445.28Zm22,0,3.18,5.52L745.2,450.8,742,445.28Zm22,0,3.19,5.52L767.24,450.8l-3.19-5.52Zm22,0,3.19,5.52L789.27,450.8l-3.18-5.52Zm22,0,3.19,5.52L811.32,450.8l-3.19-5.52Zm22,0,3.19,5.52L833.36,450.8l-3.19-5.52Zm22,0,3.19,5.52L855.4,450.8l-3.18-5.52Zm22,0,3.19,5.52L877.45,450.8l-3.19-5.52Zm22,0,3.18,5.52L899.49,450.8l-3.19-5.52Zm22,0,3.19,5.52L921.53,450.8l-3.19-5.52Zm-771.52,0,3.19,5.52L150,450.8l-3.19-5.52Zm22,0,3.19,5.52L172.06,450.8l-3.19-5.52Zm22.05,0,3.19,5.52L194.1,450.8l-3.19-5.52Zm22,0,3.19,5.52L216.14,450.8,213,445.28Zm22,0,3.19,5.52L238.19,450.8,235,445.28Zm22.05,0,3.18,5.52L260.23,450.8,257,445.28Zm22,0,3.19,5.52L282.27,450.8l-3.19-5.52Zm22,0,3.19,5.52L304.31,450.8l-3.18-5.52Zm22,0,3.19,5.52L326.36,450.8l-3.19-5.52Zm22,0,3.19,5.52L348.39,450.8l-3.19-5.52Zm22,0,3.19,5.52L370.43,450.8l-3.19-5.52Zm22,0,3.19,5.52L392.48,450.8l-3.19-5.52Zm22,0,3.19,5.52L414.52,450.8l-3.19-5.52Zm22,0,3.19,5.52L436.56,450.8l-3.19-5.52Zm22,0,3.19,5.52L458.6,450.8l-3.18-5.52Zm22,0,3.18,5.52L480.65,450.8l-3.19-5.52Zm22,0,3.19,5.52L502.69,450.8l-3.19-5.52Zm22,0,3.19,5.52L524.73,450.8l-3.19-5.52Zm22,0,3.19,5.52L546.78,450.8l-3.19-5.52Zm22,0,3.19,5.52L568.82,450.8l-3.19-5.52Zm22.08,0,3.18,5.52L590.9,450.8h0l-3.19-5.52L1187.22,99.13v0Zm22,0,3.19,5.52L612.94,450.8h0l-3.18-5.52L1209.26,99.13v0Zm22,0,3.19,5.52L635,450.8h0l-3.19-5.52L1231.31,99.13v0Zm22,0,3.19,5.52L657,450.8h0l-3.19-5.52L1253.35,99.13v0Zm22,0,3.19,5.52L679.07,450.8h0l-3.18-5.52L1275.39,99.13v0Zm-1124.19,0,3.19,5.52L-445.11,450.8l-3.19-5.52Zm22,0,3.19,5.52L-423.07,450.8l-3.19-5.52Zm22,0,3.19,5.52L-401,450.8l-3.19-5.52Zm22,0,3.19,5.52L-379,450.8l-3.18-5.52Zm22,0,3.18,5.52L-356.94,450.8l-3.19-5.52Zm22,0,3.19,5.52L-334.9,450.8l-3.19-5.52Zm22,0,3.19,5.52L-312.86,450.8l-3.19-5.52Zm22,0,3.19,5.52L-290.81,450.8l-3.19-5.52Zm22,0,3.19,5.52L-268.77,450.8l-3.19-5.52Zm22,0,3.19,5.52L-246.73,450.8l-3.19-5.52Zm22,0,3.19,5.52L-224.68,450.8l-3.19-5.52Zm22,0,3.18,5.52L-202.65,450.8l-3.19-5.52Zm22,0,3.19,5.52L-180.61,450.8l-3.19-5.52Zm22,0,3.19,5.52L-158.57,450.8l-3.18-5.52Zm22,0,3.18,5.52L-136.52,450.8l-3.19-5.52Zm22,0,3.19,5.52L-114.48,450.8l-3.19-5.52Zm22,0,3.19,5.52L-92.44,450.8l-3.19-5.52Zm22,0,3.19,5.52L-70.39,450.8l-3.19-5.52Zm22,0,3.19,5.52L-48.35,450.8l-3.19-5.52Zm22,0,3.19,5.52L-26.31,450.8l-3.19-5.52Zm22,0,3.19,5.52L-4.27,450.8l-3.18-5.52Zm22,0,3.18,5.52L17.78,450.8l-3.19-5.52Zm22,0,3.19,5.52L39.82,450.8l-3.19-5.52Zm22,0,3.19,5.52L61.86,450.8l-3.19-5.52Zm22,0,3.19,5.52L83.91,450.8l-3.19-5.52Zm22,0,3.19,5.52L106,450.8l-3.19-5.52Zm22,0,3.19,5.52L128,450.8l-3.19-5.52Z"/></g></g><g id="black"><path class="cls-5" d="M1161.13,110A15.27,15.27,0,0,1,1172,132.56L1074,306.06h-47.13l102-180.62A31.22,31.22,0,0,1,1161.13,110Z"/><path class="cls-5" d="M1005.62,241.76,929,377.5a30.54,30.54,0,0,1-21.64-45.16l51.12-90.58Z"/><path class="cls-5" d="M836,284.21v60.73a26.63,26.63,0,0,1-8.77-2l-1.19-.53a27.87,27.87,0,0,1-9.62-6.49,33.44,33.44,0,0,1-6.76-9.69,31.36,31.36,0,0,1,0-23.28,33.22,33.22,0,0,1,6.76-9.7,28,28,0,0,1,8.41-6l1.21-.52A26.51,26.51,0,0,1,836,284.21Z"/><path class="cls-5" d="M807.43,198.89h60.33l0-.49a26.82,26.82,0,0,1-2.59,11.67,28.81,28.81,0,0,1-6.41,9.69,34.25,34.25,0,0,1-9.63,6.83,30.77,30.77,0,0,1-23.1,0,32.83,32.83,0,0,1-9.62-6.83,33.17,33.17,0,0,1-6.76-9.69A29.7,29.7,0,0,1,807.43,198.89Z"/><path class="cls-5" d="M743.73,131V367H712.88a15.48,15.48,0,0,1-15.49-15.49V268.2c.21-4.94.33-10,.33-15.16v-14.5l.2-4.46.12-4.32v-1.33l-1.53,3.82L680.81,267.3q-11.44,25.41-31.1,68.93a15.48,15.48,0,0,1-15.2,9.07V238.19a11.62,11.62,0,0,0,11.34-6.07l43.07-80.21A34.82,34.82,0,0,1,720.84,131Z"/><path class="cls-5" d="M355.52,154l.72-.69,1.58-1.47,1.18-1.05,1.51-1.3.34-.28c.91-.76,1.84-1.5,2.78-2.22l2.22-1.65,1.66-1.17,1.27-.86,1.8-1.16,1.75-1.07,1.69-1,1.52-.85,1.7-.9,1.87-1,1.64-.79c.8-.39,1.61-.76,2.42-1.13l1.34-.59,1.63-.68,2.5-1,1.52-.55,1.8-.61,1.37-.44,2.52-.73,2.1-.55,1.79-.44,2.57-.55,2-.38,1.9-.31,2-.3,2.07-.25,2-.21,2-.17,2.07-.14,1.44-.06,1.82-.06c.89,0,1.79,0,2.69,0a101.47,101.47,0,0,1,27.47,3.5l1.9.56a77.88,77.88,0,0,1,23.42,10.85,71.94,71.94,0,0,1,18.15,16.58,103.37,103.37,0,0,1,13.52,21l-23.54,11.15a27,27,0,0,1-30.8-5.49,31.86,31.86,0,0,0-5.05-4.3q-9.88-6.76-25.73-6.78c-.91,0-1.8,0-2.69.07l-1.32.08-1,.08-1.48.16-1.44.19-.94.16-1.44.27-1.32.29-.7.17-1,.25-1.36.4-.6.19-.79.26-1.22.45-.65.25-1,.4-1.17.51-.63.3-.84.42-.81.42-.8.44a47.7,47.7,0,0,0-17.17,15.57,72.58,72.58,0,0,0-10.55,23.71l-.51,2-.52,2.24c-.24,1.08-.46,2.19-.67,3.3l-.3,1.68-.32,2.09-.27,1.9-.27,2.31-.15,1.37-.19,2.17-.17,2.42-.13,2.4-.07,2.25,0,1.31q0,1.34,0,2.7a116.91,116.91,0,0,0,3.63,29.79,77.22,77.22,0,0,0,10.55,23.71,54,54,0,0,0,17.49,15.91,45.49,45.49,0,0,0,20.73,5.7v47.11h-.53q-21.84-.3-39.67-8.46a95.4,95.4,0,0,1-32-24.72Q334.24,322.8,327,300.47q-7.26-22.71-7.26-50.8c0-3.67.11-7.27.31-10.81l.24-3.48.16-1.85.26-2.61.23-2,.4-3.1.49-3.24.43-2.53.59-3.11.52-2.47.57-2.46.57-2.28.67-2.5c.65-2.36,1.37-4.68,2.14-7l.78-2.25c.51-1.46,1.05-2.91,1.6-4.33l.77-1.92.6-1.43.61-1.42c.57-1.31,1.16-2.6,1.76-3.87l1.22-2.47,1.07-2.07c.61-1.14,1.23-2.26,1.87-3.37l1.33-2.25,1.17-1.88,1.21-1.86.85-1.25.66-1,1.46-2,1-1.31,1-1.31,1.2-1.49,1-1.14A97.68,97.68,0,0,1,355.52,154Z"/><path class="cls-5" d="M219.61,177.53V347.6A19.49,19.49,0,0,1,200,367H171.84V177.53Z"/></g></g></svg>