<?xml version="1.0" encoding="utf-8"?>
<!-- Generator: Adobe Illustrator 19.0.0, SVG Export Plug-In . SVG Version: 6.00 Build 0)  -->
<svg version="1.1" id="Layer_1" xmlns="http://www.w3.org/2000/svg" xmlns:xlink="http://www.w3.org/1999/xlink" x="0px" y="0px"
	 viewBox="-275 367 61 60" style="enable-background:new -275 367 61 60;" xml:space="preserve">
<style type="text/css">
	.st0{fill:#FFFFFF;}
</style>
<g>
	<path class="st0" d="M-245.8,409.9c6.4,6.4,13.5-0.8,13.5-0.8c7.6-7.3,0.8-13.7,0.8-13.7l-4.5-4.4c-0.8-0.7-2-0.7-2.7,0l-0.6,0.6
		c-0.7,0.8-0.7,2,0,2.7l4.4,4.4c0,0,4,3.5-0.1,7.5c0,0-3.9,4.4-7.6,0.3l-4.5-4.4c-0.7-0.7-2-0.7-2.7,0l-0.6,0.6
		c-0.7,0.8-0.7,2,0,2.7L-245.8,409.9z"/>
	<path class="st0" d="M-244.7,400.1c-0.8-0.8-0.9-2.1-0.2-2.9l0.6-0.6c0.7-0.8,2-0.7,2.9,0.2l4.9,4.9c0.8,0.8,0.9,2.1,0.2,2.9
		l-0.6,0.6c-0.7,0.7-2,0.7-2.9-0.2L-244.7,400.1z"/>
</g>
<path class="st0" d="M-214.8,423.7c-1.6-7.8-1.2-14.9-0.7-21.9c0.6-10.7,1.3-20.9-6.9-29.1c-7.1-7.1-18.7-7.1-25.9,0
	c-4,4-5.8,9.6-5.2,15.1c-5.5-0.6-11.1,1.2-15.1,5.2c-7.1,7.1-7.1,18.7,0,25.9c8.5,8.5,18.7,7.9,29.5,7.2c0.7,0,1.4-0.1,2.1-0.1
	l2.5-0.2l-9.2-4.3l-3.1,0.1c-7.1,0.1-13-0.9-18.2-6.1c-5.2-5.2-5.2-13.7,0-19c3.6-3.6,9.2-4.9,14-3.1l4.9,1.8l-1.8-4.9
	c-1.8-4.9-0.5-10.4,3.1-14c5.2-5.2,13.7-5.2,19,0c6.6,6.6,6.1,14.9,5.5,25.3c-0.2,3.7-0.5,7.6-0.4,11.7l6.4,13.1L-214.8,423.7z"/>
</svg>
