<svg width="528" height="470" viewBox="0 0 528 470" fill="none" xmlns="http://www.w3.org/2000/svg">
<path d="M222.56 407.466L299.098 451.716M222.56 407.466C215.569 403.424 211.261 395.947 211.261 387.855M222.56 407.466L222.435 407.394C215.52 403.396 211.261 396.014 211.261 388.026L211.261 387.855M299.098 451.716C305.932 455.667 314.328 455.755 321.242 451.948M299.098 451.716V451.716C305.882 455.638 314.379 455.727 321.242 451.948V451.948M321.242 451.948L402.195 407.381M402.195 407.381C409.417 403.404 413.906 395.799 413.906 387.537M402.195 407.381L402.323 407.31C409.468 403.377 413.906 395.867 413.906 387.712L413.906 387.537M413.906 387.537L413.906 207.491M413.906 207.491C413.906 199.278 409.469 191.709 402.312 187.713M413.906 207.491L413.906 207.318C413.906 199.21 409.519 191.737 402.44 187.784L402.312 187.713M402.312 187.713L321.363 142.517M321.363 142.517C314.386 138.622 305.876 138.712 298.982 142.753M321.363 142.517V142.517C314.438 138.651 305.824 138.742 298.982 142.753V142.753M298.982 142.753L222.441 187.631M222.441 187.631C215.517 191.691 211.261 199.13 211.261 207.173M222.441 187.631L222.317 187.704C215.468 191.719 211.261 199.064 211.261 207.003L211.261 207.173M211.261 207.173L211.261 387.855" stroke="url(#paint0_linear_3895_44525)" stroke-width="15.5152"/>
<path d="M445.47 17.9898L407.525 40.062M445.47 17.9898C448.936 15.9735 453.219 15.9608 456.702 17.9564M445.47 17.9898V17.9898C448.937 15.9733 453.222 15.963 456.702 17.9564V17.9564M407.525 40.062C404.137 42.0328 402.027 45.629 401.958 49.5479M407.525 40.062V40.062C404.138 42.0323 402.027 45.6298 401.958 49.5479V49.5479M401.958 49.5479L401.159 95.426M401.159 95.426C401.087 99.5192 403.253 103.329 406.81 105.367M401.159 95.426V95.426C401.087 99.5196 403.257 103.331 406.81 105.367V105.367M406.81 105.367L447.022 128.402M447.022 128.402C450.557 130.428 454.911 130.382 458.398 128.284M447.022 128.402V128.402C450.553 130.426 454.911 130.383 458.398 128.284V128.284M458.398 128.284L497.839 104.544M497.839 104.544C501.239 102.497 503.301 98.8077 503.263 94.8402M497.839 104.544V104.544C501.238 102.498 503.301 98.8068 503.263 94.8402V94.8402M503.263 94.8402L502.84 50.7868M502.84 50.7868C502.802 46.8014 500.65 43.1326 497.188 41.1492M502.84 50.7868V50.7868C502.802 46.801 500.647 43.1305 497.188 41.1492V41.1492M497.188 41.1492L456.702 17.9564" stroke="url(#paint1_linear_3895_44525)" stroke-width="11.2767"/>
<g filter="url(#filter0_f_3895_44525)">
<ellipse cx="500.446" cy="72.7109" rx="4.75453" ry="45.987" transform="rotate(-0.193229 500.446 72.7109)" fill="url(#paint2_radial_3895_44525)" fill-opacity="0.8"/>
</g>
<path d="M69.1296 309.186L31.1847 331.258M69.1296 309.186C72.5958 307.17 76.8781 307.157 80.3617 309.153M69.1296 309.186V309.186C72.5962 307.17 76.8819 307.159 80.3617 309.153V309.153M31.1847 331.258C27.7966 333.229 25.6861 336.825 25.6178 340.744M31.1847 331.258V331.258C27.7974 333.229 25.6861 336.826 25.6178 340.744V340.744M25.6178 340.744L24.8182 386.622M24.8182 386.622C24.7468 390.715 26.9128 394.525 30.4693 396.563M24.8182 386.622V386.622C24.7468 390.716 26.9167 394.528 30.4693 396.563V396.563M30.4693 396.563L70.6811 419.599M70.6811 419.599C74.2169 421.624 78.5706 421.579 82.0576 419.48M70.6811 419.599V419.599C74.213 421.622 78.5702 421.579 82.0576 419.48V419.48M82.0576 419.48L121.499 395.74M121.499 395.74C124.898 393.694 126.961 390.004 126.923 386.036M121.499 395.74V395.74C124.898 393.694 126.961 390.003 126.923 386.036V386.036M126.923 386.036L126.5 341.983M126.5 341.983C126.461 337.998 124.31 334.329 120.847 332.345M126.5 341.983V341.983C126.461 337.997 124.306 334.327 120.847 332.345V332.345M120.847 332.345L80.3617 309.153" stroke="url(#paint3_linear_3895_44525)" stroke-width="11.2767"/>
<g filter="url(#filter1_f_3895_44525)">
<ellipse cx="124.105" cy="363.907" rx="4.75453" ry="45.987" transform="rotate(-0.193229 124.105 363.907)" fill="url(#paint4_radial_3895_44525)" fill-opacity="0.8"/>
</g>
<defs>
<filter id="filter0_f_3895_44525" x="477.786" y="8.82098" width="45.3204" height="127.78" filterUnits="userSpaceOnUse" color-interpolation-filters="sRGB">
<feFlood flood-opacity="0" result="BackgroundImageFix"/>
<feBlend mode="normal" in="SourceGraphic" in2="BackgroundImageFix" result="shape"/>
<feGaussianBlur stdDeviation="8.95157" result="effect1_foregroundBlur_3895_44525"/>
</filter>
<filter id="filter1_f_3895_44525" x="101.445" y="300.017" width="45.3204" height="127.78" filterUnits="userSpaceOnUse" color-interpolation-filters="sRGB">
<feFlood flood-opacity="0" result="BackgroundImageFix"/>
<feBlend mode="normal" in="SourceGraphic" in2="BackgroundImageFix" result="shape"/>
<feGaussianBlur stdDeviation="8.95157" result="effect1_foregroundBlur_3895_44525"/>
</filter>
<linearGradient id="paint0_linear_3895_44525" x1="221.554" y1="176.881" x2="348.941" y2="374.703" gradientUnits="userSpaceOnUse">
<stop stop-color="#00DC82"/>
<stop offset="0.505208" stop-color="#1AD6FF"/>
<stop offset="1" stop-color="#0047E1"/>
</linearGradient>
<linearGradient id="paint1_linear_3895_44525" x1="416.845" y1="17.4419" x2="515.118" y2="95.9661" gradientUnits="userSpaceOnUse">
<stop stop-color="#00DC82"/>
<stop offset="0.505208" stop-color="#1AD6FF"/>
<stop offset="1" stop-color="#0047E1"/>
</linearGradient>
<radialGradient id="paint2_radial_3895_44525" cx="0" cy="0" r="1" gradientUnits="userSpaceOnUse" gradientTransform="translate(500.446 72.7109) rotate(90) scale(45.987 4.75453)">
<stop stop-color="white"/>
<stop offset="1" stop-color="white" stop-opacity="0"/>
</radialGradient>
<linearGradient id="paint3_linear_3895_44525" x1="40.5044" y1="308.638" x2="138.778" y2="387.162" gradientUnits="userSpaceOnUse">
<stop stop-color="#00DC82"/>
<stop offset="0.505208" stop-color="#1AD6FF"/>
<stop offset="1" stop-color="#0047E1"/>
</linearGradient>
<radialGradient id="paint4_radial_3895_44525" cx="0" cy="0" r="1" gradientUnits="userSpaceOnUse" gradientTransform="translate(124.105 363.907) rotate(90) scale(45.987 4.75453)">
<stop stop-color="white"/>
<stop offset="1" stop-color="white" stop-opacity="0"/>
</radialGradient>
</defs>
</svg>
