<svg width="438" height="236" viewBox="0 0 438 236" fill="none" xmlns="http://www.w3.org/2000/svg">
<path d="M228.189 173.96V235.96" stroke="#18181B" stroke-width="0.748571"/>
<path d="M1.18945 173.96H191.189" stroke="#18181B" stroke-width="0.748571"/>
<path d="M45.5 44.9602H194.19" stroke="#18181B" stroke-width="0.748571"/>
<path d="M270.189 144.96H436.189" stroke="#18181B" stroke-width="0.748571"/>
<path d="M1.18945 109.96L143.189 109.96" stroke="#18181B" stroke-width="0.748571"/>
<path d="M45.1895 142.96H124.189" stroke="#18181B" stroke-width="0.748571"/>
<path d="M274.189 109.96L417.189 109.96" stroke="#18181B" stroke-width="0.748571"/>
<path d="M316.189 173.96L227.189 173.96" stroke="#18181B" stroke-width="0.748571"/>
<path d="M352.189 27.9602V108.767V214.96" stroke="#18181B" stroke-width="0.748571"/>
<path d="M316.189 0.960693V225.961" stroke="#18181B" stroke-width="0.748571"/>
<path d="M245.189 57.9605L416.189 57.9602" stroke="#18181B" stroke-width="0.748571"/>
<path d="M77.1895 225.96L77.1895 6.9602" stroke="#18181B" stroke-width="0.748571"/>
<path d="M153.189 17.9602V69.9602" stroke="#18181B" stroke-width="0.748571"/>
<path d="M45.1895 28.9602L45.1895 212.96" stroke="#18181B" stroke-width="0.748571"/>
<path d="M124.189 44.9602V234.96" stroke="#18181B" stroke-width="0.748571"/>
<path d="M176.189 173.96V219.96" stroke="#18181B" stroke-width="0.748571"/>
<path d="M78.1895 204.96H393.189" stroke="#18181B" stroke-width="0.748571"/>
<circle opacity="0.14" cx="124.188" cy="109.96" r="3.5" fill="#F7D14C"/>
<circle opacity="0.14" cx="45.1885" cy="173.96" r="3.5" fill="#F7D14C"/>
<circle opacity="0.14" cx="77.1885" cy="44.9602" r="3.5" fill="#F7D14C"/>
<circle opacity="0.14" cx="352.188" cy="57.9604" r="3.5" fill="#F7D14C"/>
<circle opacity="0.14" cx="316.188" cy="109.961" r="3.5" fill="#F7D14C"/>
<circle opacity="0.14" cx="176.188" cy="204.96" r="3.5" fill="#F7D14C"/>
<g filter="url(#filter0_d_1040_49665)">
<path d="M150.052 71.4524L150.055 71.4502L198.541 41.3638C198.541 41.3634 198.542 41.363 198.543 41.3627C202.755 38.8146 207.989 38.7089 212.274 41.0837L212.276 41.0849L264.262 69.4685C264.263 69.4687 264.263 69.4688 264.263 69.469C268.521 71.8293 271.2 76.2849 271.301 81.1758C271.301 81.1768 271.301 81.1778 271.301 81.1788L271.613 136.695L271.613 136.701C271.712 141.575 269.241 146.144 265.108 148.73L215.889 179.528C211.653 182.179 206.33 182.327 201.981 179.916L151.157 151.745C146.75 149.302 143.336 144.652 143.369 139.659L143.369 139.657L143.369 83.2182C143.369 83.2178 143.369 83.2174 143.369 83.217C143.401 78.4042 145.934 73.944 150.052 71.4524Z" stroke="#F7D14C" stroke-opacity="0.1" stroke-width="0.748571" shape-rendering="crispEdges"/>
</g>
<g filter="url(#filter1_d_1040_49665)">
<path d="M174.931 87.6502L202.746 70.1861C205.228 68.6664 208.313 68.6029 210.839 70.0194L240.662 86.4945C243.172 87.9024 244.751 90.5604 244.81 93.477L244.989 125.703C245.047 128.609 243.592 131.332 241.157 132.874L212.923 150.75C210.427 152.33 207.29 152.418 204.726 150.981L175.572 134.629C172.993 133.183 170.974 130.42 170.993 127.423L170.993 94.6637C171.012 91.7945 172.505 89.1356 174.931 87.6502Z" fill="#18181B"/>
<path d="M175.321 88.2886L175.321 88.2886L175.329 88.2841L203.137 70.8245C203.138 70.8238 203.139 70.823 203.14 70.8223C205.392 69.4454 208.186 69.3899 210.473 70.6723L210.477 70.6747L240.296 87.1474C240.296 87.1478 240.297 87.1481 240.298 87.1485C242.57 88.4239 244.006 90.834 244.062 93.4869C244.062 93.4886 244.062 93.4903 244.062 93.4921L244.24 125.707L244.241 125.718C244.294 128.365 242.968 130.841 240.756 132.241L212.522 150.117C210.257 151.551 207.415 151.63 205.093 150.328L175.938 133.977C173.536 132.629 171.725 130.088 171.742 127.428H171.742V127.423L171.742 94.6685C171.742 94.6678 171.742 94.667 171.742 94.6662C171.76 92.054 173.119 89.637 175.321 88.2886Z" stroke="url(#paint0_linear_1040_49665)" stroke-width="1.49714"/>
</g>
<g filter="url(#filter2_d_1040_49665)">
<path d="M166.188 81.6892L166.188 81.6893L166.192 81.6871L201.521 59.8066C201.522 59.8062 201.522 59.8058 201.523 59.8055C204.561 57.9712 208.337 57.8955 211.427 59.6049L211.429 59.606L249.31 80.2484C249.311 80.2486 249.311 80.2488 249.311 80.249C252.381 81.9479 254.313 85.1546 254.386 88.6746C254.386 88.6756 254.386 88.6766 254.386 88.6776L254.614 129.052L254.614 129.057C254.685 132.566 252.903 135.855 249.922 137.717L214.057 160.116C211.001 162.024 207.162 162.13 204.025 160.395L166.991 139.907C163.802 138.143 161.344 134.791 161.368 131.207H161.368V131.205L161.368 90.1594C161.368 90.159 161.368 90.1586 161.368 90.1582C161.391 86.6939 163.218 83.4831 166.188 81.6892Z" stroke="#F7D14C" stroke-opacity="0.5" stroke-width="0.748571" shape-rendering="crispEdges"/>
</g>
<g filter="url(#filter3_d_1040_49665)">
<path d="M157.2 76.408L157.2 76.408L157.204 76.4058L199.675 50.1067C199.676 50.1063 199.676 50.106 199.677 50.1056C203.352 47.8868 207.92 47.795 211.659 49.8628L211.661 49.8639L257.199 74.6747C257.2 74.675 257.2 74.6752 257.201 74.6754C260.915 76.7307 263.252 80.6098 263.34 84.8675C263.34 84.8686 263.34 84.8696 263.34 84.8706L263.613 133.398L263.614 133.404C263.7 137.648 261.545 141.626 257.938 143.878L214.824 170.799C211.127 173.108 206.482 173.236 202.687 171.137L158.167 146.512C154.317 144.382 151.34 140.331 151.369 135.989L151.369 135.986L151.369 86.6526C151.369 86.6522 151.369 86.6518 151.369 86.6514C151.397 82.4612 153.607 78.5776 157.2 76.408Z" stroke="#F7D14C" stroke-opacity="0.15" stroke-width="0.748571" shape-rendering="crispEdges"/>
</g>
<path d="M218.208 125.917H199.708C198.481 125.917 197.305 125.429 196.438 124.562C195.57 123.695 195.083 122.518 195.083 121.292V105.875C195.083 104.648 195.57 103.472 196.438 102.605C197.305 101.737 198.481 101.25 199.708 101.25H201.25C201.276 99.9436 201.716 98.6793 202.507 97.6393C203.298 96.5993 204.399 95.8374 205.651 95.4635C206.903 95.0897 208.241 95.1231 209.473 95.5591C210.704 95.995 211.766 96.8109 212.504 97.8891C213.195 98.8745 213.571 100.046 213.583 101.25H218.208C218.617 101.25 219.009 101.412 219.298 101.702C219.587 101.991 219.75 102.383 219.75 102.792V107.417C221.056 107.443 222.32 107.883 223.36 108.674C224.4 109.465 225.162 110.566 225.536 111.818C225.91 113.07 225.877 114.408 225.441 115.64C225.005 116.871 224.189 117.933 223.111 118.671C222.125 119.362 220.953 119.738 219.75 119.75V124.375C219.75 124.784 219.587 125.176 219.298 125.465C219.009 125.754 218.617 125.917 218.208 125.917ZM199.708 104.333C199.299 104.333 198.907 104.496 198.618 104.785C198.329 105.074 198.166 105.466 198.166 105.875V121.292C198.166 121.701 198.329 122.093 198.618 122.382C198.907 122.671 199.299 122.833 199.708 122.833H216.666V117.931C216.665 117.684 216.723 117.44 216.836 117.22C216.949 117 217.112 116.81 217.314 116.667C217.515 116.523 217.747 116.431 217.991 116.396C218.235 116.361 218.484 116.385 218.717 116.466C219.156 116.645 219.635 116.707 220.105 116.645C220.575 116.583 221.022 116.399 221.399 116.112C221.775 115.882 222.098 115.575 222.345 115.211C222.592 114.847 222.759 114.434 222.833 114C222.892 113.562 222.857 113.116 222.729 112.693C222.602 112.271 222.385 111.88 222.093 111.548C221.698 111.069 221.161 110.728 220.559 110.576C219.958 110.423 219.323 110.467 218.748 110.7C218.515 110.782 218.266 110.806 218.022 110.771C217.778 110.736 217.545 110.643 217.345 110.5C217.143 110.357 216.979 110.167 216.867 109.947C216.754 109.727 216.696 109.483 216.697 109.236V104.333H211.764C211.51 104.348 211.257 104.299 211.027 104.192C210.797 104.085 210.597 103.923 210.444 103.721C210.292 103.518 210.192 103.28 210.153 103.03C210.114 102.779 210.138 102.522 210.222 102.283C210.401 101.844 210.463 101.365 210.401 100.895C210.339 100.424 210.155 99.9781 209.868 99.6004C209.64 99.2137 209.328 98.8832 208.956 98.6333C208.583 98.3834 208.159 98.2206 207.714 98.157C207.27 98.0933 206.817 98.1304 206.39 98.2655C205.962 98.4006 205.57 98.6303 205.243 98.9375C204.939 99.2387 204.701 99.5999 204.545 99.998C204.388 100.396 204.316 100.823 204.333 101.25C204.337 101.604 204.404 101.954 204.533 102.283C204.615 102.516 204.639 102.765 204.604 103.01C204.569 103.254 204.476 103.487 204.333 103.688C204.189 103.889 203.999 104.052 203.779 104.165C203.56 104.277 203.316 104.335 203.069 104.333H199.708Z" fill="url(#paint1_linear_1040_49665)"/>
<defs>
<filter id="filter0_d_1040_49665" x="124.257" y="20.2631" width="166.47" height="180.474" filterUnits="userSpaceOnUse" color-interpolation-filters="sRGB">
<feFlood flood-opacity="0" result="BackgroundImageFix"/>
<feColorMatrix in="SourceAlpha" type="matrix" values="0 0 0 0 0 0 0 0 0 0 0 0 0 0 0 0 0 0 127 0" result="hardAlpha"/>
<feOffset/>
<feGaussianBlur stdDeviation="9.36846"/>
<feComposite in2="hardAlpha" operator="out"/>
<feColorMatrix type="matrix" values="0 0 0 0 1 0 0 0 0 1 0 0 0 0 1 0 0 0 1 0"/>
<feBlend mode="normal" in2="BackgroundImageFix" result="effect1_dropShadow_1040_49665"/>
<feBlend mode="normal" in="SourceGraphic" in2="effect1_dropShadow_1040_49665" result="shape"/>
</filter>
<filter id="filter1_d_1040_49665" x="152.256" y="50.2631" width="111.471" height="120.474" filterUnits="userSpaceOnUse" color-interpolation-filters="sRGB">
<feFlood flood-opacity="0" result="BackgroundImageFix"/>
<feColorMatrix in="SourceAlpha" type="matrix" values="0 0 0 0 0 0 0 0 0 0 0 0 0 0 0 0 0 0 127 0" result="hardAlpha"/>
<feOffset/>
<feGaussianBlur stdDeviation="9.36846"/>
<feComposite in2="hardAlpha" operator="out"/>
<feColorMatrix type="matrix" values="0 0 0 0 1 0 0 0 0 1 0 0 0 0 1 0 0 0 0.07 0"/>
<feBlend mode="normal" in2="BackgroundImageFix" result="effect1_dropShadow_1040_49665"/>
<feBlend mode="normal" in="SourceGraphic" in2="effect1_dropShadow_1040_49665" result="shape"/>
</filter>
<filter id="filter2_d_1040_49665" x="141.616" y="38.6229" width="132.751" height="142.754" filterUnits="userSpaceOnUse" color-interpolation-filters="sRGB">
<feFlood flood-opacity="0" result="BackgroundImageFix"/>
<feColorMatrix in="SourceAlpha" type="matrix" values="0 0 0 0 0 0 0 0 0 0 0 0 0 0 0 0 0 0 127 0" result="hardAlpha"/>
<feOffset/>
<feGaussianBlur stdDeviation="9.68854"/>
<feComposite in2="hardAlpha" operator="out"/>
<feColorMatrix type="matrix" values="0 0 0 0 1 0 0 0 0 1 0 0 0 0 1 0 0 0 1 0"/>
<feBlend mode="normal" in2="BackgroundImageFix" result="effect1_dropShadow_1040_49665"/>
<feBlend mode="normal" in="SourceGraphic" in2="effect1_dropShadow_1040_49665" result="shape"/>
</filter>
<filter id="filter3_d_1040_49665" x="132.257" y="29.2631" width="150.47" height="162.474" filterUnits="userSpaceOnUse" color-interpolation-filters="sRGB">
<feFlood flood-opacity="0" result="BackgroundImageFix"/>
<feColorMatrix in="SourceAlpha" type="matrix" values="0 0 0 0 0 0 0 0 0 0 0 0 0 0 0 0 0 0 127 0" result="hardAlpha"/>
<feOffset/>
<feGaussianBlur stdDeviation="9.36846"/>
<feComposite in2="hardAlpha" operator="out"/>
<feColorMatrix type="matrix" values="0 0 0 0 1 0 0 0 0 1 0 0 0 0 1 0 0 0 1 0"/>
<feBlend mode="normal" in2="BackgroundImageFix" result="effect1_dropShadow_1040_49665"/>
<feBlend mode="normal" in="SourceGraphic" in2="effect1_dropShadow_1040_49665" result="shape"/>
</filter>
<linearGradient id="paint0_linear_1040_49665" x1="171.719" y1="94.4557" x2="245.047" y2="130.693" gradientUnits="userSpaceOnUse">
<stop stop-color="#F7D14C"/>
<stop offset="1" stop-color="#A38108"/>
</linearGradient>
<linearGradient id="paint1_linear_1040_49665" x1="194.997" y1="101.769" x2="225.803" y2="118.34" gradientUnits="userSpaceOnUse">
<stop stop-color="#F7D14C"/>
<stop offset="1" stop-color="#A38108"/>
</linearGradient>
</defs>
</svg>
