<svg xmlns="http://www.w3.org/2000/svg" width="896" height="230" fill="none" viewBox="0 0 896 230"><g clip-path="url(#a)"><path fill="#020420" d="M0 0h896v230H0z"/><g filter="url(#b)"><ellipse cx="450" cy="-98" fill="url(#c)" rx="578" ry="272"/></g><path fill="#fff" d="M220.908 159v-22.716h-7.524V133.8h18.072v2.484h-7.524V159h-3.024Zm14.06 0v-25.92h3.024v11.124c.6-1.104 1.452-1.956 2.556-2.556 1.104-.624 2.304-.936 3.6-.936 2.064 0 3.72.648 4.968 1.944 1.248 1.272 1.872 3.24 1.872 5.904V159H248v-10.116c0-3.72-1.5-5.58-4.5-5.58-1.56 0-2.868.564-3.924 1.692-1.056 1.104-1.584 2.688-1.584 4.752V159h-3.024Zm28.63.432c-1.704 0-3.216-.384-4.536-1.152-1.32-.792-2.364-1.884-3.132-3.276-.744-1.392-1.116-3.036-1.116-4.932 0-1.872.372-3.504 1.116-4.896.744-1.416 1.776-2.508 3.096-3.276 1.344-.792 2.892-1.188 4.644-1.188 1.728 0 3.216.396 4.464 1.188 1.272.768 2.244 1.788 2.916 3.06.672 1.272 1.008 2.64 1.008 4.104 0 .264-.012.528-.036.792v.9h-14.22c.072 1.368.384 2.508.936 3.42.576.888 1.284 1.56 2.124 2.016.864.456 1.776.684 2.736.684 1.248 0 2.292-.288 3.132-.864.84-.576 1.452-1.356 1.836-2.34h2.988c-.48 1.656-1.404 3.036-2.772 4.14-1.344 1.08-3.072 1.62-5.184 1.62Zm0-16.164c-1.44 0-2.724.444-3.852 1.332-1.104.864-1.74 2.136-1.908 3.816h11.232c-.072-1.608-.624-2.868-1.656-3.78-1.032-.912-2.304-1.368-3.816-1.368ZM285.773 159v-25.2h3.024V159h-3.024Zm8.188 0v-17.856h2.736l.18 3.204c.576-1.128 1.404-2.016 2.484-2.664 1.08-.648 2.304-.972 3.672-.972 2.112 0 3.792.648 5.04 1.944 1.272 1.272 1.908 3.24 1.908 5.904V159h-3.024v-10.116c0-3.72-1.536-5.58-4.608-5.58-1.536 0-2.82.564-3.852 1.692-1.008 1.104-1.512 2.688-1.512 4.752V159h-3.024Zm27.657 0c-1.632 0-2.916-.396-3.852-1.188-.936-.792-1.404-2.22-1.404-4.284V143.7h-3.096v-2.556h3.096l.396-4.284h2.628v4.284h5.256v2.556h-5.256v9.828c0 1.128.228 1.896.684 2.304.456.384 1.26.576 2.412.576h1.872V159h-2.736Zm13.382.432c-2.112 0-3.792-.636-5.04-1.908-1.248-1.296-1.872-3.276-1.872-5.94v-10.44h3.024v10.116c0 3.72 1.524 5.58 4.572 5.58 1.56 0 2.844-.552 3.852-1.656 1.032-1.128 1.548-2.724 1.548-4.788v-9.252h3.024V159h-2.736l-.216-3.204c-.552 1.128-1.38 2.016-2.484 2.664-1.08.648-2.304.972-3.672.972Zm15.922-22.248c-.6 0-1.104-.192-1.512-.576-.384-.408-.576-.912-.576-1.512 0-.576.192-1.056.576-1.44.408-.384.912-.576 1.512-.576.576 0 1.068.192 1.476.576.408.384.612.864.612 1.44 0 .6-.204 1.104-.612 1.512-.408.384-.9.576-1.476.576ZM349.41 159v-17.856h3.024V159h-3.024Zm15.345 0c-1.632 0-2.916-.396-3.852-1.188-.936-.792-1.404-2.22-1.404-4.284V143.7h-3.096v-2.556h3.096l.396-4.284h2.628v4.284h5.256v2.556h-5.256v9.828c0 1.128.228 1.896.684 2.304.456.384 1.26.576 2.412.576h1.872V159h-2.736Zm8.702-21.816c-.6 0-1.104-.192-1.512-.576-.384-.408-.576-.912-.576-1.512 0-.576.192-1.056.576-1.44.408-.384.912-.576 1.512-.576.576 0 1.068.192 1.476.576.408.384.612.864.612 1.44 0 .6-.204 1.104-.612 1.512-.408.384-.9.576-1.476.576ZM371.945 159v-17.856h3.024V159h-3.024Zm13.437 0-6.768-17.856h3.168l5.364 14.94 5.4-14.94h3.096L388.874 159h-3.492Zm20.739.432c-1.704 0-3.216-.384-4.536-1.152-1.32-.792-2.364-1.884-3.132-3.276-.744-1.392-1.116-3.036-1.116-4.932 0-1.872.372-3.504 1.116-4.896.744-1.416 1.776-2.508 3.096-3.276 1.344-.792 2.892-1.188 4.644-1.188 1.728 0 3.216.396 4.464 1.188 1.272.768 2.244 1.788 2.916 3.06.672 1.272 1.008 2.64 1.008 4.104 0 .264-.012.528-.036.792v.9h-14.22c.072 1.368.384 2.508.936 3.42.576.888 1.284 1.56 2.124 2.016.864.456 1.776.684 2.736.684 1.248 0 2.292-.288 3.132-.864.84-.576 1.452-1.356 1.836-2.34h2.988c-.48 1.656-1.404 3.036-2.772 4.14-1.344 1.08-3.072 1.62-5.184 1.62Zm0-16.164c-1.44 0-2.724.444-3.852 1.332-1.104.864-1.74 2.136-1.908 3.816h11.232c-.072-1.608-.624-2.868-1.656-3.78-1.032-.912-2.304-1.368-3.816-1.368ZM435.893 159l-9.468-25.2h3.276l7.956 21.996 8.028-21.996h3.204l-9.468 25.2h-3.528Zm22.365.432c-2.112 0-3.792-.636-5.04-1.908-1.248-1.296-1.872-3.276-1.872-5.94v-10.44h3.024v10.116c0 3.72 1.524 5.58 4.572 5.58 1.56 0 2.844-.552 3.852-1.656 1.032-1.128 1.548-2.724 1.548-4.788v-9.252h3.024V159h-2.736l-.216-3.204c-.552 1.128-1.38 2.016-2.484 2.664-1.08.648-2.304.972-3.672.972Zm22.113 0c-1.704 0-3.216-.384-4.536-1.152-1.32-.792-2.364-1.884-3.132-3.276-.744-1.392-1.116-3.036-1.116-4.932 0-1.872.372-3.504 1.116-4.896.744-1.416 1.776-2.508 3.096-3.276 1.344-.792 2.892-1.188 4.644-1.188 1.728 0 3.216.396 4.464 1.188 1.272.768 2.244 1.788 2.916 3.06.672 1.272 1.008 2.64 1.008 4.104 0 .264-.012.528-.036.792v.9h-14.22c.072 1.368.384 2.508.936 3.42.576.888 1.284 1.56 2.124 2.016.864.456 1.776.684 2.736.684 1.248 0 2.292-.288 3.132-.864.84-.576 1.452-1.356 1.836-2.34h2.988c-.48 1.656-1.404 3.036-2.772 4.14-1.344 1.08-3.072 1.62-5.184 1.62Zm0-16.164c-1.44 0-2.724.444-3.852 1.332-1.104.864-1.74 2.136-1.908 3.816h11.232c-.072-1.608-.624-2.868-1.656-3.78-1.032-.912-2.304-1.368-3.816-1.368ZM502.547 159v-25.2h15.336v2.484h-12.312v8.856h10.476v2.448h-10.476V159h-3.024Zm19.05 0v-17.856h2.736l.252 3.42c.552-1.176 1.392-2.112 2.52-2.808 1.128-.696 2.52-1.044 4.176-1.044v3.168h-.828c-1.056 0-2.028.192-2.916.576-.888.36-1.596.984-2.124 1.872-.528.888-.792 2.112-.792 3.672v9h-3.024Zm19.018.432c-1.488 0-2.724-.252-3.708-.756s-1.716-1.176-2.196-2.016c-.48-.84-.72-1.752-.72-2.736 0-1.824.696-3.228 2.088-4.212 1.392-.984 3.288-1.476 5.688-1.476h4.824v-.216c0-1.56-.408-2.736-1.224-3.528-.816-.816-1.908-1.224-3.276-1.224-1.176 0-2.196.3-3.06.9-.84.576-1.368 1.428-1.584 2.556h-3.096c.12-1.296.552-2.388 1.296-3.276.768-.888 1.716-1.56 2.844-2.016 1.128-.48 2.328-.72 3.6-.72 2.496 0 4.368.672 5.616 2.016 1.272 1.32 1.908 3.084 1.908 5.292V159h-2.7l-.18-3.204c-.504 1.008-1.248 1.872-2.232 2.592-.96.696-2.256 1.044-3.888 1.044Zm.468-2.556c1.152 0 2.136-.3 2.952-.9.84-.6 1.476-1.38 1.908-2.34.432-.96.648-1.968.648-3.024v-.036h-4.572c-1.776 0-3.036.312-3.78.936-.72.6-1.08 1.356-1.08 2.268 0 .936.336 1.692 1.008 2.268.696.552 1.668.828 2.916.828ZM554.152 159v-17.856h2.736l.216 2.592c.576-.96 1.344-1.704 2.304-2.232.96-.528 2.04-.792 3.24-.792 1.416 0 2.628.288 3.636.864 1.032.576 1.824 1.452 2.376 2.628.624-1.08 1.476-1.932 2.556-2.556 1.104-.624 2.292-.936 3.564-.936 2.136 0 3.84.648 5.112 1.944 1.272 1.272 1.908 3.24 1.908 5.904V159h-2.988v-10.116c0-1.848-.372-3.24-1.116-4.176-.744-.936-1.812-1.404-3.204-1.404-1.44 0-2.64.564-3.6 1.692-.936 1.104-1.404 2.688-1.404 4.752V159h-3.024v-10.116c0-1.848-.372-3.24-1.116-4.176-.744-.936-1.812-1.404-3.204-1.404-1.416 0-2.604.564-3.564 1.692-.936 1.104-1.404 2.688-1.404 4.752V159h-3.024Zm40.231.432c-1.704 0-3.216-.384-4.536-1.152-1.32-.792-2.364-1.884-3.132-3.276-.744-1.392-1.116-3.036-1.116-4.932 0-1.872.372-3.504 1.116-4.896.744-1.416 1.776-2.508 3.096-3.276 1.344-.792 2.892-1.188 4.644-1.188 1.728 0 3.216.396 4.464 1.188 1.272.768 2.244 1.788 2.916 3.06.672 1.272 1.008 2.64 1.008 4.104 0 .264-.012.528-.036.792v.9h-14.22c.072 1.368.384 2.508.936 3.42.576.888 1.284 1.56 2.124 2.016.864.456 1.776.684 2.736.684 1.248 0 2.292-.288 3.132-.864.84-.576 1.452-1.356 1.836-2.34h2.988c-.48 1.656-1.404 3.036-2.772 4.14-1.344 1.08-3.072 1.62-5.184 1.62Zm0-16.164c-1.44 0-2.724.444-3.852 1.332-1.104.864-1.74 2.136-1.908 3.816h11.232c-.072-1.608-.624-2.868-1.656-3.78-1.032-.912-2.304-1.368-3.816-1.368ZM609.748 159l-5.22-17.856h3.024l3.78 14.004 4.176-14.004h3.42l4.212 14.004 3.744-14.004h3.06L624.724 159h-3.096l-4.392-14.724L612.844 159h-3.096Zm31.009.432c-1.68 0-3.192-.384-4.536-1.152-1.344-.768-2.412-1.848-3.204-3.24-.768-1.416-1.152-3.072-1.152-4.968s.396-3.54 1.188-4.932c.792-1.416 1.86-2.508 3.204-3.276 1.368-.768 2.892-1.152 4.572-1.152 1.68 0 3.192.384 4.536 1.152 1.344.768 2.4 1.86 3.168 3.276.792 1.392 1.188 3.036 1.188 4.932 0 1.896-.396 3.552-1.188 4.968-.792 1.392-1.872 2.472-3.24 3.24-1.344.768-2.856 1.152-4.536 1.152Zm0-2.592c1.032 0 1.992-.252 2.88-.756.888-.504 1.608-1.26 2.16-2.268.552-1.008.828-2.256.828-3.744 0-1.488-.276-2.736-.828-3.744-.528-1.008-1.236-1.764-2.124-2.268-.888-.504-1.836-.756-2.844-.756-1.032 0-1.992.252-2.88.756-.888.504-1.608 1.26-2.16 2.268-.552 1.008-.828 2.256-.828 3.744 0 1.488.276 2.736.828 3.744.552 1.008 1.26 1.764 2.124 2.268.888.504 1.836.756 2.844.756Zm13.168 2.16v-17.856h2.736l.252 3.42c.552-1.176 1.392-2.112 2.52-2.808 1.128-.696 2.52-1.044 4.176-1.044v3.168h-.828c-1.056 0-2.028.192-2.916.576-.888.36-1.596.984-2.124 1.872-.528.888-.792 2.112-.792 3.672v9h-3.024Zm13.079 0v-25.92h3.024v15.588l7.308-7.524h3.708l-7.92 8.064 8.928 9.792H678.2l-8.172-9.252V159h-3.024ZM442.48 108c.518 0 .96-.43.96-.96V84.72s1.2 2.16 3.36 5.76l9.36 16.08c.428.898 1.378 1.44 2.16 1.44h6.48V72h-6.48c-.432 0-.96.3586-.96.96v22.56l-4.32-7.68-8.64-14.64c-.42-.7461-1.325-1.2-2.16-1.2H436v36h6.48ZM526.24 82.08h3.12c.795 0 1.44-.6447 1.44-1.44V74.4h6.72v7.68H544v5.76h-6.48v10.32c0 2.52 1.214 3.6 3.36 3.6H544V108h-4.08c-5.532 0-9.12-3.583-9.12-9.6V87.84h-4.56v-5.76ZM493.84 82.08v14.88c0 3.361-1.262 6.194-3.12 8.16-1.858 1.966-4.424 2.88-7.92 2.88-3.496 0-6.302-.914-8.16-2.88-1.827-1.966-3.12-4.799-3.12-8.16V82.08h3.84c.819 0 1.625.1493 2.16.72.535.539.72.8556.72 1.68v12.48c0 1.9341.11 3.129.96 4.08.85.919 1.899 1.2 3.6 1.2 1.732 0 2.51-.281 3.36-1.2.85-.951.96-2.1459.96-4.08V84.48c0-.8244.185-1.3493.72-1.92.47-.5014.967-.4896 1.68-.48.099.0013.381 0 .48 0h3.84ZM514.24 94.56l8.16-12.48h-6.24c-.786 0-1.485.2822-1.92.96l-3.84 5.76-3.6-5.52c-.435-.6778-1.374-1.2-2.16-1.2h-6l8.16 12.24-8.88 13.68h6.24c.78 0 1.484-.771 1.92-1.44l4.32-6.48 4.56 6.72c.436.669 1.14 1.2 1.92 1.2h6.24l-8.88-13.44Z"/><path fill="#00DC82" d="M392.32 108h26.64c.85 0 1.664-.299 2.4-.72s1.495-.95 1.92-1.68c.425-.73.72-1.558.72-2.4 0-.843-.294-1.67-.72-2.4l-18-30.96c-.425-.7296-.944-1.2587-1.68-1.68s-1.79-.72-2.64-.72c-.85 0-1.664.2987-2.4.72-.736.4213-1.255.9504-1.68 1.68l-4.56 7.92-9.12-15.3606c-.425-.7295-.944-1.4982-1.68-1.9194s-1.55-.48-2.4-.48c-.85 0-1.664.0588-2.4.48-.736.4212-1.495 1.1899-1.92 1.9194L352.48 100.8c-.426.73-.48 1.557-.48 2.4 0 .842.055 1.67.48 2.4s1.184 1.259 1.92 1.68c.736.421 1.55.72 2.4.72h16.8c6.657 0 11.502-2.986 14.88-8.64l8.16-14.16 4.32-7.44 13.2 22.56h-17.52l-4.32 7.68Zm-18.96-7.68H361.6l17.52-30.24L388 85.2l-5.882 10.254c-2.243 3.6684-4.801 4.866-8.758 4.866Z"/></g><defs><radialGradient id="c" cx="0" cy="0" r="1" gradientTransform="matrix(0 272 -578 0 450 -98)" gradientUnits="userSpaceOnUse"><stop stop-color="#00DC82"/><stop offset="1" stop-color="#00DC82" stop-opacity="0"/></radialGradient><clipPath id="a"><path fill="#fff" d="M0 0h896v230H0z"/></clipPath><filter id="b" width="1878" height="1266" x="-489" y="-731" color-interpolation-filters="sRGB" filterUnits="userSpaceOnUse"><feFlood flood-opacity="0" result="BackgroundImageFix"/><feBlend in="SourceGraphic" in2="BackgroundImageFix" result="shape"/><feGaussianBlur result="effect1_foregroundBlur_3477_75" stdDeviation="180.5"/></filter></defs></svg>
