<svg width="896" height="230" viewBox="0 0 896 230" fill="none" xmlns="http://www.w3.org/2000/svg">
<g clip-path="url(#clip0_3477_75)">
<rect width="896" height="230" fill="#020420"/>
<g filter="url(#filter0_f_3477_75)">
<ellipse cx="635" cy="-65" rx="578" ry="272" fill="url(#paint0_radial_3477_75)"/>
</g>
<path d="M68.9078 159V136.284H61.3838V133.8H79.4558V136.284H71.9318V159H68.9078ZM82.9684 159V133.08H85.9924V144.204C86.5924 143.1 87.4444 142.248 88.5484 141.648C89.6524 141.024 90.8524 140.712 92.1484 140.712C94.2124 140.712 95.8684 141.36 97.1164 142.656C98.3644 143.928 98.9884 145.896 98.9884 148.56V159H96.0004V148.884C96.0004 145.164 94.5004 143.304 91.5004 143.304C89.9404 143.304 88.6324 143.868 87.5764 144.996C86.5204 146.1 85.9924 147.684 85.9924 149.748V159H82.9684ZM111.598 159.432C109.894 159.432 108.382 159.048 107.062 158.28C105.742 157.488 104.698 156.396 103.93 155.004C103.186 153.612 102.814 151.968 102.814 150.072C102.814 148.2 103.186 146.568 103.93 145.176C104.674 143.76 105.706 142.668 107.026 141.9C108.37 141.108 109.918 140.712 111.67 140.712C113.398 140.712 114.886 141.108 116.134 141.9C117.406 142.668 118.378 143.688 119.05 144.96C119.722 146.232 120.058 147.6 120.058 149.064C120.058 149.328 120.046 149.592 120.022 149.856C120.022 150.12 120.022 150.42 120.022 150.756H105.802C105.874 152.124 106.186 153.264 106.738 154.176C107.314 155.064 108.022 155.736 108.862 156.192C109.726 156.648 110.638 156.876 111.598 156.876C112.846 156.876 113.89 156.588 114.73 156.012C115.57 155.436 116.182 154.656 116.566 153.672H119.554C119.074 155.328 118.15 156.708 116.782 157.812C115.438 158.892 113.71 159.432 111.598 159.432ZM111.598 143.268C110.158 143.268 108.874 143.712 107.746 144.6C106.642 145.464 106.006 146.736 105.838 148.416H117.07C116.998 146.808 116.446 145.548 115.414 144.636C114.382 143.724 113.11 143.268 111.598 143.268ZM133.773 159V133.8H136.797V159H133.773ZM141.961 159V141.144H144.697L144.877 144.348C145.453 143.22 146.281 142.332 147.361 141.684C148.441 141.036 149.665 140.712 151.033 140.712C153.145 140.712 154.825 141.36 156.073 142.656C157.345 143.928 157.981 145.896 157.981 148.56V159H154.957V148.884C154.957 145.164 153.421 143.304 150.349 143.304C148.813 143.304 147.529 143.868 146.497 144.996C145.489 146.1 144.985 147.684 144.985 149.748V159H141.961ZM169.618 159C167.986 159 166.702 158.604 165.766 157.812C164.83 157.02 164.362 155.592 164.362 153.528V143.7H161.266V141.144H164.362L164.758 136.86H167.386V141.144H172.642V143.7H167.386V153.528C167.386 154.656 167.614 155.424 168.07 155.832C168.526 156.216 169.33 156.408 170.482 156.408H172.354V159H169.618ZM183 159.432C180.888 159.432 179.208 158.796 177.96 157.524C176.712 156.228 176.088 154.248 176.088 151.584V141.144H179.112V151.26C179.112 154.98 180.636 156.84 183.684 156.84C185.244 156.84 186.528 156.288 187.536 155.184C188.568 154.056 189.084 152.46 189.084 150.396V141.144H192.108V159H189.372L189.156 155.796C188.604 156.924 187.776 157.812 186.672 158.46C185.592 159.108 184.368 159.432 183 159.432ZM198.922 137.184C198.322 137.184 197.818 136.992 197.41 136.608C197.026 136.2 196.834 135.696 196.834 135.096C196.834 134.52 197.026 134.04 197.41 133.656C197.818 133.272 198.322 133.08 198.922 133.08C199.498 133.08 199.99 133.272 200.398 133.656C200.806 134.04 201.01 134.52 201.01 135.096C201.01 135.696 200.806 136.2 200.398 136.608C199.99 136.992 199.498 137.184 198.922 137.184ZM197.41 159V141.144H200.434V159H197.41ZM212.755 159C211.123 159 209.839 158.604 208.903 157.812C207.967 157.02 207.499 155.592 207.499 153.528V143.7H204.403V141.144H207.499L207.895 136.86H210.523V141.144H215.779V143.7H210.523V153.528C210.523 154.656 210.751 155.424 211.207 155.832C211.663 156.216 212.467 156.408 213.619 156.408H215.491V159H212.755ZM221.457 137.184C220.857 137.184 220.353 136.992 219.945 136.608C219.561 136.2 219.369 135.696 219.369 135.096C219.369 134.52 219.561 134.04 219.945 133.656C220.353 133.272 220.857 133.08 221.457 133.08C222.033 133.08 222.525 133.272 222.933 133.656C223.341 134.04 223.545 134.52 223.545 135.096C223.545 135.696 223.341 136.2 222.933 136.608C222.525 136.992 222.033 137.184 221.457 137.184ZM219.945 159V141.144H222.969V159H219.945ZM233.382 159L226.614 141.144H229.782L235.146 156.084L240.546 141.144H243.642L236.874 159H233.382ZM254.121 159.432C252.417 159.432 250.905 159.048 249.585 158.28C248.265 157.488 247.221 156.396 246.453 155.004C245.709 153.612 245.337 151.968 245.337 150.072C245.337 148.2 245.709 146.568 246.453 145.176C247.197 143.76 248.229 142.668 249.549 141.9C250.893 141.108 252.441 140.712 254.193 140.712C255.921 140.712 257.409 141.108 258.657 141.9C259.929 142.668 260.901 143.688 261.573 144.96C262.245 146.232 262.581 147.6 262.581 149.064C262.581 149.328 262.569 149.592 262.545 149.856C262.545 150.12 262.545 150.42 262.545 150.756H248.325C248.397 152.124 248.709 153.264 249.261 154.176C249.837 155.064 250.545 155.736 251.385 156.192C252.249 156.648 253.161 156.876 254.121 156.876C255.369 156.876 256.413 156.588 257.253 156.012C258.093 155.436 258.705 154.656 259.089 153.672H262.077C261.597 155.328 260.673 156.708 259.305 157.812C257.961 158.892 256.233 159.432 254.121 159.432ZM254.121 143.268C252.681 143.268 251.397 143.712 250.269 144.6C249.165 145.464 248.529 146.736 248.361 148.416H259.593C259.521 146.808 258.969 145.548 257.937 144.636C256.905 143.724 255.633 143.268 254.121 143.268ZM283.893 159L274.425 133.8H277.701L285.657 155.796L293.685 133.8H296.889L287.421 159H283.893ZM306.258 159.432C304.146 159.432 302.466 158.796 301.218 157.524C299.97 156.228 299.346 154.248 299.346 151.584V141.144H302.37V151.26C302.37 154.98 303.894 156.84 306.942 156.84C308.502 156.84 309.786 156.288 310.794 155.184C311.826 154.056 312.342 152.46 312.342 150.396V141.144H315.366V159H312.63L312.414 155.796C311.862 156.924 311.034 157.812 309.93 158.46C308.85 159.108 307.626 159.432 306.258 159.432ZM328.371 159.432C326.667 159.432 325.155 159.048 323.835 158.28C322.515 157.488 321.471 156.396 320.703 155.004C319.959 153.612 319.587 151.968 319.587 150.072C319.587 148.2 319.959 146.568 320.703 145.176C321.447 143.76 322.479 142.668 323.799 141.9C325.143 141.108 326.691 140.712 328.443 140.712C330.171 140.712 331.659 141.108 332.907 141.9C334.179 142.668 335.151 143.688 335.823 144.96C336.495 146.232 336.831 147.6 336.831 149.064C336.831 149.328 336.819 149.592 336.795 149.856C336.795 150.12 336.795 150.42 336.795 150.756H322.575C322.647 152.124 322.959 153.264 323.511 154.176C324.087 155.064 324.795 155.736 325.635 156.192C326.499 156.648 327.411 156.876 328.371 156.876C329.619 156.876 330.663 156.588 331.503 156.012C332.343 155.436 332.955 154.656 333.339 153.672H336.327C335.847 155.328 334.923 156.708 333.555 157.812C332.211 158.892 330.483 159.432 328.371 159.432ZM328.371 143.268C326.931 143.268 325.647 143.712 324.519 144.6C323.415 145.464 322.779 146.736 322.611 148.416H333.843C333.771 146.808 333.219 145.548 332.187 144.636C331.155 143.724 329.883 143.268 328.371 143.268ZM350.547 159V133.8H365.883V136.284H353.571V145.14H364.047V147.588H353.571V159H350.547ZM369.597 159V141.144H372.333L372.585 144.564C373.137 143.388 373.977 142.452 375.105 141.756C376.233 141.06 377.625 140.712 379.281 140.712V143.88H378.453C377.397 143.88 376.425 144.072 375.537 144.456C374.649 144.816 373.941 145.44 373.413 146.328C372.885 147.216 372.621 148.44 372.621 150V159H369.597ZM388.615 159.432C387.127 159.432 385.891 159.18 384.907 158.676C383.923 158.172 383.191 157.5 382.711 156.66C382.231 155.82 381.991 154.908 381.991 153.924C381.991 152.1 382.687 150.696 384.079 149.712C385.471 148.728 387.367 148.236 389.767 148.236H394.591V148.02C394.591 146.46 394.183 145.284 393.367 144.492C392.551 143.676 391.459 143.268 390.091 143.268C388.915 143.268 387.895 143.568 387.031 144.168C386.191 144.744 385.663 145.596 385.447 146.724H382.351C382.471 145.428 382.903 144.336 383.647 143.448C384.415 142.56 385.363 141.888 386.491 141.432C387.619 140.952 388.819 140.712 390.091 140.712C392.587 140.712 394.459 141.384 395.707 142.728C396.979 144.048 397.615 145.812 397.615 148.02V159H394.915L394.735 155.796C394.231 156.804 393.487 157.668 392.503 158.388C391.543 159.084 390.247 159.432 388.615 159.432ZM389.083 156.876C390.235 156.876 391.219 156.576 392.035 155.976C392.875 155.376 393.511 154.596 393.943 153.636C394.375 152.676 394.591 151.668 394.591 150.612V150.576H390.019C388.243 150.576 386.983 150.888 386.239 151.512C385.519 152.112 385.159 152.868 385.159 153.78C385.159 154.716 385.495 155.472 386.167 156.048C386.863 156.6 387.835 156.876 389.083 156.876ZM402.152 159V141.144H404.888L405.104 143.736C405.68 142.776 406.448 142.032 407.408 141.504C408.368 140.976 409.448 140.712 410.648 140.712C412.064 140.712 413.276 141 414.284 141.576C415.316 142.152 416.108 143.028 416.66 144.204C417.284 143.124 418.136 142.272 419.216 141.648C420.32 141.024 421.508 140.712 422.78 140.712C424.916 140.712 426.62 141.36 427.892 142.656C429.164 143.928 429.8 145.896 429.8 148.56V159H426.812V148.884C426.812 147.036 426.44 145.644 425.696 144.708C424.952 143.772 423.884 143.304 422.492 143.304C421.052 143.304 419.852 143.868 418.892 144.996C417.956 146.1 417.488 147.684 417.488 149.748V159H414.464V148.884C414.464 147.036 414.092 145.644 413.348 144.708C412.604 143.772 411.536 143.304 410.144 143.304C408.728 143.304 407.54 143.868 406.58 144.996C405.644 146.1 405.176 147.684 405.176 149.748V159H402.152ZM442.383 159.432C440.679 159.432 439.167 159.048 437.847 158.28C436.527 157.488 435.483 156.396 434.715 155.004C433.971 153.612 433.599 151.968 433.599 150.072C433.599 148.2 433.971 146.568 434.715 145.176C435.459 143.76 436.491 142.668 437.811 141.9C439.155 141.108 440.703 140.712 442.455 140.712C444.183 140.712 445.671 141.108 446.919 141.9C448.191 142.668 449.163 143.688 449.835 144.96C450.507 146.232 450.843 147.6 450.843 149.064C450.843 149.328 450.831 149.592 450.807 149.856C450.807 150.12 450.807 150.42 450.807 150.756H436.587C436.659 152.124 436.971 153.264 437.523 154.176C438.099 155.064 438.807 155.736 439.647 156.192C440.511 156.648 441.423 156.876 442.383 156.876C443.631 156.876 444.675 156.588 445.515 156.012C446.355 155.436 446.967 154.656 447.351 153.672H450.339C449.859 155.328 448.935 156.708 447.567 157.812C446.223 158.892 444.495 159.432 442.383 159.432ZM442.383 143.268C440.943 143.268 439.659 143.712 438.531 144.6C437.427 145.464 436.791 146.736 436.623 148.416H447.855C447.783 146.808 447.231 145.548 446.199 144.636C445.167 143.724 443.895 143.268 442.383 143.268ZM457.748 159L452.528 141.144H455.552L459.332 155.148L463.508 141.144H466.928L471.14 155.148L474.884 141.144H477.944L472.724 159H469.628L465.236 144.276L460.844 159H457.748ZM488.757 159.432C487.077 159.432 485.565 159.048 484.221 158.28C482.877 157.512 481.809 156.432 481.017 155.04C480.249 153.624 479.865 151.968 479.865 150.072C479.865 148.176 480.261 146.532 481.053 145.14C481.845 143.724 482.913 142.632 484.257 141.864C485.625 141.096 487.149 140.712 488.829 140.712C490.509 140.712 492.021 141.096 493.365 141.864C494.709 142.632 495.765 143.724 496.533 145.14C497.325 146.532 497.721 148.176 497.721 150.072C497.721 151.968 497.325 153.624 496.533 155.04C495.741 156.432 494.661 157.512 493.293 158.28C491.949 159.048 490.437 159.432 488.757 159.432ZM488.757 156.84C489.789 156.84 490.749 156.588 491.637 156.084C492.525 155.58 493.245 154.824 493.797 153.816C494.349 152.808 494.625 151.56 494.625 150.072C494.625 148.584 494.349 147.336 493.797 146.328C493.269 145.32 492.561 144.564 491.673 144.06C490.785 143.556 489.837 143.304 488.829 143.304C487.797 143.304 486.837 143.556 485.949 144.06C485.061 144.564 484.341 145.32 483.789 146.328C483.237 147.336 482.961 148.584 482.961 150.072C482.961 151.56 483.237 152.808 483.789 153.816C484.341 154.824 485.049 155.58 485.913 156.084C486.801 156.588 487.749 156.84 488.757 156.84ZM501.925 159V141.144H504.661L504.913 144.564C505.465 143.388 506.305 142.452 507.433 141.756C508.561 141.06 509.953 140.712 511.609 140.712V143.88H510.781C509.725 143.88 508.753 144.072 507.865 144.456C506.977 144.816 506.269 145.44 505.741 146.328C505.213 147.216 504.949 148.44 504.949 150V159H501.925ZM515.004 159V133.08H518.028V148.668L525.336 141.144H529.044L521.124 149.208L530.052 159H526.2L518.028 149.748V159H515.004Z" fill="white"/>
<path d="M150.48 108C150.998 108 151.44 107.57 151.44 107.04V84.72C151.44 84.72 152.64 86.88 154.8 90.48L164.16 106.56C164.588 107.458 165.538 108 166.32 108H172.8V72H166.32C165.888 72 165.36 72.3586 165.36 72.96V95.52L161.04 87.84L152.4 73.2C151.98 72.4539 151.075 72 150.24 72H144V108H150.48Z" fill="white"/>
<path d="M234.24 82.08H237.36C238.155 82.08 238.8 81.4353 238.8 80.64V74.4H245.52V82.08H252V87.84H245.52V98.16C245.52 100.68 246.734 101.76 248.88 101.76H252V108H247.92C242.388 108 238.8 104.417 238.8 98.4V87.84H234.24V82.08Z" fill="white"/>
<path d="M201.84 82.08V96.96C201.84 100.321 200.578 103.154 198.72 105.12C196.862 107.086 194.296 108 190.8 108C187.304 108 184.498 107.086 182.64 105.12C180.813 103.154 179.52 100.321 179.52 96.96V82.08H183.36C184.179 82.08 184.985 82.2293 185.52 82.8C186.055 83.339 186.24 83.6556 186.24 84.48V96.96C186.24 98.8941 186.35 100.089 187.2 101.04C188.05 101.959 189.099 102.24 190.8 102.24C192.532 102.24 193.31 101.959 194.16 101.04C195.01 100.089 195.12 98.8941 195.12 96.96V84.48C195.12 83.6556 195.305 83.1307 195.84 82.56C196.31 82.0586 196.807 82.0704 197.52 82.08C197.619 82.0813 197.901 82.08 198 82.08H201.84Z" fill="white"/>
<path d="M222.24 94.56L230.4 82.08H224.16C223.374 82.08 222.675 82.3622 222.24 83.04L218.4 88.8L214.8 83.28C214.365 82.6022 213.426 82.08 212.64 82.08H206.64L214.8 94.32L205.92 108H212.16C212.94 108 213.644 107.229 214.08 106.56L218.4 100.08L222.96 106.8C223.396 107.469 224.1 108 224.88 108H231.12L222.24 94.56Z" fill="white"/>
<path d="M100.32 108H126.96C127.81 108 128.624 107.701 129.36 107.28C130.096 106.859 130.855 106.33 131.28 105.6C131.705 104.87 132 104.042 132 103.2C132 102.357 131.706 101.53 131.28 100.8L113.28 69.84C112.855 69.1104 112.336 68.5813 111.6 68.16C110.864 67.7387 109.81 67.44 108.96 67.44C108.11 67.44 107.296 67.7387 106.56 68.16C105.824 68.5813 105.305 69.1104 104.88 69.84L100.32 77.76L91.2 62.3994C90.7748 61.6699 90.2563 60.9012 89.52 60.48C88.7837 60.0588 87.9701 60 87.12 60C86.2699 60 85.4563 60.0588 84.72 60.48C83.9837 60.9012 83.2252 61.6699 82.8 62.3994L60.48 100.8C60.0545 101.53 60.0004 102.357 60 103.2C59.9996 104.042 60.0551 104.87 60.48 105.6C60.9049 106.33 61.6638 106.859 62.4 107.28C63.1362 107.701 63.9499 108 64.8 108H81.6C88.2568 108 93.102 105.014 96.48 99.36L104.64 85.2L108.96 77.76L122.16 100.32H104.64L100.32 108ZM81.36 100.32H69.6L87.12 70.08L96 85.2L90.1179 95.454C87.8746 99.1224 85.317 100.32 81.36 100.32Z" fill="#00DC82"/>
</g>
<defs>
<filter id="filter0_f_3477_75" x="-304" y="-698" width="1878" height="1266" filterUnits="userSpaceOnUse" color-interpolation-filters="sRGB">
<feFlood flood-opacity="0" result="BackgroundImageFix"/>
<feBlend mode="normal" in="SourceGraphic" in2="BackgroundImageFix" result="shape"/>
<feGaussianBlur stdDeviation="180.5" result="effect1_foregroundBlur_3477_75"/>
</filter>
<radialGradient id="paint0_radial_3477_75" cx="0" cy="0" r="1" gradientUnits="userSpaceOnUse" gradientTransform="translate(635 -65) rotate(90) scale(272 578)">
<stop stop-color="#00DC82"/>
<stop offset="1" stop-color="#00DC82" stop-opacity="0"/>
</radialGradient>
<clipPath id="clip0_3477_75">
<rect width="896" height="230" fill="white"/>
</clipPath>
</defs>
</svg>
