<svg xmlns="http://www.w3.org/2000/svg" width="896" height="230" fill="none" viewBox="0 0 896 230"><g clip-path="url(#a)"><path fill="#020420" d="M0 0h896v230H0z"/><g clip-path="url(#b)"><path stroke="url(#c)" d="m909.245 16.5386-6.803-.5581c-2.026-.1661-4.062.145-5.946.9084l-2.952 1.1963c-2.283.9252-4.781 1.1828-7.205.7428l-2.894-.5255c-.857-.1554-1.695-.3965-2.503-.7195l-11.033-4.4098c-3.008-1.2024-6.408-.9078-9.164.7941l-4.476 2.7636c-1.458.9001-3.345.6678-4.542-.5589-1.383-1.4187-3.644-1.4782-5.1-.1344l-4.172 3.8502c-3.012 2.7803-7.469 3.3129-11.051 1.3205l-1.447-.8042c-3.633-2.0207-8.063-1.9762-11.655.1169l-6.218 3.6234-9.189 4.128c-2.259 1.0146-4.181 2.653-5.54 4.7226l-2.865 4.3626c-1.213 1.8484-2.879 3.3566-4.838 4.382l-7.92 4.1455c-1.599.8368-3.006 1.9972-4.132 3.4073l-8.465 10.6045c-.431.54-.905 1.0448-1.416 1.5096l-11.88 10.7973c-.519.4724-1.079.8995-1.671 1.2766l-6.085 3.8719c-1.742 1.1087-4.036.7521-5.36-.8331-.96-1.1506-2.471-1.6868-3.942-1.3991l-3.237.6329c-2.351.4597-4.789.0318-6.843-1.2011l-.725-.4347c-2.52-1.5128-5.511-2.0378-8.396-1.4737l-.206.0402c-2.953.5774-6.015.04-8.594-1.5083-2.468-1.4816-5.382-2.0397-8.224-1.5748l-.908.1486c-1.308.214-2.641.2268-3.953.0378l-10.356-1.4918c-4.934-.7107-9.84 1.4622-12.628 5.5934l-5.246 7.7704c-1.469 2.1763-4.086 3.2786-6.67 2.8096-2.262-.4107-4.576.3819-6.111 2.0938l-.284.3169c-2.772 3.0905-7.67 2.8987-10.192-.3988l-.27-.3531c-1.218-1.5933-3.171-2.4471-5.168-2.2595-1.735.163-3.452-.4599-4.678-1.6976l-.338-.3402c-1.473-1.4862-3.545-2.2156-5.625-1.9793l-5.885.6689c-3.781.4297-7.183 2.4941-9.311 5.6488l-.842 1.2489c-.202.2999-.381.615-.535.9424-1.434 3.0518-4.829 4.6606-8.099 3.8388l-43.376-10.8997c-4.849-1.2185-9.967.4519-13.164 4.2964l-14.169 17.0407c-1.061 1.276-1.868 2.744-2.378 4.323l-1.585 4.92c-1.194 3.705-3.986 6.68-7.607 8.107l-20.359 8.022c-.806.318-1.579.716-2.307 1.188l-16.42 10.647-17.97 11.763c-1.906 1.247-3.45 2.973-4.479 5.005l-4.503 8.893c-.667 1.318-1.554 2.513-2.623 3.532l-1.953 1.865c-1.968 1.877-4.474 3.091-7.166 3.469l-3.171.446c-1.323.185-2.583.685-3.675 1.456-3.87 2.734-9.234 1.724-11.846-2.229l-1.195-1.809c-2.53-3.83-7.256-5.571-11.666-4.299l-15.97 4.607c-.962.278-1.954.443-2.955.493l-19.182.958c-1.017.051-2.024.221-3.002.507l-17.105 5.004c-1.251.366-2.55.542-3.853.521l-10.129-.158c-2.66-.041-5.243-.897-7.401-2.453l-13.438-9.69c-2.158-1.556-4.741-2.412-7.401-2.454l-5.16-.08-6.217-.097c-1.993-.031-3.967.396-5.768 1.25l-8.126 3.85c-1.457.69-3.029 1.103-4.636 1.218l-7.569.543c-4.186.301-8.152 2.714-12.022 4.339-3.014 1.266-7.348 2.248-13.263 2.156-6.961-.109-14.765 3.574-21.161 7.727-4.143 2.689-17.9 8.157-22.838 8.08-.587-.009-2.392.064-2.954.23-22.349 6.607-28.67-5.871-35.036-9.226-1.949-1.027-4.194-.169-6.053 1.012l-15.034 9.551c-3.744 2.379-8.442 2.684-12.463.81l-7.755-3.613-16.199-6.842c-3.931-1.661-8.427-1.286-12.0288 1.003l-26.4404 16.797c-1.0077.64-2.0987 1.138-3.2424 1.481l-32.6339 9.77c-1.2748.382-2.6007.566-3.9313.545l-16.2859-.254c-5.4059-.084-10.19523-3.506-12.02776-8.592l-2.68772-7.46c-1.8325297-5.087-6.33769-7.091-11.25588-4.846-8.00184 3.654-19.83014 8.756-26.24784 8.656-9.9859-.156-40.6727-9.167-54.7678-13.654"/><path stroke="url(#d)" stroke-opacity=".5" d="m921.529 11.6746-9.536-5.68761c-1.682-1.00343-3.569-1.61372-5.521-1.78525l-3.974-.3494c-1.954-.17169-3.92.10063-5.753.79657l-3.55 1.34771c-2.053.77945-4.27 1.02617-6.444.71714l-3.05-.43357c-1.09-.15496-2.156-.44779-3.172-.87146L869.525.821792c-2.965-1.235971-6.343-.9696-9.078.715728l-4.455 2.74576c-1.448.89209-3.323.64174-4.486-.59879-1.354-1.44438-3.624-1.51412-5.064-.15559l-4.194 3.9571c-3.057 2.8837-7.665 3.3665-11.253 1.17898l-1.118-.68185c-3.466-2.11317-7.812-2.15382-11.318-.10585l-6.422 3.75292-9.667 4.5377c-2.118.9944-3.929 2.542-5.24 4.4796l-3.13 4.6228c-1.148 1.6949-2.679 3.0948-4.47 4.086l-8.212 4.545c-1.377.7618-2.604 1.7671-3.621 2.9671l-9.626 11.3535-12.112 11.7169c-.592.5725-1.239 1.0845-1.933 1.5284l-5.809 3.719c-1.762 1.1282-4.082.8124-5.479-.7457-.949-1.059-2.364-1.5756-3.772-1.3777l-3.54.4975c-2.462.346-4.968-.1544-7.109-1.4192l-.368-.2176c-2.379-1.4057-5.165-1.9618-7.901-1.5772l-1.365.1918c-2.776.3901-5.603-.1274-8.061-1.4753l-.23-.1264c-2.458-1.348-5.285-1.8655-8.061-1.4754l-.786.1105c-1.206.1695-2.43.1687-3.636-.0025l-10.621-1.5072c-4.947-.7022-9.86 1.494-12.636 5.6494l-5.164 7.7306c-1.523 2.2798-4.228 3.4723-6.939 3.059l-.219-.0334c-2.213-.3374-4.447.4608-5.945 2.1243-2.728 3.0279-7.512 2.9143-10.092-.2396l-.712-.8702c-1.217-1.4868-3.121-2.2313-5.024-1.9639-1.666.2342-3.348-.3074-4.565-1.47l-.526-.5021c-1.549-1.4798-3.69-2.1691-5.811-1.871l-6.299.8852c-3.274.4603-6.251 2.1512-8.322 4.7286l-1.141 1.4191c-.336.4176-.621.8738-.848 1.3588-1.368 2.9177-4.613 4.4559-7.738 3.6685l-43.612-10.9892c-4.856-1.2234-9.982.4505-13.18 4.3036l-14.161 17.0626c-1.06 1.2765-1.865 2.744-2.373 4.3233l-1.587 4.9383c-1.192 3.7073-3.983 6.6843-7.605 8.1133l-20.352 8.03c-.807.319-1.581.717-2.309 1.19l-16.415 10.662-17.967 11.778c-1.905 1.248-3.448 2.976-4.476 5.009l-4.503 8.913c-.666 1.319-1.552 2.514-2.619 3.535l-1.951 1.865c-1.969 1.882-4.478 3.098-7.175 3.477l-3.162.444c-1.324.186-2.584.686-3.676 1.459-3.867 2.736-9.232 1.727-11.84-2.228l-1.202-1.823c-2.53-3.835-7.261-5.579-11.675-4.305l-15.955 4.608c-.965.278-1.958.444-2.961.494l-19.175.954c-1.019.051-2.028.221-3.007.508l-17.097 5.007c-1.253.367-2.554.543-3.86.522l-10.12-.16c-2.663-.043-5.248-.902-7.406-2.461l-13.439-9.709c-2.159-1.559-4.744-2.418-7.407-2.46l-5.155-.082-6.21-.099c-1.997-.032-3.974.397-5.779 1.253l-8.116 3.851c-1.458.692-3.033 1.106-4.643 1.221l-7.555.541c-4.191.3-8.16 2.719-12.034 4.346-3.015 1.266-7.346 2.248-13.257 2.154-6.964-.111-14.769 3.579-21.165 7.739-4.144 2.695-17.879 8.163-22.821 8.084-.588-.009-2.399.064-2.963.231-22.339 6.609-28.664-5.883-35.029-9.249-1.951-1.032-4.2-.173-6.062 1.012l-15.017 9.555c-3.748 2.385-8.454 2.69-12.479.81l-7.747-3.618-16.191-6.853c-3.936-1.667-8.44-1.292-12.0464 1.003l-26.4233 16.813c-1.0088.641-2.1013 1.141-3.2467 1.484l-32.6232 9.777c-1.2771.383-2.6054.567-3.9384.546l-16.28-.259c-5.4063-.085-10.195-3.509-12.02577-8.596l-2.69916-7.501c-1.830779-5.088-6.33458-7.091-11.25203-4.843-8.00054 3.658-19.82654 8.765-26.24384 8.664"/><path stroke="url(#e)" stroke-opacity=".25" d="m922.529-3.32539-9.532-5.6874c-1.683-1.00391-3.57-1.61451-5.522-1.78621l-3.97-.3493c-1.954-.1719-3.921.1005-5.754.7968l-3.545 1.34616c-2.054.77983-4.271 1.02661-6.446.7173l-3.046-.43329c-1.091-.15509-2.157-.4481-3.174-.87201l-10.999-4.58716c-2.964-1.236-6.342-.9697-9.075.7155l-4.454 2.7452c-1.447.89209-3.322.6417-4.484-.5987-1.354-1.4444-3.623-1.5141-5.063-.1556l-4.192 3.95656c-3.056 2.88338-7.663 3.36604-11.249 1.17857l-1.119-.68196c-3.464-2.11321-7.81-2.15394-11.314-.10607l-6.42 3.75231-9.662 4.53667c-2.118.99467-3.929 2.54273-5.24 4.48083l-3.128 4.62109c-1.147 1.6952-2.679 3.0956-4.47 4.087l-8.207 4.5435c-1.377.7621-2.604 1.7677-3.621 2.968l-9.622 11.3524-12.108 11.7165c-.591.5724-1.238 1.0843-1.932 1.5281l-5.806 3.7184c-1.762 1.1283-4.082.8125-5.478-.7456-.949-1.059-2.364-1.5756-3.772-1.3778l-3.538.4973c-2.461.3459-4.967-.1545-7.106-1.4193l-.369-.2178c-2.378-1.4058-5.163-1.962-7.899-1.5775l-1.361.1914c-2.777.3902-5.605-.1277-8.063-1.4763l-.227-.1245c-2.458-1.3487-5.286-1.8665-8.063-1.4763l-.782.1099c-1.206.1695-2.43.1687-3.637-.0026l-10.611-1.5069c-4.949-.7028-9.863 1.4942-12.639 5.651l-5.161 7.7281c-1.522 2.2792-4.226 3.4714-6.935 3.0581l-.219-.0334c-2.212-.3376-4.446.4606-5.944 2.1239-2.726 3.0275-7.509 2.9139-10.088-.2394l-.713-.8714c-1.216-1.4865-3.12-2.2308-5.021-1.9636-1.666.2342-3.348-.3074-4.564-1.4698l-.526-.5025c-1.549-1.4797-3.689-2.1691-5.81-1.8711l-6.293.8845c-3.276.4603-6.252 2.1519-8.324 4.7302l-1.139 1.4175c-.336.4175-.62.8735-.848 1.3585-1.368 2.9175-4.612 4.4556-7.736 3.6679l-43.594-10.9895c-4.856-1.2243-9.984.4502-13.182 4.3048L535.58 75.0943c-1.06 1.2765-1.865 2.744-2.372 4.3232l-1.587 4.9376c-1.191 3.7074-3.982 6.6854-7.604 8.1149l-20.342 8.027c-.808.319-1.582.718-2.31 1.191l-16.409 10.661-17.959 11.776c-1.905 1.249-3.449 2.977-4.476 5.011l-4.501 8.912c-.666 1.318-1.551 2.513-2.619 3.534l-1.948 1.864c-1.969 1.882-4.479 3.099-7.176 3.478l-3.159.444c-1.324.186-2.583.686-3.674 1.458-3.866 2.736-9.229 1.727-11.836-2.226l-1.203-1.825c-2.53-3.835-7.259-5.579-11.673-4.305l-15.947 4.606c-.965.279-1.959.445-2.962.495l-19.167.953c-1.019.051-2.029.221-3.008.508l-17.089 5.005c-1.254.368-2.555.544-3.861.523l-10.114-.161c-2.663-.043-5.249-.902-7.408-2.462l-13.432-9.707c-2.158-1.561-4.744-2.42-7.407-2.462l-5.152-.082-6.206-.099c-1.998-.032-3.976.397-5.781 1.253l-8.11 3.849c-1.459.692-3.034 1.107-4.645 1.222l-7.547.54c-4.192.301-8.162 2.72-12.037 4.347-3.013 1.265-7.342 2.246-13.249 2.152-6.962-.111-14.765 3.579-21.16 7.739-4.142 2.695-17.87 8.161-22.811 8.083-.588-.01-2.399.063-2.964.23-22.328 6.607-28.653-5.882-35.016-9.25-1.951-1.032-4.2-.173-6.063 1.012l-15.006 9.551c-3.749 2.386-8.457 2.692-12.483.811l-7.741-3.617-16.183-6.853c-3.937-1.667-8.442-1.292-12.049 1.004l-26.4101 16.808c-1.009.642-2.1017 1.142-3.2474 1.486l-32.6102 9.774c-1.2775.383-2.6062.567-3.9397.546l-16.2706-.259c-5.4063-.086-10.19492-3.51-12.0254-8.597l-2.69846-7.501c-1.83047-5.087-6.33401-7.09-11.25134-4.842-7.9978 3.657-19.818 8.763-26.2326 8.661-9.9822-.159-40.6604-9.195-54.7516-13.693"/><path stroke="url(#f)" stroke-opacity=".1" d="m920.529-18.3254-9.532-5.6874c-1.683-1.0039-3.57-1.6145-5.522-1.7862l-3.97-.3493c-1.954-.1719-3.921.1005-5.754.7968l-3.545 1.3462c-2.054.7798-4.271 1.0266-6.446.7173l-3.046-.4333c-1.091-.1551-2.157-.4481-3.174-.872l-10.999-4.5872c-2.964-1.236-6.342-.9697-9.075.7155l-4.454 2.7452c-1.447.8921-3.322.6417-4.484-.5987-1.354-1.4444-3.623-1.5141-5.063-.1556l-4.192 3.9566c-3.056 2.8833-7.663 3.366-11.249 1.1785l-1.119-.6819c-3.464-2.1132-7.81-2.154-11.314-.1061l-6.42 3.7523-9.662 4.5367c-2.118.9946-3.929 2.5427-5.24 4.48081l-3.128 4.62105c-1.147 1.69527-2.679 3.09562-4.47 4.087053l-8.207 4.543497c-1.377.76206-2.604 1.7677-3.621 2.96802l-9.622 11.35237-12.108 11.7165c-.591.5724-1.238 1.0843-1.932 1.5281l-5.806 3.7184c-1.762 1.1283-4.082.8125-5.478-.7456-.949-1.059-2.364-1.5756-3.772-1.3778l-3.538.4973c-2.461.3459-4.967-.1545-7.106-1.4193l-.369-.2178c-2.378-1.4058-5.163-1.962-7.899-1.5775l-1.361.1914c-2.777.3902-5.605-.1277-8.063-1.4763l-.227-.1245c-2.458-1.3487-5.286-1.8665-8.063-1.4763l-.782.1099c-1.206.1695-2.43.1687-3.637-.0026l-10.611-1.5069c-4.949-.7028-9.863 1.4942-12.639 5.651l-5.161 7.7281c-1.522 2.2792-4.226 3.4714-6.935 3.0581l-.219-.0334c-2.212-.3376-4.446.4606-5.944 2.1239-2.726 3.0275-7.509 2.9139-10.088-.2394l-.713-.8714c-1.216-1.4865-3.12-2.2308-5.021-1.9636-1.666.2342-3.348-.3074-4.564-1.4698l-.526-.5025c-1.549-1.4797-3.689-2.1691-5.81-1.8711l-6.293.8845c-3.276.4603-6.252 2.1519-8.324 4.7302l-1.139 1.4175c-.336.4175-.62.8735-.848 1.3585-1.368 2.9175-4.612 4.4556-7.736 3.6679l-43.594-10.9895c-4.856-1.2243-9.984.4502-13.182 4.3048L533.58 60.0943c-1.06 1.2765-1.865 2.744-2.372 4.3232l-1.587 4.9376c-1.191 3.7074-3.982 6.6854-7.604 8.1149l-20.342 8.0274c-.808.3189-1.582.7179-2.31 1.1911l-16.409 10.66-17.959 11.7765c-1.905 1.249-3.449 2.977-4.476 5.011l-4.501 8.912c-.666 1.318-1.551 2.513-2.619 3.534l-1.948 1.864c-1.969 1.882-4.479 3.099-7.176 3.478l-3.159.444c-1.324.186-2.583.686-3.674 1.458-3.866 2.736-9.229 1.727-11.836-2.226l-1.203-1.825c-2.53-3.835-7.259-5.579-11.673-4.305l-15.947 4.606c-.965.279-1.959.445-2.962.495l-19.167.953c-1.019.051-2.029.221-3.008.508l-17.089 5.005c-1.254.368-2.555.544-3.861.523l-10.114-.161c-2.663-.043-5.249-.902-7.408-2.462l-13.432-9.707c-2.158-1.561-4.744-2.42-7.407-2.462l-5.152-.082-6.206-.099c-1.998-.032-3.976.397-5.781 1.253l-8.11 3.849c-1.459.692-3.034 1.107-4.645 1.222l-7.547.54c-4.192.301-8.162 2.72-12.037 4.347-3.013 1.265-7.342 2.246-13.249 2.152-6.962-.111-14.765 3.579-21.16 7.739-4.142 2.695-17.87 8.161-22.811 8.083-.588-.01-2.399.063-2.964.23-22.328 6.607-28.653-5.882-35.016-9.25-1.951-1.032-4.2-.173-6.063 1.012l-15.006 9.551c-3.749 2.386-8.457 2.692-12.483.811l-7.741-3.617-16.183-6.853c-3.937-1.667-8.442-1.292-12.049 1.004l-26.4101 16.808c-1.009.642-2.1017 1.142-3.2474 1.486l-32.6102 9.774c-1.2775.383-2.6062.567-3.9397.546l-16.2706-.259c-5.4063-.086-10.19492-3.51-12.0254-8.597l-2.698456-7.501c-1.830474-5.087-6.334014-7.09-11.251344-4.842-7.9978 3.657-19.818 8.763-26.2326 8.661-9.9822-.159-40.6604-9.195-54.7516-13.693"/><g filter="url(#g)" opacity=".5"><path fill="url(#h)" d="M-81-1H964l-18 34.5L333.5 119-81 199V-1Z"/></g></g><path fill="#fff" d="M348.67 126v-21.708h-7.416V100.8h19.116v3.492h-7.416V126h-4.284Zm15.117 0v-25.92h4.32v10.584c.6-.984 1.416-1.764 2.448-2.34 1.032-.6 2.196-.9 3.492-.9 1.488 0 2.748.312 3.78.936 1.032.6 1.812 1.5 2.34 2.7.552 1.176.828 2.652.828 4.428V126h-4.284v-10.116c0-1.56-.336-2.748-1.008-3.564-.648-.816-1.644-1.224-2.988-1.224-.864 0-1.644.216-2.34.648-.696.408-1.248 1.008-1.656 1.8-.408.768-.612 1.716-.612 2.844V126h-4.32Zm30.293.432c-1.8 0-3.384-.384-4.752-1.152-1.368-.792-2.436-1.896-3.204-3.312-.768-1.416-1.152-3.048-1.152-4.896 0-1.92.372-3.6 1.116-5.04.768-1.44 1.836-2.568 3.204-3.384 1.392-.816 3-1.224 4.824-1.224 1.776 0 3.324.396 4.644 1.188 1.32.792 2.34 1.86 3.06 3.204.72 1.32 1.08 2.808 1.08 4.464v.792c0 .288-.024.588-.072.9h-14.76V115.2h10.476c-.048-1.32-.492-2.352-1.332-3.096-.84-.768-1.884-1.152-3.132-1.152-.888 0-1.704.204-2.448.612-.744.408-1.332 1.02-1.764 1.836-.432.792-.648 1.8-.648 3.024v1.044c0 1.128.204 2.1.612 2.916.432.816 1.008 1.44 1.728 1.872.744.408 1.572.612 2.484.612 1.008 0 1.836-.216 2.484-.648.672-.432 1.164-1.008 1.476-1.728h4.392c-.336 1.128-.888 2.148-1.656 3.06-.768.888-1.716 1.596-2.844 2.124-1.128.504-2.4.756-3.816.756Zm21.742-.432v-25.2h4.32V126h-4.32Zm9.242 0v-18.144h3.816l.324 3.024c.552-1.056 1.344-1.896 2.376-2.52 1.032-.624 2.256-.936 3.672-.936 1.464 0 2.712.312 3.744.936 1.032.6 1.824 1.488 2.376 2.664.576 1.176.864 2.64.864 4.392V126h-4.32v-10.188c0-1.512-.336-2.676-1.008-3.492-.672-.816-1.668-1.224-2.988-1.224-.864 0-1.644.204-2.34.612-.672.408-1.212 1.008-1.62 1.8-.384.768-.576 1.704-.576 2.808V126h-4.32Zm29.611 0c-1.224 0-2.292-.192-3.204-.576-.888-.384-1.584-1.02-2.088-1.908-.504-.888-.756-2.088-.756-3.6v-8.424h-3.096v-3.636h3.096l.504-4.788h3.816v4.788h4.932v3.636h-4.932v8.424c0 .912.192 1.548.576 1.908.408.336 1.08.504 2.016.504h2.232V126h-3.096Zm14 .432c-1.464 0-2.724-.288-3.78-.864-1.032-.6-1.824-1.488-2.376-2.664-.552-1.2-.828-2.676-.828-4.428v-10.62h4.32v10.188c0 1.56.324 2.748.972 3.564.672.792 1.68 1.188 3.024 1.188.864 0 1.632-.204 2.304-.612.696-.408 1.236-.996 1.62-1.764.408-.792.612-1.752.612-2.88v-9.684h4.32V126h-3.816l-.324-3.024c-.552 1.056-1.356 1.896-2.412 2.52-1.032.624-2.244.936-3.636.936ZM483.85 126v-18.144h4.32V126h-4.32Zm2.16-21.024c-.792 0-1.452-.24-1.98-.72-.504-.504-.756-1.116-.756-1.836 0-.744.252-1.344.756-1.8.528-.48 1.188-.72 1.98-.72s1.44.24 1.944.72c.528.456.792 1.056.792 1.8 0 .72-.264 1.332-.792 1.836-.504.48-1.152.72-1.944.72ZM501.046 126c-1.224 0-2.292-.192-3.204-.576-.888-.384-1.584-1.02-2.088-1.908-.504-.888-.756-2.088-.756-3.6v-8.424h-3.096v-3.636h3.096l.504-4.788h3.816v4.788h4.932v3.636h-4.932v8.424c0 .912.192 1.548.576 1.908.408.336 1.08.504 2.016.504h2.232V126h-3.096Zm7.448 0v-18.144h4.32V126h-4.32Zm2.16-21.024c-.792 0-1.452-.24-1.98-.72-.504-.504-.756-1.116-.756-1.836 0-.744.252-1.344.756-1.8.528-.48 1.188-.72 1.98-.72s1.44.24 1.944.72c.528.456.792 1.056.792 1.8 0 .72-.264 1.332-.792 1.836-.504.48-1.152.72-1.944.72ZM522.775 126l-6.696-18.144h4.536l4.788 14.04 4.788-14.04h4.464L527.959 126h-5.184Zm22.582.432c-1.8 0-3.384-.384-4.752-1.152-1.368-.792-2.436-1.896-3.204-3.312-.768-1.416-1.152-3.048-1.152-4.896 0-1.92.372-3.6 1.116-5.04.768-1.44 1.836-2.568 3.204-3.384 1.392-.816 3-1.224 4.824-1.224 1.776 0 3.324.396 4.644 1.188 1.32.792 2.34 1.86 3.06 3.204.72 1.32 1.08 2.808 1.08 4.464v.792c0 .288-.024.588-.072.9h-14.76V115.2h10.476c-.048-1.32-.492-2.352-1.332-3.096-.84-.768-1.884-1.152-3.132-1.152-.888 0-1.704.204-2.448.612-.744.408-1.332 1.02-1.764 1.836-.432.792-.648 1.8-.648 3.024v1.044c0 1.128.204 2.1.612 2.916.432.816 1.008 1.44 1.728 1.872.744.408 1.572.612 2.484.612 1.008 0 1.836-.216 2.484-.648.672-.432 1.164-1.008 1.476-1.728h4.392c-.336 1.128-.888 2.148-1.656 3.06-.768.888-1.716 1.596-2.844 2.124-1.128.504-2.4.756-3.816.756Z"/><path fill="#00DC82" d="m323.022 166-9.252-25.2h4.644l7.236 20.772 7.344-20.772h4.572l-9.288 25.2h-5.256Zm24.065.432c-1.464 0-2.724-.288-3.78-.864-1.032-.6-1.824-1.488-2.376-2.664-.552-1.2-.828-2.676-.828-4.428v-10.62h4.32v10.188c0 1.56.324 2.748.972 3.564.672.792 1.68 1.188 3.024 1.188.864 0 1.632-.204 2.304-.612.696-.408 1.236-.996 1.62-1.764.408-.792.612-1.752.612-2.88v-9.684h4.32V166h-3.816l-.324-3.024c-.552 1.056-1.356 1.896-2.412 2.52-1.032.624-2.244.936-3.636.936Zm23.491 0c-1.8 0-3.384-.384-4.752-1.152-1.368-.792-2.436-1.896-3.204-3.312-.768-1.416-1.152-3.048-1.152-4.896 0-1.92.372-3.6 1.116-5.04.768-1.44 1.836-2.568 3.204-3.384 1.392-.816 3-1.224 4.824-1.224 1.776 0 3.324.396 4.644 1.188 1.32.792 2.34 1.86 3.06 3.204.72 1.32 1.08 2.808 1.08 4.464v.792c0 .288-.024.588-.072.9h-14.76V155.2h10.476c-.048-1.32-.492-2.352-1.332-3.096-.84-.768-1.884-1.152-3.132-1.152-.888 0-1.704.204-2.448.612-.744.408-1.332 1.02-1.764 1.836-.432.792-.648 1.8-.648 3.024v1.044c0 1.128.204 2.1.612 2.916.432.816 1.008 1.44 1.728 1.872.744.408 1.572.612 2.484.612 1.008 0 1.836-.216 2.484-.648.672-.432 1.164-1.008 1.476-1.728h4.392c-.336 1.128-.888 2.148-1.656 3.06-.768.888-1.716 1.596-2.844 2.124-1.128.504-2.4.756-3.816.756ZM392.32 166v-25.2h16.092v3.492H396.64v7.38h9.612v3.42h-9.612V166h-4.32Zm19.649 0v-18.144h3.852l.396 3.384c.432-.792.972-1.464 1.62-2.016.648-.576 1.404-1.02 2.268-1.332.888-.312 1.86-.468 2.916-.468v4.572h-1.512c-.72 0-1.404.096-2.052.288-.648.168-1.212.456-1.692.864-.456.384-.816.924-1.08 1.62-.264.672-.396 1.524-.396 2.556V166h-4.32Zm20.356.432c-1.488 0-2.724-.252-3.708-.756s-1.716-1.176-2.196-2.016c-.48-.84-.72-1.752-.72-2.736 0-1.152.288-2.148.864-2.988.6-.84 1.476-1.488 2.628-1.944 1.152-.48 2.568-.72 4.248-.72h4.572c0-.96-.132-1.752-.396-2.376-.264-.648-.672-1.128-1.224-1.44-.552-.312-1.26-.468-2.124-.468-.984 0-1.824.228-2.52.684-.696.432-1.128 1.104-1.296 2.016h-4.248c.144-1.296.576-2.4 1.296-3.312.72-.936 1.668-1.656 2.844-2.16 1.2-.528 2.508-.792 3.924-.792 1.704 0 3.156.3 4.356.9 1.2.576 2.112 1.416 2.736 2.52.648 1.08.972 2.388.972 3.924V166h-3.672l-.432-2.916c-.24.48-.552.924-.936 1.332-.36.408-.78.768-1.26 1.08-.48.288-1.032.516-1.656.684-.6.168-1.284.252-2.052.252Zm.972-3.42c.696 0 1.308-.12 1.836-.36.552-.264 1.02-.624 1.404-1.08.408-.48.72-1.008.936-1.584.216-.576.36-1.188.432-1.836v-.072h-3.996c-.84 0-1.536.108-2.088.324-.552.192-.948.48-1.188.864s-.36.828-.36 1.332c0 .504.12.936.36 1.296s.588.636 1.044.828c.456.192.996.288 1.62.288ZM446.949 166v-18.144h3.816l.36 2.484c.576-.912 1.332-1.62 2.268-2.124.96-.528 2.052-.792 3.276-.792.912 0 1.728.12 2.448.36.744.24 1.392.6 1.944 1.08.576.48 1.044 1.08 1.404 1.8.672-1.008 1.548-1.8 2.628-2.376 1.08-.576 2.256-.864 3.528-.864 1.512 0 2.796.312 3.852.936 1.056.6 1.86 1.5 2.412 2.7.552 1.176.828 2.628.828 4.356V166h-4.284v-10.152c0-1.536-.312-2.712-.936-3.528-.624-.816-1.548-1.224-2.772-1.224-.84 0-1.584.204-2.232.612-.624.408-1.116 1.008-1.476 1.8-.36.768-.54 1.716-.54 2.844V166h-4.284v-10.152c0-1.536-.312-2.712-.936-3.528-.624-.816-1.56-1.224-2.808-1.224-.792 0-1.512.204-2.16.612-.624.408-1.116 1.008-1.476 1.8-.36.768-.54 1.716-.54 2.844V166h-4.32Zm41.824.432c-1.8 0-3.384-.384-4.752-1.152-1.368-.792-2.436-1.896-3.204-3.312-.768-1.416-1.152-3.048-1.152-4.896 0-1.92.372-3.6 1.116-5.04.768-1.44 1.836-2.568 3.204-3.384 1.392-.816 3-1.224 4.824-1.224 1.776 0 3.324.396 4.644 1.188 1.32.792 2.34 1.86 3.06 3.204.72 1.32 1.08 2.808 1.08 4.464v.792c0 .288-.024.588-.072.9h-14.76V155.2h10.476c-.048-1.32-.492-2.352-1.332-3.096-.84-.768-1.884-1.152-3.132-1.152-.888 0-1.704.204-2.448.612-.744.408-1.332 1.02-1.764 1.836-.432.792-.648 1.8-.648 3.024v1.044c0 1.128.204 2.1.612 2.916.432.816 1.008 1.44 1.728 1.872.744.408 1.572.612 2.484.612 1.008 0 1.836-.216 2.484-.648.672-.432 1.164-1.008 1.476-1.728h4.392c-.336 1.128-.888 2.148-1.656 3.06-.768.888-1.716 1.596-2.844 2.124-1.128.504-2.4.756-3.816.756Zm15.706-.432-5.328-18.144h4.284l3.708 14.904-.792-.036 4.14-14.868h4.824l4.176 14.868h-.792l3.708-14.868h4.284L521.363 166h-4.464l-4.428-15.372h.9L508.943 166h-4.464Zm33.125.432c-1.728 0-3.288-.396-4.68-1.188-1.368-.816-2.448-1.932-3.24-3.348-.768-1.44-1.152-3.084-1.152-4.932 0-1.896.396-3.552 1.188-4.968.792-1.44 1.872-2.556 3.24-3.348 1.392-.816 2.952-1.224 4.68-1.224 1.728 0 3.276.408 4.644 1.224 1.392.792 2.472 1.896 3.24 3.312.792 1.416 1.188 3.072 1.188 4.968s-.396 3.552-1.188 4.968c-.792 1.416-1.884 2.532-3.276 3.348-1.368.792-2.916 1.188-4.644 1.188Zm0-3.708c.864 0 1.644-.216 2.34-.648.72-.432 1.296-1.08 1.728-1.944.432-.864.648-1.932.648-3.204 0-1.272-.216-2.328-.648-3.168-.408-.864-.972-1.512-1.692-1.944-.696-.432-1.476-.648-2.34-.648-.84 0-1.62.216-2.34.648-.72.432-1.296 1.08-1.728 1.944-.432.84-.648 1.896-.648 3.168 0 1.272.216 2.34.648 3.204.432.864.996 1.512 1.692 1.944.72.432 1.5.648 2.34.648ZM550.941 166v-18.144h3.852l.396 3.384c.432-.792.972-1.464 1.62-2.016.648-.576 1.404-1.02 2.268-1.332.888-.312 1.86-.468 2.916-.468v4.572h-1.512c-.72 0-1.404.096-2.052.288-.648.168-1.212.456-1.692.864-.456.384-.816.924-1.08 1.62-.264.672-.396 1.524-.396 2.556V166h-4.32Zm26.009 0-8.028-9.936 7.2-8.208h5.148l-8.964 9.972v-3.348L582.35 166h-5.4Zm-11.7 0v-25.92h4.32V166h-4.32Z"/><path fill="#fff" d="M445.24 78c.259 0 .48-.2149.48-.48V66.36s.6 1.08 1.68 2.88l4.68 8.04c.214.4488.689.72 1.08.72h3.24V60h-3.24c-.216 0-.48.1793-.48.48v11.28l-2.16-3.84-4.32-7.32c-.21-.3731-.663-.6-1.08-.6H442v18h3.24ZM487.12 65.04h1.56c.398 0 .72-.3224.72-.72V61.2h3.36v3.84H496v2.88h-3.24v5.16c0 1.26.607 1.8 1.68 1.8H496V78h-2.04c-2.766 0-4.56-1.7914-4.56-4.8v-5.28h-2.28v-2.88ZM470.92 65.04v7.44c0 1.6804-.631 3.0971-1.56 4.08-.929.9829-2.212 1.44-3.96 1.44-1.748 0-3.151-.4571-4.08-1.44-.913-.9829-1.56-2.3996-1.56-4.08v-7.44h1.92c.409 0 .812.0746 1.08.36.268.2695.36.4278.36.84v6.24c0 .967.055 1.5644.48 2.04.425.4597.95.6 1.8.6.866 0 1.255-.1403 1.68-.6.425-.4756.48-1.073.48-2.04v-6.24c0-.4122.092-.6746.36-.96.235-.2507.483-.2448.84-.24.049.0007.19 0 .24 0h1.92ZM481.12 71.28l4.08-6.24h-3.12c-.393 0-.743.1411-.96.48l-1.92 2.88-1.8-2.76c-.217-.3389-.687-.6-1.08-.6h-3l4.08 6.12-4.44 6.84h3.12c.39 0 .742-.3855.96-.72l2.16-3.24 2.28 3.36c.218.3345.57.6.96.6h3.12l-4.44-6.72Z"/><path fill="#00DC82" d="M420.16 78h13.32c.425.0001.832-.1493 1.2-.36s.748-.4751.96-.84c.212-.3649.36-.7788.36-1.2001 0-.4213-.147-.8351-.36-1.1998l-9-15.4801c-.212-.3648-.472-.6294-.84-.84s-.895-.36-1.32-.36c-.425 0-.832.1494-1.2.36-.368.2106-.628.4752-.84.84l-2.28 3.96-4.56-7.6803c-.213-.3648-.472-.7491-.84-.9597s-.775-.24-1.2-.24c-.425 0-.832.0294-1.2.24-.368.2106-.747.5949-.96.9597l-11.16 19.2004c-.213.3647-.24.7785-.24 1.1998s.028.8352.24 1.2c.212.3649.592.6294.96.8401s.775.3601 1.2.36h8.4c3.328 0 5.751-1.4931 7.44-4.32l4.08-7.08 2.16-3.72 6.6 11.28h-8.76L420.16 78Zm-9.48-3.84h-5.88l8.76-15.12L418 66.6l-2.941 5.127c-1.122 1.8342-2.4 2.433-4.379 2.433Z"/></g><defs><linearGradient id="c" x1="891.588" x2="-45.7984" y1="20.9199" y2="181.711" gradientUnits="userSpaceOnUse"><stop offset=".0414531" stop-color="#00DC82" stop-opacity="0"/><stop offset=".203125" stop-color="#00DC82"/><stop offset=".333238" stop-color="#00DC82" stop-opacity="0"/><stop offset=".66715" stop-color="#00DC82" stop-opacity="0"/><stop offset=".757084" stop-color="#00DC82"/><stop offset=".930802" stop-color="#00DC82" stop-opacity="0"/></linearGradient><linearGradient id="d" x1="901.173" x2="-50.4208" y1="6.94982" y2="173.748" gradientUnits="userSpaceOnUse"><stop offset=".0830603" stop-color="#00DC82" stop-opacity="0"/><stop offset=".203125" stop-color="#00DC82"/><stop offset=".333238" stop-color="#00DC82" stop-opacity="0"/><stop offset=".66715" stop-color="#00DC82" stop-opacity="0"/><stop offset=".757084" stop-color="#00DC82"/><stop offset=".918562" stop-color="#00DC82" stop-opacity="0"/></linearGradient><linearGradient id="e" x1="902.927" x2="-44.1572" y1="-8.156" y2="154.552" gradientUnits="userSpaceOnUse"><stop offset=".102813" stop-color="#00DC82" stop-opacity="0"/><stop offset=".203125" stop-color="#00DC82"/><stop offset=".333238" stop-color="#00DC82" stop-opacity="0"/><stop offset=".66715" stop-color="#00DC82" stop-opacity="0"/><stop offset=".757084" stop-color="#00DC82"/><stop offset=".926908" stop-color="#00DC82" stop-opacity="0"/></linearGradient><linearGradient id="f" x1="900.927" x2="-46.1572" y1="-23.156" y2="139.552" gradientUnits="userSpaceOnUse"><stop stop-color="#00DC82" stop-opacity="0"/><stop offset=".203125" stop-color="#00DC82"/><stop offset=".333238" stop-color="#00DC82" stop-opacity="0"/><stop offset=".66715" stop-color="#00DC82" stop-opacity="0"/><stop offset=".757084" stop-color="#00DC82"/><stop offset=".994792" stop-color="#00DC82" stop-opacity="0"/></linearGradient><linearGradient id="h" x1="442" x2="442" y1="-95.5" y2="99" gradientUnits="userSpaceOnUse"><stop stop-color="#020420"/><stop offset=".4375" stop-color="#00DC82"/><stop offset="1" stop-color="#00DC82" stop-opacity="0"/></linearGradient><clipPath id="a"><path fill="#fff" d="M0 0h896v230H0z"/></clipPath><clipPath id="b"><path fill="#fff" d="M-81.0598-210.34h1045.06V445h-1045.06z"/></clipPath><filter id="g" width="1316.82" height="471.82" x="-216.91" y="-136.91" color-interpolation-filters="sRGB" filterUnits="userSpaceOnUse"><feFlood flood-opacity="0" result="BackgroundImageFix"/><feBlend in="SourceGraphic" in2="BackgroundImageFix" result="shape"/><feGaussianBlur result="effect1_foregroundBlur_3501_689" stdDeviation="67.955"/></filter></defs></svg>
