<svg width="32" height="32" viewBox="0 0 32 32" fill="none" xmlns="http://www.w3.org/2000/svg">
<path d="M15.9349 5C14.4989 5 13.077 5.28284 11.7503 5.83237C10.4236 6.3819 9.21816 7.18736 8.20276 8.20276C6.15207 10.2535 5 13.0348 5 15.9349C5 20.7681 8.13832 24.8687 12.4795 26.3231C13.0262 26.4105 13.2012 26.0716 13.2012 25.7763V23.9283C10.1722 24.5844 9.52705 22.463 9.52705 22.463C9.02404 21.1946 8.31328 20.8556 8.31328 20.8556C7.3182 20.1776 8.38982 20.1995 8.38982 20.1995C9.48331 20.2761 10.0629 21.3258 10.0629 21.3258C11.0142 22.9879 12.6216 22.4958 13.2449 22.2334C13.3433 21.5226 13.6276 21.0415 13.9338 20.7681C11.5063 20.4948 8.95843 19.5544 8.95843 15.3882C8.95843 14.1744 9.37396 13.2012 10.0847 12.4248C9.97538 12.1514 9.59266 11.0142 10.1941 9.53799C10.1941 9.53799 11.1126 9.24274 13.2012 10.6533C14.065 10.4128 15.0054 10.2925 15.9349 10.2925C16.8644 10.2925 17.8048 10.4128 18.6686 10.6533C20.7572 9.24274 21.6757 9.53799 21.6757 9.53799C22.2771 11.0142 21.8944 12.1514 21.7851 12.4248C22.4958 13.2012 22.9114 14.1744 22.9114 15.3882C22.9114 19.5653 20.3526 20.4838 17.9141 20.7572C18.3078 21.0962 18.6686 21.7632 18.6686 22.7802V25.7763C18.6686 26.0716 18.8436 26.4215 19.4013 26.3231C23.7424 24.8578 26.8698 20.7681 26.8698 15.9349C26.8698 14.4989 26.587 13.077 26.0374 11.7503C25.4879 10.4236 24.6824 9.21816 23.667 8.20276C22.6516 7.18736 21.4462 6.3819 20.1195 5.83237C18.7928 5.28284 17.3709 5 15.9349 5Z" fill="#A1A1AA"/>
</svg>
