<svg xmlns="http://www.w3.org/2000/svg" width="39.4" height="32" viewBox="0 0 1231.051 1000"><path fill="#A1A1AA" d="M1231.051 118.453q-51.422 76.487-126.173 130.403q.738 14.46.738 32.687q0 101.273-29.53 202.791q-29.53 101.519-90.215 194.343q-60.685 92.824-144.574 164.468q-83.889 71.644-201.677 114.25q-117.788 42.606-252.474 42.606q-210.2 0-387.147-113.493q31.406 3.495 60.242 3.495q175.605 0 313.687-108.177q-81.877-1.501-146.654-50.409q-64.777-48.907-89.156-124.988q24.097 4.59 47.566 4.59q33.782 0 66.482-8.812q-87.378-17.5-144.975-87.04q-57.595-69.539-57.595-160.523v-3.126q53.633 29.696 114.416 31.592q-51.762-34.508-82.079-89.999q-30.319-55.491-30.319-120.102q0-68.143 34.151-126.908q95.022 116.607 230.278 186.392q135.258 69.786 290.212 77.514q-6.609-27.543-6.621-57.485q0-104.546 73.994-178.534Q747.623 0 852.169 0q109.456 0 184.392 79.711q85.618-16.959 160.333-61.349q-28.785 90.59-110.933 139.768q75.502-8.972 145.088-39.677z"/></svg>
