<svg width="150" height="150" fill="none" xmlns="http://www.w3.org/2000/svg"><g clip-path="url(#a)"><path d="M163.796 9.64c-16.555.935-49.457 4.34-69.77 16.72-1.401.855-2.196 2.374-2.196 3.962v109.445c0 3.474 3.816 5.67 7.033 4.058 20.898-10.474 51.121-13.331 66.065-14.113 5.103-.268 9.069-4.34 9.069-9.222V18.874c.003-5.327-4.637-9.547-10.201-9.234zM79.971 26.36C59.66 13.98 26.758 10.58 10.204 9.64 4.64 9.327 0 13.547 0 18.874v101.619c0 4.885 3.966 8.957 9.069 9.222 14.95.782 45.188 3.642 66.086 14.122 3.208 1.609 7.012-.584 7.012-4.049V30.268c0-1.591-.792-3.05-2.197-3.908z" fill="#D1E2E2"/></g><defs><clipPath id="a"><path fill="#fff" d="M0 0h150v150H0z"/></clipPath></defs></svg>