<svg width="80" height="80" fill="none" xmlns="http://www.w3.org/2000/svg"><g clip-path="url(#a)"><path d="M63.69 51.775c0 3.325-2.47 6.05-5.596 6.05-3.072 0-5.596-2.726-5.596-6.05 0-3.325 2.469-6.05 5.596-6.05 3.127 0 5.595 2.725 5.595 6.05zm-25.62-6.05c-3.126 0-5.595 2.725-5.595 6.05 0 3.325 2.524 6.05 5.596 6.05 3.127 0 5.595-2.726 5.595-6.05.055-3.325-2.468-6.05-5.595-6.05zM96 11.227V109c-13.82-12.133-9.4-8.117-25.454-22.945l2.908 10.083H11.246C5.046 96.138 0 91.124 0 84.911V11.227C0 5.014 5.047 0 11.246 0h73.508C90.954 0 96 5.014 96 11.227zM80.366 62.893c0-17.549-7.9-31.774-7.9-31.774-7.9-5.886-15.415-5.722-15.415-5.722l-.768.872c9.326 2.834 13.66 6.922 13.66 6.922-13.031-7.096-28.338-7.097-40.978-1.581-2.03.926-3.237 1.58-3.237 1.58s4.553-4.305 14.427-7.139l-.548-.654s-7.516-.163-15.415 5.723c0 0-7.9 14.224-7.9 31.773 0 0 4.609 7.903 16.732 8.284 0 0 2.03-2.453 3.675-4.524-6.966-2.07-9.6-6.43-9.6-6.43.807.56 2.138 1.288 2.25 1.362 9.259 5.152 22.411 6.84 34.23 1.907 1.92-.708 4.06-1.743 6.309-3.215 0 0-2.743 4.469-9.93 6.486 1.647 2.07 3.621 4.414 3.621 4.414 12.124-.382 16.787-8.284 16.787-8.284z" fill="#D1E2E2"/></g><defs><clipPath id="a"><path fill="#fff" d="M0 0h80v80H0z"/></clipPath></defs></svg>