<svg width="53" height="58" viewBox="0 0 53 58" fill="none" xmlns="http://www.w3.org/2000/svg">
<path d="M49.1971 43.7595C49.1113 43.8209 49.0231 43.8796 48.9325 43.9357L29.0918 56.2117C27.6504 57.1035 25.8212 57.1564 24.3387 56.3439L3.85107 45.1148C2.27157 44.2491 1.14238 42.6366 1.15291 41.0494L1.15293 41.0427L1.153 18.552C1.15301 18.5509 1.15302 18.5499 1.15302 18.5488C1.16485 16.9324 2.02611 15.4289 3.43319 14.5869L3.43322 14.587L3.44269 14.5812L22.9844 2.59084C24.4169 1.73583 26.2139 1.69824 27.6729 2.49791L27.6729 2.49792L27.6784 2.50094L48.6303 13.8121C48.6313 13.8126 48.6322 13.8131 48.6331 13.8136C50.0797 14.6078 50.9898 16.1132 51.026 17.7438L51.1517 39.8672L51.1517 39.8746L51.1519 39.8821C51.1834 41.4138 50.4491 42.8635 49.1971 43.7595Z" fill="white" stroke="url(#paint0_linear_2613_3941)" stroke-width="2"/>
<path d="M37.1528 17.9209H15.1528C14.6224 17.9209 14.1137 18.1316 13.7386 18.5067C13.3635 18.8818 13.1528 19.3905 13.1528 19.9209V37.9209C13.1528 38.4513 13.3635 38.96 13.7386 39.3351C14.1137 39.7102 14.6224 39.9209 15.1528 39.9209H37.1528C37.6833 39.9209 38.192 39.7102 38.567 39.3351C38.9421 38.96 39.1528 38.4513 39.1528 37.9209V19.9209C39.1528 19.3905 38.9421 18.8818 38.567 18.5067C38.192 18.1316 37.6833 17.9209 37.1528 17.9209V17.9209ZM15.1528 19.9209H37.1528V24.9209H15.1528V19.9209ZM15.1528 26.9209H22.1528V37.9209H15.1528V26.9209ZM37.1528 37.9209H24.1528V26.9209H37.1528V37.9209Z" fill="url(#paint1_linear_2613_3941)"/>
<defs>
<linearGradient id="paint0_linear_2613_3941" x1="0.662695" y1="18.4025" x2="51.7209" y2="44.2212" gradientUnits="userSpaceOnUse">
<stop stop-color="#8DEAFF"/>
<stop offset="1" stop-color="#008AA9"/>
</linearGradient>
<linearGradient id="paint1_linear_2613_3941" x1="13.0804" y1="22.6224" x2="37.028" y2="37.847" gradientUnits="userSpaceOnUse">
<stop stop-color="#8DEAFF"/>
<stop offset="1" stop-color="#008AA9"/>
</linearGradient>
</defs>
</svg>
