<svg xmlns="http://www.w3.org/2000/svg" width="105" height="116" fill="none"><g filter="url(#a)" shape-rendering="geometricPrecision"><path fill="#18181B" d="M17.203 33.223 46.9 14.286a8.416 8.416 0 0 1 8.64-.18L87.38 31.97c2.68 1.527 4.365 4.409 4.428 7.571l.191 34.944c.063 3.151-1.491 6.104-4.091 7.776l-30.143 19.383a8.417 8.417 0 0 1-8.75.251l-31.126-17.73C15.135 82.595 12.98 79.6 13 76.35V40.828c.02-3.111 1.614-5.994 4.203-7.605Z"/><path stroke="url(#b)" stroke-width="2" d="M46.9 14.286 17.202 33.223c-2.59 1.61-4.183 4.494-4.203 7.605V76.35m33.9-62.064a8.416 8.416 0 0 1 8.64-.18m-8.64.18a8.435 8.435 0 0 1 8.64-.18M13 76.35c-.02 3.25 2.135 6.246 4.888 7.814M13 76.35c-.02 3.233 2.136 6.247 4.888 7.814m0 0 31.126 17.731m0 0a8.417 8.417 0 0 0 8.75-.251m-8.75.251a8.438 8.438 0 0 0 8.75-.251m0 0 30.143-19.383m0 0c2.598-1.67 4.154-4.627 4.091-7.776m-4.091 7.776c2.6-1.672 4.154-4.625 4.091-7.776m0 0-.19-34.944m0 0c-.064-3.162-1.75-6.044-4.43-7.571m4.43 7.571c-.063-3.147-1.75-6.045-4.43-7.571m0 0L55.54 14.105"/></g><path fill="url(#c)" d="M48.669 67.696c-.886 2.69-3.02 4.659-6.153 5.709-1.41.465-2.88.72-4.364.755a1.313 1.313 0 0 1-1.312-1.313c.035-1.484.29-2.954.754-4.364 1.05-3.133 3.02-5.266 5.71-6.152a1.312 1.312 0 1 1 .836 2.477c-3.232 1.083-4.232 4.577-4.544 6.595 2.018-.311 5.512-1.312 6.595-4.544a1.313 1.313 0 0 1 2.477.837Zm16.39-12.486-1.46 1.477v10.057a2.657 2.657 0 0 1-.772 1.854l-5.316 5.3a2.559 2.559 0 0 1-1.853.77 2.413 2.413 0 0 1-.755-.115 2.624 2.624 0 0 1-1.821-2.001l-1.296-6.48-6.858-6.858-6.48-1.297a2.625 2.625 0 0 1-2.002-1.82 2.609 2.609 0 0 1 .656-2.61l5.3-5.315a2.658 2.658 0 0 1 1.853-.771h10.057l1.477-1.46c4.692-4.692 9.499-4.561 11.353-4.282a2.576 2.576 0 0 1 2.198 2.198c.28 1.854.41 6.661-4.282 11.353Zm-26.103.132 6.185 1.23 6.546-6.546h-7.432l-5.299 5.316Zm8.482 2.657L53 63.561l10.205-10.205c1.28-1.28 4.2-4.724 3.543-9.105-4.38-.656-7.826 2.264-9.105 3.544L47.438 57.999Zm13.535 1.313-6.546 6.546 1.23 6.185 5.316-5.299v-7.432Z" shape-rendering="geometricPrecision"/><defs><linearGradient id="b" x1="57.994" x2="92" y1="58" y2="58" gradientUnits="userSpaceOnUse"><stop stop-color="#00DC82"/><stop offset=".5" stop-color="#1DE0B1"/><stop offset="1" stop-color="#36E4DA"/></linearGradient><linearGradient id="c" x1="55.197" x2="69.453" y1="58.107" y2="58.107" gradientUnits="userSpaceOnUse"><stop stop-color="#00DC82"/><stop offset=".5" stop-color="#1DE0B1"/><stop offset="1" stop-color="#36E4DA"/></linearGradient><filter id="a" width="104.897" height="115.897" x=".052" y=".052" color-interpolation-filters="sRGB" filterUnits="userSpaceOnUse"><feFlood flood-opacity="0" result="BackgroundImageFix"/><feColorMatrix in="SourceAlpha" result="hardAlpha" values="0 0 0 0 0 0 0 0 0 0 0 0 0 0 0 0 0 0 127 0"/><feOffset/><feGaussianBlur stdDeviation="5.974"/><feComposite in2="hardAlpha" operator="out"/><feColorMatrix values="0 0 0 0 1 0 0 0 0 1 0 0 0 0 1 0 0 0 0.07 0"/><feBlend in2="BackgroundImageFix" result="effect1_dropShadow_2724_4091"/><feBlend in="SourceGraphic" in2="effect1_dropShadow_2724_4091" result="shape"/></filter></defs></svg>
