<svg width="80" height="87" fill="none" xmlns="http://www.w3.org/2000/svg"><g clip-path="url(#a)"><path d="M31.44 75.289c0 .379-.435.682-.985.682-.625.056-1.061-.247-1.061-.682 0-.38.436-.682.985-.682.569-.057 1.062.246 1.062.682zm-5.893-.853c-.133.379.246.815.815.928.492.19 1.061 0 1.175-.379.113-.378-.247-.814-.815-.985-.493-.132-1.043.057-1.175.436zm8.376-.322c-.55.133-.928.493-.871.928.056.38.55.626 1.118.493.55-.133.928-.493.871-.871-.056-.36-.568-.607-1.118-.55zm12.47-72.598C20.109 1.516 0 21.465 0 47.742c0 21.01 13.228 38.99 32.123 45.317 2.426.436 3.279-1.06 3.279-2.292 0-1.175-.057-7.654-.057-11.632 0 0-13.266 2.841-16.052-5.646 0 0-2.16-5.513-5.269-6.934 0 0-4.34-2.975.303-2.918 0 0 4.72.38 7.316 4.888 4.15 7.313 11.105 5.21 13.816 3.96.435-3.031 1.667-5.134 3.032-6.385-10.594-1.174-21.283-2.709-21.283-20.934 0-5.21 1.44-7.825 4.473-11.16-.493-1.23-2.104-6.308.492-12.863 3.961-1.232 13.077 5.115 13.077 5.115 3.79-1.06 7.865-1.61 11.902-1.61 4.036 0 8.11.55 11.901 1.61 0 0 9.116-6.365 13.077-5.115 2.596 6.574.985 11.632.493 12.864 3.032 3.353 4.89 5.968 4.89 11.159 0 18.282-11.163 19.74-21.757 20.934 1.743 1.497 3.221 4.339 3.221 8.79 0 6.385-.056 14.286-.056 15.84 0 1.23.871 2.727 3.278 2.291C81.151 86.731 94 68.752 94 47.742 94 21.465 72.68 1.516 46.394 1.516zM18.422 66.858c-.246.19-.19.625.133.985.303.303.739.436.985.19.246-.19.19-.626-.133-.986-.303-.303-.739-.435-.985-.189zm-2.047-1.535c-.133.247.057.55.436.74.303.189.682.132.815-.133.133-.247-.057-.55-.436-.74-.379-.113-.682-.056-.815.133zm6.14 6.745c-.303.246-.189.815.247 1.175.436.435.985.492 1.232.189.246-.246.132-.815-.247-1.175-.417-.435-.985-.492-1.231-.189zm-2.16-2.785c-.303.19-.303.682 0 1.118.303.436.815.625 1.061.436.303-.247.303-.74 0-1.175-.265-.436-.758-.625-1.061-.379z" fill="#D1E2E2"/></g><defs><clipPath id="a"><path fill="#fff" d="M0 0h80v86.761H0z"/></clipPath></defs></svg>