<svg width="53" height="58" viewBox="0 0 53 58" fill="none" xmlns="http://www.w3.org/2000/svg">
<g clip-path="url(#clip0_2691_4389)">
<path d="M51.1519 39.8821C51.154 39.9844 51.1527 40.0863 51.148 40.1877C51.0782 41.7091 50.2566 43.1165 48.9325 43.9357L29.0918 56.2117C27.6504 57.1035 25.8212 57.1564 24.3387 56.3439L3.85107 45.1148C2.27157 44.2491 1.14238 42.6366 1.15291 41.0494L1.15293 41.0427L1.153 18.552C1.15301 18.5509 1.15302 18.5499 1.15302 18.5488C1.16485 16.9324 2.02611 15.4289 3.43319 14.5869L3.43322 14.587L3.44269 14.5812L22.9844 2.59084C24.4169 1.73583 26.2139 1.69824 27.6729 2.49791L27.6729 2.49792L27.6784 2.50094L48.6303 13.8121C48.6313 13.8126 48.6322 13.8131 48.6331 13.8136C50.0797 14.6078 50.9898 16.1132 51.026 17.7438L51.1517 39.8672L51.1517 39.8746L51.1519 39.8821Z" fill="white" stroke="url(#paint0_linear_2691_4389)" stroke-width="2"/>
<path d="M33.8193 42.2542H17.8193C16.7585 42.2542 15.7411 41.8328 14.9909 41.0826C14.2408 40.3325 13.8193 39.3151 13.8193 38.2542V24.9209C13.8193 23.86 14.2408 22.8426 14.9909 22.0924C15.7411 21.3423 16.7585 20.9209 17.8193 20.9209H19.1527C19.1751 19.791 19.5558 18.6975 20.2399 17.7981C20.924 16.8986 21.8761 16.2397 22.9589 15.9164C24.0416 15.593 25.1992 15.6219 26.2644 15.999C27.3297 16.376 28.2477 17.0817 28.886 18.0142C29.4839 18.8664 29.8094 19.8799 29.8193 20.9209H33.8193C34.173 20.9209 34.5121 21.0613 34.7621 21.3114C35.0122 21.5614 35.1527 21.9006 35.1527 22.2542V26.2542C36.2825 26.2766 37.376 26.6573 38.2754 27.3414C39.1749 28.0255 39.8338 28.9776 40.1572 30.0604C40.4805 31.1432 40.4516 32.3007 40.0745 33.366C39.6975 34.4312 38.9918 35.3492 38.0593 35.9875C37.2071 36.5854 36.1937 36.9109 35.1527 36.9209V36.9209V40.9209C35.1527 41.2745 35.0122 41.6136 34.7621 41.8637C34.5121 42.1137 34.173 42.2542 33.8193 42.2542ZM17.8193 23.5875C17.4657 23.5875 17.1266 23.728 16.8765 23.978C16.6265 24.2281 16.486 24.5672 16.486 24.9209V38.2542C16.486 38.6078 16.6265 38.9469 16.8765 39.197C17.1266 39.447 17.4657 39.5875 17.8193 39.5875H32.486V35.3475C32.4849 35.1337 32.5351 34.9228 32.6326 34.7325C32.7301 34.5422 32.8718 34.3782 33.046 34.2542C33.2196 34.1304 33.4204 34.05 33.6316 34.0198C33.8427 33.9897 34.058 34.0106 34.2593 34.0809C34.6393 34.2359 35.0532 34.2891 35.46 34.2353C35.8669 34.1816 36.2527 34.0226 36.5793 33.7742C36.9045 33.5759 37.1834 33.3103 37.3973 32.9952C37.6111 32.6801 37.7551 32.3229 37.8193 31.9475C37.8708 31.5689 37.8402 31.1837 37.7298 30.8179C37.6194 30.4522 37.4317 30.1144 37.1793 29.8275C36.8381 29.413 36.3734 29.1183 35.8529 28.9864C35.3325 28.8545 34.7835 28.8923 34.286 29.0942C34.0846 29.1644 33.8694 29.1854 33.6582 29.1552C33.4471 29.125 33.2463 29.0447 33.0727 28.9209C32.8985 28.7969 32.7567 28.6328 32.6593 28.4425C32.5618 28.2522 32.5115 28.0413 32.5127 27.8275V23.5875H28.246C28.0269 23.5999 27.8081 23.5581 27.609 23.4656C27.4099 23.3732 27.2368 23.233 27.1049 23.0576C26.973 22.8822 26.8864 22.6769 26.8529 22.46C26.8194 22.2431 26.8399 22.0213 26.9127 21.8142C27.0677 21.4342 27.1209 21.0204 27.0671 20.6135C27.0134 20.2066 26.8544 19.8208 26.606 19.4942C26.4091 19.1597 26.1395 18.8739 25.8172 18.6578C25.4948 18.4417 25.128 18.3009 24.7438 18.2458C24.3597 18.1908 23.9681 18.2228 23.598 18.3397C23.2279 18.4565 22.8889 18.6552 22.606 18.9209C22.3433 19.1814 22.1377 19.4938 22.0023 19.8381C21.8668 20.1824 21.8045 20.5512 21.8193 20.9209C21.8224 21.2267 21.8812 21.5294 21.9927 21.8142C22.0632 22.0158 22.0842 22.2314 22.054 22.4429C22.0237 22.6543 21.9432 22.8554 21.819 23.0292C21.6949 23.203 21.5308 23.3444 21.3406 23.4416C21.1504 23.5388 20.9396 23.5888 20.726 23.5875H17.8193Z" fill="url(#paint1_linear_2691_4389)"/>
</g>
<defs>
<linearGradient id="paint0_linear_2691_4389" x1="0.662695" y1="18.4025" x2="51.7209" y2="44.2212" gradientUnits="userSpaceOnUse">
<stop stop-color="#D4D4D8"/>
<stop offset="1" stop-color="#71717A"/>
</linearGradient>
<linearGradient id="paint1_linear_2691_4389" x1="13.7453" y1="21.3695" x2="40.3876" y2="35.7015" gradientUnits="userSpaceOnUse">
<stop stop-color="#D4D4D8"/>
<stop offset="1" stop-color="#71717A"/>
</linearGradient>
<clipPath id="clip0_2691_4389">
<rect width="52" height="57" fill="white" transform="translate(0.152832 0.920898)"/>
</clipPath>
</defs>
</svg>
