<svg width="53" height="58" viewBox="0 0 53 58" fill="none" xmlns="http://www.w3.org/2000/svg">
<g clip-path="url(#clip0_2613_3853)">
<path d="M51.1519 39.8821C51.154 39.9844 51.1527 40.0863 51.148 40.1877C51.0782 41.7091 50.2566 43.1165 48.9325 43.9357L29.0918 56.2117C27.6504 57.1035 25.8212 57.1564 24.3387 56.3439L3.85107 45.1148C2.27157 44.2491 1.14238 42.6366 1.15291 41.0494L1.15293 41.0427L1.153 18.552C1.15301 18.5509 1.15302 18.5499 1.15302 18.5488C1.16485 16.9324 2.02611 15.4289 3.43319 14.5869L3.43322 14.587L3.44269 14.5812L22.9844 2.59084C24.4169 1.73583 26.2139 1.69824 27.6729 2.49791L27.6729 2.49792L27.6784 2.50094L48.6303 13.8121C48.6313 13.8126 48.6322 13.8131 48.6331 13.8136C50.0797 14.6078 50.9898 16.1132 51.026 17.7438L51.1517 39.8672L51.1517 39.8746L51.1519 39.8821Z" fill="white" stroke="url(#paint0_linear_2613_3853)" stroke-width="2"/>
<path d="M33.8193 42.2552H17.8193C16.7585 42.2552 15.7411 41.8337 14.9909 41.0836C14.2408 40.3334 13.8193 39.316 13.8193 38.2552V24.9218C13.8193 23.861 14.2408 22.8435 14.9909 22.0934C15.7411 21.3433 16.7585 20.9218 17.8193 20.9218H19.1527C19.1751 19.792 19.5558 18.6985 20.2399 17.7991C20.924 16.8996 21.8761 16.2407 22.9589 15.9173C24.0416 15.594 25.1992 15.6229 26.2644 16C27.3297 16.377 28.2477 17.0827 28.886 18.0152C29.4839 18.8674 29.8094 19.8808 29.8193 20.9218H33.8193C34.173 20.9218 34.5121 21.0623 34.7621 21.3124C35.0122 21.5624 35.1527 21.9015 35.1527 22.2552V26.2552C36.2825 26.2776 37.376 26.6583 38.2754 27.3424C39.1749 28.0265 39.8338 28.9786 40.1572 30.0613C40.4805 31.1441 40.4516 32.3016 40.0745 33.3669C39.6975 34.4322 38.9918 35.3502 38.0593 35.9885C37.2071 36.5864 36.1937 36.9118 35.1527 36.9218V36.9218V40.9218C35.1527 41.2755 35.0122 41.6146 34.7621 41.8646C34.5121 42.1147 34.173 42.2552 33.8193 42.2552ZM17.8193 23.5885C17.4657 23.5885 17.1266 23.729 16.8765 23.979C16.6265 24.2291 16.486 24.5682 16.486 24.9218V38.2552C16.486 38.6088 16.6265 38.9479 16.8765 39.198C17.1266 39.448 17.4657 39.5885 17.8193 39.5885H32.486V35.3485C32.4849 35.1347 32.5351 34.9238 32.6326 34.7335C32.7301 34.5432 32.8718 34.3792 33.046 34.2552C33.2196 34.1313 33.4204 34.051 33.6316 34.0208C33.8427 33.9907 34.058 34.0116 34.2593 34.0818C34.6393 34.2368 35.0532 34.2901 35.46 34.2363C35.8669 34.1825 36.2527 34.0236 36.5793 33.7752C36.9045 33.5769 37.1834 33.3113 37.3973 32.9962C37.6111 32.6811 37.7551 32.3239 37.8193 31.9485C37.8708 31.5699 37.8402 31.1847 37.7298 30.8189C37.6194 30.4532 37.4317 30.1154 37.1793 29.8285C36.8381 29.414 36.3734 29.1193 35.8529 28.9874C35.3325 28.8555 34.7835 28.8932 34.286 29.0952C34.0846 29.1654 33.8694 29.1863 33.6582 29.1562C33.4471 29.126 33.2463 29.0457 33.0727 28.9218C32.8985 28.7978 32.7567 28.6338 32.6593 28.4435C32.5618 28.2532 32.5115 28.0423 32.5127 27.8285V23.5885H28.246C28.0269 23.6009 27.8081 23.559 27.609 23.4666C27.4099 23.3742 27.2368 23.234 27.1049 23.0586C26.973 22.8832 26.8864 22.6779 26.8529 22.461C26.8194 22.2441 26.8399 22.0222 26.9127 21.8152C27.0677 21.4352 27.1209 21.0213 27.0671 20.6145C27.0134 20.2076 26.8544 19.8218 26.606 19.4952C26.4091 19.1607 26.1395 18.8749 25.8172 18.6588C25.4948 18.4427 25.128 18.3019 24.7438 18.2468C24.3597 18.1917 23.9681 18.2238 23.598 18.3407C23.2279 18.4575 22.8889 18.6561 22.606 18.9218C22.3433 19.1824 22.1377 19.4948 22.0023 19.8391C21.8668 20.1834 21.8045 20.5521 21.8193 20.9218C21.8224 21.2277 21.8812 21.5304 21.9927 21.8152C22.0632 22.0168 22.0842 22.2324 22.054 22.4438C22.0237 22.6553 21.9432 22.8564 21.819 23.0302C21.6949 23.204 21.5308 23.3454 21.3406 23.4426C21.1504 23.5397 20.9396 23.5898 20.726 23.5885H17.8193Z" fill="url(#paint1_linear_2613_3853)"/>
</g>
<defs>
<linearGradient id="paint0_linear_2613_3853" x1="0.662695" y1="18.4025" x2="51.7209" y2="44.2212" gradientUnits="userSpaceOnUse">
<stop stop-color="#F7D14C"/>
<stop offset="1" stop-color="#A38108"/>
</linearGradient>
<linearGradient id="paint1_linear_2613_3853" x1="13.7453" y1="21.3705" x2="40.3876" y2="35.7024" gradientUnits="userSpaceOnUse">
<stop stop-color="#F7D14C"/>
<stop offset="1" stop-color="#A38108"/>
</linearGradient>
<clipPath id="clip0_2613_3853">
<rect width="52" height="57" fill="white" transform="translate(0.152832 0.920898)"/>
</clipPath>
</defs>
</svg>
