<svg width="80" height="80" fill="none" xmlns="http://www.w3.org/2000/svg"><g clip-path="url(#a)"><path d="M87.926 29.04c.063.87.063 1.74.063 2.611 0 26.552-20.21 57.146-57.146 57.146-11.38 0-21.95-3.296-30.843-9.016 1.617.186 3.171.248 4.85.248 9.39 0 18.033-3.171 24.935-8.58-8.83-.188-16.23-5.97-18.779-13.93 1.244.187 2.488.31 3.793.31a21.24 21.24 0 0 0 5.286-.683C10.882 55.28 3.98 47.196 3.98 37.434v-.249a20.227 20.227 0 0 0 9.078 2.55c-5.41-3.607-8.954-9.763-8.954-16.727 0-3.731.995-7.151 2.736-10.136C16.727 25.06 31.589 33.019 48.253 33.89a22.677 22.677 0 0 1-.497-4.602c0-11.068 8.954-20.085 20.085-20.085a20.037 20.037 0 0 1 14.675 6.343c4.54-.87 8.892-2.55 12.748-4.85-1.493 4.663-4.664 8.58-8.83 11.068 4.042-.435 7.96-1.555 11.566-3.109a43.177 43.177 0 0 1-10.074 10.384z" fill="#D1E2E2"/></g><defs><clipPath id="a"><path fill="#fff" d="M0 0h80v80H0z"/></clipPath></defs></svg>