<svg width="116" height="135" viewBox="0 0 116 135" fill="none" xmlns="http://www.w3.org/2000/svg">
<g opacity="0.8">
<path d="M33.5 109.5L16.5 63L86.5 29L78 89.5L33.5 109.5Z" fill="url(#paint0_linear)"/>
<path d="M106 17.5L86.5 29L78 89.5L116 55L106 17.5Z" fill="url(#paint1_linear)"/>
<path d="M86.5 29L55.5 0L106 17.5L86.5 29Z" fill="url(#paint2_linear)"/>
<path d="M55.5 0L16.5 63L86.5 29L55.5 0Z" fill="url(#paint3_linear)"/>
<path d="M82 120.5L78 89.5L116 55L82 120.5Z" fill="url(#paint4_linear)"/>
<path d="M78 89.5L33.5 109.5L82 120.5L78 89.5Z" fill="url(#paint5_linear)"/>
<path d="M25 135L33.5 109.5L82 120.5L25 135Z" fill="url(#paint6_linear)"/>
<path d="M16.5 63L0 81L25 135L33.5 109.5L16.5 63Z" fill="url(#paint7_linear)"/>
<path d="M7 39.5L0 81L16.5 63L55.5 0L7 39.5Z" fill="url(#paint8_linear)"/>
</g>
<defs>
<linearGradient id="paint0_linear" x1="80.5" y1="32.5" x2="33" y2="111" gradientUnits="userSpaceOnUse">
<stop stop-color="#05D37F"/>
<stop offset="1" stop-color="#009155"/>
</linearGradient>
<linearGradient id="paint1_linear" x1="105" y1="17" x2="80.5" y2="91.5" gradientUnits="userSpaceOnUse">
<stop stop-color="#00DC82"/>
<stop offset="1" stop-color="#18724D"/>
</linearGradient>
<linearGradient id="paint2_linear" x1="61.5" y1="-0.499999" x2="99" y2="29.5" gradientUnits="userSpaceOnUse">
<stop stop-color="#00DC82"/>
<stop offset="1" stop-color="#32B17D"/>
</linearGradient>
<linearGradient id="paint3_linear" x1="51.5" y1="0" x2="51.5" y2="63" gradientUnits="userSpaceOnUse">
<stop stop-color="#0EAD6C"/>
<stop offset="1" stop-color="#00DD83"/>
</linearGradient>
<linearGradient id="paint4_linear" x1="99" y1="93.5" x2="88" y2="82" gradientUnits="userSpaceOnUse">
<stop stop-color="#00DC82"/>
<stop offset="1" stop-color="#03995B"/>
</linearGradient>
<linearGradient id="paint5_linear" x1="52.5" y1="97.5" x2="82" y2="127" gradientUnits="userSpaceOnUse">
<stop stop-color="#00DC82"/>
<stop offset="1" stop-color="#07824F"/>
</linearGradient>
<linearGradient id="paint6_linear" x1="41" y1="111" x2="53.5" y2="135" gradientUnits="userSpaceOnUse">
<stop stop-color="#038F56"/>
<stop offset="1" stop-color="#00CE7A"/>
</linearGradient>
<linearGradient id="paint7_linear" x1="14.5" y1="65.5" x2="21.5" y2="132.5" gradientUnits="userSpaceOnUse">
<stop stop-color="#00DC82"/>
<stop offset="1" stop-color="#0B7A4D"/>
</linearGradient>
<linearGradient id="paint8_linear" x1="12" y1="29.5" x2="28" y2="44.5" gradientUnits="userSpaceOnUse">
<stop stop-color="#00DC82"/>
<stop offset="1" stop-color="#06B86F"/>
</linearGradient>
</defs>
</svg>
