<svg width="177" height="168" viewBox="0 0 177 168" fill="none" xmlns="http://www.w3.org/2000/svg">
<g opacity="0.8">
<path d="M32.3068 57.7747L34.4877 100.198L123.554 137.342L141.064 110.33L80.1434 52.9111L32.3068 57.7747Z" fill="url(#paint0_linear)"/>
<path d="M24.3304 42.2383L34.4877 100.198L32.3068 57.7746L24.3304 42.2383Z" fill="url(#paint1_linear)"/>
<path d="M24.3303 42.2376L32.3067 57.7739L80.1433 52.9104L54.6995 26.3564L24.3303 42.2376Z" fill="url(#paint2_linear)"/>
<path d="M107.985 40.1293L80.1434 52.9104L54.6996 26.3564L107.985 40.1293Z" fill="url(#paint3_linear)"/>
<path d="M107.985 40.1294L80.1433 52.9105L141.064 110.329L161.149 108.642L107.985 40.1294Z" fill="url(#paint4_linear)"/>
<path d="M148.909 131.565L141.064 110.329L161.149 108.643L148.909 131.565Z" fill="#00DC82"/>
<path d="M123.554 137.341L148.909 131.565L141.064 110.329L123.554 137.341Z" fill="url(#paint5_linear)"/>
</g>
<defs>
<linearGradient id="paint0_linear" x1="47.3244" y1="55.1815" x2="126.714" y2="133.466" gradientUnits="userSpaceOnUse">
<stop stop-color="#1CED97"/>
<stop offset="1" stop-color="#007042"/>
</linearGradient>
<linearGradient id="paint1_linear" x1="20.0851" y1="70.389" x2="48.6417" y2="64.6427" gradientUnits="userSpaceOnUse">
<stop stop-color="#00DC82"/>
<stop offset="1" stop-color="#03B86E"/>
</linearGradient>
<linearGradient id="paint2_linear" x1="32.0718" y1="32.7438" x2="70.8219" y2="64.3417" gradientUnits="userSpaceOnUse">
<stop stop-color="#00DC82"/>
<stop offset="1" stop-color="#009C5C"/>
</linearGradient>
<linearGradient id="paint3_linear" x1="86.3861" y1="19.9368" x2="79.6844" y2="51.8912" gradientUnits="userSpaceOnUse">
<stop stop-color="#00DC82"/>
<stop offset="1" stop-color="#03975A"/>
</linearGradient>
<linearGradient id="paint4_linear" x1="86.9369" y1="44.5792" x2="162.887" y2="106.511" gradientUnits="userSpaceOnUse">
<stop stop-color="#00BB6F"/>
<stop offset="1" stop-color="#019F5F"/>
</linearGradient>
<linearGradient id="paint5_linear" x1="130.953" y1="122.729" x2="146.066" y2="135.053" gradientUnits="userSpaceOnUse">
<stop stop-color="#219C6A"/>
<stop offset="1" stop-color="#00DC82"/>
</linearGradient>
</defs>
</svg>
