<svg width="96" height="142" viewBox="0 0 96 142" fill="none" xmlns="http://www.w3.org/2000/svg">
<g opacity="0.8">
<path d="M0 97.5L6.5 107.5L10 131.5L0 97.5Z" fill="#009A5B"/>
<path d="M71.5 34.5L23 28.5L6.5 107.5L56 119.5L71.5 34.5Z" fill="url(#paint0_linear)"/>
<path d="M38.5 0L23 28.5L71.5 34.5L70.5 2.5L38.5 0Z" fill="url(#paint1_linear)"/>
<path d="M81.5 45.5L71.5 34.5L70.5 2.5L95.5 33L96 41.5L81.5 45.5Z" fill="url(#paint2_linear)"/>
<path d="M96 41.5L81.5 45.5L67.5 114L81 123L96 41.5Z" fill="url(#paint3_linear)"/>
<path d="M81.5 45.5L71.5 34.5L56 119.5L67.5 114L81.5 45.5Z" fill="url(#paint4_linear)"/>
<path d="M10 131.5L6.5 107.5L56 119.5L43.5 141.5L10 131.5Z" fill="url(#paint5_linear)"/>
<path d="M65 132.5L56 119.5L67.5 114L68.5 114.5L66.5 132L65 132.5Z" fill="url(#paint6_linear)"/>
<path d="M81 123L68.5 114.5L66.5 132L81 123Z" fill="url(#paint7_linear)"/>
<path d="M65 132.5L43.5 141.5L56 119.5L65 132.5Z" fill="url(#paint8_linear)"/>
<path d="M6.5 107.5L0 97.5L12 33L23 28.5L6.5 107.5Z" fill="#00BB6F"/>
<path d="M21 25L12 33L23 28.5L38.5 0L21 25Z" fill="#009A5B"/>
</g>
<defs>
<linearGradient id="paint0_linear" x1="59.5" y1="29.5" x2="18" y2="115" gradientUnits="userSpaceOnUse">
<stop stop-color="#00DC82"/>
<stop offset="1" stop-color="#21A871"/>
</linearGradient>
<linearGradient id="paint1_linear" x1="47.25" y1="0" x2="47.25" y2="34.5" gradientUnits="userSpaceOnUse">
<stop stop-color="#00DC82"/>
<stop offset="1" stop-color="#0AAA69"/>
</linearGradient>
<linearGradient id="paint2_linear" x1="71" y1="14" x2="95" y2="42" gradientUnits="userSpaceOnUse">
<stop stop-color="#00DC82"/>
<stop offset="1" stop-color="#30CE8D"/>
</linearGradient>
<linearGradient id="paint3_linear" x1="75.5" y1="76.5" x2="91.5" y2="81.5" gradientUnits="userSpaceOnUse">
<stop stop-color="#26C584"/>
<stop offset="1" stop-color="#089F62"/>
</linearGradient>
<linearGradient id="paint4_linear" x1="72.5" y1="37" x2="68.75" y2="119.5" gradientUnits="userSpaceOnUse">
<stop stop-color="#2AEA9B"/>
<stop offset="1" stop-color="#20B377"/>
</linearGradient>
<linearGradient id="paint5_linear" x1="31.5" y1="113.5" x2="25" y2="139" gradientUnits="userSpaceOnUse">
<stop stop-color="#0FBA74"/>
<stop offset="1" stop-color="#33E39B"/>
</linearGradient>
<linearGradient id="paint6_linear" x1="67" y1="119.5" x2="64" y2="131" gradientUnits="userSpaceOnUse">
<stop stop-color="#12BB76"/>
<stop offset="1" stop-color="#057748"/>
</linearGradient>
<linearGradient id="paint7_linear" x1="69.5" y1="116.5" x2="74" y2="128" gradientUnits="userSpaceOnUse">
<stop offset="0.000206421" stop-color="#13BF79"/>
<stop offset="1" stop-color="#047748"/>
</linearGradient>
<linearGradient id="paint8_linear" x1="55.5" y1="119" x2="54.25" y2="141.5" gradientUnits="userSpaceOnUse">
<stop stop-color="#10B16F"/>
<stop offset="1" stop-color="#18A96E"/>
</linearGradient>
</defs>
</svg>
