<svg width="68" height="96" viewBox="0 0 68 96" fill="none" xmlns="http://www.w3.org/2000/svg">
<g opacity="0.8">
<path d="M21.5 0L0 40.5L28.5 61L45.5 36L21.5 0Z" fill="url(#paint0_linear)"/>
<path d="M59 23.5L21.5 0L45.5 36L67.5 47L59 23.5Z" fill="url(#paint1_linear)"/>
<path d="M45.5 36L28.5 61L53 72.5L67.5 47L45.5 36Z" fill="url(#paint2_linear)"/>
<path d="M0 67.5V40.5L28.5 61L20.5 82.5L0 67.5Z" fill="url(#paint3_linear)"/>
<path d="M43 95.5L53 72.5L67.5 47L61.5 73.5L43 95.5Z" fill="url(#paint4_linear)"/>
<path d="M53 72.5L28.5 61L20.5 82.5L43 95.5L53 72.5Z" fill="url(#paint5_linear)"/>
</g>
<defs>
<linearGradient id="paint0_linear" x1="22.75" y1="0" x2="22.75" y2="61" gradientUnits="userSpaceOnUse">
<stop stop-color="#0DEE92"/>
<stop offset="1" stop-color="#04A563"/>
</linearGradient>
<linearGradient id="paint1_linear" x1="65" y1="30.5" x2="33.5" y2="16.5" gradientUnits="userSpaceOnUse">
<stop stop-color="#00DC82"/>
<stop offset="1" stop-color="#029C5D"/>
<stop offset="1" stop-color="#02B86E"/>
</linearGradient>
<linearGradient id="paint2_linear" x1="46" y1="36" x2="52.5" y2="72.5" gradientUnits="userSpaceOnUse">
<stop stop-color="#0AE48B"/>
<stop offset="1" stop-color="#129C64"/>
</linearGradient>
<linearGradient id="paint3_linear" x1="19.5" y1="54" x2="1.5" y2="70.5" gradientUnits="userSpaceOnUse">
<stop stop-color="#00DC82"/>
<stop offset="1" stop-color="#0C9A60"/>
</linearGradient>
<linearGradient id="paint4_linear" x1="59.5" y1="52" x2="55.5" y2="85" gradientUnits="userSpaceOnUse">
<stop stop-color="#00DC82"/>
<stop offset="1" stop-color="#03A361"/>
</linearGradient>
<linearGradient id="paint5_linear" x1="39.5" y1="63.5" x2="32" y2="92.5" gradientUnits="userSpaceOnUse">
<stop stop-color="#04C073"/>
<stop offset="1" stop-color="#00DC82"/>
</linearGradient>
</defs>
</svg>
