<svg width="145" height="139" viewBox="0 0 145 139" fill="none" xmlns="http://www.w3.org/2000/svg">
<g opacity="0.8">
<path d="M80.6555 76.2209L104.406 76.6204L122.486 93.1225L122.43 111.543L103.756 126.601L80.6555 76.2209Z" fill="url(#paint0_linear)"/>
<path d="M61.0902 102.698L80.6556 76.2213L103.756 126.601L79.2696 120.853L61.0902 102.698Z" fill="url(#paint1_linear)"/>
<path d="M49.2271 120.666L61.0902 102.698L79.2695 120.853L49.2271 120.666Z" fill="url(#paint2_linear)"/>
<path d="M78.787 58.9118L109.629 53.0785L104.406 76.6206L80.6555 76.2211L78.787 58.9118Z" fill="url(#paint3_linear)"/>
<path d="M86.8126 19.8543L109.63 53.0787L78.7871 58.912L64.7227 41.5882L86.8126 19.8543Z" fill="url(#paint4_linear)"/>
<path d="M61.3376 8.69059L86.8124 19.8543L64.7225 41.5881L49.645 39.1747L61.3376 8.69059Z" fill="url(#paint5_linear)"/>
<path d="M21.5367 29.7452L61.3376 8.69043L49.6451 39.1746L37.6512 53.5827L21.5367 29.7452Z" fill="url(#paint6_linear)"/>
<path d="M38.4983 78.7521L37.6513 53.5834L21.5367 29.7458L17.1614 63.2751L38.4983 78.7521Z" fill="url(#paint7_linear)"/>
<path d="M49.3922 39.1072L64.7227 41.5884L78.7871 58.9122L80.6556 76.2215L61.0903 102.698L38.4984 78.7519L37.6513 53.5832L49.3922 39.1072Z" fill="url(#paint8_linear)"/>
<path d="M49.2269 120.665L17.1613 63.2744L38.4982 78.7514L61.0901 102.698L49.2269 120.665Z" fill="url(#paint9_linear)"/>
</g>
<defs>
<linearGradient id="paint0_linear" x1="123.684" y1="106.863" x2="80.7051" y2="77.0475" gradientUnits="userSpaceOnUse">
<stop stop-color="#1CC47F"/>
<stop offset="1" stop-color="#00FF97"/>
</linearGradient>
<linearGradient id="paint1_linear" x1="91.9664" y1="125.069" x2="78.9793" y2="81.4653" gradientUnits="userSpaceOnUse">
<stop stop-color="#03CE7B"/>
<stop offset="0.953125" stop-color="#0CC87B"/>
</linearGradient>
<linearGradient id="paint2_linear" x1="46.3902" y1="123.159" x2="71.1668" y2="111.633" gradientUnits="userSpaceOnUse">
<stop stop-color="#00DC82"/>
<stop offset="1" stop-color="#02BB6F"/>
</linearGradient>
<linearGradient id="paint3_linear" x1="80.3627" y1="67.1961" x2="106.814" y2="65.6084" gradientUnits="userSpaceOnUse">
<stop stop-color="#06EB8D"/>
<stop offset="1" stop-color="#28CF8B"/>
</linearGradient>
<linearGradient id="paint4_linear" x1="98.3294" y1="37.58" x2="70.987" y2="50.5865" gradientUnits="userSpaceOnUse">
<stop stop-color="#20D58B"/>
<stop offset="1" stop-color="#00DC82"/>
</linearGradient>
<linearGradient id="paint5_linear" x1="57.3689" y1="40.7021" x2="74.337" y2="13.8004" gradientUnits="userSpaceOnUse">
<stop stop-color="#16D285"/>
<stop offset="1" stop-color="#13CB80"/>
<stop offset="1" stop-color="#13CB80"/>
</linearGradient>
<linearGradient id="paint6_linear" x1="45.6923" y1="43.8087" x2="33.0065" y2="16.2811" gradientUnits="userSpaceOnUse">
<stop stop-color="#00DC82"/>
<stop offset="1" stop-color="#1A9B66"/>
</linearGradient>
<linearGradient id="paint7_linear" x1="33.5944" y1="60.6295" x2="15.3606" y2="45.7129" gradientUnits="userSpaceOnUse">
<stop stop-color="#00DC82"/>
<stop offset="1" stop-color="#0EB36F"/>
</linearGradient>
<linearGradient id="paint8_linear" x1="73.6263" y1="86.2667" x2="37.7191" y2="53.3302" gradientUnits="userSpaceOnUse">
<stop stop-color="#00DC82"/>
<stop offset="1" stop-color="#1AAE72"/>
</linearGradient>
<linearGradient id="paint9_linear" x1="41.0628" y1="83.2629" x2="13.0429" y2="98.975" gradientUnits="userSpaceOnUse">
<stop stop-color="#00DC82"/>
<stop offset="1" stop-color="#108455"/>
</linearGradient>
</defs>
</svg>
