<svg width="438" height="236" viewBox="0 0 438 236" fill="none" xmlns="http://www.w3.org/2000/svg">
<path d="M228.189 173.96V235.96" stroke="#F4F4F5" stroke-width="0.748571"/>
<path d="M1.18921 173.96H191.189" stroke="#F4F4F5" stroke-width="0.748571"/>
<path d="M45.5 44.9602H194.189" stroke="#F4F4F5" stroke-width="0.748571"/>
<path d="M270.189 144.96H436.189" stroke="#F4F4F5" stroke-width="0.748571"/>
<path d="M1.18921 109.96L143.189 109.96" stroke="#F4F4F5" stroke-width="0.748571"/>
<path d="M45.1892 142.96H124.189" stroke="#F4F4F5" stroke-width="0.748571"/>
<path d="M274.189 109.96L417.189 109.96" stroke="#F4F4F5" stroke-width="0.748571"/>
<path d="M316.189 173.96L227.189 173.96" stroke="#F4F4F5" stroke-width="0.748571"/>
<path d="M352.189 27.9602V108.767V214.96" stroke="#F4F4F5" stroke-width="0.748571"/>
<path d="M316.189 0.960693V225.961" stroke="#F4F4F5" stroke-width="0.748571"/>
<path d="M245.189 57.9605L416.189 57.9602" stroke="#F4F4F5" stroke-width="0.748571"/>
<path d="M77.1892 225.96L77.1892 6.9602" stroke="#F4F4F5" stroke-width="0.748571"/>
<path d="M153.189 17.9602V69.9602" stroke="#F4F4F5" stroke-width="0.748571"/>
<path d="M45.1892 28.9602L45.1892 212.96" stroke="#F4F4F5" stroke-width="0.748571"/>
<path d="M124.189 44.9602V234.96" stroke="#F4F4F5" stroke-width="0.748571"/>
<path d="M176.189 173.96V219.96" stroke="#F4F4F5" stroke-width="0.748571"/>
<path d="M78.1892 204.96H393.189" stroke="#F4F4F5" stroke-width="0.748571"/>
<circle opacity="0.7" cx="124.189" cy="109.96" r="3.5" fill="#36E4DA"/>
<circle opacity="0.7" cx="45.1887" cy="173.96" r="3.5" fill="#36E4DA"/>
<circle opacity="0.7" cx="77.1887" cy="44.9602" r="3.5" fill="#36E4DA"/>
<circle opacity="0.7" cx="352.189" cy="57.9604" r="3.5" fill="#36E4DA"/>
<circle opacity="0.7" cx="316.189" cy="109.961" r="3.5" fill="#36E4DA"/>
<circle opacity="0.7" cx="176.189" cy="204.96" r="3.5" fill="#36E4DA"/>
<g filter="url(#filter0_d_1145_58082)">
<path d="M150.052 71.4524L150.055 71.4502L198.541 41.3638C198.541 41.3634 198.542 41.363 198.543 41.3627C202.755 38.8146 207.989 38.7089 212.274 41.0837L212.276 41.0849L264.262 69.4685C264.263 69.4687 264.263 69.4688 264.263 69.469C268.521 71.8293 271.2 76.2849 271.301 81.1758C271.301 81.1768 271.301 81.1778 271.301 81.1788L271.613 136.695L271.613 136.701C271.712 141.575 269.241 146.144 265.108 148.73L215.889 179.528C211.653 182.179 206.33 182.327 201.981 179.916L151.157 151.745C146.75 149.302 143.336 144.652 143.369 139.659L143.369 139.657L143.369 83.2182C143.369 83.2178 143.369 83.2174 143.369 83.217C143.401 78.4042 145.934 73.944 150.052 71.4524Z" stroke="#36E4DA" stroke-opacity="0.2" stroke-width="0.748571" shape-rendering="crispEdges"/>
</g>
<g filter="url(#filter1_d_1145_58082)">
<path d="M173.937 87.6502L201.753 70.1861C204.235 68.6664 207.32 68.6029 209.846 70.0194L239.669 86.4945C242.179 87.9024 243.758 90.5604 243.817 93.477L243.996 125.703C244.054 128.609 242.599 131.332 240.164 132.874L211.93 150.75C209.434 152.33 206.297 152.418 203.733 150.981L174.579 134.629C172 133.183 169.981 130.42 170 127.423L170 94.6637C170.019 91.7945 171.511 89.1356 173.937 87.6502Z" fill="white"/>
<path d="M174.328 88.2886L174.328 88.2886L174.335 88.2841L202.144 70.8245C202.145 70.8238 202.146 70.823 202.147 70.8223C204.399 69.4454 207.193 69.3899 209.48 70.6723L209.484 70.6747L239.303 87.1474C239.303 87.1478 239.304 87.1481 239.305 87.1485C241.577 88.4239 243.013 90.834 243.068 93.4869C243.068 93.4886 243.068 93.4903 243.069 93.4921L243.247 125.707L243.247 125.718C243.301 128.365 241.975 130.841 239.763 132.241L211.529 150.117C209.264 151.551 206.422 151.63 204.099 150.328L174.945 133.977C172.543 132.629 170.731 130.088 170.749 127.428H170.749V127.423L170.749 94.6685C170.749 94.6678 170.749 94.667 170.749 94.6662C170.767 92.054 172.126 89.637 174.328 88.2886Z" stroke="url(#paint0_linear_1145_58082)" stroke-width="1.49714"/>
</g>
<g filter="url(#filter2_d_1145_58082)">
<path d="M166.189 81.6892L166.189 81.6893L166.192 81.6871L201.522 59.8066C201.522 59.8062 201.523 59.8058 201.524 59.8055C204.562 57.9712 208.337 57.8955 211.427 59.6049L211.429 59.606L249.311 80.2484C249.311 80.2486 249.311 80.2488 249.312 80.249C252.382 81.9479 254.314 85.1546 254.387 88.6746C254.387 88.6756 254.387 88.6766 254.387 88.6776L254.614 129.052L254.614 129.057C254.686 132.566 252.904 135.855 249.922 137.717L214.057 160.116C211.001 162.024 207.162 162.13 204.025 160.395L166.991 139.907C163.803 138.143 161.345 134.791 161.368 131.207H161.368V131.205L161.368 90.1594C161.368 90.159 161.368 90.1586 161.368 90.1582C161.391 86.6939 163.219 83.4831 166.189 81.6892Z" stroke="#36E4DA" stroke-width="0.748571" shape-rendering="crispEdges"/>
</g>
<g filter="url(#filter3_d_1145_58082)">
<path d="M157.2 76.408L157.2 76.408L157.203 76.4058L199.675 50.1067C199.675 50.1063 199.676 50.106 199.677 50.1056C203.352 47.8868 207.92 47.795 211.658 49.8628L211.66 49.8639L257.199 74.6747C257.199 74.675 257.2 74.6752 257.2 74.6754C260.915 76.7307 263.252 80.6098 263.34 84.8675C263.34 84.8686 263.34 84.8696 263.34 84.8706L263.613 133.398L263.613 133.404C263.7 137.648 261.544 141.626 257.937 143.878L214.823 170.799C211.126 173.108 206.482 173.236 202.687 171.137L158.167 146.512C154.316 144.382 151.34 140.331 151.368 135.989L151.368 135.986L151.369 86.6526C151.369 86.6522 151.369 86.6518 151.369 86.6514C151.397 82.4612 153.607 78.5776 157.2 76.408Z" stroke="#36E4DA" stroke-opacity="0.3" stroke-width="0.748571" shape-rendering="crispEdges"/>
</g>
<path fill-rule="evenodd" clip-rule="evenodd" d="M195.833 100C195.833 99.6318 196.132 99.3333 196.5 99.3333H216.5C216.868 99.3333 217.167 99.6318 217.167 100V114.667C217.167 115.035 216.868 115.333 216.5 115.333H206.506C206.504 115.333 206.502 115.333 206.5 115.333C206.498 115.333 206.496 115.333 206.494 115.333H196.5C196.132 115.333 195.833 115.035 195.833 114.667V100ZM205.167 118H196.5C194.659 118 193.167 116.508 193.167 114.667V100C193.167 98.159 194.659 96.6667 196.5 96.6667H216.5C218.341 96.6667 219.833 98.159 219.833 100V114.667C219.833 116.508 218.341 118 216.5 118H207.833V120.667H213.167C213.903 120.667 214.5 121.264 214.5 122C214.5 122.736 213.903 123.333 213.167 123.333H206.5H199.833C199.097 123.333 198.5 122.736 198.5 122C198.5 121.264 199.097 120.667 199.833 120.667H205.167V118Z" fill="url(#paint1_linear_1145_58082)"/>
<defs>
<filter id="filter0_d_1145_58082" x="124.257" y="20.2631" width="166.469" height="180.474" filterUnits="userSpaceOnUse" color-interpolation-filters="sRGB">
<feFlood flood-opacity="0" result="BackgroundImageFix"/>
<feColorMatrix in="SourceAlpha" type="matrix" values="0 0 0 0 0 0 0 0 0 0 0 0 0 0 0 0 0 0 127 0" result="hardAlpha"/>
<feOffset/>
<feGaussianBlur stdDeviation="9.36846"/>
<feComposite in2="hardAlpha" operator="out"/>
<feColorMatrix type="matrix" values="0 0 0 0 1 0 0 0 0 1 0 0 0 0 1 0 0 0 1 0"/>
<feBlend mode="normal" in2="BackgroundImageFix" result="effect1_dropShadow_1145_58082"/>
<feBlend mode="normal" in="SourceGraphic" in2="effect1_dropShadow_1145_58082" result="shape"/>
</filter>
<filter id="filter1_d_1145_58082" x="151.263" y="50.2631" width="111.471" height="120.474" filterUnits="userSpaceOnUse" color-interpolation-filters="sRGB">
<feFlood flood-opacity="0" result="BackgroundImageFix"/>
<feColorMatrix in="SourceAlpha" type="matrix" values="0 0 0 0 0 0 0 0 0 0 0 0 0 0 0 0 0 0 127 0" result="hardAlpha"/>
<feOffset/>
<feGaussianBlur stdDeviation="9.36846"/>
<feComposite in2="hardAlpha" operator="out"/>
<feColorMatrix type="matrix" values="0 0 0 0 1 0 0 0 0 1 0 0 0 0 1 0 0 0 0.07 0"/>
<feBlend mode="normal" in2="BackgroundImageFix" result="effect1_dropShadow_1145_58082"/>
<feBlend mode="normal" in="SourceGraphic" in2="effect1_dropShadow_1145_58082" result="shape"/>
</filter>
<filter id="filter2_d_1145_58082" x="141.617" y="38.6229" width="132.751" height="142.754" filterUnits="userSpaceOnUse" color-interpolation-filters="sRGB">
<feFlood flood-opacity="0" result="BackgroundImageFix"/>
<feColorMatrix in="SourceAlpha" type="matrix" values="0 0 0 0 0 0 0 0 0 0 0 0 0 0 0 0 0 0 127 0" result="hardAlpha"/>
<feOffset/>
<feGaussianBlur stdDeviation="9.68854"/>
<feComposite in2="hardAlpha" operator="out"/>
<feColorMatrix type="matrix" values="0 0 0 0 1 0 0 0 0 1 0 0 0 0 1 0 0 0 1 0"/>
<feBlend mode="normal" in2="BackgroundImageFix" result="effect1_dropShadow_1145_58082"/>
<feBlend mode="normal" in="SourceGraphic" in2="effect1_dropShadow_1145_58082" result="shape"/>
</filter>
<filter id="filter3_d_1145_58082" x="132.257" y="29.2631" width="150.47" height="162.474" filterUnits="userSpaceOnUse" color-interpolation-filters="sRGB">
<feFlood flood-opacity="0" result="BackgroundImageFix"/>
<feColorMatrix in="SourceAlpha" type="matrix" values="0 0 0 0 0 0 0 0 0 0 0 0 0 0 0 0 0 0 127 0" result="hardAlpha"/>
<feOffset/>
<feGaussianBlur stdDeviation="9.36846"/>
<feComposite in2="hardAlpha" operator="out"/>
<feColorMatrix type="matrix" values="0 0 0 0 1 0 0 0 0 1 0 0 0 0 1 0 0 0 1 0"/>
<feBlend mode="normal" in2="BackgroundImageFix" result="effect1_dropShadow_1145_58082"/>
<feBlend mode="normal" in="SourceGraphic" in2="effect1_dropShadow_1145_58082" result="shape"/>
</filter>
<linearGradient id="paint0_linear_1145_58082" x1="170.726" y1="94.4557" x2="244.054" y2="130.693" gradientUnits="userSpaceOnUse">
<stop stop-color="#36E4DA"/>
<stop offset="1" stop-color="#117D77"/>
</linearGradient>
<linearGradient id="paint1_linear_1145_58082" x1="195" y1="97" x2="214.5" y2="124.5" gradientUnits="userSpaceOnUse">
<stop stop-color="#36E4DA"/>
<stop offset="1" stop-color="#117D77"/>
</linearGradient>
</defs>
</svg>
