<svg width="49" height="43" viewBox="0 0 49 43" fill="none" xmlns="http://www.w3.org/2000/svg">
<path d="M25.9764 9.24323C24.7324 9.24323 23.5394 9.71142 22.6598 10.5448C21.7802 11.3782 21.286 12.5085 21.286 13.6871V15.1684H10.3418C9.09779 15.1684 7.90477 15.6366 7.02515 16.47C6.14553 17.3033 5.65137 18.4337 5.65137 19.6122L5.65137 43.3129C5.65137 44.4915 6.14553 45.6218 7.02515 46.4552C7.90477 47.2885 9.09779 47.7567 10.3418 47.7567H50.9919C52.2358 47.7567 53.4289 47.2885 54.3085 46.4552C55.1881 45.6218 55.6823 44.4915 55.6823 43.3129V19.6122C55.6823 18.4337 55.1881 17.3033 54.3085 16.47C53.4289 15.6366 52.2358 15.1684 50.9919 15.1684H40.0476V13.6871C40.0476 12.5085 39.5534 11.3782 38.6738 10.5448C37.7942 9.71142 36.6012 9.24323 35.3572 9.24323H25.9764ZM25.9764 12.2058H35.3572C35.7719 12.2058 36.1695 12.3619 36.4627 12.6397C36.756 12.9175 36.9207 13.2942 36.9207 13.6871V15.1684H24.413V13.6871C24.413 13.2942 24.5777 12.9175 24.8709 12.6397C25.1641 12.3619 25.5618 12.2058 25.9764 12.2058V12.2058ZM31.8738 32.6891L52.5553 27.466V43.3129C52.5553 43.7057 52.3906 44.0825 52.0974 44.3603C51.8042 44.6381 51.4065 44.7942 50.9919 44.7942H10.3418C9.92711 44.7942 9.52943 44.6381 9.23623 44.3603C8.94302 44.0825 8.7783 43.7057 8.7783 43.3129V27.4631L29.4598 32.6891C30.2507 32.8886 31.0829 32.8886 31.8738 32.6891V32.6891ZM10.3418 18.131H50.9919C51.4065 18.131 51.8042 18.287 52.0974 18.5648C52.3906 18.8426 52.5553 19.2194 52.5553 19.6122V24.3998L31.0702 29.8272C30.8059 29.8941 30.5277 29.8941 30.2634 29.8272L8.7783 24.3998V19.6122C8.7783 19.2194 8.94302 18.8426 9.23623 18.5648C9.52943 18.287 9.92711 18.131 10.3418 18.131V18.131Z" fill="url(#paint0_linear_1459_54064)"/>
<defs>
<linearGradient id="paint0_linear_1459_54064" x1="5.51191" y1="17.4737" x2="48.9877" y2="47.855" gradientUnits="userSpaceOnUse">
<stop stop-color="#E4E4E7"/>
<stop offset="1" stop-color="#71717A"/>
</linearGradient>
</defs>
</svg>
