<svg width="44" height="34" viewBox="0 0 44 34" fill="none" xmlns="http://www.w3.org/2000/svg">
<path d="M20.9764 0.243225C19.7324 0.243225 18.5394 0.711417 17.6598 1.5448C16.7802 2.37819 16.286 3.50851 16.286 4.68709V6.16838H5.34176C4.09779 6.16838 2.90477 6.63657 2.02515 7.46996C1.14553 8.30335 0.651367 9.43366 0.651367 10.6122L0.651367 34.3129C0.651367 35.4915 1.14553 36.6218 2.02515 37.4552C2.90477 38.2885 4.09779 38.7567 5.34176 38.7567H45.9919C47.2358 38.7567 48.4289 38.2885 49.3085 37.4552C50.1881 36.6218 50.6823 35.4915 50.6823 34.3129V10.6122C50.6823 9.43366 50.1881 8.30335 49.3085 7.46996C48.4289 6.63657 47.2358 6.16838 45.9919 6.16838H35.0476V4.68709C35.0476 3.50851 34.5534 2.37819 33.6738 1.5448C32.7942 0.711417 31.6012 0.243225 30.3572 0.243225H20.9764ZM20.9764 3.2058H30.3572C30.7719 3.2058 31.1695 3.36187 31.4627 3.63966C31.756 3.91746 31.9207 4.29423 31.9207 4.68709V6.16838H19.413V4.68709C19.413 4.29423 19.5777 3.91746 19.8709 3.63966C20.1641 3.36187 20.5618 3.2058 20.9764 3.2058V3.2058ZM26.8738 23.6891L47.5553 18.466V34.3129C47.5553 34.7057 47.3906 35.0825 47.0974 35.3603C46.8042 35.6381 46.4065 35.7942 45.9919 35.7942H5.34176C4.92711 35.7942 4.52943 35.6381 4.23623 35.3603C3.94302 35.0825 3.7783 34.7057 3.7783 34.3129V18.4631L24.4598 23.6891C25.2507 23.8886 26.0829 23.8886 26.8738 23.6891V23.6891ZM5.34176 9.13096H45.9919C46.4065 9.13096 46.8042 9.28702 47.0974 9.56482C47.3906 9.84261 47.5553 10.2194 47.5553 10.6122V15.3998L26.0702 20.8272C25.8059 20.8941 25.5277 20.8941 25.2634 20.8272L3.7783 15.3998V10.6122C3.7783 10.2194 3.94302 9.84261 4.23623 9.56482C4.52943 9.28702 4.92711 9.13096 5.34176 9.13096V9.13096Z" fill="url(#paint0_linear_1291_55160)"/>
<defs>
<linearGradient id="paint0_linear_1291_55160" x1="0.511914" y1="8.47369" x2="43.9877" y2="38.855" gradientUnits="userSpaceOnUse">
<stop stop-color="white"/>
<stop offset="1" stop-color="#71717A"/>
</linearGradient>
</defs>
</svg>
