<svg width="167" height="22" viewBox="0 0 167 22" fill="none" xmlns="http://www.w3.org/2000/svg">
<g clip-path="url(#clip0_1453_53905)">
<path d="M11.3219 0C11.9008 0 12.4358 0.305983 12.725 0.803453L15.4566 7.52275V15.1151L11.3214 4.49993L3.53855 17.8689H0C0.0276372 17.8023 0.0592226 17.7372 0.0962367 17.674L9.9188 0.803453C10.208 0.305983 10.743 0 11.3219 0Z" fill="black"/>
<path d="M18.3505 3.42313C18.9294 3.42313 19.4644 3.72911 19.7536 4.22658L27.6426 17.7718C27.6796 17.8349 27.7117 17.9001 27.7393 17.9667H24.1978L18.351 7.92355L15.457 15.1112V7.52972L16.9485 4.22658C17.2377 3.7296 17.7726 3.42313 18.351 3.42313H18.3505Z" fill="#00DC82"/>
<path d="M31.8994 17.8331V4.57435H34.8499L37.9752 11.9992C38.3763 12.9589 38.7063 13.9628 38.9651 15.0109C39.2369 13.9628 39.5669 12.9589 39.9551 11.9992L43.0803 4.57435H46.0308V17.8331H43.6433V11.6015C43.6433 10.5534 43.6821 9.49271 43.7597 8.41938C43.4103 9.45482 43.035 10.4524 42.6339 11.4121L39.9357 17.8331H37.9946L35.277 11.3931C34.8888 10.4461 34.5199 9.45482 34.1705 8.41938C34.2482 9.49271 34.287 10.5534 34.287 11.6015V17.8331H31.8994Z" fill="black"/>
<path d="M52.3843 8.13526C53.2125 8.13526 53.9436 8.28679 54.5777 8.58985C55.2248 8.88028 55.723 9.29698 56.0724 9.83996C56.4347 10.3703 56.6159 10.989 56.6159 11.6962V17.8331H54.2672V16.4125C54.0601 16.8923 53.6913 17.2775 53.1607 17.5679C52.6431 17.8457 52.0349 17.9846 51.336 17.9846C50.7019 17.9846 50.1325 17.8646 49.6279 17.6247C49.1361 17.3722 48.7543 17.0312 48.4826 16.6019C48.2108 16.16 48.0749 15.6675 48.0749 15.1245C48.0749 14.2027 48.4114 13.4703 49.0843 12.9273C49.7573 12.3844 50.6437 12.1129 51.7437 12.1129H53.5489C53.7819 12.1129 53.9566 12.0561 54.073 11.9424C54.2024 11.8288 54.2672 11.6709 54.2672 11.4689C54.2672 11.0017 54.086 10.6229 53.7236 10.3324C53.3742 10.0294 52.8889 9.87784 52.2678 9.87784C51.6596 9.87784 51.1678 10.0357 50.7925 10.3514C50.4302 10.6671 50.2361 11.0522 50.2102 11.5068H48.0749C48.1138 10.8754 48.3144 10.3072 48.6767 9.80208C49.039 9.28435 49.5373 8.88028 50.1714 8.58985C50.8184 8.28679 51.556 8.13526 52.3843 8.13526ZM51.899 16.261C52.6366 16.261 53.2125 16.0337 53.6266 15.5791C54.0536 15.1245 54.2672 14.531 54.2672 13.7986V13.6471H52.0737C51.569 13.6471 51.1613 13.7734 50.8508 14.0259C50.5402 14.2785 50.3849 14.6131 50.3849 15.0298C50.3849 15.396 50.5208 15.6927 50.7925 15.92C51.0772 16.1473 51.446 16.261 51.899 16.261Z" fill="black"/>
<path d="M62.1363 17.9846C60.9458 17.9846 59.9817 17.6879 59.244 17.0944C58.5193 16.4883 58.1311 15.6738 58.0793 14.651H60.2534C60.3052 15.1056 60.4993 15.4654 60.8358 15.7306C61.1722 15.9958 61.6057 16.1284 62.1363 16.1284C62.5892 16.1284 62.9581 16.0337 63.2428 15.8443C63.5404 15.6422 63.6892 15.396 63.6892 15.1056C63.6892 14.8278 63.5986 14.6131 63.4175 14.4616C63.2492 14.2974 63.0292 14.1838 62.7575 14.1206C62.4987 14.0449 62.1298 13.9628 61.651 13.8744C60.9522 13.7481 60.3828 13.6092 59.9428 13.4577C59.5028 13.3062 59.1211 13.0347 58.7976 12.6432C58.487 12.2518 58.3317 11.6962 58.3317 10.9764C58.3317 10.4334 58.4805 9.94729 58.7782 9.51796C59.0887 9.076 59.5093 8.73506 60.0399 8.49514C60.5834 8.25522 61.1852 8.13526 61.8451 8.13526C62.9839 8.13526 63.9157 8.41938 64.6404 8.98761C65.3651 9.54322 65.7533 10.2882 65.8051 11.2227H63.631C63.5663 10.806 63.3657 10.4776 63.0292 10.2377C62.6928 9.9978 62.3175 9.87784 61.9034 9.87784C61.4763 9.87784 61.1334 9.97255 60.8746 10.162C60.6158 10.3387 60.4864 10.585 60.4864 10.9007C60.4864 11.2795 60.6416 11.5383 60.9522 11.6772C61.2757 11.8035 61.7804 11.9108 62.4663 11.9992C63.191 12.1003 63.7798 12.2265 64.2327 12.3781C64.6857 12.517 65.0804 12.7948 65.4168 13.2115C65.7533 13.6155 65.9215 14.2153 65.9215 15.0109C65.9215 15.9074 65.5721 16.6272 64.8733 17.1701C64.1874 17.7131 63.2751 17.9846 62.1363 17.9846Z" fill="black"/>
<path d="M68.6596 5.40775H71.0472V8.28679H73.7647V10.2377H71.0472V14.4048C71.0472 14.8846 71.1701 15.2508 71.416 15.5033C71.6619 15.7433 72.0113 15.8632 72.4642 15.8632H73.7647V17.8331H72.1924C71.1054 17.8331 70.2448 17.5427 69.6107 16.9618C68.9766 16.3683 68.6596 15.5475 68.6596 14.4995V10.2377H66.7379V8.28679H68.6596V5.40775Z" fill="black"/>
<path d="M84.1606 14.651C83.9794 15.6612 83.4682 16.4693 82.6271 17.0754C81.7859 17.6816 80.7636 17.9846 79.5601 17.9846C78.5378 17.9846 77.6448 17.751 76.8813 17.2838C76.1308 16.8166 75.5549 16.2042 75.1537 15.4465C74.7655 14.6889 74.5714 13.8807 74.5714 13.0221C74.5714 12.1508 74.7526 11.3489 75.1149 10.6165C75.4772 9.87153 76.0208 9.27173 76.7454 8.81714C77.4701 8.36256 78.3436 8.13526 79.366 8.13526C80.4012 8.13526 81.2748 8.35624 81.9865 8.7982C82.7112 9.22753 83.2482 9.79576 83.5976 10.5029C83.947 11.1974 84.1217 11.9424 84.1217 12.7379C84.1217 13.0157 84.1088 13.2809 84.0829 13.5335H76.8619C76.9525 14.3037 77.2372 14.9162 77.716 15.3707C78.1948 15.8253 78.8095 16.0526 79.5601 16.0526C80.1683 16.0526 80.6665 15.9327 81.0548 15.6927C81.443 15.4528 81.7018 15.1056 81.8312 14.651H84.1606ZM79.366 9.87784C77.9813 9.87784 77.166 10.585 76.9201 11.9992H81.7341C81.6824 11.3679 81.443 10.8565 81.0159 10.465C80.6018 10.0736 80.0518 9.87784 79.366 9.87784Z" fill="black"/>
<path d="M90.2713 10.2377C89.5466 10.2377 89.0096 10.5155 88.6602 11.0711C88.3237 11.6141 88.1555 12.3654 88.1555 13.3251V17.8331H85.7679V8.28679H88.1555V9.97254C88.4014 9.36643 88.7184 8.9371 89.1067 8.68455C89.5078 8.41938 90.0255 8.28679 90.6596 8.28679H91.8048V10.2377H90.2713Z" fill="black"/>
<path d="M95.5674 17.8331H93.1798V8.28679H95.5674V17.8331ZM93.1022 6.79045V4.19553H95.6645V6.79045H93.1022Z" fill="black"/>
<path d="M97.7104 17.8331V8.28679H100.098V9.76419C100.37 9.24647 100.771 8.84871 101.302 8.57091C101.832 8.28048 102.447 8.13526 103.146 8.13526C104.246 8.13526 105.126 8.48883 105.786 9.19596C106.458 9.89047 106.795 10.7996 106.795 11.9235V17.8331H104.407V12.4159C104.407 11.7593 104.22 11.229 103.844 10.8249C103.469 10.4082 102.977 10.1998 102.369 10.1998C101.696 10.1998 101.146 10.4271 100.719 10.8817C100.305 11.3363 100.098 11.9172 100.098 12.6243V17.8331H97.7104Z" fill="black"/>
<path d="M116.018 8.28679H118.405V18.3634C118.405 19.361 118.069 20.1628 117.396 20.7689C116.723 21.3877 115.837 21.6971 114.737 21.6971H109.903V19.8408H114.407C114.885 19.8408 115.274 19.683 115.571 19.3673C115.882 19.0516 116.037 18.6412 116.037 18.1361V16.7724C115.791 17.1386 115.409 17.4353 114.892 17.6626C114.374 17.8773 113.811 17.9846 113.203 17.9846C112.232 17.9846 111.398 17.7826 110.699 17.3785C110 16.9618 109.463 16.3809 109.088 15.6359C108.726 14.8909 108.544 14.0322 108.544 13.0599C108.544 12.0876 108.726 11.229 109.088 10.484C109.463 9.73894 109.994 9.16439 110.68 8.76032C111.378 8.34362 112.207 8.13526 113.164 8.13526C113.772 8.13526 114.329 8.24891 114.834 8.4762C115.338 8.69087 115.733 8.98761 116.018 9.36643V8.28679ZM113.533 15.9769C114.335 15.9769 114.976 15.7117 115.455 15.1813C115.947 14.651 116.192 13.9439 116.192 13.0599C116.192 12.176 115.947 11.4689 115.455 10.9385C114.976 10.4082 114.335 10.143 113.533 10.143C112.744 10.143 112.11 10.4082 111.631 10.9385C111.152 11.4689 110.913 12.176 110.913 13.0599C110.913 13.9439 111.152 14.651 111.631 15.1813C112.11 15.7117 112.744 15.9769 113.533 15.9769Z" fill="black"/>
<path d="M125.165 17.8331V4.57435H127.921L132.444 11.753C133 12.6369 133.518 13.5713 133.997 14.5563C133.88 13.4703 133.822 12.4096 133.822 11.3742V4.57435H136.384V17.8331H133.609L129.086 10.6734C128.529 9.78945 128.018 8.85502 127.552 7.87009C127.656 8.94342 127.708 10.0041 127.708 11.0522V17.8331H125.165Z" fill="#00DC82"/>
<path d="M147.816 8.28679V17.8331H145.429V16.3557C145.157 16.8734 144.756 17.2775 144.225 17.5679C143.695 17.8457 143.08 17.9846 142.381 17.9846C141.657 17.9846 141.016 17.8268 140.46 17.5111C139.916 17.1828 139.495 16.7345 139.198 16.1663C138.9 15.598 138.751 14.9414 138.751 14.1964V8.28679H141.12V13.7039C141.12 14.3606 141.307 14.8972 141.682 15.3139C142.071 15.718 142.562 15.92 143.158 15.92C143.831 15.92 144.374 15.6927 144.788 15.2382C145.215 14.7836 145.429 14.2027 145.429 13.4956V8.28679H147.816Z" fill="#00DC82"/>
<path d="M155.119 12.8516L158.652 17.8331H156.129L153.838 14.651L151.548 17.8331H149.005L152.538 12.8516L149.277 8.28679H151.878L153.838 11.0332L155.779 8.28679H158.4L155.119 12.8516Z" fill="#00DC82"/>
<path d="M161.11 5.40775H163.497V8.28679H166.215V10.2377H163.497V14.4048C163.497 14.8846 163.62 15.2508 163.866 15.5033C164.112 15.7433 164.461 15.8632 164.914 15.8632H166.215V17.8331H164.643C163.556 17.8331 162.695 17.5427 162.061 16.9618C161.427 16.3683 161.11 15.5475 161.11 14.4995V10.2377H159.188V8.28679H161.11V5.40775Z" fill="#00DC82"/>
</g>
<defs>
<clipPath id="clip0_1453_53905">
<rect width="166.467" height="22" fill="black"/>
</clipPath>
</defs>
</svg>
