<svg width="438" height="237" viewBox="0 0 438 237" fill="none" xmlns="http://www.w3.org/2000/svg">
<path d="M228.189 174.46V236.46" stroke="#E4E4E7" stroke-width="0.748571"/>
<path d="M1.18945 174.46H191.189" stroke="#E4E4E7" stroke-width="0.748571"/>
<path d="M45.5 45.4602H194.189" stroke="#E4E4E7" stroke-width="0.748571"/>
<path d="M270.189 145.46H436.189" stroke="#E4E4E7" stroke-width="0.748571"/>
<path d="M1.18945 110.46L143.189 110.46" stroke="#E4E4E7" stroke-width="0.748571"/>
<path d="M45.1895 143.46H124.189" stroke="#E4E4E7" stroke-width="0.748571"/>
<path d="M274.189 110.46L417.189 110.46" stroke="#E4E4E7" stroke-width="0.748571"/>
<path d="M316.189 174.46L227.189 174.46" stroke="#E4E4E7" stroke-width="0.748571"/>
<path d="M352.189 28.4602V109.267V215.46" stroke="#E4E4E7" stroke-width="0.748571"/>
<path d="M316.189 1.46069V226.461" stroke="#E4E4E7" stroke-width="0.748571"/>
<path d="M245.189 58.4605L416.189 58.4602" stroke="#E4E4E7" stroke-width="0.748571"/>
<path d="M77.1895 226.46L77.1895 7.4602" stroke="#E4E4E7" stroke-width="0.748571"/>
<path d="M153.189 18.4602V70.4602" stroke="#E4E4E7" stroke-width="0.748571"/>
<path d="M45.1895 29.4602L45.1895 213.46" stroke="#E4E4E7" stroke-width="0.748571"/>
<path d="M124.189 45.4602V235.46" stroke="#E4E4E7" stroke-width="0.748571"/>
<path d="M176.189 174.46V220.46" stroke="#E4E4E7" stroke-width="0.748571"/>
<path d="M78.1895 205.46H393.189" stroke="#E4E4E7" stroke-width="0.748571"/>
<circle opacity="0.7" cx="124.189" cy="110.46" r="3.5" fill="#A1A1AA"/>
<circle opacity="0.7" cx="45.189" cy="174.46" r="3.5" fill="#A1A1AA"/>
<circle opacity="0.7" cx="77.189" cy="45.4602" r="3.5" fill="#A1A1AA"/>
<circle opacity="0.7" cx="352.189" cy="58.4604" r="3.5" fill="#A1A1AA"/>
<circle opacity="0.7" cx="316.189" cy="110.461" r="3.5" fill="#A1A1AA"/>
<circle opacity="0.7" cx="176.189" cy="205.46" r="3.5" fill="#A1A1AA"/>
<g filter="url(#filter0_d_1145_59580)">
<path d="M150.052 71.9524L150.055 71.9502L198.541 41.8638C198.541 41.8634 198.542 41.863 198.543 41.8627C202.755 39.3146 207.989 39.2089 212.274 41.5837L212.276 41.5849L264.262 69.9685C264.263 69.9687 264.263 69.9688 264.263 69.969C268.521 72.3293 271.2 76.7849 271.301 81.6758C271.301 81.6768 271.301 81.6778 271.301 81.6788L271.613 137.195L271.613 137.201C271.712 142.075 269.241 146.644 265.108 149.23L215.889 180.028C211.653 182.679 206.33 182.827 201.981 180.416L151.157 152.245C146.75 149.802 143.336 145.152 143.369 140.159L143.369 140.157L143.369 83.7182C143.369 83.7178 143.369 83.7174 143.369 83.717C143.401 78.9042 145.934 74.444 150.052 71.9524Z" stroke="#D4D4D8" stroke-opacity="0.25" stroke-width="0.748571" shape-rendering="crispEdges"/>
</g>
<g filter="url(#filter1_d_1145_59580)">
<path d="M174.937 88.1502L202.753 70.6861C205.235 69.1664 208.32 69.1029 210.846 70.5194L240.669 86.9945C243.179 88.4024 244.758 91.0604 244.817 93.977L244.996 126.203C245.054 129.109 243.599 131.832 241.164 133.374L212.93 151.25C210.434 152.83 207.297 152.918 204.733 151.481L175.579 135.129C173 133.683 170.981 130.92 171 127.923L171 95.1637C171.019 92.2945 172.511 89.6356 174.937 88.1502Z" fill="white"/>
<path d="M175.328 88.7886L175.328 88.7886L175.335 88.7841L203.144 71.3245C203.145 71.3238 203.146 71.323 203.147 71.3223C205.399 69.9454 208.193 69.8899 210.48 71.1723L210.484 71.1747L240.303 87.6474C240.303 87.6478 240.304 87.6481 240.305 87.6485C242.577 88.9239 244.013 91.334 244.068 93.9869C244.068 93.9886 244.068 93.9903 244.069 93.9921L244.247 126.207L244.247 126.218C244.301 128.865 242.975 131.341 240.763 132.741L212.529 150.617C210.264 152.051 207.422 152.13 205.099 150.828L175.945 134.477C173.543 133.129 171.731 130.588 171.749 127.928H171.749V127.923L171.749 95.1685C171.749 95.1678 171.749 95.167 171.749 95.1662C171.767 92.554 173.126 90.137 175.328 88.7886Z" stroke="url(#paint0_linear_1145_59580)" stroke-width="1.49714"/>
</g>
<g filter="url(#filter2_d_1145_59580)">
<path d="M166.189 82.1892L166.189 82.1893L166.192 82.1871L201.522 60.3066C201.522 60.3062 201.523 60.3058 201.524 60.3055C204.562 58.4712 208.337 58.3955 211.427 60.1049L211.429 60.106L249.311 80.7484C249.311 80.7486 249.311 80.7488 249.312 80.749C252.382 82.4479 254.314 85.6546 254.387 89.1746C254.387 89.1756 254.387 89.1766 254.387 89.1776L254.614 129.552L254.614 129.557C254.686 133.066 252.904 136.355 249.922 138.217L214.057 160.616C211.001 162.524 207.162 162.63 204.025 160.895L166.991 140.407C163.803 138.643 161.345 135.291 161.368 131.707H161.368V131.705L161.368 90.6594C161.368 90.659 161.368 90.6586 161.368 90.6582C161.391 87.1939 163.219 83.9831 166.189 82.1892Z" stroke="#D4D4D8" stroke-width="0.748571" shape-rendering="crispEdges"/>
</g>
<g filter="url(#filter3_d_1145_59580)">
<path d="M157.2 76.908L157.2 76.908L157.203 76.9058L199.674 50.6067C199.675 50.6063 199.676 50.606 199.676 50.6056C203.352 48.3868 207.92 48.295 211.658 50.3628L211.66 50.3639L257.199 75.1747C257.199 75.175 257.2 75.1752 257.2 75.1754C260.915 77.2307 263.252 81.1098 263.34 85.3675C263.34 85.3686 263.34 85.3696 263.34 85.3706L263.613 133.898L263.613 133.904C263.7 138.148 261.544 142.126 257.937 144.378L214.823 171.299C211.126 173.608 206.481 173.736 202.686 171.637L158.167 147.012C154.316 144.882 151.34 140.831 151.368 136.489L151.368 136.486L151.368 87.1526C151.368 87.1522 151.368 87.1518 151.368 87.1514C151.396 82.9612 153.607 79.0776 157.2 76.908Z" stroke="#D4D4D8" stroke-opacity="0.3" stroke-width="0.748571" shape-rendering="crispEdges"/>
</g>
<path d="M225.321 107.994L221.765 101.186C221.484 100.65 221.005 100.246 220.429 100.06C219.854 99.8731 219.228 99.9196 218.687 100.189L215.319 101.88H212.949L208.179 99.7121C207.678 99.4935 207.117 99.4527 206.589 99.5965L199.551 101.649L196.313 100.03C195.769 99.7655 195.144 99.7231 194.569 99.912C193.994 100.101 193.516 100.506 193.235 101.042L189.679 107.849C189.536 108.12 189.449 108.417 189.421 108.722C189.394 109.027 189.428 109.335 189.52 109.627C189.716 110.216 190.137 110.705 190.691 110.986L194.16 112.72L201.964 118.819C202.219 119.021 202.515 119.164 202.832 119.238L211.214 121.334C211.394 121.38 211.578 121.405 211.764 121.406C212.38 121.401 212.97 121.158 213.411 120.727L218.73 115.408H218.744C218.744 115.394 218.759 115.394 218.759 115.379H218.788L220.941 112.821L224.309 111.13C224.584 110.996 224.83 110.808 225.031 110.577C225.232 110.346 225.385 110.077 225.48 109.786C225.573 109.491 225.606 109.182 225.579 108.874C225.552 108.566 225.464 108.267 225.321 107.994ZM217.718 113.023L212.226 109.034C212.026 108.89 211.784 108.813 211.537 108.816C211.29 108.818 211.05 108.9 210.853 109.049L209.003 110.436C208.4 110.88 207.671 111.119 206.922 111.119C206.173 111.119 205.444 110.88 204.841 110.436L204.06 109.844L209.711 104.193H214.9L218.831 111.737L217.718 113.023ZM195.287 102.111L197.831 103.383L194.275 110.191L191.732 108.919L195.287 102.111ZM211.764 119.094L203.395 116.998L196.255 111.419L200.187 103.875L207.225 101.822L208.338 102.328L208.078 102.545L202.427 108.211C202.191 108.443 202.008 108.725 201.89 109.035C201.773 109.346 201.725 109.678 201.748 110.009C201.771 110.34 201.866 110.662 202.026 110.953C202.185 111.243 202.406 111.496 202.673 111.694L203.453 112.286C204.456 113.032 205.672 113.435 206.922 113.435C208.172 113.435 209.388 113.032 210.391 112.286L211.561 111.405L216.128 114.729L211.764 119.094ZM223.268 109.063L220.725 110.35L217.169 103.542L219.713 102.256L223.268 109.063ZM206.315 123.545C206.251 123.796 206.105 124.019 205.901 124.178C205.698 124.338 205.446 124.425 205.187 124.427C205.094 124.427 205.002 124.412 204.913 124.384L200.548 123.3C200.194 123.21 199.867 123.037 199.594 122.794L196.342 119.961C196.228 119.862 196.135 119.742 196.067 119.607C196 119.473 195.96 119.326 195.949 119.176C195.938 119.025 195.957 118.874 196.005 118.731C196.052 118.588 196.128 118.456 196.226 118.342C196.325 118.228 196.445 118.135 196.58 118.068C196.715 118 196.862 117.96 197.012 117.949C197.162 117.938 197.313 117.957 197.456 118.005C197.599 118.053 197.731 118.128 197.845 118.227L201.112 121.059L205.462 122.143C205.76 122.219 206.016 122.408 206.175 122.67C206.335 122.932 206.385 123.246 206.315 123.545Z" fill="url(#paint1_linear_1145_59580)"/>
<defs>
<filter id="filter0_d_1145_59580" x="124.257" y="20.7631" width="166.469" height="180.474" filterUnits="userSpaceOnUse" color-interpolation-filters="sRGB">
<feFlood flood-opacity="0" result="BackgroundImageFix"/>
<feColorMatrix in="SourceAlpha" type="matrix" values="0 0 0 0 0 0 0 0 0 0 0 0 0 0 0 0 0 0 127 0" result="hardAlpha"/>
<feOffset/>
<feGaussianBlur stdDeviation="9.36846"/>
<feComposite in2="hardAlpha" operator="out"/>
<feColorMatrix type="matrix" values="0 0 0 0 0.831373 0 0 0 0 0.831373 0 0 0 0 0.847059 0 0 0 0.54 0"/>
<feBlend mode="normal" in2="BackgroundImageFix" result="effect1_dropShadow_1145_59580"/>
<feBlend mode="normal" in="SourceGraphic" in2="effect1_dropShadow_1145_59580" result="shape"/>
</filter>
<filter id="filter1_d_1145_59580" x="152.263" y="50.7631" width="111.471" height="120.474" filterUnits="userSpaceOnUse" color-interpolation-filters="sRGB">
<feFlood flood-opacity="0" result="BackgroundImageFix"/>
<feColorMatrix in="SourceAlpha" type="matrix" values="0 0 0 0 0 0 0 0 0 0 0 0 0 0 0 0 0 0 127 0" result="hardAlpha"/>
<feOffset/>
<feGaussianBlur stdDeviation="9.36846"/>
<feComposite in2="hardAlpha" operator="out"/>
<feColorMatrix type="matrix" values="0 0 0 0 1 0 0 0 0 1 0 0 0 0 1 0 0 0 0.07 0"/>
<feBlend mode="normal" in2="BackgroundImageFix" result="effect1_dropShadow_1145_59580"/>
<feBlend mode="normal" in="SourceGraphic" in2="effect1_dropShadow_1145_59580" result="shape"/>
</filter>
<filter id="filter2_d_1145_59580" x="141.617" y="39.1229" width="132.751" height="142.754" filterUnits="userSpaceOnUse" color-interpolation-filters="sRGB">
<feFlood flood-opacity="0" result="BackgroundImageFix"/>
<feColorMatrix in="SourceAlpha" type="matrix" values="0 0 0 0 0 0 0 0 0 0 0 0 0 0 0 0 0 0 127 0" result="hardAlpha"/>
<feOffset/>
<feGaussianBlur stdDeviation="9.68854"/>
<feComposite in2="hardAlpha" operator="out"/>
<feColorMatrix type="matrix" values="0 0 0 0 0.831373 0 0 0 0 0.831373 0 0 0 0 0.847059 0 0 0 0.54 0"/>
<feBlend mode="normal" in2="BackgroundImageFix" result="effect1_dropShadow_1145_59580"/>
<feBlend mode="normal" in="SourceGraphic" in2="effect1_dropShadow_1145_59580" result="shape"/>
</filter>
<filter id="filter3_d_1145_59580" x="132.257" y="29.7631" width="150.47" height="162.474" filterUnits="userSpaceOnUse" color-interpolation-filters="sRGB">
<feFlood flood-opacity="0" result="BackgroundImageFix"/>
<feColorMatrix in="SourceAlpha" type="matrix" values="0 0 0 0 0 0 0 0 0 0 0 0 0 0 0 0 0 0 127 0" result="hardAlpha"/>
<feOffset/>
<feGaussianBlur stdDeviation="9.36846"/>
<feComposite in2="hardAlpha" operator="out"/>
<feColorMatrix type="matrix" values="0 0 0 0 0.831373 0 0 0 0 0.831373 0 0 0 0 0.847059 0 0 0 0.54 0"/>
<feBlend mode="normal" in2="BackgroundImageFix" result="effect1_dropShadow_1145_59580"/>
<feBlend mode="normal" in="SourceGraphic" in2="effect1_dropShadow_1145_59580" result="shape"/>
</filter>
<linearGradient id="paint0_linear_1145_59580" x1="171.726" y1="94.9557" x2="245.054" y2="131.193" gradientUnits="userSpaceOnUse">
<stop stop-color="#D4D4D8"/>
<stop offset="1" stop-color="#3F3F46"/>
</linearGradient>
<linearGradient id="paint1_linear_1145_59580" x1="189.311" y1="104.836" x2="218.37" y2="127.534" gradientUnits="userSpaceOnUse">
<stop stop-color="#D4D4D8"/>
<stop offset="1" stop-color="#3F3F46"/>
</linearGradient>
</defs>
</svg>
