<?xml version="1.0" encoding="utf-8"?>
<!-- Generator: Adobe Illustrator 26.3.1, SVG Export Plug-In . SVG Version: 6.00 Build 0)  -->
<svg version="1.1" id="Layer_1" xmlns="http://www.w3.org/2000/svg" xmlns:xlink="http://www.w3.org/1999/xlink" x="0px" y="0px"
	 width="1000px" height="1000px" viewBox="0 0 1000 1000" enable-background="new 0 0 1000 1000" xml:space="preserve">
<rect x="-0.1" y="0.5" fill="#06192E" width="1000" height="1000"/>
<path fill="#FAFAFA" d="M460,448.3c-2.3,3.5-18,24.5-27.5,36v-36h-20.7c0,0-1.2,27.1-1,39.3c0.3,23.5,0.7,62.6,0.7,62.6h21v-35.7
	l6.6-7.8c8.3,16,23.5,43.5,23.5,43.5h23.8c0,0-24.1-47.2-30.5-60.6c6.1-7.6,19-24.6,30.5-41.5L460,448.3z M90,481.8
	c0.3,23.8,1,68.5,1,68.5h21.9v-43.6c13.4-0.4,40.2-1.6,40.2-1.6v-22h-40.2v-11.4l45.3-2.1v-22l-66.7,0.6
	C91.6,448.1,89.9,469.3,90,481.8z M383.5,448.1h-21.6l1.3,69l-43.9-69h-20.4c0,0-1.3,26.5-1.2,38.9c0.4,23.8,0.9,63.2,0.9,63.2h21.6
	l-1.7-63.5l42,63.5h22.8c0,0,1.3-27.2,1.1-39.6C384,486.9,383.5,448.1,383.5,448.1z M249.9,448.1c0,0,0.6,36.7,0.6,53
	c0,22.2-9.6,28.1-22.5,28.1c-12.8,0-22.3-5.9-22.3-28.1c0-16.3,0.6-53,0.6-53c0-0.1-22.9,0-22.9,0s-1.3,34.6-1.3,53
	c0,41.6,20.6,51,45.9,51c25.3,0,46.1-9.4,46.1-51c0-18.4-1.2-53-1.2-53S249.9,448,249.9,448.1z M584.2,449h-21.3l-1.3,37.6h-33.8
	v-37.9h-22.4c0,0-1.4,26.5-1.3,38.7c0.4,23.6,1,62.9,1,62.9h21.2l1.3-40.3h33.8v40.7h22.6c0,0,1.3-27.5,1.1-39.7
	C584.6,487.5,584.2,449,584.2,449z M866.7,486.9c-8.9,0-17.3,0-17.3-8.5c0-8.5,8.3-8.5,17.3-8.5c7.6,0,14.8,0.6,16.8,10.4l22.7-1.2
	c-2.6-25.8-18.9-31.8-39.6-31.8c-22.6,0-39.7,7.1-39.7,31.1c0,24.2,17.1,31.2,39.7,31.2c10.5,0,20.3,0.3,20.3,9.8
	c0,9.6-9.8,9.9-20.3,9.9c-9.2,0-17.9-0.3-19.9-12.2l-23.2,1c2.4,28.2,20.3,34.6,43,34.6c24.8,0,43.3-7.9,43.3-33.3
	C910,494.2,891.4,486.9,866.7,486.9z M779.6,448.7c0,0,0.6,36.7,0.6,53c0,22.2-9.6,28.1-22.5,28.1c-12.8,0-22.3-5.9-22.3-28.1
	c0-16.3,0.6-53,0.6-53c0-0.1-22.9,0-22.9,0s-1.3,34.6-1.3,53c0,41.6,20.6,51,45.9,51c25.3,0,46.1-9.4,46.1-51c0-18.4-1.1-53-1.1-53
	S779.6,448.6,779.6,448.7z M658.1,448.7h-16.6c-3.2,0-36.9,96.6-36.9,102.1h23.5l7.9-23.5h27.3l7.8,23.5h23.2
	C694.4,545.4,661.6,448.7,658.1,448.7z M641.7,507.2c0,0,7.5-24.5,7.8-25h0.4l8.2,25H641.7z"/>
</svg>
