<svg width="160" height="160" viewBox="0 0 160 160" fill="none" xmlns="http://www.w3.org/2000/svg">
<path d="M55.9414 79.5964L80.4328 91.6147L104.924 79.5964L80.4328 67.5781L55.9414 79.5964Z" fill="#F6BDD6"/>
<path d="M80.4281 117.839C79.9097 117.842 79.3978 117.724 78.934 117.492L28.8469 92.8926L16.5254 98.9559L80.4281 130.333L144.353 98.9559L132.009 92.8926L81.8573 117.492C81.4132 117.714 80.9246 117.832 80.4281 117.839Z" fill="#E95495"/>
<path d="M80.4275 98.4784C79.9328 98.4789 79.4442 98.3679 78.9983 98.1536L48.6169 83.2119L36.2305 89.3402L80.4275 110.995L124.625 89.3402L112.303 83.2769L81.8567 98.2186C81.4056 98.4105 80.9173 98.4993 80.4275 98.4784Z" fill="#F195BD"/>
<path d="M44.8721 81.4152L41.1908 79.5962L28.8477 85.6595L32.5506 87.4568L36.2319 89.2758L48.575 83.2125L44.8721 81.4152Z" fill="#777475"/>
<path d="M81.859 61.0383C81.416 60.8138 80.9264 60.6968 80.4298 60.6968C79.9331 60.6968 79.4435 60.8138 79.0005 61.0383L48.6191 75.9799L52.3221 77.7773L56.0034 79.5963L80.4298 67.6862L104.921 79.5963L108.624 77.7773L112.305 75.9799L81.859 61.0383Z" fill="#ABA9A9"/>
<path d="M119.669 79.5962L115.988 81.4152L112.307 83.2125L124.628 89.2758L128.331 87.4568L132.012 85.6595L119.669 79.5962Z" fill="#777475"/>
<path d="M124.626 69.8522L132.01 66.2359L81.8581 41.7012C81.4033 41.4776 80.9033 41.3613 80.3964 41.3613C79.8896 41.3613 79.3896 41.4776 78.9348 41.7012L28.8477 66.3008L36.2319 69.8522L80.4289 48.1976L124.626 69.8522Z" fill="#777475"/>
<path d="M154.965 79.5963C154.961 78.9886 154.789 78.3937 154.468 77.8778C154.147 77.3618 153.689 76.9448 153.146 76.6729L139.373 69.8517L153.146 63.0954C153.689 62.8272 154.146 62.4122 154.466 61.8975C154.786 61.3828 154.956 60.7889 154.956 60.1829C154.956 59.5769 154.786 58.983 154.466 58.4683C154.146 57.9536 153.689 57.5386 153.146 57.2704L81.8586 22.3415C81.4156 22.117 80.926 22 80.4294 22C79.9327 22 79.4431 22.117 79.0002 22.3415L7.7132 57.3353C7.16981 57.6036 6.71232 58.0186 6.39242 58.5332C6.07253 59.0479 5.903 59.6419 5.903 60.2479C5.903 60.8539 6.07253 61.4478 6.39242 61.9625C6.71232 62.4772 7.16981 62.8921 7.7132 63.1604L21.4855 69.8517L7.7132 76.6079C7.16402 76.8739 6.70088 77.2892 6.37681 77.8062C6.05274 78.3232 5.88086 78.9211 5.88086 79.5313C5.88086 80.1415 6.05274 80.7393 6.37681 81.2564C6.70088 81.7734 7.16402 82.1887 7.7132 82.4547L21.4855 89.3408L7.7132 96.0971C7.16981 96.3653 6.71232 96.7803 6.39242 97.295C6.07253 97.8097 5.903 98.4036 5.903 99.0096C5.903 99.6156 6.07253 100.21 6.39242 100.724C6.71232 101.239 7.16981 101.654 7.7132 101.922L78.9352 136.851C79.3771 137.079 79.8672 137.198 80.3644 137.198C80.8616 137.198 81.3517 137.079 81.7936 136.851L153.146 101.857C153.689 101.589 154.146 101.174 154.466 100.659C154.786 100.145 154.956 99.5507 154.956 98.9446C154.956 98.3386 154.786 97.7447 154.466 97.23C154.146 96.7153 153.689 96.3004 153.146 96.0321L139.373 89.3408L153.146 82.5846C153.699 82.3078 154.163 81.8807 154.485 81.3521C154.807 80.8235 154.973 80.215 154.965 79.5963ZM16.5266 60.237L80.4294 28.8595L144.354 60.237L132.011 66.3003L124.626 69.8517L112.305 75.915L108.624 77.7123L104.921 79.5963L80.4294 91.6146L55.938 79.5963L52.2567 77.7773L48.6187 75.9799L36.2323 69.8517L28.8481 66.2354L16.5266 60.237ZM16.5266 98.9555L28.8481 92.8922L78.9352 117.492C79.3814 117.705 79.8698 117.816 80.3644 117.816C80.859 117.816 81.3474 117.705 81.7936 117.492L132.011 92.8922L144.354 98.9555L80.4294 130.333L16.5266 98.9555ZM132.011 85.6595L128.329 87.4569L124.626 89.3408L80.4294 110.995L36.2323 89.3408L32.551 87.5218L28.8481 85.7245L16.5266 79.6612L28.8481 73.5979L41.1912 79.6612L44.8725 81.4802L48.5538 83.2775L78.9352 98.1543C79.3814 98.3676 79.8698 98.4784 80.3644 98.4784C80.859 98.4784 81.3474 98.3676 81.7936 98.1543L112.24 83.2126L115.921 81.4152L119.603 79.5963L131.946 73.533L144.289 79.5963L132.011 85.6595Z" fill="white"/>
</svg>
