<svg width="180" height="198" viewBox="0 0 180 198" fill="none" xmlns="http://www.w3.org/2000/svg">
<g clip-path="url(#clip0_1_25)">
<rect width="180" height="198" fill="#11A3EB"/>
<path d="M123.53 45H123.519L97.0027 80.3075L104 89.6341L123.53 63.6328V93.8286H135V45H123.53Z" fill="white"/>
<path d="M75.979 108.288L56.4703 134.268V104.042H45V149.531V152.87H56.4909L82.9869 117.604L75.979 108.288Z" fill="white"/>
<path d="M123.53 104.042V134.268L100.94 104.196L82.5644 79.7303L56.4806 45H56.4703H45V93.8286H56.4703V63.6328L82.9973 98.9505L82.9869 98.9711L89.9845 108.288L90.0051 108.267L123.509 152.87H135V149.531V104.042H123.53Z" fill="white"/>
</g>
<defs>
<clipPath id="clip0_1_25">
<rect width="180" height="198" fill="white"/>
</clipPath>
</defs>
</svg>
