<svg width="3058" height="3058" viewBox="0 0 3058 3058" fill="none" xmlns="http://www.w3.org/2000/svg">
<path d="M1001.23 534.022C994.581 525.047 982.283 513.214 966.328 499.719L867.741 417.618C854.777 406.849 847.731 400.001 827.854 378.928C837.493 394.484 851.719 418.948 855.243 425.729L907.362 526.111C918.331 547.251 924.978 558.552 933.022 569.521L890.21 591.791C885.69 578.629 880.106 566.33 869.469 545.855L789.695 392.224C779.391 372.347 772.078 359.782 763.769 348.215L819.677 319.097C827.388 328.67 838.025 339.506 849.924 349.611L990.858 469.139L973.84 285.26C972.178 267.111 969.851 255.877 965.929 243.113L1022.24 213.862C1028.02 229.485 1032.67 239.922 1043.31 260.397L1123.08 414.028C1134.65 436.365 1141.03 447.068 1148.74 457.439L1105.93 479.709C1101.28 466.214 1096.16 454.913 1085.19 433.772L1032.47 332.194C1019.91 304.938 1012.73 288.85 1010.6 284.13C1015.19 302.744 1018.31 322.887 1019.71 336.116L1029.75 467.676C1031.08 485.227 1034.47 505.237 1037.39 515.341L1001.23 534.022Z" fill="#39005D"/>
<path d="M1178.66 170.854C1180.25 184.016 1182.45 194.52 1188.03 214.397L1238.36 392.957C1243.87 412.502 1247.53 423.006 1253.05 435.038L1202.59 449.264C1201 436.102 1198.74 425.266 1193.15 405.721L1142.89 227.161C1137.11 206.619 1133.92 197.777 1128.2 185.08L1178.66 170.854Z" fill="#39005D"/>
<path d="M1479.47 399.869C1477.94 391.693 1470.3 374.807 1455.94 346.82C1432.54 301.415 1419.18 289.981 1392.79 292.706L1341.66 298.025L1348.91 367.96C1351.04 388.568 1352.83 399.47 1356.29 412.633L1305.17 417.885C1305.77 403.26 1305.43 393.953 1303.31 373.012L1284.16 188.136C1282.3 169.988 1280.5 159.75 1276.78 143.862C1291.27 143.064 1301.91 142.333 1320.79 140.338L1403.09 131.829C1455.21 126.444 1487.78 149.446 1492.44 194.717C1494.7 216.655 1490.64 234.405 1480.2 247.634C1471.63 258.603 1463.19 263.988 1444.17 271.5C1466.51 276.087 1474.02 285.061 1516.24 361.777C1519.63 367.694 1530.13 385.311 1535.85 394.086L1479.47 399.869ZM1406.61 251.756C1419.31 250.426 1430.81 244.709 1437.92 236.067C1444.37 228.09 1447.1 217.785 1445.77 204.756C1443.24 180.092 1427.82 168.857 1399.7 171.716L1329.37 178.962L1337.61 258.869L1406.61 251.756Z" fill="#39005D"/>
<path d="M1764.47 422.932C1764 411.365 1762.34 396.141 1760.01 385.704L1751.7 346.549L1642.48 330.993L1623.53 366.226C1615.02 381.716 1612.96 386.635 1608.18 400.595L1552.2 392.618C1558.65 384.109 1567.69 369.75 1576.07 354.925L1679.24 168.653C1688.15 152.499 1692.14 144.388 1695.06 135.746L1754.43 144.189C1754.96 152.632 1756.22 158.349 1761.14 180.353L1808.81 388.098C1814.19 411.166 1816.98 421.337 1820.44 430.843L1764.47 422.932ZM1722.85 199.299C1722.05 195.377 1721.59 191.122 1719.46 179.289C1711.68 194.579 1711.68 194.579 1710.22 197.504L1660.29 293.499L1744.92 305.598L1722.85 199.299Z" fill="#39005D"/>
<path d="M2172.18 279.608C2164.8 291.84 2160.14 301.08 2152.5 319.229L2080.44 490.477C2072.66 508.891 2069.4 518.398 2065.75 532.558L2018.41 512.614C2025.53 501.047 2030.31 491.474 2038.22 472.727L2068.47 400.931L1940.77 347.15L1910.52 418.946C1902.74 437.361 1899.35 447.2 1895.83 461.027L1848.49 441.084C1855.47 429.849 1860.39 419.877 1868.3 401.13L1940.23 230.148C1948.14 211.401 1951.6 201.297 1954.93 188.067L2002.26 208.011C1994.75 220.575 1989.69 230.746 1982.58 247.632L1956.79 308.991L2084.49 362.772L2110.15 301.745C2117.8 283.663 2121.99 271.896 2124.84 259.664L2172.18 279.608Z" fill="#39005D"/>
<path d="M2303.87 364.106C2294.96 373.945 2288.58 382.521 2277.28 399.872L2175.97 555.298C2164.86 572.316 2159.41 581.955 2153.96 594.055L2110.02 565.402C2118.93 555.564 2125.51 546.656 2136.61 529.637L2237.92 374.211C2249.62 356.328 2254.08 348.151 2259.93 335.454L2303.87 364.106Z" fill="#39005D"/>
<path d="M1529 3058C1120.56 3058 736.646 2898.98 447.864 2610.14C159.016 2321.35 0 1937.44 0 1529C0 1120.56 159.016 736.646 447.864 447.864C736.646 159.016 1120.56 0 1529 0C1937.44 0 2321.35 159.016 2610.14 447.864C2898.98 736.646 3058 1120.56 3058 1529C3058 1937.44 2898.98 2321.35 2610.14 2610.14C2321.35 2898.98 1937.44 3058 1529 3058ZM1529 53.1826C1134.78 53.1826 764.168 206.681 485.424 485.424C206.681 764.168 53.1826 1134.78 53.1826 1529C53.1826 1923.22 206.681 2293.83 485.424 2572.58C764.168 2851.32 1134.78 3004.82 1529 3004.82C1923.22 3004.82 2293.83 2851.32 2572.58 2572.58C2851.32 2293.83 3004.82 1923.22 3004.82 1529C3004.82 1134.78 2851.32 764.168 2572.58 485.424C2293.83 206.681 1923.22 53.1826 1529 53.1826Z" fill="#39005D"/>
<path d="M861.558 2700.54C843.21 2717.16 831.111 2724.8 815.688 2730.19C787.103 2739.36 753.332 2732.85 719.827 2711.11C689.446 2691.36 671.165 2666.44 665.58 2637.78C659.265 2604.74 668.904 2566.19 692.039 2530.55C715.971 2493.72 748.678 2469.06 783.114 2461.68C810.902 2455.57 842.147 2462.35 870.001 2480.5C891.739 2494.59 905.5 2509.48 914.807 2528.63C922.253 2544.58 925.643 2561.4 924.646 2578.22C924.181 2586.26 922.851 2592.51 919.328 2605.28L874.787 2589.05C878.843 2574.23 879.773 2567.32 878.377 2557.28C876.316 2539.66 866.212 2524.77 848.927 2513.54C809.306 2487.81 765.298 2503.16 731.926 2554.49C698.82 2605.47 702.675 2653.21 741.698 2678.53C761.243 2691.23 782.848 2694.56 800.265 2687.24C809.506 2683.39 815.555 2678.93 826.125 2667.57L861.558 2700.54Z" fill="#39005D"/>
<path d="M1168.55 2657.67C1182.71 2688.91 1182.05 2727.4 1166.83 2767.82C1137.18 2846.53 1072.23 2880.3 1001.63 2853.71C931.028 2827.12 904.703 2759.31 934.485 2680.34C949.576 2640.25 975.037 2610.4 1006.48 2596.64C1035.93 2583.61 1065.45 2583.34 1098.42 2595.78C1132.66 2608.67 1155.33 2628.55 1168.55 2657.67ZM1123.28 2751.4C1135.12 2719.96 1135.91 2691.5 1126.01 2669.7C1117.97 2652.48 1103.94 2639.72 1085.26 2632.67C1040.45 2615.79 998.836 2640.58 977.629 2696.89C965.929 2728 965.065 2757.52 975.17 2779.79C983.214 2797.01 997.24 2809.77 1016.25 2816.88C1060.66 2833.7 1101.68 2808.64 1123.28 2751.4Z" fill="#39005D"/>
<path d="M1330.76 2930.16C1330.3 2919.39 1326.77 2903.31 1321.32 2883.89L1286.62 2765.23C1282.03 2749.67 1280.11 2740.43 1275.52 2712.78C1274.85 2730.46 1273.13 2757.65 1272.26 2764.9L1259.96 2873.26C1257.37 2896.06 1256.64 2908.69 1257.1 2921.79L1210.84 2916.54C1214.29 2903.57 1216.42 2890.74 1218.95 2868.6L1237.76 2702.81C1240.22 2681.34 1241.08 2667.38 1240.68 2653.61L1301.11 2660.46C1302.11 2672.29 1304.84 2686.65 1308.89 2701.15L1357.35 2872.59L1442.71 2716.37C1451.15 2700.95 1455.34 2690.71 1459.07 2678.41L1519.83 2685.32C1516.04 2700.95 1514.18 2711.78 1511.65 2733.92L1492.84 2899.72C1490.11 2923.85 1489.38 2935.81 1489.98 2948.25L1443.71 2942.99C1447.23 2929.7 1449.23 2917.86 1451.82 2895.06L1464.25 2785.44C1468.84 2756.85 1471.76 2740.1 1472.63 2735.18C1466.31 2752.53 1457.94 2770.28 1451.95 2781.65L1389.2 2892.27C1380.82 2907.03 1372.78 2924.84 1369.65 2934.55L1330.76 2930.16Z" fill="#39005D"/>
<path d="M1590.03 2942.26C1590.43 2928.83 1589.63 2917.2 1587.5 2899.38L1565.7 2720.89C1563.77 2705.06 1561.64 2693.23 1557.85 2678.67C1572.14 2677.61 1582.38 2676.68 1599.87 2674.55L1668.8 2666.11C1700.78 2662.19 1724.18 2667.04 1741.93 2680.93C1757.09 2692.5 1766.39 2711.45 1769.32 2735.18C1772.38 2760.24 1767.26 2781.65 1754.63 2798.6C1740.4 2816.75 1718.93 2827.05 1687.22 2830.91L1624.2 2838.62L1630.91 2893.73C1633.11 2911.55 1635.3 2923.98 1638.76 2936.28L1590.03 2942.26ZM1682.7 2793.01C1713.08 2789.29 1727.57 2771.14 1724.05 2742.09C1722.45 2728.86 1717.47 2718.43 1709.29 2711.71C1700.71 2704.4 1689.35 2702.07 1671.86 2704.2L1608.84 2711.91L1619.68 2800.66L1682.7 2793.01Z" fill="#39005D"/>
<path d="M2047.2 2841.88C2041.88 2832.1 2033.97 2819.61 2027.52 2811.63L2003.59 2781.31L1902.47 2814.42L1901.15 2852.98C1900.41 2870 1900.75 2875.18 1902.54 2889.27L1850.75 2906.23C1852.68 2896.12 1854.34 2879.83 1855.28 2863.48L1865.05 2658.46C1865.85 2640.71 1865.85 2632 1864.72 2623.23L1919.69 2605.21C1923.75 2612.26 1927.27 2616.71 1940.9 2633.6L2070.73 2792.88C2085.22 2810.5 2091.94 2818.14 2099.05 2824.86L2047.2 2841.88ZM1915.9 2666.24C1913.51 2663.18 1911.32 2659.73 1904.4 2650.42C1904.2 2666.9 1904.2 2666.9 1904.2 2670.1L1902.01 2774.33L1980.32 2748.67L1915.9 2666.24Z" fill="#39005D"/>
<path d="M2316.44 2710.65C2306.06 2703.47 2296.16 2697.89 2280.67 2689.71L2143.26 2617.71C2132.89 2612 2118.73 2603.49 2104.24 2593.65C2106.76 2597.57 2106.76 2597.57 2113.54 2607.88C2116.87 2613.26 2124.65 2626.02 2128.37 2632.74L2180.89 2728.27C2191.59 2747.81 2200.03 2760.98 2207.21 2770.68L2164.67 2794.08C2160.81 2783.64 2153.7 2768.62 2142.79 2748.81L2060.16 2598.57C2051.85 2583.41 2045.47 2573.24 2037.16 2562.27L2082.56 2537.28C2089.21 2543.13 2099.25 2548.98 2117.33 2558.35L2252.02 2628.75C2264.78 2635.4 2282.4 2645.44 2295.23 2653.55C2287.85 2642.84 2277.35 2625.82 2270.63 2613.59L2216.78 2515.74C2207.34 2498.59 2200.16 2486.95 2192.32 2476.85L2234.87 2453.45C2239.52 2466.08 2244.84 2477.18 2254.61 2494.93L2339.37 2648.96C2348.34 2665.25 2354.99 2676.02 2362.37 2685.26L2316.44 2710.65Z" fill="#39005D"/>
<path d="M2502.44 2580.48C2495.26 2569.98 2487.15 2559.34 2475.85 2546.71L2431.97 2497.65L2293.63 2458.03C2284.59 2455.44 2271.56 2452.31 2253.48 2447.99L2296.89 2409.24C2304.87 2414.16 2314.04 2417.94 2330.46 2422.93L2420.87 2451.78L2403.06 2358.51C2399.73 2342.29 2396.81 2331.59 2392.82 2323.55L2435.96 2284.99C2436.89 2293.03 2439.69 2315.1 2441.68 2325.81L2465.68 2467.94L2509.29 2516.8C2520.39 2529.23 2529.96 2538.93 2539.87 2546.98L2502.44 2580.48Z" fill="#39005D"/>
<path d="M321.757 1349.5L255.948 1283.69L190.138 1349.5L255.948 1415.3L321.757 1349.5Z" fill="#39005D"/>
<path d="M408.179 1435.92L342.369 1370.11L276.56 1435.92L342.369 1501.73L408.179 1435.92Z" fill="#39005D"/>
<path d="M235.337 1435.92L169.527 1370.11L103.718 1435.92L169.527 1501.73L235.337 1435.92Z" fill="#39005D"/>
<path d="M321.758 1522.33L255.949 1456.52L190.14 1522.33L255.949 1588.14L321.758 1522.33Z" fill="#39005D"/>
<path d="M2867.86 1349.48L2802.05 1283.67L2736.24 1349.48L2802.05 1415.29L2867.86 1349.48Z" fill="#39005D"/>
<path d="M2954.28 1435.9L2888.47 1370.09L2822.66 1435.9L2888.47 1501.71L2954.28 1435.9Z" fill="#39005D"/>
<path d="M2781.44 1435.9L2715.63 1370.09L2649.82 1435.9L2715.63 1501.71L2781.44 1435.9Z" fill="#39005D"/>
<path d="M2867.86 1522.31L2802.05 1456.5L2736.24 1522.31L2802.05 1588.12L2867.86 1522.31Z" fill="#39005D"/>
<path d="M1529 2599.3C2120.11 2599.3 2599.3 2120.11 2599.3 1529C2599.3 937.89 2120.11 458.7 1529 458.7C937.89 458.7 458.7 937.89 458.7 1529C458.7 2120.11 937.89 2599.3 1529 2599.3Z" fill="#F83756"/>
<path d="M1529 2625.89C924.181 2625.89 432.109 2133.82 432.109 1529C432.109 924.182 924.181 432.109 1529 432.109C2133.82 432.109 2625.89 924.182 2625.89 1529C2625.89 2133.82 2133.82 2625.89 1529 2625.89ZM1529 485.292C953.498 485.292 485.291 953.498 485.291 1529C485.291 2104.5 953.498 2572.71 1529 2572.71C2104.5 2572.71 2572.71 2104.5 2572.71 1529C2572.71 953.498 2104.5 485.292 1529 485.292Z" fill="#39005D"/>
<path d="M842.944 1567.63C865.547 1587.1 937.144 1647.27 1043.64 1660.16C1087.12 1665.42 1116.37 1660.5 1237.23 1635.5C1504.67 1580.19 1496.56 1576.67 1531.13 1576.67C1565.7 1576.67 1557.65 1580.19 1825.03 1635.5C1945.82 1660.5 1975.07 1665.48 2018.61 1660.16C2125.18 1647.27 2196.71 1587.1 2219.31 1567.63C2309.99 1489.45 2359.85 1337.81 2348.34 1203.59C2322.55 901.581 1986.5 690.047 1767.66 654.481C1725.31 647.567 1636.1 638.991 1536.91 638.659C1429.88 638.327 1336.48 647.7 1294.53 654.481C1073.89 690.18 739.637 902.844 713.844 1203.59C702.409 1337.68 752.268 1489.38 842.944 1567.63Z" fill="white"/>
<path opacity="0.2" d="M2378.46 1116.04C2300.61 816.95 1980.19 638.789 1767.72 604.951C1717.8 596.974 1628.05 589.395 1536.98 589.129C1446.9 588.863 1379.49 588.066 1294.6 604.951C1221.6 619.443 1105.53 643.841 991.457 732.124C904.104 799.732 850.456 879.639 818.081 942.661C845.338 910.02 882.034 870.864 929.565 831.177C987.468 782.781 1037.39 753.597 1053.41 744.489C1087.12 725.277 1173.27 679.473 1294.66 654.477C1379.16 637.06 1441.91 638.323 1537.04 638.656C1636.23 638.988 1725.44 647.564 1767.79 654.477C2010.9 693.966 2319.63 915.737 2348.48 1203.59C2350.34 1221.87 2351.14 1242.74 2350.21 1265.68C2349.87 1266.21 2349.54 1266.74 2349.28 1267.21C2349.14 1273.39 2348.74 1290.08 2345.82 1313.08C2342.43 1336.54 2337.11 1361.67 2329 1388.46C2326.87 1396.24 2324.74 1404.02 2322.62 1411.73C2304.14 1464.12 2272.76 1521.49 2219.38 1567.56C2196.77 1587.03 2125.18 1647.2 2018.68 1660.09C1975.2 1665.35 1945.95 1660.43 1825.09 1635.43C1557.65 1580.12 1565.76 1576.6 1531.19 1576.6C1496.62 1576.6 1504.67 1580.12 1237.29 1635.43C1116.5 1660.43 1087.25 1665.41 1043.71 1660.09C937.144 1647.2 865.613 1587.03 843.011 1567.56C766.494 1501.54 719.228 1383.21 713.179 1267.27C706.199 1397.7 755.525 1541.63 843.011 1617.08C865.613 1636.56 937.21 1696.72 1043.71 1709.62C1087.19 1714.87 1116.44 1709.95 1237.29 1684.96C1504.74 1629.65 1496.62 1626.12 1531.19 1626.12C1565.76 1626.12 1557.72 1629.65 1825.09 1684.96C1945.89 1709.95 1975.14 1714.94 2018.68 1709.62C2113.61 1698.12 2184.34 1644.67 2219.38 1617.08C2250.16 1592.88 2311.78 1543.36 2353.73 1462.72C2430.31 1315.34 2390.23 1161.31 2378.46 1116.04Z" fill="#39005D"/>
<path d="M1033.87 2021.14C1063.12 2046.66 1116.3 2075.38 1164.17 2090.8L1166.29 2096.12L1129.07 2166.32L1123.22 2167.92C1072.16 2148.24 1021.64 2121.12 985.474 2084.42V2079.1L1029.08 2021.14H1033.87ZM1039.72 2197.7C1088.65 2231.21 1152.47 2254.07 1236.5 2271.09L1238.62 2274.82L1202.99 2352.46L1197.67 2354.59C1118.96 2336.51 1039.19 2301.94 988.665 2265.24L988.133 2259.92L1034.4 2198.76L1039.72 2197.7ZM1089.71 1898.28C1141.83 1914.77 1190.23 1936.04 1237.03 1962.1V1967.42L1190.76 2031.77L1185.44 2033.37C1138.64 2004.12 1088.12 1980.72 1037.06 1963.17L1036.53 1958.91L1084.39 1898.82L1089.71 1898.28Z" fill="#39005D"/>
<path d="M1307.76 2107.3V2037.63L1312.55 2034.44L1385.41 2036.03H1589.63L1664.08 2034.44L1667.81 2038.69C1649.19 2207.28 1568.89 2296.63 1421.04 2347.68C1416.25 2349.28 1412.53 2350.34 1409.87 2350.34C1405.62 2350.34 1402.42 2348.75 1397.64 2344.49L1337.54 2294.5C1459.86 2257.27 1539.64 2201.43 1563.04 2109.96H1384.87L1311.48 2111.55L1307.76 2107.3ZM1546.55 1995.61H1423.7L1358.82 1997.21L1355.09 1992.95V1924.35L1359.88 1921.16L1424.23 1922.75H1544.42L1617.81 1921.16L1622.07 1924.88V1992.95L1618.35 1997.21L1546.55 1995.61Z" fill="#39005D"/>
<path d="M1839.05 2075.38C1891.17 2050.92 1953.93 2017.94 2009.77 1977.52H2014.56L2066.68 2040.28L2066.14 2045.6C1999.13 2089.21 1921.49 2125.37 1838.52 2156.22V2192.38C1838.52 2207.27 1839.05 2215.25 1843.31 2220.57C1849.69 2228.01 1860.86 2229.61 1883.2 2229.61C1943.29 2229.61 1992.75 2225.89 2065.08 2217.91L2069.34 2220.57L2072.53 2298.22L2069.34 2301.94C2012.96 2306.73 1934.78 2310.98 1886.92 2310.98C1835.33 2310.98 1794.38 2306.19 1771.51 2277.47C1756.62 2259.39 1755.56 2233.33 1755.56 2197.17L1757.15 1950.93L1760.88 1947.21H1835.86L1839.59 1950.93L1839.05 2075.38Z" fill="#39005D"/>
<path d="M1119.02 1356.42C1033.2 1356.42 963.394 1286.62 963.394 1200.8C963.394 1114.98 1033.2 1045.17 1119.02 1045.17C1204.84 1045.17 1274.65 1114.98 1274.65 1200.8C1274.71 1286.56 1204.84 1356.42 1119.02 1356.42ZM1119.02 1078.35C1051.54 1078.35 996.633 1133.26 996.633 1200.73C996.633 1268.21 1051.54 1323.12 1119.02 1323.12C1186.5 1323.12 1241.41 1268.21 1241.41 1200.73C1241.41 1133.26 1186.56 1078.35 1119.02 1078.35Z" fill="#39005D"/>
<path d="M1119.03 1289.88C1168.26 1289.88 1208.18 1249.97 1208.18 1200.73C1208.18 1151.5 1168.26 1111.58 1119.03 1111.58C1069.79 1111.58 1029.88 1151.5 1029.88 1200.73C1029.88 1249.97 1069.79 1289.88 1119.03 1289.88Z" fill="#39005D"/>
<path d="M1938.97 1356.42C1853.15 1356.42 1783.35 1286.62 1783.35 1200.8C1783.35 1114.98 1853.15 1045.17 1938.97 1045.17C2024.79 1045.17 2094.6 1114.98 2094.6 1200.8C2094.6 1286.56 2024.79 1356.42 1938.97 1356.42ZM1938.97 1078.35C1871.5 1078.35 1816.58 1133.26 1816.58 1200.73C1816.58 1268.21 1871.5 1323.12 1938.97 1323.12C2006.45 1323.12 2061.36 1268.21 2061.36 1200.73C2061.36 1133.26 2006.45 1078.35 1938.97 1078.35Z" fill="#39005D"/>
<path d="M1938.97 1289.88C1988.21 1289.88 2028.12 1249.97 2028.12 1200.73C2028.12 1151.5 1988.21 1111.58 1938.97 1111.58C1889.74 1111.58 1849.82 1151.5 1849.82 1200.73C1849.82 1249.97 1889.74 1289.88 1938.97 1289.88Z" fill="#39005D"/>
<path opacity="0.3" d="M1938.97 1356.69C1855.41 1356.69 1787 1290.41 1783.48 1207.71C1783.41 1209.91 1783.28 1212.1 1783.28 1214.36C1783.28 1300.18 1853.08 1369.99 1938.9 1369.99C2024.73 1369.99 2094.53 1300.18 2094.53 1214.36C2094.53 1212.1 2094.46 1209.91 2094.33 1207.71C2090.94 1290.41 2022.53 1356.69 1938.97 1356.69Z" fill="#39005D"/>
<path opacity="0.3" d="M1119.03 1356.69C1035.47 1356.69 967.059 1290.41 963.536 1207.71C963.469 1209.91 963.336 1212.1 963.336 1214.36C963.336 1300.18 1033.14 1369.99 1118.96 1369.99C1204.79 1369.99 1274.59 1300.18 1274.59 1214.36C1274.59 1212.1 1274.52 1209.91 1274.39 1207.71C1271.06 1290.41 1202.66 1356.69 1119.03 1356.69Z" fill="#39005D"/>
<path d="M2005.52 1480.27C2003.59 1472.56 1995.01 1467.78 1986.37 1469.44C1977.73 1471.17 1972.21 1478.75 1974.14 1486.46C1974.14 1486.52 1976.33 1495.56 1970.68 1500.35C1965.36 1504.87 1955.46 1503.74 1951.73 1503.34C1934.52 1501.41 1922.35 1489.38 1915.04 1482.2L1913.38 1480.61C1862.32 1431.08 1777.03 1403.76 1742.73 1400.43C1722.72 1398.51 1695.4 1395.31 1640.88 1400.43C1569.15 1407.15 1564.23 1425.36 1529 1425.36C1493.83 1425.36 1488.91 1407.15 1417.12 1400.43C1362.67 1395.31 1335.28 1398.51 1315.27 1400.43C1280.97 1403.76 1195.61 1431.08 1144.62 1480.61L1142.96 1482.2C1135.65 1489.38 1123.42 1501.41 1106.27 1503.34C1102.54 1503.74 1092.57 1504.87 1087.32 1500.35C1081.67 1495.56 1083.86 1486.52 1083.86 1486.46C1085.79 1478.75 1080.34 1471.17 1071.63 1469.44C1062.99 1467.78 1054.41 1472.56 1052.48 1480.27C1051.49 1484.4 1047.23 1505.74 1065.11 1520.89C1075.95 1530.13 1091.17 1533.72 1110.39 1531.53C1139.37 1528.27 1157.99 1509.99 1166.89 1501.21L1168.36 1499.75C1212.03 1457.41 1288.08 1445.9 1318.8 1442.98C1354.16 1439.59 1386.94 1445.84 1409.67 1449.49C1482.86 1461.19 1485.59 1477.15 1529.07 1477.15C1572.54 1477.15 1575.27 1461.19 1648.46 1449.49C1671.2 1445.84 1703.9 1439.59 1739.34 1442.98C1770.05 1445.97 1846.1 1457.41 1889.78 1499.75L1891.24 1501.21C1900.15 1509.99 1918.7 1528.27 1947.75 1531.53C1966.89 1533.72 1982.12 1530.13 1993.02 1520.89C2010.77 1505.74 2006.51 1484.4 2005.52 1480.27Z" fill="#39005D"/>
<path opacity="0.4" d="M2005.52 1493.57C2003.59 1485.86 1995.01 1481.07 1986.37 1482.73C1977.73 1484.46 1972.21 1492.04 1974.14 1499.75C1974.14 1499.82 1976.33 1508.86 1970.68 1513.65C1965.36 1518.17 1955.46 1517.04 1951.73 1516.64C1934.52 1514.71 1922.35 1502.68 1915.04 1495.5L1913.38 1493.9C1862.32 1444.37 1777.03 1417.05 1742.73 1413.73C1722.72 1411.8 1695.4 1408.61 1640.88 1413.73C1569.15 1420.44 1564.23 1438.66 1529 1438.66C1493.83 1438.66 1488.91 1420.44 1417.12 1413.73C1362.67 1408.61 1335.28 1411.8 1315.27 1413.73C1280.97 1417.05 1195.61 1444.37 1144.62 1493.9L1142.96 1495.5C1135.65 1502.68 1123.42 1514.71 1106.27 1516.64C1102.54 1517.04 1092.57 1518.17 1087.32 1513.65C1081.67 1508.86 1083.86 1499.82 1083.86 1499.75C1085.79 1492.04 1080.34 1484.46 1071.63 1482.73C1062.99 1481.07 1054.41 1485.86 1052.48 1493.57C1051.49 1497.69 1047.23 1519.03 1065.11 1534.19C1075.95 1543.43 1091.17 1547.02 1110.39 1544.82C1139.37 1541.57 1157.99 1523.28 1166.89 1514.51L1168.36 1513.05C1212.03 1470.7 1288.08 1459.2 1318.8 1456.27C1354.16 1452.88 1386.94 1459.13 1409.67 1462.79C1482.86 1474.49 1485.59 1490.44 1529.07 1490.44C1572.54 1490.44 1575.27 1474.49 1648.46 1462.79C1671.2 1459.13 1703.9 1452.88 1739.34 1456.27C1770.05 1459.27 1846.1 1470.7 1889.78 1513.05L1891.24 1514.51C1900.15 1523.28 1918.7 1541.57 1947.75 1544.82C1966.89 1547.02 1982.12 1543.43 1993.02 1534.19C2010.77 1519.03 2006.51 1497.69 2005.52 1493.57Z" fill="#39005D"/>
<path d="M953.564 851.453C954.162 827.721 1126.14 779.258 1272.59 850.921C1302.38 865.48 1371.18 900.315 1392.25 970.582C1396.97 986.271 1409.47 1027.89 1385.61 1063.65C1361.08 1100.48 1316.54 1103.41 1313.34 1103.61C1267.67 1105.87 1237.76 1072.29 1229.65 1063.19C1200.26 1030.21 1204.79 1000.23 1192.82 970.649C1151.14 867.142 952.966 877.047 953.564 851.453Z" fill="#39005D"/>
<path d="M2104.44 851.453C2103.84 827.721 1931.86 779.258 1785.41 850.921C1755.62 865.48 1686.82 900.315 1665.75 970.582C1661.03 986.271 1648.53 1027.89 1672.39 1063.65C1696.92 1100.48 1741.46 1103.41 1744.66 1103.61C1790.33 1105.87 1820.24 1072.29 1828.35 1063.19C1857.73 1030.21 1853.21 1000.23 1865.18 970.649C1906.86 867.142 2105.03 877.047 2104.44 851.453Z" fill="#39005D"/>
<path d="M1639.22 937.34C1629.98 926.703 1611.97 925.839 1599.33 930.692C1584.44 936.409 1577.53 949.904 1573.94 957.084C1557.59 990.19 1566.1 1034 1588.23 1064.05C1606.51 1088.91 1633.84 1103.8 1638.16 1099.68C1642.41 1095.56 1617.75 1078.67 1616.75 1049.75C1615.75 1019.04 1642.61 1008.01 1645.27 964.197C1646.14 950.436 1644.01 942.791 1639.22 937.34Z" fill="#39005D"/>
<path d="M1418.78 937.34C1428.02 926.703 1446.04 925.839 1458.67 930.692C1473.56 936.409 1480.47 949.904 1484.06 957.084C1500.41 990.19 1491.91 1034 1469.77 1064.05C1451.49 1088.91 1424.16 1103.8 1419.84 1099.68C1415.59 1095.56 1440.25 1078.67 1441.25 1049.75C1442.25 1019.04 1415.39 1008.01 1412.73 964.197C1411.87 950.436 1413.99 942.791 1418.78 937.34Z" fill="#39005D"/>
<path d="M1677.84 1179.19C1670.33 1179.19 1663.02 1180.12 1656.11 1181.91C1637.89 1186.57 1625.46 1196.07 1619.01 1201.79C1623.27 1204.65 1636.3 1214.09 1641.02 1231.57C1641.35 1232.84 1647.86 1258.1 1634.37 1271.46C1628.45 1277.38 1625.13 1274.45 1617.68 1280.9C1606.58 1290.54 1612.43 1299.58 1600.86 1310.48C1590.56 1320.19 1576.8 1326.24 1561.57 1326.24H1529H1496.36C1481.14 1326.24 1467.37 1320.19 1457.07 1310.48C1445.5 1299.58 1451.35 1290.54 1440.25 1280.9C1432.81 1274.45 1429.55 1277.38 1423.57 1271.46C1410.07 1258.1 1416.59 1232.84 1416.92 1231.57C1421.64 1214.09 1434.67 1204.65 1438.92 1201.79C1432.54 1196.07 1420.04 1186.57 1401.83 1181.91C1394.85 1180.12 1387.6 1179.19 1380.09 1179.19C1331.36 1179.19 1291.87 1218.68 1291.87 1267.4C1291.87 1316.13 1331.36 1355.62 1380.09 1355.62C1390.33 1355.62 1400.03 1353.83 1409.21 1350.63C1430.01 1360.87 1456.34 1376.36 1483.06 1399.76C1502.54 1416.78 1517.57 1433.87 1529 1448.76C1540.43 1433.87 1555.46 1416.71 1574.94 1399.76C1601.66 1376.36 1627.92 1360.87 1648.79 1350.63C1657.9 1353.83 1667.67 1355.62 1677.91 1355.62C1726.64 1355.62 1766.13 1316.13 1766.13 1267.4C1766.13 1218.68 1726.57 1179.19 1677.84 1179.19Z" fill="#39005D"/>
<path d="M1534.52 1523.21C1462.59 1521.49 1395.84 1604.85 1377.7 1680.04C1372.78 1700.38 1358.88 1757.95 1391.92 1808.34C1436.73 1876.61 1529 1873.02 1541.63 1872.49C1553.06 1872.03 1639.62 1867.44 1677.11 1808.34C1737.28 1713.41 1640.68 1525.81 1534.52 1523.21Z" fill="#39005D"/>
<path d="M1181.05 1395.84C1179.46 1386.07 1011.4 1361.47 917.267 1452.88C872.859 1496.03 860.561 1549.74 798.669 1568.89C777.995 1575.27 750.473 1578.19 725.543 1602.12C717.234 1610.1 697.49 1629.05 698.952 1655.31C700.88 1689.41 736.911 1707.56 738.839 1708.49C775.136 1726.11 815.422 1706.56 825.261 1701.84C909.356 1661.22 884.825 1562.1 960.079 1481.4C1045.5 1389.73 1182.51 1404.68 1181.05 1395.84Z" fill="#39005D"/>
<path d="M1882.2 1395.84C1883.79 1386.07 2051.85 1361.47 2145.98 1452.88C2190.39 1496.03 2202.69 1549.74 2264.58 1568.89C2285.26 1575.27 2312.78 1578.19 2337.71 1602.12C2346.02 1610.1 2365.76 1629.05 2364.3 1655.31C2362.37 1689.41 2326.34 1707.56 2324.41 1708.49C2288.11 1726.11 2247.83 1706.56 2237.99 1701.84C2153.9 1661.22 2178.43 1562.1 2103.17 1481.4C2017.75 1389.73 1880.74 1404.68 1882.2 1395.84Z" fill="#39005D"/>
<path d="M2106.63 1306.36C2096.06 1327.97 2164.13 1410.53 2249.03 1410.93C2313.64 1411.2 2353.66 1361.41 2355.86 1358.68C2361.97 1350.9 2404.19 1297.59 2380.25 1256.64C2361.91 1225.26 2314.17 1217.21 2282.07 1228.58C2247.76 1240.68 2250.82 1267.94 2213.46 1289.01C2162.01 1317.86 2114.74 1289.81 2106.63 1306.36Z" fill="#39005D"/>
<path d="M944.989 1333.68C955.559 1355.28 887.485 1437.85 802.592 1438.25C794.748 1438.32 729.798 1437.25 695.761 1386C673.624 1352.56 663.985 1296.72 692.438 1269.93C714.442 1249.25 749.276 1255.17 753.265 1255.9C792.753 1263.15 797.141 1294.92 838.158 1316.33C892.205 1344.52 936.679 1316.79 944.989 1333.68Z" fill="#39005D"/>
</svg>
