<svg xmlns="http://www.w3.org/2000/svg" viewBox="0 0 293 227"><defs><style>.cls-1{fill:#030504;}.cls-2{fill:#55bd90;}</style></defs><g id="Warstwa_1" data-name="Warstwa 1"><polygon class="cls-1" points="167.46 55.02 175.38 55.02 175.38 46.83 167.46 46.83 167.46 42.93 187.6 42.93 187.6 34.88 159.26 34.88 159.26 75.44 167.46 75.44 167.46 55.02"/><path class="cls-1" d="M128,78.22A23.07,23.07,0,1,0,105,55.15,23.08,23.08,0,0,0,128,78.22Zm0-37.93a15,15,0,1,1-15,15A15,15,0,0,1,128,40.29Z"/><path class="cls-1" d="M215,157.54h13.48V167l-5.13,5.12h-4.16a14.42,14.42,0,0,1-11-4.86,15.05,15.05,0,0,1-3.61-11.53,14.61,14.61,0,0,1,12.64-12.92A14.93,14.93,0,0,1,229.56,147l5.7-5.84a22.53,22.53,0,0,0-19.17-6.53,22.86,22.86,0,0,0-19.73,20,23.36,23.36,0,0,0,5.7,17.93,22.84,22.84,0,0,0,17.08,7.64h7.5l10-9.87v-21H215Z"/><polygon class="cls-1" points="232.2 94.33 232.2 86.14 203.86 86.14 203.86 126.7 232.2 126.7 232.2 118.51 211.91 118.51 211.91 106.28 219.97 106.28 219.97 98.08 211.91 98.08 211.91 94.33 232.2 94.33"/><polygon class="cls-1" points="204.27 75.44 212.47 75.44 212.47 43.07 220.53 43.07 220.53 34.88 195.11 34.88 195.11 43.07 204.27 43.07 204.27 75.44"/><polygon class="cls-1" points="109.95 155.04 81.61 155.04 81.61 136.84 73.41 136.84 73.41 177.41 81.61 177.41 81.61 163.24 109.95 163.24 109.95 177.41 118.14 177.41 118.14 136.84 109.95 136.84 109.95 155.04"/><rect class="cls-1" x="127.45" y="136.84" width="8.2" height="40.57"/><polygon class="cls-1" points="42.99 144.9 51.74 144.9 51.74 177.41 59.94 177.41 59.94 144.9 68.41 144.9 68.41 136.71 42.99 136.71 42.99 144.9"/><polygon class="cls-2" points="85.5 126.56 98.14 87.39 90.5 84.89 80.91 114.34 72.58 94.33 64.66 94.33 56.32 114.34 46.88 84.89 39.1 87.39 51.74 126.56 60.08 126.56 68.69 106 77.3 126.56 85.5 126.56"/><polygon class="cls-1" points="182.05 167.56 182.05 138.51 174.55 136.29 157.88 162.82 157.88 138.51 150.93 135.59 141.62 144.48 147.32 150.32 149.68 147.96 149.68 176.85 157.18 179.08 173.85 152.54 173.85 177.41 180.8 180.33 190.38 170.75 184.69 165.06 182.05 167.56"/><path class="cls-1" d="M147.46,126.7V89.33L140,87.11l-1.53,2.5a22.82,22.82,0,0,0-13.34-4.3,22.33,22.33,0,0,0-5.28,44l4.31-1.8,15.14-24v23.2ZM119,120.59a14.21,14.21,0,0,1,6-27.09,14.05,14.05,0,0,1,9,3.2Z"/><path class="cls-1" d="M189.68,98.78a12.49,12.49,0,0,0-12.49-12.5H157.32v40.56h8.2V111.28h11.67a11.71,11.71,0,0,0,1.19-.06l10.72,17.59,7-4.26-10.23-16.79A12.44,12.44,0,0,0,189.68,98.78Zm-24.16-4.45h11.67a4.45,4.45,0,0,1,0,8.89H165.52Z"/><rect class="cls-1" x="242.89" y="46.82" width="28.48" height="8.2"/><path class="cls-1" d="M81.88,77a13.35,13.35,0,0,0,14-14c0-5.83-3.19-10-10.14-12.78L81.61,48.5c-4-1.67-4-3.75-4-4.45,0-2.64,1.94-4.31,5.13-4.31a5.76,5.76,0,0,1,4,1.39,7.33,7.33,0,0,1,1.67,2.37l.28.69,6.41-3.74-.42-.57a14.84,14.84,0,0,0-3.33-4.45,13.11,13.11,0,0,0-8.77-2.92c-.26,0-.53,0-.79,0a11.84,11.84,0,0,0-12,11.71c0,4.84,3,8.61,8.89,11.11l4,1.63c2.91,1.26,5.55,2.78,5.55,6.54,0,.16,0,.33,0,.49a6,6,0,0,1-6.12,5.77,5.64,5.64,0,0,1-4.86-2.22,7.4,7.4,0,0,1-1.67-4.86v-.84L68,63.48v.57a13.46,13.46,0,0,0,3.61,8.47A12.7,12.7,0,0,0,81.88,77Z"/><path class="cls-1" d="M272.63,165.75c0-5.84-3.2-10-10.14-12.78l-4.17-1.67c-4-1.67-4-3.75-4-4.45,0-2.64,1.93-4.3,5.13-4.3a5.68,5.68,0,0,1,4,1.39,7.22,7.22,0,0,1,1.66,2.36l.29.69,6.39-3.77-.28-.57a15,15,0,0,0-3.33-4.44,13,13,0,0,0-8.76-2.92l-.79,0a11.87,11.87,0,0,0-12,11.72c0,4.84,3.06,8.6,8.89,11.1l4,1.67c2.92,1.25,5.56,2.78,5.56,6.53,0,.16,0,.33,0,.49a6,6,0,0,1-6.12,5.77,5.61,5.61,0,0,1-4.86-2.22,7.4,7.4,0,0,1-1.67-4.86v-.83l-7.64,1.66v.57a13.47,13.47,0,0,0,3.61,8.48,12.71,12.71,0,0,0,10.28,4.44c.45,0,.9,0,1.34,0A13.32,13.32,0,0,0,272.63,165.75Z"/></g></svg>
