<svg width="479" height="460" viewBox="0 0 479 460" fill="none" xmlns="http://www.w3.org/2000/svg">
<path d="M215.565 6.99105C211.297 9.6443 207.11 13.8313 198.737 22.2052C190.366 30.5777 186.177 34.7661 183.526 39.0325C174.745 53.1546 174.745 71.0386 183.526 85.1608C186.177 89.428 190.364 93.6123 198.732 101.984L198.737 101.986C207.11 110.361 211.297 114.548 215.565 117.202C229.684 125.984 247.567 125.984 261.686 117.202C265.954 114.548 270.141 110.363 278.514 101.989C286.887 93.6151 291.071 89.428 293.725 85.1608C302.506 71.0386 302.506 53.1546 293.725 39.0325C291.071 34.7658 286.887 30.579 278.514 22.2052C270.141 13.8313 265.954 9.6443 261.686 6.99105C247.567 -1.79064 229.684 -1.79064 215.565 6.99105Z" fill="#02C652"/>
<path d="M270.651 268.966L368.077 171.528C372.114 167.493 376.907 164.289 382.18 162.105C387.453 159.92 393.107 158.795 398.815 158.795C404.523 158.795 410.174 159.92 415.45 162.105C420.723 164.289 425.516 167.493 429.55 171.528L478.508 220.49C478.212 220.783 239.427 459.595 239.427 459.595L0.346191 220.49C0.994698 219.843 27.4645 193.37 49.8174 171.014C53.8516 166.979 58.6411 163.778 63.9118 161.594C69.1851 159.412 74.8334 158.287 80.5388 158.287C86.2441 158.287 91.8951 159.412 97.1657 161.597C102.436 163.781 107.226 166.982 111.261 171.019L209.199 268.968C213.234 273.003 218.026 276.204 223.297 278.389C228.57 280.573 234.219 281.695 239.927 281.695C245.632 281.695 251.283 280.57 256.554 278.386C261.827 276.201 266.617 273.001 270.651 268.966Z" fill="#02C652"/>
</svg>
