<?xml version="1.0" encoding="utf-8"?>
<!-- Generator: Adobe Illustrator 26.3.1, SVG Export Plug-In . SVG Version: 6.00 Build 0)  -->
<svg version="1.1" id="Layer_1" xmlns="http://www.w3.org/2000/svg" xmlns:xlink="http://www.w3.org/1999/xlink" x="0px" y="0px"
	 width="1000px" height="128.5px" viewBox="0 0 1000 128.5" enable-background="new 0 0 1000 128.5" xml:space="preserve">
<path fill="#FAFAFA" d="M451.2,1.2c-2.8,4.2-21.9,29.8-33.5,43.9V1.2h-25.3c0,0-1.4,33-1.2,47.9c0.3,28.6,0.9,76.4,0.9,76.4h25.6
	V81.9l8.1-9.5c10.2,19.5,28.6,53,28.6,53h29c0,0-29.3-57.6-37.2-73.9c7.4-9.3,23.2-30,37.2-50.6L451.2,1.2z M0,42.1
	c0.3,29,1.2,83.6,1.2,83.6h26.7V72.4c16.3-0.5,49-1.9,49-1.9V43.7h-49V29.8l55.3-2.6V0.3L1.9,1C1.9,1-0.2,26.8,0,42.1z M358,1h-26.3
	l1.6,84.1L279.7,1h-24.9c0,0-1.6,32.3-1.4,47.4c0.5,29,1.1,77.1,1.1,77.1h26.3L278.6,48l51.3,77.4h27.7c0,0,1.6-33.2,1.4-48.3
	C358.5,48.2,358,1,358,1z M195,1c0,0,0.7,44.8,0.7,64.6c0,27-11.8,34.2-27.4,34.2c-15.6,0-27.2-7.2-27.2-34.2
	c0-19.8,0.7-64.6,0.7-64.6c0-0.2-27.9,0-27.9,0s-1.6,42.1-1.6,64.6c0,50.7,25.1,62.2,56,62.2c30.9,0,56.2-11.4,56.2-62.2
	C224.4,43.1,223,1,223,1S195,0.8,195,1z M602.7,2.1h-26l-1.6,45.8h-41.3V1.8h-27.4c0,0-1.8,32.3-1.6,47.2
	c0.5,28.8,1.2,76.7,1.2,76.7h25.8l1.6-49.2h41.2v49.7h27.6c0,0,1.6-33.5,1.4-48.5C603.2,49,602.7,2.1,602.7,2.1z M947.2,48.3
	c-10.9,0-21.1,0-21.1-10.4c0-10.4,10.2-10.4,21.1-10.4c9.3,0,18.1,0.7,20.5,12.6l27.7-1.4C992.3,7.4,972.4,0,947.2,0
	c-27.6,0-48.5,8.6-48.5,37.9c0,29.5,20.9,38.1,48.5,38.1c12.8,0,24.8,0.4,24.8,11.9c0,11.8-11.9,12.1-24.8,12.1
	c-11.2,0-21.8-0.4-24.2-14.9l-28.2,1.2c3,34.4,24.8,42.1,52.5,42.1c30.2,0,52.8-9.7,52.8-40.6C1000,57.2,977.4,48.3,947.2,48.3z
	 M840.9,1.8c0,0,0.7,44.8,0.7,64.6c0,27-11.8,34.2-27.4,34.2c-15.6,0-27.2-7.2-27.2-34.2c0-19.8,0.7-64.6,0.7-64.6
	c0-0.2-27.9,0-27.9,0s-1.6,42.1-1.6,64.6c0,50.7,25.1,62.1,56,62.1c30.9,0,56.2-11.4,56.2-62.1c0-22.5-1.4-64.6-1.4-64.6
	S840.9,1.6,840.9,1.8z M692.8,1.8h-20.2c-3.9,0-44.9,117.8-44.9,124.5h28.6l9.6-28.6h33.3l9.5,28.6h28.3
	C737.1,119.6,697,1.8,692.8,1.8z M672.8,73c0,0,9.1-29.8,9.5-30.5h0.5l10,30.5H672.8z"/>
</svg>
