<?xml version="1.0" encoding="UTF-8"?>
<svg width="200px" height="111px" viewBox="0 0 200 111" version="1.1" xmlns="http://www.w3.org/2000/svg" xmlns:xlink="http://www.w3.org/1999/xlink">
    <!-- Generator: Sketch 54.1 (76490) - https://sketchapp.com -->
    <title>Liip_Logo_Claim_White</title>
    <desc>Created with Sketch.</desc>
    <g id="Specs" stroke="none" stroke-width="1" fill="none" fill-rule="evenodd">
        <g id="Liip_Styleguide_Colors_Gradients" transform="translate(-1100.000000, -120.000000)" fill="#FFFFFF">
            <g id="Liip_Logo_Claim_White" transform="translate(1100.000000, 120.000000)">
                <path d="M5.17647059,97.1764706 C9.64705882,97.1764706 11.7647059,99.5294118 11.7647059,103.529412 C11.7647059,108.235294 9.41176471,110.117647 4.70588235,110.117647 L0.705882353,110.117647 L0.705882353,97.1764706 L5.17647059,97.1764706 Z M3.29411765,99.5294118 L3.29411765,108.235294 L5.17647059,108.235294 C8,108.235294 9.17647059,106.823529 9.17647059,104 C9.17647059,101.176471 8,99.7647059 5.17647059,99.7647059 L3.29411765,99.7647059 L3.29411765,99.5294118 Z M15.7647059,97.1764706 L18.3529412,97.1764706 L18.3529412,110.117647 L15.7647059,110.117647 L15.7647059,97.1764706 Z M29.1764706,103.294118 L33.8823529,103.294118 L33.8823529,108.470588 C32.2352941,110.117647 30.3529412,110.588235 28.7058824,110.588235 C24,110.588235 22.3529412,107.529412 22.3529412,103.764706 C22.3529412,99.7647059 24.2352941,96.9411765 28.4705882,96.9411765 C32.2352941,96.9411765 33.4117647,98.8235294 33.6470588,101.176471 L31.0588235,101.176471 C31.0588235,100 30.3529412,99.2941176 28.4705882,99.2941176 C26.1176471,99.2941176 24.9411765,101.176471 24.9411765,103.764706 C24.9411765,106.588235 26.1176471,108.235294 28.7058824,108.235294 C29.6470588,108.235294 30.5882353,108 31.2941176,107.529412 L31.2941176,105.411765 L28.9411765,105.411765 L28.9411765,103.294118 L29.1764706,103.294118 Z M38.3529412,97.1764706 L40.9411765,97.1764706 L40.9411765,110.117647 L38.3529412,110.117647 L38.3529412,97.1764706 Z M44.2352941,97.1764706 L54.8235294,97.1764706 L54.8235294,99.5294118 L50.8235294,99.5294118 L50.8235294,110.352941 L48.2352941,110.352941 L48.2352941,99.5294118 L44.2352941,99.5294118 L44.2352941,97.1764706 Z M60.7058824,97.1764706 L63.5294118,97.1764706 L68.2352941,110.117647 L65.4117647,110.117647 L64.4705882,107.058824 L59.7647059,107.058824 L58.8235294,110.117647 L56,110.117647 L60.7058824,97.1764706 Z M61.8823529,100 L60.2352941,105.176471 L63.5294118,105.176471 L61.8823529,100 Z M71.2941176,97.1764706 L73.8823529,97.1764706 L73.8823529,108 L79.7647059,108 L79.7647059,110.352941 L71.2941176,110.352941 L71.2941176,97.1764706 Z M93.8823529,99.2941176 L93.8823529,103.529412 L95.7647059,103.529412 C97.4117647,103.529412 98.3529412,102.823529 98.3529412,101.411765 C98.3529412,100 97.6470588,99.2941176 96,99.2941176 L93.8823529,99.2941176 Z M91.5294118,97.1764706 L96.4705882,97.1764706 C99.5294118,97.1764706 101.176471,98.8235294 101.176471,101.411765 C101.176471,104 99.5294118,105.647059 96.2352941,105.647059 L94.1176471,105.647059 L94.1176471,110.117647 L91.5294118,110.117647 L91.5294118,97.1764706 Z M107.294118,99.2941176 L107.294118,103.529412 L109.411765,103.529412 C111.058824,103.529412 112,102.823529 112,101.411765 C112,100 111.294118,99.2941176 109.647059,99.2941176 L107.294118,99.2941176 Z M109.411765,97.1764706 C112.705882,97.1764706 114.352941,98.8235294 114.352941,101.176471 C114.352941,102.823529 113.647059,104 112.235294,104.705882 L115.058824,110.117647 L112.235294,110.117647 L109.882353,105.411765 C109.411765,105.411765 109.176471,105.411765 108.705882,105.411765 L107.294118,105.411765 L107.294118,110.117647 L104.705882,110.117647 L104.705882,97.1764706 L109.411765,97.1764706 Z M123.764706,108.235294 C126.117647,108.235294 127.529412,106.588235 127.529412,103.764706 C127.529412,101.176471 126.117647,99.2941176 124,99.2941176 C121.647059,99.2941176 120.235294,100.941176 120.235294,103.764706 C120.235294,106.588235 121.647059,108.235294 123.764706,108.235294 Z M123.764706,96.9411765 C127.529412,96.9411765 130.117647,99.2941176 130.117647,103.529412 C130.117647,108 127.529412,110.352941 123.764706,110.352941 C120,110.352941 117.411765,108 117.411765,103.529412 C117.647059,99.5294118 120,96.9411765 123.764706,96.9411765 Z M139.764706,103.294118 L144.470588,103.294118 L144.470588,108.470588 C142.823529,110.117647 140.941176,110.588235 139.294118,110.588235 C134.588235,110.588235 132.941176,107.529412 132.941176,103.764706 C132.941176,99.7647059 134.823529,96.9411765 139.058824,96.9411765 C142.823529,96.9411765 144,98.8235294 144.235294,101.176471 L141.647059,101.176471 C141.647059,100 140.941176,99.2941176 139.058824,99.2941176 C136.705882,99.2941176 135.529412,101.176471 135.529412,103.764706 C135.529412,106.588235 136.705882,108.235294 139.294118,108.235294 C140.235294,108.235294 141.176471,108 141.882353,107.529412 L141.882353,105.411765 L139.529412,105.411765 L139.529412,103.294118 L139.764706,103.294118 Z M151.058824,99.2941176 L151.058824,103.529412 L153.176471,103.529412 C154.823529,103.529412 155.764706,102.823529 155.764706,101.411765 C155.764706,100 155.058824,99.2941176 153.411765,99.2941176 L151.058824,99.2941176 Z M153.411765,97.1764706 C156.705882,97.1764706 158.352941,98.8235294 158.352941,101.176471 C158.352941,102.823529 157.647059,104 156.235294,104.705882 L159.058824,110.117647 L156.235294,110.117647 L153.882353,105.411765 C153.411765,105.411765 153.176471,105.411765 152.705882,105.411765 L151.294118,105.411765 L151.294118,110.117647 L148.705882,110.117647 L148.705882,97.1764706 L153.411765,97.1764706 Z M162.352941,97.1764706 L171.058824,97.1764706 L171.058824,99.5294118 L164.941176,99.5294118 L164.941176,102.588235 L170.588235,102.588235 L170.588235,104.705882 L164.941176,104.705882 L164.941176,108 L171.294118,108 L171.294118,110.352941 L162.352941,110.352941 L162.352941,97.1764706 Z M175.529412,106.823529 C176.705882,107.764706 178.117647,108.470588 179.529412,108.470588 C180.705882,108.470588 181.647059,107.764706 181.647059,106.823529 C181.647059,105.882353 181.176471,105.411765 178.823529,104.705882 C176,104 174.823529,103.058824 174.823529,100.941176 C174.823529,98.3529412 176.941176,97.1764706 179.529412,97.1764706 C181.176471,97.1764706 182.823529,97.8823529 184,99.0588235 L182.823529,100.470588 C181.882353,99.5294118 180.705882,99.2941176 179.529412,99.2941176 C178.352941,99.2941176 177.411765,99.7647059 177.411765,100.705882 C177.411765,101.882353 178.352941,102.117647 180.470588,102.823529 C183.058824,103.529412 184,104.470588 184,106.588235 C184,109.176471 182.117647,110.588235 179.294118,110.588235 C177.176471,110.588235 175.529412,109.882353 174.117647,108.470588 L175.529412,106.823529 Z M187.764706,106.823529 C188.941176,107.764706 190.352941,108.470588 191.764706,108.470588 C192.941176,108.470588 193.882353,107.764706 193.882353,106.823529 C193.882353,105.882353 193.411765,105.411765 191.058824,104.705882 C188.235294,104 187.058824,103.058824 187.058824,100.941176 C187.058824,98.3529412 189.176471,97.1764706 191.764706,97.1764706 C193.411765,97.1764706 195.058824,97.8823529 196.235294,99.0588235 L195.058824,100.470588 C194.117647,99.5294118 192.941176,99.2941176 191.764706,99.2941176 C190.588235,99.2941176 189.647059,99.7647059 189.647059,100.705882 C189.647059,101.882353 190.588235,102.117647 192.705882,102.823529 C195.294118,103.529412 196.235294,104.470588 196.235294,106.588235 C196.235294,109.176471 194.352941,110.588235 191.529412,110.588235 C189.411765,110.588235 187.764706,109.882353 186.352941,108.470588 L187.764706,106.823529 Z" id="Digital-Progress"></path>
                <path d="M126.352941,0.705882353 L140.941176,7.76470588 L108.235294,71.0588235 L93.6470588,64 L126.352941,0.705882353 Z M88.7058824,0.705882353 L103.058824,7.76470588 L70.3529412,71.0588235 L55.7647059,64 L88.7058824,0.705882353 Z M167.529412,45.8823529 L167.529412,68.9411765 L151.294118,68.9411765 L151.294118,4 L177.411765,4 C192,4 200,14.3529412 200,24.9411765 C200,35.7647059 192.235294,45.8823529 177.411765,45.8823529 L167.529412,45.8823529 Z M167.529412,18.3529412 L167.529412,31.5294118 L176.705882,31.5294118 C181.176471,31.5294118 183.764706,28.2352941 183.764706,24.9411765 C183.764706,21.6470588 181.176471,18.3529412 176.705882,18.3529412 L167.529412,18.3529412 Z M1.41176471,4 L17.6470588,4 L17.6470588,54.8235294 L45.4117647,54.8235294 L45.4117647,68.9411765 L1.41176471,68.9411765 L1.41176471,4 Z" id="Liip"></path>
            </g>
        </g>
    </g>
</svg>