<svg width="754" height="203" viewBox="0 0 754 203" fill="none" xmlns="http://www.w3.org/2000/svg">
<path d="M137.95 48.77H137.94L112.21 83.03L119 92.08L137.95 66.85V96.15H149.08V48.77H137.95Z" fill="white"/>
<path d="M91.81 110.18L72.88 135.39V106.06H61.75V150.2V153.44H72.9L98.61 119.22L91.81 110.18Z" fill="white"/>
<path d="M137.95 106.06V135.39L116.03 106.21L98.2 82.47L72.89 48.77H72.88H61.75V96.15H72.88V66.85L98.62 101.12L98.61 101.14L105.4 110.18L105.42 110.16L137.93 153.44H149.08V150.2V106.06H137.95Z" fill="white"/>
<path d="M239.4 129.32L239.33 95.45L222.54 123.45H218.3L201.51 95.89V129.32H192.51V78.22H200.32L220.62 112.09L240.5 78.22H248.31L248.38 129.32H239.4Z" fill="white"/>
<path d="M333.1 126.66C329.034 124.492 325.646 121.242 323.31 117.27C320.98 113.152 319.755 108.501 319.755 103.77C319.755 99.0386 320.98 94.3877 323.31 90.27C325.667 86.3068 329.063 83.0633 333.13 80.89C337.434 78.5924 342.252 77.4259 347.13 77.5C351.058 77.4522 354.956 78.197 358.59 79.69C361.968 81.0807 364.975 83.2415 367.37 86L361.24 91.77C359.53 89.8471 357.426 88.3156 355.07 87.2802C352.714 86.2447 350.163 85.7296 347.59 85.77C344.305 85.7181 341.062 86.51 338.17 88.07C335.446 89.5474 333.194 91.7619 331.67 94.46C330.139 97.31 329.338 100.495 329.338 103.73C329.338 106.965 330.139 110.15 331.67 113C333.197 115.696 335.449 117.91 338.17 119.39C341.062 120.95 344.305 121.742 347.59 121.69C350.168 121.729 352.724 121.207 355.081 120.161C357.438 119.114 359.54 117.569 361.24 115.63L367.37 121.47C364.974 124.246 361.96 126.421 358.57 127.82C354.925 129.309 351.017 130.05 347.08 130C342.213 130.085 337.403 128.936 333.1 126.66Z" fill="white"/>
<path d="M388.83 126.66C384.739 124.49 381.33 121.23 378.98 117.24C376.636 113.138 375.403 108.495 375.403 103.77C375.403 99.0452 376.636 94.4023 378.98 90.3C381.33 86.3103 384.739 83.0497 388.83 80.88C393.193 78.6536 398.022 77.4929 402.92 77.4929C407.818 77.4929 412.647 78.6536 417.01 80.88C421.09 83.0464 424.497 86.2909 426.86 90.26C429.205 94.373 430.438 99.0257 430.438 103.76C430.438 108.494 429.205 113.147 426.86 117.26C424.497 121.232 421.091 124.48 417.01 126.65C412.647 128.876 407.818 130.037 402.92 130.037C398.022 130.037 393.193 128.876 388.83 126.65V126.66ZM412.12 119.43C414.81 117.917 417.031 115.692 418.54 113C420.076 110.166 420.88 106.993 420.88 103.77C420.88 100.547 420.076 97.374 418.54 94.54C417.037 91.8435 414.814 89.6175 412.12 88.11C409.289 86.5982 406.129 85.8073 402.92 85.8073C399.711 85.8073 396.551 86.5982 393.72 88.11C391.021 89.6115 388.797 91.839 387.3 94.54C385.764 97.374 384.96 100.547 384.96 103.77C384.96 106.993 385.764 110.166 387.3 113C388.803 115.696 391.026 117.922 393.72 119.43C396.551 120.942 399.711 121.733 402.92 121.733C406.129 121.733 409.289 120.942 412.12 119.43Z" fill="white"/>
<path d="M476.76 80.41C479.849 81.6999 482.479 83.8877 484.31 86.69C486.034 89.6283 486.943 92.9733 486.943 96.38C486.943 99.7867 486.034 103.132 484.31 106.07C482.48 108.881 479.851 111.078 476.76 112.38C473.099 113.912 469.157 114.658 465.19 114.57H453.65V129.32H444.16V78.22H465.16C469.138 78.1268 473.09 78.873 476.76 80.41ZM474.17 103.91C475.251 102.993 476.103 101.837 476.66 100.533C477.218 99.2301 477.464 97.815 477.38 96.4C477.464 94.9836 477.218 93.567 476.661 92.262C476.104 90.9569 475.251 89.7992 474.17 88.88C472.02 87.12 468.89 86.25 464.75 86.25H453.65V106.54H464.75C468.89 106.54 472 105.67 474.17 103.91Z" fill="white"/>
<path d="M538.41 121.36V129.36H500.08V78.22H537.39V86.22H509.57V99.46H534.25V107.27H509.57V121.36H538.41Z" fill="white"/>
<path d="M552.64 78.22H575C580.024 78.1277 585.001 79.2133 589.53 81.39C593.618 83.37 597.04 86.4973 599.38 90.39C601.682 94.4793 602.891 99.0926 602.891 103.785C602.891 108.477 601.682 113.091 599.38 117.18C597.04 121.073 593.618 124.2 589.53 126.18C585 128.353 580.023 129.428 575 129.32H552.64V78.22ZM574.54 121.29C577.96 121.363 581.349 120.627 584.43 119.14C587.182 117.793 589.47 115.655 591 113C592.512 110.158 593.303 106.989 593.303 103.77C593.303 100.551 592.512 97.3816 591 94.54C589.47 91.8849 587.182 89.7469 584.43 88.4C581.349 86.9135 577.96 86.1767 574.54 86.25H562.13V121.25L574.54 121.29Z" fill="white"/>
<path d="M616.59 78.22H626.08V129.32H616.59V78.22Z" fill="white"/>
<path d="M276.85 88.37L258.44 129.28H268.22L281.18 99.01L276.85 88.37Z" fill="white"/>
<path d="M290.78 78.18H281.97L303.92 129.28H313.85L290.78 78.18Z" fill="white"/>
<path d="M654.48 88.37L636.08 129.28H645.86L658.81 99.01L654.48 88.37Z" fill="white"/>
<path d="M668.42 78.18H659.61L681.56 129.28H691.48L668.42 78.18Z" fill="white"/>
</svg>
