<svg xmlns="http://www.w3.org/2000/svg" width="174.159" height="13.239" viewBox="0 0 174.159 13.239">
  <g id="Group_283" data-name="Group 283" transform="translate(-3.754 -5.034)">
    <path id="Path_243" data-name="Path 243" d="M52.871,8.428h2.614v9.291h2.327V8.428h2.33V6.1h-7.27Z" transform="translate(-12.72 -0.276)" fill="#fff"/>
    <path id="Path_244" data-name="Path 244" d="M39.033,17.719H41.36V11.836h2.31V9.51H41.36V8.428h5.784V6.1H39.033Z" transform="translate(-9.137 -0.276)" fill="#fff"/>
    <path id="Path_245" data-name="Path 245" d="M24.64,5.034a6.6,6.6,0,1,0,6.6,6.6A6.607,6.607,0,0,0,24.64,5.034Zm0,10.872a4.272,4.272,0,1,1,4.273-4.272A4.277,4.277,0,0,1,24.64,15.906Z" transform="translate(-3.7)" fill="#fff"/>
    <path id="Path_246" data-name="Path 246" d="M214.615,11.806h3.861v2.7l-1.459,1.459h-1.172a4.221,4.221,0,1,1,2.974-7.215l1.64-1.65a6.547,6.547,0,1,0-4.614,11.191h2.136l2.822-2.821V9.479h-6.187Z" transform="translate(-53.232 -0.043)" fill="#fff"/>
    <path id="Path_247" data-name="Path 247" d="M128.678,17.726h8.11V15.4H131V11.884h2.31V9.557H131V8.476h5.784V6.15h-8.11Z" transform="translate(-32.353 -0.289)" fill="#fff"/>
    <path id="Path_248" data-name="Path 248" d="M172.308,11.339h-8.127V6.111h-2.327V17.729h2.327V13.666h8.127v4.063h2.326V6.111h-2.326Z" transform="translate(-40.945 -0.279)" fill="#fff"/>
    <rect id="Rectangle_161" data-name="Rectangle 161" width="2.326" height="11.618" transform="translate(136.38 5.832)" fill="#fff"/>
    <path id="Path_249" data-name="Path 249" d="M150.1,8.408h2.52v9.313h2.327V8.408h2.423V6.082H150.1Z" transform="translate(-37.901 -0.271)" fill="#fff"/>
    <path id="Path_250" data-name="Path 250" d="M77.057,14.072l-2.377-5.7H72.4l-2.376,5.7-2.719-8.4-2.213.716,3.626,11.2h2.36l2.462-5.907L76,17.591h2.36l3.626-11.2-2.213-.716Z" transform="translate(-15.886 -0.165)" fill="#75fac9"/>
    <path id="Path_251" data-name="Path 251" d="M199.745,14.8V6.475l-2.147-.62-4.78,7.583V6.475l-1.969-.839L188.2,8.18l1.611,1.678.681-.654v8.26l2.147.62,4.78-7.583v7.1l1.986.822,2.721-2.721-1.645-1.645Z" transform="translate(-47.767 -0.156)" fill="#fff"/>
    <path id="Path_252" data-name="Path 252" d="M99.82,7.06a6.391,6.391,0,1,0-5.3,11.352L95.78,17.9l4.3-6.876V17.65h2.326V6.971l-2.149-.617ZM94.3,15.881a4.065,4.065,0,1,1,4.282-6.84Z" transform="translate(-22.24 -0.2)" fill="#fff"/>
    <path id="Path_253" data-name="Path 253" d="M119.971,9.769a3.587,3.587,0,0,0-3.582-3.582H110.7V17.769h2.327V13.351h3.365c.113,0,.22-.024.33-.034l3.083,5.057,1.986-1.211-2.932-4.81A3.566,3.566,0,0,0,119.971,9.769Zm-6.947-1.255h3.365a1.255,1.255,0,1,1,0,2.511h-3.365Z" transform="translate(-27.696 -0.299)" fill="#fff"/>
    <path id="Path_254" data-name="Path 254" d="M8.859,10.238,7.666,9.758c-1.16-.464-1.16-1.065-1.16-1.262,0-.748.581-1.23,1.48-1.23A1.646,1.646,0,0,1,9.621,8.319l.084.209,1.81-1.06L11.435,7.3a4.263,4.263,0,0,0-.956-1.253A3.74,3.74,0,0,0,7.967,5.2,3.387,3.387,0,0,0,4.3,8.531c0,1.409.855,2.482,2.54,3.187l1.141.482c.825.337,1.589.8,1.589,1.85a1.705,1.705,0,0,1-1.764,1.8,1.689,1.689,0,0,1-1.395-.636,2.375,2.375,0,0,1-.459-1.4v-.241l-2.2.479.015.169a4.016,4.016,0,0,0,1.046,2.427,3.679,3.679,0,0,0,2.94,1.258,3.839,3.839,0,0,0,4.022-4C11.776,12.213,10.849,11.048,8.859,10.238Z" transform="translate(0 -0.044)" fill="#fff"/>
    <path id="Path_255" data-name="Path 255" d="M233.06,10.586l-1.193-.481c-1.16-.464-1.16-1.065-1.16-1.262,0-.748.581-1.23,1.48-1.23a1.646,1.646,0,0,1,1.636,1.053l.084.209,1.81-1.06-.081-.163a4.271,4.271,0,0,0-.955-1.253,3.742,3.742,0,0,0-2.512-.848A3.387,3.387,0,0,0,228.5,8.879c0,1.41.854,2.482,2.539,3.188l1.141.481c.825.337,1.589.8,1.589,1.85a1.79,1.79,0,0,1-3.159,1.164,2.375,2.375,0,0,1-.459-1.4v-.241l-2.2.479.014.17A4.027,4.027,0,0,0,229.015,17a3.681,3.681,0,0,0,2.94,1.258,3.839,3.839,0,0,0,4.022-4C235.977,12.561,235.05,11.4,233.06,10.586Z" transform="translate(-58.063 -0.134)" fill="#fff"/>
  </g>
</svg>
