<svg width="1462" height="304" viewBox="0 0 1462 304" fill="none" xmlns="http://www.w3.org/2000/svg">
<path d="M1035.29 133.989H1018.44V153.598H1035.29V210.826H1058.82V153.598H1079V133.989H1058.82V129.778C1058.82 126.874 1059.74 124.719 1061.58 123.314C1063.42 121.909 1066.13 121.207 1069.71 121.207C1071.19 121.204 1072.67 121.276 1074.14 121.425C1075.77 121.609 1077.4 121.876 1079 122.225V102.761C1077.07 102.306 1075.1 101.966 1073.12 101.745C1070.93 101.466 1068.72 101.32 1066.51 101.309C1056.44 101.309 1048.72 103.73 1043.35 108.571C1037.97 113.412 1035.29 120.336 1035.29 129.342V133.989Z" fill="#02C652"/>
<path d="M625.832 195.284L639.775 177.128C644.956 181.497 650.726 185.116 656.915 187.877C662.203 190.097 667.883 191.233 673.618 191.217C679.331 191.217 683.809 190.345 687.054 188.602C690.296 186.86 691.918 184.439 691.919 181.34C691.972 180.063 691.699 178.794 691.128 177.651C690.556 176.508 689.705 175.528 688.652 174.804C686.472 173.256 682.865 172.046 677.83 171.173L655.463 167.251C647.23 165.798 640.888 162.652 636.435 157.811C631.979 152.969 629.752 146.82 629.753 139.363C629.753 129.585 633.457 121.862 640.865 116.196C648.272 110.532 658.464 107.7 671.439 107.7C679.229 107.74 686.958 109.065 694.316 111.621C701.499 113.959 708.211 117.549 714.143 122.225L700.925 140.671C696.204 136.861 690.942 133.776 685.31 131.52C680.328 129.603 675.036 128.619 669.697 128.616C664.661 128.616 660.667 129.415 657.714 131.012C654.758 132.609 653.281 134.764 653.283 137.476C653.234 138.614 653.466 139.746 653.961 140.773C654.455 141.799 655.195 142.687 656.116 143.358C658.004 144.763 661.079 145.804 665.339 146.481L686.4 149.967C696.18 151.517 703.612 154.761 708.696 159.698C713.78 164.636 716.321 171.027 716.321 178.871C716.321 189.136 712.327 197.27 704.338 203.273C696.35 209.278 685.481 212.28 671.73 212.278C663.416 212.246 655.176 210.721 647.401 207.775C639.536 204.904 632.236 200.676 625.832 195.284Z" fill="#02C652"/>
<path d="M360.321 210.826L319.217 109.152H346.233L375.137 184.826L404.623 109.152H430.622L388.936 210.826H360.321Z" fill="#02C652"/>
<path d="M452.554 133.989V178.145C452.448 180.004 452.736 181.864 453.4 183.604C454.063 185.344 455.087 186.924 456.403 188.24C457.72 189.557 459.299 190.58 461.039 191.243C462.779 191.907 464.639 192.195 466.498 192.089C469.245 192.142 471.971 191.596 474.487 190.491C476.753 189.472 478.744 187.929 480.296 185.989V133.989H503.827V210.826H480.296V205.597C477.422 207.761 474.207 209.43 470.783 210.535C467.196 211.705 463.445 212.294 459.672 212.278C450.666 212.278 443.307 209.374 437.594 203.564C431.88 197.753 429.023 190.345 429.024 181.34V133.989H452.554Z" fill="#02C652"/>
<path fill-rule="evenodd" clip-rule="evenodd" d="M573.908 209.519C579.354 207.465 584.394 204.466 588.796 200.658L573.254 186.86C571.351 188.74 569.075 190.2 566.572 191.144C563.788 192.192 560.832 192.709 557.858 192.669C553.724 192.765 549.663 191.573 546.238 189.257C543.027 187.082 540.507 184.032 538.976 180.469H593.734V174.658C593.783 168.937 592.799 163.255 590.829 157.883C589.049 152.963 586.309 148.445 582.768 144.593C579.212 140.787 574.902 137.763 570.113 135.712C565.325 133.662 560.162 132.63 554.954 132.682C549.55 132.64 544.192 133.678 539.194 135.732C534.443 137.673 530.123 140.537 526.485 144.156C522.858 147.804 519.973 152.12 517.988 156.866C515.895 161.804 514.832 167.117 514.864 172.48C514.834 177.858 515.948 183.18 518.132 188.095C520.229 192.868 523.239 197.186 526.993 200.804C530.828 204.456 535.343 207.318 540.283 209.228C545.51 211.28 551.081 212.315 556.696 212.278C562.55 212.366 568.375 211.432 573.908 209.519ZM544.495 155.051C547.384 152.894 550.913 151.768 554.517 151.855C558.119 151.796 561.631 152.976 564.467 155.196C567.356 157.473 569.505 160.557 570.64 164.056H538.539C539.498 160.489 541.588 157.329 544.495 155.051Z" fill="#02C652"/>
<path d="M734.623 153.598V187.44C734.622 195.478 736.97 201.555 741.667 205.669C746.363 209.785 753.311 211.842 762.511 211.842C765.282 211.801 768.048 211.583 770.791 211.189C773.545 210.866 776.267 210.307 778.925 209.519V190.491C777.166 191.032 775.37 191.445 773.551 191.726C771.819 191.974 770.071 192.096 768.322 192.089C764.543 192.09 761.904 191.387 760.405 189.982C758.905 188.58 758.154 186.183 758.154 182.793V153.598H779.65V133.989H758.154V109.152L734.624 114.236V133.989H719.082V153.598H734.623Z" fill="#02C652"/>
<path fill-rule="evenodd" clip-rule="evenodd" d="M785.314 172.48C785.285 167.102 786.399 161.78 788.583 156.866C790.681 152.092 793.691 147.775 797.444 144.156C801.27 140.511 805.755 137.627 810.66 135.66C821.156 131.497 832.845 131.497 843.341 135.66C848.246 137.628 852.732 140.511 856.559 144.156C860.311 147.776 863.321 152.093 865.42 156.866C867.576 161.789 868.689 167.105 868.689 172.48C868.689 177.855 867.576 183.171 865.42 188.095C863.323 192.868 860.313 197.186 856.559 200.804C852.742 204.444 848.252 207.305 843.341 209.228C832.827 213.295 821.174 213.295 810.66 209.228C805.749 207.306 801.26 204.444 797.444 200.804C793.69 197.186 790.679 192.869 788.583 188.095C786.399 183.18 785.285 177.858 785.314 172.48ZM827.002 191.944C829.49 191.985 831.96 191.502 834.25 190.526C836.54 189.549 838.598 188.102 840.292 186.278C843.794 182.508 845.74 177.553 845.74 172.407C845.74 167.262 843.794 162.307 840.292 158.536C838.573 156.746 836.509 155.321 834.225 154.347C831.941 153.374 829.484 152.872 827.002 152.872C824.519 152.872 822.062 153.374 819.778 154.347C817.494 155.321 815.43 156.746 813.711 158.536C810.209 162.307 808.264 167.262 808.264 172.407C808.264 177.553 810.209 182.508 813.711 186.278C815.405 188.102 817.463 189.549 819.753 190.526C822.043 191.502 824.513 191.985 827.002 191.944Z" fill="#02C652"/>
<path d="M879.726 133.989V210.826L903.257 210.826V162.022C905.163 159.049 907.785 156.602 910.882 154.905C914.013 153.165 917.541 152.265 921.122 152.291C923.125 152.288 925.122 152.507 927.076 152.944C928.868 153.334 930.619 153.894 932.305 154.615V134.134C931.258 133.427 930.069 132.956 928.821 132.754C927.042 132.472 925.247 132.303 923.446 132.247C919.53 132.192 915.654 133.037 912.116 134.716C908.701 136.384 905.681 138.76 903.257 141.687V133.989H879.726Z" fill="#02C652"/>
<path fill-rule="evenodd" clip-rule="evenodd" d="M1010.01 200.658C1005.61 204.466 1000.57 207.465 995.127 209.519C989.593 211.432 983.768 212.366 977.913 212.278C972.298 212.315 966.728 211.28 961.501 209.228C956.562 207.318 952.046 204.456 948.211 200.804C944.456 197.186 941.446 192.868 939.349 188.095C937.166 183.18 936.052 177.858 936.083 172.48C936.05 167.117 937.113 161.803 939.206 156.866C941.191 152.121 944.076 147.805 947.702 144.156C951.34 140.537 955.66 137.674 960.411 135.732C965.409 133.678 970.767 132.641 976.171 132.682C981.38 132.629 986.542 133.661 991.331 135.712C996.119 137.762 1000.43 140.787 1003.99 144.593C1007.53 148.445 1010.27 152.963 1012.05 157.883C1014.02 163.255 1015 168.938 1014.95 174.658V180.469H960.193C961.725 184.032 964.245 187.081 967.455 189.257C970.881 191.573 974.942 192.765 979.076 192.669C982.05 192.709 985.006 192.192 987.789 191.144C990.293 190.2 992.569 188.74 994.472 186.86L1010.01 200.658ZM975.735 151.855C972.13 151.769 968.602 152.894 965.713 155.051C962.805 157.329 960.715 160.489 959.757 164.056H991.858C990.722 160.557 988.574 157.473 985.684 155.196C982.848 152.975 979.336 151.796 975.735 151.855Z" fill="#02C652"/>
<path d="M1088.88 210.826V133.989H1112.41V141.687C1114.84 138.76 1117.86 136.384 1121.27 134.716C1124.81 133.037 1128.69 132.192 1132.6 132.247C1134.4 132.303 1136.2 132.472 1137.98 132.754C1139.22 132.956 1140.41 133.427 1141.46 134.134V154.615C1139.77 153.894 1138.02 153.334 1136.23 152.944C1134.28 152.507 1132.28 152.288 1130.28 152.291C1126.7 152.265 1123.17 153.165 1120.04 154.905C1116.94 156.602 1114.32 159.049 1112.41 162.022V210.826L1088.88 210.826Z" fill="#02C652"/>
<path fill-rule="evenodd" clip-rule="evenodd" d="M1148.5 156.866C1146.32 161.78 1145.21 167.103 1145.24 172.48C1145.21 177.858 1146.32 183.18 1148.5 188.095C1150.6 192.868 1153.61 197.186 1157.37 200.804C1161.18 204.444 1165.67 207.305 1170.58 209.228C1181.1 213.295 1192.75 213.295 1203.26 209.228C1208.18 207.305 1212.67 204.443 1216.48 200.804C1220.24 197.185 1223.24 192.868 1225.34 188.095C1227.5 183.171 1228.61 177.855 1228.61 172.48C1228.61 167.105 1227.5 161.789 1225.34 156.866C1223.24 152.093 1220.23 147.777 1216.48 144.156C1212.66 140.512 1208.17 137.628 1203.26 135.66C1192.77 131.497 1181.08 131.497 1170.58 135.66C1165.68 137.628 1161.19 140.511 1157.37 144.156C1153.61 147.776 1150.6 152.093 1148.5 156.866ZM1194.17 190.526C1191.88 191.502 1189.41 191.985 1186.92 191.944C1184.43 191.985 1181.97 191.502 1179.68 190.526C1177.39 189.55 1175.33 188.103 1173.63 186.278C1170.13 182.508 1168.19 177.553 1168.19 172.407C1168.19 167.262 1170.13 162.307 1173.63 158.536C1175.35 156.746 1177.42 155.321 1179.7 154.347C1181.98 153.374 1184.44 152.872 1186.92 152.872C1189.41 152.872 1191.86 153.374 1194.15 154.347C1196.43 155.321 1198.49 156.746 1200.21 158.536C1203.72 162.307 1205.66 167.262 1205.66 172.407C1205.66 177.553 1203.72 182.508 1200.21 186.278C1198.52 188.103 1196.46 189.55 1194.17 190.526Z" fill="#02C652"/>
<path d="M1239.65 133.989H1263.18V139.218C1266.05 137.054 1269.27 135.385 1272.69 134.28C1276.28 133.11 1280.03 132.522 1283.8 132.538C1292.81 132.538 1300.17 135.442 1305.88 141.252C1311.59 147.062 1314.45 154.469 1314.45 163.475V210.826H1290.92V166.671C1291.03 164.812 1290.74 162.952 1290.08 161.212C1289.41 159.472 1288.39 157.892 1287.07 156.576C1285.76 155.259 1284.18 154.236 1282.44 153.572C1280.7 152.909 1278.84 152.621 1276.98 152.727C1274.23 152.675 1271.5 153.22 1268.99 154.324C1266.72 155.344 1264.73 156.888 1263.18 158.827V210.826L1239.65 210.826V133.989Z" fill="#02C652"/>
<path d="M1336.39 153.598V187.44C1336.38 195.478 1338.73 201.555 1343.43 205.669C1348.12 209.785 1355.07 211.842 1364.27 211.842C1367.04 211.801 1369.81 211.583 1372.55 211.189C1375.3 210.866 1378.03 210.307 1380.68 209.518V190.491C1378.93 191.032 1377.13 191.445 1375.31 191.726C1373.58 191.974 1371.83 192.096 1370.08 192.089C1366.31 192.089 1363.67 191.387 1362.16 189.982C1360.66 188.58 1359.91 186.183 1359.91 182.793V153.598H1381.41V133.989H1359.91V109.152L1336.39 114.236V133.989H1320.84V153.598H1336.39Z" fill="#02C652"/>
<path d="M159.217 69.924C157.646 70.9005 156.105 72.4415 153.023 75.5234C149.942 78.6048 148.4 80.1463 147.424 81.7165C144.192 86.914 144.192 93.496 147.424 98.6935C148.4 100.264 149.941 101.804 153.021 104.885L153.023 104.886C156.105 107.968 157.646 109.509 159.217 110.486C164.414 113.718 170.996 113.718 176.193 110.486C177.764 109.509 179.305 107.969 182.387 104.887C185.469 101.805 187.009 100.264 187.986 98.6935C191.218 93.496 191.218 86.914 187.986 81.7165C187.009 80.1462 185.469 78.6053 182.387 75.5234C179.305 72.4415 177.764 70.9005 176.193 69.924C170.996 66.692 164.414 66.692 159.217 69.924Z" fill="#02C652"/>
<path d="M179.493 166.341L215.353 130.48C216.839 128.995 218.603 127.816 220.544 127.012C222.485 126.208 224.566 125.794 226.667 125.794C228.768 125.794 230.848 126.208 232.79 127.012C234.731 127.816 236.495 128.995 237.98 130.48L256 148.5C255.891 148.608 168 236.5 168 236.5L80 148.5C80.2387 148.262 89.9816 138.519 98.2092 130.291C99.6941 128.806 101.457 127.628 103.397 126.824C105.338 126.021 107.417 125.607 109.517 125.607C111.617 125.607 113.697 126.021 115.637 126.825C117.577 127.629 119.34 128.807 120.825 130.293L156.874 166.342C158.359 167.827 160.123 169.005 162.063 169.809C164.004 170.613 166.083 171.026 168.184 171.026C170.284 171.026 172.364 170.612 174.304 169.808C176.245 169.004 178.008 167.826 179.493 166.341Z" fill="#02C652"/>
</svg>
