<?xml version="1.0" encoding="utf-8"?>
<!-- Generator: Adobe Illustrator 19.0.0, SVG Export Plug-In . SVG Version: 6.00 Build 0)  -->
<svg version="1.1" id="Layer_1" xmlns="http://www.w3.org/2000/svg" xmlns:xlink="http://www.w3.org/1999/xlink" x="0px" y="0px"
	 width="324px" height="60px" viewBox="-143 367 324 60" style="enable-background:new -143 367 324 60;" xml:space="preserve">
<style type="text/css">
	.st0{fill:#FFFFFF;}
</style>
<g>
	<g>
		<path class="st0" d="M41.6,386.2c-1-1-2.2-1.5-3.5-1.5c-1.9,0-3.3,0.7-4.2,2c-0.9,1.3-1.3,3-1.3,5v14c0,0.6,0,1.1,0.1,1.6
			c0.1,0.5,0.2,0.9,0.5,1.4l-5.2,0.1c0.3-0.5,0.5-1,0.6-1.7c0.1-0.7,0.2-1.4,0.2-2v-18.8c0-0.8,0-1.5-0.1-2.1
			c-0.1-0.6-0.3-1.2-0.6-1.8h4.5v5.6c1.2-1.6,2.5-2.9,3.9-3.8c1.6-1.1,3.3-1.8,5.1-2L41.6,386.2L41.6,386.2z"/>
		<path class="st0" d="M43.8,391.4c-0.2,1.3-0.2,2.1-0.3,2.6c0,0.5,0,0.9,0,1.2c0,3.6,0.7,6.6,2.2,8.8c1.8,2.7,4.4,4,7.8,4
			c1.5,0,3.1-0.3,4.6-0.9c1.5-0.6,2.9-1.4,4.1-2.5l-0.3,1.4c-1.6,1.2-3.1,2.1-4.5,2.6c-1.4,0.5-3.1,0.8-4.9,0.8
			c-3.9,0-7.1-1.4-9.4-4c-2.4-2.7-3.5-6.1-3.5-10.1c0-3.9,1.2-7.2,3.7-9.8c2.5-2.6,5.6-3.9,9.5-3.9c2.9,0,5.4,0.9,7.5,2.6
			c2.1,1.8,3.3,4.1,3.6,7L43.8,391.4L43.8,391.4z M56.8,390.8c1.7,0,2.6-0.8,2.6-2.5c0-1.7-0.7-3.2-2-4.3c-1.4-1.1-2.9-1.7-4.7-1.7
			c-2.3,0-4.3,0.8-5.9,2.5c-1.4,1.5-2.4,3.5-2.9,5.9L56.8,390.8L56.8,390.8z"/>
		<path class="st0" d="M65.9,403.3v-17c0-1-0.1-1.7-0.2-2.1c-0.1-0.5-0.3-0.9-0.6-1.4h5v22.4c0,1,0,1.7,0.1,2.1s0.3,1,0.6,1.5h-5.9
			c0.4-0.6,0.6-1.2,0.8-1.7c0.1-0.5,0.2-1.2,0.2-2C65.9,404.3,65.9,403.7,65.9,403.3z M68.1,370.6c0.8,0,1.5,0.2,2.1,0.7
			c0.6,0.5,0.9,1.1,0.9,1.9c0,0.8-0.3,1.4-0.9,1.8c-0.6,0.4-1.3,0.7-2.1,0.7c-0.8,0-1.4-0.2-2.1-0.7c-0.6-0.5-0.9-1.1-0.9-1.8
			c0-0.8,0.3-1.4,0.9-1.9C66.6,370.9,67.3,370.6,68.1,370.6z"/>
		<path class="st0" d="M73.7,403.5V386c0-1.1,0-1.8-0.1-2.2c-0.1-0.4-0.2-0.9-0.4-1.5h4.3v4.5c1.5-1.6,2.9-2.9,4.2-3.6
			c1.7-1,3.5-1.4,5.4-1.4h1.8c2.6,0.3,4.4,1.1,5.4,2.3c1,1.2,1.5,3.1,1.5,5.7v15.3c0,0.5,0,1,0,1.7c0,0.7,0.2,1.3,0.5,2h-4.7
			c0.2-2.1,0.3-4.3,0.3-6.4v-11.1c0-2.3-0.4-4.2-1.3-5.5c-1-1.6-2.6-2.4-4.9-2.4c-0.7,0-1.5,0.1-2.4,0.3c-2.2,0.5-3.8,1.3-4.7,2.7
			c-0.9,1.3-1.4,3.2-1.4,5.5v13.7c0,0.6,0,1.1,0.1,1.7c0.1,0.5,0.2,1.1,0.5,1.6h-5.1c0.2-0.4,0.4-0.9,0.6-1.5
			c0.1-0.6,0.2-1.4,0.2-2.5C73.7,404.2,73.7,403.8,73.7,403.5z"/>
		<path class="st0" d="M101.8,382.3l-0.1,0.7c0,0.5,0.1,1,0.2,1.5c0.1,0.6,0.3,1.2,0.6,1.8l7,19.3l7-19.3c0.3-0.8,0.4-1.5,0.4-2.2
			c0-0.6-0.2-1.2-0.5-1.9h3.2c-0.9,1-1.6,2.2-2.1,3.6l-8.5,22.9h-2.5l-8.4-22.9c-0.3-0.7-0.5-1.4-0.8-2c-0.3-0.6-0.7-1.1-1.2-1.7
			H101.8z"/>
		<path class="st0" d="M122.7,391.4c-0.2,1.3-0.2,2.1-0.3,2.6c0,0.5,0,0.9,0,1.2c0,3.6,0.7,6.6,2.2,8.8c1.8,2.7,4.4,4,7.8,4
			c1.5,0,3.1-0.3,4.6-0.9c1.5-0.6,2.9-1.4,4.1-2.5l-0.3,1.4c-1.6,1.2-3.1,2.1-4.5,2.6c-1.4,0.5-3.1,0.8-4.9,0.8
			c-3.9,0-7.1-1.4-9.4-4c-2.4-2.7-3.5-6.1-3.5-10.1c0-3.9,1.2-7.2,3.7-9.8c2.5-2.6,5.6-3.9,9.5-3.9c2.9,0,5.4,0.9,7.5,2.6
			c2.1,1.8,3.3,4.1,3.6,7L122.7,391.4L122.7,391.4z M135.8,390.8c1.7,0,2.6-0.8,2.6-2.5c0-1.7-0.7-3.2-2-4.3
			c-1.4-1.1-2.9-1.7-4.7-1.7c-2.3,0-4.3,0.8-5.9,2.5c-1.4,1.5-2.4,3.5-2.9,5.9L135.8,390.8L135.8,390.8z"/>
		<path class="st0" d="M144.6,403.5V386c0-1.1,0-1.8-0.1-2.2c-0.1-0.4-0.2-0.9-0.4-1.5h4.3v4.5c1.5-1.6,2.9-2.9,4.2-3.6
			c1.6-1,3.5-1.4,5.4-1.4h1.8c2.6,0.3,4.4,1.1,5.4,2.3c1,1.2,1.5,3.1,1.5,5.7v15.3c0,0.5,0,1,0,1.7c0,0.7,0.2,1.3,0.5,2h-4.7
			c0.2-2.1,0.3-4.3,0.3-6.4v-11.1c0-2.3-0.4-4.2-1.3-5.5c-1-1.6-2.7-2.4-4.9-2.4c-0.7,0-1.5,0.1-2.4,0.3c-2.2,0.5-3.8,1.3-4.7,2.7
			c-0.9,1.3-1.4,3.2-1.4,5.5v13.7c0,0.6,0,1.1,0.1,1.7c0.1,0.5,0.2,1.1,0.5,1.6h-5.1c0.2-0.4,0.4-0.9,0.6-1.5
			c0.1-0.6,0.2-1.4,0.2-2.5C144.6,404.2,144.6,403.8,144.6,403.5z"/>
		<path class="st0" d="M168.3,382.6h2.2v-5.9l4-1.1v7h5.5l-0.2,1h-5.3v19.1c0,1.5,0.2,2.6,0.6,3.3c0.5,1.1,1.5,1.6,2.8,1.6
			c1,0,1.8-0.3,2.6-0.8v1c-0.7,0.5-1.5,0.8-2.3,1c-0.8,0.2-1.7,0.3-2.6,0.3c-2,0-3.4-0.7-4.1-2.1c-0.6-1-0.9-2.6-0.9-4.8v-18.8h-2.4
			L168.3,382.6z"/>
	</g>
</g>
<g>
	<g>
		<g>
			<path class="st0" d="M-77.1,382.8h9.9l4.3,16.8l5.4-16.8h9.2l5.6,16.8l4.3-16.8h9.8l-9.8,26.7h-9.1l-5.4-16.1l-5.2,16.1h-9.1
				L-77.1,382.8z"/>
		</g>
		<g>
			<path class="st0" d="M-1.7,398.7h-20.5c0.2,1.6,0.6,2.9,1.3,3.7c1,1.2,2.3,1.7,3.9,1.7c1,0,2-0.3,2.9-0.8
				c0.6-0.3,1.1-0.9,1.8-1.7l10.1,0.9c-1.5,2.7-3.4,4.6-5.6,5.8c-2.2,1.2-5.3,1.7-9.4,1.7c-3.5,0-6.3-0.5-8.3-1.5s-3.7-2.6-5-4.8
				c-1.3-2.2-2-4.7-2-7.7c0-4.2,1.3-7.5,4-10.1c2.7-2.6,6.4-3.9,11.1-3.9c3.8,0,6.8,0.6,9,1.7c2.2,1.2,3.9,2.8,5.1,5
				c1.2,2.2,1.7,5.1,1.7,8.6L-1.7,398.7L-1.7,398.7z M-12.1,393.8c-0.2-2-0.7-3.4-1.6-4.2c-0.9-0.9-2-1.3-3.4-1.3
				c-1.6,0-2.9,0.6-3.9,1.9c-0.6,0.8-1,2-1.2,3.6L-12.1,393.8L-12.1,393.8z"/>
		</g>
		<g>
			<path class="st0" d="M-1.7,372.6H8.7v12.8c1-1.1,2.2-1.9,3.5-2.4c1.3-0.5,2.7-0.8,4.3-0.8c3.3,0,5.9,1.2,8.1,3.5
				c2.1,2.3,3.2,5.7,3.2,10.1c0,2.9-0.5,5.5-1.5,7.7c-1,2.2-2.3,3.9-4,5c-1.7,1.1-3.6,1.6-5.7,1.6c-1.8,0-3.4-0.4-4.9-1.2
				c-1.1-0.6-2.3-1.7-3.7-3.4v3.9h-9.6L-1.7,372.6L-1.7,372.6z M8.6,396.1c0,2.3,0.4,4,1.3,5c0.9,1,2,1.5,3.3,1.5
				c1.2,0,2.2-0.5,3.1-1.5c0.8-1,1.2-2.7,1.2-5.1c0-2.1-0.4-3.7-1.2-4.7c-0.8-1-1.8-1.5-3-1.5c-1.4,0-2.5,0.5-3.4,1.5
				C9,392.4,8.6,394,8.6,396.1z"/>
		</g>
	</g>
</g>
<g>
	<path class="st0" d="M-63.5,423.9c-0.1,0-0.2,0.1-0.4,0.1c-0.2,0-0.3,0-0.5,0.1c-0.2,0-0.4,0-0.6,0.1c-0.2,0-0.4,0-0.6,0
		c-0.2,0-0.5-0.1-0.7-0.2c-0.2-0.1-0.4-0.2-0.5-0.4c-0.2-0.2-0.3-0.4-0.4-0.6c-0.1-0.2-0.1-0.4-0.1-0.6c0-0.4,0.1-0.8,0.3-1.1
		s0.5-0.5,0.8-0.7s0.7-0.3,1.2-0.3c0.5-0.1,0.9-0.1,1.5-0.1v-0.7c0-0.9-0.5-1.3-1.4-1.3c-0.3,0-0.6,0-0.9,0.1
		c-0.3,0.1-0.6,0.2-0.9,0.4l-0.3-0.5c0.4-0.2,0.8-0.4,1.2-0.4c0.4-0.1,0.7-0.1,1.1-0.1c0.2,0,0.4,0,0.6,0.1c0.2,0,0.4,0.1,0.6,0.2
		c0.2,0.1,0.4,0.3,0.5,0.5c0.1,0.2,0.2,0.5,0.2,0.8v4.8L-63.5,423.9z M-63.5,420.8c-0.4,0-0.8,0-1.2,0c-0.4,0-0.7,0.1-1,0.2
		c-0.3,0.1-0.5,0.3-0.7,0.5c-0.2,0.2-0.3,0.5-0.3,0.8c0,0.4,0.1,0.7,0.4,0.9c0.2,0.2,0.5,0.4,0.9,0.4c0.1,0,0.3,0,0.5,0
		c0.2,0,0.4,0,0.5-0.1c0.2,0,0.3-0.1,0.5-0.1c0.1,0,0.3-0.1,0.3-0.1L-63.5,420.8L-63.5,420.8z"/>
	<path class="st0" d="M-49.9,424.2l-0.3-0.2l-1.9-4.8l-2,5l-0.3-0.2l-2.6-6.1l0.6-0.3l2.2,5.3l2-5.1l0.2-0.2l2,5.3l2.3-5.3l0.6,0.3
		L-49.9,424.2z"/>
	<path class="st0" d="M-42.1,417.9c0.3,0.1,0.6,0.3,0.9,0.5c0.3,0.2,0.5,0.6,0.6,0.9c0.2,0.4,0.2,0.8,0.2,1.3h-4.9
		c0,0.4,0,0.8,0.1,1.1c0.1,0.3,0.3,0.6,0.5,0.9c0.2,0.3,0.5,0.5,0.8,0.6c0.3,0.1,0.7,0.2,1,0.2c0.4,0,0.7-0.1,1-0.2
		c0.3-0.1,0.6-0.3,1-0.5l0.3,0.5c-0.7,0.6-1.5,0.8-2.4,0.8c-0.4,0-0.9-0.1-1.2-0.2c-0.4-0.2-0.7-0.4-1-0.7c-0.3-0.3-0.5-0.6-0.6-1
		c-0.2-0.4-0.2-0.8-0.2-1.3c0-0.4,0.1-0.9,0.2-1.3c0.1-0.4,0.3-0.7,0.6-1c0.3-0.3,0.6-0.5,0.9-0.7c0.3-0.2,0.7-0.2,1.1-0.2
		C-42.8,417.7-42.4,417.8-42.1,417.9z M-43.1,418.4c-0.5,0-1,0.2-1.3,0.5c-0.4,0.3-0.6,0.8-0.7,1.3h4C-41.4,419-42,418.4-43.1,418.4
		z"/>
	<path class="st0" d="M-32.9,422.2c-0.2,0.4-0.4,0.8-0.7,1.1c-0.3,0.3-0.7,0.5-1.1,0.7c-0.4,0.2-0.9,0.2-1.4,0.2
		c-0.4,0-0.7,0-1.1-0.1c-0.3-0.1-0.7-0.2-1.1-0.4v-9.1l0.7-0.2v4c0.3-0.2,0.6-0.4,1-0.5c0.3-0.1,0.7-0.2,1.2-0.2
		c0.4,0,0.8,0.1,1.1,0.2s0.6,0.4,0.9,0.6c0.2,0.3,0.4,0.6,0.6,1s0.2,0.8,0.2,1.2C-32.7,421.3-32.8,421.7-32.9,422.2z M-33.6,419.8
		c-0.1-0.3-0.3-0.6-0.5-0.8c-0.2-0.2-0.4-0.4-0.7-0.5c-0.3-0.1-0.5-0.2-0.9-0.2c-0.4,0-0.7,0.1-1.1,0.2c-0.3,0.1-0.7,0.3-1.1,0.7
		v4.1c0.3,0.1,0.5,0.2,0.8,0.2c0.2,0.1,0.5,0.1,0.7,0.1c0.4,0,0.8-0.1,1.1-0.2c0.3-0.1,0.6-0.3,0.9-0.6c0.2-0.2,0.4-0.5,0.6-0.9
		s0.2-0.7,0.2-1.1C-33.4,420.4-33.4,420.1-33.6,419.8z"/>
	<path class="st0" d="M-24.7,415.1l-0.9,0.9l-0.9-0.9l0.9-0.9L-24.7,415.1z M-26,424v-6.1l0.7-0.3v6.4H-26z"/>
	<path class="st0" d="M-18.3,424v-3.5c0-0.7-0.2-1.2-0.5-1.6c-0.3-0.4-0.8-0.6-1.3-0.6c-0.4,0-0.8,0-1.2,0.1
		c-0.3,0.1-0.6,0.2-0.9,0.4v5.2h-0.7v-6.2l0.7,0.3v0c0.3-0.1,0.6-0.2,1-0.3c0.4-0.1,0.8-0.1,1.1-0.1c0.7,0,1.3,0.2,1.7,0.6
		s0.7,1.1,0.7,1.9v3.8L-18.3,424L-18.3,424z"/>
	<path class="st0" d="M-10.8,424v-3.5c0-0.7-0.2-1.2-0.5-1.6c-0.3-0.4-0.8-0.6-1.3-0.6c-0.4,0-0.8,0-1.2,0.1
		c-0.3,0.1-0.6,0.2-0.9,0.4v5.2h-0.7v-6.2l0.7,0.3v0c0.3-0.1,0.6-0.2,1-0.3c0.4-0.1,0.8-0.1,1.1-0.1c0.7,0,1.3,0.2,1.7,0.6
		s0.7,1.1,0.7,1.9v3.8L-10.8,424L-10.8,424z"/>
	<path class="st0" d="M-2,422.2c-0.2,0.4-0.4,0.7-0.7,1c-0.3,0.3-0.6,0.5-1,0.7c-0.4,0.2-0.8,0.2-1.3,0.2s-0.9-0.1-1.3-0.2
		c-0.4-0.2-0.7-0.4-1-0.7c-0.3-0.3-0.5-0.6-0.7-1c-0.2-0.4-0.2-0.8-0.2-1.3c0-0.5,0.1-0.9,0.2-1.3c0.2-0.4,0.4-0.7,0.7-1
		c0.3-0.3,0.6-0.5,1-0.7c0.4-0.2,0.8-0.2,1.3-0.2s0.9,0.1,1.3,0.2c0.4,0.2,0.7,0.4,1,0.7c0.3,0.3,0.5,0.6,0.7,1
		c0.2,0.4,0.2,0.8,0.2,1.3C-1.8,421.4-1.9,421.8-2,422.2z M-2.7,419.9c-0.1-0.3-0.3-0.6-0.5-0.8c-0.2-0.2-0.5-0.4-0.8-0.6
		c-0.3-0.1-0.6-0.2-1-0.2c-0.4,0-0.7,0.1-1,0.2c-0.3,0.1-0.6,0.3-0.8,0.5s-0.4,0.5-0.5,0.8c-0.1,0.3-0.2,0.7-0.2,1
		c0,0.4,0.1,0.7,0.2,1c0.1,0.3,0.3,0.6,0.5,0.8c0.2,0.2,0.5,0.4,0.8,0.5c0.3,0.1,0.6,0.2,1,0.2c0.3,0,0.7-0.1,1-0.2
		c0.3-0.1,0.6-0.3,0.8-0.5c0.2-0.2,0.4-0.5,0.5-0.8c0.1-0.3,0.2-0.7,0.2-1C-2.5,420.6-2.6,420.2-2.7,419.9z"/>
	<path class="st0" d="M2.5,424.4l-0.3-0.2l-2.8-6.3l0.6-0.2l2.4,5.4l2.3-5.4l0.6,0.2L2.5,424.4z"/>
	<path class="st0" d="M10.2,423.9c-0.1,0-0.2,0.1-0.4,0.1c-0.2,0-0.3,0-0.5,0.1c-0.2,0-0.4,0-0.6,0.1c-0.2,0-0.4,0-0.6,0
		c-0.2,0-0.5-0.1-0.7-0.2c-0.2-0.1-0.4-0.2-0.5-0.4c-0.2-0.2-0.3-0.4-0.4-0.6c-0.1-0.2-0.1-0.4-0.1-0.6c0-0.4,0.1-0.8,0.3-1.1
		s0.5-0.5,0.8-0.7s0.7-0.3,1.2-0.3c0.5-0.1,0.9-0.1,1.5-0.1v-0.7c0-0.9-0.5-1.3-1.4-1.3c-0.3,0-0.6,0-0.9,0.1
		c-0.3,0.1-0.6,0.2-0.9,0.4l-0.3-0.5c0.4-0.2,0.8-0.4,1.2-0.4c0.4-0.1,0.7-0.1,1.1-0.1c0.2,0,0.4,0,0.6,0.1c0.2,0,0.4,0.1,0.6,0.2
		c0.2,0.1,0.4,0.3,0.5,0.5c0.1,0.2,0.2,0.5,0.2,0.8v4.8L10.2,423.9z M10.2,420.8c-0.4,0-0.8,0-1.2,0c-0.4,0-0.7,0.1-1,0.2
		c-0.3,0.1-0.5,0.3-0.7,0.5s-0.3,0.5-0.3,0.8c0,0.4,0.1,0.7,0.4,0.9c0.2,0.2,0.5,0.4,0.9,0.4c0.1,0,0.3,0,0.5,0c0.2,0,0.4,0,0.5-0.1
		c0.2,0,0.3-0.1,0.5-0.1c0.1,0,0.3-0.1,0.3-0.1L10.2,420.8L10.2,420.8z"/>
	<path class="st0" d="M15.6,424.1c-0.3,0.1-0.5,0.1-0.7,0.1c-0.2,0-0.3,0-0.5-0.1c-0.2-0.1-0.3-0.1-0.5-0.2
		c-0.1-0.1-0.2-0.2-0.3-0.4c-0.1-0.2-0.1-0.4-0.1-0.6v-4.4h-1.2v-0.5h1.2v-1.7l0.7-0.4v2.1h1.7v0.5h-1.7v3.7c0,0.3,0,0.5,0,0.7
		c0,0.2,0,0.3,0.1,0.5c0.1,0.1,0.2,0.2,0.3,0.3c0.1,0.1,0.3,0.1,0.5,0.1c0.2,0,0.3,0,0.4,0c0.1,0,0.3-0.1,0.5-0.2l0.3,0.5
		C16.1,423.9,15.9,424,15.6,424.1z"/>
	<path class="st0" d="M19.2,415.1l-0.9,0.9l-0.9-0.9l0.9-0.9L19.2,415.1z M17.9,424v-6.1l0.7-0.3v6.4H17.9z"/>
	<path class="st0" d="M26.8,422.2c-0.2,0.4-0.4,0.7-0.7,1c-0.3,0.3-0.6,0.5-1,0.7c-0.4,0.2-0.8,0.2-1.3,0.2s-0.9-0.1-1.3-0.2
		c-0.4-0.2-0.7-0.4-1-0.7c-0.3-0.3-0.5-0.6-0.7-1c-0.2-0.4-0.2-0.8-0.2-1.3c0-0.5,0.1-0.9,0.2-1.3c0.2-0.4,0.4-0.7,0.7-1
		c0.3-0.3,0.6-0.5,1-0.7c0.4-0.2,0.8-0.2,1.3-0.2s0.9,0.1,1.3,0.2c0.4,0.2,0.7,0.4,1,0.7c0.3,0.3,0.5,0.6,0.7,1
		c0.2,0.4,0.2,0.8,0.2,1.3C27,421.4,27,421.8,26.8,422.2z M26.1,419.9c-0.1-0.3-0.3-0.6-0.5-0.8c-0.2-0.2-0.5-0.4-0.8-0.6
		c-0.3-0.1-0.6-0.2-1-0.2c-0.4,0-0.7,0.1-1,0.2c-0.3,0.1-0.6,0.3-0.8,0.5s-0.4,0.5-0.5,0.8c-0.1,0.3-0.2,0.7-0.2,1
		c0,0.4,0.1,0.7,0.2,1c0.1,0.3,0.3,0.6,0.5,0.8c0.2,0.2,0.5,0.4,0.8,0.5c0.3,0.1,0.6,0.2,1,0.2c0.3,0,0.7-0.1,1-0.2
		c0.3-0.1,0.6-0.3,0.8-0.5c0.2-0.2,0.4-0.5,0.5-0.8c0.1-0.3,0.2-0.7,0.2-1C26.3,420.6,26.3,420.2,26.1,419.9z"/>
	<path class="st0" d="M33.5,424v-3.5c0-0.7-0.2-1.2-0.5-1.6c-0.3-0.4-0.8-0.6-1.3-0.6c-0.4,0-0.8,0-1.2,0.1
		c-0.3,0.1-0.6,0.2-0.9,0.4v5.2H29v-6.2l0.7,0.3v0c0.3-0.1,0.6-0.2,1-0.3c0.4-0.1,0.8-0.1,1.1-0.1c0.7,0,1.3,0.2,1.7,0.6
		s0.7,1.1,0.7,1.9v3.8L33.5,424L33.5,424z"/>
	<path class="st0" d="M45.1,424.1c-0.4,0.1-0.8,0.1-1.1,0.1c-0.5,0-0.9-0.1-1.3-0.2c-0.4-0.2-0.7-0.4-1-0.6c-0.3-0.3-0.5-0.6-0.7-1
		c-0.2-0.4-0.2-0.8-0.2-1.3c0-0.5,0.1-0.9,0.2-1.3c0.2-0.4,0.4-0.8,0.7-1c0.3-0.3,0.6-0.5,1-0.7s0.8-0.2,1.3-0.2c0.3,0,0.6,0,1,0.1
		s0.7,0.2,1,0.3l-0.3,0.6c-0.2-0.1-0.4-0.1-0.5-0.2s-0.3-0.1-0.4-0.1c-0.1,0-0.3,0-0.4-0.1s-0.3,0-0.4,0c-0.4,0-0.7,0.1-1,0.2
		c-0.3,0.1-0.6,0.3-0.8,0.5c-0.2,0.2-0.4,0.5-0.5,0.8c-0.1,0.3-0.2,0.7-0.2,1.1c0,0.8,0.2,1.4,0.7,1.9c0.5,0.5,1.1,0.7,1.9,0.7
		c0.1,0,0.3,0,0.4,0c0.1,0,0.3,0,0.4-0.1c0.1,0,0.3-0.1,0.4-0.1c0.2,0,0.3-0.1,0.5-0.2l0.3,0.6C45.9,423.9,45.5,424,45.1,424.1z"/>
	<path class="st0" d="M53.6,422.2c-0.2,0.4-0.4,0.7-0.7,1c-0.3,0.3-0.6,0.5-1,0.7c-0.4,0.2-0.8,0.2-1.3,0.2s-0.9-0.1-1.3-0.2
		c-0.4-0.2-0.7-0.4-1-0.7c-0.3-0.3-0.5-0.6-0.7-1c-0.2-0.4-0.2-0.8-0.2-1.3c0-0.5,0.1-0.9,0.2-1.3c0.2-0.4,0.4-0.7,0.7-1
		c0.3-0.3,0.6-0.5,1-0.7c0.4-0.2,0.8-0.2,1.3-0.2s0.9,0.1,1.3,0.2c0.4,0.2,0.7,0.4,1,0.7c0.3,0.3,0.5,0.6,0.7,1
		c0.2,0.4,0.2,0.8,0.2,1.3C53.8,421.4,53.7,421.8,53.6,422.2z M52.9,419.9c-0.1-0.3-0.3-0.6-0.5-0.8c-0.2-0.2-0.5-0.4-0.8-0.6
		c-0.3-0.1-0.6-0.2-1-0.2c-0.4,0-0.7,0.1-1,0.2c-0.3,0.1-0.6,0.3-0.8,0.5s-0.4,0.5-0.5,0.8c-0.1,0.3-0.2,0.7-0.2,1
		c0,0.4,0.1,0.7,0.2,1c0.1,0.3,0.3,0.6,0.5,0.8c0.2,0.2,0.5,0.4,0.8,0.5c0.3,0.1,0.6,0.2,1,0.2c0.3,0,0.7-0.1,1-0.2
		c0.3-0.1,0.6-0.3,0.8-0.5c0.2-0.2,0.4-0.5,0.5-0.8c0.1-0.3,0.2-0.7,0.2-1C53.1,420.6,53,420.2,52.9,419.9z"/>
	<path class="st0" d="M64.1,424v-3.5c0-0.3,0-0.6-0.1-0.9c-0.1-0.3-0.1-0.5-0.3-0.7c-0.1-0.2-0.3-0.3-0.5-0.4
		c-0.2-0.1-0.5-0.2-0.8-0.2c-0.4,0-0.8,0.1-1.1,0.2c-0.3,0.1-0.6,0.3-0.9,0.6c0,0,0,0.2,0.1,0.4c0,0.2,0.1,0.4,0.1,0.6v3.9h-0.7
		v-3.5c0-0.8-0.1-1.3-0.4-1.7s-0.7-0.5-1.2-0.5c-0.4,0-0.8,0.1-1.1,0.2c-0.3,0.1-0.5,0.3-0.8,0.4v5.1h-0.7v-6.2l0.7,0.4
		c0.2-0.1,0.5-0.2,0.8-0.3c0.3-0.1,0.6-0.1,1.1-0.1c0.5,0,0.9,0.1,1.2,0.3c0.3,0.2,0.5,0.4,0.7,0.6c0.4-0.2,0.7-0.5,1.1-0.6
		c0.4-0.2,0.8-0.2,1.3-0.2c0.7,0,1.3,0.2,1.6,0.7c0.3,0.4,0.5,1,0.5,1.8v3.8L64.1,424L64.1,424z"/>
	<path class="st0" d="M72.5,422.2c-0.2,0.4-0.4,0.7-0.7,1c-0.3,0.3-0.6,0.5-1,0.7c-0.4,0.2-0.8,0.2-1.2,0.2c-0.3,0-0.6,0-0.9-0.1
		c-0.3-0.1-0.6-0.1-0.9-0.3v3.4h-0.7v-9.5l0.7,0.3c0.3-0.1,0.6-0.2,0.9-0.2c0.3-0.1,0.6-0.1,1-0.1c0.4,0,0.8,0.1,1.2,0.2
		c0.4,0.2,0.7,0.4,1,0.7c0.3,0.3,0.5,0.6,0.6,1c0.2,0.4,0.2,0.8,0.2,1.3C72.7,421.4,72.6,421.8,72.5,422.2z M71.8,419.9
		c-0.1-0.3-0.3-0.6-0.5-0.8c-0.2-0.2-0.5-0.4-0.8-0.5c-0.3-0.1-0.7-0.2-1-0.2c-0.3,0-0.5,0-0.8,0.1c-0.2,0-0.5,0.1-0.9,0.3v4.3
		c0.3,0.2,0.6,0.3,0.9,0.4c0.3,0.1,0.5,0.1,0.8,0.1c0.4,0,0.7-0.1,1-0.2c0.3-0.1,0.6-0.3,0.8-0.5s0.4-0.5,0.5-0.8
		c0.1-0.3,0.2-0.7,0.2-1S71.9,420.3,71.8,419.9z"/>
	<path class="st0" d="M78.2,423.9c-0.1,0-0.2,0.1-0.4,0.1c-0.2,0-0.3,0-0.5,0.1c-0.2,0-0.4,0-0.6,0.1c-0.2,0-0.4,0-0.6,0
		c-0.2,0-0.5-0.1-0.7-0.2c-0.2-0.1-0.4-0.2-0.5-0.4c-0.2-0.2-0.3-0.4-0.4-0.6c-0.1-0.2-0.1-0.4-0.1-0.6c0-0.4,0.1-0.8,0.3-1.1
		s0.5-0.5,0.8-0.7s0.7-0.3,1.2-0.3c0.5-0.1,0.9-0.1,1.5-0.1v-0.7c0-0.9-0.5-1.3-1.4-1.3c-0.3,0-0.6,0-0.9,0.1
		c-0.3,0.1-0.6,0.2-0.9,0.4l-0.3-0.5c0.4-0.2,0.8-0.4,1.2-0.4c0.4-0.1,0.7-0.1,1.1-0.1c0.2,0,0.4,0,0.6,0.1c0.2,0,0.4,0.1,0.6,0.2
		c0.2,0.1,0.4,0.3,0.5,0.5c0.1,0.2,0.2,0.5,0.2,0.8v4.8L78.2,423.9z M78.2,420.8c-0.4,0-0.8,0-1.2,0c-0.4,0-0.7,0.1-1,0.2
		c-0.3,0.1-0.5,0.3-0.7,0.5s-0.3,0.5-0.3,0.8c0,0.4,0.1,0.7,0.4,0.9c0.2,0.2,0.5,0.4,0.9,0.4c0.1,0,0.3,0,0.5,0c0.2,0,0.4,0,0.5-0.1
		c0.2,0,0.3-0.1,0.5-0.1c0.1,0,0.3-0.1,0.3-0.1L78.2,420.8L78.2,420.8z"/>
	<path class="st0" d="M85.6,424v-3.5c0-0.7-0.2-1.2-0.5-1.6c-0.3-0.4-0.8-0.6-1.3-0.6c-0.4,0-0.8,0-1.2,0.1
		c-0.3,0.1-0.6,0.2-0.9,0.4v5.2h-0.7v-6.2l0.7,0.3v0c0.3-0.1,0.6-0.2,1-0.3c0.4-0.1,0.8-0.1,1.1-0.1c0.7,0,1.3,0.2,1.7,0.6
		s0.7,1.1,0.7,1.9v3.8L85.6,424L85.6,424z"/>
	<path class="st0" d="M90.6,424c-0.3,0.6-0.6,1-0.8,1.3c-0.3,0.3-0.6,0.6-0.8,0.8c-0.3,0.2-0.5,0.3-0.7,0.4
		c-0.2,0.1-0.4,0.1-0.5,0.1l-0.2-0.5c0.2,0,0.4-0.1,0.6-0.2c0.2-0.1,0.4-0.2,0.6-0.3c0.2-0.1,0.4-0.3,0.6-0.6
		c0.2-0.2,0.4-0.6,0.6-0.9c0.1-0.1,0.1-0.2,0.2-0.4c0.1-0.1,0.1-0.3,0.2-0.4c0.1-0.1,0.1-0.2,0.1-0.3c0-0.1,0-0.1,0-0.2l-2.6-4.9
		l0.6-0.3l2.4,4.6l2.2-4.6l0.6,0.3L90.6,424z"/>
</g>
<g>
	<path class="st0" d="M-114.3,409.9c6.4,6.4,13.5-0.8,13.5-0.8c7.6-7.3,0.8-13.7,0.8-13.7l-4.5-4.4c-0.8-0.7-2-0.7-2.7,0l-0.6,0.6
		c-0.7,0.8-0.7,2,0,2.7l4.4,4.4c0,0,4,3.5-0.1,7.5c0,0-3.9,4.4-7.6,0.3l-4.5-4.4c-0.7-0.7-2-0.7-2.7,0l-0.6,0.6
		c-0.7,0.8-0.7,2,0,2.7L-114.3,409.9z"/>
	<path class="st0" d="M-113.2,400.1c-0.8-0.8-0.9-2.1-0.2-2.9l0.6-0.6c0.7-0.8,2-0.7,2.9,0.2l4.9,4.9c0.8,0.8,0.9,2.1,0.2,2.9
		l-0.6,0.6c-0.7,0.7-2,0.7-2.9-0.2L-113.2,400.1z"/>
</g>
<path class="st0" d="M-83.3,423.7c-1.6-7.8-1.2-14.9-0.7-21.9c0.6-10.7,1.3-20.9-6.9-29.1c-7.1-7.1-18.7-7.1-25.9,0
	c-4,4-5.8,9.6-5.2,15.1c-5.5-0.6-11.1,1.2-15.1,5.2c-7.1,7.1-7.1,18.7,0,25.9c8.5,8.5,18.7,7.9,29.5,7.2c0.7,0,1.4-0.1,2.1-0.1
	l2.5-0.2l-9.2-4.3l-3.1,0.1c-7.1,0.1-13-0.9-18.2-6.1c-5.2-5.2-5.2-13.7,0-19c3.6-3.6,9.2-4.9,14-3.1l4.9,1.8l-1.8-4.9
	c-1.8-4.9-0.5-10.4,3.1-14c5.2-5.2,13.7-5.2,19,0c6.6,6.6,6.1,14.9,5.5,25.3c-0.2,3.7-0.5,7.6-0.4,11.7l6.4,13.1L-83.3,423.7z"/>
</svg>
