<svg width="51" height="58" viewBox="0 0 51 58" fill="none" xmlns="http://www.w3.org/2000/svg">
<g clip-path="url(#clip0_1958_62968)">
<path d="M4.84149 15.3227L4.84152 15.3227L4.84865 15.3182L22.1362 4.37921C23.4473 3.57184 25.0714 3.54018 26.4008 4.29161L26.405 4.29396L44.9401 14.6133C44.9408 14.6138 44.9415 14.6142 44.9422 14.6146C46.2638 15.3626 47.1047 16.7791 47.1378 18.3448L47.249 38.5289H47.2489L47.2491 38.5397C47.2803 40.1033 46.5029 41.5622 45.2133 42.3851L27.6619 53.5843C26.3424 54.4262 24.6895 54.4717 23.3391 53.7084L5.21539 43.4643C3.79003 42.6586 2.74014 41.1507 2.75007 39.6072H2.75009V39.6024L2.75015 19.0833C2.75016 19.0825 2.75016 19.0817 2.75017 19.081C2.76088 17.5381 3.55785 16.1148 4.84149 15.3227Z" fill="#18181B" stroke="url(#paint0_linear_1958_62968)" stroke-width="1.5"/>
<path d="M32.9087 22.9417L29.167 20.8084C29.0403 20.7352 28.8966 20.6967 28.7503 20.6967C28.604 20.6967 28.4603 20.7352 28.3337 20.8084L25.0003 22.7084L21.667 20.8084C21.5403 20.7352 21.3966 20.6967 21.2503 20.6967C21.104 20.6967 20.9603 20.7352 20.8337 20.8084L17.092 22.9417C16.9633 23.0141 16.8561 23.1193 16.7814 23.2467C16.7067 23.3741 16.6672 23.519 16.667 23.6667V27.9334C16.6672 28.081 16.7067 28.226 16.7814 28.3534C16.8561 28.4807 16.9633 28.586 17.092 28.6584L20.4253 30.55V34.3334C20.4256 34.481 20.4651 34.626 20.5397 34.7534C20.6144 34.8807 20.7216 34.986 20.8503 35.0584L24.6003 37.1917C24.727 37.2648 24.8707 37.3033 25.017 37.3033C25.1633 37.3033 25.307 37.2648 25.4337 37.1917L29.167 35.0584C29.2957 34.986 29.4029 34.8807 29.4776 34.7534C29.5523 34.626 29.5917 34.481 29.592 34.3334V30.55L32.9253 28.6584C33.054 28.586 33.1612 28.4807 33.2359 28.3534C33.3106 28.226 33.3501 28.081 33.3503 27.9334V23.6667C33.3484 23.5174 33.3064 23.3713 33.2287 23.2437C33.151 23.1162 33.0405 23.0119 32.9087 22.9417ZM18.3337 27.45V24.1167L21.2503 22.45L24.167 24.1167V27.45L21.2503 29.1167L18.3337 27.45ZM27.917 33.85L25.0003 35.5167L22.0837 33.85V30.5167L25.0003 28.85L27.917 30.5167V33.85ZM31.667 27.45L28.7503 29.1167L25.8337 27.45V24.1167L28.7503 22.45L31.667 24.1167V27.45Z" fill="url(#paint1_linear_1958_62968)"/>
</g>
<defs>
<linearGradient id="paint0_linear_1958_62968" x1="2.45103" y1="18.9482" x2="48.174" y2="41.3679" gradientUnits="userSpaceOnUse">
<stop stop-color="#30FFAA"/>
<stop offset="1" stop-color="#007E4A"/>
</linearGradient>
<linearGradient id="paint1_linear_1958_62968" x1="16.6205" y1="24.2456" x2="33.3203" y2="33.2706" gradientUnits="userSpaceOnUse">
<stop stop-color="#30FFAA"/>
<stop offset="1" stop-color="#007E4A"/>
</linearGradient>
<clipPath id="clip0_1958_62968">
<rect width="51" height="58" fill="white"/>
</clipPath>
</defs>
</svg>
