<svg width="51" height="58" viewBox="0 0 51 58" fill="none" xmlns="http://www.w3.org/2000/svg">
<g clip-path="url(#clip0_1958_63200)">
<path d="M47.2491 38.5397C47.251 38.6374 47.2498 38.7346 47.2455 38.8313C47.181 40.282 46.4213 41.6143 45.2133 42.3851L27.6619 53.5843C26.3495 54.4217 24.6882 54.471 23.3391 53.7084L5.21539 43.4643C5.17089 43.4392 5.12676 43.4133 5.08301 43.3868C3.72673 42.5646 2.74051 41.0939 2.75007 39.6072L2.75009 39.6072V39.6024L2.75015 19.0833C2.75016 19.0825 2.75016 19.0817 2.75017 19.081C2.76088 17.5381 3.55785 16.1148 4.84149 15.3227L4.84152 15.3227L4.84865 15.3182L22.1362 4.37921C23.4403 3.57616 25.0726 3.54088 26.4008 4.29159L26.405 4.29396L44.9401 14.6133C44.9408 14.6138 44.9415 14.6142 44.9422 14.6146C46.2626 15.3619 47.1049 16.7873 47.1378 18.3448L47.249 38.5289H47.2489L47.2491 38.5397Z" fill="white" stroke="url(#paint0_linear_1958_63200)" stroke-width="1.5"/>
<path d="M32.9082 22.9417L29.1665 20.8084C29.0398 20.7352 28.8961 20.6967 28.7498 20.6967C28.6036 20.6967 28.4599 20.7352 28.3332 20.8084L24.9998 22.7084L21.6665 20.8084C21.5398 20.7352 21.3961 20.6967 21.2498 20.6967C21.1036 20.6967 20.9599 20.7352 20.8332 20.8084L17.0915 22.9417C16.9628 23.0141 16.8556 23.1193 16.7809 23.2467C16.7062 23.3741 16.6668 23.519 16.6665 23.6667V27.9334C16.6668 28.081 16.7062 28.226 16.7809 28.3534C16.8556 28.4807 16.9628 28.586 17.0915 28.6584L20.4248 30.55V34.3334C20.4251 34.481 20.4646 34.626 20.5393 34.7534C20.6139 34.8807 20.7211 34.986 20.8498 35.0584L24.5998 37.1917C24.7265 37.2648 24.8702 37.3033 25.0165 37.3033C25.1628 37.3033 25.3065 37.2648 25.4332 37.1917L29.1665 35.0584C29.2952 34.986 29.4024 34.8807 29.4771 34.7534C29.5518 34.626 29.5912 34.481 29.5915 34.3334V30.55L32.9248 28.6584C33.0536 28.586 33.1607 28.4807 33.2354 28.3534C33.3101 28.226 33.3496 28.081 33.3498 27.9334V23.6667C33.3479 23.5174 33.3059 23.3713 33.2282 23.2437C33.1505 23.1162 33.04 23.0119 32.9082 22.9417ZM18.3332 27.45V24.1167L21.2498 22.45L24.1665 24.1167V27.45L21.2498 29.1167L18.3332 27.45ZM27.9165 33.85L24.9998 35.5167L22.0832 33.85V30.5167L24.9998 28.85L27.9165 30.5167V33.85ZM31.6665 27.45L28.7498 29.1167L25.8332 27.45V24.1167L28.7498 22.45L31.6665 24.1167V27.45Z" fill="url(#paint1_linear_1958_63200)"/>
</g>
<defs>
<linearGradient id="paint0_linear_1958_63200" x1="2.45103" y1="18.9481" x2="48.174" y2="41.3679" gradientUnits="userSpaceOnUse">
<stop stop-color="#00DC82"/>
<stop offset="1" stop-color="#003F25"/>
</linearGradient>
<linearGradient id="paint1_linear_1958_63200" x1="16.62" y1="24.2456" x2="33.3198" y2="33.2706" gradientUnits="userSpaceOnUse">
<stop stop-color="#00DC82"/>
<stop offset="1" stop-color="#003F25"/>
</linearGradient>
<clipPath id="clip0_1958_63200">
<rect width="51" height="58" fill="white"/>
</clipPath>
</defs>
</svg>
