<svg width="52" height="58" viewBox="0 0 52 58" fill="none" xmlns="http://www.w3.org/2000/svg">
<g clip-path="url(#clip0_1958_62979)">
<path d="M5.50848 15.3227L5.50851 15.3227L5.51565 15.3182L22.8032 4.37921C24.1143 3.57184 25.7384 3.54018 27.0678 4.29161L27.072 4.29396L45.6071 14.6133C45.6078 14.6138 45.6085 14.6142 45.6092 14.6146C46.9308 15.3626 47.7717 16.7791 47.8048 18.3448L47.9159 38.5289H47.9159L47.9161 38.5397C47.9473 40.1033 47.1699 41.5622 45.8803 42.3851L28.3288 53.5843C27.0094 54.4262 25.3565 54.4717 24.0061 53.7084L5.88239 43.4643C4.45702 42.6586 3.40714 41.1507 3.41706 39.6072H3.41708V39.6024L3.41715 19.0833C3.41715 19.0825 3.41716 19.0817 3.41716 19.081C3.42787 17.5381 4.22484 16.1148 5.50848 15.3227Z" fill="#18181B" stroke="url(#paint0_linear_1958_62979)" stroke-width="1.5"/>
<path d="M33.2497 28.275L21.583 21.5416C21.4563 21.4685 21.3126 21.43 21.1663 21.43C21.0201 21.43 20.8764 21.4685 20.7497 21.5416C20.6225 21.6151 20.517 21.7208 20.4438 21.8481C20.3707 21.9754 20.3324 22.1198 20.333 22.2666V35.7333C20.3324 35.8801 20.3707 36.0245 20.4438 36.1518C20.517 36.2792 20.6225 36.3849 20.7497 36.4583C20.8764 36.5314 21.0201 36.57 21.1663 36.57C21.3126 36.57 21.4563 36.5314 21.583 36.4583L33.2497 29.725C33.3779 29.6523 33.4846 29.5469 33.5588 29.4195C33.633 29.2922 33.6721 29.1474 33.6721 29C33.6721 28.8526 33.633 28.7078 33.5588 28.5804C33.4846 28.4531 33.3779 28.3477 33.2497 28.275ZM21.9997 34.2916V23.7083L31.1663 29L21.9997 34.2916Z" fill="url(#paint1_linear_1958_62979)"/>
</g>
<defs>
<linearGradient id="paint0_linear_1958_62979" x1="3.11802" y1="18.9482" x2="48.841" y2="41.3679" gradientUnits="userSpaceOnUse">
<stop stop-color="#30FFAA"/>
<stop offset="1" stop-color="#007E4A"/>
</linearGradient>
<linearGradient id="paint1_linear_1958_62979" x1="20.2958" y1="24.6655" x2="34.3833" y2="31.3423" gradientUnits="userSpaceOnUse">
<stop stop-color="#30FFAA"/>
<stop offset="1" stop-color="#007E4A"/>
</linearGradient>
<clipPath id="clip0_1958_62979">
<rect width="51" height="58" fill="white" transform="translate(0.666992)"/>
</clipPath>
</defs>
</svg>
