<svg width="51" height="58" viewBox="0 0 51 58" fill="none" xmlns="http://www.w3.org/2000/svg">
<g clip-path="url(#clip0_1958_63015)">
<path d="M4.84149 15.3227L4.84152 15.3227L4.84865 15.3182L22.1362 4.37921C23.4473 3.57184 25.0714 3.54018 26.4008 4.29161L26.405 4.29396L44.9401 14.6133C44.9408 14.6138 44.9415 14.6142 44.9422 14.6146C46.2638 15.3626 47.1047 16.7791 47.1378 18.3448L47.249 38.5289H47.2489L47.2491 38.5397C47.2803 40.1033 46.5029 41.5622 45.2133 42.3851L27.6619 53.5843C26.3424 54.4262 24.6895 54.4717 23.3391 53.7084L5.21539 43.4643C3.79003 42.6586 2.74014 41.1507 2.75007 39.6072H2.75009V39.6024L2.75015 19.0833C2.75016 19.0825 2.75016 19.0817 2.75017 19.081C2.76088 17.5381 3.55785 16.1148 4.84149 15.3227Z" fill="#18181B" stroke="url(#paint0_linear_1958_63015)" stroke-width="1.5"/>
<path d="M36.325 30.725C36.1962 30.8243 36.0376 30.8771 35.875 30.875C35.7586 30.875 35.6437 30.8479 35.5396 30.7958C35.4355 30.7438 35.3449 30.6682 35.275 30.575C34.823 29.9674 34.2346 29.4744 33.5572 29.1357C32.8798 28.797 32.1323 28.6221 31.375 28.625C31.1761 28.625 30.9853 28.546 30.8447 28.4053C30.704 28.2647 30.625 28.0739 30.625 27.875C30.625 27.6761 30.704 27.4853 30.8447 27.3447C30.9853 27.204 31.1761 27.125 31.375 27.125C31.8019 27.1246 32.2198 27.0027 32.58 26.7736C32.9401 26.5446 33.2278 26.2178 33.4092 25.8314C33.5906 25.4451 33.6584 25.0151 33.6047 24.5916C33.5509 24.1682 33.3778 23.7687 33.1056 23.44C32.8333 23.1112 32.4732 22.8667 32.0672 22.7349C31.6612 22.6031 31.2261 22.5896 30.8127 22.6958C30.3992 22.802 30.0246 23.0237 29.7324 23.3348C29.4402 23.646 29.2425 24.0339 29.1625 24.4531C29.1479 24.5534 29.1132 24.6497 29.0605 24.7361C29.0077 24.8226 28.9379 24.8975 28.8554 24.9563C28.7729 25.015 28.6793 25.0565 28.5803 25.0781C28.4814 25.0997 28.379 25.1011 28.2795 25.0821C28.18 25.063 28.0854 25.0241 28.0014 24.9675C27.9173 24.9109 27.8456 24.8379 27.7906 24.7528C27.7356 24.6677 27.6983 24.5724 27.6811 24.4726C27.664 24.3727 27.6672 24.2704 27.6906 24.1719C27.8019 23.5886 28.0501 23.0401 28.4148 22.5714C28.7795 22.1028 29.2502 21.7275 29.7883 21.4764C30.3264 21.2253 30.9165 21.1055 31.5099 21.127C32.1033 21.1485 32.6831 21.3106 33.2017 21.6C33.7202 21.8893 34.1626 22.2977 34.4924 22.7915C34.8223 23.2852 35.0302 23.8503 35.099 24.4401C35.1678 25.0299 35.0955 25.6276 34.8881 26.184C34.6808 26.7405 34.3443 27.2397 33.9063 27.6406C34.9256 28.0826 35.8113 28.784 36.475 29.675C36.5341 29.7538 36.5771 29.8435 36.6015 29.9389C36.626 30.0343 36.6314 30.1336 36.6175 30.2311C36.6035 30.3286 36.5705 30.4224 36.5204 30.5071C36.4702 30.5919 36.4038 30.6659 36.325 30.725ZM31.075 36.9219C31.1596 37.1013 31.1707 37.3067 31.1059 37.4941C31.0411 37.6816 30.9055 37.8362 30.7281 37.925C30.6247 37.9711 30.5132 37.9966 30.4 38C30.2595 37.999 30.122 37.9591 30.0028 37.8846C29.8836 37.8101 29.7875 37.704 29.725 37.5781C29.2925 36.6935 28.6204 35.948 27.785 35.4265C26.9497 34.9051 25.9847 34.6286 25 34.6286C24.0153 34.6286 23.0503 34.9051 22.215 35.4265C21.3796 35.948 20.7075 36.6935 20.275 37.5781C20.232 37.6668 20.1719 37.7462 20.0981 37.8116C20.0244 37.877 19.9385 37.9273 19.8454 37.9595C19.7522 37.9917 19.6536 38.0053 19.5552 37.9994C19.4568 37.9934 19.3605 37.9682 19.2719 37.925C19.0945 37.8362 18.9589 37.6816 18.8941 37.4941C18.8293 37.3067 18.8404 37.1013 18.925 36.9219C19.622 35.4867 20.8042 34.3443 22.2625 33.6969C21.5161 33.1248 20.9677 32.3332 20.6943 31.4333C20.4209 30.5335 20.4364 29.5706 20.7384 28.68C21.0405 27.7894 21.614 27.0158 22.3784 26.4679C23.1427 25.92 24.0596 25.6253 25 25.6253C25.9405 25.6253 26.8573 25.92 27.6216 26.4679C28.386 27.0158 28.9595 27.7894 29.2616 28.68C29.5636 29.5706 29.5791 30.5335 29.3057 31.4333C29.0323 32.3332 28.4839 33.1248 27.7375 33.6969C29.1958 34.3443 30.378 35.4867 31.075 36.9219ZM25 33.125C25.5933 33.125 26.1734 32.9491 26.6667 32.6194C27.1601 32.2898 27.5446 31.8212 27.7716 31.2731C27.9987 30.7249 28.0581 30.1217 27.9424 29.5397C27.8266 28.9578 27.5409 28.4232 27.1213 28.0037C26.7018 27.5841 26.1672 27.2984 25.5853 27.1827C25.0033 27.0669 24.4001 27.1263 23.852 27.3534C23.3038 27.5804 22.8352 27.9649 22.5056 28.4583C22.176 28.9516 22 29.5317 22 30.125C22.0025 30.9199 22.3193 31.6815 22.8814 32.2436C23.4435 32.8057 24.2051 33.1225 25 33.125ZM19.375 27.875C19.375 27.6761 19.296 27.4853 19.1553 27.3447C19.0147 27.204 18.8239 27.125 18.625 27.125C18.1982 27.1246 17.7802 27.0027 17.4201 26.7736C17.0599 26.5446 16.7723 26.2178 16.5908 25.8314C16.4094 25.4451 16.3416 25.0151 16.3953 24.5916C16.4491 24.1682 16.6222 23.7687 16.8944 23.44C17.1667 23.1112 17.5268 22.8667 17.9328 22.7349C18.3388 22.6031 18.7739 22.5896 19.1873 22.6958C19.6008 22.802 19.9754 23.0237 20.2676 23.3348C20.5598 23.646 20.7575 24.0339 20.8375 24.4531C20.8521 24.5534 20.8868 24.6497 20.9396 24.7361C20.9923 24.8226 21.0621 24.8975 21.1446 24.9563C21.2271 25.015 21.3207 25.0565 21.4197 25.0781C21.5186 25.0997 21.621 25.1011 21.7205 25.0821C21.82 25.063 21.9146 25.0241 21.9987 24.9675C22.0827 24.9109 22.1544 24.8379 22.2094 24.7528C22.2645 24.6677 22.3017 24.5724 22.3189 24.4726C22.336 24.3727 22.3328 24.2704 22.3094 24.1719C22.1981 23.5886 21.9499 23.0401 21.5852 22.5714C21.2205 22.1028 20.7498 21.7275 20.2117 21.4764C19.6736 21.2253 19.0835 21.1055 18.4901 21.127C17.8967 21.1485 17.3169 21.3106 16.7983 21.6C16.2798 21.8893 15.8374 22.2977 15.5076 22.7915C15.1777 23.2852 14.9698 23.8503 14.901 24.4401C14.8323 25.0299 14.9045 25.6276 15.1119 26.184C15.3192 26.7405 15.6557 27.2397 16.0938 27.6406C15.0744 28.0826 14.1887 28.784 13.525 29.675C13.4057 29.8341 13.3544 30.0342 13.3825 30.2311C13.4107 30.428 13.5159 30.6057 13.675 30.725C13.8038 30.8243 13.9624 30.8771 14.125 30.875C14.2414 30.875 14.3563 30.8479 14.4604 30.7958C14.5646 30.7438 14.6551 30.6682 14.725 30.575C15.1771 29.9674 15.7655 29.4744 16.4428 29.1357C17.1202 28.797 17.8677 28.6221 18.625 28.625C18.8239 28.625 19.0147 28.546 19.1553 28.4053C19.296 28.2647 19.375 28.0739 19.375 27.875Z" fill="url(#paint1_linear_1958_63015)"/>
</g>
<defs>
<linearGradient id="paint0_linear_1958_63015" x1="2.45103" y1="18.9482" x2="48.174" y2="41.3679" gradientUnits="userSpaceOnUse">
<stop stop-color="#30FFAA"/>
<stop offset="1" stop-color="#007E4A"/>
</linearGradient>
<linearGradient id="paint1_linear_1958_63015" x1="13.3102" y1="24.731" x2="32.7196" y2="39.1156" gradientUnits="userSpaceOnUse">
<stop stop-color="#30FFAA"/>
<stop offset="1" stop-color="#007E4A"/>
</linearGradient>
<clipPath id="clip0_1958_63015">
<rect width="51" height="58" fill="white"/>
</clipPath>
</defs>
</svg>
