<svg width="52" height="58" viewBox="0 0 52 58" fill="none" xmlns="http://www.w3.org/2000/svg">
<g clip-path="url(#clip0_1958_63211)">
<path d="M5.508 15.3227L5.50802 15.3227L5.51516 15.3182L22.8027 4.37921C24.1138 3.57184 25.7379 3.54018 27.0673 4.29161L27.0715 4.29396L45.6066 14.6133C45.6073 14.6138 45.608 14.6142 45.6087 14.6146C46.9303 15.3626 47.7712 16.7791 47.8043 18.3448L47.9155 38.5289H47.9154L47.9156 38.5397C47.9468 40.1033 47.1694 41.5622 45.8798 42.3851L28.3284 53.5843C27.0089 54.4262 25.356 54.4717 24.0056 53.7084L5.8819 43.4643C4.45653 42.6586 3.40665 41.1507 3.41657 39.6072H3.41659V39.6024L3.41666 19.0833C3.41666 19.0825 3.41667 19.0817 3.41667 19.081C3.42739 17.5381 4.22435 16.1148 5.508 15.3227Z" fill="white" stroke="url(#paint0_linear_1958_63211)" stroke-width="1.5"/>
<path d="M33.2502 28.275L21.5835 21.5416C21.4568 21.4685 21.3131 21.43 21.1668 21.43C21.0206 21.43 20.8769 21.4685 20.7502 21.5416C20.623 21.6151 20.5175 21.7208 20.4443 21.8481C20.3711 21.9754 20.3329 22.1198 20.3335 22.2666V35.7333C20.3329 35.8801 20.3711 36.0245 20.4443 36.1518C20.5175 36.2792 20.623 36.3849 20.7502 36.4583C20.8769 36.5314 21.0206 36.57 21.1668 36.57C21.3131 36.57 21.4568 36.5314 21.5835 36.4583L33.2502 29.725C33.3784 29.6523 33.4851 29.5469 33.5593 29.4195C33.6335 29.2922 33.6726 29.1474 33.6726 29C33.6726 28.8526 33.6335 28.7078 33.5593 28.5804C33.4851 28.4531 33.3784 28.3477 33.2502 28.275ZM22.0002 34.2916V23.7083L31.1668 29L22.0002 34.2916Z" fill="url(#paint1_linear_1958_63211)"/>
</g>
<defs>
<linearGradient id="paint0_linear_1958_63211" x1="3.11754" y1="18.9481" x2="48.8405" y2="41.3679" gradientUnits="userSpaceOnUse">
<stop stop-color="#00DC82"/>
<stop offset="1" stop-color="#003F25"/>
</linearGradient>
<linearGradient id="paint1_linear_1958_63211" x1="20.2963" y1="24.6655" x2="34.3837" y2="31.3423" gradientUnits="userSpaceOnUse">
<stop stop-color="#00DC82"/>
<stop offset="1" stop-color="#003F25"/>
</linearGradient>
<clipPath id="clip0_1958_63211">
<rect width="51" height="58" fill="white" transform="translate(0.666504)"/>
</clipPath>
</defs>
</svg>
