<svg width="52" height="58" viewBox="0 0 52 58" fill="none" xmlns="http://www.w3.org/2000/svg">
<g clip-path="url(#clip0_1958_62945)">
<path d="M5.50848 15.3227L5.50851 15.3227L5.51565 15.3182L22.8032 4.37921C24.1143 3.57184 25.7384 3.54018 27.0678 4.29161L27.072 4.29396L45.6071 14.6133C45.6078 14.6138 45.6085 14.6142 45.6092 14.6146C46.9308 15.3626 47.7717 16.7791 47.8048 18.3448L47.9159 38.5289H47.9159L47.9161 38.5397C47.9473 40.1033 47.1699 41.5622 45.8803 42.3851L28.3288 53.5843C27.0094 54.4262 25.3565 54.4717 24.0061 53.7084L5.88239 43.4643C4.45702 42.6586 3.40714 41.1507 3.41706 39.6072H3.41708V39.6024L3.41715 19.0833C3.41715 19.0825 3.41716 19.0817 3.41716 19.081C3.42787 17.5381 4.22484 16.1148 5.50848 15.3227Z" fill="#18181B" stroke="url(#paint0_linear_1958_62945)" stroke-width="1.5"/>
<path fill-rule="evenodd" clip-rule="evenodd" d="M25.6273 20.7547C25.8619 20.6374 26.1381 20.6374 26.3727 20.7547L33.0393 24.088C33.3217 24.2292 33.5 24.5177 33.5 24.8334V33.1667C33.5 33.4823 33.3217 33.7709 33.0393 33.912L26.3727 37.2454C26.1381 37.3627 25.8619 37.3627 25.6273 37.2454L18.9607 33.912C18.6783 33.7709 18.5 33.4823 18.5 33.1667V24.8334C18.5 24.5177 18.6783 24.2292 18.9607 24.088L25.6273 20.7547ZM20.1667 26.1817V32.6517L25.1667 35.1517V28.6817L20.1667 26.1817ZM26.8333 28.6817V35.1517L31.8333 32.6517V26.1817L26.8333 28.6817ZM30.8033 24.8334L26 27.235L21.1967 24.8334L26 22.4317L30.8033 24.8334Z" fill="url(#paint1_linear_1958_62945)"/>
</g>
<defs>
<linearGradient id="paint0_linear_1958_62945" x1="3.11802" y1="18.9481" x2="48.841" y2="41.3679" gradientUnits="userSpaceOnUse">
<stop stop-color="#30FFAA"/>
<stop offset="1" stop-color="#007E4A"/>
</linearGradient>
<linearGradient id="paint1_linear_1958_62945" x1="18.4582" y1="24.2284" x2="34.1743" y2="31.8373" gradientUnits="userSpaceOnUse">
<stop stop-color="#30FFAA"/>
<stop offset="1" stop-color="#007E4A"/>
</linearGradient>
<clipPath id="clip0_1958_62945">
<rect width="51" height="58" fill="white" transform="translate(0.666992)"/>
</clipPath>
</defs>
</svg>
