<svg width="51" height="58" viewBox="0 0 51 58" fill="none" xmlns="http://www.w3.org/2000/svg">
<g clip-path="url(#clip0_1958_62934)">
<path d="M4.84149 15.3227L4.84152 15.3227L4.84865 15.3182L22.1362 4.37921C23.4473 3.57184 25.0714 3.54018 26.4008 4.29161L26.405 4.29396L44.9401 14.6133C44.9408 14.6138 44.9415 14.6142 44.9422 14.6146C46.2638 15.3626 47.1047 16.7791 47.1378 18.3448L47.249 38.5289H47.2489L47.2491 38.5397C47.2803 40.1033 46.5029 41.5622 45.2133 42.3851L27.6619 53.5843C26.3424 54.4262 24.6895 54.4717 23.3391 53.7084L5.21539 43.4643C3.79003 42.6586 2.74014 41.1507 2.75007 39.6072H2.75009V39.6024L2.75015 19.0833C2.75016 19.0825 2.75016 19.0817 2.75017 19.081C2.76088 17.5381 3.55785 16.1148 4.84149 15.3227Z" fill="#18181B" stroke="url(#paint0_linear_1958_62934)" stroke-width="1.5"/>
<path d="M31.6949 33.1953L29.1949 35.6953C29.0755 35.8108 28.9158 35.8754 28.7496 35.8754C28.5834 35.8754 28.4238 35.8108 28.3043 35.6953C28.1869 35.5768 28.1211 35.4168 28.1211 35.25C28.1211 35.0832 28.1869 34.9232 28.3043 34.8047L29.7418 33.375H18.7496C18.5838 33.375 18.4249 33.3091 18.3077 33.1919C18.1905 33.0747 18.1246 32.9157 18.1246 32.75C18.1246 32.5842 18.1905 32.4252 18.3077 32.308C18.4249 32.1908 18.5838 32.125 18.7496 32.125H29.7418L28.3043 30.6953C28.2046 30.5739 28.1537 30.4197 28.1614 30.2628C28.1691 30.1059 28.2349 29.9574 28.346 29.8464C28.4571 29.7353 28.6055 29.6695 28.7624 29.6618C28.9193 29.6541 29.0735 29.705 29.1949 29.8047L31.6949 32.3047C31.8123 32.4232 31.8781 32.5832 31.8781 32.75C31.8781 32.9168 31.8123 33.0768 31.6949 33.1953ZM20.8043 28.1953C20.9238 28.3108 21.0834 28.3754 21.2496 28.3754C21.4158 28.3754 21.5755 28.3108 21.6949 28.1953C21.8123 28.0768 21.8781 27.9168 21.8781 27.75C21.8781 27.5832 21.8123 27.4232 21.6949 27.3047L20.2574 25.875H31.2496C31.4154 25.875 31.5743 25.8091 31.6916 25.6919C31.8088 25.5747 31.8746 25.4157 31.8746 25.25C31.8746 25.0842 31.8088 24.9252 31.6916 24.808C31.5743 24.6908 31.4154 24.625 31.2496 24.625H20.2574L21.6949 23.1953C21.7946 23.0739 21.8455 22.9197 21.8378 22.7628C21.8301 22.6059 21.7643 22.4574 21.6532 22.3464C21.5421 22.2353 21.3937 22.1695 21.2368 22.1618C21.0799 22.1541 20.9257 22.205 20.8043 22.3047L18.3043 24.8047C18.1869 24.9232 18.1211 25.0832 18.1211 25.25C18.1211 25.4168 18.1869 25.5768 18.3043 25.6953L20.8043 28.1953Z" fill="url(#paint1_linear_1958_62934)"/>
</g>
<defs>
<linearGradient id="paint0_linear_1958_62934" x1="2.45103" y1="18.9481" x2="48.174" y2="41.3679" gradientUnits="userSpaceOnUse">
<stop stop-color="#30FFAA"/>
<stop offset="1" stop-color="#007E4A"/>
</linearGradient>
<linearGradient id="paint1_linear_1958_62934" x1="18.0827" y1="25.0918" x2="31.8627" y2="32.5277" gradientUnits="userSpaceOnUse">
<stop stop-color="#30FFAA"/>
<stop offset="1" stop-color="#007E4A"/>
</linearGradient>
<clipPath id="clip0_1958_62934">
<rect width="51" height="58" fill="white"/>
</clipPath>
</defs>
</svg>
