<svg width="52" height="58" viewBox="0 0 52 58" fill="none" xmlns="http://www.w3.org/2000/svg">
<g clip-path="url(#clip0_1958_63177)">
<path d="M5.508 15.3227L5.50802 15.3227L5.51516 15.3182L22.8027 4.37921C24.1138 3.57184 25.7379 3.54018 27.0673 4.29161L27.0715 4.29396L45.6066 14.6133C45.6073 14.6138 45.608 14.6142 45.6087 14.6146C46.9303 15.3626 47.7712 16.7791 47.8043 18.3448L47.9155 38.5289H47.9154L47.9156 38.5397C47.9468 40.1033 47.1694 41.5622 45.8798 42.3851L28.3284 53.5843C27.0089 54.4262 25.356 54.4717 24.0056 53.7084L5.8819 43.4643C4.45653 42.6586 3.40665 41.1507 3.41657 39.6072H3.41659V39.6024L3.41666 19.0833C3.41666 19.0825 3.41667 19.0817 3.41667 19.081C3.42739 17.5381 4.22435 16.1148 5.508 15.3227Z" fill="white" stroke="url(#paint0_linear_1958_63177)" stroke-width="1.5"/>
<path fill-rule="evenodd" clip-rule="evenodd" d="M25.6278 20.7547C25.8624 20.6374 26.1386 20.6374 26.3732 20.7547L33.0398 24.088C33.3222 24.2292 33.5005 24.5177 33.5005 24.8334V33.1667C33.5005 33.4823 33.3222 33.7709 33.0398 33.912L26.3732 37.2454C26.1386 37.3627 25.8624 37.3627 25.6278 37.2454L18.9611 33.912C18.6788 33.7709 18.5005 33.4823 18.5005 33.1667V24.8334C18.5005 24.5177 18.6788 24.2292 18.9611 24.088L25.6278 20.7547ZM20.1672 26.1817V32.6517L25.1672 35.1517V28.6817L20.1672 26.1817ZM26.8338 28.6817V35.1517L31.8338 32.6517V26.1817L26.8338 28.6817ZM30.8038 24.8334L26.0005 27.235L21.1972 24.8334L26.0005 22.4317L30.8038 24.8334Z" fill="url(#paint1_linear_1958_63177)"/>
</g>
<defs>
<linearGradient id="paint0_linear_1958_63177" x1="3.11754" y1="18.9481" x2="48.8405" y2="41.3679" gradientUnits="userSpaceOnUse">
<stop stop-color="#00DC82"/>
<stop offset="1" stop-color="#003F25"/>
</linearGradient>
<linearGradient id="paint1_linear_1958_63177" x1="18.4587" y1="24.2284" x2="34.1748" y2="31.8373" gradientUnits="userSpaceOnUse">
<stop stop-color="#00DC82"/>
<stop offset="1" stop-color="#003F25"/>
</linearGradient>
<clipPath id="clip0_1958_63177">
<rect width="51" height="58" fill="white" transform="translate(0.666504)"/>
</clipPath>
</defs>
</svg>
