<svg width="52" height="58" viewBox="0 0 52 58" fill="none" xmlns="http://www.w3.org/2000/svg">
<g clip-path="url(#clip0_1958_63222)">
<path d="M5.17499 15.3227L5.17501 15.3227L5.18215 15.3182L22.4697 4.37921C23.7808 3.57184 25.4049 3.54018 26.7343 4.29161L26.7385 4.29396L45.2736 14.6133C45.2743 14.6138 45.275 14.6142 45.2757 14.6146C46.5973 15.3626 47.4382 16.7791 47.4713 18.3448L47.5825 38.5289H47.5824L47.5826 38.5397C47.6138 40.1033 46.8364 41.5622 45.5468 42.3851L27.9954 53.5843C26.6759 54.4262 25.023 54.4717 23.6726 53.7084L5.54889 43.4643C4.12352 42.6586 3.07364 41.1507 3.08357 39.6072H3.08358V39.6024L3.08365 19.0833C3.08366 19.0825 3.08366 19.0817 3.08367 19.081C3.09438 17.5381 3.89135 16.1148 5.17499 15.3227Z" fill="white" stroke="url(#paint0_linear_1958_63222)" stroke-width="1.5"/>
<path d="M34.0918 31.9833L30.3251 28.225C30.404 27.8412 30.443 27.4502 30.4418 27.0583C30.4415 25.9839 30.1704 24.9268 29.6534 23.9849C29.1365 23.043 28.3904 22.2466 27.4842 21.6693C26.578 21.092 25.5409 20.7525 24.4687 20.6821C23.3966 20.6117 22.324 20.8128 21.3501 21.2667C21.2267 21.323 21.119 21.4087 21.0362 21.5161C20.9534 21.6236 20.8981 21.7497 20.8751 21.8833C20.8522 22.0153 20.8615 22.1509 20.9021 22.2786C20.9427 22.4062 21.0135 22.5222 21.1085 22.6167L24.7335 26.2333L23.2335 27.7333L19.6168 24.1083C19.5215 24.0148 19.4052 23.9456 19.2776 23.9064C19.1499 23.8673 19.0148 23.8594 18.8835 23.8833C18.7506 23.9055 18.6251 23.9595 18.5177 24.0408C18.4103 24.1221 18.3242 24.2282 18.2668 24.35C17.8114 25.3271 17.6105 26.4035 17.6829 27.4791C17.7552 28.5546 18.0984 29.5944 18.6806 30.5017C19.2627 31.409 20.0648 32.1544 21.0124 32.6684C21.96 33.1824 23.0221 33.4484 24.1001 33.4417C24.492 33.4429 24.8829 33.4038 25.2668 33.325L29.0251 37.0917C29.1026 37.1698 29.1948 37.2318 29.2963 37.2741C29.3979 37.3164 29.5068 37.3382 29.6168 37.3382C29.7268 37.3382 29.8357 37.3164 29.9373 37.2741C30.0388 37.2318 30.131 37.1698 30.2085 37.0917C30.2866 37.0142 30.3486 36.922 30.3909 36.8205C30.4332 36.7189 30.455 36.61 30.455 36.5C30.455 36.39 30.4332 36.2811 30.3909 36.1795C30.3486 36.078 30.2866 35.9858 30.2085 35.9083L26.1251 31.825C26.0231 31.7236 25.8965 31.6504 25.7578 31.6124C25.6191 31.5745 25.4729 31.5731 25.3335 31.6083C24.9311 31.7161 24.5166 31.7721 24.1001 31.775C23.4768 31.7805 22.8586 31.6626 22.2811 31.4282C21.7035 31.1937 21.1781 30.8473 20.735 30.4088C20.292 29.9704 19.94 29.4487 19.6995 28.8736C19.4589 28.2986 19.3345 27.6817 19.3335 27.0583C19.3324 26.7792 19.3547 26.5004 19.4001 26.225L22.6668 29.5C22.7443 29.5781 22.8364 29.6401 22.938 29.6824C23.0395 29.7247 23.1484 29.7465 23.2585 29.7465C23.3685 29.7465 23.4774 29.7247 23.5789 29.6824C23.6805 29.6401 23.7727 29.5781 23.8501 29.5L26.5001 26.825C26.6503 26.6696 26.7343 26.462 26.7343 26.2458C26.7343 26.0297 26.6503 25.8221 26.5001 25.6667L23.2585 22.4C23.5339 22.355 23.8127 22.3327 24.0918 22.3333C25.3435 22.3355 26.5432 22.8343 27.4275 23.7202C28.3118 24.6061 28.8085 25.8066 28.8085 27.0583C28.8055 27.4749 28.7495 27.8893 28.6418 28.2917C28.6065 28.4311 28.6079 28.5773 28.6459 28.716C28.6839 28.8548 28.7571 28.9813 28.8585 29.0833L32.9418 33.1667C33.0987 33.3236 33.3115 33.4117 33.5335 33.4117C33.7554 33.4117 33.9682 33.3236 34.1251 33.1667C34.282 33.0098 34.3702 32.7969 34.3702 32.575C34.3702 32.3531 34.282 32.1403 34.1251 31.9833H34.0918Z" fill="url(#paint1_linear_1958_63222)"/>
</g>
<defs>
<linearGradient id="paint0_linear_1958_63222" x1="2.78453" y1="18.9481" x2="48.5075" y2="41.3679" gradientUnits="userSpaceOnUse">
<stop stop-color="#00DC82"/>
<stop offset="1" stop-color="#003F25"/>
</linearGradient>
<linearGradient id="paint1_linear_1958_63222" x1="17.6219" y1="24.2308" x2="34.3604" y2="33.2524" gradientUnits="userSpaceOnUse">
<stop stop-color="#00DC82"/>
<stop offset="1" stop-color="#003F25"/>
</linearGradient>
<clipPath id="clip0_1958_63222">
<rect width="51" height="58" fill="white" transform="translate(0.333496)"/>
</clipPath>
</defs>
</svg>
