<svg width="52" height="58" viewBox="0 0 52 58" fill="none" xmlns="http://www.w3.org/2000/svg">
<g clip-path="url(#clip0_1958_62990)">
<path d="M5.1745 15.3227L5.17453 15.3227L5.18166 15.3182L22.4692 4.37921C23.7803 3.57184 25.4044 3.54018 26.7338 4.29161L26.738 4.29396L45.2731 14.6133C45.2738 14.6138 45.2745 14.6142 45.2752 14.6146C46.5968 15.3626 47.4377 16.7791 47.4708 18.3448L47.582 38.5289H47.5819L47.5821 38.5397C47.6133 40.1033 46.8359 41.5622 45.5463 42.3851L27.9949 53.5843C26.6754 54.4262 25.0225 54.4717 23.6721 53.7084L5.5484 43.4643C4.12304 42.6586 3.07315 41.1507 3.08308 39.6072H3.08309V39.6024L3.08316 19.0833C3.08317 19.0825 3.08317 19.0817 3.08318 19.081C3.09389 17.5381 3.89086 16.1148 5.1745 15.3227Z" fill="#18181B" stroke="url(#paint0_linear_1958_62990)" stroke-width="1.5"/>
<path d="M34.0913 31.9833L30.3246 28.225C30.4035 27.8412 30.4426 27.4502 30.4413 27.0583C30.441 25.9839 30.1699 24.9268 29.6529 23.9849C29.136 23.043 28.3899 22.2466 27.4837 21.6693C26.5775 21.092 25.5404 20.7525 24.4683 20.6821C23.3961 20.6117 22.3235 20.8128 21.3496 21.2667C21.2262 21.323 21.1185 21.4087 21.0357 21.5161C20.9529 21.6236 20.8976 21.7497 20.8746 21.8833C20.8517 22.0153 20.861 22.1509 20.9016 22.2786C20.9422 22.4062 21.013 22.5222 21.108 22.6167L24.733 26.2333L23.233 27.7333L19.6163 24.1083C19.521 24.0148 19.4047 23.9456 19.2771 23.9064C19.1494 23.8673 19.0143 23.8594 18.883 23.8833C18.7501 23.9055 18.6246 23.9595 18.5172 24.0408C18.4098 24.1221 18.3237 24.2282 18.2663 24.35C17.8109 25.3271 17.61 26.4035 17.6824 27.4791C17.7547 28.5546 18.0979 29.5944 18.6801 30.5017C19.2622 31.409 20.0644 32.1544 21.0119 32.6684C21.9595 33.1824 23.0217 33.4484 24.0996 33.4417C24.4915 33.4429 24.8824 33.4038 25.2663 33.325L29.0246 37.0917C29.1021 37.1698 29.1943 37.2318 29.2958 37.2741C29.3974 37.3164 29.5063 37.3382 29.6163 37.3382C29.7263 37.3382 29.8352 37.3164 29.9368 37.2741C30.0383 37.2318 30.1305 37.1698 30.208 37.0917C30.2861 37.0142 30.3481 36.922 30.3904 36.8205C30.4327 36.7189 30.4545 36.61 30.4545 36.5C30.4545 36.39 30.4327 36.2811 30.3904 36.1795C30.3481 36.078 30.2861 35.9858 30.208 35.9083L26.1246 31.825C26.0226 31.7236 25.8961 31.6504 25.7573 31.6124C25.6186 31.5745 25.4724 31.5731 25.333 31.6083C24.9306 31.7161 24.5162 31.7721 24.0996 31.775C23.4763 31.7805 22.8581 31.6626 22.2806 31.4282C21.7031 31.1937 21.1776 30.8473 20.7345 30.4088C20.2915 29.9704 19.9395 29.4487 19.699 28.8736C19.4584 28.2986 19.334 27.6817 19.333 27.0583C19.3319 26.7792 19.3542 26.5004 19.3996 26.225L22.6663 29.5C22.7438 29.5781 22.8359 29.6401 22.9375 29.6824C23.039 29.7247 23.148 29.7465 23.258 29.7465C23.368 29.7465 23.4769 29.7247 23.5784 29.6824C23.68 29.6401 23.7722 29.5781 23.8496 29.5L26.4996 26.825C26.6498 26.6696 26.7338 26.462 26.7338 26.2458C26.7338 26.0297 26.6498 25.8221 26.4996 25.6667L23.258 22.4C23.5335 22.355 23.8122 22.3327 24.0913 22.3333C25.343 22.3355 26.5427 22.8343 27.427 23.7202C28.3113 24.6061 28.808 25.8066 28.808 27.0583C28.8051 27.4749 28.7491 27.8893 28.6413 28.2917C28.606 28.4311 28.6074 28.5773 28.6454 28.716C28.6834 28.8548 28.7566 28.9813 28.858 29.0833L32.9413 33.1667C33.0982 33.3236 33.3111 33.4117 33.533 33.4117C33.7549 33.4117 33.9677 33.3236 34.1246 33.1667C34.2816 33.0098 34.3697 32.7969 34.3697 32.575C34.3697 32.3531 34.2816 32.1403 34.1246 31.9833H34.0913Z" fill="url(#paint1_linear_1958_62990)"/>
</g>
<defs>
<linearGradient id="paint0_linear_1958_62990" x1="2.78404" y1="18.9482" x2="48.5071" y2="41.3679" gradientUnits="userSpaceOnUse">
<stop stop-color="#30FFAA"/>
<stop offset="1" stop-color="#007E4A"/>
</linearGradient>
<linearGradient id="paint1_linear_1958_62990" x1="17.6214" y1="24.2308" x2="34.3599" y2="33.2524" gradientUnits="userSpaceOnUse">
<stop stop-color="#30FFAA"/>
<stop offset="1" stop-color="#007E4A"/>
</linearGradient>
<clipPath id="clip0_1958_62990">
<rect width="51" height="58" fill="white" transform="translate(0.333008)"/>
</clipPath>
</defs>
</svg>
