<svg width="52" height="58" viewBox="0 0 52 58" fill="none" xmlns="http://www.w3.org/2000/svg">
<g clip-path="url(#clip0_1958_62909)">
<path d="M5.50848 15.3227L5.50851 15.3227L5.51565 15.3182L22.8032 4.37921C24.1143 3.57184 25.7384 3.54018 27.0678 4.29161L27.072 4.29396L45.6071 14.6133C45.6078 14.6138 45.6085 14.6142 45.6092 14.6146C46.9308 15.3626 47.7717 16.7791 47.8048 18.3448L47.9159 38.5289H47.9159L47.9161 38.5397C47.9473 40.1033 47.1699 41.5622 45.8803 42.3851L28.3288 53.5843C27.0094 54.4262 25.3565 54.4717 24.0061 53.7084L5.88239 43.4643C4.45702 42.6586 3.40714 41.1507 3.41706 39.6072H3.41708V39.6024L3.41715 19.0833C3.41715 19.0825 3.41716 19.0817 3.41716 19.081C3.42787 17.5381 4.22484 16.1148 5.50848 15.3227Z" fill="#18181B" stroke="url(#paint0_linear_1958_62909)" stroke-width="1.5"/>
<path d="M34.5655 27.6407C34.4483 27.4813 34.2953 27.3517 34.1189 27.2621C33.9426 27.1726 33.7477 27.1256 33.5499 27.125H32.542V25.875C32.542 25.5435 32.4103 25.2256 32.1759 24.9912C31.9415 24.7567 31.6236 24.625 31.292 24.625H25.878L23.7061 23C23.4908 22.8357 23.2269 22.7477 22.9561 22.75H18.792C18.4605 22.75 18.1426 22.8817 17.9082 23.1162C17.6737 23.3506 17.542 23.6685 17.542 24V35.25C17.541 35.3324 17.5564 35.4142 17.5875 35.4905C17.6185 35.5668 17.6645 35.6361 17.7228 35.6943C17.781 35.7526 17.8503 35.7986 17.9266 35.8296C18.0029 35.8606 18.0847 35.8761 18.167 35.875H31.917C32.0486 35.8751 32.1769 35.8335 32.2835 35.7564C32.3901 35.6792 32.4697 35.5704 32.5108 35.4454L34.7374 28.7735C34.7992 28.5844 34.8159 28.3834 34.786 28.1867C34.7562 27.9899 34.6806 27.8029 34.5655 27.6407ZM22.9561 24L25.128 25.625C25.3433 25.7894 25.6071 25.8774 25.878 25.875H31.292V27.125H21.1202C20.8579 27.1245 20.6021 27.2064 20.389 27.3592C20.1759 27.5121 20.0163 27.728 19.9327 27.9766L18.792 31.3985V24H22.9561ZM31.4639 34.625H19.0342L21.1202 28.375H33.5499L31.4639 34.625Z" fill="url(#paint1_linear_1958_62909)"/>
</g>
<defs>
<linearGradient id="paint0_linear_1958_62909" x1="3.11802" y1="18.9481" x2="48.841" y2="41.3679" gradientUnits="userSpaceOnUse">
<stop stop-color="#30FFAA"/>
<stop offset="1" stop-color="#007E4A"/>
</linearGradient>
<linearGradient id="paint1_linear_1958_62909" x1="17.4939" y1="25.5549" x2="32.3711" y2="36.0783" gradientUnits="userSpaceOnUse">
<stop stop-color="#30FFAA"/>
<stop offset="1" stop-color="#007E4A"/>
</linearGradient>
<clipPath id="clip0_1958_62909">
<rect width="51" height="58" fill="white" transform="translate(0.666992)"/>
</clipPath>
</defs>
</svg>
