<svg width="52" height="58" viewBox="0 0 52 58" fill="none" xmlns="http://www.w3.org/2000/svg">
<g clip-path="url(#clip0_1958_63141)">
<path d="M5.508 15.3227L5.50802 15.3227L5.51516 15.3182L22.8027 4.37921C24.1138 3.57184 25.7379 3.54018 27.0673 4.29161L27.0715 4.29396L45.6066 14.6133C45.6073 14.6138 45.608 14.6142 45.6087 14.6146C46.9303 15.3626 47.7712 16.7791 47.8043 18.3448L47.9155 38.5289H47.9154L47.9156 38.5397C47.9468 40.1033 47.1694 41.5622 45.8798 42.3851L28.3284 53.5843C27.0089 54.4262 25.356 54.4717 24.0056 53.7084L5.8819 43.4643C4.45653 42.6586 3.40665 41.1507 3.41657 39.6072H3.41659V39.6024L3.41666 19.0833C3.41666 19.0825 3.41667 19.0817 3.41667 19.081C3.42739 17.5381 4.22435 16.1148 5.508 15.3227Z" fill="white" stroke="url(#paint0_linear_1958_63141)" stroke-width="1.5"/>
<path d="M34.565 27.6407C34.4478 27.4813 34.2948 27.3517 34.1185 27.2621C33.9421 27.1726 33.7472 27.1256 33.5494 27.125H32.5416V25.875C32.5416 25.5435 32.4099 25.2256 32.1754 24.9912C31.941 24.7567 31.6231 24.625 31.2916 24.625H25.8775L23.7056 23C23.4903 22.8357 23.2265 22.7477 22.9556 22.75H18.7916C18.46 22.75 18.1421 22.8817 17.9077 23.1162C17.6733 23.3506 17.5416 23.6685 17.5416 24V35.25C17.5405 35.3324 17.556 35.4142 17.587 35.4905C17.618 35.5668 17.664 35.6361 17.7223 35.6943C17.7805 35.7526 17.8498 35.7986 17.9261 35.8296C18.0024 35.8606 18.0842 35.8761 18.1666 35.875H31.9166C32.0482 35.8751 32.1764 35.8335 32.283 35.7564C32.3896 35.6792 32.4692 35.5704 32.5103 35.4454L34.7369 28.7735C34.7987 28.5844 34.8154 28.3834 34.7855 28.1867C34.7557 27.9899 34.6801 27.8029 34.565 27.6407ZM22.9556 24L25.1275 25.625C25.3428 25.7894 25.6067 25.8774 25.8775 25.875H31.2916V27.125H21.1197C20.8574 27.1245 20.6017 27.2064 20.3885 27.3592C20.1754 27.5121 20.0158 27.728 19.9322 27.9766L18.7916 31.3985V24H22.9556ZM31.4634 34.625H19.0337L21.1197 28.375H33.5494L31.4634 34.625Z" fill="url(#paint1_linear_1958_63141)"/>
</g>
<defs>
<linearGradient id="paint0_linear_1958_63141" x1="3.11754" y1="18.9481" x2="48.8405" y2="41.3679" gradientUnits="userSpaceOnUse">
<stop stop-color="#00DC82"/>
<stop offset="1" stop-color="#003F25"/>
</linearGradient>
<linearGradient id="paint1_linear_1958_63141" x1="17.4934" y1="25.5549" x2="32.3706" y2="36.0783" gradientUnits="userSpaceOnUse">
<stop stop-color="#00DC82"/>
<stop offset="1" stop-color="#003F25"/>
</linearGradient>
<clipPath id="clip0_1958_63141">
<rect width="51" height="58" fill="white" transform="translate(0.666504)"/>
</clipPath>
</defs>
</svg>
