<svg width="51" height="58" viewBox="0 0 51 58" fill="none" xmlns="http://www.w3.org/2000/svg">
<g clip-path="url(#clip0_1958_63236)">
<path d="M4.84149 15.3227L4.84152 15.3227L4.84865 15.3182L22.1362 4.37921C23.4473 3.57184 25.0714 3.54018 26.4008 4.29161L26.405 4.29396L44.9401 14.6133C44.9408 14.6138 44.9415 14.6142 44.9422 14.6146C46.2638 15.3626 47.1047 16.7791 47.1378 18.3448L47.249 38.5289H47.2489L47.2491 38.5397C47.2803 40.1033 46.5029 41.5622 45.2133 42.3851L27.6619 53.5843C26.3424 54.4262 24.6895 54.4717 23.3391 53.7084L5.21539 43.4643C3.79003 42.6586 2.74014 41.1507 2.75007 39.6072H2.75009V39.6024L2.75015 19.0833C2.75016 19.0825 2.75016 19.0817 2.75017 19.081C2.76088 17.5381 3.55785 16.1148 4.84149 15.3227Z" fill="white" stroke="url(#paint0_linear_1958_63236)" stroke-width="1.5"/>
<path d="M33.25 20.75H16.75C16.3522 20.75 15.9706 20.908 15.6893 21.1893C15.408 21.4706 15.25 21.8522 15.25 22.25V35.75C15.25 36.1478 15.408 36.5294 15.6893 36.8107C15.9706 37.092 16.3522 37.25 16.75 37.25H33.25C33.6478 37.25 34.0294 37.092 34.3107 36.8107C34.592 36.5294 34.75 36.1478 34.75 35.75V22.25C34.75 21.8522 34.592 21.4706 34.3107 21.1893C34.0294 20.908 33.6478 20.75 33.25 20.75ZM16.75 22.25H33.25V26H16.75V22.25ZM16.75 27.5H22V35.75H16.75V27.5ZM33.25 35.75H23.5V27.5H33.25V35.75Z" fill="url(#paint1_linear_1958_63236)"/>
<path d="M33.25 20.75H16.75C16.3522 20.75 15.9706 20.908 15.6893 21.1893C15.408 21.4706 15.25 21.8522 15.25 22.25V35.75C15.25 36.1478 15.408 36.5294 15.6893 36.8107C15.9706 37.092 16.3522 37.25 16.75 37.25H33.25C33.6478 37.25 34.0294 37.092 34.3107 36.8107C34.592 36.5294 34.75 36.1478 34.75 35.75V22.25C34.75 21.8522 34.592 21.4706 34.3107 21.1893C34.0294 20.908 33.6478 20.75 33.25 20.75ZM16.75 22.25H33.25V26H16.75V22.25ZM16.75 27.5H22V35.75H16.75V27.5ZM33.25 35.75H23.5V27.5H33.25V35.75Z" fill="url(#paint2_linear_1958_63236)"/>
</g>
<defs>
<linearGradient id="paint0_linear_1958_63236" x1="2.45103" y1="18.9481" x2="48.174" y2="41.3679" gradientUnits="userSpaceOnUse">
<stop stop-color="#00DC82"/>
<stop offset="1" stop-color="#003F25"/>
</linearGradient>
<linearGradient id="paint1_linear_1958_63236" x1="15.1956" y1="24.2761" x2="33.1564" y2="35.6946" gradientUnits="userSpaceOnUse">
<stop stop-color="#8DEAFF"/>
<stop offset="1" stop-color="#008AA9"/>
</linearGradient>
<linearGradient id="paint2_linear_1958_63236" x1="15.1956" y1="24.2761" x2="33.1564" y2="35.6946" gradientUnits="userSpaceOnUse">
<stop stop-color="#00DC82"/>
<stop offset="1" stop-color="#003F25"/>
</linearGradient>
<clipPath id="clip0_1958_63236">
<rect width="51" height="58" fill="white"/>
</clipPath>
</defs>
</svg>
