<svg width="52" height="58" viewBox="0 0 52 58" fill="none" xmlns="http://www.w3.org/2000/svg">
<g clip-path="url(#clip0_1958_62920)">
<path d="M5.1745 15.3227L5.17453 15.3227L5.18166 15.3182L22.4692 4.37921C23.7803 3.57184 25.4044 3.54018 26.7338 4.29161L26.738 4.29396L45.2731 14.6133C45.2738 14.6138 45.2745 14.6142 45.2752 14.6146C46.5968 15.3626 47.4377 16.7791 47.4708 18.3448L47.582 38.5289H47.5819L47.5821 38.5397C47.6133 40.1033 46.8359 41.5622 45.5463 42.3851L27.9949 53.5843C26.6754 54.4262 25.0225 54.4717 23.6721 53.7084L5.5484 43.4643C4.12304 42.6586 3.07315 41.1507 3.08308 39.6072H3.08309V39.6024L3.08316 19.0833C3.08317 19.0825 3.08317 19.0817 3.08318 19.081C3.09389 17.5381 3.89086 16.1148 5.1745 15.3227Z" fill="#18181B" stroke="url(#paint0_linear_1958_62920)" stroke-width="1.5"/>
<path d="M29.633 37.125C29.3917 37.1239 29.1557 37.0534 28.9533 36.9218L25.008 34.4297H24.9924L21.3283 36.75C21.0916 36.8993 20.8158 36.9746 20.536 36.9663C20.2563 36.9579 19.9854 36.8663 19.758 36.7031C19.5246 36.5315 19.3478 36.294 19.2504 36.0211C19.1529 35.7483 19.1393 35.4525 19.2111 35.1718L20.2658 31.0234C20.2692 31.0125 20.2694 31.001 20.2667 30.99C20.2639 30.979 20.2582 30.9689 20.2502 30.9609L16.719 28.0234C16.5177 27.8553 16.3715 27.6307 16.2991 27.3786C16.2267 27.1266 16.2314 26.8587 16.3127 26.6093C16.3909 26.3632 16.5417 26.1465 16.7452 25.9876C16.9488 25.8286 17.1956 25.7349 17.4533 25.7187L22.0627 25.4218C22.0695 25.421 22.076 25.4184 22.0815 25.4143C22.087 25.4102 22.0913 25.4047 22.094 25.3984L23.8127 21.0625C23.9055 20.8229 24.0685 20.617 24.2805 20.4718C24.4924 20.3266 24.7433 20.2489 25.0002 20.2489C25.2571 20.2489 25.508 20.3266 25.7199 20.4718C25.9319 20.617 26.0949 20.8229 26.1877 21.0625L27.9065 25.3984C27.9092 25.4047 27.9135 25.4102 27.9189 25.4143C27.9244 25.4184 27.9309 25.421 27.9377 25.4218L32.5471 25.7187C32.8048 25.7349 33.0516 25.8286 33.2552 25.9876C33.4587 26.1465 33.6095 26.3632 33.6877 26.6093C33.769 26.8587 33.7738 27.1266 33.7013 27.3786C33.6289 27.6307 33.4827 27.8553 33.2815 28.0234L29.7502 30.9609C29.7422 30.9689 29.7365 30.979 29.7337 30.99C29.731 31.001 29.7313 31.0125 29.7346 31.0234L30.8674 35.5C30.9346 35.7532 30.9236 36.0209 30.8358 36.2677C30.7479 36.5145 30.5873 36.729 30.3752 36.8828C30.1581 37.0369 29.8993 37.1214 29.633 37.125ZM25.0002 33.1797C25.2409 33.178 25.4769 33.2458 25.6799 33.375L29.6174 35.8672H29.633C29.6431 35.862 29.6513 35.8538 29.6565 35.8437C29.6643 35.8359 29.6643 35.8281 29.6565 35.7968L28.5236 31.3203C28.4622 31.0816 28.4692 30.8305 28.5438 30.5956C28.6184 30.3607 28.7576 30.1516 28.9455 29.9922L32.4846 27.0546C32.4924 27.0468 32.508 27.0312 32.4924 26.9922C32.4768 26.9531 32.4768 26.9609 32.469 26.9609L27.8518 26.664C27.6101 26.6466 27.3784 26.561 27.1834 26.4172C26.9884 26.2734 26.8382 26.0772 26.7502 25.8515L25.0236 21.5234C25.0158 21.5 25.008 21.5 25.0002 21.5C24.9924 21.5 24.9846 21.5 24.9768 21.5234L23.2502 25.8593C23.1622 26.0851 23.012 26.2812 22.817 26.425C22.622 26.5688 22.3903 26.6544 22.1486 26.6718L17.5315 26.9687C17.5236 26.9687 17.5158 26.9687 17.508 27C17.5002 27.0312 17.508 27.0546 17.5158 27.0625L21.0549 30C21.2428 30.1594 21.382 30.3685 21.4567 30.6034C21.5313 30.8383 21.5382 31.0894 21.4768 31.3281L20.4221 35.4843C20.4127 35.5214 20.4143 35.5603 20.4268 35.5964C20.4393 35.6325 20.4621 35.6642 20.4924 35.6875C20.5142 35.7084 20.5428 35.7207 20.573 35.7221C20.6031 35.7235 20.6328 35.714 20.6565 35.6953L24.3205 33.375C24.5236 33.2458 24.7596 33.178 25.0002 33.1797Z" fill="url(#paint1_linear_1958_62920)"/>
</g>
<defs>
<linearGradient id="paint0_linear_1958_62920" x1="2.78404" y1="18.9482" x2="48.5071" y2="41.3679" gradientUnits="userSpaceOnUse">
<stop stop-color="#30FFAA"/>
<stop offset="1" stop-color="#007E4A"/>
</linearGradient>
<linearGradient id="paint1_linear_1958_62920" x1="16.1993" y1="23.8554" x2="33.4634" y2="33.4882" gradientUnits="userSpaceOnUse">
<stop stop-color="#30FFAA"/>
<stop offset="1" stop-color="#007E4A"/>
</linearGradient>
<clipPath id="clip0_1958_62920">
<rect width="51" height="58" fill="white" transform="translate(0.333008)"/>
</clipPath>
</defs>
</svg>
