<svg width="51" height="58" viewBox="0 0 51 58" fill="none" xmlns="http://www.w3.org/2000/svg">
<g clip-path="url(#clip0_1958_63131)">
<path d="M4.84149 15.3227L4.84152 15.3227L4.84865 15.3182L22.1362 4.37921C23.4473 3.57184 25.0714 3.54018 26.4008 4.29161L26.405 4.29396L44.9401 14.6133C44.9408 14.6138 44.9415 14.6142 44.9422 14.6146C46.2638 15.3626 47.1047 16.7791 47.1378 18.3448L47.249 38.5289H47.2489L47.2491 38.5397C47.2803 40.1033 46.5029 41.5622 45.2133 42.3851L27.6619 53.5843C26.3424 54.4262 24.6895 54.4717 23.3391 53.7084L5.21539 43.4643C3.79003 42.6586 2.74014 41.1507 2.75007 39.6072H2.75009V39.6024L2.75015 19.0833C2.75016 19.0825 2.75016 19.0817 2.75017 19.081C2.76088 17.5381 3.55785 16.1148 4.84149 15.3227Z" fill="white" stroke="url(#paint0_linear_1958_63131)" stroke-width="1.5"/>
<path d="M24.9998 19.8334C23.8527 19.8348 22.7315 20.1744 21.7763 20.8098C20.8212 21.4452 20.0746 22.348 19.6299 23.4055C19.1853 24.4629 19.0622 25.628 19.2762 26.755C19.4903 27.882 20.0318 28.9209 20.8332 29.7417V37.3334C20.8336 37.4754 20.8703 37.615 20.9399 37.7389C21.0095 37.8627 21.1095 37.9668 21.2306 38.0411C21.3517 38.1154 21.4897 38.1575 21.6316 38.1635C21.7736 38.1694 21.9147 38.139 22.0415 38.075L24.9998 36.6L27.9582 38.075C28.0743 38.1345 28.2027 38.1659 28.3332 38.1667C28.4892 38.1672 28.6422 38.1239 28.7748 38.0417C28.8949 37.9666 28.9939 37.8622 29.0625 37.7383C29.131 37.6143 29.1668 37.475 29.1665 37.3334V29.7417C29.9679 28.9209 30.5094 27.882 30.7235 26.755C30.9375 25.628 30.8144 24.4629 30.3698 23.4055C29.9251 22.348 29.1785 21.4452 28.2234 20.8098C27.2682 20.1744 26.147 19.8348 24.9998 19.8334ZM27.4998 35.9834L25.3748 34.925C25.2585 34.8664 25.1301 34.8359 24.9998 34.8359C24.8696 34.8359 24.7412 34.8664 24.6248 34.925L22.4999 35.9834V30.9334C23.0273 31.1824 23.5891 31.351 24.1665 31.4334V32.3334C24.1665 32.5544 24.2543 32.7663 24.4106 32.9226C24.5669 33.0789 24.7788 33.1667 24.9998 33.1667C25.2209 33.1667 25.4328 33.0789 25.5891 32.9226C25.7454 32.7663 25.8332 32.5544 25.8332 32.3334V31.4334C26.4106 31.351 26.9724 31.1824 27.4998 30.9334V35.9834ZM24.9998 29.8334C24.1758 29.8334 23.3702 29.589 22.685 29.1312C21.9998 28.6733 21.4657 28.0226 21.1504 27.2612C20.835 26.4999 20.7525 25.6621 20.9132 24.8538C21.074 24.0456 21.4709 23.3031 22.0536 22.7204C22.6363 22.1377 23.3787 21.7409 24.187 21.5801C24.9952 21.4193 25.833 21.5018 26.5944 21.8172C27.3557 22.1326 28.0065 22.6666 28.4643 23.3518C28.9221 24.037 29.1665 24.8426 29.1665 25.6667C29.1665 26.7718 28.7275 27.8316 27.9461 28.613C27.1647 29.3944 26.1049 29.8334 24.9998 29.8334Z" fill="url(#paint1_linear_1958_63131)"/>
</g>
<defs>
<linearGradient id="paint0_linear_1958_63131" x1="2.45103" y1="18.9481" x2="48.174" y2="41.3679" gradientUnits="userSpaceOnUse">
<stop stop-color="#00DC82"/>
<stop offset="1" stop-color="#003F25"/>
</linearGradient>
<linearGradient id="paint1_linear_1958_63131" x1="19.1413" y1="23.7513" x2="32.6341" y2="28.3644" gradientUnits="userSpaceOnUse">
<stop stop-color="#00DC82"/>
<stop offset="1" stop-color="#003F25"/>
</linearGradient>
<clipPath id="clip0_1958_63131">
<rect width="51" height="58" fill="white"/>
</clipPath>
</defs>
</svg>
