<svg width="52" height="58" viewBox="0 0 52 58" fill="none" xmlns="http://www.w3.org/2000/svg">
<g clip-path="url(#clip0_1958_62956)">
<path d="M5.1745 15.3227L5.17453 15.3227L5.18166 15.3182L22.4692 4.37921C23.7803 3.57184 25.4044 3.54018 26.7338 4.29161L26.738 4.29396L45.2731 14.6133C45.2738 14.6138 45.2745 14.6142 45.2752 14.6146C46.5968 15.3626 47.4377 16.7791 47.4708 18.3448L47.582 38.5289H47.5819L47.5821 38.5397C47.6133 40.1033 46.8359 41.5622 45.5463 42.3851L27.9949 53.5843C26.6754 54.4262 25.0225 54.4717 23.6721 53.7084L5.5484 43.4643C4.12304 42.6586 3.07315 41.1507 3.08308 39.6072H3.08309V39.6024L3.08316 19.0833C3.08317 19.0825 3.08317 19.0817 3.08318 19.081C3.09389 17.5381 3.89086 16.1148 5.1745 15.3227Z" fill="#18181B" stroke="url(#paint0_linear_1958_62956)" stroke-width="1.5"/>
<path d="M30.1667 24.8333C29.7814 23.8298 29.1514 22.9385 28.334 22.2404C27.5165 21.5423 26.5376 21.0596 25.4861 20.8362C24.4346 20.6127 23.344 20.6556 22.3133 20.9609C21.2826 21.2662 20.3446 21.8243 19.5845 22.5844C18.8244 23.3445 18.2663 24.2826 17.961 25.3132C17.6556 26.3439 17.6128 27.4346 17.8362 28.4861C18.0597 29.5375 18.5424 30.5165 19.2405 31.3339C19.9386 32.1514 20.8299 32.7814 21.8334 33.1667C22.2187 34.1702 22.8487 35.0615 23.6662 35.7596C24.4836 36.4577 25.4626 36.9404 26.514 37.1639C27.5655 37.3873 28.6562 37.3444 29.6868 37.0391C30.7175 36.7338 31.6556 36.1757 32.4157 35.4156C33.1758 34.6555 33.7339 33.7175 34.0392 32.6868C34.3445 31.6561 34.3874 30.5654 34.1639 29.514C33.9405 28.4625 33.4578 27.4835 32.7597 26.6661C32.0616 25.8487 31.1703 25.2186 30.1667 24.8333ZM28.8334 26.1667C28.8936 26.4798 28.9243 26.7978 28.9251 27.1167C28.9233 27.4928 28.8786 27.8674 28.7917 28.2333L26.7584 26.2167C27.1243 26.1298 27.499 26.0851 27.8751 26.0833C28.1939 26.0841 28.512 26.1148 28.8251 26.175L28.8334 26.1667ZM28.0501 29.8333C27.7179 30.3062 27.3062 30.7178 26.8334 31.05L23.9501 28.1667C24.2823 27.6939 24.6939 27.2822 25.1667 26.95L28.0501 29.8333ZM21.3834 31.05C20.8061 30.6506 20.3235 30.1293 19.9699 29.5229C19.6163 28.9164 19.4003 28.2397 19.3371 27.5405C19.2739 26.8414 19.3652 26.1369 19.6043 25.4769C19.8435 24.8169 20.2247 24.2175 20.7211 23.7211C21.2175 23.2247 21.8169 22.8434 22.4769 22.6043C23.1369 22.3651 23.8414 22.2739 24.5406 22.3371C25.2397 22.4002 25.9165 22.6163 26.5229 22.9699C27.1294 23.3235 27.6507 23.806 28.0501 24.3833H27.8417C26.1296 24.3944 24.4916 25.084 23.2872 26.3009C22.0827 27.5179 21.4101 29.1628 21.4167 30.875C21.4167 30.9417 21.4251 31.0167 21.4251 31.0833L21.3834 31.05ZM23.1334 31.7917C23.0732 31.4786 23.0425 31.1605 23.0417 30.8417C23.0435 30.4656 23.0882 30.0909 23.1751 29.725L25.2001 31.75C24.8342 31.8369 24.4595 31.8816 24.0834 31.8833C23.7795 31.891 23.4755 31.8715 23.1751 31.825L23.1334 31.7917ZM27.8751 35.6667C27.0951 35.6652 26.3272 35.474 25.6376 35.1096C24.948 34.7452 24.3574 34.2186 23.9167 33.575H24.1251C25.8358 33.5728 27.476 32.8928 28.6864 31.6839C29.8969 30.475 30.579 28.8357 30.5834 27.125V26.9167C31.4299 27.4942 32.069 28.3278 32.4069 29.2952C32.7447 30.2627 32.7635 31.3129 32.4605 32.2918C32.1575 33.2707 31.5487 34.1267 30.7234 34.7341C29.8981 35.3416 28.8998 35.6684 27.8751 35.6667Z" fill="url(#paint1_linear_1958_62956)"/>
</g>
<defs>
<linearGradient id="paint0_linear_1958_62956" x1="2.78404" y1="18.9482" x2="48.5071" y2="41.3679" gradientUnits="userSpaceOnUse">
<stop stop-color="#30FFAA"/>
<stop offset="1" stop-color="#007E4A"/>
</linearGradient>
<linearGradient id="paint1_linear_1958_62956" x1="17.649" y1="24.2448" x2="34.3095" y2="33.2071" gradientUnits="userSpaceOnUse">
<stop stop-color="#30FFAA"/>
<stop offset="1" stop-color="#007E4A"/>
</linearGradient>
<clipPath id="clip0_1958_62956">
<rect width="51" height="58" fill="white" transform="translate(0.333008)"/>
</clipPath>
</defs>
</svg>
