<svg width="115" height="31" viewBox="0 0 115 31" xmlns="http://www.w3.org/2000/svg">
  <g clip-path="url(#clip0_6290_58590)">
    <path d="M12.6699 0.113281H0V30.1133L12.6699 0.113281Z" fill="#A1A1AA" />
    <path d="M21.584 0.113281H34.2373V30.1133L21.584 0.113281Z" fill="#A1A1AA" />
    <path d="M17.1263 11.1719L25.1905 30.1149H19.8997L17.4895 24.0839H11.5879L17.1263 11.1719Z" fill="#A1A1AA" />
    <path d="M54.9075 19.1901L56.4014 23.4314C56.451 23.5377 56.5252 23.5867 56.6573 23.5867H59.5297C59.6865 23.5867 59.7113 23.5132 59.6865 23.3579L53.7519 7.03808C53.7272 6.90733 53.7024 6.88281 53.5703 6.88281H50.0046C49.9056 6.88281 49.8478 6.95636 49.8478 7.0626C49.7982 7.92068 49.724 8.18219 49.6167 8.43552L44.3259 23.3334C44.3011 23.5132 44.3589 23.5867 44.5074 23.5867H47.0744C47.2313 23.5867 47.3055 23.5377 47.3633 23.3824L48.7748 19.1901H54.9075ZM49.5919 16.4197C50.3678 14.0988 51.3913 11.1242 51.804 9.42436H51.8287C52.3405 11.2059 53.5456 14.7363 54.0903 16.4197H49.5919Z" fill="#A1A1AA" />
    <path d="M67.3163 23.839C68.8598 23.839 70.5023 23.5612 72.1696 22.8502C72.3017 22.8012 72.3264 22.744 72.3264 22.6214C72.2769 22.1638 72.2191 21.5018 72.2191 20.9951V5.63147C72.2191 5.53341 72.2191 5.48438 72.0953 5.48438H69.2972C69.1899 5.48438 69.1404 5.53341 69.1404 5.66416V10.8698C68.7029 10.8208 68.3975 10.7963 68.0344 10.7963C63.5194 10.7963 60.7461 13.7464 60.7461 17.4321C60.7461 21.7061 63.5937 23.839 67.3163 23.839V23.839ZM69.1404 20.9951C68.6782 21.1422 68.1664 21.1994 67.6464 21.1994C65.5994 21.1994 63.9239 20.0553 63.9239 17.2768C63.9239 14.817 65.649 13.3623 67.9353 13.3623C68.3975 13.3623 68.802 13.4114 69.1404 13.5421V20.9951Z" fill="#A1A1AA" />
    <path d="M81.2527 10.7969C77.3981 10.7969 75.0127 13.7225 75.0127 17.3346C75.0127 20.5626 76.9111 23.8396 81.1949 23.8396C84.8184 23.8396 87.3607 21.2 87.3607 17.2529C87.3607 13.7715 85.2064 10.7969 81.2527 10.7969ZM81.0959 13.3629C83.2749 13.3629 84.1994 15.218 84.1994 17.3346C84.1994 19.9497 82.8375 21.2491 81.2527 21.2491C79.2965 21.2491 78.141 19.6228 78.141 17.2774C78.141 14.8666 79.3708 13.3629 81.0959 13.3629V13.3629Z" fill="#A1A1AA" />
    <path d="M90.2539 5.48438C90.1466 5.48438 90.0723 5.53341 90.0723 5.66416V23.0545C90.0723 23.1281 90.1466 23.2588 90.2539 23.2833C91.4837 23.6593 92.7713 23.839 94.1002 23.839C97.9053 23.839 101.603 21.5018 101.603 16.7946C101.603 13.3869 99.2424 10.7963 95.5447 10.7963C94.6945 10.7963 93.9021 10.927 93.2088 11.1559L93.1758 5.68868C93.1758 5.50889 93.1262 5.48438 92.9447 5.48438H90.2539ZM98.4418 17.1052C98.4418 19.9246 96.4939 21.2485 94.3891 21.2485C93.9516 21.2485 93.5637 21.224 93.2088 21.1177V13.6974C93.6132 13.5421 94.1002 13.4114 94.9999 13.4114C97.0304 13.4114 98.4418 14.6862 98.4418 17.1052Z" fill="#A1A1AA" />
    <path d="M112.045 18.0211C113.3 18.0211 114.331 17.9965 114.686 17.9148C114.818 17.8903 114.868 17.8413 114.893 17.735C114.967 17.4572 115 16.877 115 16.166C115 13.747 113.531 10.7969 109.734 10.7969C105.854 10.7969 103.7 13.9268 103.7 17.4572C103.7 20.5871 105.368 23.8396 110.039 23.8396C111.789 23.8396 112.92 23.5618 113.894 23.1041C113.993 23.0551 114.042 22.9734 114.042 22.8263V20.7097C114.042 20.5871 113.968 20.5626 113.894 20.6116C112.92 21.0202 111.863 21.2246 110.708 21.2246C108.091 21.2246 106.903 19.7944 106.828 18.0211H112.045ZM106.828 15.8309C107.035 14.5888 107.827 13.2403 109.602 13.2403C111.558 13.2403 112.07 14.8666 112.07 15.6021C112.07 15.6266 112.07 15.7329 112.07 15.8064C111.962 15.8309 111.632 15.8309 110.658 15.8309H106.828Z" fill="#A1A1AA" />
  </g>
  <defs>
    <clipPath id="clip0_6290_58590">
      <rect width="115" height="30" fill="white" transform="translate(0 0.113281)" />
    </clipPath>
  </defs>
</svg>
