<svg width="173" height="27" viewBox="0 0 173 27" fill="none" xmlns="http://www.w3.org/2000/svg">
  <g clip-path="url(#clip0_6290_58565)">
    <path d="M0.73617 12.7102C1.34965 9.56219 4.17163 7.38281 8.09787 7.38281C12.6376 7.38281 16.1957 9.32003 16.1957 15.3738V26.6339H12.2695L11.7787 24.2124C10.4291 25.9075 8.58865 26.9972 5.88936 26.9972C2.5766 26.9972 0 24.9389 0 21.1855C0 17.4321 3.43546 15.0106 8.22057 15.0106H11.4106V14.1631C11.4106 11.9837 9.8156 11.3783 7.97518 11.3783C6.62553 11.3783 5.27589 11.8626 4.66241 13.5577L0.73617 12.7102ZM6.99362 23.0016C9.20213 23.0016 11.4106 21.5487 11.4106 19.1272V18.764H8.34326C6.25745 18.6429 5.0305 19.4904 5.0305 21.1855C5.0305 22.033 5.76667 23.0016 6.99362 23.0016Z" fill="#A1A1AA" />
    <path d="M93.2479 12.7141C93.8614 9.56609 96.6833 7.38672 100.61 7.38672C105.149 7.38672 108.707 9.32394 108.707 15.3778V26.6378H104.781L104.29 24.2163C102.941 25.9114 101.1 27.0011 98.4011 27.0011C95.0883 27.0011 92.5117 24.9428 92.5117 21.1894C92.5117 17.436 95.9472 15.0145 100.732 15.0145H103.922V14.167C103.922 11.9876 102.327 11.3822 100.487 11.3822C99.1373 11.3822 97.7876 11.8665 97.1741 13.5616L93.2479 12.7141ZM99.5053 23.0056C101.714 23.0056 103.922 21.5526 103.922 19.1311V18.7679H100.732C98.6465 18.7679 97.4195 19.4943 97.4195 21.1894C97.5422 22.0369 98.2784 23.0056 99.5053 23.0056Z" fill="#A1A1AA" />
    <path d="M113.002 26.7589V7.62887H117.787V10.7769C119.137 8.4764 121.345 7.38672 123.431 7.38672C124.29 7.38672 125.026 7.5078 125.762 7.74995L124.903 12.1087C124.29 11.7455 123.676 11.5033 122.94 11.5033C120.118 11.5033 117.787 13.8038 117.787 19.8576V26.6378L113.002 26.7589Z" fill="#A1A1AA" />
    <path d="M135.946 7.38565C137.909 7.38565 139.749 8.35426 140.608 9.44395V0H145.393V26.7578H140.608V24.8206C139.995 25.7892 138.277 27.1211 135.946 27.1211C130.179 27.1211 127.234 23.1256 127.234 17.3139C127.234 11.5022 130.179 7.38565 135.946 7.38565ZM136.682 23.0045C139.136 23.0045 141.099 20.9462 141.099 17.1928C141.099 13.4395 139.136 11.3812 136.682 11.3812C134.228 11.3812 132.265 13.4395 132.265 17.1928C132.265 20.9462 134.228 23.0045 136.682 23.0045Z" fill="#A1A1AA" />
    <path d="M162.571 10.4136L159.749 12.9562C158.89 11.7454 157.54 11.2611 156.559 11.2611C155.577 11.2611 154.718 11.8665 154.718 12.8351C154.718 13.6826 155.454 14.288 156.559 14.6513C159.258 15.6199 163.552 16.4674 163.552 20.4629C163.552 23.9741 160.853 26.7589 156.681 26.7589C152.632 26.7589 149.933 23.9741 149.074 21.6737L152.878 19.6154C153.614 21.4315 154.841 22.7634 156.804 22.7634C158.276 22.7634 159.258 22.0369 159.258 20.7051C159.258 19.1311 156.804 18.7678 154.473 17.7992C152.387 16.9517 150.547 15.6199 150.547 12.714C150.547 9.80821 153 7.14453 156.681 7.14453C159.135 7.26561 161.466 8.59745 162.571 10.4136Z" fill="#A1A1AA" />
    <path d="M63.6782 7.62891L60.2428 20.8262L56.93 7.62891H52.513L49.3229 20.8262L46.6236 13.1984L46.2555 14.0459L44.7832 19.0101L47.2371 26.759H51.4087L54.7215 14.4092L58.0343 26.759H62.3286L68.4633 7.62891H63.6782Z" fill="#A1A1AA" />
    <path d="M86.6232 7.62891L83.1877 20.8262L79.875 7.62891H75.458L72.2679 20.8262L69.5686 13.1984L69.2005 14.0459L67.6055 19.0101L70.1821 26.759H74.3537L77.6665 14.4092L80.9792 26.759H85.1509L91.4083 7.62891H86.6232Z" fill="#A1A1AA" />
    <path d="M45.5195 7.62891L39.3848 26.6379H35.2132L31.9004 14.4092L28.5876 26.759H24.416L18.2812 7.74998H23.0664L26.5018 20.8262L29.8146 7.74998H34.2316L37.5444 20.8262L40.9798 7.74998L45.5195 7.62891Z" fill="#A1A1AA" />
    <path d="M169.809 20.582C171.65 20.582 172.999 21.9139 172.999 23.73C172.999 25.5462 171.65 26.878 169.809 26.878C167.969 26.878 166.619 25.5462 166.619 23.73C166.619 21.9139 167.969 20.582 169.809 20.582Z" fill="#A1A1AA" />
  </g>
  <defs>
    <clipPath id="clip0_6290_58565">
      <rect width="173" height="27" fill="white" />
    </clipPath>
  </defs>
</svg>
