<svg width="925" height="120" viewBox="0 0 925 120" fill="none" xmlns="http://www.w3.org/2000/svg">
  <path d="M92.9231 12.5912H129.507C147.738 12.5912 159.07 22.8151 159.07 36.2417C159.317 44.3716 154.882 52.0087 147.738 55.9504C157.715 59.0299 164.49 68.2684 164.49 78.6155C164.49 94.9983 151.803 105.961 131.109 105.961H92.9231V12.5912ZM129.877 50.9001C138.499 50.9001 143.55 47.2047 143.55 39.0748C143.55 30.945 138.623 27.3728 129.877 27.3728H108.444V51.0233H129.877V50.9001ZM133.819 91.3029C142.318 91.3029 148.231 86.9917 148.231 78.4923C148.231 69.9929 142.318 65.5584 133.819 65.5584H108.567V91.3029H133.819ZM171.019 72.7028C171.019 50.2842 185.677 37.9662 202.799 37.9662C211.175 37.9662 218.32 41.908 223.37 46.5888L228.544 39.3212H238.521V106.084H223.247V97.8315C218.936 102.389 212.284 107.439 202.306 107.439C186.663 107.316 171.019 95.1215 171.019 72.7028ZM223.37 77.63V67.8988C223.37 58.2908 215.24 51.1464 205.386 51.1464C195.039 51.1464 186.416 58.0445 186.416 72.7028C186.416 87.3612 194.916 94.2592 205.509 94.2592C215.117 94.2592 223.247 87.238 223.37 77.63ZM380.794 39.3212H362.193L334.848 70.2392V12.5912H319.697V105.961H334.848V75.0433L362.193 105.961H380.917L351.23 72.5797L380.794 39.3212ZM419.102 39.3212H400.379L370.816 72.7028L400.379 106.084H419.102L389.416 72.7028L419.102 39.3212ZM506.56 12.5912L478.844 72.2101L451.006 12.5912H434.253V105.961H449.405V42.7702L471.7 90.9334H485.866L508.161 42.7702V105.961H523.189V12.5912H506.56V12.5912ZM532.551 72.7028C532.551 50.2842 547.209 37.9662 564.331 37.9662C572.707 37.9662 579.852 41.908 584.902 46.5888L590.199 39.3212H600.176V106.084H584.902V97.8315C580.591 102.389 573.939 107.439 563.961 107.439C548.318 107.316 532.551 95.1215 532.551 72.7028ZM584.902 77.63V67.8988C584.902 58.2908 576.772 51.1464 566.918 51.1464C556.447 51.1464 547.948 58.0445 547.948 72.7028C547.948 87.3612 556.447 94.2592 567.041 94.2592C576.772 94.2592 584.902 87.238 584.902 77.63ZM610.893 39.3212H620.87L626.167 46.5888C630.725 41.4153 635.159 38.2126 641.934 38.2126H653.143V52.6246H636.145C629.862 52.6246 626.167 55.5809 626.167 62.7253V105.961H610.893V39.3212V39.3212ZM801.698 88.8393V52.3782H789.38V39.3212H801.698V26.3873L817.095 17.5184V39.3212H832V52.3782H817.095V86.3758C817.095 90.8102 819.682 92.7811 824.732 92.7811H831.384V105.961H820.175C809.212 105.961 801.698 101.28 801.698 88.8393ZM770.657 83.2963C768.193 89.948 762.65 94.5056 753.411 94.5056C742.695 94.5056 735.304 87.8539 734.565 76.891H785.685V72.2101C785.685 50.7769 772.135 38.0894 753.165 38.0894C735.427 38.0894 719.783 52.0087 719.783 72.826C719.783 93.6433 733.087 107.563 753.165 107.563C768.686 107.563 779.402 100.049 783.96 86.3758C780.018 85.2671 775.461 84.2817 770.657 83.2963ZM753.165 50.4074C762.773 50.4074 770.41 55.8273 771.272 65.8048H734.811C736.659 55.9504 744.05 50.4074 753.165 50.4074ZM722.124 39.3212H703.401L676.055 70.1161V12.5912H660.781V105.961H676.055V75.1664L703.401 105.961H722.124L692.438 72.5797L722.124 39.3212ZM280.895 93.8897C269.809 93.8897 261.556 86.2526 261.556 72.7028C261.556 59.1531 269.809 51.3928 280.895 51.3928C290.503 51.3928 296.662 56.1968 298.756 63.5875C302.205 62.8485 309.349 61.4935 312.306 60.7544C308.98 46.4656 297.278 37.9662 280.772 37.9662C261.556 37.9662 246.651 52.0087 246.651 72.7028C246.651 93.397 261.556 107.439 280.772 107.439C297.031 107.439 308.364 99.1864 312.183 84.5281C309.103 83.789 302.082 82.434 298.633 81.6949C296.169 89.3321 290.503 93.8897 280.895 93.8897Z" fill="#A1A1AA" />
</svg>
