<svg width="394" height="120" viewBox="0 0 394 120" fill="none" xmlns="http://www.w3.org/2000/svg">
  <g clip-path="url(#clip0_6290_58637)">
    <path d="M276.755 28.6562H268.325L268.364 91.3638H302.508V83.6074H276.793L276.755 28.6562Z" fill="#A1A1AA" />
    <path d="M335 80.362C332.874 82.5616 329.355 84.7612 324.56 84.7612C318.141 84.7612 315.55 81.5969 315.55 77.4678C315.55 71.2549 319.881 68.2836 329.084 68.2836C330.824 68.2836 333.608 68.4765 335.039 68.7466V80.362H335V80.362ZM326.261 42.3516C319.456 42.3516 313.192 44.7441 308.319 48.796L311.297 53.9669C314.738 51.9603 318.953 49.9537 325.024 49.9537C331.946 49.9537 335 53.5039 335 59.4466V62.4952C333.647 62.225 330.863 62.0321 329.161 62.0321C314.39 62.0321 306.889 67.2031 306.889 78.0081C306.889 87.694 312.844 92.5562 321.853 92.5562C327.924 92.5562 333.763 89.7778 335.774 85.2628L337.32 91.3985H343.275V59.2923C343.237 49.1433 338.828 42.3516 326.261 42.3516Z" fill="#A1A1AA" />
    <path d="M370.474 85.0469C367.303 85.0469 364.519 84.661 362.431 83.6963V57.7257V54.7157C365.293 52.3232 368.85 50.5867 373.374 50.5867C381.533 50.5867 384.665 56.3365 384.665 65.6365C384.665 78.834 379.6 85.0469 370.474 85.0469ZM374.032 42.3672C366.491 42.3672 362.431 47.4995 362.431 47.4995V39.3958L362.393 28.668H358.603H354.156L354.195 89.832C358.332 91.5685 363.978 92.4946 370.126 92.4946C385.864 92.4946 393.443 82.4614 393.443 65.1348C393.404 51.4356 386.405 42.3672 374.032 42.3672Z" fill="#A1A1AA" />
    <path d="M184.974 35.4611C192.437 35.4611 197.27 37.9308 200.402 40.4391L204.037 34.1491C199.126 29.8271 192.476 27.5117 185.361 27.5117C167.419 27.5117 154.852 38.4325 154.852 60.467C154.852 83.5433 168.424 92.5346 183.93 92.5346C191.702 92.5346 198.314 90.721 202.645 88.9073L202.452 64.2487V61.3545V56.4923H179.444V64.2487H194.138L194.332 82.9645C192.398 83.9292 189.073 84.701 184.549 84.701C172.097 84.701 163.745 76.8674 163.745 60.3898C163.707 43.6035 172.329 35.4611 184.974 35.4611Z" fill="#A1A1AA" />
    <path d="M244.34 28.6484H236.104L236.142 39.1833V43.5053V46.0136V50.4128V75.4958V75.573C236.142 85.722 240.55 92.5137 253.117 92.5137C254.857 92.5137 256.559 92.3593 258.183 92.0506V84.6801C256.984 84.873 255.708 84.9502 254.355 84.9502C247.433 84.9502 244.378 81.4 244.378 75.4572V50.3742H258.183V43.5053H244.378L244.34 28.6484Z" fill="#A1A1AA" />
    <path d="M215.157 91.3663H223.393V43.5156H215.157V91.3663Z" fill="#A1A1AA" />
    <path d="M215.157 36.9148H223.393V28.6953H215.157V36.9148Z" fill="#A1A1AA" />
    <path d="M65.2721 120.002L89.3232 46.1719H41.2559L65.2721 120.002Z" fill="#A1A1AA" />
    <path opacity="0.5" d="M7.56811 46.1719L0.244009 68.6023C-0.41876 70.639 0.296983 72.8872 2.04632 74.1568L65.2719 120.001L7.56811 46.1719Z" fill="#A1A1AA" />
    <path d="M7.56836 46.1702H41.2559L26.7577 1.70613C26.0157 -0.56871 22.7819 -0.56871 22.0132 1.70613L7.56836 46.1702Z" fill="#A1A1AA" />
    <path opacity="0.5" d="M123.01 46.1719L130.308 68.6023C130.971 70.639 130.255 72.8872 128.506 74.1568L65.2715 120.002L123.01 46.1719Z" fill="#A1A1AA" />
    <path d="M123.011 46.1702H89.3232L103.795 1.70613C104.537 -0.56871 107.771 -0.56871 108.539 1.70613L123.011 46.1702Z" fill="#A1A1AA" />
    <path opacity="0.75" d="M65.2715 120.002L89.3226 46.1719H123.01L65.2715 120.002Z" fill="#A1A1AA" />
    <path opacity="0.75" d="M65.2722 120.002L7.56836 46.1719H41.2559L65.2722 120.002Z" fill="#A1A1AA" />
  </g>
  <defs>
    <clipPath id="clip0_6290_58637">
      <rect width="393.443" height="120" fill="white" />
    </clipPath>
  </defs>
</svg>
