<svg width="106" height="30" viewBox="0 0 106 30" fill="none" xmlns="http://www.w3.org/2000/svg">
  <g clip-path="url(#clip0_6290_58559)">
    <path d="M19.0647 21.6544C19.3902 22.8808 19.9155 23.3551 20.8438 23.3551C21.8062 23.3551 22.3109 22.7792 22.3109 21.6544V0.77166H28.3393V21.6544C28.3393 24.598 27.9559 25.8734 26.4575 27.3663C25.3775 28.4421 23.3856 29.2737 20.8705 29.2737C18.8385 29.2737 16.8941 28.6038 15.6541 27.3665C14.5669 26.2816 13.9697 25.1673 13.0365 21.6542L9.3373 7.73258C9.01155 6.50614 8.48646 6.03211 7.55815 6.03211C6.59555 6.03211 6.09091 6.60778 6.09091 7.73258V28.6155H0.0625V7.73258C0.0625 4.78921 0.446093 3.5136 1.94452 2.02073C3.02403 0.945308 5.01615 0.113281 7.5315 0.113281C9.56349 0.113281 11.5079 0.783388 12.7479 2.02052C13.8351 3.10541 14.4322 4.21971 15.3655 7.73278L19.0647 21.6544Z" fill="#A1A1AA" />
    <path d="M98.8089 28.6155L91.8468 6.92257C91.7699 6.68308 91.6974 6.47981 91.5859 6.34422C91.3946 6.11235 91.13 5.99055 90.7739 5.99055C90.418 5.99055 90.1533 6.11235 89.9619 6.34422C89.8505 6.4796 89.7778 6.68287 89.7012 6.92257L82.7393 28.6155H76.5078L84.1125 4.91863C84.5087 3.68416 85.0751 2.63611 85.7938 1.93781C87.0272 0.740181 88.4806 0.113281 90.7741 0.113281C93.0676 0.113281 94.5212 0.740181 95.7542 1.93761C96.4728 2.63611 97.0392 3.68396 97.4356 4.91842L105.04 28.6153H98.8089V28.6155Z" fill="#A1A1AA" />
    <path d="M68.4712 28.6155C72.4207 28.6155 74.3472 27.7798 75.8691 26.2723C77.5533 24.6048 78.3589 22.7802 78.3589 20.0562C78.3589 17.6492 77.4742 15.4198 76.1271 14.0857C74.366 12.3412 72.1784 11.7915 68.6115 11.7915L63.6152 11.7913C61.7062 11.7913 60.9454 11.5615 60.3434 10.9724C59.9301 10.5683 59.7364 9.96736 59.7364 9.25899C59.7364 8.52675 59.9134 7.80356 60.4186 7.30957C60.8671 6.87113 61.4783 6.66991 62.6529 6.66991H77.0924V0.77166H63.7557C59.8062 0.77166 57.8799 1.6076 56.3578 3.11487C54.6738 4.78242 53.868 6.60675 53.868 9.33079C53.868 11.7382 54.7527 13.9674 56.0998 15.3013C57.8611 17.0458 60.0485 17.5957 63.6155 17.5957L68.6119 17.5961C70.5209 17.5961 71.2817 17.8255 71.8837 18.4148C72.297 18.8191 72.4908 19.4198 72.4908 20.1282C72.4908 20.8604 72.3137 21.5836 71.8087 22.0776C71.36 22.5161 70.7488 22.7173 69.5742 22.7173H54.6821L48.9704 4.91863C48.5742 3.68416 48.0078 2.63611 47.2891 1.93781C46.0557 0.740181 44.6023 0.113281 42.3088 0.113281C40.0153 0.113281 38.5617 0.740181 37.3289 1.93761C36.6101 2.63611 36.0439 3.68396 35.6477 4.91842L28.043 28.6153H34.2742L41.2363 6.92236C41.3132 6.68288 41.3857 6.4796 41.4972 6.34402C41.6885 6.11214 41.9533 5.99034 42.3092 5.99034C42.6651 5.99034 42.9297 6.11214 43.1212 6.34402C43.2328 6.47939 43.3053 6.68267 43.3819 6.92236L50.344 28.6153H68.4712V28.6155Z" fill="#A1A1AA" />
  </g>
  <defs>
    <clipPath id="clip0_6290_58559">
      <rect width="104.978" height="29.1604" fill="white" transform="translate(0.0625 0.113281)" />
    </clipPath>
  </defs>
</svg>
