<svg width="119" height="30" viewBox="0 0 119 30" fill="none" xmlns="http://www.w3.org/2000/svg">
  <g clip-path="url(#clip0_6290_58575)">
    <path fill-rule="evenodd" clip-rule="evenodd" d="M0.00878906 14.9206C0.00878906 23.0095 6.20576 29.6745 15.475 29.6788H102.789C112.058 29.6745 118.253 23.0095 118.253 14.9206C118.253 6.83597 112.044 0.0877796 102.804 0.113354H15.4624C6.21837 0.0877759 0.00878906 6.83597 0.00878906 14.9206ZM3.6582 14.9039C3.6582 8.74613 8.16051 3.76279 15.502 3.75H102.757C110.099 3.76279 114.603 8.74613 114.603 14.9039C114.603 21.0638 110.128 26.0813 102.757 26.0557H15.502C8.13741 26.0813 3.6582 21.0638 3.6582 14.9039Z" fill="#A1A1AA" />
    <path d="M11.7364 7.91016H16.0119L21.9233 17.6168L21.9211 7.91016H26.1588V21.8307H21.9253L15.9845 12.124V21.8307H11.7363V7.91016H11.7364Z" fill="#A1A1AA" />
    <path d="M49.2064 9.34375H53.3349V11.2173H55.5672V12.5942H53.3349L53.3391 21.832H49.2064L49.2084 12.5942H46.9678V11.2216L49.2084 11.2173L49.2064 9.34376L49.2064 9.34375Z" fill="#A1A1AA" />
    <path d="M28.5195 12.5742H32.6439V21.8333H28.5195V12.5742Z" fill="#A1A1AA" />
    <path d="M28.5098 7.90625H32.6446V10.7539H28.5098V7.90625Z" fill="#A1A1AA" />
    <path d="M100.786 11.9453C97.4572 11.9453 94.7588 14.2686 94.7588 17.1397C94.7588 20.0086 97.4572 22.3362 100.786 22.3362C104.116 22.3362 106.81 20.0086 106.81 17.1397C106.81 14.2686 104.116 11.9453 100.786 11.9453ZM102.443 17.1269C102.443 17.1269 102.438 18.5251 102.438 19.0878C102.438 20.5628 101.582 21.1703 100.752 21.1703C99.9247 21.1703 99.0616 20.5628 99.0616 19.0878C99.0616 18.5251 99.0636 17.0907 99.0636 17.0907C99.0636 17.0907 99.066 15.7244 99.066 15.1638C99.066 13.6931 99.9332 13.0899 100.752 13.0899C101.575 13.0899 102.439 13.6931 102.439 15.1638C102.439 15.7244 102.436 16.7624 102.443 17.1311V17.1269L102.443 17.1269Z" fill="#A1A1AA" />
    <path d="M89.3744 17.1564V15.5003C89.3744 14.0679 88.4 13.7056 87.7595 13.7056C87.1022 13.7056 86.1426 14.0679 86.1426 15.5003V17.1479V18.7955C86.1426 20.23 87.1022 20.5987 87.7595 20.5987C88.4 20.5987 89.3744 20.23 89.3744 18.7955V17.1564V17.1564ZM89.3471 7.91016H93.4147V21.8286H89.3387C89.3387 21.8286 89.3367 21.3788 89.3367 21.2957C87.7596 22.2975 85.9788 22.2975 84.5887 21.6453C84.217 21.4662 81.7705 20.2747 81.7705 17.052C81.7705 14.6093 84.0385 11.9407 87.012 12.2072C87.9906 12.2946 88.6857 12.6569 89.3472 13.0363V7.91016H89.3471Z" fill="#A1A1AA" />
    <path d="M42.2976 12.1498C43.8411 12.1051 46.9658 13.1282 46.9448 16.7921C46.9406 17.4465 46.9428 21.8309 46.9428 21.8309H42.8478V15.752C42.8478 14.9442 42.0877 14.049 40.9621 14.049C39.8386 14.049 39.0049 14.9442 39.0049 15.752C39.0049 16.1463 39.0091 21.8309 39.0091 21.8309H34.9163L34.9121 12.5761L39.0091 12.5719C39.0091 12.5719 39.0049 13.3157 39.0091 13.5459C39.7987 12.7829 40.9369 12.1882 42.2977 12.1498" fill="#A1A1AA" />
    <path d="M75.8089 12.1498C77.3503 12.1051 80.4793 13.1282 80.4583 16.7921C80.4541 17.4465 80.4583 21.8309 80.4583 21.8309H76.3591V15.752C76.3591 14.9442 75.599 14.049 74.4734 14.049C73.3499 14.049 72.5183 14.9442 72.5183 15.752C72.5183 16.1463 72.5225 21.8309 72.5225 21.8309H68.4297V12.5761L72.5225 12.5719C72.5225 12.5719 72.5183 13.3157 72.5225 13.5459C73.31 12.7829 74.4461 12.1882 75.8089 12.1498" fill="#A1A1AA" />
    <path d="M62.8353 18.589C62.8353 18.589 62.8374 18.6317 62.8374 19.1517C62.8374 20.8441 61.7412 21.2214 61.1322 21.2214C60.5253 21.2214 59.4061 20.8441 59.4061 19.1517C59.4061 18.6445 59.4103 17.242 59.4103 17.242C59.4103 17.242 67.178 17.2462 67.178 17.2377C67.178 14.3688 64.4481 11.9922 61.0944 11.9922C57.7408 11.9922 55.0234 14.3155 55.0234 17.1887C55.0234 20.0619 57.7408 22.383 61.0944 22.383C63.8769 22.383 66.2288 20.7717 66.9449 18.5848L62.8353 18.589H62.8353ZM59.4103 15.7968C59.4019 14.9869 59.4187 14.4455 59.6812 13.983C60.0025 13.4117 60.5947 13.141 61.1323 13.1368C61.6678 13.141 62.26 13.4117 62.5792 13.983C62.8416 14.4455 62.8564 14.9869 62.8501 15.7968H59.4103V15.7968Z" fill="#A1A1AA" />
    <path d="M107.661 9.44014C108.062 9.44014 108.421 9.41456 108.421 8.92432C108.421 8.53213 108.071 8.4618 107.741 8.4618H107.098V9.44014H107.661V9.44014ZM107.098 11.222H106.626V8.05469H107.81C108.55 8.05469 108.915 8.32965 108.915 8.9563C108.915 9.52326 108.564 9.76838 108.106 9.82806L108.993 11.222H108.463L107.638 9.84724H107.098V11.222V11.222Z" fill="#A1A1AA" />
    <path d="M107.667 11.9273C108.893 11.9273 109.859 10.9532 109.859 9.62955C109.859 8.32723 108.893 7.34889 107.667 7.34889C106.43 7.34889 105.462 8.32723 105.462 9.62955C105.462 10.9532 106.43 11.9273 107.667 11.9273ZM104.92 9.62955C104.92 8.05227 106.178 6.89062 107.667 6.89062C109.143 6.89062 110.403 8.05227 110.403 9.62955C110.403 11.2196 109.143 12.3855 107.667 12.3855C106.178 12.3855 104.92 11.2196 104.92 9.62955Z" fill="#A1A1AA" />
  </g>
  <defs>
    <clipPath id="clip0_6290_58575">
      <rect width="118.262" height="29.5655" fill="white" transform="translate(0 0.113281)" />
    </clipPath>
  </defs>
</svg>
