<svg width="129" height="32" viewBox="0 0 129 32" fill="none" xmlns="http://www.w3.org/2000/svg">
  <g clip-path="url(#clip0_6290_58538)">
    <path d="M47.1888 12.4452H43.0088V29.4452H37.7788V12.4452H32.5588L32.5488 7.78516H48.6688L47.1888 12.4452Z" fill="#A1A1AA" />
    <path d="M90.0784 12.4452H85.5384V29.4452H80.3184V12.4452H75.0784L75.0684 7.78516H91.5584L90.0784 12.4452Z" fill="#A1A1AA" />
    <path d="M54.8184 29.4458H49.6884L49.6484 14.6758H54.8184V29.4458Z" fill="#A1A1AA" />
    <path d="M62.0291 17.8166L67.1491 12.8166H73.3091L66.8391 19.0966L74.0891 29.4466H68.3991L63.5591 22.2566L62.0291 23.7366V29.4466H56.8691V7.72656H62.0291V17.8166Z" fill="#A1A1AA" />
    <path d="M116.779 17.8166L121.889 12.8166H128.049L121.579 19.0966L128.779 29.4466H123.089L118.259 22.2566L116.779 23.7366V29.4466H111.609L111.559 7.72656H116.779V17.8166Z" fill="#A1A1AA" />
    <path d="M52.2387 12.9852C53.6746 12.9852 54.8387 11.8211 54.8387 10.3852C54.8387 8.94922 53.6746 7.78516 52.2387 7.78516C50.8027 7.78516 49.6387 8.94922 49.6387 10.3852C49.6387 11.8211 50.8027 12.9852 52.2387 12.9852Z" fill="#A1A1AA" />
    <path d="M90.8984 20.6069C90.9 15.9934 94.449 12.157 99.0484 11.7969C98.8184 11.7969 98.5084 11.7969 98.2784 11.7969C93.6041 12.0695 89.9531 15.9396 89.9531 20.6219C89.9531 25.3041 93.6041 29.1742 98.2784 29.4469C98.5084 29.4469 98.8184 29.4469 99.0484 29.4469C94.4375 29.0859 90.8843 25.2318 90.8984 20.6069V20.6069Z" fill="#A1A1AA" />
    <path d="M101.059 11.767C100.819 11.767 100.509 11.767 100.279 11.767C104.864 12.1457 108.392 15.977 108.392 20.577C108.392 25.1771 104.864 29.0084 100.279 29.387C100.509 29.387 100.819 29.387 101.059 29.387C105.941 29.387 109.899 25.4292 109.899 20.547C109.899 15.6648 105.941 11.707 101.059 11.707V11.767Z" fill="#A1A1AA" fill-opacity="0.75" />
    <path d="M99.6584 24.9056C97.2835 24.9056 95.3584 22.9804 95.3584 20.6056C95.3584 18.2308 97.2835 16.3056 99.6584 16.3056C102.033 16.3056 103.958 18.2308 103.958 20.6056C103.953 22.9782 102.031 24.9001 99.6584 24.9056ZM99.6584 11.7656C94.7762 11.7656 90.8184 15.7234 90.8184 20.6056C90.8184 25.4878 94.7762 29.4456 99.6584 29.4456C104.541 29.4456 108.498 25.4878 108.498 20.6056C108.498 18.2611 107.567 16.0126 105.909 14.3548C104.251 12.697 102.003 11.7656 99.6584 11.7656V11.7656Z" fill="#A1A1AA" />
    <path d="M10.7908 12.33V11.11C10.3673 11.0429 9.93951 11.0062 9.51076 11C5.35997 10.9913 1.6851 13.6811 0.438668 17.6403C-0.807761 21.5996 0.663506 25.9094 4.07076 28.28C1.51848 25.5485 0.809799 21.5721 2.26127 18.127C3.71274 14.682 7.0533 12.4116 10.7908 12.33Z" fill="#A1A1AA" />
    <path d="M11.0215 26.15C13.3422 26.1469 15.2499 24.3185 15.3515 22V1.31H19.1315C19.0543 0.877682 19.0175 0.439131 19.0215 0H13.8515V20.67C13.7655 23.0003 11.8534 24.8462 9.52148 24.85C8.82463 24.8441 8.13915 24.6727 7.52148 24.35C8.3334 25.4749 9.63418 26.1439 11.0215 26.15V26.15Z" fill="#A1A1AA" />
    <path d="M26.1912 8.33V7.18C24.8001 7.18048 23.4399 6.76996 22.2812 6C23.2969 7.18072 24.6694 7.99861 26.1912 8.33Z" fill="#A1A1AA" />
    <path d="M22.2809 6.00078C21.1396 4.70111 20.5104 3.03043 20.5109 1.30078H19.1309C19.4911 3.23347 20.6301 4.93301 22.2809 6.00078Z" fill="#A1A1AA" fill-opacity="0.75" />
    <path d="M9.51053 16.1703C7.51898 16.1805 5.78998 17.5449 5.31697 19.4795C4.84397 21.4141 5.74837 23.4223 7.51053 24.3503C6.55571 23.0321 6.42083 21.2897 7.16139 19.8403C7.90195 18.3908 9.39283 17.4791 11.0205 17.4803C11.4545 17.4857 11.8856 17.5531 12.3005 17.6803V12.4203C11.8768 12.3568 11.449 12.3234 11.0205 12.3203H10.7905V16.3203C10.3734 16.2085 9.94221 16.1579 9.51053 16.1703Z" fill="#A1A1AA" fill-opacity="0.75" />
    <path d="M26.1903 8.33203V12.332C23.615 12.327 21.1066 11.5119 19.0203 10.002V20.512C19.0093 25.7564 14.7547 30.002 9.51031 30.002C7.56268 30.0055 5.66195 29.4045 4.07031 28.282C6.72653 31.1388 10.8604 32.0792 14.491 30.6526C18.1217 29.2259 20.5095 25.7229 20.5103 21.822V11.342C22.6036 12.842 25.1151 13.6465 27.6903 13.642V8.49203C27.1861 8.49043 26.6835 8.43681 26.1903 8.33203Z" fill="#A1A1AA" fill-opacity="0.75" />
    <path d="M19.0206 20.5108V10.0008C21.1132 11.502 23.6252 12.3066 26.2006 12.3008V8.30078C24.6791 7.97949 23.3033 7.17226 22.2806 6.00078C20.6299 4.93301 19.4908 3.23347 19.1306 1.30078H15.3506V22.0008C15.275 23.8475 14.038 25.4438 12.2686 25.978C10.4992 26.5122 8.58553 25.8672 7.50059 24.3708C5.73843 23.4428 4.83403 21.4345 5.30704 19.5C5.78004 17.5654 7.50904 16.201 9.50059 16.1908C9.93473 16.1947 10.366 16.262 10.7806 16.3908V12.3908C7.02216 12.4545 3.65636 14.7328 2.20077 18.1985C0.745178 21.6642 1.47477 25.6625 4.06059 28.3908C5.66792 29.4763 7.57141 30.0386 9.51059 30.0008C14.755 30.0008 19.0096 25.7552 19.0206 20.5108V20.5108Z" fill="#A1A1AA" />
  </g>
  <defs>
    <clipPath id="clip0_6290_58538">
      <rect width="128.778" height="31.3083" fill="white" />
    </clipPath>
  </defs>
</svg>
