<svg width="142" height="31" viewBox="0 0 142 31" fill="none" xmlns="http://www.w3.org/2000/svg">
  <path d="M18.2072 11.3509C17.9758 10.6136 17.3003 8.95617 17.1163 7.7325C16.7101 5.02228 18.127 3.23738 19.4282 2.82861C20.8885 2.42116 21.4589 3.15457 22.0241 4.8593C22.7549 7.45517 22.8364 10.8567 22.5906 15.7265C22.2712 22.3785 18.9432 30.4118 10.6706 30.2449C3.52968 30.0885 0.369949 25.4633 0.0413579 18.4064C-0.113737 15.0798 0.124163 11.7544 1.50162 7.05166C2.2324 4.53333 2.88433 3.63694 5.1516 3.15457C6.93388 2.82861 6.77353 4.69238 6.37002 6.89C5.48151 11.7545 5.0688 14.1032 5.39739 19.6222C5.71546 25.4633 8.39808 27.7358 11.3186 27.7358C15.6994 27.8199 17.6446 24.1699 18.4595 18.8914C19.1023 14.675 18.6173 12.6469 18.2072 11.3509ZM111.611 17.1118C113.317 17.1118 113.806 19.1293 113.399 20.3517C112.991 21.5662 111.534 22.9515 109.264 23.355C108.775 22.1353 108.53 17.1118 111.611 17.1118ZM79.9008 19.8614C79.9008 18.4879 79.166 17.351 78.2815 17.351C77.5428 17.351 75.846 18.1593 75.846 20.7565C75.846 22.7912 76.5689 23.7559 76.9001 24.1699C79.2462 23.4365 79.9008 21.4847 79.9008 19.8614V19.8614ZM54.6676 3.31624C54.5533 2.01502 53.5333 1.12914 52.1532 1.12914C50.6141 1.12914 49.1644 2.74449 49.3182 4.77387C49.4167 6.11189 50.2054 7.21201 51.755 7.21201C53.5333 7.21332 54.8306 5.18527 54.6676 3.31624ZM67.8599 8.08081C67.7192 5.81222 67.1698 4.78832 65.9514 4.87244C64.3361 4.96971 63.5895 10.0523 63.9194 15.3952C64.1297 18.8809 64.6489 19.4185 65.1326 19.3843C66.0263 19.3304 68.1701 13.103 67.8599 8.08081V8.08081ZM121.671 16.6202C120.666 20.7907 117.618 26.9262 113.07 26.9262C112.017 26.9262 110.151 26.5174 110.151 25.4633C110.151 24.3263 117.294 24.1699 117.294 18.7311C117.294 16.7057 115.429 13.8627 112.669 13.8627C109.019 13.8627 105.459 17.8413 105.459 23.3563C105.459 28.301 108.53 29.9242 111.612 29.9242C116.968 29.9242 120.214 25.5408 121.916 21.8934C122.731 24.3277 123.209 29.9242 125.245 29.9242C126.053 29.9242 126.625 29.5181 127.599 27.331C130.027 21.8921 132.382 15.6463 135.628 15.6463C136.842 15.6463 136.115 17.8413 139.034 17.8413C140.41 17.8413 141.38 16.7057 141.38 15.4018C141.38 13.5341 139.679 12.0791 137.086 12.0791C129.459 12.0791 127.842 23.518 126.624 23.518C124.594 23.518 125.244 14.3503 123.781 14.3503C122.482 14.349 121.845 15.896 121.671 16.6202V16.6202ZM56.7785 26.3531C57.9943 26.3531 60.0854 25.9588 61.731 23.3235C60.7899 21.2336 60.1183 17.0106 60.025 15.4728C59.5413 7.60895 62.5709 0.211706 65.887 0.00666541C68.3186 -0.140543 70.2639 2.16091 70.4873 5.88976C71.0853 15.6883 67.8218 19.7786 66.188 23.3077C66.464 24.676 68.7852 27.005 70.9749 27.005C71.7833 27.005 72.7611 26.5989 73.0069 26.2703C72.844 25.7064 72.6783 24.9769 72.6783 23.9189C72.6783 18.2408 76.3296 13.4526 79.4946 13.4526C82.009 13.4526 83.4693 16.7779 83.4693 18.9729C83.4693 21.5649 81.2769 23.6784 78.0344 25.7064C78.6048 26.2703 79.6537 26.6804 80.5501 26.6804C85.1779 26.6804 87.599 21.0812 89.3918 15.9683C89.7151 14.993 90.2869 13.6169 91.4199 13.6169C93.3664 13.6169 94.1813 26.4346 97.4173 26.4346C98.8013 26.4346 99.9343 23.5929 99.9343 21.4085C99.9343 19.7839 99.3665 19.6209 99.3665 17.2682C99.3665 14.675 100.747 12.4866 102.617 12.4866C103.751 12.4866 104.161 13.6169 104.161 14.993C104.161 20.1861 100.425 29.8414 94.9161 29.8414C90.7719 29.8414 91.0952 22.7018 89.6363 22.7018C88.0064 22.7018 85.7352 29.9216 77.7124 29.9216C76.4085 29.9216 75.0324 29.2736 73.8994 27.9724C71.9554 29.2736 70.3283 29.8414 68.4619 29.8414C65.4638 29.8414 64.1626 26.7579 62.9494 26.7579C61.4865 26.7579 59.8686 29.9216 54.9962 29.9216C51.1031 29.9216 50.4538 24.7351 49.0776 24.7351C47.8579 24.7351 45.9928 29.9216 43.9661 29.9216C40.554 29.9216 39.8311 20.9195 36.8238 20.9195C34.4724 20.9195 27.0397 30.0622 25.0222 29.8532C24.2112 29.7691 23.8695 29.1632 23.9549 28.3509C24.0692 27.2285 25.0353 24.2238 25.427 22.803C26.0828 20.3359 26.6848 17.6323 27.0213 16.7701C27.3551 15.9 28.2555 15.2796 28.9784 15.3466C29.3425 15.3808 29.4516 16.0603 29.5646 16.6215C29.9747 18.6273 30.5464 20.6724 31.1918 20.6724C32.3313 20.6724 36.0943 13.4513 38.2841 13.4513C40.9654 13.4513 41.2861 24.8113 44.9348 24.8113C46.1545 24.8113 47.0496 23.3537 47.8579 21.5635C47.9407 18.5576 48.7517 14.2675 51.1846 14.2675C52.8893 14.2675 53.7016 18.0765 52.4805 21.4071C52.4779 25.3791 55.0711 26.3531 56.7785 26.3531" fill="#A1A1AA" />
</svg>
