<svg xmlns="http://www.w3.org/2000/svg" width="64" height="64" fill="#e1251b"><path d="M7.8 41.237a25.45 25.45 0 0 1-1.718-9.289A25.99 25.99 0 0 1 32.21 6.084a27.9 27.9 0 0 1 3.658.255L32.94 9.3h-.795C25.016 9.296 18.3 12.638 14 18.326s-5.684 13.062-3.74 19.92h19.915l-8.462 15.556 20.042-20.296h-27.36L45.22 2.903A31.62 31.62 0 0 0 32.019.04a32.04 32.04 0 0 0-16.702 59.362l9.544-18.038zM48.72 4.62l-9.543 18.04H56.26a25.93 25.93 0 0 1-24.209 35.217 29.87 29.87 0 0 1-3.786-.255l2.895-2.927h.9c6.033 0 11.818-2.396 16.084-6.662s6.662-10.05 6.662-16.084a24.91 24.91 0 0 0-.859-6.172H34.023l8.303-15.684L21.903 30.42h27.423L18.85 61.15A32.04 32.04 0 0 0 48.721 4.621z"/></svg>